<svg width="23" height="29" viewBox="0 0 23 29" fill="none" xmlns="http://www.w3.org/2000/svg">
<path d="M18.0578 6.12463C15.2472 6.12463 13.4639 6.94568 11.7398 7.74001C10.1577 8.46852 8.66423 9.15728 6.32423 9.15728C4.51948 9.15728 3.23315 8.75719 1.85739 8.15639C1.55615 8.02476 1.2576 7.88727 0.950308 7.74587C0.873653 7.71068 0.794308 7.67549 0.716309 7.64031L0.718326 16.8041C0.718326 25.4993 11.6121 28.1553 11.6121 28.1553C11.6121 28.1553 22.5072 25.4993 22.5072 16.8041V6.92548C21.2827 6.46804 19.8888 6.12463 18.0578 6.12463ZM19.7772 16.8041C19.7772 19.4314 18.3927 21.6717 15.6634 23.463C14.094 24.4926 12.4808 25.1044 11.6074 25.3918C9.54643 24.7226 3.44765 22.2803 3.44765 16.8034L3.44698 11.8309C4.3043 12.0857 5.2161 12.2375 6.32423 12.2375C8.66356 12.2375 10.1577 11.5494 11.7398 10.8209C13.4639 10.0265 15.2472 9.20485 18.0578 9.20485C18.6785 9.20485 19.2467 9.2459 19.7772 9.31628V16.8041Z" fill="white"/>
<path d="M19.7773 0.112731C19.2427 0.0417039 18.6698 0 18.0431 0C15.2324 0 13.4499 0.820392 11.7244 1.61537C10.1429 2.34388 8.6495 3.032 6.3095 3.032C5.198 3.032 4.27814 2.873 3.44704 2.62799C2.55071 2.36409 1.75726 1.99983 0.941627 1.62384C0.866989 1.58931 0.792351 1.55477 0.717041 1.52089L0.717713 4.61283C0.792351 4.64737 0.866989 4.68191 0.941627 4.71579C1.75794 5.09178 2.55071 5.45603 3.44771 5.72059C4.27881 5.96495 5.198 6.1246 6.3095 6.1246C8.6495 6.1246 10.1429 5.43648 11.7244 4.70732C13.4499 3.91299 15.2324 3.09195 18.0431 3.09195C18.6698 3.09195 19.2427 3.13365 19.7773 3.20533C20.8121 3.34282 21.6977 3.595 22.5073 3.89866V0.806057C21.6977 0.503052 20.8121 0.250223 19.7773 0.112731Z" fill="white"/>
</svg>
