<svg width="25" height="34" viewBox="0 0 25 34" fill="none" xmlns="http://www.w3.org/2000/svg">
<path d="M23.9214 8.86429L15.4214 0.364286C15.1786 0.121429 14.9357 0 14.5714 0H2.42857C1.09286 0 0 1.09286 0 2.42857V31.5714C0 32.9071 1.09286 34 2.42857 34H21.8571C23.1929 34 24.2857 32.9071 24.2857 31.5714V9.71429C24.2857 9.35 24.1643 9.10714 23.9214 8.86429ZM14.5714 2.91429L21.3714 9.71429H14.5714V2.91429ZM21.8571 31.5714H2.42857V2.42857H12.1429V9.71429C12.1429 11.05 13.2357 12.1429 14.5714 12.1429H21.8571V31.5714Z" fill="white"/>
<path d="M4.85715 24.2858H19.4286V26.7143H4.85715V24.2858Z" fill="white"/>
<path d="M4.85715 17H19.4286V19.4286H4.85715V17Z" fill="white"/>
</svg>
