<svg width="29" height="34" viewBox="0 0 29 34" fill="none" xmlns="http://www.w3.org/2000/svg">
<path d="M29.0001 26.7141H24.1667V21.8571H21.7501V26.7141H16.9167V29.1427H21.7501V33.9998H24.1667V29.1427H29.0001V26.7141Z" fill="white"/>
<path d="M12.0833 31.5714H2.41667V2.42895H12.0833V9.71457C12.0852 10.3581 12.3405 10.9747 12.7933 11.4297C13.2461 11.8847 13.8597 12.1412 14.5 12.1431H21.75V17.0002H24.1667V9.71457C24.1709 9.55499 24.1407 9.39637 24.0782 9.24964C24.0156 9.1029 23.9221 8.97154 23.8042 8.86458L15.3458 0.364694C15.2395 0.246114 15.1087 0.152136 14.9627 0.0892453C14.8167 0.0263542 14.6588 -0.00395346 14.5 0.000412901H2.41667C1.77632 0.00233476 1.16274 0.258815 0.709938 0.713839C0.257139 1.16886 0.00191246 1.78545 0 2.42895V31.5714C0.00191246 32.2149 0.257139 32.8315 0.709938 33.2865C1.16274 33.7416 1.77632 33.9981 2.41667 34H12.0833V31.5714ZM14.5 2.91466L21.2667 9.71457H14.5V2.91466Z" fill="white"/>
</svg>
