<svg width="24" height="32" viewBox="0 0 24 32" fill="none" xmlns="http://www.w3.org/2000/svg">
<path d="M11.6365 23.9781L17.8082 17.8078C19.0286 16.5872 19.8597 15.0321 20.1963 13.3392C20.533 11.6463 20.36 9.89161 19.6994 8.29697C19.0388 6.70234 17.9202 5.33939 16.4851 4.38048C15.0499 3.42157 13.3626 2.90975 11.6365 2.90975C9.91047 2.90975 8.22318 3.42157 6.788 4.38048C5.35282 5.33939 4.23421 6.70234 3.57361 8.29697C2.91301 9.89161 2.74009 11.6463 3.07672 13.3392C3.41335 15.0321 4.24441 16.5872 5.46481 17.8078L11.6365 23.9781ZM19.865 19.8646L11.6365 28.093L3.40805 19.8646C1.78071 18.2371 0.672503 16.1637 0.223554 13.9065C-0.225395 11.6492 0.00508168 9.30954 0.88584 7.18328C1.7666 5.05702 3.25808 3.23968 5.17168 1.96107C7.08529 0.682455 9.33507 0 11.6365 0C13.938 0 16.1878 0.682455 18.1014 1.96107C20.015 3.23968 21.5065 5.05702 22.3872 7.18328C23.268 9.30954 23.4984 11.6492 23.0495 13.9065C22.6005 16.1637 21.4923 18.2371 19.865 19.8646ZM1.45457 29.0909H21.8185V32H1.45457V29.0909Z" fill="white"/>
<circle cx="11.5" cy="11.5" r="3.5" fill="white"/>
</svg>
