<svg width="85" height="138" viewBox="0 0 85 138" fill="none" xmlns="http://www.w3.org/2000/svg">
<path opacity="0.1" fill-rule="evenodd" clip-rule="evenodd" d="M82.698 0C85.6852 0 88.4156 0.20372 90.9717 0.553388C95.9112 1.2284 100.135 2.4644 104 3.95277V19.0964C100.134 17.6081 95.9097 16.3736 90.9717 15.6986C88.4156 15.3504 85.6852 15.1452 82.698 15.1452C69.2783 15.1452 60.7737 19.1649 52.5366 23.0583C44.9905 26.628 37.8618 30 26.691 30C21.3846 30 16.997 29.2186 13.0313 28.0175C8.75228 26.7253 4.96396 24.9405 1.06709 23.0979C0.80326 22.9746 0.538585 22.8496 0.274321 22.7249C0.183325 22.6819 0.0923765 22.639 0.00152876 22.5962L0 7.45097C0.236241 7.56087 0.472481 7.67278 0.708276 7.78448C0.828015 7.8412 0.947639 7.89787 1.06709 7.95419C4.96548 9.79527 8.75075 11.5801 13.0283 12.8723C16.9955 14.0749 21.3846 14.8533 26.691 14.8533C37.8618 14.8533 44.9905 11.4828 52.5366 7.91466C60.7722 4.02118 69.2783 0 82.698 0ZM52.6092 37.9185C60.8429 34.0232 69.3486 30 82.7662 30C91.5012 30 98.1572 31.6829 104 33.9258V82.3544C104 124.979 52.0023 138 52.0023 138C52.0023 138 0.00764357 124.981 0.00764357 82.3544L0 37.4316C0.175609 37.5139 0.35294 37.5956 0.530194 37.6772C0.726356 37.7675 0.922425 37.8578 1.11596 37.9489C2.57894 38.6428 4.00523 39.3169 5.44528 39.962C12.0111 42.9049 18.1504 44.8662 26.7632 44.8662C37.932 44.8662 45.0619 41.4928 52.6092 37.9185ZM71.336 114.996C84.3637 106.216 90.9723 95.2334 90.9723 82.3528H90.9738V45.6438C88.4407 45.3029 85.7303 45.099 82.7677 45.099C69.3578 45.099 60.8561 49.1212 52.6277 53.0141L52.6107 53.0221L52.606 53.0244C45.0605 56.5932 37.9312 59.9653 26.7647 59.9653C21.4769 59.9653 17.1247 59.2212 13.0323 57.9689L13.0369 82.3498C13.0369 109.199 42.1436 121.169 51.9778 124.448C56.1482 123.042 63.8452 120.043 71.336 114.996Z" fill="#B6391E"/>
</svg>
