<?xml version="1.0" standalone="no"?>
<!DOCTYPE svg PUBLIC "-//W3C//DTD SVG 1.1//EN" "http://www.w3.org/Graphics/SVG/1.1/DTD/svg11.dtd" >
<svg xmlns="http://www.w3.org/2000/svg" xmlns:xlink="http://www.w3.org/1999/xlink" version="1.1">
<metadata>
Created by FontForge 20170731 at Fri Dec 17 20:21:03 2021
 By Aleksey,,,
(c) 2007 Adobe Systems Incorporated. All Rights Reserved.
</metadata>
<defs>
<font id="HypatiaSansPro-Black" horiz-adv-x="1277" >
  <font-face 
    font-family="Hypatia Sans Pro Black"
    font-weight="900"
    font-stretch="normal"
    units-per-em="2048"
    panose-1="2 11 9 2 2 2 4 2 3 3"
    ascent="1503"
    descent="-545"
    x-height="977"
    cap-height="1403"
    bbox="-487 -600 3549 2224"
    underline-thickness="94"
    underline-position="-284"
    unicode-range="U+0020-FB06"
  />
<missing-glyph horiz-adv-x="946" 
d="M0 0v1325h946v-1325h-946zM152 94h643l-322 484zM530 664l322 -484v967zM94 1147v-967l322 484zM152 1231l321 -483l322 483h-643z" />
    <glyph glyph-name="f_f" unicode="ff" horiz-adv-x="1560" 
d="M743 1503q114 0 184 -21t128 -55q46 39 122 66t166 27q50 0 133.5 -10t100.5 -11v-342q-19 25 -58.5 40t-86.5 15q-78 0 -117 -48t-39 -115v-72h227v-277h-227v-495q0 -35 1 -109.5t1 -95.5h-387q4 94 4 205v495h-279v-495q0 -35 1 -109.5t1 -95.5h-385q3 70 3 205v495
h-179v277h179v53q0 217 140.5 345t366.5 128zM616 1040v-63h279v47q0 46 10 123q-49 49 -131 49q-71 0 -114.5 -47.5t-43.5 -108.5z" />
    <glyph glyph-name="f_f_i" unicode="ffi" horiz-adv-x="2029" 
d="M1915 666v-461q0 -88 6 -205h-393q6 64 6 205v475h-258v-475q0 -111 4 -205h-387q4 94 4 205v475h-281v-475q0 -35 1 -109.5t1 -95.5h-387q5 118 5 205v475h-179v297h179v4q0 251 146.5 386.5t383.5 135.5q196 0 326 -82q142 99 364 99q88 0 154.5 -12.5t114.5 -27
t81 -16.5v-372q-74 74 -143.5 107.5t-183.5 33.5q-203 0 -203 -211v-45h645q-6 -135 -6 -311zM616 977h281v53q0 18 7.5 65.5t13.5 69.5q-60 52 -142 52q-26 0 -52 -9t-51 -27t-41 -52.5t-16 -79.5v-72z" />
    <glyph glyph-name="f_f_l" unicode="ffl" horiz-adv-x="2060" 
d="M1423 1231q-147 0 -147 -195v-59h197v-297h-197v-475q0 -111 4 -205h-387q4 94 4 205v475h-281v-475q0 -35 1 -109.5t1 -95.5h-387q5 118 5 205v475h-179v297h179v31q0 154 73.5 268.5t192 170.5t264.5 56q197 0 328 -82q139 99 362 99q90 0 164 -13t114.5 -29t94.5 -29
t108 -13h7q-7 -75 -7 -228v-1003q0 -137 7 -205h-392q4 86 4 205v966q-45 60 -133 60zM616 977h281v39q0 92 21 147q-50 54 -142 54q-77 0 -118.5 -48.5t-41.5 -126.5v-65z" />
    <glyph glyph-name="longs_t" unicode="&#x17f;t" horiz-adv-x="1624" 
d="M784 977h131v10q0 97 -36 151t-105 54q-73 0 -116.5 -57t-43.5 -166v-754q0 -117 4 -215h-387q5 123 5 215v449h-179v313h179v18q0 110 37 205t105.5 165.5t172.5 110.5t231 40q230 0 371 -147t141 -382v-10h254v-313h-254v-187q0 -180 136 -180q59 0 90 22v-319
q-19 0 -79.5 -7t-111.5 -7q-90 0 -163.5 25t-130.5 76t-88.5 137t-31.5 200v240h-131v313z" />
    <glyph glyph-name="T_h" unicode="Th" horiz-adv-x="2373" 
d="M1880 205v346q0 67 -29.5 104t-81.5 37q-118 0 -118 -149v-338q0 -126 10 -205h-397q6 94 6 205v868h-385v-706q0 -283 8 -367h-422q10 158 10 367v444q0 148 -6 262h-47q-214 0 -371 -10v348q126 -8 371 -8h1233q-10 -54 -10 -203v-309q82 104 258 104t264 -121.5
t88 -332.5v-336q0 -126 10 -205h-399q8 84 8 205z" />
    <glyph glyph-name="f_b" unicode="fb" horiz-adv-x="2068" 
d="M1276 1231v-320q35 36 101.5 61t158.5 25q143 0 251 -66t164 -177t56 -250q0 -229 -140.5 -373.5t-363.5 -144.5q-63 0 -129.5 21t-97.5 54v-61h-381v1174q-16 16 -27.5 25.5t-37.5 19.5t-56 10q-160 0 -160 -182v-70h197v-297h-197v-475q0 -111 4 -205h-387q5 118 5 205
v475h-179v297h179v24q0 110 32.5 200.5t85 148.5t122.5 97.5t140.5 56t143.5 16.5q113 0 193.5 -12.5t115.5 -27.5t90 -27.5t123 -12.5q-6 -68 -6 -209zM1268 492q0 -79 53 -135t127 -56q71 0 120.5 56t49.5 135q0 78 -51.5 134t-126.5 56q-71 0 -121.5 -56t-50.5 -134z" />
    <glyph glyph-name="f_f_b" unicode="ffb" horiz-adv-x="2729" 
d="M1423 1231q-65 0 -106 -47.5t-41 -134.5v-72h197v-297h-197v-475q0 -111 4 -205h-387q4 94 4 205v475h-281v-475q0 -35 1 -109.5t1 -95.5h-387q5 118 5 205v475h-179v297h179v18q0 155 70.5 272t185 176.5t253.5 59.5q220 0 351 -82q46 45 149.5 72t212.5 27
q95 0 187 -21t166 -42t126 -21h7q0 -1 -3.5 -63t-3.5 -89v-373q37 37 104 61.5t159 24.5q213 0 341 -140.5t128 -352.5q0 -229 -140.5 -373.5t-363.5 -144.5q-63 0 -129 21t-99 54v-61h-389q8 81 8 205v964q-44 62 -133 62zM1931 492q0 -79 52 -135t126 -56q72 0 122 55.5
t50 135.5q0 78 -51.5 134t-126.5 56q-72 0 -122 -56t-50 -134zM616 977h281v55q0 64 18 131q-17 21 -54.5 37.5t-84.5 16.5q-77 0 -118.5 -48.5t-41.5 -126.5v-65z" />
    <glyph glyph-name="f_f_h" unicode="ffh" horiz-adv-x="2660" 
d="M1423 1231q-147 0 -147 -195v-59h197v-297h-197v-475q0 -111 4 -205h-387q4 94 4 205v475h-281v-475q0 -35 1 -109.5t1 -95.5h-387q5 118 5 205v475h-179v297h179v31q0 154 73.5 268.5t192 170.5t264.5 56q197 0 328 -82q139 99 362 99q90 0 164 -13t114.5 -29t94.5 -29
t108 -13h7q-7 -75 -7 -228v-317q82 104 258 104t264.5 -122t88.5 -332v-336q0 -126 10 -205h-399q8 84 8 205v346q0 67 -29.5 104t-81.5 37q-55 0 -85.5 -35t-33.5 -100v-352q0 -137 7 -205h-392q4 86 4 205v966q-45 60 -133 60zM616 977h281v39q0 92 21 147q-50 54 -142 54
q-77 0 -118.5 -48.5t-41.5 -126.5v-65z" />
    <glyph glyph-name="f_f_j" unicode="ffj" horiz-adv-x="2037" 
d="M1915 772v-780q0 -137 -34 -243t-91.5 -168t-126.5 -93t-147 -31q-83 0 -157.5 9.5t-82.5 9.5v327q29 -26 108 -26q71 0 110.5 61.5t39.5 210.5v631h-258v-475q0 -111 4 -205h-387q4 94 4 205v475h-281v-475q0 -35 1 -109.5t1 -95.5h-387q5 118 5 205v475h-179v297h179v4
q0 251 146.5 386.5t383.5 135.5q196 0 326 -82q142 99 364 99q88 0 154.5 -12.5t114.5 -27t81 -16.5v-372q-74 74 -143.5 107.5t-183.5 33.5q-203 0 -203 -211v-45h645q-6 -73 -6 -205zM616 977h281v53q0 18 7.5 65.5t13.5 69.5q-60 52 -142 52q-26 0 -52 -9t-51 -27
t-41 -52.5t-16 -79.5v-72z" />
    <glyph glyph-name="f_f_k" unicode="ffk" horiz-adv-x="2695" 
d="M1423 1231q-147 0 -147 -195v-59h197v-297h-197v-475q0 -111 4 -205h-387q4 94 4 205v475h-281v-475q0 -35 1 -109.5t1 -95.5h-387q5 118 5 205v475h-179v297h179v31q0 154 73.5 268.5t192 170.5t264.5 56q197 0 328 -82q139 99 362 99q90 0 164 -13t114.5 -29t94.5 -29
t108 -13h7q-7 -75 -7 -228v-616q203 305 242 385h389q-73 -93 -301 -436q134 -180 217 -286.5t114.5 -144t96.5 -110.5h-467q-19 32 -291 391v-186q0 -137 7 -205h-392q4 86 4 205v966q-45 60 -133 60zM616 977h281v39q0 92 21 147q-50 54 -142 54q-77 0 -118.5 -48.5
t-41.5 -126.5v-65z" />
    <glyph glyph-name="f_f_t" unicode="fft" horiz-adv-x="2318" 
d="M616 700v-495q0 -35 1 -109.5t1 -95.5h-385q3 70 3 205v495h-179v277h179v47q0 215 136 347t361 132q85 0 152 -13t99.5 -27t70.5 -36q116 93 288 93q66 0 133 -9.5t83 -9.5v-325q-49 36 -132 36q-70 0 -110.5 -46t-40.5 -136v-53h332v82q0 88 -4 186h387q0 -27 -1 -101
t-1 -85v-82h254v-277h-254v-233q0 -170 133 -170q73 0 90 20v-317q-16 0 -83.5 -8t-121.5 -8q-82 0 -152.5 24.5t-126.5 72.5t-88 127.5t-32 180.5v311h-332v-495q0 -35 1 -109.5t1 -95.5h-387q4 94 4 205v495h-279zM616 1032v-55h279v35q0 83 10 137q-50 47 -135 47
q-73 0 -113.5 -50t-40.5 -114z" />
    <glyph glyph-name="f_h" unicode="fh" horiz-adv-x="1996" 
d="M1276 1231v-340q79 104 256 104t264.5 -121.5t87.5 -332.5v-336q0 -126 10 -205h-397q6 63 6 205v346q0 67 -29.5 104t-80.5 37q-117 0 -117 -149v-338q0 -147 6 -205h-393q6 64 6 205v969q-16 16 -27.5 25.5t-37.5 19.5t-56 10q-160 0 -160 -182v-70h197v-297h-197v-475
q0 -111 4 -205h-387q5 118 5 205v475h-179v297h179v24q0 110 32.5 200.5t85 148.5t122.5 97.5t140.5 56t143.5 16.5q113 0 193.5 -12.5t115.5 -27.5t90 -27.5t123 -12.5q-6 -68 -6 -209z" />
    <glyph glyph-name="f_i" unicode="fi" horiz-adv-x="1376" 
d="M1253 664v-459q0 -117 9 -205h-394q4 86 4 205v495h-256v-495q0 -35 1 -109.5t1 -95.5h-387q5 118 5 205v495h-179v277h179v18q0 119 33.5 213.5t102 165t179.5 108.5t258 38q95 0 199 -27t137 -29v-372q-71 71 -142 106t-167 35q-220 0 -220 -191v-65h646
q-9 -101 -9 -313z" />
    <glyph glyph-name="f_j" unicode="fj" horiz-adv-x="1376" 
d="M1255 772v-780q0 -137 -34 -243t-91.5 -168t-126.5 -93t-147 -31q-83 0 -157.5 9.5t-82.5 9.5v327q29 -26 109 -26q71 0 110 61.5t39 210.5v633l-2 -2h-256v-475q0 -35 1 -109.5t1 -95.5h-387q5 118 5 205v475h-179v297h179v18q0 119 33.5 213.5t102 165t179.5 108.5
t258 38q95 0 199 -27t137 -29v-372q-71 71 -142 106t-167 35q-220 0 -220 -191v-65h646q-7 -86 -7 -205z" />
    <glyph glyph-name="f_k" unicode="fk" horiz-adv-x="2033" 
d="M1276 1231v-637q170 256 240 383h391q-22 -28 -55 -74.5t-60 -86t-88.5 -130t-99.5 -145.5q24 -31 112 -144t127 -163t97 -122t94 -112h-467q-16 29 -36 59.5t-55.5 77.5t-53 69.5t-73.5 92.5t-73 92v-186q0 -147 6 -205h-393q6 64 6 205v969q-16 16 -27.5 25.5
t-37.5 19.5t-56 10q-160 0 -160 -182v-70h197v-297h-197v-475q0 -111 4 -205h-387q5 118 5 205v475h-179v297h179v24q0 110 32.5 200.5t85 148.5t122.5 97.5t140.5 56t143.5 16.5q113 0 193.5 -12.5t115.5 -27.5t90 -27.5t123 -12.5q-6 -68 -6 -209z" />
    <glyph glyph-name="f_l" unicode="fl" horiz-adv-x="1398" 
d="M1276 1231v-1026q0 -147 6 -205h-393q6 64 6 205v969q-16 16 -27.5 25.5t-37.5 19.5t-56 10q-160 0 -160 -182v-70h197v-297h-197v-475q0 -111 4 -205h-387q5 118 5 205v475h-179v297h179v24q0 110 32.5 200.5t85 148.5t122.5 97.5t140.5 56t143.5 16.5
q113 0 193.5 -12.5t115.5 -27.5t90 -27.5t123 -12.5q-6 -68 -6 -209z" />
    <glyph glyph-name="f_t" unicode="ft" horiz-adv-x="1687" 
d="M57 700v277h179v35q0 249 119 376.5t327 127.5q66 0 132.5 -9.5t82.5 -9.5v-321q-43 32 -131 32q-69 0 -109.5 -48t-40.5 -138v-45h361v82q0 88 -4 186h387q0 -27 -1 -101t-1 -85v-82h254v-277h-254v-233q0 -170 133 -170q73 0 90 20v-317q-16 0 -83.5 -8t-121.5 -8
q-82 0 -152.5 24.5t-126.5 72.5t-88 127.5t-32 180.5v311h-361v-495q0 -35 1 -109.5t1 -95.5h-387q5 118 5 205v495h-179z" />
    <glyph glyph-name="longs_b" unicode="&#x17f;b" horiz-adv-x="2068" 
d="M1276 1231v-320q35 36 101.5 61t158.5 25q143 0 251 -66t164 -177t56 -250q0 -229 -140.5 -373.5t-363.5 -144.5q-63 0 -129.5 21t-97.5 54v-61h-381v1174q-16 16 -27.5 25.5t-37.5 19.5t-56 10q-160 0 -160 -182v-842q0 -111 4 -205h-387q5 118 5 205v459h-179v313h179
v24q0 110 32.5 200.5t85 148.5t122.5 97.5t140.5 56t143.5 16.5q113 0 193.5 -12.5t115.5 -27.5t90 -27.5t123 -12.5q-6 -68 -6 -209zM1268 492q0 -79 53 -135t127 -56q71 0 120.5 56t49.5 135q0 78 -51.5 134t-126.5 56q-71 0 -121.5 -56t-50.5 -134z" />
    <glyph glyph-name="longs_h" unicode="&#x17f;h" horiz-adv-x="1998" 
d="M1276 1231v-340q79 104 256 104t264.5 -121.5t87.5 -332.5v-336q0 -126 10 -205h-397q6 63 6 205v346q0 67 -29.5 104t-80.5 37q-111 0 -117 -135v-352q0 -147 6 -205h-393q6 64 6 205v969q-16 16 -27.5 25.5t-37.5 19.5t-56 10q-160 0 -160 -182v-842q0 -111 4 -205
h-387q5 118 5 205v459h-179v313h179v24q0 110 32.5 200.5t85 148.5t122.5 97.5t140.5 56t143.5 16.5q113 0 193.5 -12.5t115.5 -27.5t90 -27.5t123 -12.5q-6 -68 -6 -209z" />
    <glyph glyph-name="longs_i" unicode="&#x17f;i" horiz-adv-x="1378" 
d="M614 946v-741q0 -111 4 -205h-387q5 118 5 205v459h-179v313h179v18q0 245 140 385t423 140q100 0 201.5 -26.5t144.5 -29.5v-370q-36 31 -60 49.5t-64 42.5t-85.5 35.5t-97.5 11.5q-69 0 -114 -19t-68.5 -58.5t-32.5 -88.5t-9 -121zM1255 772v-567q0 -117 9 -205h-394
q4 86 4 205v557h-106q9 17 21 48t19 52t20.5 64.5t15.5 50.5h420q-9 -101 -9 -205z" />
    <glyph glyph-name="longs_k" unicode="&#x17f;k" horiz-adv-x="2029" 
d="M1276 1231v-631q149 222 235 377h392q-43 -55 -304 -436q22 -28 90 -116t101 -129.5t85 -107.5t89 -110.5t66 -77.5h-467q-16 29 -36.5 59.5t-54 75t-52.5 69t-72 91t-72 90.5v-180q0 -147 6 -205h-393q6 64 6 205v969q-16 16 -27.5 25.5t-37.5 19.5t-56 10
q-160 0 -160 -182v-842q0 -111 4 -205h-387q5 118 5 205v459h-179v313h179v24q0 110 32.5 200.5t85 148.5t122.5 97.5t140.5 56t143.5 16.5q113 0 193.5 -12.5t115.5 -27.5t90 -27.5t123 -12.5q-6 -68 -6 -209z" />
    <glyph glyph-name="longs_l" unicode="&#x17f;l" horiz-adv-x="1398" 
d="M1276 1231v-1026q0 -147 6 -205h-393q6 64 6 205v969q-16 16 -27.5 25.5t-37.5 19.5t-56 10q-160 0 -160 -182v-842q0 -111 4 -205h-387q5 118 5 205v459h-179v313h179v24q0 110 32.5 200.5t85 148.5t122.5 97.5t140.5 56t143.5 16.5q113 0 193.5 -12.5t115.5 -27.5
t90 -27.5t123 -12.5q-6 -68 -6 -209z" />
    <glyph glyph-name="longs_longs_i" unicode="&#x17f;&#x17f;i" horiz-adv-x="2015" 
d="M614 991v-786q0 -111 4 -205h-387q5 118 5 205v459h-179v313h179v10q0 245 146 380.5t384 135.5q112 0 186 -21.5t140 -58.5q55 38 146 67.5t206 29.5q116 0 225 -26.5t137 -27.5v-374q-47 56 -133.5 99.5t-191.5 43.5q-120 0 -162.5 -67t-42.5 -222v-741q0 -111 4 -205
h-387q4 94 4 205v459h-178v313h178v65q0 22 6.5 63.5t14.5 61.5q-18 16 -53.5 31.5t-76.5 15.5q-87 0 -130.5 -50t-43.5 -173zM1915 772v-567q0 -127 8 -205h-393q4 86 4 205v557h-107q9 17 21 48t19 52t20.5 64.5t15.5 50.5h420q-8 -90 -8 -205z" />
    <glyph glyph-name="longs_longs_l" unicode="&#x17f;&#x17f;l" horiz-adv-x="2060" 
d="M614 1042v-837q0 -111 4 -205h-387q5 118 5 205v459h-179v313h179v31q0 154 73.5 268.5t192 170.5t264.5 56q197 0 328 -82q139 99 362 99q90 0 164 -13t114.5 -29t94.5 -29t108 -13h7q-7 -75 -7 -228v-1003q0 -137 7 -205h-392q4 86 4 205v966q-45 60 -133 60
q-147 0 -147 -195v-831q0 -135 6 -205h-389q4 94 4 205v459h-178v313h178v39q0 92 21 147q-50 54 -142 54q-77 0 -119.5 -48.5t-42.5 -126.5z" />
    <glyph glyph-name="t_f" unicode="tf" horiz-adv-x="1597" 
d="M567 664v-197q0 -170 133 -170q73 0 93 20v-317q-17 0 -84 -8t-121 -8q-65 0 -123.5 15t-109.5 47.5t-88 79.5t-58 114t-21 149v275h-131v313h131v82q0 113 -6 186h391q-6 -74 -6 -186v-82h363v35q0 248 118 376t320 128q60 0 129.5 -9.5t116.5 -9.5v-342q-47 53 -154 53
q-67 0 -108 -46.5t-41 -135.5v-49h227v-313h-227v-459q0 -135 6 -205h-393q6 141 6 205v459h-363z" />
    <glyph glyph-name="t_t" unicode="tt" horiz-adv-x="1667" 
d="M182 1245h391q-6 -74 -6 -186v-82h254v-313h-254v-197q0 -170 133 -170q73 0 93 20v-317q-17 0 -84 -8t-121 -8q-65 0 -123.5 15t-109.5 47.5t-88 79.5t-58 114t-21 149v275h-131v313h131v82q0 113 -6 186zM952 1245h391q-6 -73 -6 -186v-82h254v-313h-254v-197
q0 -170 133 -170q73 0 93 20v-317q-17 0 -84 -8t-121 -8q-65 0 -123.5 15t-109.5 47.5t-88 79.5t-58 114t-21 149v275h-131v313h131v82q0 113 -6 186z" />
    <glyph glyph-name="Tcommaaccent_h" unicode="&#x162;h" horiz-adv-x="2373" 
d="M1880 205v346q0 67 -29.5 104t-81.5 37q-118 0 -118 -149v-338q0 -126 10 -205h-397q6 94 6 205v868h-385v-706q0 -283 8 -367h-422q10 158 10 367v444q0 148 -6 262h-47q-214 0 -371 -10v348q126 -8 371 -8h1233q-10 -54 -10 -203v-309q82 104 258 104t264 -121.5
t88 -332.5v-336q0 -126 10 -205h-399q8 84 8 205zM547 -254v203q168 0 265 -71.5t97 -188.5q0 -107 -75.5 -169.5t-208.5 -62.5q-86 0 -148 27v221q41 -41 98 -41q60 0 60 39q0 20 -25 31.5t-63 11.5z" />
    <glyph glyph-name="Tcaron_h" unicode="&#x164;h" horiz-adv-x="2373" 
d="M1880 205v346q0 67 -29.5 104t-81.5 37q-118 0 -118 -149v-338q0 -126 10 -205h-397q6 94 6 205v868h-385v-706q0 -283 8 -367h-422q10 158 10 367v444q0 148 -6 262h-47q-214 0 -371 -10v348q126 -8 371 -8h1233q-10 -54 -10 -203v-309q82 104 258 104t264 -121.5
t88 -332.5v-336q0 -126 10 -205h-399q8 84 8 205zM711 1739l71 73h342l-381 -329h-79l-373 329h352z" />
    <glyph glyph-name=".notdef" horiz-adv-x="946" 
d="M0 0v1325h946v-1325h-946zM152 94h643l-322 484zM530 664l322 -484v967zM94 1147v-967l322 484zM152 1231l321 -483l322 483h-643z" />
    <glyph glyph-name=".null" horiz-adv-x="0" 
 />
    <glyph glyph-name="nonmarkingreturn" horiz-adv-x="682" 
 />
    <glyph glyph-name="space" unicode=" " horiz-adv-x="401" 
 />
    <glyph glyph-name="exclam" unicode="!" horiz-adv-x="899" 
d="M334 803v371q0 143 -8 229h399q-6 -73 -6 -229v-371q0 -155 6 -232h-399q8 102 8 232zM315 199q0 90 62.5 153.5t154.5 63.5t156 -63.5t64 -153.5t-64 -153.5t-156 -63.5t-154.5 63.5t-62.5 153.5z" />
    <glyph glyph-name="quotedbl" unicode="&#x22;" horiz-adv-x="1015" 
d="M84 1483h371l-62 -615h-252zM563 1483h371l-62 -615h-251z" />
    <glyph glyph-name="numbersign" unicode="#" horiz-adv-x="1171" 
d="M385 18h-244l62 326h-160v254h205l43 193h-172v247h209l57 308h242l-58 -308h176l60 308h244l-58 -308h156v-247h-195l-41 -193h162v-254h-203l-65 -326h-244l66 326h-178zM492 598h176l39 193h-177z" />
    <glyph glyph-name="dollar" unicode="$" horiz-adv-x="1171" 
d="M649 969q0 -25 20.5 -49.5t53.5 -47.5t73 -49.5t79.5 -62t72.5 -77t53.5 -102t20.5 -130.5q0 -138 -79 -232t-216 -133v-154h-244v125q-68 1 -158.5 14.5t-129.5 16.5v381q56 -60 143.5 -99.5t159.5 -39.5q100 0 100 76q0 27 -20 51.5t-51.5 47.5t-70 48t-77 59.5
t-70 75.5t-51.5 101.5t-20 132.5q0 128 64 218t185 130l-4 166h244v-136q42 -2 119 -12.5t121 -11.5v-350q-94 106 -236 106q-82 0 -82 -63z" />
    <glyph glyph-name="percent" unicode="%" horiz-adv-x="1814" 
d="M440 1423h2q154 0 260.5 -104.5t106.5 -253.5q0 -160 -109 -271.5t-268 -111.5q-157 0 -263 107t-106 262t108.5 263.5t268.5 108.5zM440 1163h-2q-44 0 -76 -30.5t-32 -73.5q0 -47 31 -81t75 -34q43 0 75 35t32 82q0 42 -30.5 72t-72.5 30zM1382 717h2q154 0 260.5 -104
t106.5 -251q0 -157 -108.5 -267.5t-266.5 -110.5q-156 0 -262 105.5t-106 258.5t108.5 261t265.5 108zM1382 459h-2q-43 0 -73.5 -30t-30.5 -73q0 -49 30 -82.5t72 -33.5q43 0 74 34.5t31 83.5q0 41 -30 71t-71 30zM526 0h-305l1067 1403h307z" />
    <glyph glyph-name="ampersand" unicode="&#x26;" horiz-adv-x="1544" 
d="M1122 786h396q-181 -185 -347 -395q115 -97 224 -110v-299q-160 -4 -265.5 29t-199.5 110q-149 -139 -379 -139q-112 0 -201 34t-143 91.5t-82.5 130t-28.5 153.5q0 198 260 352q-47 44 -79.5 113.5t-32.5 157.5q0 140 114.5 242t276.5 102q96 0 179 -39t136.5 -118
t53.5 -181q0 -85 -36 -149t-124 -138q75 -72 129 -135q16 19 64.5 84.5t84.5 103.5zM594 287q76 0 143 61q-97 128 -194 215q-86 -71 -86 -137q0 -55 42 -97t95 -42zM545 1018q0 -27 22 -56t39 -42t31 -21q42 22 68 55t26 68q0 34 -26 59t-64 25q-40 0 -68 -26.5t-28 -61.5z
" />
    <glyph glyph-name="quotesingle" unicode="'" horiz-adv-x="538" 
d="M84 1483h371l-62 -615h-252z" />
    <glyph glyph-name="parenleft" unicode="(" horiz-adv-x="866" 
d="M770 -55v-340q-170 55 -305.5 156.5t-221.5 230t-131.5 276t-45.5 301.5q0 343 193.5 605t510.5 358v-342q-161 -87 -260.5 -246t-99.5 -362q0 -204 99 -376t261 -261z" />
    <glyph glyph-name="parenright" unicode=")" horiz-adv-x="866" 
d="M94 1192v340q170 -55 306 -156.5t222 -230.5t131.5 -276.5t45.5 -301.5q0 -344 -193 -605t-512 -357v342q163 87 263 246t100 362q0 204 -99.5 376t-263.5 261z" />
    <glyph glyph-name="asterisk" unicode="*" horiz-adv-x="1159" 
d="M113 870v308q81 -26 182 -39l121 -17l-76 95q-42 52 -79 92.5t-44 42.5l266 157q-3 -37 54 -184l43 -111l41 111q55 123 55 182l270 -155q-34 -15 -127 -135l-76 -95l117 17q119 14 187 41v-308q-30 16 -187 43l-117 17l76 -96q59 -80 127 -140l-268 -149q0 35 -57 180
l-41 111l-43 -109q-56 -147 -56 -182l-268 153q16 9 55 49.5t74 88.5l74 94l-121 -17q-84 -15 -182 -45z" />
    <glyph glyph-name="plus" unicode="+" horiz-adv-x="1171" 
d="M748 1020v-324h319v-293h-319v-319h-326v319h-318v293h318v324h326z" />
    <glyph glyph-name="comma" unicode="," horiz-adv-x="669" 
d="M180 420h373q0 -468 -174 -754h-299q48 122 74 292t26 462z" />
    <glyph glyph-name="hyphen" unicode="-" horiz-adv-x="786" 
d="M66 672h653v-348h-653v348z" />
    <glyph glyph-name="period" unicode="." horiz-adv-x="671" 
d="M96 209q0 100 70.5 172t169.5 72q98 0 168.5 -72t70.5 -172q0 -103 -70.5 -175.5t-168.5 -72.5q-100 0 -170 72.5t-70 175.5z" />
    <glyph glyph-name="slash" unicode="/" horiz-adv-x="770" 
d="M340 -76h-340l432 1516h338z" />
    <glyph glyph-name="zero" unicode="0" horiz-adv-x="1171" 
d="M8 684q0 115 21.5 218t66 190.5t107.5 151.5t151.5 100t192.5 36t192 -36t151 -100t106.5 -151.5t65 -190.5t21.5 -218q0 -144 -34.5 -269.5t-99.5 -221.5t-168.5 -151.5t-233.5 -55.5t-234 55.5t-169.5 151.5t-100.5 221.5t-35 269.5zM401 684q0 -89 7 -157.5
t23.5 -122.5t45.5 -82.5t70 -28.5q40 0 69 28.5t44.5 83t22.5 122.5t7 157q0 184 -32.5 286.5t-110.5 102.5q-41 0 -70 -28t-45.5 -82t-23.5 -122t-7 -157z" />
    <glyph glyph-name="one" unicode="1" horiz-adv-x="1171" 
d="M897 1124v-909q0 -153 6 -215h-414q7 158 7 215v743q-219 -85 -267 -106v322q92 34 251.5 102.5t238.5 109.5h184q-6 -49 -6 -262z" />
    <glyph glyph-name="two" unicode="2" horiz-adv-x="1171" 
d="M154 0v188q217 199 372 437q90 142 90 223q0 84 -52.5 134t-133.5 50q-153 0 -248 -133v432q30 4 152.5 31t214.5 27q229 0 359 -129t128 -340q-1 -92 -41 -184.5t-129 -215.5q-53 -74 -153 -174q2 -2 118 -2q135 0 261 12v-366q-117 10 -344 10h-594z" />
    <glyph glyph-name="three" unicode="3" horiz-adv-x="1171" 
d="M434 1051q-65 0 -134.5 -22.5t-115.5 -59.5v356q21 3 75.5 17.5t121.5 26t137 11.5q210 0 333.5 -98t123.5 -266q0 -120 -61 -191t-169 -110q55 -18 100 -44.5t84.5 -65.5t62 -95.5t22.5 -124.5q0 -192 -134 -300t-362 -108q-86 0 -219 31l-133 31v367
q39 -42 116.5 -70.5t151.5 -28.5q170 0 170 131q0 55 -38 85t-103 30q-44 0 -68 -8v305q21 -6 64 -6q54 0 85 25t31 75t-36.5 78.5t-104.5 28.5z" />
    <glyph glyph-name="four" unicode="4" horiz-adv-x="1171" 
d="M18 467l791 932h131q-4 -53 -4 -244v-588q158 0 225 6v-274q-73 6 -225 6v-149q0 -86 6 -156h-389q6 51 6 156v149h-256q-165 0 -285 -6v168zM559 817l-201 -250h201v250z" />
    <glyph glyph-name="five" unicode="5" horiz-adv-x="1171" 
d="M498 -31q-91 0 -223 30.5t-146 31.5v377q40 -40 121 -72.5t153 -32.5q90 0 140.5 35.5t50.5 103.5q0 67 -60 103.5t-153 36.5q-147 0 -229 -43q22 106 64 293t63 290q28 152 36 250q37 -6 134 -6h311q133 0 182 8v-350q-76 6 -154 6h-210l-33 -145q10 2 53 2
q115 0 210.5 -50t154.5 -151t59 -237q0 -134 -70 -244.5t-190 -173t-264 -62.5z" />
    <glyph glyph-name="six" unicode="6" horiz-adv-x="1171" 
d="M793 1151q-42 -47 -191 -242q38 11 92 11q182 0 302 -135.5t120 -331.5q0 -128 -71 -236t-193.5 -170.5t-267.5 -62.5q-141 0 -261 66t-190 180t-70 249q0 108 31 202.5t96 199t197 280.5q108 141 139 205h455q-48 -48 -188 -215zM453 461q0 -59 41.5 -101.5t99.5 -42.5
q55 0 94 40t39 96q0 57 -40 98t-97 41t-97 -38.5t-40 -92.5z" />
    <glyph glyph-name="seven" unicode="7" horiz-adv-x="1171" 
d="M315 1012q-116 0 -194 -8v368q64 -6 194 -6h660q149 0 196 4l-86 -178q-221 -474 -442 -1006q-75 -184 -76 -186h-409q26 40 114 213q177 361 369 799h-326z" />
    <glyph glyph-name="eight" unicode="8" horiz-adv-x="1171" 
d="M477 440q0 -51 36 -88t87 -37q52 0 88.5 37t36.5 88q0 50 -36.5 85.5t-88.5 35.5q-51 0 -87 -35.5t-36 -85.5zM500 965q0 -40 29.5 -68.5t70.5 -28.5t70.5 28.5t29.5 68.5t-29.5 69t-70.5 29t-70.5 -29t-29.5 -69zM147 1004q0 159 127.5 267.5t325.5 108.5t324.5 -108.5
t126.5 -267.5q0 -97 -51.5 -171t-129.5 -114q102 -43 164 -124t62 -198q0 -176 -134.5 -292.5t-361.5 -116.5t-362.5 121t-135.5 303q0 105 59.5 183.5t160.5 123.5q-83 39 -129 112.5t-46 172.5z" />
    <glyph glyph-name="nine" unicode="9" horiz-adv-x="1171" 
d="M645 0h-440q89 96 149 174q112 138 205 281q-8 -4 -41 -4q-196 0 -327.5 130t-131.5 324q0 98 41.5 186t112.5 151.5t168.5 100.5t204.5 37q106 0 202 -39t166 -105.5t111 -158.5t41 -194q0 -67 -13.5 -130.5t-32 -113t-60.5 -120t-74 -118t-97 -139.5q-18 -27 -61.5 -86
t-77 -106.5t-45.5 -69.5zM719 903q0 60 -39 103t-94 43q-58 0 -99 -40.5t-41 -99.5q0 -57 41 -98t99 -41q56 0 94.5 39t38.5 94z" />
    <glyph glyph-name="colon" unicode=":" horiz-adv-x="688" 
d="M121 752q0 94 64.5 160.5t156.5 66.5q94 0 159.5 -66.5t65.5 -160.5q0 -95 -65.5 -162.5t-159.5 -67.5q-92 0 -156.5 67.5t-64.5 162.5zM121 184q0 94 64.5 161t156.5 67q93 0 159 -67t66 -161q0 -95 -65.5 -162t-159.5 -67q-92 0 -156.5 67t-64.5 162z" />
    <glyph glyph-name="semicolon" unicode=";" horiz-adv-x="739" 
d="M143 752q0 94 65.5 160.5t158.5 66.5q92 0 157.5 -66.5t65.5 -160.5q0 -95 -65.5 -162.5t-157.5 -67.5q-94 0 -159 67.5t-65 162.5zM180 383h373q0 -451 -162 -717h-301q46 115 68 276.5t22 440.5z" />
    <glyph glyph-name="less" unicode="&#x3c;" horiz-adv-x="1171" 
d="M1067 -27l-975 527v94l975 528v-352l-496 -225l496 -219v-353z" />
    <glyph glyph-name="equal" unicode="=" horiz-adv-x="1171" 
d="M1067 641h-963v293h963v-293zM1067 156h-963v293h963v-293z" />
    <glyph glyph-name="greater" unicode="&#x3e;" horiz-adv-x="1171" 
d="M201 1141l858 -527v-96l-858 -526v352l397 223l-397 221v353z" />
    <glyph glyph-name="question" unicode="?" horiz-adv-x="929" 
d="M295 1073q-47 0 -97 -13.5t-77 -35.5v348q6 0 103.5 18.5t181.5 18.5q212 0 328 -101t116 -278q0 -118 -63.5 -225.5t-182.5 -179.5q12 -68 35 -144h-379q-2 23 -53 254q117 67 173 119t56 111q0 43 -36.5 75.5t-104.5 32.5zM246 195q0 89 63 151t152 62q90 0 153.5 -62
t63.5 -151q0 -88 -64 -150.5t-153 -62.5t-152 62.5t-63 150.5z" />
    <glyph glyph-name="at" unicode="@" horiz-adv-x="1918" 
d="M362 489q0 -171 73 -310t208.5 -219.5t308.5 -80.5q177 0 269 60l-15 -273q-13 0 -98 -8t-156 -8q-188 0 -350.5 65t-275.5 177t-177.5 267t-64.5 330t69 334t187 274t283 183t350 68q197 0 359.5 -53t272.5 -147.5t170 -226.5t60 -288q0 -250 -126.5 -403.5
t-344.5 -153.5q-120 0 -196 44.5t-95 119.5q-91 -142 -242 -142q-118 0 -196 94.5t-78 233.5q0 125 51 233t137 171t185 63q129 0 186 -80q6 38 6 59h269l-72 -430q-9 -59 6.5 -95t54.5 -36q174 0 174 291q0 238 -149.5 377t-431.5 139q-170 0 -311 -85t-220.5 -229.5
t-79.5 -314.5zM1069 514q0 43 -23 73.5t-57 30.5q-51 0 -87 -40.5t-36 -100.5q0 -42 27 -72t65 -30q46 0 78.5 40.5t32.5 98.5z" />
    <glyph glyph-name="A" unicode="A" horiz-adv-x="1527" 
d="M1528 0h-461q-6 19 -51 129l-41 94h-490l-63 -135q-28 -64 -31 -88h-391q97 165 166 311l528 1116h109l551 -1116q51 -108 174 -311zM846 526l-121 289l-117 -289h238z" />
    <glyph glyph-name="B" unicode="B" horiz-adv-x="1325" 
d="M143 0q11 116 11 367v600q0 345 -9 436h508q138 0 239.5 -31.5t155 -84t77.5 -110t24 -120.5q0 -93 -43.5 -162.5t-122.5 -108.5q42 -18 80 -45.5t77 -68.5t62 -101t23 -129q0 -88 -34.5 -166t-102 -140.5t-179.5 -99t-256 -36.5h-510zM821 438q0 71 -51 120.5t-133 49.5
h-84v-344h74q194 0 194 174zM553 1149v-281h61q67 0 108.5 36t41.5 104q0 58 -42.5 99.5t-105.5 41.5h-63z" />
    <glyph glyph-name="C" unicode="C" horiz-adv-x="1320" 
d="M487 705q0 -160 109.5 -271.5t273.5 -111.5q199 0 320 118v-430q-38 -2 -143 -18.5t-213 -16.5q-218 0 -389.5 98.5t-264 264.5t-92.5 367q0 200 92.5 365.5t264 263.5t389.5 98q104 0 202 -15.5t138 -15.5v-445q-124 127 -308 127q-162 0 -270.5 -109.5t-108.5 -268.5z
" />
    <glyph glyph-name="D" unicode="D" horiz-adv-x="1499" 
d="M707 0h-566q11 116 11 367v669q0 255 -11 367h566q190 0 352.5 -94t257 -255.5t94.5 -351.5q0 -142 -56 -272.5t-150.5 -224.5t-224.5 -149.5t-273 -55.5zM553 1075v-747h121q140 0 239 110.5t99 263.5q0 152 -99.5 262.5t-240.5 110.5h-119z" />
    <glyph glyph-name="E" unicode="E" horiz-adv-x="1159" 
d="M659 1073h-108v-190h82q228 0 354 8v-346q-126 8 -354 8h-82v-221h125q234 0 356 8v-348q-122 8 -356 8h-535q9 254 9 367v671q0 228 -9 365h518q168 0 357 12v-350q-84 8 -357 8z" />
    <glyph glyph-name="F" unicode="F" horiz-adv-x="1118" 
d="M141 0q9 142 9 367v669q0 230 -9 367h518q231 0 357 8v-346q-84 8 -357 8h-108v-252h72q211 0 333 8v-346q-92 9 -333 9h-72v-125q0 -241 8 -367h-418z" />
    <glyph glyph-name="G" unicode="G" horiz-adv-x="1415" 
d="M1260 367v-328q-44 -6 -102 -23.5t-129 -30t-173 -12.5q-172 0 -317 57.5t-243.5 156t-153 231.5t-54.5 284q0 150 53.5 283t150 232.5t240.5 157t316 57.5q110 0 230.5 -20t127.5 -21v-435q-131 134 -342 134q-167 0 -271 -111t-104 -277q0 -162 108.5 -275.5
t260.5 -113.5q19 0 25 4v66q0 133 -9 270h394q-8 -81 -8 -286z" />
    <glyph glyph-name="H" unicode="H" horiz-adv-x="1566" 
d="M553 1036v-137h461v137q0 224 -10 367h419q-10 -225 -10 -367v-741q0 -153 10 -295h-419q10 95 10 297v270h-461v-272q0 -181 8 -295h-416q9 128 9 297v739q0 243 -9 367h416q-8 -110 -8 -367z" />
    <glyph glyph-name="I" unicode="I" horiz-adv-x="706" 
d="M555 1036v-669q0 -241 8 -367h-416q9 142 9 367v669q0 230 -9 367h416q-8 -122 -8 -367z" />
    <glyph glyph-name="J" unicode="J" horiz-adv-x="704" 
d="M553 1036v-1073q0 -155 -72 -277t-197.5 -188.5t-279.5 -66.5q-47 0 -124.5 12.5t-123.5 13.5v402q35 -47 93.5 -69.5t125.5 -22.5q77 0 127 62t50 155v1052q0 230 -9 367h418q-8 -122 -8 -367z" />
    <glyph glyph-name="K" unicode="K" horiz-adv-x="1515" 
d="M551 1036v-266l256 383q98 151 149 250h445q-76 -98 -182 -254l-279 -406l330 -444q61 -81 246 -299h-541q-51 100 -129 203l-295 407v-243q0 -241 8 -367h-418q9 142 9 367v669q0 230 -9 367h418q-8 -122 -8 -367z" />
    <glyph glyph-name="L" unicode="L" horiz-adv-x="1146" 
d="M551 1036v-698h174q271 0 365 6v-352q-126 8 -365 8h-584q9 254 9 367v669q0 230 -9 367h418q-8 -122 -8 -367z" />
    <glyph glyph-name="M" unicode="M" horiz-adv-x="1779" 
d="M1509 1427l166 -1058q32 -221 80 -369h-444q0 44 -13.5 132t-35.5 213.5t-33 205.5l-338 -574h-72l-336 578q-90 -449 -92 -555h-364q9 33 20 89.5t27 143t26 138.5l203 1056h100l494 -866l508 866h104z" />
    <glyph glyph-name="N" unicode="N" horiz-adv-x="1513" 
d="M532 295q0 -167 9 -295h-400q9 128 9 297v725q0 158 -9 408h84q138 -138 236 -220l520 -446v272q0 195 -8 367h399q-10 -225 -10 -367v-729q0 -183 10 -332h-80q-15 15 -50 51.5t-53 55.5t-46 45.5t-51 46.5l-560 479v-358z" />
    <glyph glyph-name="O" unicode="O" horiz-adv-x="1701" 
d="M86 702q0 148 58.5 282.5t159 232.5t243 155.5t303.5 57.5q162 0 305 -57.5t243.5 -155.5t159 -232t58.5 -283t-58.5 -283.5t-159 -232.5t-243.5 -155.5t-305 -57.5q-161 0 -303.5 57.5t-243 155.5t-159 232.5t-58.5 283.5zM489 702q0 -164 103.5 -277.5t257.5 -113.5
t258 113.5t104 277.5t-104 278t-258 114t-257.5 -114t-103.5 -278z" />
    <glyph glyph-name="P" unicode="P" horiz-adv-x="1288" 
d="M553 463v-96q0 -262 10 -367h-420q11 116 11 367v669q0 255 -11 367h539q250 0 390 -130.5t140 -344.5q0 -215 -137.5 -340t-392.5 -125h-129zM553 1102v-338h80q85 0 132.5 51t47.5 117q0 64 -48 117t-132 53h-80z" />
    <glyph glyph-name="Q" unicode="Q" horiz-adv-x="1703" 
d="M86 702q0 149 58.5 283.5t159 233t243 156t303.5 57.5q162 0 305.5 -57.5t244.5 -156t159.5 -233t58.5 -283.5q0 -181 -80.5 -329.5t-194.5 -237.5q55 -50 121 -90q156 -90 310 -90q92 0 163 18v-290q-122 -35 -262 -35q-146 0 -280.5 50.5t-241.5 133.5q-87 69 -168 154
q-49 -15 -135 -15q-160 0 -302.5 58t-243.5 156t-159.5 233t-58.5 284zM489 702q0 -161 106 -275t255 -114q151 0 257.5 114t106.5 275q0 162 -106.5 276t-257.5 114q-150 0 -255.5 -114t-105.5 -276z" />
    <glyph glyph-name="R" unicode="R" horiz-adv-x="1433" 
d="M553 496v-127q0 -264 10 -369h-420q11 116 11 369v667q0 255 -11 367h521q262 0 407.5 -128t145.5 -333q0 -293 -277 -385q61 -64 224.5 -262.5t269.5 -294.5h-519q-66 78 -170 237t-141 261q-8 -2 -18 -2h-33zM553 1087v-307h98q74 0 120 43t46 107q0 65 -45.5 111
t-126.5 46h-92z" />
    <glyph glyph-name="S" unicode="S" horiz-adv-x="1150" 
d="M590 1044q0 -31 24 -61t62 -58t84.5 -59.5t93 -73.5t84.5 -91t62 -119.5t24 -153.5q0 -139 -71.5 -245t-194 -161t-277.5 -55q-87 0 -205 16t-159 19v432q58 -68 166 -111.5t200 -43.5q55 0 85 25.5t30 66.5q0 34 -23 66.5t-60 60.5t-82 59t-90 71t-82 87t-60 116
t-23 150q0 211 136 332t382 121q59 0 147.5 -14.5t131.5 -16.5v-395q-47 58 -124.5 90t-152.5 32q-53 0 -80.5 -22.5t-27.5 -63.5z" />
    <glyph glyph-name="T" unicode="T" horiz-adv-x="1361" 
d="M426 1403h506q251 0 373 8v-348q-152 10 -373 10h-47q-2 -76 -2 -262v-444q0 -262 10 -367h-424q10 158 10 367v444q0 148 -6 262h-47q-217 0 -369 -10v348q122 -8 369 -8z" />
    <glyph glyph-name="U" unicode="U" horiz-adv-x="1495" 
d="M139 1403h420q-10 -138 -10 -367v-481q0 -111 58 -171t141 -60q84 0 142 60t58 171v481q0 195 -8 367h416q-6 -135 -6 -367v-471q0 -180 -81.5 -315.5t-217 -204t-303.5 -68.5q-126 0 -235.5 39.5t-191 113t-128 186t-46.5 249.5v471q0 257 -8 367z" />
    <glyph glyph-name="V" unicode="V" horiz-adv-x="1476" 
d="M535 1182l221 -477l217 475q77 175 92 223h412q-74 -122 -164 -309l-543 -1121h-61l-543 1121q-103 213 -166 309h449q25 -96 86 -221z" />
    <glyph glyph-name="W" unicode="W" horiz-adv-x="2254" 
d="M1098 1235l71 -125l41 82q72 145 97 211h376q-87 -145 -184 -320l-151 -274l104 -191l301 592q67 130 90 193h402q-16 -30 -61.5 -108t-76.5 -136l-647 -1177h-28l-279 487l-268 -487h-51l-627 1085q-159 271 -203 336h449q40 -99 100 -205l344 -606l82 162l-223 393
q-61 108 -162 256h416q45 -92 88 -168z" />
    <glyph glyph-name="X" unicode="X" horiz-adv-x="1388" 
d="M817 160l-143 239l-152 -262q-13 -24 -26.5 -48.5t-19.5 -36l-12 -23t-8 -17.5t-3 -12h-453q73 86 236 326l241 383l-239 374q-141 220 -220 320h480q43 -87 90 -168l108 -193l117 201q46 82 84 160h442q-93 -115 -215 -301l-233 -363l250 -381q152 -240 252 -358h-490
q-16 42 -86 160z" />
    <glyph glyph-name="Y" unicode="Y" horiz-adv-x="1445" 
d="M518 0q6 189 6 305v303l-338 533q-115 174 -186 262h483q38 -86 78 -154l178 -299l174 293q42 67 86 160h447q-57 -73 -209 -305l-313 -486v-307q0 -179 8 -305h-414z" />
    <glyph glyph-name="Z" unicode="Z" horiz-adv-x="1241" 
d="M1008 1094l-363 -762h174q216 0 338 8v-348q-122 8 -338 8h-768q60 105 158 311l352 762h-147q-254 0 -338 -8v346q126 -8 338 -8h745q-73 -142 -151 -309z" />
    <glyph glyph-name="bracketleft" unicode="[" horiz-adv-x="903" 
d="M152 -367q6 68 6 215v1440q0 144 -6 215h487q99 0 170 6v-297q-79 7 -172 7h-168v-1301h170q99 0 170 6v-297q-68 6 -172 6h-485z" />
    <glyph glyph-name="backslash" unicode="\" horiz-adv-x="770" 
d="M770 -76h-340l-430 1516h338z" />
    <glyph glyph-name="bracketright" unicode="]" horiz-adv-x="903" 
d="M752 -367h-486q-104 0 -172 -6v297q70 -6 170 -6h170v1301h-168q-93 0 -172 -7v297q70 -6 170 -6h488q-7 -82 -7 -215v-1440q0 -136 7 -215z" />
    <glyph glyph-name="asciicircum" unicode="^" horiz-adv-x="1042" 
d="M510 1180l-145 -179h-361l488 508h59l487 -508h-372z" />
    <glyph glyph-name="underscore" unicode="_" horiz-adv-x="985" 
d="M16 -141h949v-97h-949v97z" />
    <glyph glyph-name="grave" unicode="`" horiz-adv-x="946" 
d="M227 1450l258 -348h-325l-318 348h385z" />
    <glyph glyph-name="a" unicode="a" horiz-adv-x="1103" 
d="M401 725q-150 0 -249 -96v297q23 2 73 20.5t124 34.5t163 16q219 0 326.5 -118.5t107.5 -327.5v-213q0 -76 53 -76q39 0 56 10v-211q-49 -42 -102.5 -64t-133.5 -22q-78 0 -125.5 26t-81.5 75q-90 -101 -233 -101q-140 0 -225.5 84t-85.5 220q0 135 88 225t237 90
q56 0 107 -12t75 -27v39q0 64 -45.5 97.5t-128.5 33.5zM428 291q0 -32 23 -54t55 -22t55 22t23 54q0 29 -23 50t-55 21t-55 -21t-23 -50z" />
    <glyph glyph-name="b" unicode="b" horiz-adv-x="1296" 
d="M123 205v1085h-107q56 124 74 213h422q-8 -65 -8 -203v-389q35 36 102 61t160 25q213 0 341 -140.5t128 -352.5q0 -231 -142 -374.5t-366 -143.5q-64 0 -128 19t-95 50v-55h-389q8 81 8 205zM496 492q0 -79 53 -135t127 -56q71 0 120.5 56t49.5 135t-51 134.5t-125 55.5
q-72 0 -123 -56t-51 -134z" />
    <glyph glyph-name="c" unicode="c" horiz-adv-x="923" 
d="M428 487q0 -73 54.5 -125.5t131.5 -52.5q119 0 199 97v-400q-11 -1 -77.5 -10.5t-129.5 -9.5q-120 0 -223.5 39.5t-174.5 107.5t-111 159.5t-40 194.5q0 141 68.5 257t195 184.5t285.5 68.5q40 0 109.5 -10.5t89.5 -11.5v-393q-39 42 -81.5 65t-109.5 23q-78 0 -132 -54
t-54 -129z" />
    <glyph glyph-name="d" unicode="d" horiz-adv-x="1296" 
d="M1174 1274v-1069q0 -117 8 -205h-391q2 31 2 90q-55 -57 -122.5 -80.5t-160.5 -23.5q-129 0 -233 69t-160 182t-56 246q0 222 133 368t349 146q86 0 152.5 -20.5t97.5 -52.5v366h-107q16 32 40 102t34 111h422q-8 -101 -8 -229zM799 489q0 78 -53 134.5t-128 56.5
q-71 0 -120 -56t-49 -135t52.5 -134.5t127.5 -55.5q69 0 119.5 55.5t50.5 134.5z" />
    <glyph glyph-name="e" unicode="e" horiz-adv-x="1091" 
d="M1024 410h-600q71 -138 250 -138q125 0 231 56v-305q-23 0 -120 -19.5t-179 -19.5q-151 0 -275 66t-194.5 180.5t-70.5 254.5q0 213 139.5 361.5t343.5 148.5q137 0 247 -68.5t171 -185t61 -256.5q0 -43 -4 -75zM537 725q-44 0 -78.5 -35t-46.5 -88h241q-5 46 -34.5 84.5
t-81.5 38.5z" />
    <glyph glyph-name="f" unicode="f" horiz-adv-x="903" 
d="M57 664v313h179v35q0 248 118 376t320 128q60 0 129.5 -9.5t116.5 -9.5v-342q-47 53 -154 53q-67 0 -108.5 -46.5t-41.5 -135.5v-49h228v-313h-228v-459q0 -123 7 -205h-394q7 164 7 205v459h-179z" />
    <glyph glyph-name="g" unicode="g" horiz-adv-x="1150" 
d="M819 977h303q0 -63 -33 -122t-85 -85q38 -56 38 -156q0 -154 -135 -265t-332 -111q-23 0 -63 2t-47 2q-43 0 -43 -41q0 -39 65 -39q8 0 33.5 1t38.5 1q153 0 273.5 -38.5t196 -121.5t75.5 -201q0 -96 -75.5 -175t-200.5 -123t-271 -44q-140 0 -259.5 44.5t-188 119
t-68.5 160.5q0 148 117 217q-37 20 -61.5 59t-24.5 89q0 77 50.5 133.5t123.5 62.5q-137 105 -137 264q0 160 131.5 273.5t334.5 113.5q134 0 238 -51q6 12 6 31zM457 610q0 -43 34.5 -73.5t83.5 -30.5q46 0 79.5 30.5t33.5 73.5q0 44 -33.5 76.5t-79.5 32.5
q-49 0 -83.5 -32t-34.5 -77zM377 -207q0 -40 56 -69t134 -29q72 0 125 27t53 65q0 44 -62 72t-153 28q-62 0 -107.5 -27.5t-45.5 -66.5z" />
    <glyph glyph-name="h" unicode="h" horiz-adv-x="1226" 
d="M733 205v346q0 67 -29.5 104t-82.5 37q-117 0 -117 -149v-338q0 -126 10 -205h-399q8 84 8 205v1085h-107q15 33 41 106.5t33 106.5h424q-10 -79 -10 -203v-409q99 104 258 104q176 0 264 -121.5t88 -332.5v-336q0 -126 10 -205h-399q8 84 8 205z" />
    <glyph glyph-name="i" unicode="i" horiz-adv-x="632" 
d="M510 772v-567q0 -127 8 -205h-397q8 86 8 205v557h-106q20 36 42 100t33 115h420q-8 -90 -8 -205zM117 1276q0 86 58.5 146.5t143.5 60.5t143 -60.5t58 -146.5q0 -85 -58.5 -145t-142.5 -60t-143 60t-59 145z" />
    <glyph glyph-name="j" unicode="j" horiz-adv-x="632" 
d="M510 772v-743q0 -137 -34 -243.5t-91.5 -169t-127 -93.5t-146.5 -31q-83 0 -157 9.5t-83 9.5v327q33 -26 109 -26q149 0 149 235v715h-106q45 106 75 215h418q-6 -73 -6 -205zM117 1278q0 85 60 145t145 60q83 0 140.5 -60t57.5 -145q0 -86 -57.5 -146.5t-140.5 -60.5
q-85 0 -145 60.5t-60 146.5z" />
    <glyph glyph-name="k" unicode="k" horiz-adv-x="1261" 
d="M504 1300v-708q199 299 241 385h390q-73 -93 -301 -436q134 -180 217 -286.5t114.5 -144t96.5 -110.5h-467q-19 32 -291 391v-186q0 -115 8 -205h-397q8 60 8 205v1085h-107q50 115 74 213h422q-8 -60 -8 -203z" />
    <glyph glyph-name="l" unicode="l" horiz-adv-x="626" 
d="M504 1300v-1095q0 -145 8 -205h-397q8 60 8 205v1085h-107q51 109 74 213h422q-8 -60 -8 -203z" />
    <glyph glyph-name="m" unicode="m" horiz-adv-x="1818" 
d="M719 0q8 104 8 205v338q0 72 -28 111.5t-76 39.5q-56 0 -84.5 -40.5t-28.5 -112.5v-336q0 -135 6 -205h-391q4 94 4 205v557h-106q48 105 73 215h416v-117q101 135 285 135t254 -137q106 137 292 137q160 0 261.5 -108t101.5 -307v-375q0 -124 8 -205h-397q8 140 8 205
v319q0 170 -104 170q-52 0 -82.5 -39.5t-30.5 -119.5v-330q0 -91 6 -205h-395z" />
    <glyph glyph-name="n" unicode="n" horiz-adv-x="1230" 
d="M737 532q0 75 -28.5 118.5t-83.5 43.5q-115 0 -115 -159v-330q0 -129 8 -205h-395q6 86 6 205v557h-106q48 111 75 215h412v-100q43 57 112 87.5t148 30.5q348 0 348 -463v-327q0 -129 8 -205h-397q8 76 8 205v327z" />
    <glyph glyph-name="o" unicode="o" horiz-adv-x="1185" 
d="M66 489q0 138 70.5 255t191.5 185t264 68t264.5 -68t192.5 -185t71 -255q0 -137 -71 -253t-192.5 -183t-264.5 -67t-264 67t-191.5 183t-70.5 253zM426 489q0 -74 48 -125t118 -51q69 0 118.5 51.5t49.5 124.5q0 75 -49.5 127t-118.5 52q-70 0 -118 -52t-48 -127z" />
    <glyph glyph-name="p" unicode="p" horiz-adv-x="1302" 
d="M129 -289v1055h-106q46 102 75 211h412v-94q63 58 127.5 86t150.5 28q129 0 233.5 -67t162 -179.5t57.5 -244.5q0 -144 -61.5 -263.5t-171.5 -189t-244 -69.5q-175 0 -254 59v-332q0 -129 8 -205h-395q6 86 6 205zM502 489q0 -79 53 -134.5t127 -55.5q69 0 119.5 55.5
t50.5 134.5q0 78 -49.5 134.5t-118.5 56.5q-74 0 -128 -56.5t-54 -134.5z" />
    <glyph glyph-name="q" unicode="q" horiz-adv-x="1298" 
d="M1174 -266q0 -152 8 -228h-396q9 97 9 246v326q-57 -48 -119.5 -71t-163.5 -23q-92 0 -175.5 38.5t-144 104t-96 157t-35.5 193.5q0 220 133.5 370t329.5 150q182 0 271 -82v7q0 9 -4 55h389q-6 -95 -6 -297v-946zM801 489q0 78 -51.5 134.5t-122.5 56.5q-74 0 -126 -56
t-52 -135q0 -78 51.5 -134t126.5 -56q71 0 122.5 56t51.5 134z" />
    <glyph glyph-name="r" unicode="r" horiz-adv-x="903" 
d="M760 997q32 0 49 -4t25 -4v-397q-67 47 -142 47q-42 0 -74.5 -22t-50.5 -56.5t-26.5 -70.5t-8.5 -70v-215q0 -103 9 -205h-398q7 119 7 205v559h-107q54 119 76 213h373v-211q29 104 100 167.5t168 63.5z" />
    <glyph glyph-name="s" unicode="s" horiz-adv-x="919" 
d="M475 705q0 -14 20 -28.5t52.5 -29.5t71.5 -34t78.5 -46.5t72 -62t52.5 -86t20 -113.5q0 -149 -105 -239.5t-307 -90.5q-72 0 -196 28t-142 28v342q47 -48 154 -89.5t170 -41.5q51 0 51 37q0 17 -27 34t-67 33t-87.5 44t-87.5 61.5t-67 91.5t-27 129q0 158 109 241.5
t311 83.5q69 0 162.5 -19t108.5 -20v-315q-38 47 -121.5 74.5t-134.5 27.5q-33 0 -48.5 -12.5t-15.5 -27.5z" />
    <glyph glyph-name="t" unicode="t" horiz-adv-x="897" 
d="M182 1245h391q-6 -74 -6 -186v-82h254v-313h-254v-197q0 -170 133 -170q73 0 93 20v-317q-17 0 -84 -8t-121 -8q-65 0 -123.5 15t-109.5 47.5t-88 79.5t-58 114t-21 149v275h-131v313h131v82q0 113 -6 186z" />
    <glyph glyph-name="u" unicode="u" horiz-adv-x="1241" 
d="M504 446q0 -49 12.5 -83.5t32.5 -50.5t38 -22.5t36 -6.5q17 0 33 5.5t35.5 20.5t31.5 50t12 87v326q0 126 -8 205h397q-8 -79 -8 -205v-551q0 -154 33 -221h-371q-25 45 -28 113q-57 -75 -122 -103t-159 -28q-159 0 -252.5 107.5t-93.5 307.5v365h-107q42 89 74 215h424
q-10 -98 -10 -205v-326z" />
    <glyph glyph-name="v" unicode="v" horiz-adv-x="1112" 
d="M451 977q13 -53 38 -113l97 -264l96 274q20 55 29 103h401q-64 -108 -117 -213l-317 -627q-39 -79 -74 -162h-102q-32 80 -74 162l-311 625q-44 91 -117 215h451z" />
    <glyph glyph-name="w" unicode="w" horiz-adv-x="1579" 
d="M881 977q14 -44 43 -98l137 -281l69 184q17 45 60 195h389q-56 -97 -149 -322l-189 -456q-23 -54 -80 -215h-112q-40 84 -80 157l-176 314l-170 -318q-35 -68 -72 -153h-119q-47 128 -108 268l-228 522q-57 132 -96 203h432q9 -50 39 -141l98 -258l146 305q27 55 37 94
h129z" />
    <glyph glyph-name="x" unicode="x" horiz-adv-x="1110" 
d="M575 174l-32 59l-33 -63q-41 -69 -72 -170h-438q64 74 168 236l172 253l-188 310q-58 99 -129 178h448q22 -77 68 -156l32 -63l41 67q45 80 74 152h412q-101 -126 -135 -178l-191 -295l158 -268q102 -163 180 -236h-453q-33 79 -82 174z" />
    <glyph glyph-name="y" unicode="y" horiz-adv-x="1200" 
d="M598 -268q-80 -130 -180.5 -184t-249.5 -54q-52 0 -115 19q96 105 146 178q157 224 241 385l-334 698q-63 123 -106 203h442q13 -64 43 -133l150 -346q52 136 113 338q13 37 32 141h420q-22 -39 -54.5 -109.5t-45.5 -105.5q-210 -503 -295 -670q-90 -177 -207 -360z" />
    <glyph glyph-name="z" unicode="z" horiz-adv-x="1054" 
d="M989 977l-364 -662h211q82 0 161 7v-328q-65 6 -163 6h-771l361 662h-172q-80 0 -162 -7v328q68 -6 166 -6h733z" />
    <glyph glyph-name="braceleft" unicode="{" horiz-adv-x="927" 
d="M862 1509v-268q-34 6 -84 6q-97 0 -143.5 -48t-46.5 -132q0 -33 3 -96.5t3 -96.5q0 -110 -61 -184.5t-150 -105.5q84 -26 147.5 -104t63.5 -189q0 -37 -3 -110t-3 -109q0 -86 46 -133.5t144 -47.5q30 0 41.5 1t20.5 3t22 3v-271q-52 6 -219 6q-170 0 -281.5 112
t-111.5 302q0 37 3 110.5t3 110.5q0 52 -16 86.5t-46.5 52t-65 24.5t-81.5 7v291q48 0 82 6.5t65 23.5t46.5 51.5t15.5 86.5q0 33 -3 97.5t-3 97.5q0 189 111.5 300t281.5 111q163 0 219 6z" />
    <glyph glyph-name="bar" unicode="|" horiz-adv-x="571" 
d="M434 -379h-297l2 1895h297z" />
    <glyph glyph-name="braceright" unicode="}" horiz-adv-x="927" 
d="M287 -367q-169 0 -221 -6v271q12 -1 22.5 -3t21.5 -3t40 -1q190 0 190 181q0 36 -2 109t-2 110q0 112 62.5 189.5t146.5 103.5q-88 31 -148.5 105.5t-60.5 184.5q0 33 2 96.5t2 96.5q0 84 -46 132t-144 48q-49 0 -84 -6v268q56 -6 221 -6q169 0 280 -111t111 -300
q0 -33 -3 -97.5t-3 -97.5q0 -52 16 -86.5t47 -51.5t65 -23.5t81 -6.5v-291q-98 0 -153.5 -36t-55.5 -134q0 -37 3 -110.5t3 -110.5q0 -190 -111 -302t-280 -112z" />
    <glyph glyph-name="asciitilde" unicode="~" horiz-adv-x="1171" 
d="M354 289h-311q0 181 107 307.5t266 126.5q59 0 103 -13t68.5 -31.5t45 -36.5t43.5 -31t51 -13q41 0 63.5 32.5t22.5 80.5h313q0 -181 -108 -306.5t-266 -125.5q-57 0 -100 11.5t-67 28t-44 33t-45 28t-56 11.5q-38 0 -62 -30t-24 -72z" />
    <glyph glyph-name="uni00A0" unicode="&#xa0;" horiz-adv-x="401" 
 />
    <glyph glyph-name="exclamdown" unicode="&#xa1;" horiz-adv-x="872" 
d="M539 176v-371q0 -143 8 -229h-400q7 86 7 229v371q0 143 -7 232h400q-8 -102 -8 -232zM557 780q0 -90 -62.5 -153.5t-154.5 -63.5t-155.5 63.5t-63.5 153.5t63.5 153.5t155.5 63.5t154.5 -63.5t62.5 -153.5z" />
    <glyph glyph-name="cent" unicode="&#xa2;" horiz-adv-x="1142" 
d="M809 -199h-191v195q-196 32 -315 169t-119 322q0 188 119 327.5t315 172.5v201h191v-197q15 -2 41.5 -6.5t45.5 -7t34 -2.5v-393q-50 84 -170 84q-78 0 -134.5 -52t-56.5 -127q0 -72 56.5 -122t134.5 -50q120 0 178 91v-400q-24 -2 -64 -8t-65 -8v-189z" />
    <glyph glyph-name="sterling" unicode="&#xa3;" horiz-adv-x="1171" 
d="M90 584v237h213l6 49q24 243 169.5 377.5t424.5 134.5q57 0 127.5 -13.5t83.5 -14.5v-353q-42 42 -86 58t-108 16q-105 0 -163 -52.5t-69 -145.5l-6 -56h279v-237h-299l-7 -41q-8 -74 -52 -144t-91 -102h346q160 0 215 6v-309q-83 6 -223 6h-836v297q60 0 98.5 7.5
t76.5 32t60.5 76.5t31.5 134l6 37h-197z" />
    <glyph glyph-name="currency" unicode="&#xa4;" horiz-adv-x="1171" 
d="M262 150l-184 182l137 135q-51 84 -51 184q0 95 51 195l-149 149l178 179l153 -154q32 18 89 29.5t100 11.5q82 0 184 -39l139 139l181 -182l-132 -133q50 -113 50 -195q0 -42 -16 -95.5t-34 -88.5l146 -145l-178 -179l-156 152q-84 -41 -184 -41q-111 0 -185 39z
M489 655q0 -43 28 -73.5t69 -30.5t69.5 30.5t28.5 73.5q0 45 -28.5 77t-69.5 32t-69 -32t-28 -77z" />
    <glyph glyph-name="yen" unicode="&#xa5;" horiz-adv-x="1171" 
d="M367 0q8 126 8 213v37h-221v178h221v80h-221v180h221v27l-279 495q-71 125 -96 156h442q8 -37 54 -131l98 -184l102 182q53 92 68 133h407q-40 -58 -141 -231l-256 -435v-12h232v-180h-232v-80h232v-178h-232v-39q0 -85 8 -211h-415z" />
    <glyph glyph-name="brokenbar" unicode="&#xa6;" horiz-adv-x="571" 
d="M436 758h-297v758h297v-758zM434 379v-758h-297v758h297z" />
    <glyph glyph-name="section" unicode="&#xa7;" horiz-adv-x="1212" 
d="M983 1374v-305q-39 37 -119.5 65.5t-169.5 28.5q-102 0 -102 -65q0 -30 28 -54t72 -41.5t98 -37t108 -46.5t98 -62t72 -91.5t28 -128.5q0 -159 -162 -242q48 -30 80.5 -89t32.5 -136q0 -159 -123.5 -247.5t-358.5 -88.5q-101 0 -228 24t-136 25v344q53 -66 155 -100.5
t199 -34.5q66 0 96.5 20t30.5 52q0 30 -31 54t-80.5 42t-109.5 37t-120.5 46t-110 62.5t-80.5 93t-31 130.5q0 92 52 159t146 99q-41 30 -77.5 91.5t-36.5 129.5q0 145 104 231t328 86q81 0 147 -11.5t116.5 -24.5t84.5 -15zM494 770q-21 -10 -32 -31t-11 -43
q0 -35 28 -61.5t63.5 -40t94.5 -35.5t96 -41q12 12 17 18t11.5 21.5t6.5 34.5q0 38 -32.5 67.5t-72.5 44.5t-92.5 33.5t-76.5 32.5z" />
    <glyph glyph-name="dieresis" unicode="&#xa8;" horiz-adv-x="946" 
d="M51 1276q0 75 53 128.5t127 53.5q75 0 129 -53.5t54 -128.5t-54 -127.5t-129 -52.5q-74 0 -127 52.5t-53 127.5zM535 1276q0 75 54 128.5t130 53.5q73 0 125.5 -53.5t52.5 -128.5t-52 -127.5t-126 -52.5q-77 0 -130.5 52.5t-53.5 127.5z" />
    <glyph glyph-name="copyright" unicode="&#xa9;" horiz-adv-x="1656" 
d="M90 666q0 151 58.5 288t157 235.5t235.5 157t288 58.5q150 0 287 -58.5t235.5 -157t157 -235.5t58.5 -288q0 -153 -58.5 -291.5t-157 -238.5t-235.5 -159t-287 -59q-151 0 -288 59t-235.5 159t-157 238.5t-58.5 291.5zM295 666q0 -151 71.5 -278.5t194.5 -201t268 -73.5
q109 0 207.5 43.5t170 117.5t113.5 176.5t42 215.5q0 149 -71 274.5t-194 198.5t-268 73q-109 0 -207.5 -43t-170 -116t-114 -174t-42.5 -213zM780 664q0 -52 40.5 -88.5t97.5 -36.5q43 0 85.5 18t65.5 47v-309q-12 -1 -69.5 -8.5t-104.5 -7.5q-168 0 -282.5 112t-114.5 273
t115 275t282 114q44 0 97.5 -9.5t68.5 -9.5v-307q-19 31 -59.5 48.5t-83.5 17.5q-57 0 -97.5 -38t-40.5 -91z" />
    <glyph glyph-name="ordfeminine" unicode="&#xaa;" horiz-adv-x="702" 
d="M227 1006q-83 0 -133 -45v188q16 2 45.5 9.5t66.5 12.5t87 5q328 0 328 -302v-67q0 -92 41 -92q22 0 34 8v-92q-30 -37 -65.5 -55.5t-93.5 -18.5t-99 22t-47 50q-54 -72 -147 -72q-89 0 -145 50.5t-56 133.5q0 81 58.5 137t152.5 56q74 0 113 -29v13q0 41 -40 64.5
t-100 23.5zM291 750q0 -15 12.5 -26t26.5 -11q18 0 29.5 11t11.5 26q0 14 -11.5 25t-29.5 11q-14 0 -26.5 -11.5t-12.5 -24.5z" />
    <glyph glyph-name="guillemotleft" unicode="&#xab;" horiz-adv-x="1630" 
d="M551 489l211 -149v-358l-625 475v61l625 479v-356zM1202 489l211 -149v-358l-625 475v61l625 479v-356z" />
    <glyph glyph-name="logicalnot" unicode="&#xac;" horiz-adv-x="1171" 
d="M1038 186h-358v328h-623v293h981v-621z" />
    <glyph glyph-name="uni00AD" unicode="&#xad;" horiz-adv-x="786" 
d="M66 672h653v-348h-653v348z" />
    <glyph glyph-name="registered" unicode="&#xae;" horiz-adv-x="940" 
d="M125 1174q0 137 96 233t234 96t234.5 -96t96.5 -233q0 -140 -96.5 -238t-234.5 -98t-234 98t-96 238zM227 1174q0 -99 67.5 -170.5t160.5 -71.5q95 0 163 71.5t68 170.5q0 98 -67.5 168.5t-161.5 70.5q-95 0 -162.5 -70.5t-67.5 -168.5zM422 1126v-45q0 -18 1 -40.5
t1 -26.5h-107q5 30 5 80v153q0 53 -5 88h127q65 0 97 -30t32 -76q0 -34 -18 -58t-43 -30q55 -68 111 -127h-127q-17 26 -54 112h-20zM422 1264v-70h31q17 0 28 9t11 24t-12 26t-27 11h-31z" />
    <glyph glyph-name="macron" unicode="&#xaf;" horiz-adv-x="946" 
d="M143 1395h660v-252h-660v252z" />
    <glyph glyph-name="degree" unicode="&#xb0;" horiz-adv-x="688" 
d="M47 1100q0 123 87 211t208 88q124 0 211.5 -88t87.5 -211q0 -121 -88 -210t-211 -89q-121 0 -208 89t-87 210zM264 1100q0 -36 22.5 -60t55.5 -24q35 0 58.5 23.5t23.5 60.5t-23.5 62.5t-58.5 25.5q-32 0 -55 -25.5t-23 -62.5z" />
    <glyph glyph-name="plusminus" unicode="&#xb1;" horiz-adv-x="1171" 
d="M748 1362v-324h319v-293h-319v-319h-326v319h-318v293h318v324h326zM104 0v293h963v-293h-963z" />
    <glyph glyph-name="twosuperior" unicode="&#xb2;" horiz-adv-x="790" 
d="M111 918v137q7 6 33.5 29t37.5 32.5t36 32.5t37 37t32 36.5t30.5 40.5t21.5 39.5t16 42t5 41.5q0 43 -28 69t-70 26q-82 0 -141 -76v291q24 2 96.5 14t124.5 12q145 0 225 -78t78 -208q-1 -69 -34.5 -125.5t-125.5 -159.5h50q87 0 145 6v-246q-75 7 -205 7h-364z" />
    <glyph glyph-name="threesuperior" unicode="&#xb3;" horiz-adv-x="790" 
d="M303 1499q-89 0 -162 -49v240q12 2 48 10.5t78 15t85 6.5q136 0 216.5 -57t80.5 -160q0 -73 -35 -112.5t-104 -65.5q38 -13 61 -24.5t49.5 -32t39 -51t12.5 -72.5q0 -117 -86.5 -179.5t-233.5 -62.5q-50 0 -130.5 17t-90.5 18v242q25 -25 75 -41.5t107 -16.5
q34 0 56 13.5t22 40.5q0 49 -76 49q-25 0 -45 -4v194q4 0 19 -1t24 -1q56 0 56 41q0 43 -66 43z" />
    <glyph glyph-name="acute" unicode="&#xb4;" horiz-adv-x="946" 
d="M436 1102l258 348h383l-317 -348h-324z" />
    <glyph glyph-name="mu" unicode="&#xb5;" horiz-adv-x="1269" 
d="M502 440q-1 -74 31 -114.5t85 -40.5q50 0 83.5 40.5t33.5 112.5v334q0 134 -10 205h397q-8 -76 -8 -205v-393q0 -67 13 -92t49 -25q34 0 47 10v-223q-96 -74 -230 -74q-179 0 -219 154q-49 -81 -98 -114t-141 -33q-71 0 -111 28q20 -33 32.5 -76t18 -106t6.5 -92t2 -101
q1 -33 2.5 -64.5t3.5 -60t3 -40.5h-375q6 65 6 204v1121q0 98 -8 182h397q-10 -95 -10 -205v-332z" />
    <glyph glyph-name="paragraph" unicode="&#xb6;" horiz-adv-x="1501" 
d="M1079 -530h-417q6 237 6 458v377h-11q-131 0 -240 43.5t-180 118.5t-110 174t-39 211q0 80 19 156.5t62.5 149t108 126.5t162 86.5t217.5 32.5h682v-330h-266v-1149q0 -220 6 -454z" />
    <glyph glyph-name="periodcentered" unicode="&#xb7;" horiz-adv-x="671" 
d="M96 512q0 100 70.5 172t169.5 72q98 0 168.5 -72t70.5 -172q0 -103 -70.5 -175.5t-168.5 -72.5q-100 0 -170 72.5t-70 175.5z" />
    <glyph glyph-name="cedilla" unicode="&#xb8;" horiz-adv-x="946" 
d="M297 -254l129 254h176l-41 -74q82 -19 129 -72t47 -137q0 -110 -73.5 -175.5t-219.5 -65.5q-38 0 -96 13t-76 15v197q51 -51 138 -51q40 0 64 15t24 40q0 29 -27 45.5t-80 16.5q-57 0 -94 -21z" />
    <glyph glyph-name="onesuperior" unicode="&#xb9;" horiz-adv-x="688" 
d="M528 1561v-514q0 -79 4 -129h-280q4 27 4 129v387q-96 -36 -160 -64v219q167 63 312 131h124q-4 -27 -4 -159z" />
    <glyph glyph-name="ordmasculine" unicode="&#xba;" horiz-adv-x="743" 
d="M35 868q0 127 97.5 217.5t234.5 90.5q142 0 242 -90t100 -218q0 -127 -99.5 -216t-242.5 -89q-137 0 -234.5 89t-97.5 216zM279 868q0 -38 25.5 -66t62.5 -28q41 0 69.5 27.5t28.5 66.5q0 40 -28.5 66.5t-69.5 26.5q-37 0 -62.5 -26.5t-25.5 -66.5z" />
    <glyph glyph-name="guillemotright" unicode="&#xbb;" horiz-adv-x="1630" 
d="M428 487l-211 150v358l625 -475v-61l-625 -479v356zM1079 487l-211 150v358l625 -475v-61l-625 -479v356z" />
    <glyph glyph-name="onequarter" unicode="&#xbc;" horiz-adv-x="1781" 
d="M528 1217v-515q0 -79 4 -129h-280q4 27 4 129v388q-96 -36 -160 -64v219q167 63 312 131h124q-4 -27 -4 -159zM563 0h-248l848 1366h250zM954 299l500 553h86q-2 -33 -2 -147v-336q81 0 135 4v-187q-58 4 -135 4v-69q0 -24 4 -82h-262q2 31 2 82v69h-149q-77 0 -179 -4
v113zM1282 479l-104 -110h104v110z" />
    <glyph glyph-name="onehalf" unicode="&#xbd;" horiz-adv-x="1781" 
d="M528 1217v-515q0 -79 4 -129h-280q4 27 4 129v388q-96 -36 -160 -64v219q167 63 312 131h124q-4 -27 -4 -159zM563 0h-248l848 1366h250zM1165 0v137q6 6 33 29t38 32.5t36 33t37.5 37.5t32.5 36.5t30 40t21.5 39.5t16.5 42.5t5 41.5q0 43 -28 68.5t-70 25.5
q-82 0 -141 -76v291q25 2 97.5 14.5t123.5 12.5q145 0 225 -78.5t78 -208.5q-1 -69 -34.5 -125.5t-125.5 -159.5h49q78 0 146 7v-246q-65 6 -205 6h-365z" />
    <glyph glyph-name="threequarters" unicode="&#xbe;" horiz-adv-x="1781" 
d="M264 1155q-89 0 -162 -49v240q12 2 48 10.5t78 15t85 6.5q136 0 216.5 -57t80.5 -160q0 -73 -35 -112.5t-104 -65.5q38 -13 61 -24.5t49.5 -32t39 -51t12.5 -72.5q0 -117 -86.5 -179.5t-233.5 -62.5q-50 0 -130.5 17t-90.5 18v242q25 -25 75 -41.5t107 -16.5
q34 0 56 13.5t22 40.5q0 49 -76 49q-25 0 -45 -4v194q4 0 19 -1t24 -1q56 0 56 41q0 43 -66 43zM606 0h-248l848 1366h250zM975 299l500 553h86q-2 -33 -2 -147v-336q81 0 135 4v-187q-58 4 -135 4v-69q0 -24 4 -82h-263q3 46 3 82v69h-150q-76 0 -178 -4v113zM1303 479
l-105 -110h105v110z" />
    <glyph glyph-name="questiondown" unicode="&#xbf;" horiz-adv-x="929" 
d="M635 -94q47 0 97 13.5t77 35.5v-348q-6 0 -103.5 -18.5t-181.5 -18.5q-212 0 -328 101t-116 278q0 118 63.5 225.5t182.5 179.5q-12 68 -35 144h379q2 -23 53 -254q-117 -67 -173 -119t-56 -111q0 -43 36.5 -75.5t104.5 -32.5zM684 784q0 -89 -63 -151t-152 -62
q-90 0 -153.5 62t-63.5 151q0 88 64 150.5t153 62.5t152 -62.5t63 -150.5z" />
    <glyph glyph-name="Agrave" unicode="&#xc0;" horiz-adv-x="1527" 
d="M1528 0h-461q-6 19 -51 129l-41 94h-490l-63 -135q-28 -64 -31 -88h-391q97 165 166 311l528 1116h109l551 -1116q51 -108 174 -311zM672 1810l276 -305h-350l-367 305h441zM846 526l-121 289l-117 -289h238z" />
    <glyph glyph-name="Aacute" unicode="&#xc1;" horiz-adv-x="1527" 
d="M1528 0h-461q-6 19 -51 129l-41 94h-490l-63 -135q-28 -64 -31 -88h-391q97 165 166 311l528 1116h109l551 -1116q51 -108 174 -311zM557 1505l274 305h441l-367 -305h-348zM846 526l-121 289l-117 -289h238z" />
    <glyph glyph-name="Acircumflex" unicode="&#xc2;" horiz-adv-x="1527" 
d="M1528 0h-461q-6 19 -51 129l-41 94h-490l-63 -135q-28 -64 -31 -88h-391q97 165 166 311l528 1116h109l551 -1116q51 -108 174 -311zM762 1581l-72 -74h-342l381 330h80l373 -330h-353zM846 526l-121 289l-117 -289h238z" />
    <glyph glyph-name="Atilde" unicode="&#xc3;" horiz-adv-x="1527" 
d="M1528 0h-461q-6 19 -51 129l-41 94h-490l-63 -135q-28 -64 -31 -88h-391q97 165 166 311l528 1116h109l551 -1116q51 -108 174 -311zM846 526l-121 289l-117 -289h238zM537 1520h-248q0 141 84.5 230t234.5 89q62 0 110 -14.5t70.5 -31.5t49.5 -31.5t53 -14.5q72 0 72 74
l249 2q0 -140 -84.5 -229t-236.5 -89q-59 0 -104.5 12.5t-68.5 27.5t-52 27.5t-58 12.5q-71 0 -71 -65z" />
    <glyph glyph-name="Adieresis" unicode="&#xc4;" horiz-adv-x="1527" 
d="M1528 0h-461q-6 19 -51 129l-41 94h-490l-63 -135q-28 -64 -31 -88h-391q97 165 166 311l528 1116h109l551 -1116q51 -108 174 -311zM846 526l-121 289l-117 -289h238zM299 1692q0 81 58.5 138.5t140.5 57.5q84 0 142 -57t58 -139q0 -80 -58 -136.5t-142 -56.5
q-82 0 -140.5 57t-58.5 136zM801 1692q0 81 59.5 138.5t143.5 57.5q82 0 139 -57t57 -139q0 -80 -57 -136.5t-139 -56.5q-83 0 -143 57t-60 136z" />
    <glyph glyph-name="Aring" unicode="&#xc5;" horiz-adv-x="1527" 
d="M520 1634q0 89 68.5 152t163.5 63q97 0 164 -63t67 -152q0 -76 -50.5 -135t-129.5 -76l551 -1112q51 -108 174 -311h-461q-6 19 -51 129l-41 94h-490l-63 -135q-28 -64 -31 -88h-391q97 165 166 311l526 1114q-75 19 -123.5 77t-48.5 132zM846 526l-121 289l-117 -289
h238zM692 1634q0 -24 17.5 -40.5t42.5 -16.5t42 16t17 41t-17 42.5t-42 17.5t-42.5 -17.5t-17.5 -42.5z" />
    <glyph glyph-name="AE" unicode="&#xc6;" horiz-adv-x="1841" 
d="M1454 0h-489q-4 31 -19 109l-24 90h-398l-49 -99q-24 -51 -41 -100h-434q73 109 170 311l600 1092h498q144 0 334 10v-348q-81 8 -267 8h-225l61 -211h175q194 0 288 6v-342q-80 6 -229 6h-162l57 -200h144q175 0 289 8l2 -346q-83 6 -281 6zM786 797l-120 -269h188z" />
    <glyph glyph-name="Ccedilla" unicode="&#xc7;" horiz-adv-x="1320" 
d="M623 -262l122 242q-195 19 -345.5 120.5t-231 259t-80.5 345.5q0 200 92.5 365.5t264 263.5t389.5 98q104 0 202 -15.5t138 -15.5v-445q-124 127 -308 127q-162 0 -270.5 -109.5t-108.5 -268.5q0 -160 109.5 -271.5t273.5 -111.5q199 0 320 118v-430q-46 -3 -125 -16
t-139 -17l-31 -53q86 -21 134 -75.5t48 -139.5q0 -114 -75.5 -182t-225.5 -68q-39 0 -98.5 13.5t-79.5 15.5v203q54 -51 141 -51q41 0 65.5 15t24.5 40q0 63 -108 63q-59 0 -98 -20z" />
    <glyph glyph-name="Egrave" unicode="&#xc8;" horiz-adv-x="1159" 
d="M659 1073h-108v-190h82q228 0 354 8v-346q-126 8 -354 8h-82v-221h125q234 0 356 8v-348q-122 8 -356 8h-535q9 254 9 367v671q0 228 -9 365h518q168 0 357 12v-350q-84 8 -357 8zM543 1810l276 -305h-350l-367 305h441z" />
    <glyph glyph-name="Eacute" unicode="&#xc9;" horiz-adv-x="1159" 
d="M659 1073h-108v-190h82q228 0 354 8v-346q-126 8 -354 8h-82v-221h125q234 0 356 8v-348q-122 8 -356 8h-535q9 254 9 367v671q0 228 -9 365h518q168 0 357 12v-350q-84 8 -357 8zM395 1505l275 305h440l-367 -305h-348z" />
    <glyph glyph-name="Ecircumflex" unicode="&#xca;" horiz-adv-x="1159" 
d="M659 1073h-108v-190h82q228 0 354 8v-346q-126 8 -354 8h-82v-221h125q234 0 356 8v-348q-122 8 -356 8h-535q9 254 9 367v671q0 228 -9 365h518q168 0 357 12v-350q-84 8 -357 8zM578 1581l-72 -74h-342l381 330h80l372 -330h-352z" />
    <glyph glyph-name="Edieresis" unicode="&#xcb;" horiz-adv-x="1159" 
d="M659 1073h-108v-190h82q228 0 354 8v-346q-126 8 -354 8h-82v-221h125q234 0 356 8v-348q-122 8 -356 8h-535q9 254 9 367v671q0 228 -9 365h518q168 0 357 12v-350q-84 8 -357 8zM129 1692q0 81 58.5 138.5t140.5 57.5q84 0 142 -57t58 -139q0 -80 -58 -136.5
t-142 -56.5q-82 0 -140.5 57t-58.5 136zM631 1692q0 81 59.5 138.5t143.5 57.5q82 0 139 -57t57 -139q0 -80 -57 -136.5t-139 -56.5q-83 0 -143 57t-60 136z" />
    <glyph glyph-name="Igrave" unicode="&#xcc;" horiz-adv-x="706" 
d="M555 1036v-669q0 -241 8 -367h-416q9 142 9 367v669q0 230 -9 367h416q-8 -122 -8 -367zM287 1810l276 -305h-350l-367 305h441z" />
    <glyph glyph-name="Iacute" unicode="&#xcd;" horiz-adv-x="706" 
d="M555 1036v-669q0 -241 8 -367h-416q9 142 9 367v669q0 230 -9 367h416q-8 -122 -8 -367zM145 1505l275 305h440l-366 -305h-349z" />
    <glyph glyph-name="Icircumflex" unicode="&#xce;" horiz-adv-x="706" 
d="M555 1036v-669q0 -241 8 -367h-416q9 142 9 367v669q0 230 -9 367h416q-8 -122 -8 -367zM352 1581l-71 -74h-342l380 330h80l373 -330h-352z" />
    <glyph glyph-name="Idieresis" unicode="&#xcf;" horiz-adv-x="706" 
d="M555 1036v-669q0 -241 8 -367h-416q9 142 9 367v669q0 230 -9 367h416q-8 -122 -8 -367zM-96 1692q0 82 58 139t140 57q85 0 143 -57t58 -139q0 -80 -58.5 -136.5t-142.5 -56.5q-82 0 -140 56.5t-58 136.5zM406 1692q0 82 59.5 139t142.5 57q82 0 139.5 -57t57.5 -139
q0 -80 -57.5 -136.5t-139.5 -56.5q-83 0 -142.5 56.5t-59.5 136.5z" />
    <glyph glyph-name="Eth" unicode="&#xd0;" horiz-adv-x="1605" 
d="M813 0h-565q10 105 10 367v163h-227v283h227v223q0 265 -10 367h565q190 0 352.5 -94t257.5 -255.5t95 -351.5t-95 -352t-257.5 -256t-352.5 -94zM659 1075v-262h240v-283h-240v-202h121q140 0 239 110.5t99 263.5q0 152 -99.5 262.5t-240.5 110.5h-119z" />
    <glyph glyph-name="Ntilde" unicode="&#xd1;" horiz-adv-x="1513" 
d="M532 295q0 -167 9 -295h-400q9 128 9 297v725q0 158 -9 408h84q138 -138 236 -220l520 -446v272q0 195 -8 367h399q-10 -225 -10 -367v-729q0 -183 10 -332h-80q-15 15 -50 51.5t-53 55.5t-46 45.5t-51 46.5l-560 479v-358zM543 1520h-248q0 141 84.5 230t234.5 89
q62 0 110 -14.5t70.5 -31.5t49.5 -31.5t53 -14.5q72 0 72 74l250 2q0 -140 -85 -229t-237 -89q-59 0 -104.5 12.5t-68.5 27.5t-52 27.5t-58 12.5q-71 0 -71 -65z" />
    <glyph glyph-name="Ograve" unicode="&#xd2;" horiz-adv-x="1701" 
d="M86 702q0 148 58.5 282.5t159 232.5t243 155.5t303.5 57.5q162 0 305 -57.5t243.5 -155.5t159 -232t58.5 -283t-58.5 -283.5t-159 -232.5t-243.5 -155.5t-305 -57.5q-161 0 -303.5 57.5t-243 155.5t-159 232.5t-58.5 283.5zM489 702q0 -164 103.5 -277.5t257.5 -113.5
t258 113.5t104 277.5t-104 278t-258 114t-257.5 -114t-103.5 -278zM788 1810l277 -305h-350l-367 305h440z" />
    <glyph glyph-name="Oacute" unicode="&#xd3;" horiz-adv-x="1701" 
d="M86 702q0 148 58.5 282.5t159 232.5t243 155.5t303.5 57.5q162 0 305 -57.5t243.5 -155.5t159 -232t58.5 -283t-58.5 -283.5t-159 -232.5t-243.5 -155.5t-305 -57.5q-161 0 -303.5 57.5t-243 155.5t-159 232.5t-58.5 283.5zM489 702q0 -164 103.5 -277.5t257.5 -113.5
t258 113.5t104 277.5t-104 278t-258 114t-257.5 -114t-103.5 -278zM641 1505l274 305h441l-367 -305h-348z" />
    <glyph glyph-name="Ocircumflex" unicode="&#xd4;" horiz-adv-x="1701" 
d="M86 702q0 148 58.5 282.5t159 232.5t243 155.5t303.5 57.5q162 0 305 -57.5t243.5 -155.5t159 -232t58.5 -283t-58.5 -283.5t-159 -232.5t-243.5 -155.5t-305 -57.5q-161 0 -303.5 57.5t-243 155.5t-159 232.5t-58.5 283.5zM489 702q0 -164 103.5 -277.5t257.5 -113.5
t258 113.5t104 277.5t-104 278t-258 114t-257.5 -114t-103.5 -278zM848 1581l-72 -74h-342l381 330h80l373 -330h-353z" />
    <glyph glyph-name="Otilde" unicode="&#xd5;" horiz-adv-x="1701" 
d="M86 702q0 148 58.5 282.5t159 232.5t243 155.5t303.5 57.5q162 0 305 -57.5t243.5 -155.5t159 -232t58.5 -283t-58.5 -283.5t-159 -232.5t-243.5 -155.5t-305 -57.5q-161 0 -303.5 57.5t-243 155.5t-159 232.5t-58.5 283.5zM489 702q0 -164 103.5 -277.5t257.5 -113.5
t258 113.5t104 277.5t-104 278t-258 114t-257.5 -114t-103.5 -278zM637 1520h-248q0 141 85 230t235 89q62 0 109.5 -14.5t70 -31.5t49.5 -31.5t53 -14.5q72 0 72 74l250 2q0 -140 -85 -229t-237 -89q-59 0 -104.5 12.5t-68 27.5t-51.5 27.5t-58 12.5q-37 0 -54.5 -17.5
t-17.5 -47.5z" />
    <glyph glyph-name="Odieresis" unicode="&#xd6;" horiz-adv-x="1701" 
d="M86 702q0 148 58.5 282.5t159 232.5t243 155.5t303.5 57.5q162 0 305 -57.5t243.5 -155.5t159 -232t58.5 -283t-58.5 -283.5t-159 -232.5t-243.5 -155.5t-305 -57.5q-161 0 -303.5 57.5t-243 155.5t-159 232.5t-58.5 283.5zM489 702q0 -164 103.5 -277.5t257.5 -113.5
t258 113.5t104 277.5t-104 278t-258 114t-257.5 -114t-103.5 -278zM399 1692q0 81 58.5 138.5t140.5 57.5q85 0 143 -57t58 -139q0 -80 -58.5 -136.5t-142.5 -56.5q-82 0 -140.5 57t-58.5 136zM901 1692q0 81 59.5 138.5t143.5 57.5q82 0 139 -57t57 -139q0 -80 -57 -136.5
t-139 -56.5q-83 0 -143 57t-60 136z" />
    <glyph glyph-name="multiply" unicode="&#xd7;" horiz-adv-x="1171" 
d="M1038 811l-264 -264l275 -271l-191 -188l-272 270l-262 -260l-191 191l262 262l-274 270l190 191l271 -271l264 258z" />
    <glyph glyph-name="Oslash" unicode="&#xd8;" horiz-adv-x="1701" 
d="M86 702q0 148 58.5 282.5t159 232.5t243 155.5t303.5 57.5q208 0 383 -93l55 66h314l-181 -213q93 -98 144 -223.5t51 -264.5q0 -149 -58.5 -283.5t-159 -232.5t-243.5 -155.5t-305 -57.5q-206 0 -381 93l-55 -66h-312l179 209q-195 208 -195 493zM489 702
q0 -105 46 -192l464 551q-74 33 -149 33q-154 0 -257.5 -114t-103.5 -278zM1212 702q0 101 -43 189l-464 -549q67 -31 145 -31q154 0 258 113.5t104 277.5z" />
    <glyph glyph-name="Ugrave" unicode="&#xd9;" horiz-adv-x="1495" 
d="M139 1403h420q-10 -138 -10 -367v-481q0 -111 58 -171t141 -60q84 0 142 60t58 171v481q0 195 -8 367h416q-6 -135 -6 -367v-471q0 -180 -81.5 -315.5t-217 -204t-303.5 -68.5q-126 0 -235.5 39.5t-191 113t-128 186t-46.5 249.5v471q0 257 -8 367zM688 1810l277 -305
h-351l-366 305h440z" />
    <glyph glyph-name="Uacute" unicode="&#xda;" horiz-adv-x="1495" 
d="M139 1403h420q-10 -138 -10 -367v-481q0 -111 58 -171t141 -60q84 0 142 60t58 171v481q0 195 -8 367h416q-6 -135 -6 -367v-471q0 -180 -81.5 -315.5t-217 -204t-303.5 -68.5q-126 0 -235.5 39.5t-191 113t-128 186t-46.5 249.5v471q0 257 -8 367zM541 1505l274 305h440
l-366 -305h-348z" />
    <glyph glyph-name="Ucircumflex" unicode="&#xdb;" horiz-adv-x="1495" 
d="M139 1403h420q-10 -138 -10 -367v-481q0 -111 58 -171t141 -60q84 0 142 60t58 171v481q0 195 -8 367h416q-6 -135 -6 -367v-471q0 -180 -81.5 -315.5t-217 -204t-303.5 -68.5q-126 0 -235.5 39.5t-191 113t-128 186t-46.5 249.5v471q0 257 -8 367zM745 1581l-71 -74
h-342l381 330h80l372 -330h-352z" />
    <glyph glyph-name="Udieresis" unicode="&#xdc;" horiz-adv-x="1495" 
d="M139 1403h420q-10 -138 -10 -367v-481q0 -111 58 -171t141 -60q84 0 142 60t58 171v481q0 195 -8 367h416q-6 -135 -6 -367v-471q0 -180 -81.5 -315.5t-217 -204t-303.5 -68.5q-126 0 -235.5 39.5t-191 113t-128 186t-46.5 249.5v471q0 257 -8 367zM297 1692
q0 81 58.5 138.5t140.5 57.5q84 0 142 -57t58 -139q0 -80 -58 -136.5t-142 -56.5q-82 0 -140.5 57t-58.5 136zM799 1692q0 82 59.5 139t142.5 57q82 0 139.5 -57t57.5 -139q0 -80 -57.5 -136.5t-139.5 -56.5q-83 0 -142.5 56.5t-59.5 136.5z" />
    <glyph glyph-name="Yacute" unicode="&#xdd;" horiz-adv-x="1445" 
d="M518 0q6 189 6 305v303l-338 533q-115 174 -186 262h483q38 -86 78 -154l178 -299l174 293q42 67 86 160h447q-57 -73 -209 -305l-313 -486v-307q0 -179 8 -305h-414zM520 1505l275 305h440l-367 -305h-348z" />
    <glyph glyph-name="Thorn" unicode="&#xde;" horiz-adv-x="1273" 
d="M553 256v-18q0 -144 6 -238h-416q11 116 11 367v669q0 255 -11 367l416 -2q-6 -77 -6 -244h111q255 0 392.5 -121.5t137.5 -333.5q0 -209 -145 -327.5t-414 -118.5h-82zM553 856v-299h61q87 0 134 43t47 107q0 61 -47.5 105t-133.5 44h-61z" />
    <glyph glyph-name="germandbls" unicode="&#xdf;" horiz-adv-x="1316" 
d="M731 567q-73 0 -127 -32v348q16 -4 58 -4q60 0 101.5 46.5t41.5 112.5q0 63 -43.5 108.5t-104.5 45.5q-69 0 -112 -51t-43 -158v-745q0 -156 6 -238h-391q6 92 6 238v768q0 96 30 178t81.5 140t120.5 99t146.5 60.5t160.5 19.5q224 0 359.5 -114.5t135.5 -313.5
q0 -87 -47 -162t-145 -112q51 -14 101 -44.5t93.5 -76.5t70.5 -111.5t27 -138.5q0 -214 -133.5 -335.5t-357.5 -121.5q-54 0 -120 12t-81 13v352q56 -59 168 -59q58 0 99.5 38.5t41.5 92.5q0 63 -40.5 104t-102.5 41z" />
    <glyph glyph-name="agrave" unicode="&#xe0;" horiz-adv-x="1103" 
d="M401 725q-150 0 -249 -96v297q23 2 73 20.5t124 34.5t163 16q219 0 326.5 -118.5t107.5 -327.5v-213q0 -76 53 -76q39 0 56 10v-211q-49 -42 -102.5 -64t-133.5 -22q-78 0 -125.5 26t-81.5 75q-90 -101 -233 -101q-140 0 -225.5 84t-85.5 220q0 135 88 225t237 90
q56 0 107 -12t75 -27v39q0 64 -45.5 97.5t-128.5 33.5zM428 291q0 -32 23 -54t55 -22t55 22t23 54q0 29 -23 50t-55 21t-55 -21t-23 -50zM446 1450l259 -348h-326l-318 348h385z" />
    <glyph glyph-name="aacute" unicode="&#xe1;" horiz-adv-x="1103" 
d="M401 725q-150 0 -249 -96v297q23 2 73 20.5t124 34.5t163 16q219 0 326.5 -118.5t107.5 -327.5v-213q0 -76 53 -76q39 0 56 10v-211q-49 -42 -102.5 -64t-133.5 -22q-78 0 -125.5 26t-81.5 75q-90 -101 -233 -101q-140 0 -225.5 84t-85.5 220q0 135 88 225t237 90
q56 0 107 -12t75 -27v39q0 64 -45.5 97.5t-128.5 33.5zM428 291q0 -32 23 -54t55 -22t55 22t23 54q0 29 -23 50t-55 21t-55 -21t-23 -50zM322 1102l258 348h383l-318 -348h-323z" />
    <glyph glyph-name="acircumflex" unicode="&#xe2;" horiz-adv-x="1103" 
d="M401 725q-150 0 -249 -96v297q23 2 73 20.5t124 34.5t163 16q219 0 326.5 -118.5t107.5 -327.5v-213q0 -76 53 -76q39 0 56 10v-211q-49 -42 -102.5 -64t-133.5 -22q-78 0 -125.5 26t-81.5 75q-90 -101 -233 -101q-140 0 -225.5 84t-85.5 220q0 135 88 225t237 90
q56 0 107 -12t75 -27v39q0 64 -45.5 97.5t-128.5 33.5zM428 291q0 -32 23 -54t55 -22t55 22t23 54q0 29 -23 50t-55 21t-55 -21t-23 -50zM506 1196l-70 -102h-278l311 376h80l319 -376h-293z" />
    <glyph glyph-name="atilde" unicode="&#xe3;" horiz-adv-x="1103" 
d="M401 725q-150 0 -249 -96v297q23 2 73 20.5t124 34.5t163 16q219 0 326.5 -118.5t107.5 -327.5v-213q0 -76 53 -76q39 0 56 10v-211q-49 -42 -102.5 -64t-133.5 -22q-78 0 -125.5 26t-81.5 75q-90 -101 -233 -101q-140 0 -225.5 84t-85.5 220q0 135 88 225t237 90
q56 0 107 -12t75 -27v39q0 64 -45.5 97.5t-128.5 33.5zM428 291q0 -32 23 -54t55 -22t55 22t23 54q0 29 -23 50t-55 21t-55 -21t-23 -50zM369 1096h-230q2 129 74.5 218t183.5 89q47 0 84.5 -13t56.5 -28t40 -28t40 -13q24 0 37 19.5t13 48.5h215q0 -128 -68.5 -218
t-173.5 -90q-46 0 -83.5 13t-56.5 29t-41 29t-42 13q-49 0 -49 -69z" />
    <glyph glyph-name="adieresis" unicode="&#xe4;" horiz-adv-x="1103" 
d="M401 725q-150 0 -249 -96v297q23 2 73 20.5t124 34.5t163 16q219 0 326.5 -118.5t107.5 -327.5v-213q0 -76 53 -76q39 0 56 10v-211q-49 -42 -102.5 -64t-133.5 -22q-78 0 -125.5 26t-81.5 75q-90 -101 -233 -101q-140 0 -225.5 84t-85.5 220q0 135 88 225t237 90
q56 0 107 -12t75 -27v39q0 64 -45.5 97.5t-128.5 33.5zM428 291q0 -32 23 -54t55 -22t55 22t23 54q0 29 -23 50t-55 21t-55 -21t-23 -50zM98 1276q0 75 53.5 128.5t127.5 53.5q75 0 128.5 -53.5t53.5 -128.5t-53.5 -127.5t-128.5 -52.5q-74 0 -127.5 52.5t-53.5 127.5z
M582 1276q0 75 54 128.5t130 53.5q73 0 125.5 -53.5t52.5 -128.5t-52 -127.5t-126 -52.5q-77 0 -130.5 52.5t-53.5 127.5z" />
    <glyph glyph-name="aring" unicode="&#xe5;" horiz-adv-x="1103" 
d="M401 725q-150 0 -249 -96v297q23 2 73 20.5t124 34.5t163 16q219 0 326.5 -118.5t107.5 -327.5v-213q0 -76 53 -76q39 0 56 10v-211q-49 -42 -102.5 -64t-133.5 -22q-78 0 -125.5 26t-81.5 75q-90 -101 -233 -101q-140 0 -225.5 84t-85.5 220q0 135 88 225t237 90
q56 0 107 -12t75 -27v39q0 64 -45.5 97.5t-128.5 33.5zM428 291q0 -32 23 -54t55 -22t55 22t23 54q0 29 -23 50t-55 21t-55 -21t-23 -50zM268 1278q0 91 69.5 155t166.5 64q100 0 169.5 -64t69.5 -155t-70 -156t-169 -65q-97 0 -166.5 65t-69.5 156zM449 1278
q0 -23 16.5 -39t38.5 -16q25 0 41 16t16 39t-16 39t-41 16q-22 0 -38.5 -16t-16.5 -39z" />
    <glyph glyph-name="ae" unicode="&#xe6;" horiz-adv-x="1579" 
d="M154 631v295q20 0 71.5 18t120.5 35.5t129 17.5q99 0 179 -30t122 -93q53 56 120 88.5t171 32.5q195 0 312.5 -149.5t117.5 -386.5q0 -31 -6 -49h-578q56 -138 226 -138q140 0 241 58v-314q-40 -2 -121.5 -17t-158.5 -15q-223 0 -387 155q-42 -53 -79.5 -85.5t-99 -55.5
t-139.5 -23q-151 0 -237 86t-86 218t87 223.5t236 91.5q110 0 187 -41v35q0 63 -48 100t-139 37q-127 0 -241 -94zM1024 725q-43 0 -75.5 -31.5t-45.5 -91.5h234q-3 55 -33 89t-80 34zM434 291q0 -32 22 -54t56 -22q31 0 53.5 22t22.5 54q0 29 -22.5 50t-53.5 21
q-33 0 -55.5 -20.5t-22.5 -50.5z" />
    <glyph glyph-name="ccedilla" unicode="&#xe7;" horiz-adv-x="923" 
d="M383 -254l125 248q-203 29 -327 167t-124 326q0 141 68.5 257t195 184.5t285.5 68.5q40 0 109.5 -10.5t89.5 -11.5v-393q-39 42 -81.5 65t-109.5 23q-78 0 -132 -54t-54 -129q0 -73 54.5 -125.5t131.5 -52.5q119 0 199 97v-400q-25 -2 -65 -8t-66 -8l-35 -64
q82 -19 129 -72t47 -137q0 -110 -73.5 -175.5t-219.5 -65.5q-38 0 -96 13t-76 15v197q51 -51 138 -51q40 0 64 15t24 40q0 29 -27 45.5t-80 16.5q-57 0 -94 -21z" />
    <glyph glyph-name="egrave" unicode="&#xe8;" horiz-adv-x="1091" 
d="M1024 410h-600q71 -138 250 -138q125 0 231 56v-305q-23 0 -120 -19.5t-179 -19.5q-151 0 -275 66t-194.5 180.5t-70.5 254.5q0 213 139.5 361.5t343.5 148.5q137 0 247 -68.5t171 -185t61 -256.5q0 -43 -4 -75zM537 725q-44 0 -78.5 -35t-46.5 -88h241q-5 46 -34.5 84.5
t-81.5 38.5zM461 1450l258 -348h-326l-317 348h385z" />
    <glyph glyph-name="eacute" unicode="&#xe9;" horiz-adv-x="1091" 
d="M1024 410h-600q71 -138 250 -138q125 0 231 56v-305q-23 0 -120 -19.5t-179 -19.5q-151 0 -275 66t-194.5 180.5t-70.5 254.5q0 213 139.5 361.5t343.5 148.5q137 0 247 -68.5t171 -185t61 -256.5q0 -43 -4 -75zM537 725q-44 0 -78.5 -35t-46.5 -88h241q-5 46 -34.5 84.5
t-81.5 38.5zM389 1102l258 348h383l-317 -348h-324z" />
    <glyph glyph-name="ecircumflex" unicode="&#xea;" horiz-adv-x="1091" 
d="M1024 410h-600q71 -138 250 -138q125 0 231 56v-305q-23 0 -120 -19.5t-179 -19.5q-151 0 -275 66t-194.5 180.5t-70.5 254.5q0 213 139.5 361.5t343.5 148.5q137 0 247 -68.5t171 -185t61 -256.5q0 -43 -4 -75zM537 725q-44 0 -78.5 -35t-46.5 -88h241q-5 46 -34.5 84.5
t-81.5 38.5zM541 1196l-70 -102h-278l311 376h80l319 -376h-293z" />
    <glyph glyph-name="edieresis" unicode="&#xeb;" horiz-adv-x="1091" 
d="M1024 410h-600q71 -138 250 -138q125 0 231 56v-305q-23 0 -120 -19.5t-179 -19.5q-151 0 -275 66t-194.5 180.5t-70.5 254.5q0 213 139.5 361.5t343.5 148.5q137 0 247 -68.5t171 -185t61 -256.5q0 -43 -4 -75zM537 725q-44 0 -78.5 -35t-46.5 -88h241q-5 46 -34.5 84.5
t-81.5 38.5zM125 1276q0 75 53 128.5t127 53.5q75 0 128.5 -53.5t53.5 -128.5t-53.5 -127.5t-128.5 -52.5q-74 0 -127 52.5t-53 127.5zM608 1276q0 75 54.5 128.5t130.5 53.5q73 0 125.5 -53.5t52.5 -128.5t-52 -127.5t-126 -52.5q-77 0 -131 52.5t-54 127.5z" />
    <glyph glyph-name="igrave" unicode="&#xec;" horiz-adv-x="632" 
d="M510 772v-567q0 -127 8 -205h-393q4 86 4 205v557h-106q9 17 20.5 47t19 53.5t19.5 63t16 51.5h420q-8 -90 -8 -205zM246 1450l258 -348h-326l-317 348h385z" />
    <glyph glyph-name="iacute" unicode="&#xed;" horiz-adv-x="632" 
d="M510 772v-567q0 -127 8 -205h-393q4 86 4 205v557h-106q9 17 20.5 47t19 53.5t19.5 63t16 51.5h420q-8 -90 -8 -205zM135 1102l258 348h383l-317 -348h-324z" />
    <glyph glyph-name="icircumflex" unicode="&#xee;" horiz-adv-x="632" 
d="M510 772v-567q0 -127 8 -205h-393q4 86 4 205v557h-106q9 17 20.5 47t19 53.5t19.5 63t16 51.5h420q-8 -90 -8 -205zM311 1196l-69 -102h-279l311 376h80l320 -376h-293z" />
    <glyph glyph-name="idieresis" unicode="&#xef;" horiz-adv-x="632" 
d="M510 772v-567q0 -127 8 -205h-393q4 86 4 205v557h-106q9 17 20.5 47t19 53.5t19.5 63t16 51.5h420q-8 -90 -8 -205zM-104 1276q0 75 53 128.5t127 53.5q75 0 128.5 -53.5t53.5 -128.5t-53.5 -127.5t-128.5 -52.5q-74 0 -127 52.5t-53 127.5zM379 1276q0 75 54 128.5
t130 53.5q73 0 125.5 -53.5t52.5 -128.5t-52 -127.5t-126 -52.5q-77 0 -130.5 52.5t-53.5 127.5z" />
    <glyph glyph-name="eth" unicode="&#xf0;" horiz-adv-x="1298" 
d="M297 1098l147 80q-97 34 -180 45v297q285 -39 494 -174l190 102l96 -156l-133 -71q119 -122 181.5 -279.5t62.5 -331.5q0 -175 -69 -316.5t-198 -224.5t-294 -83q-143 0 -261.5 61.5t-188.5 173.5t-70 250q0 135 68 242t183 165t255 58q138 0 200 -62q-30 106 -145 197
l-244 -131zM776 473q0 61 -47.5 103t-114.5 42q-69 0 -117 -42t-48 -103t48 -103t117 -42q67 0 114.5 42t47.5 103z" />
    <glyph glyph-name="ntilde" unicode="&#xf1;" horiz-adv-x="1230" 
d="M737 532q0 75 -28.5 118.5t-83.5 43.5q-115 0 -115 -159v-330q0 -129 8 -205h-395q6 86 6 205v557h-106q48 111 75 215h412v-100q43 57 112 87.5t148 30.5q348 0 348 -463v-327q0 -129 8 -205h-397q8 76 8 205v327zM481 1096h-229q2 129 74.5 218t183.5 89q47 0 84.5 -13
t56.5 -28t40 -28t40 -13q24 0 36.5 19.5t12.5 48.5h215q0 -129 -68 -218.5t-173 -89.5q-46 0 -83.5 13t-57 29t-41.5 29t-42 13q-49 0 -49 -69z" />
    <glyph glyph-name="ograve" unicode="&#xf2;" horiz-adv-x="1185" 
d="M66 489q0 138 70.5 255t191.5 185t264 68t264.5 -68t192.5 -185t71 -255q0 -137 -71 -253t-192.5 -183t-264.5 -67t-264 67t-191.5 183t-70.5 253zM426 489q0 -74 48 -125t118 -51q69 0 118.5 51.5t49.5 124.5q0 75 -49.5 127t-118.5 52q-70 0 -118 -52t-48 -127z
M496 1450l258 -348h-326l-317 348h385z" />
    <glyph glyph-name="oacute" unicode="&#xf3;" horiz-adv-x="1185" 
d="M66 489q0 138 70.5 255t191.5 185t264 68t264.5 -68t192.5 -185t71 -255q0 -137 -71 -253t-192.5 -183t-264.5 -67t-264 67t-191.5 183t-70.5 253zM426 489q0 -74 48 -125t118 -51q69 0 118.5 51.5t49.5 124.5q0 75 -49.5 127t-118.5 52q-70 0 -118 -52t-48 -127z
M432 1102l258 348h383l-317 -348h-324z" />
    <glyph glyph-name="ocircumflex" unicode="&#xf4;" horiz-adv-x="1185" 
d="M66 489q0 138 70.5 255t191.5 185t264 68t264.5 -68t192.5 -185t71 -255q0 -137 -71 -253t-192.5 -183t-264.5 -67t-264 67t-191.5 183t-70.5 253zM426 489q0 -74 48 -125t118 -51q69 0 118.5 51.5t49.5 124.5q0 75 -49.5 127t-118.5 52q-70 0 -118 -52t-48 -127z
M586 1196l-70 -102h-278l311 376h80l319 -376h-293z" />
    <glyph glyph-name="otilde" unicode="&#xf5;" horiz-adv-x="1185" 
d="M66 489q0 138 70.5 255t191.5 185t264 68t264.5 -68t192.5 -185t71 -255q0 -137 -71 -253t-192.5 -183t-264.5 -67t-264 67t-191.5 183t-70.5 253zM426 489q0 -74 48 -125t118 -51q69 0 118.5 51.5t49.5 124.5q0 75 -49.5 127t-118.5 52q-70 0 -118 -52t-48 -127z
M451 1096h-230q2 129 74.5 218t183.5 89q47 0 84.5 -13t56.5 -28t40 -28t40 -13q24 0 37 19.5t13 48.5h215q0 -128 -68.5 -218t-173.5 -90q-46 0 -83.5 13t-56.5 29t-41 29t-42 13q-49 0 -49 -69z" />
    <glyph glyph-name="odieresis" unicode="&#xf6;" horiz-adv-x="1185" 
d="M66 489q0 138 70.5 255t191.5 185t264 68t264.5 -68t192.5 -185t71 -255q0 -137 -71 -253t-192.5 -183t-264.5 -67t-264 67t-191.5 183t-70.5 253zM426 489q0 -74 48 -125t118 -51q69 0 118.5 51.5t49.5 124.5q0 75 -49.5 127t-118.5 52q-70 0 -118 -52t-48 -127z
M170 1276q0 75 53 128.5t127 53.5q75 0 128.5 -53.5t53.5 -128.5t-53.5 -127.5t-128.5 -52.5q-74 0 -127 52.5t-53 127.5zM653 1276q0 75 54.5 128.5t130.5 53.5q73 0 125.5 -53.5t52.5 -128.5t-52 -127.5t-126 -52.5q-77 0 -131 52.5t-54 127.5z" />
    <glyph glyph-name="divide" unicode="&#xf7;" horiz-adv-x="1171" 
d="M88 403v293h993v-293h-993zM373 1008q0 86 61.5 148.5t147.5 62.5q90 0 151.5 -62t61.5 -149t-61.5 -150t-151.5 -63q-86 0 -147.5 63t-61.5 150zM373 111q0 88 61.5 149.5t147.5 61.5q90 0 151.5 -61.5t61.5 -149.5t-61.5 -150.5t-151.5 -62.5q-86 0 -147.5 62.5
t-61.5 150.5z" />
    <glyph glyph-name="oslash" unicode="&#xf8;" horiz-adv-x="1183" 
d="M66 489q0 138 70 255t191 185t263 68q166 0 309 -96l70 76h147l-135 -148q137 -143 137 -340q0 -137 -70.5 -253t-192 -183t-265.5 -67q-165 0 -301 90l-70 -76h-151l137 147q-139 145 -139 342zM426 489q0 -43 18 -81l222 239q-40 21 -76 21q-69 0 -116.5 -52
t-47.5 -127zM758 489q0 39 -17 78l-221 -239q30 -15 70 -15q69 0 118.5 51.5t49.5 124.5z" />
    <glyph glyph-name="ugrave" unicode="&#xf9;" horiz-adv-x="1241" 
d="M504 446q0 -49 12.5 -83.5t32.5 -50.5t38 -22.5t36 -6.5q17 0 33 5.5t35.5 20.5t31.5 50t12 87v326q0 126 -8 205h397q-8 -79 -8 -205v-551q0 -154 33 -221h-371q-25 45 -28 113q-57 -75 -122 -103t-159 -28q-159 0 -252.5 107.5t-93.5 307.5v365h-107q42 89 74 215h424
q-10 -98 -10 -205v-326zM522 1450l258 -348h-325l-318 348h385z" />
    <glyph glyph-name="uacute" unicode="&#xfa;" horiz-adv-x="1241" 
d="M504 446q0 -49 12.5 -83.5t32.5 -50.5t38 -22.5t36 -6.5q17 0 33 5.5t35.5 20.5t31.5 50t12 87v326q0 126 -8 205h397q-8 -79 -8 -205v-551q0 -154 33 -221h-371q-25 45 -28 113q-57 -75 -122 -103t-159 -28q-159 0 -252.5 107.5t-93.5 307.5v365h-107q42 89 74 215h424
q-10 -98 -10 -205v-326zM467 1102l258 348h383l-317 -348h-324z" />
    <glyph glyph-name="ucircumflex" unicode="&#xfb;" horiz-adv-x="1241" 
d="M504 446q0 -49 12.5 -83.5t32.5 -50.5t38 -22.5t36 -6.5q17 0 33 5.5t35.5 20.5t31.5 50t12 87v326q0 126 -8 205h397q-8 -79 -8 -205v-551q0 -154 33 -221h-371q-25 45 -28 113q-57 -75 -122 -103t-159 -28q-159 0 -252.5 107.5t-93.5 307.5v365h-107q42 89 74 215h424
q-10 -98 -10 -205v-326zM614 1196l-69 -102h-279l312 376h79l320 -376h-293z" />
    <glyph glyph-name="udieresis" unicode="&#xfc;" horiz-adv-x="1241" 
d="M504 446q0 -49 12.5 -83.5t32.5 -50.5t38 -22.5t36 -6.5q17 0 33 5.5t35.5 20.5t31.5 50t12 87v326q0 126 -8 205h397q-8 -79 -8 -205v-551q0 -154 33 -221h-371q-25 45 -28 113q-57 -75 -122 -103t-159 -28q-159 0 -252.5 107.5t-93.5 307.5v365h-107q42 89 74 215h424
q-10 -98 -10 -205v-326zM199 1276q0 75 53 128.5t127 53.5q75 0 128.5 -53.5t53.5 -128.5t-53.5 -127.5t-128.5 -52.5q-74 0 -127 52.5t-53 127.5zM682 1276q0 75 54 128.5t130 53.5q73 0 125.5 -53.5t52.5 -128.5t-52 -127.5t-126 -52.5q-77 0 -130.5 52.5t-53.5 127.5z
" />
    <glyph glyph-name="yacute" unicode="&#xfd;" horiz-adv-x="1200" 
d="M598 -268q-80 -130 -180.5 -184t-249.5 -54q-52 0 -115 19q96 105 146 178q157 224 241 385l-334 698q-63 123 -106 203h442q13 -64 43 -133l150 -346q52 136 113 338q13 37 32 141h420q-22 -39 -54.5 -109.5t-45.5 -105.5q-210 -503 -295 -670q-90 -177 -207 -360z
M449 1102l258 348h383l-318 -348h-323z" />
    <glyph glyph-name="thorn" unicode="&#xfe;" horiz-adv-x="1298" 
d="M123 -164v1454h-107q56 124 74 213h422q-8 -65 -8 -203v-389q35 36 102 61t160 25q213 0 341 -140.5t128 -352.5q0 -230 -138 -375t-360 -145q-68 0 -135.5 16.5t-97.5 46.5v-211q0 -164 6 -330h-395q8 156 8 330zM496 492q0 -79 53 -135t127 -56q71 0 120.5 56t49.5 135
t-51 134.5t-125 55.5q-72 0 -123 -56t-51 -134z" />
    <glyph glyph-name="ydieresis" unicode="&#xff;" horiz-adv-x="1200" 
d="M598 -268q-80 -130 -180.5 -184t-249.5 -54q-52 0 -115 19q96 105 146 178q157 224 241 385l-334 698q-63 123 -106 203h442q13 -64 43 -133l150 -346q52 136 113 338q13 37 32 141h420q-22 -39 -54.5 -109.5t-45.5 -105.5q-210 -503 -295 -670q-90 -177 -207 -360z
M197 1276q0 75 53 128.5t127 53.5q75 0 128.5 -53.5t53.5 -128.5t-53.5 -127.5t-128.5 -52.5q-74 0 -127 52.5t-53 127.5zM680 1276q0 75 54 128.5t130 53.5q73 0 125.5 -53.5t52.5 -128.5t-52 -127.5t-126 -52.5q-77 0 -130.5 52.5t-53.5 127.5z" />
    <glyph glyph-name="Amacron" unicode="&#x100;" horiz-adv-x="1527" 
d="M1528 0h-461q-6 19 -51 129l-41 94h-490l-63 -135q-28 -64 -31 -88h-391q97 165 166 311l528 1116h109l551 -1116q51 -108 174 -311zM846 526l-121 289l-117 -289h238zM389 1767h723v-239h-723v239z" />
    <glyph glyph-name="amacron" unicode="&#x101;" horiz-adv-x="1103" 
d="M401 725q-150 0 -249 -96v297q23 2 73 20.5t124 34.5t163 16q219 0 326.5 -118.5t107.5 -327.5v-213q0 -76 53 -76q39 0 56 10v-211q-49 -42 -102.5 -64t-133.5 -22q-78 0 -125.5 26t-81.5 75q-90 -101 -233 -101q-140 0 -225.5 84t-85.5 220q0 135 88 225t237 90
q56 0 107 -12t75 -27v39q0 64 -45.5 97.5t-128.5 33.5zM428 291q0 -32 23 -54t55 -22t55 22t23 54q0 29 -23 50t-55 21t-55 -21t-23 -50zM193 1395h659v-252h-659v252z" />
    <glyph glyph-name="Abreve" unicode="&#x102;" horiz-adv-x="1527" 
d="M1528 0h-461q-6 19 -51 129l-41 94h-490l-63 -135q-28 -64 -31 -88h-391q97 165 166 311l528 1116h109l551 -1116q51 -108 174 -311zM846 526l-121 289l-117 -289h238zM645 1765q0 -33 27.5 -51t70.5 -18q42 0 70.5 18.5t28.5 50.5h245q0 -130 -98 -202t-246 -72t-246 72
t-98 202h246z" />
    <glyph glyph-name="abreve" unicode="&#x103;" horiz-adv-x="1103" 
d="M401 725q-150 0 -249 -96v297q23 2 73 20.5t124 34.5t163 16q219 0 326.5 -118.5t107.5 -327.5v-213q0 -76 53 -76q39 0 56 10v-211q-49 -42 -102.5 -64t-133.5 -22q-78 0 -125.5 26t-81.5 75q-90 -101 -233 -101q-140 0 -225.5 84t-85.5 220q0 135 88 225t237 90
q56 0 107 -12t75 -27v39q0 64 -45.5 97.5t-128.5 33.5zM428 291q0 -32 23 -54t55 -22t55 22t23 54q0 29 -23 50t-55 21t-55 -21t-23 -50zM436 1405q0 -38 24.5 -65t59.5 -27t60.5 27t25.5 65h248q0 -135 -98 -231.5t-236 -96.5t-235 96.5t-97 231.5h248z" />
    <glyph glyph-name="Aogonek" unicode="&#x104;" horiz-adv-x="1527" 
d="M1528 0q-111 -12 -187 -36t-109.5 -54t-45.5 -54t-12 -49q0 -35 24 -57t66 -22q70 0 131 73v-254q-138 -90 -308 -90q-122 0 -196 58t-74 159q0 175 250 326q-6 19 -51 129l-41 94h-490l-63 -135q-28 -64 -31 -88h-391q97 165 166 311l528 1116h109l551 -1116
q51 -108 174 -311zM846 526l-121 289l-117 -289h238z" />
    <glyph glyph-name="aogonek" unicode="&#x105;" horiz-adv-x="1103" 
d="M401 725q-150 0 -249 -96v297q23 2 73 20.5t124 34.5t163 16q219 0 326.5 -118.5t107.5 -327.5v-213q0 -76 53 -76q39 0 56 10v-204q-134 -81 -213.5 -167.5t-79.5 -156.5q0 -36 26.5 -61t67.5 -25q71 0 143 59v-168q-59 -47 -123 -69.5t-165 -22.5q-102 0 -168 55
t-66 144q0 172 252 338q-72 17 -117 82q-90 -101 -233 -101q-140 0 -225.5 84t-85.5 220q0 135 88 225t237 90q56 0 107 -12t75 -27v39q0 64 -45.5 97.5t-128.5 33.5zM428 291q0 -32 23 -54t55 -22t55 22t23 54q0 29 -23 50t-55 21t-55 -21t-23 -50z" />
    <glyph glyph-name="Cacute" unicode="&#x106;" horiz-adv-x="1320" 
d="M487 705q0 -160 109.5 -271.5t273.5 -111.5q199 0 320 118v-430q-38 -2 -143 -18.5t-213 -16.5q-218 0 -389.5 98.5t-264 264.5t-92.5 367q0 200 92.5 365.5t264 263.5t389.5 98q104 0 202 -15.5t138 -15.5v-445q-124 127 -308 127q-162 0 -270.5 -109.5t-108.5 -268.5z
M602 1505l275 305h440l-367 -305h-348z" />
    <glyph glyph-name="cacute" unicode="&#x107;" horiz-adv-x="923" 
d="M428 487q0 -73 54.5 -125.5t131.5 -52.5q119 0 199 97v-400q-11 -1 -77.5 -10.5t-129.5 -9.5q-120 0 -223.5 39.5t-174.5 107.5t-111 159.5t-40 194.5q0 141 68.5 257t195 184.5t285.5 68.5q40 0 109.5 -10.5t89.5 -11.5v-393q-39 42 -81.5 65t-109.5 23q-78 0 -132 -54
t-54 -129zM401 1102l258 348h383l-317 -348h-324z" />
    <glyph glyph-name="Ccircumflex" unicode="&#x108;" horiz-adv-x="1320" 
d="M487 705q0 -160 109.5 -271.5t273.5 -111.5q199 0 320 118v-430q-38 -2 -143 -18.5t-213 -16.5q-218 0 -389.5 98.5t-264 264.5t-92.5 367q0 200 92.5 365.5t264 263.5t389.5 98q104 0 202 -15.5t138 -15.5v-445q-124 127 -308 127q-162 0 -270.5 -109.5t-108.5 -268.5z
M807 1581l-72 -74h-342l381 330h80l373 -330h-353z" />
    <glyph glyph-name="ccircumflex" unicode="&#x109;" horiz-adv-x="923" 
d="M428 487q0 -73 54.5 -125.5t131.5 -52.5q119 0 199 97v-400q-11 -1 -77.5 -10.5t-129.5 -9.5q-120 0 -223.5 39.5t-174.5 107.5t-111 159.5t-40 194.5q0 141 68.5 257t195 184.5t285.5 68.5q40 0 109.5 -10.5t89.5 -11.5v-393q-39 42 -81.5 65t-109.5 23q-78 0 -132 -54
t-54 -129zM551 1196l-70 -102h-278l311 376h80l319 -376h-292z" />
    <glyph glyph-name="Cdotaccent" unicode="&#x10a;" horiz-adv-x="1320" 
d="M487 705q0 -160 109.5 -271.5t273.5 -111.5q199 0 320 118v-430q-38 -2 -143 -18.5t-213 -16.5q-218 0 -389.5 98.5t-264 264.5t-92.5 367q0 200 92.5 365.5t264 263.5t389.5 98q104 0 202 -15.5t138 -15.5v-445q-124 127 -308 127q-162 0 -270.5 -109.5t-108.5 -268.5z
M600 1690q0 88 61.5 149.5t149.5 61.5t148.5 -61.5t60.5 -149.5t-61 -150.5t-148 -62.5q-88 0 -149.5 62.5t-61.5 150.5z" />
    <glyph glyph-name="cdotaccent" unicode="&#x10b;" horiz-adv-x="923" 
d="M428 487q0 -73 54.5 -125.5t131.5 -52.5q119 0 199 97v-400q-11 -1 -77.5 -10.5t-129.5 -9.5q-120 0 -223.5 39.5t-174.5 107.5t-111 159.5t-40 194.5q0 141 68.5 257t195 184.5t285.5 68.5q40 0 109.5 -10.5t89.5 -11.5v-393q-39 42 -81.5 65t-109.5 23q-78 0 -132 -54
t-54 -129zM362 1278q0 86 60 145.5t145 59.5t143 -59.5t58 -145.5q0 -85 -58.5 -145t-142.5 -60q-85 0 -145 60t-60 145z" />
    <glyph glyph-name="Ccaron" unicode="&#x10c;" horiz-adv-x="1320" 
d="M487 705q0 -160 109.5 -271.5t273.5 -111.5q199 0 320 118v-430q-38 -2 -143 -18.5t-213 -16.5q-218 0 -389.5 98.5t-264 264.5t-92.5 367q0 200 92.5 365.5t264 263.5t389.5 98q104 0 202 -15.5t138 -15.5v-445q-124 127 -308 127q-162 0 -270.5 -109.5t-108.5 -268.5z
M821 1739l72 73h342l-381 -329h-80l-373 329h353z" />
    <glyph glyph-name="ccaron" unicode="&#x10d;" horiz-adv-x="923" 
d="M428 487q0 -73 54.5 -125.5t131.5 -52.5q119 0 199 97v-400q-11 -1 -77.5 -10.5t-129.5 -9.5q-120 0 -223.5 39.5t-174.5 107.5t-111 159.5t-40 194.5q0 141 68.5 257t195 184.5t285.5 68.5q40 0 109.5 -10.5t89.5 -11.5v-393q-39 42 -81.5 65t-109.5 23q-78 0 -132 -54
t-54 -129zM565 1343l70 103h278l-311 -377h-80l-319 377h293z" />
    <glyph glyph-name="Dcaron" unicode="&#x10e;" horiz-adv-x="1499" 
d="M707 0h-566q11 116 11 367v669q0 255 -11 367h566q190 0 352.5 -94t257 -255.5t94.5 -351.5q0 -142 -56 -272.5t-150.5 -224.5t-224.5 -149.5t-273 -55.5zM553 1075v-747h121q140 0 239 110.5t99 263.5q0 152 -99.5 262.5t-240.5 110.5h-119zM629 1739l71 73h342
l-380 -329h-80l-373 329h352z" />
    <glyph glyph-name="dcaron" unicode="&#x10f;" horiz-adv-x="1296" 
d="M1174 1274v-1069q0 -117 8 -205h-391q2 31 2 90q-55 -57 -122.5 -80.5t-160.5 -23.5q-129 0 -233 69t-160 182t-56 246q0 222 133 368t349 146q86 0 152.5 -20.5t97.5 -52.5v366h-107q16 32 40 102t34 111h422q-8 -101 -8 -229zM1268 1044l22 406h324l-68 -406h-278z
M799 489q0 78 -53 134.5t-128 56.5q-71 0 -120 -56t-49 -135t52.5 -134.5t127.5 -55.5q69 0 119.5 55.5t50.5 134.5z" />
    <glyph glyph-name="Dcroat" unicode="&#x110;" horiz-adv-x="1605" 
d="M813 0h-565q10 105 10 367v163h-227v283h227v223q0 265 -10 367h565q190 0 352.5 -94t257.5 -255.5t95 -351.5t-95 -352t-257.5 -256t-352.5 -94zM659 1075v-262h240v-283h-240v-202h121q140 0 239 110.5t99 263.5q0 152 -99.5 262.5t-240.5 110.5h-119z" />
    <glyph glyph-name="dcroat" unicode="&#x111;" horiz-adv-x="1343" 
d="M1174 1294v-59h169v-231h-169v-799q0 -123 10 -205h-400q9 46 9 90q-55 -57 -122.5 -80.5t-160.5 -23.5q-129 0 -232.5 64.5t-160 173.5t-56.5 239q0 217 133 355t349 138q80 0 149 -21t101 -52v121h-338v231h338v55h-107q4 13 21.5 60.5t32.5 90.5t20 62h420
q-6 -76 -6 -209zM799 469q0 70 -53 120t-128 50q-70 0 -119.5 -49.5t-49.5 -120.5t52.5 -120.5t127.5 -49.5q71 0 120.5 49.5t49.5 120.5z" />
    <glyph glyph-name="Emacron" unicode="&#x112;" horiz-adv-x="1159" 
d="M659 1073h-108v-190h82q228 0 354 8v-346q-126 8 -354 8h-82v-221h125q234 0 356 8v-348q-122 8 -356 8h-535q9 254 9 367v671q0 228 -9 365h518q168 0 357 12v-350q-84 8 -357 8zM221 1767h723v-239h-723v239z" />
    <glyph glyph-name="emacron" unicode="&#x113;" horiz-adv-x="1091" 
d="M1024 410h-600q71 -138 250 -138q125 0 231 56v-305q-23 0 -120 -19.5t-179 -19.5q-151 0 -275 66t-194.5 180.5t-70.5 254.5q0 213 139.5 361.5t343.5 148.5q137 0 247 -68.5t171 -185t61 -256.5q0 -43 -4 -75zM537 725q-44 0 -78.5 -35t-46.5 -88h241q-5 46 -34.5 84.5
t-81.5 38.5zM217 1395h660v-252h-660v252z" />
    <glyph glyph-name="Ebreve" unicode="&#x114;" horiz-adv-x="1159" 
d="M659 1073h-108v-190h82q228 0 354 8v-346q-126 8 -354 8h-82v-221h125q234 0 356 8v-348q-122 8 -356 8h-535q9 254 9 367v671q0 228 -9 365h518q168 0 357 12v-350q-84 8 -357 8zM479 1765q0 -33 28 -51t71 -18q42 0 70 18.5t28 50.5h246q0 -130 -98 -202t-246 -72
t-246.5 72t-98.5 202h246z" />
    <glyph glyph-name="ebreve" unicode="&#x115;" horiz-adv-x="1091" 
d="M1024 410h-600q71 -138 250 -138q125 0 231 56v-305q-23 0 -120 -19.5t-179 -19.5q-151 0 -275 66t-194.5 180.5t-70.5 254.5q0 213 139.5 361.5t343.5 148.5q137 0 247 -68.5t171 -185t61 -256.5q0 -43 -4 -75zM537 725q-44 0 -78.5 -35t-46.5 -88h241q-5 46 -34.5 84.5
t-81.5 38.5zM461 1405q0 -38 24.5 -65t59.5 -27t60.5 27t25.5 65h248q0 -135 -98 -231.5t-236 -96.5t-235 96.5t-97 231.5h248z" />
    <glyph glyph-name="Edotaccent" unicode="&#x116;" horiz-adv-x="1159" 
d="M659 1073h-108v-190h82q228 0 354 8v-346q-126 8 -354 8h-82v-221h125q234 0 356 8v-348q-122 8 -356 8h-535q9 254 9 367v671q0 228 -9 365h518q168 0 357 12v-350q-84 8 -357 8zM379 1690q0 88 61.5 149.5t149.5 61.5t148.5 -61.5t60.5 -149.5t-61 -150.5t-148 -62.5
q-88 0 -149.5 62.5t-61.5 150.5z" />
    <glyph glyph-name="edotaccent" unicode="&#x117;" horiz-adv-x="1091" 
d="M1024 410h-600q71 -138 250 -138q125 0 231 56v-305q-23 0 -120 -19.5t-179 -19.5q-151 0 -275 66t-194.5 180.5t-70.5 254.5q0 213 139.5 361.5t343.5 148.5q137 0 247 -68.5t171 -185t61 -256.5q0 -43 -4 -75zM537 725q-44 0 -78.5 -35t-46.5 -88h241q-5 46 -34.5 84.5
t-81.5 38.5zM344 1278q0 86 60 145.5t145 59.5t143 -59.5t58 -145.5q0 -85 -58.5 -145t-142.5 -60q-85 0 -145 60t-60 145z" />
    <glyph glyph-name="Eogonek" unicode="&#x118;" horiz-adv-x="1159" 
d="M455 -326q0 175 250 326h-564q9 254 9 367v671q0 228 -9 365h518q168 0 357 12v-350q-84 8 -357 8h-108v-190h82q228 0 354 8v-346q-126 8 -354 8h-82v-221h125q234 0 356 8v-340q-58 -12 -104 -38t-69.5 -56t-35.5 -55.5t-12 -43.5q0 -35 24 -57t66 -22q70 0 131 73
v-254q-65 -42 -136 -66t-171 -24q-122 0 -196 58t-74 159z" />
    <glyph glyph-name="eogonek" unicode="&#x119;" horiz-adv-x="1091" 
d="M1024 410h-600q71 -138 250 -138q125 0 231 56v-305q-96 -78 -140 -130.5t-44 -99.5q0 -35 23.5 -54.5t62.5 -19.5q60 0 123 52v-230q-49 -28 -79 -42t-86 -27t-122 -13q-106 0 -181 59.5t-75 153.5q0 164 229 312h-10q-151 0 -275 66t-194.5 180.5t-70.5 254.5
q0 213 139.5 361.5t343.5 148.5q137 0 247 -68.5t171 -185t61 -256.5q0 -43 -4 -75zM537 725q-44 0 -78.5 -35t-46.5 -88h241q-5 46 -34.5 84.5t-81.5 38.5z" />
    <glyph glyph-name="Ecaron" unicode="&#x11a;" horiz-adv-x="1159" 
d="M659 1073h-108v-190h82q228 0 354 8v-346q-126 8 -354 8h-82v-221h125q234 0 356 8v-348q-122 8 -356 8h-535q9 254 9 367v671q0 228 -9 365h518q168 0 357 12v-350q-84 8 -357 8zM586 1739l71 73h342l-381 -329h-79l-373 329h352z" />
    <glyph glyph-name="ecaron" unicode="&#x11b;" horiz-adv-x="1091" 
d="M1024 410h-600q71 -138 250 -138q125 0 231 56v-305q-23 0 -120 -19.5t-179 -19.5q-151 0 -275 66t-194.5 180.5t-70.5 254.5q0 213 139.5 361.5t343.5 148.5q137 0 247 -68.5t171 -185t61 -256.5q0 -43 -4 -75zM537 725q-44 0 -78.5 -35t-46.5 -88h241q-5 46 -34.5 84.5
t-81.5 38.5zM555 1343l70 103h278l-311 -377h-80l-319 377h292z" />
    <glyph glyph-name="Gcircumflex" unicode="&#x11c;" horiz-adv-x="1415" 
d="M1260 367v-328q-44 -6 -102 -23.5t-129 -30t-173 -12.5q-172 0 -317 57.5t-243.5 156t-153 231.5t-54.5 284q0 150 53.5 283t150 232.5t240.5 157t316 57.5q110 0 230.5 -20t127.5 -21v-435q-131 134 -342 134q-167 0 -271 -111t-104 -277q0 -162 108.5 -275.5
t260.5 -113.5q19 0 25 4v66q0 133 -9 270h394q-8 -81 -8 -286zM838 1581l-72 -74h-342l381 330h80l372 -330h-352z" />
    <glyph glyph-name="gcircumflex" unicode="&#x11d;" horiz-adv-x="1150" 
d="M819 977h303q0 -63 -33 -122t-85 -85q38 -56 38 -156q0 -154 -135 -265t-332 -111q-23 0 -63 2t-47 2q-43 0 -43 -41q0 -39 65 -39q8 0 33.5 1t38.5 1q153 0 273.5 -38.5t196 -121.5t75.5 -201q0 -96 -75.5 -175t-200.5 -123t-271 -44q-140 0 -259.5 44.5t-188 119
t-68.5 160.5q0 148 117 217q-37 20 -61.5 59t-24.5 89q0 77 50.5 133.5t123.5 62.5q-137 105 -137 264q0 160 131.5 273.5t334.5 113.5q134 0 238 -51q6 12 6 31zM457 610q0 -43 34.5 -73.5t83.5 -30.5q46 0 79.5 30.5t33.5 73.5q0 44 -33.5 76.5t-79.5 32.5
q-49 0 -83.5 -32t-34.5 -77zM377 -207q0 -40 56 -69t134 -29q72 0 125 27t53 65q0 44 -62 72t-153 28q-62 0 -107.5 -27.5t-45.5 -66.5zM580 1196l-70 -102h-279l312 376h80l319 -376h-293z" />
    <glyph glyph-name="Gbreve" unicode="&#x11e;" horiz-adv-x="1415" 
d="M1260 367v-328q-44 -6 -102 -23.5t-129 -30t-173 -12.5q-172 0 -317 57.5t-243.5 156t-153 231.5t-54.5 284q0 150 53.5 283t150 232.5t240.5 157t316 57.5q110 0 230.5 -20t127.5 -21v-435q-131 134 -342 134q-167 0 -271 -111t-104 -277q0 -162 108.5 -275.5
t260.5 -113.5q19 0 25 4v66q0 133 -9 270h394q-8 -81 -8 -286zM727 1765q0 -33 27.5 -51t70.5 -18q42 0 70.5 18.5t28.5 50.5h245q0 -130 -98 -202t-246 -72t-246 72t-98 202h246z" />
    <glyph glyph-name="gbreve" unicode="&#x11f;" horiz-adv-x="1150" 
d="M819 977h303q0 -63 -33 -122t-85 -85q38 -56 38 -156q0 -154 -135 -265t-332 -111q-23 0 -63 2t-47 2q-43 0 -43 -41q0 -39 65 -39q8 0 33.5 1t38.5 1q153 0 273.5 -38.5t196 -121.5t75.5 -201q0 -96 -75.5 -175t-200.5 -123t-271 -44q-140 0 -259.5 44.5t-188 119
t-68.5 160.5q0 148 117 217q-37 20 -61.5 59t-24.5 89q0 77 50.5 133.5t123.5 62.5q-137 105 -137 264q0 160 131.5 273.5t334.5 113.5q134 0 238 -51q6 12 6 31zM457 610q0 -43 34.5 -73.5t83.5 -30.5q46 0 79.5 30.5t33.5 73.5q0 44 -33.5 76.5t-79.5 32.5
q-49 0 -83.5 -32t-34.5 -77zM377 -207q0 -40 56 -69t134 -29q72 0 125 27t53 65q0 44 -62 72t-153 28q-62 0 -107.5 -27.5t-45.5 -66.5zM500 1405q0 -38 24.5 -65t59.5 -27t60.5 27t25.5 65h248q0 -135 -98 -231.5t-236 -96.5t-235 96.5t-97 231.5h248z" />
    <glyph glyph-name="Gdotaccent" unicode="&#x120;" horiz-adv-x="1415" 
d="M1260 367v-328q-44 -6 -102 -23.5t-129 -30t-173 -12.5q-172 0 -317 57.5t-243.5 156t-153 231.5t-54.5 284q0 150 53.5 283t150 232.5t240.5 157t316 57.5q110 0 230.5 -20t127.5 -21v-435q-131 134 -342 134q-167 0 -271 -111t-104 -277q0 -162 108.5 -275.5
t260.5 -113.5q19 0 25 4v66q0 133 -9 270h394q-8 -81 -8 -286zM633 1690q0 88 61.5 149.5t149.5 61.5t148.5 -61.5t60.5 -149.5t-61 -150.5t-148 -62.5q-88 0 -149.5 62.5t-61.5 150.5z" />
    <glyph glyph-name="gdotaccent" unicode="&#x121;" horiz-adv-x="1150" 
d="M819 977h303q0 -63 -33 -122t-85 -85q38 -56 38 -156q0 -154 -135 -265t-332 -111q-23 0 -63 2t-47 2q-43 0 -43 -41q0 -39 65 -39q8 0 33.5 1t38.5 1q153 0 273.5 -38.5t196 -121.5t75.5 -201q0 -96 -75.5 -175t-200.5 -123t-271 -44q-140 0 -259.5 44.5t-188 119
t-68.5 160.5q0 148 117 217q-37 20 -61.5 59t-24.5 89q0 77 50.5 133.5t123.5 62.5q-137 105 -137 264q0 160 131.5 273.5t334.5 113.5q134 0 238 -51q6 12 6 31zM457 610q0 -43 34.5 -73.5t83.5 -30.5q46 0 79.5 30.5t33.5 73.5q0 44 -33.5 76.5t-79.5 32.5
q-49 0 -83.5 -32t-34.5 -77zM377 -207q0 -40 56 -69t134 -29q72 0 125 27t53 65q0 44 -62 72t-153 28q-62 0 -107.5 -27.5t-45.5 -66.5zM373 1278q0 86 60 145.5t145 59.5t142.5 -59.5t57.5 -145.5q0 -85 -58 -145t-142 -60q-85 0 -145 60t-60 145z" />
    <glyph glyph-name="Gcommaaccent" unicode="&#x122;" horiz-adv-x="1415" 
d="M1260 367v-328q-44 -6 -102 -23.5t-129 -30t-173 -12.5q-172 0 -317 57.5t-243.5 156t-153 231.5t-54.5 284q0 150 53.5 283t150 232.5t240.5 157t316 57.5q110 0 230.5 -20t127.5 -21v-435q-131 134 -342 134q-167 0 -271 -111t-104 -277q0 -162 108.5 -275.5
t260.5 -113.5q19 0 25 4v66q0 133 -9 270h394q-8 -81 -8 -286zM707 -254v203q168 0 265 -71.5t97 -188.5q0 -106 -76 -169t-209 -63q-85 0 -147 27v221q41 -41 98 -41q60 0 60 39q0 20 -25 31.5t-63 11.5z" />
    <glyph glyph-name="gcommaaccent" unicode="&#x123;" horiz-adv-x="1150" 
d="M819 977h303q0 -63 -33 -122t-85 -85q38 -56 38 -156q0 -154 -135 -265t-332 -111q-23 0 -63 2t-47 2q-43 0 -43 -41q0 -39 65 -39q8 0 33.5 1t38.5 1q153 0 273.5 -38.5t196 -121.5t75.5 -201q0 -96 -75.5 -175t-200.5 -123t-271 -44q-140 0 -259.5 44.5t-188 119
t-68.5 160.5q0 148 117 217q-37 20 -61.5 59t-24.5 89q0 77 50.5 133.5t123.5 62.5q-137 105 -137 264q0 160 131.5 273.5t334.5 113.5q134 0 238 -51q6 12 6 31zM457 610q0 -43 34.5 -73.5t83.5 -30.5q46 0 79.5 30.5t33.5 73.5q0 44 -33.5 76.5t-79.5 32.5
q-49 0 -83.5 -32t-34.5 -77zM377 -207q0 -40 56 -69t134 -29q72 0 125 27t53 65q0 44 -62 72t-153 28q-62 0 -107.5 -27.5t-45.5 -66.5zM684 1249v-202q-168 0 -265 71.5t-97 188.5q0 106 75.5 168.5t208.5 62.5q86 0 148 -27v-221q-41 41 -99 41q-59 0 -59 -39
q0 -20 25 -31.5t63 -11.5z" />
    <glyph glyph-name="Hcircumflex" unicode="&#x124;" horiz-adv-x="1566" 
d="M553 1036v-137h461v137q0 224 -10 367h419q-10 -225 -10 -367v-741q0 -153 10 -295h-419q10 95 10 297v270h-461v-272q0 -181 8 -295h-416q9 128 9 297v739q0 243 -9 367h416q-8 -110 -8 -367zM780 1581l-71 -74h-342l381 330h79l373 -330h-352z" />
    <glyph glyph-name="hcircumflex" unicode="&#x125;" horiz-adv-x="1226" 
d="M733 205v346q0 67 -29.5 104t-82.5 37q-117 0 -117 -149v-338q0 -126 10 -205h-399q8 84 8 205v1085h-107q15 33 41 106.5t33 106.5h424q-10 -79 -10 -203v-409q99 104 258 104q176 0 264 -121.5t88 -332.5v-336q0 -126 10 -205h-399q8 84 8 205zM293 1655l-72 -74h-342
l381 330h80l373 -330h-353z" />
    <glyph glyph-name="Hbar" unicode="&#x126;" horiz-adv-x="1634" 
d="M37 1235h139l-6 168h438l-6 -168h426l-6 168h440q-1 -14 -2.5 -46t-3 -63t-2.5 -59h139v-242h-141v-698q0 -153 10 -295h-440q8 114 8 297v195h-430v-197q0 -181 8 -295h-438q8 114 8 297v696h-141v242zM600 844h430v149h-430v-149z" />
    <glyph glyph-name="hbar" unicode="&#x127;" horiz-adv-x="1245" 
d="M750 205v297q0 67 -30 104t-83 37q-117 0 -117 -149v-289q0 -126 10 -205h-399q8 84 8 205v799h-112v221h112v65h-106q15 32 40.5 105.5t32.5 107.5h424q-10 -54 -10 -203v-75h287v-221h-287v-162q82 104 258 104t264 -121.5t88 -332.5v-287q0 -118 11 -205h-400
q9 94 9 205z" />
    <glyph glyph-name="Itilde" unicode="&#x128;" horiz-adv-x="706" 
d="M555 1036v-669q0 -241 8 -367h-416q9 142 9 367v669q0 230 -9 367h416q-8 -122 -8 -367zM141 1520h-247q0 141 84.5 230t234.5 89q62 0 110 -14.5t70.5 -31.5t49.5 -31.5t53 -14.5q71 0 71 74l250 2q0 -140 -84.5 -229t-236.5 -89q-59 0 -104.5 12.5t-68.5 27.5t-52 27.5
t-58 12.5q-37 0 -54.5 -17.5t-17.5 -47.5z" />
    <glyph glyph-name="itilde" unicode="&#x129;" horiz-adv-x="632" 
d="M510 772v-567q0 -127 8 -205h-393q4 86 4 205v557h-106q9 17 20.5 47t19 53.5t19.5 63t16 51.5h420q-8 -90 -8 -205zM176 1096h-229q2 129 74.5 218t183.5 89q47 0 84.5 -13t56.5 -28t40 -28t40 -13q24 0 36.5 19.5t12.5 48.5h215q0 -129 -68 -218.5t-173 -89.5
q-46 0 -83.5 13t-57 29t-41.5 29t-42 13q-49 0 -49 -69z" />
    <glyph glyph-name="Imacron" unicode="&#x12a;" horiz-adv-x="706" 
d="M555 1036v-669q0 -241 8 -367h-416q9 142 9 367v669q0 230 -9 367h416q-8 -122 -8 -367zM-18 1767h723v-239h-723v239z" />
    <glyph glyph-name="imacron" unicode="&#x12b;" horiz-adv-x="632" 
d="M510 772v-567q0 -127 8 -205h-393q4 86 4 205v557h-106q9 17 20.5 47t19 53.5t19.5 63t16 51.5h420q-8 -90 -8 -205zM-12 1395h659v-252h-659v252z" />
    <glyph glyph-name="Ibreve" unicode="&#x12c;" horiz-adv-x="706" 
d="M555 1036v-669q0 -241 8 -367h-416q9 142 9 367v669q0 230 -9 367h416q-8 -122 -8 -367zM250 1765q0 -33 27.5 -51t70.5 -18q42 0 70 18.5t28 50.5h246q0 -130 -98 -202t-246 -72t-246 72t-98 202h246z" />
    <glyph glyph-name="ibreve" unicode="&#x12d;" horiz-adv-x="632" 
d="M510 772v-567q0 -127 8 -205h-393q4 86 4 205v557h-106q9 17 20.5 47t19 53.5t19.5 63t16 51.5h420q-8 -90 -8 -205zM229 1405q0 -38 24.5 -65t59.5 -27t60.5 27t25.5 65h248q0 -135 -98 -231.5t-236 -96.5t-234.5 96.5t-96.5 231.5h247z" />
    <glyph glyph-name="Iogonek" unicode="&#x12e;" horiz-adv-x="706" 
d="M555 1036v-669q0 -241 8 -367q-72 0 -130 -19t-91 -48.5t-50.5 -62t-17.5 -63.5q0 -35 24.5 -57t66.5 -22q70 0 131 73v-254q-138 -90 -308 -90q-122 0 -196 58t-74 159q0 173 229 326q9 148 9 367v669q0 230 -9 367h416q-8 -122 -8 -367z" />
    <glyph glyph-name="iogonek" unicode="&#x12f;" horiz-adv-x="632" 
d="M510 772v-567q0 -127 8 -205q-132 -61 -192 -109.5t-60 -97.5q0 -35 23.5 -54.5t62.5 -19.5q60 0 123 52v-230q-49 -28 -79 -42t-86 -27t-122 -13q-107 0 -181.5 61.5t-74.5 162.5q0 91 38.5 156.5t152.5 160.5h-2q8 86 8 205v557h-106q20 36 42 100t33 115h420
q-8 -90 -8 -205zM117 1276q0 86 58.5 146.5t143.5 60.5t143 -60.5t58 -146.5q0 -85 -58.5 -145t-142.5 -60t-143 60t-59 145z" />
    <glyph glyph-name="Idotaccent" unicode="&#x130;" horiz-adv-x="706" 
d="M555 1036v-669q0 -241 8 -367h-416q9 142 9 367v669q0 230 -9 367h416q-8 -122 -8 -367zM139 1690q0 88 61.5 149.5t149.5 61.5t148.5 -61.5t60.5 -149.5t-61 -150.5t-148 -62.5q-88 0 -149.5 62.5t-61.5 150.5z" />
    <glyph glyph-name="dotlessi" unicode="&#x131;" horiz-adv-x="632" 
d="M510 772v-567q0 -127 8 -205h-393q4 86 4 205v557h-106q9 17 20.5 47t19 53.5t19.5 63t16 51.5h420q-8 -90 -8 -205z" />
    <glyph glyph-name="IJ" unicode="&#x132;" horiz-adv-x="1411" 
d="M555 1036v-669q0 -241 8 -367h-416q9 142 9 367v669q0 230 -9 367h416q-8 -122 -8 -367zM1260 1036v-1073q0 -155 -72 -277t-197.5 -188.5t-279.5 -66.5q-47 0 -124.5 12.5t-123.5 13.5v402q35 -47 93.5 -69.5t125.5 -22.5q77 0 126.5 62t49.5 155v1052q0 245 -8 367h418
q-8 -122 -8 -367z" />
    <glyph glyph-name="ij" unicode="&#x133;" horiz-adv-x="1265" 
d="M510 772v-567q0 -127 8 -205h-397q8 86 8 205v557h-106q20 36 42 100t33 115h420q-8 -90 -8 -205zM117 1276q0 86 58.5 146.5t143.5 60.5t143 -60.5t58 -146.5q0 -85 -58.5 -145t-142.5 -60t-143 60t-59 145zM1143 772v-743q0 -137 -34 -243.5t-92 -169t-127.5 -93.5
t-146.5 -31q-83 0 -156.5 9.5t-82.5 9.5v327q32 -26 108 -26q150 0 150 235v715h-107q48 112 76 215h418q-6 -73 -6 -205zM750 1278q0 85 59.5 145t144.5 60q83 0 141 -60t58 -145q0 -86 -58 -146.5t-141 -60.5q-85 0 -144.5 60.5t-59.5 146.5z" />
    <glyph glyph-name="Jcircumflex" unicode="&#x134;" horiz-adv-x="704" 
d="M553 1036v-1073q0 -155 -72 -277t-197.5 -188.5t-279.5 -66.5q-47 0 -124.5 12.5t-123.5 13.5v402q35 -47 93.5 -69.5t125.5 -22.5q77 0 127 62t50 155v1052q0 230 -9 367h418q-8 -122 -8 -367zM350 1581l-71 -74h-342l380 330h80l373 -330h-352z" />
    <glyph glyph-name="jcircumflex" unicode="&#x135;" horiz-adv-x="632" 
d="M510 772v-780q0 -137 -34 -243t-91.5 -168t-126.5 -93t-147 -31q-83 0 -157.5 9.5t-82.5 9.5v327q29 -26 109 -26q71 0 110 61.5t39 210.5v715h-106q42 94 75 213h418q-6 -73 -6 -205zM311 1196l-69 -102h-279l311 376h80l320 -376h-293z" />
    <glyph glyph-name="Kcommaaccent" unicode="&#x136;" horiz-adv-x="1515" 
d="M551 1036v-266l256 383q98 151 149 250h445q-76 -98 -182 -254l-279 -406l330 -444q61 -81 246 -299h-541q-51 100 -129 203l-295 407v-243q0 -241 8 -367h-418q9 142 9 367v669q0 230 -9 367h418q-8 -122 -8 -367zM621 -254v203q168 0 265 -71.5t97 -188.5
q0 -106 -76 -169t-209 -63q-85 0 -147 27v221q41 -41 98 -41q60 0 60 39q0 20 -25 31.5t-63 11.5z" />
    <glyph glyph-name="kcommaaccent" unicode="&#x137;" horiz-adv-x="1261" 
d="M504 1300v-708q199 299 241 385h390q-73 -93 -301 -436q134 -180 217 -286.5t114.5 -144t96.5 -110.5h-467q-19 32 -291 391v-186q0 -115 8 -205h-397q8 60 8 205v1085h-107q50 115 74 213h422q-8 -60 -8 -203zM512 -254v203q168 0 265 -71.5t97 -188.5
q0 -107 -75.5 -169.5t-208.5 -62.5q-86 0 -148 27v221q41 -41 99 -41q59 0 59 39q0 20 -25 31.5t-63 11.5z" />
    <glyph glyph-name="kgreenlandic" unicode="&#x138;" horiz-adv-x="1269" 
d="M129 264v500h-106q37 85 75 213h418q-6 -64 -6 -258v-125l143 219q62 94 140.5 139t203.5 45q103 0 168 -28q-61 -33 -186 -224l-139 -206l266 -344q146 -177 164 -195h-471q-21 52 -88 139l-201 254v-129q0 -200 6 -264h-395q8 86 8 264z" />
    <glyph glyph-name="Lacute" unicode="&#x139;" horiz-adv-x="1146" 
d="M551 1036v-698h174q271 0 365 6v-352q-126 8 -365 8h-584q9 254 9 367v669q0 230 -9 367h418q-8 -122 -8 -367zM129 1505l274 305h441l-367 -305h-348z" />
    <glyph glyph-name="lacute" unicode="&#x13a;" horiz-adv-x="626" 
d="M504 1239v-1034q0 -142 14 -205h-403q8 60 8 205v1024h-107q65 173 74 213h422q-8 -60 -8 -203zM119 1505l233 244h441l-326 -244h-348z" />
    <glyph glyph-name="Lcommaaccent" unicode="&#x13b;" horiz-adv-x="1146" 
d="M551 1036v-698h174q271 0 365 6v-352q-126 8 -365 8h-584q9 254 9 367v669q0 230 -9 367h418q-8 -122 -8 -367zM436 -254v203q168 0 265.5 -71.5t97.5 -188.5q0 -106 -76 -169t-209 -63q-85 0 -147 27v221q41 -41 98 -41q59 0 59 39q0 20 -25 31.5t-63 11.5z" />
    <glyph glyph-name="lcommaaccent" unicode="&#x13c;" horiz-adv-x="626" 
d="M504 1300v-1095q0 -145 8 -205h-397q8 60 8 205v1085h-107q51 109 74 213h422q-8 -60 -8 -203zM195 -254v203q168 0 265 -71.5t97 -188.5q0 -106 -76 -169t-209 -63q-85 0 -147 27v221q41 -41 98 -41q60 0 60 39q0 20 -25 31.5t-63 11.5z" />
    <glyph glyph-name="Lcaron" unicode="&#x13d;" horiz-adv-x="1146" 
d="M551 1036v-698h174q271 0 365 6v-352q-126 8 -365 8h-584q9 254 9 367v669q0 230 -9 367h418q-8 -122 -8 -367zM694 1044l23 406h323l-67 -406h-279z" />
    <glyph glyph-name="lcaron" unicode="&#x13e;" horiz-adv-x="626" 
d="M504 1300v-1095q0 -145 8 -205h-397q8 60 8 205v1085h-107q51 109 74 213h422q-8 -60 -8 -203zM598 1044l23 406h323l-67 -406h-279z" />
    <glyph glyph-name="Ldot" unicode="&#x13f;" horiz-adv-x="1146" 
d="M551 1036v-698h174q271 0 365 6v-352q-126 8 -365 8h-584q9 254 9 367v669q0 230 -9 367h418q-8 -122 -8 -367zM711 877q0 88 61.5 149t149.5 61t148 -61t60 -149t-60.5 -150.5t-147.5 -62.5q-88 0 -149.5 62.5t-61.5 150.5z" />
    <glyph glyph-name="ldot" unicode="&#x140;" horiz-adv-x="919" 
d="M635 801q0 72 40.5 121t102.5 49q61 0 101.5 -49.5t40.5 -120.5q0 -70 -40.5 -118t-101.5 -48q-62 0 -102.5 48t-40.5 118zM504 1300v-1095q0 -145 8 -205h-397q8 60 8 205v1085h-107q51 109 74 213h422q-8 -60 -8 -203z" />
    <glyph glyph-name="Lslash" unicode="&#x141;" horiz-adv-x="1236" 
d="M643 1036v-102l348 201v-336l-348 -199v-262h174q271 0 363 6v-352q-122 8 -363 8h-584q7 198 7 367v32l-166 -94l2 336l164 94v301q0 260 -7 367h416q-6 -91 -6 -367z" />
    <glyph glyph-name="lslash" unicode="&#x142;" horiz-adv-x="890" 
d="M627 1300v-354l188 109v-303l-188 -109v-438q0 -145 8 -205h-397q8 60 8 205v248l-170 -99v303l170 99v534h-107q47 100 76 213h420q-8 -60 -8 -203z" />
    <glyph glyph-name="Nacute" unicode="&#x143;" horiz-adv-x="1513" 
d="M532 295q0 -167 9 -295h-400q9 128 9 297v725q0 158 -9 408h84q138 -138 236 -220l520 -446v272q0 195 -8 367h399q-10 -225 -10 -367v-729q0 -183 10 -332h-80q-15 15 -50 51.5t-53 55.5t-46 45.5t-51 46.5l-560 479v-358zM547 1505l274 305h441l-367 -305h-348z" />
    <glyph glyph-name="nacute" unicode="&#x144;" horiz-adv-x="1230" 
d="M737 532q0 75 -28.5 118.5t-83.5 43.5q-115 0 -115 -159v-330q0 -129 8 -205h-395q6 86 6 205v557h-106q48 111 75 215h412v-100q43 57 112 87.5t148 30.5q348 0 348 -463v-327q0 -129 8 -205h-397q8 76 8 205v327zM449 1102l258 348h383l-318 -348h-323z" />
    <glyph glyph-name="Ncommaaccent" unicode="&#x145;" horiz-adv-x="1513" 
d="M532 295q0 -167 9 -295h-400q9 128 9 297v725q0 158 -9 408h84q138 -138 236 -220l520 -446v272q0 195 -8 367h399q-10 -225 -10 -367v-729q0 -183 10 -332h-80q-15 15 -50 51.5t-53 55.5t-46 45.5t-51 46.5l-560 479v-358zM713 -254v203q168 0 265 -71.5t97 -188.5
q0 -107 -75.5 -169.5t-208.5 -62.5q-86 0 -148 27v221q41 -41 98 -41q60 0 60 39q0 20 -25 31.5t-63 11.5z" />
    <glyph glyph-name="ncommaaccent" unicode="&#x146;" horiz-adv-x="1230" 
d="M737 532q0 75 -28.5 118.5t-83.5 43.5q-115 0 -115 -159v-330q0 -129 8 -205h-395q6 86 6 205v557h-106q48 111 75 215h412v-100q43 57 112 87.5t148 30.5q348 0 348 -463v-327q0 -129 8 -205h-397q8 76 8 205v327zM506 -254v203q168 0 265 -71.5t97 -188.5
q0 -107 -75.5 -169.5t-208.5 -62.5q-86 0 -148 27v221q41 -41 99 -41q59 0 59 39q0 20 -25 31.5t-63 11.5z" />
    <glyph glyph-name="Ncaron" unicode="&#x147;" horiz-adv-x="1513" 
d="M532 295q0 -167 9 -295h-400q9 128 9 297v725q0 158 -9 408h84q138 -138 236 -220l520 -446v272q0 195 -8 367h399q-10 -225 -10 -367v-729q0 -183 10 -332h-80q-15 15 -50 51.5t-53 55.5t-46 45.5t-51 46.5l-560 479v-358zM733 1739l72 73h342l-381 -329h-80l-373 329
h353z" />
    <glyph glyph-name="ncaron" unicode="&#x148;" horiz-adv-x="1230" 
d="M737 532q0 75 -28.5 118.5t-83.5 43.5q-115 0 -115 -159v-330q0 -129 8 -205h-395q6 86 6 205v557h-106q48 111 75 215h412v-100q43 57 112 87.5t148 30.5q348 0 348 -463v-327q0 -129 8 -205h-397q8 76 8 205v327zM635 1343l70 103h278l-311 -377h-80l-320 377h293z" />
    <glyph glyph-name="napostrophe" unicode="&#x149;" horiz-adv-x="1230" 
d="M737 532q0 75 -28.5 118.5t-83.5 43.5q-115 0 -115 -159v-330q0 -129 8 -205h-395q6 86 6 205v557h-106q48 111 75 215h412v-100q43 57 112 87.5t148 30.5q348 0 348 -463v-327q0 -129 8 -205h-397q8 76 8 205v327zM88 1083l23 406h323l-67 -406h-279z" />
    <glyph glyph-name="Eng" unicode="&#x14a;" horiz-adv-x="1513" 
d="M1362 1036v-1073q0 -236 -151 -384t-396 -148q-51 0 -118 12.5t-111 13.5v377q35 -47 93.5 -69.5t125.5 -22.5q78 0 127 61t49 156v309l-449 385v-358q0 -162 9 -295h-400q9 256 9 297v725q0 158 -9 408h82q11 -11 45.5 -44t63.5 -60.5t45 -41.5l604 -520v272
q0 245 -8 367h397q-8 -122 -8 -367z" />
    <glyph glyph-name="eng" unicode="&#x14b;" horiz-adv-x="1234" 
d="M739 541q0 71 -28 112t-84 41q-58 0 -86.5 -40.5t-28.5 -112.5v-336q0 -129 8 -205h-397q6 86 6 205v559h-106q48 101 75 213h414v-100q89 120 260 120q165 0 257.5 -110.5t92.5 -323.5v-532q0 -111 -22.5 -202t-61 -152t-90.5 -103t-109 -61t-118 -19q-83 0 -157.5 9.5
t-82.5 9.5v327q33 -26 109 -26q149 0 149 235v492z" />
    <glyph glyph-name="Omacron" unicode="&#x14c;" horiz-adv-x="1701" 
d="M86 702q0 148 58.5 282.5t159 232.5t243 155.5t303.5 57.5q162 0 305 -57.5t243.5 -155.5t159 -232t58.5 -283t-58.5 -283.5t-159 -232.5t-243.5 -155.5t-305 -57.5q-161 0 -303.5 57.5t-243 155.5t-159 232.5t-58.5 283.5zM489 702q0 -164 103.5 -277.5t257.5 -113.5
t258 113.5t104 277.5t-104 278t-258 114t-257.5 -114t-103.5 -278zM489 1767h723v-239h-723v239z" />
    <glyph glyph-name="omacron" unicode="&#x14d;" horiz-adv-x="1185" 
d="M66 489q0 138 70.5 255t191.5 185t264 68t264.5 -68t192.5 -185t71 -255q0 -137 -71 -253t-192.5 -183t-264.5 -67t-264 67t-191.5 183t-70.5 253zM426 489q0 -74 48 -125t118 -51q69 0 118.5 51.5t49.5 124.5q0 75 -49.5 127t-118.5 52q-70 0 -118 -52t-48 -127z
M262 1395h660v-252h-660v252z" />
    <glyph glyph-name="Obreve" unicode="&#x14e;" horiz-adv-x="1701" 
d="M86 702q0 148 58.5 282.5t159 232.5t243 155.5t303.5 57.5q162 0 305 -57.5t243.5 -155.5t159 -232t58.5 -283t-58.5 -283.5t-159 -232.5t-243.5 -155.5t-305 -57.5q-161 0 -303.5 57.5t-243 155.5t-159 232.5t-58.5 283.5zM489 702q0 -164 103.5 -277.5t257.5 -113.5
t258 113.5t104 277.5t-104 278t-258 114t-257.5 -114t-103.5 -278zM752 1765q0 -33 27.5 -51t70.5 -18q42 0 70 18.5t28 50.5h246q0 -130 -98 -202t-246 -72t-246 72t-98 202h246z" />
    <glyph glyph-name="obreve" unicode="&#x14f;" horiz-adv-x="1185" 
d="M66 489q0 138 70.5 255t191.5 185t264 68t264.5 -68t192.5 -185t71 -255q0 -137 -71 -253t-192.5 -183t-264.5 -67t-264 67t-191.5 183t-70.5 253zM426 489q0 -74 48 -125t118 -51q69 0 118.5 51.5t49.5 124.5q0 75 -49.5 127t-118.5 52q-70 0 -118 -52t-48 -127z
M506 1405q0 -38 24.5 -65t59.5 -27t60.5 27t25.5 65h248q0 -135 -98 -231.5t-236 -96.5t-235 96.5t-97 231.5h248z" />
    <glyph glyph-name="Ohungarumlaut" unicode="&#x150;" horiz-adv-x="1701" 
d="M86 702q0 148 58.5 282.5t159 232.5t243 155.5t303.5 57.5q162 0 305 -57.5t243.5 -155.5t159 -232t58.5 -283t-58.5 -283.5t-159 -232.5t-243.5 -155.5t-305 -57.5q-161 0 -303.5 57.5t-243 155.5t-159 232.5t-58.5 283.5zM489 702q0 -164 103.5 -277.5t257.5 -113.5
t258 113.5t104 277.5t-104 278t-258 114t-257.5 -114t-103.5 -278zM457 1505l196 326h342l-237 -326h-301zM911 1505l197 326h342l-238 -326h-301z" />
    <glyph glyph-name="ohungarumlaut" unicode="&#x151;" horiz-adv-x="1185" 
d="M66 489q0 138 70.5 255t191.5 185t264 68t264.5 -68t192.5 -185t71 -255q0 -137 -71 -253t-192.5 -183t-264.5 -67t-264 67t-191.5 183t-70.5 253zM426 489q0 -74 48 -125t118 -51q69 0 118.5 51.5t49.5 124.5q0 75 -49.5 127t-118.5 52q-70 0 -118 -52t-48 -127z
M221 1104l197 326h342l-238 -326h-301zM676 1104l196 326h342l-237 -326h-301z" />
    <glyph glyph-name="OE" unicode="&#x152;" horiz-adv-x="1943" 
d="M1446 1071h-109v-188h82q227 0 353 8v-346q-126 8 -353 8h-82v-221h125q233 0 355 8v-348q-122 8 -355 8h-575q-178 0 -328.5 53t-253.5 146.5t-161 223t-58 279.5t56 278.5t157.5 222.5t252 147t331.5 53h563q196 0 354 10v-350q-84 8 -354 8zM489 702
q0 -169 101.5 -269.5t277.5 -100.5h68l2 188v387l-2 164h-72q-171 0 -273 -98.5t-102 -270.5z" />
    <glyph glyph-name="oe" unicode="&#x153;" horiz-adv-x="1761" 
d="M1688 385h-568q66 -106 223 -106q127 0 232 49v-310q-28 -3 -85 -12.5t-107.5 -15.5t-96.5 -6q-126 0 -210.5 36.5t-147.5 112.5q-49 -66 -136.5 -107.5t-211.5 -41.5q-102 0 -196.5 39t-164.5 106t-111.5 161t-41.5 199q0 138 69 255t187.5 185t257.5 68
q129 0 205.5 -37t134.5 -104q50 69 135.5 105t191.5 36q127 0 231 -69.5t162 -185t58 -248.5q0 -67 -10 -109zM422 489q0 -73 48 -124.5t114 -51.5q72 0 123 51t51 123q0 75 -49.5 128t-118.5 53t-118.5 -52t-49.5 -127zM1214 727q-75 0 -108 -88h203q-23 88 -95 88z" />
    <glyph glyph-name="Racute" unicode="&#x154;" horiz-adv-x="1433" 
d="M553 496v-127q0 -264 10 -369h-420q11 116 11 369v667q0 255 -11 367h521q262 0 407.5 -128t145.5 -333q0 -293 -277 -385q61 -64 224.5 -262.5t269.5 -294.5h-519q-66 78 -170 237t-141 261q-8 -2 -18 -2h-33zM459 1505l274 305h441l-367 -305h-348zM553 1087v-307h98
q74 0 120 43t46 107q0 65 -45.5 111t-126.5 46h-92z" />
    <glyph glyph-name="racute" unicode="&#x155;" horiz-adv-x="903" 
d="M760 997q32 0 49 -4t25 -4v-397q-67 47 -142 47q-42 0 -74.5 -22t-50.5 -56.5t-26.5 -70.5t-8.5 -70v-215q0 -103 9 -205h-398q7 119 7 205v559h-107q54 119 76 213h373v-211q29 104 100 167.5t168 63.5zM311 1102l258 348h383l-317 -348h-324z" />
    <glyph glyph-name="Rcommaaccent" unicode="&#x156;" horiz-adv-x="1433" 
d="M553 496v-127q0 -264 10 -369h-420q11 116 11 369v667q0 255 -11 367h521q262 0 407.5 -128t145.5 -333q0 -293 -277 -385q61 -64 224.5 -262.5t269.5 -294.5h-519q-66 78 -170 237t-141 261q-8 -2 -18 -2h-33zM553 1087v-307h98q74 0 120 43t46 107q0 65 -45.5 111
t-126.5 46h-92zM584 -254v203q168 0 265 -71.5t97 -188.5q0 -107 -75.5 -169.5t-208.5 -62.5q-86 0 -148 27v221q41 -41 98 -41q60 0 60 39q0 20 -25 31.5t-63 11.5z" />
    <glyph glyph-name="rcommaaccent" unicode="&#x157;" horiz-adv-x="903" 
d="M760 997q32 0 49 -4t25 -4v-397q-67 47 -142 47q-42 0 -74.5 -22t-50.5 -56.5t-26.5 -70.5t-8.5 -70v-215q0 -103 9 -205h-398q7 119 7 205v559h-107q54 119 76 213h373v-211q29 104 100 167.5t168 63.5zM211 -254v203q168 0 265 -71.5t97 -188.5q0 -107 -75.5 -169.5
t-208.5 -62.5q-86 0 -148 27v221q41 -41 99 -41q59 0 59 39q0 20 -25 31.5t-63 11.5z" />
    <glyph glyph-name="Rcaron" unicode="&#x158;" horiz-adv-x="1433" 
d="M553 496v-127q0 -264 10 -369h-420q11 116 11 369v667q0 255 -11 367h521q262 0 407.5 -128t145.5 -333q0 -293 -277 -385q61 -64 224.5 -262.5t269.5 -294.5h-519q-66 78 -170 237t-141 261q-8 -2 -18 -2h-33zM686 1739l72 73h342l-381 -329h-80l-373 329h352zM553 1087
v-307h98q74 0 120 43t46 107q0 65 -45.5 111t-126.5 46h-92z" />
    <glyph glyph-name="rcaron" unicode="&#x159;" horiz-adv-x="903" 
d="M760 997q32 0 49 -4t25 -4v-397q-67 47 -142 47q-42 0 -74.5 -22t-50.5 -56.5t-26.5 -70.5t-8.5 -70v-215q0 -103 9 -205h-398q7 119 7 205v559h-107q54 119 76 213h373v-211q29 104 100 167.5t168 63.5zM479 1343l70 103h278l-311 -377h-80l-319 377h293z" />
    <glyph glyph-name="Sacute" unicode="&#x15a;" horiz-adv-x="1150" 
d="M590 1044q0 -31 24 -61t62 -58t84.5 -59.5t93 -73.5t84.5 -91t62 -119.5t24 -153.5q0 -139 -71.5 -245t-194 -161t-277.5 -55q-87 0 -205 16t-159 19v432q58 -68 166 -111.5t200 -43.5q55 0 85 25.5t30 66.5q0 34 -23 66.5t-60 60.5t-82 59t-90 71t-82 87t-60 116
t-23 150q0 211 136 332t382 121q59 0 147.5 -14.5t131.5 -16.5v-395q-47 58 -124.5 90t-152.5 32q-53 0 -80.5 -22.5t-27.5 -63.5zM446 1505l275 305h440l-366 -305h-349z" />
    <glyph glyph-name="sacute" unicode="&#x15b;" horiz-adv-x="919" 
d="M475 705q0 -14 20 -28.5t52.5 -29.5t71.5 -34t78.5 -46.5t72 -62t52.5 -86t20 -113.5q0 -149 -105 -239.5t-307 -90.5q-72 0 -196 28t-142 28v342q47 -48 154 -89.5t170 -41.5q51 0 51 37q0 17 -27 34t-67 33t-87.5 44t-87.5 61.5t-67 91.5t-27 129q0 158 109 241.5
t311 83.5q69 0 162.5 -19t108.5 -20v-315q-38 47 -121.5 74.5t-134.5 27.5q-33 0 -48.5 -12.5t-15.5 -27.5zM322 1102l258 348h383l-318 -348h-323z" />
    <glyph glyph-name="Scircumflex" unicode="&#x15c;" horiz-adv-x="1150" 
d="M590 1044q0 -31 24 -61t62 -58t84.5 -59.5t93 -73.5t84.5 -91t62 -119.5t24 -153.5q0 -139 -71.5 -245t-194 -161t-277.5 -55q-87 0 -205 16t-159 19v432q58 -68 166 -111.5t200 -43.5q55 0 85 25.5t30 66.5q0 34 -23 66.5t-60 60.5t-82 59t-90 71t-82 87t-60 116
t-23 150q0 211 136 332t382 121q59 0 147.5 -14.5t131.5 -16.5v-395q-47 58 -124.5 90t-152.5 32q-53 0 -80.5 -22.5t-27.5 -63.5zM631 1581l-72 -74h-342l381 330h80l373 -330h-353z" />
    <glyph glyph-name="scircumflex" unicode="&#x15d;" horiz-adv-x="919" 
d="M475 705q0 -14 20 -28.5t52.5 -29.5t71.5 -34t78.5 -46.5t72 -62t52.5 -86t20 -113.5q0 -149 -105 -239.5t-307 -90.5q-72 0 -196 28t-142 28v342q47 -48 154 -89.5t170 -41.5q51 0 51 37q0 17 -27 34t-67 33t-87.5 44t-87.5 61.5t-67 91.5t-27 129q0 158 109 241.5
t311 83.5q69 0 162.5 -19t108.5 -20v-315q-38 47 -121.5 74.5t-134.5 27.5q-33 0 -48.5 -12.5t-15.5 -27.5zM473 1196l-70 -102h-278l311 376h80l320 -376h-293z" />
    <glyph glyph-name="Scedilla" unicode="&#x15e;" horiz-adv-x="1150" 
d="M281 -262l116 231q-50 4 -139.5 17t-140.5 16v432q58 -68 166 -111.5t200 -43.5q55 0 85 25.5t30 66.5q0 34 -23 66.5t-60 60.5t-82 59t-90 71t-82 87t-60 116t-23 150q0 211 136 332t382 121q59 0 147.5 -14.5t131.5 -16.5v-395q-47 58 -124.5 90t-152.5 32
q-53 0 -80.5 -22.5t-27.5 -63.5q0 -31 24 -61t62 -58t84.5 -59.5t93 -73.5t84.5 -91t62 -119.5t24 -153.5q0 -187 -123 -308.5t-321 -146.5l-27 -49q86 -21 134 -75.5t48 -139.5q0 -114 -75.5 -182t-225.5 -68q-39 0 -98.5 13.5t-79.5 15.5v203q54 -51 141 -51q41 0 65.5 15
t24.5 40q0 63 -108 63q-59 0 -98 -20z" />
    <glyph glyph-name="scedilla" unicode="&#x15f;" horiz-adv-x="919" 
d="M246 -254l119 234q-57 7 -154 29t-119 22v342q47 -48 154 -89.5t170 -41.5q51 0 51 37q0 17 -27 34t-67 33t-87.5 44t-87.5 61.5t-67 91.5t-27 129q0 158 109 241.5t311 83.5q69 0 162.5 -19t108.5 -20v-315q-38 47 -121.5 74.5t-134.5 27.5q-33 0 -48.5 -12.5
t-15.5 -27.5q0 -14 20 -28.5t52.5 -29.5t71.5 -34t78.5 -46.5t72 -62t52.5 -86t20 -113.5q0 -127 -76.5 -212t-224.5 -109l-31 -58q82 -19 129 -72t47 -137q0 -110 -73.5 -175.5t-219.5 -65.5q-38 0 -96 13t-76 15v197q51 -51 137 -51q40 0 64 15t24 40q0 29 -27 45.5
t-79 16.5q-56 0 -94 -21z" />
    <glyph glyph-name="Scaron" unicode="&#x160;" horiz-adv-x="1150" 
d="M590 1044q0 -31 24 -61t62 -58t84.5 -59.5t93 -73.5t84.5 -91t62 -119.5t24 -153.5q0 -139 -71.5 -245t-194 -161t-277.5 -55q-87 0 -205 16t-159 19v432q58 -68 166 -111.5t200 -43.5q55 0 85 25.5t30 66.5q0 34 -23 66.5t-60 60.5t-82 59t-90 71t-82 87t-60 116
t-23 150q0 211 136 332t382 121q59 0 147.5 -14.5t131.5 -16.5v-395q-47 58 -124.5 90t-152.5 32q-53 0 -80.5 -22.5t-27.5 -63.5zM631 1739l71 73h342l-380 -329h-80l-373 329h352z" />
    <glyph glyph-name="scaron" unicode="&#x161;" horiz-adv-x="919" 
d="M475 705q0 -14 20 -28.5t52.5 -29.5t71.5 -34t78.5 -46.5t72 -62t52.5 -86t20 -113.5q0 -149 -105 -239.5t-307 -90.5q-72 0 -196 28t-142 28v342q47 -48 154 -89.5t170 -41.5q51 0 51 37q0 17 -27 34t-67 33t-87.5 44t-87.5 61.5t-67 91.5t-27 129q0 158 109 241.5
t311 83.5q69 0 162.5 -19t108.5 -20v-315q-38 47 -121.5 74.5t-134.5 27.5q-33 0 -48.5 -12.5t-15.5 -27.5zM500 1343l69 103h279l-311 -377h-80l-320 377h293z" />
    <glyph glyph-name="Tcommaaccent" unicode="&#x162;" horiz-adv-x="1361" 
d="M426 1403h506q251 0 373 8v-348q-152 10 -373 10h-47q-2 -76 -2 -262v-444q0 -262 10 -367h-424q10 158 10 367v444q0 148 -6 262h-47q-217 0 -369 -10v348q122 -8 369 -8zM561 -254v203q168 0 265.5 -71.5t97.5 -188.5q0 -106 -76 -169t-209 -63q-85 0 -147 27v221
q41 -41 98 -41q59 0 59 39q0 20 -25 31.5t-63 11.5z" />
    <glyph glyph-name="tcommaaccent" unicode="&#x163;" horiz-adv-x="897" 
d="M182 1245h391q-6 -74 -6 -186v-82h254v-313h-254v-197q0 -170 133 -170q73 0 93 20v-317q-17 0 -84 -8t-121 -8q-65 0 -123.5 15t-109.5 47.5t-88 79.5t-58 114t-21 149v275h-131v313h131v82q0 113 -6 186zM375 -254v203q168 0 265 -71.5t97 -188.5q0 -107 -75.5 -169.5
t-208.5 -62.5q-86 0 -148 27v221q41 -41 98 -41q60 0 60 39q0 20 -25 31.5t-63 11.5z" />
    <glyph glyph-name="Tcaron" unicode="&#x164;" horiz-adv-x="1361" 
d="M426 1403h506q251 0 373 8v-348q-152 10 -373 10h-47q-2 -76 -2 -262v-444q0 -262 10 -367h-424q10 158 10 367v444q0 148 -6 262h-47q-217 0 -369 -10v348q122 -8 369 -8zM686 1739l72 73h342l-381 -329h-80l-373 329h352z" />
    <glyph glyph-name="tcaron" unicode="&#x165;" horiz-adv-x="897" 
d="M182 1245h391q-6 -74 -6 -186v-82h254v-313h-254v-197q0 -170 133 -170q73 0 93 20v-317q-17 0 -84 -8t-121 -8q-65 0 -123.5 15t-109.5 47.5t-88 79.5t-58 114t-21 149v275h-131v313h131v82q0 113 -6 186zM670 1130l22 406h324l-68 -406h-278z" />
    <glyph glyph-name="Tbar" unicode="&#x166;" horiz-adv-x="1361" 
d="M426 1403h506q251 0 373 8v-348q-152 10 -373 10h-47q-2 -76 -2 -262v-16h233v-283h-233v-145q0 -262 10 -367h-424q10 158 10 367v145h-225v283h225v16q0 148 -6 262h-47q-217 0 -369 -10v348q122 -8 369 -8z" />
    <glyph glyph-name="tbar" unicode="&#x167;" horiz-adv-x="897" 
d="M182 1245h391q-6 -74 -6 -186v-82h254v-313h-254v-78h164v-156h-162q14 -133 131 -133q73 0 93 20v-317q-17 0 -84 -8t-121 -8q-65 0 -123.5 15t-109.5 47.5t-88 79.5t-58 114t-21 149v41h-104v156h104v78h-131v313h131v82q0 113 -6 186z" />
    <glyph glyph-name="Utilde" unicode="&#x168;" horiz-adv-x="1495" 
d="M139 1403h420q-10 -138 -10 -367v-481q0 -111 58 -171t141 -60q84 0 142 60t58 171v481q0 195 -8 367h416q-6 -135 -6 -367v-471q0 -180 -81.5 -315.5t-217 -204t-303.5 -68.5q-126 0 -235.5 39.5t-191 113t-128 186t-46.5 249.5v471q0 257 -8 367zM532 1520h-247
q0 141 84.5 230t234.5 89q62 0 110 -14.5t70.5 -31.5t49.5 -31.5t53 -14.5q71 0 71 74l250 2q0 -140 -84.5 -229t-236.5 -89q-59 0 -104.5 12.5t-68.5 27.5t-52 27.5t-58 12.5q-36 0 -54 -17.5t-18 -47.5z" />
    <glyph glyph-name="utilde" unicode="&#x169;" horiz-adv-x="1241" 
d="M504 446q0 -49 12.5 -83.5t32.5 -50.5t38 -22.5t36 -6.5q17 0 33 5.5t35.5 20.5t31.5 50t12 87v326q0 126 -8 205h397q-8 -79 -8 -205v-551q0 -154 33 -221h-371q-25 45 -28 113q-57 -75 -122 -103t-159 -28q-159 0 -252.5 107.5t-93.5 307.5v365h-107q42 89 74 215h424
q-10 -98 -10 -205v-326zM479 1096h-229q2 129 74.5 218t183.5 89q47 0 84.5 -13t56.5 -28t40 -28t40 -13q24 0 36.5 19.5t12.5 48.5h215q0 -129 -68 -218.5t-173 -89.5q-46 0 -83.5 13t-57 29t-41.5 29t-42 13q-49 0 -49 -69z" />
    <glyph glyph-name="Umacron" unicode="&#x16a;" horiz-adv-x="1495" 
d="M139 1403h420q-10 -138 -10 -367v-481q0 -111 58 -171t141 -60q84 0 142 60t58 171v481q0 195 -8 367h416q-6 -135 -6 -367v-471q0 -180 -81.5 -315.5t-217 -204t-303.5 -68.5q-126 0 -235.5 39.5t-191 113t-128 186t-46.5 249.5v471q0 257 -8 367zM385 1767h723v-239
h-723v239z" />
    <glyph glyph-name="umacron" unicode="&#x16b;" horiz-adv-x="1241" 
d="M504 446q0 -49 12.5 -83.5t32.5 -50.5t38 -22.5t36 -6.5q17 0 33 5.5t35.5 20.5t31.5 50t12 87v326q0 126 -8 205h397q-8 -79 -8 -205v-551q0 -154 33 -221h-371q-25 45 -28 113q-57 -75 -122 -103t-159 -28q-159 0 -252.5 107.5t-93.5 307.5v365h-107q42 89 74 215h424
q-10 -98 -10 -205v-326zM291 1395h659v-252h-659v252z" />
    <glyph glyph-name="Ubreve" unicode="&#x16c;" horiz-adv-x="1495" 
d="M139 1403h420q-10 -138 -10 -367v-481q0 -111 58 -171t141 -60q84 0 142 60t58 171v481q0 195 -8 367h416q-6 -135 -6 -367v-471q0 -180 -81.5 -315.5t-217 -204t-303.5 -68.5q-126 0 -235.5 39.5t-191 113t-128 186t-46.5 249.5v471q0 257 -8 367zM647 1765
q0 -33 27.5 -51t70.5 -18q42 0 70.5 18.5t28.5 50.5h246q0 -130 -98.5 -202t-246.5 -72t-246 72t-98 202h246z" />
    <glyph glyph-name="ubreve" unicode="&#x16d;" horiz-adv-x="1241" 
d="M504 446q0 -49 12.5 -83.5t32.5 -50.5t38 -22.5t36 -6.5q17 0 33 5.5t35.5 20.5t31.5 50t12 87v326q0 126 -8 205h397q-8 -79 -8 -205v-551q0 -154 33 -221h-371q-25 45 -28 113q-57 -75 -122 -103t-159 -28q-159 0 -252.5 107.5t-93.5 307.5v365h-107q42 89 74 215h424
q-10 -98 -10 -205v-326zM535 1405q0 -38 24 -65t59 -27t61 27t26 65h247q0 -135 -98 -231.5t-236 -96.5t-234.5 96.5t-96.5 231.5h248z" />
    <glyph glyph-name="Uring" unicode="&#x16e;" horiz-adv-x="1495" 
d="M139 1403h420q-10 -138 -10 -367v-481q0 -111 58 -171t141 -60q84 0 142 60t58 171v481q0 195 -8 367h416q-6 -135 -6 -367v-471q0 -180 -81.5 -315.5t-217 -204t-303.5 -68.5q-126 0 -235.5 39.5t-191 113t-128 186t-46.5 249.5v471q0 257 -8 367zM516 1722
q0 89 68.5 152t163.5 63q97 0 164 -63t67 -152t-67 -152t-164 -63q-95 0 -163.5 63t-68.5 152zM688 1722q0 -24 17.5 -40.5t42.5 -16.5t42 16t17 41t-17 42.5t-42 17.5t-42.5 -17.5t-17.5 -42.5z" />
    <glyph glyph-name="uring" unicode="&#x16f;" horiz-adv-x="1241" 
d="M504 446q0 -49 12.5 -83.5t32.5 -50.5t38 -22.5t36 -6.5q17 0 33 5.5t35.5 20.5t31.5 50t12 87v326q0 126 -8 205h397q-8 -79 -8 -205v-551q0 -154 33 -221h-371q-25 45 -28 113q-57 -75 -122 -103t-159 -28q-159 0 -252.5 107.5t-93.5 307.5v365h-107q42 89 74 215h424
q-10 -98 -10 -205v-326zM383 1278q0 91 69 155t166 64q100 0 170 -64t70 -155t-70.5 -156t-169.5 -65q-97 0 -166 65t-69 156zM563 1278q0 -23 16.5 -39t38.5 -16q25 0 41.5 16t16.5 39t-16.5 39t-41.5 16q-22 0 -38.5 -16t-16.5 -39z" />
    <glyph glyph-name="Uhungarumlaut" unicode="&#x170;" horiz-adv-x="1495" 
d="M139 1403h420q-10 -138 -10 -367v-481q0 -111 58 -171t141 -60q84 0 142 60t58 171v481q0 195 -8 367h416q-6 -135 -6 -367v-471q0 -180 -81.5 -315.5t-217 -204t-303.5 -68.5q-126 0 -235.5 39.5t-191 113t-128 186t-46.5 249.5v471q0 257 -8 367zM352 1505l197 326h342
l-238 -326h-301zM807 1505l197 326h342l-238 -326h-301z" />
    <glyph glyph-name="uhungarumlaut" unicode="&#x171;" horiz-adv-x="1241" 
d="M504 446q0 -49 12.5 -83.5t32.5 -50.5t38 -22.5t36 -6.5q17 0 33 5.5t35.5 20.5t31.5 50t12 87v326q0 126 -8 205h397q-8 -79 -8 -205v-551q0 -154 33 -221h-371q-25 45 -28 113q-57 -75 -122 -103t-159 -28q-159 0 -252.5 107.5t-93.5 307.5v365h-107q42 89 74 215h424
q-10 -98 -10 -205v-326zM236 1104l196 326h342l-237 -326h-301zM690 1104l197 326h342l-238 -326h-301z" />
    <glyph glyph-name="Uogonek" unicode="&#x172;" horiz-adv-x="1495" 
d="M494 -330q0 96 68 179.5t169 130.5h-6q-111 0 -215.5 43t-185 118t-129 187t-48.5 241v467q0 257 -8 367h420q-10 -138 -10 -367v-475q0 -110 58.5 -173.5t140.5 -63.5q83 0 141.5 63.5t58.5 173.5v475q0 195 -8 367h416q-6 -135 -6 -367v-467q0 -282 -236 -481
q-25 -21 -63 -50.5t-58.5 -46t-47.5 -39.5t-41 -38.5t-28.5 -34.5t-20 -36.5t-5.5 -35.5q0 -36 26 -58.5t64 -20.5q38 1 66.5 18t64.5 55v-258q-152 -84 -313 -84q-124 0 -194 59.5t-70 151.5z" />
    <glyph glyph-name="uogonek" unicode="&#x173;" horiz-adv-x="1241" 
d="M504 446q0 -49 12.5 -83.5t32.5 -50.5t38 -22.5t36 -6.5q17 0 33 5.5t35.5 20.5t31.5 50t12 87v326q0 126 -8 205h397q-8 -79 -8 -205v-551q0 -154 33 -221h-2q-130 -11 -203.5 -79t-73.5 -130q0 -35 23.5 -54.5t62.5 -19.5q60 0 123 52v-230q-50 -28 -79 -42t-85 -27
t-122 -13q-106 0 -181 59.5t-75 153.5q0 93 57.5 169.5t183.5 160.5q-25 45 -28 113q-57 -75 -122 -103t-159 -28q-159 0 -252.5 107.5t-93.5 307.5v365h-107q42 89 74 215h424q-10 -98 -10 -205v-326z" />
    <glyph glyph-name="Wcircumflex" unicode="&#x174;" horiz-adv-x="2254" 
d="M1098 1235l71 -125l41 82q72 145 97 211h376q-87 -145 -184 -320l-151 -274l104 -191l301 592q67 130 90 193h402q-16 -30 -61.5 -108t-76.5 -136l-647 -1177h-28l-279 487l-268 -487h-51l-627 1085q-159 271 -203 336h449q40 -99 100 -205l344 -606l82 162l-223 393
q-61 108 -162 256h416q45 -92 88 -168zM1163 1581l-71 -74h-342l380 330h80l373 -330h-352z" />
    <glyph glyph-name="wcircumflex" unicode="&#x175;" horiz-adv-x="1579" 
d="M881 977q14 -44 43 -98l137 -281l69 184q17 45 60 195h389q-56 -97 -149 -322l-189 -456q-23 -54 -80 -215h-112q-40 84 -80 157l-176 314l-170 -318q-35 -68 -72 -153h-119q-47 128 -108 268l-228 522q-57 132 -96 203h432q9 -50 39 -141l98 -258l146 305q27 55 37 94
h129zM801 1196l-70 -102h-278l311 376h80l319 -376h-293z" />
    <glyph glyph-name="Ycircumflex" unicode="&#x176;" horiz-adv-x="1445" 
d="M518 0q6 189 6 305v303l-338 533q-115 174 -186 262h483q38 -86 78 -154l178 -299l174 293q42 67 86 160h447q-57 -73 -209 -305l-313 -486v-307q0 -179 8 -305h-414zM735 1581l-71 -74h-342l380 330h80l373 -330h-352z" />
    <glyph glyph-name="ycircumflex" unicode="&#x177;" horiz-adv-x="1200" 
d="M598 -268q-80 -130 -180.5 -184t-249.5 -54q-52 0 -115 19q96 105 146 178q157 224 241 385l-334 698q-63 123 -106 203h442q13 -64 43 -133l150 -346q52 136 113 338q13 37 32 141h420q-22 -39 -54.5 -109.5t-45.5 -105.5q-210 -503 -295 -670q-90 -177 -207 -360z
M612 1196l-69 -102h-279l311 376h80l320 -376h-293z" />
    <glyph glyph-name="Ydieresis" unicode="&#x178;" horiz-adv-x="1445" 
d="M518 0q6 189 6 305v303l-338 533q-115 174 -186 262h483q38 -86 78 -154l178 -299l174 293q42 67 86 160h447q-57 -73 -209 -305l-313 -486v-307q0 -179 8 -305h-414zM272 1692q0 81 58.5 138.5t140.5 57.5q85 0 143 -57t58 -139q0 -80 -58.5 -136.5t-142.5 -56.5
q-82 0 -140.5 57t-58.5 136zM774 1692q0 81 59.5 138.5t143.5 57.5q82 0 139.5 -57t57.5 -139q0 -80 -57.5 -136.5t-139.5 -56.5q-83 0 -143 57t-60 136z" />
    <glyph glyph-name="Zacute" unicode="&#x179;" horiz-adv-x="1241" 
d="M1008 1094l-363 -762h174q216 0 338 8v-348q-122 8 -338 8h-768q60 105 158 311l352 762h-147q-254 0 -338 -8v346q126 -8 338 -8h745q-73 -142 -151 -309zM399 1505l275 305h440l-366 -305h-349z" />
    <glyph glyph-name="zacute" unicode="&#x17a;" horiz-adv-x="1054" 
d="M989 977l-364 -662h211q82 0 161 7v-328q-65 6 -163 6h-771l361 662h-172q-80 0 -162 -7v328q68 -6 166 -6h733zM371 1102l258 348h383l-318 -348h-323z" />
    <glyph glyph-name="Zdotaccent" unicode="&#x17b;" horiz-adv-x="1241" 
d="M1008 1094l-363 -762h174q216 0 338 8v-348q-122 8 -338 8h-768q60 105 158 311l352 762h-147q-254 0 -338 -8v346q126 -8 338 -8h745q-73 -142 -151 -309zM408 1690q0 88 61 149.5t149 61.5t148.5 -61.5t60.5 -149.5t-61 -150.5t-148 -62.5t-148.5 62.5t-61.5 150.5z
" />
    <glyph glyph-name="zdotaccent" unicode="&#x17c;" horiz-adv-x="1054" 
d="M989 977l-364 -662h211q82 0 161 7v-328q-65 6 -163 6h-771l361 662h-172q-80 0 -162 -7v328q68 -6 166 -6h733zM324 1278q0 86 59.5 145.5t144.5 59.5t143 -59.5t58 -145.5q0 -85 -58.5 -145t-142.5 -60q-85 0 -144.5 60t-59.5 145z" />
    <glyph glyph-name="Zcaron" unicode="&#x17d;" horiz-adv-x="1241" 
d="M1008 1094l-363 -762h174q216 0 338 8v-348q-122 8 -338 8h-768q60 105 158 311l352 762h-147q-254 0 -338 -8v346q126 -8 338 -8h745q-73 -142 -151 -309zM614 1739l72 73h342l-381 -329h-80l-372 329h352z" />
    <glyph glyph-name="zcaron" unicode="&#x17e;" horiz-adv-x="1054" 
d="M989 977l-364 -662h211q82 0 161 7v-328q-65 6 -163 6h-771l361 662h-172q-80 0 -162 -7v328q68 -6 166 -6h733zM543 1343l69 103h279l-311 -377h-80l-320 377h293z" />
    <glyph glyph-name="longs" unicode="&#x17f;" horiz-adv-x="737" 
d="M57 664v313h179v35q0 249 118.5 376.5t319.5 127.5q63 0 131.5 -9.5t114.5 -9.5v-340q-22 25 -66 38t-88 13q-152 0 -152 -213v-790q0 -111 4 -205h-387q5 118 5 205v459h-179z" />
    <glyph glyph-name="uni018F" unicode="&#x18f;" horiz-adv-x="1550" 
d="M94 821h953v4q0 42 -25 86.5t-71.5 83t-122 63.5t-166.5 25q-241 0 -416 -131v400q30 4 108 27t177.5 41t213.5 18q137 0 253 -36t200 -101.5t143 -155.5t88 -199t29 -231q0 -119 -32.5 -229.5t-94.5 -200.5t-147 -157.5t-195 -104.5t-233 -37q-151 0 -278 53t-213 145.5
t-133.5 219t-47.5 272.5q0 77 10 145zM774 340q104 0 173.5 46t76.5 128h-496q12 -85 74.5 -129.5t171.5 -44.5z" />
    <glyph glyph-name="florin" unicode="&#x192;" horiz-adv-x="1171" 
d="M113 807h204l9 51q46 265 171.5 403t352.5 138q71 0 131.5 -14.5t79.5 -16.5v-338q-58 53 -162 53q-86 0 -133 -58t-70 -196l-2 -22h219v-287h-256l-41 -272q-58 -366 -205.5 -528t-410.5 -162q-49 0 -118 17t-72 17l2 340q55 -55 178 -55q41 0 68.5 7t56.5 30t49.5 65.5
t40 113.5t35.5 175l41 252h-168v287z" />
    <glyph glyph-name="uni019F" unicode="&#x19f;" horiz-adv-x="1708" 
d="M86 702q0 148 58.5 282.5t159 232.5t243 155.5t303.5 57.5q162 0 305 -57.5t243.5 -155.5t159 -232t58.5 -283t-58.5 -283.5t-159 -232.5t-243.5 -155.5t-305 -57.5q-161 0 -303.5 57.5t-243 155.5t-159 232.5t-58.5 283.5zM850 311q130 0 227 84t125 215h-702
q28 -131 124 -215t226 -84zM850 1094q-124 0 -218 -76.5t-128 -198.5h692q-33 122 -127.5 198.5t-218.5 76.5z" />
    <glyph glyph-name="Ohorn" unicode="&#x1a0;" horiz-adv-x="1701" 
d="M489 702q0 -164 103.5 -277.5t257.5 -113.5t258 113.5t104 277.5t-104 278t-258 114t-257.5 -114t-103.5 -278zM1358 1552h348q8 -54 8 -127q0 -127 -63 -208.5t-166 -100.5q131 -180 131 -414q0 -149 -58.5 -283.5t-159 -232.5t-243.5 -155.5t-305 -57.5
q-161 0 -303.5 57.5t-243 155.5t-159 232.5t-58.5 283.5q0 148 58.5 282.5t159 232.5t243 155.5t303.5 57.5q99 0 186.5 -20t135 -43.5t88 -43.5t57.5 -20q69 0 69 71q0 84 -28 178z" />
    <glyph glyph-name="ohorn" unicode="&#x1a1;" horiz-adv-x="1167" 
d="M905 1128h320q0 -5 3 -29.5t3 -29.5q9 -130 -36.5 -217t-150.5 -117q31 -51 48.5 -117.5t17.5 -128.5q0 -137 -71 -253t-192.5 -183t-264.5 -67t-264 67t-191 183t-70 253q0 138 70 255t191 185t264 68q73 0 132 -14.5t89 -32.5t57.5 -32.5t44.5 -14.5q27 0 27 45
q0 94 -27 180zM416 489q0 -73 48.5 -124.5t117.5 -51.5t118.5 51.5t49.5 124.5q0 75 -49.5 127t-118.5 52t-117.5 -52t-48.5 -127z" />
    <glyph glyph-name="Uhorn" unicode="&#x1af;" horiz-adv-x="1495" 
d="M139 1403h420q-10 -138 -10 -367v-481q0 -111 58 -171t141 -60q84 0 142 60t58 171v481q0 195 -8 367h293q53 0 53 65q0 74 -31 160h353q12 -61 12 -135q0 -52 -14 -100t-43.5 -92.5t-84 -75t-128.5 -39.5v-621q0 -180 -81.5 -315.5t-217 -204t-303.5 -68.5
q-126 0 -235.5 39.5t-191 113t-128 186t-46.5 249.5v471q0 257 -8 367z" />
    <glyph glyph-name="uhorn" unicode="&#x1b0;" horiz-adv-x="1241" 
d="M1034 1184h318q10 -55 10 -88q4 -142 -60 -222t-186 -98v-555q0 -162 33 -221h-369q-23 41 -32 113q-54 -73 -119 -102t-164 -29q-155 0 -248.5 104.5t-93.5 304.5v373h-107q46 106 74 213h424q-10 -95 -10 -205v-326q0 -49 12.5 -83.5t32.5 -50.5t38 -22.5t36 -6.5
q17 0 33 5.5t35.5 20.5t31.5 50t12 87v326q0 129 -8 205h274q28 0 40.5 10t15.5 39q0 70 -23 158z" />
    <glyph glyph-name="uni01C4" unicode="&#x1c4;" horiz-adv-x="2740" 
d="M707 0h-566q11 116 11 367v669q0 255 -11 367h566q190 0 352.5 -94t257 -255.5t94.5 -351.5q0 -142 -56 -272.5t-150.5 -224.5t-224.5 -149.5t-273 -55.5zM2507 1094l-363 -762h174q216 0 338 8v-348q-122 8 -338 8h-768q60 105 158 311l352 762h-147q-254 0 -338 -8v346
q126 -8 338 -8h745q-73 -142 -151 -309zM553 1075v-747h121q140 0 239 110.5t99 263.5q0 152 -99.5 262.5t-240.5 110.5h-119zM2114 1739l71 73h342l-381 -329h-80l-372 329h352z" />
    <glyph glyph-name="uni01C5" unicode="&#x1c5;" horiz-adv-x="2553" 
d="M707 0h-566q11 116 11 367v669q0 255 -11 367h566q190 0 352.5 -94t257 -255.5t94.5 -351.5q0 -142 -56 -272.5t-150.5 -224.5t-224.5 -149.5t-273 -55.5zM553 1075v-747h121q140 0 239 110.5t99 263.5q0 152 -99.5 262.5t-240.5 110.5h-119zM2488 977l-364 -662h211
q83 0 162 7v-328q-65 6 -164 6h-770l360 662h-172q-80 0 -162 -7v328q68 -6 166 -6h733zM2042 1343l69 103h279l-311 -377h-80l-320 377h293z" />
    <glyph glyph-name="uni01C6" unicode="&#x1c6;" horiz-adv-x="2351" 
d="M1174 1274v-1069q0 -117 8 -205h-391q2 31 2 90q-55 -57 -122.5 -80.5t-160.5 -23.5q-129 0 -233 69t-160 182t-56 246q0 222 133 368t349 146q86 0 152.5 -20.5t97.5 -52.5v366h-107q16 32 40 102t34 111h422q-8 -101 -8 -229zM799 489q0 78 -53 134.5t-128 56.5
q-71 0 -120 -56t-49 -135t52.5 -134.5t127.5 -55.5q69 0 119.5 55.5t50.5 134.5zM2286 977l-365 -662h211q83 0 162 7v-328q-64 6 -164 6h-770l360 662h-172q-80 0 -162 -7v328q68 -6 166 -6h734zM1839 1343l70 103h278l-311 -377h-80l-319 377h292z" />
    <glyph glyph-name="uni01C7" unicode="&#x1c7;" horiz-adv-x="1851" 
d="M551 1036v-698h174q271 0 365 6v-352q-126 8 -365 8h-584q9 254 9 367v669q0 230 -9 367h418q-8 -122 -8 -367zM1700 1036v-1073q0 -155 -72 -277t-197.5 -188.5t-279.5 -66.5q-47 0 -124.5 12.5t-123.5 13.5v402q35 -47 93.5 -69.5t125.5 -22.5q77 0 126.5 62t49.5 155
v1052q0 245 -8 367h418q-8 -122 -8 -367z" />
    <glyph glyph-name="uni01C8" unicode="&#x1c8;" horiz-adv-x="1779" 
d="M551 1036v-698h174q271 0 365 6v-352q-126 8 -365 8h-584q9 254 9 367v669q0 230 -9 367h418q-8 -122 -8 -367zM1657 772v-743q0 -137 -34 -243.5t-92 -169t-127.5 -93.5t-146.5 -31q-83 0 -156.5 9.5t-82.5 9.5v327q32 -26 108 -26q150 0 150 235v715h-107
q48 112 76 215h418q-6 -73 -6 -205zM1264 1278q0 85 59.5 145t144.5 60q83 0 141 -60t58 -145q0 -86 -58 -146.5t-141 -60.5q-85 0 -144.5 60.5t-59.5 146.5z" />
    <glyph glyph-name="uni01C9" unicode="&#x1c9;" horiz-adv-x="1259" 
d="M504 1300v-1095q0 -145 8 -205h-397q8 60 8 205v1085h-107q51 109 74 213h422q-8 -60 -8 -203zM1137 772v-743q0 -137 -34 -243.5t-92 -169t-127.5 -93.5t-146.5 -31q-83 0 -156.5 9.5t-82.5 9.5v327q32 -26 108 -26q150 0 150 235v715h-107q48 112 76 215h418
q-6 -73 -6 -205zM743 1278q0 85 60 145t145 60q83 0 141 -60t58 -145q0 -86 -58 -146.5t-141 -60.5q-85 0 -145 60.5t-60 146.5z" />
    <glyph glyph-name="uni01CA" unicode="&#x1ca;" horiz-adv-x="2217" 
d="M532 295q0 -167 9 -295h-400q9 128 9 297v725q0 158 -9 408h84q138 -138 236 -220l520 -446v272q0 195 -8 367h399q-10 -225 -10 -367v-729q0 -183 10 -332h-80q-15 15 -50 51.5t-53 55.5t-46 45.5t-51 46.5l-560 479v-358zM2066 1036v-1073q0 -155 -72 -277t-197 -188.5
t-279 -66.5q-47 0 -124.5 12.5t-123.5 13.5v402q35 -47 93.5 -69.5t125.5 -22.5q77 0 126.5 62t49.5 155v1052q0 245 -8 367h418q-9 -137 -9 -367z" />
    <glyph glyph-name="uni01CB" unicode="&#x1cb;" horiz-adv-x="2146" 
d="M532 295q0 -167 9 -295h-400q9 128 9 297v725q0 158 -9 408h84q138 -138 236 -220l520 -446v272q0 195 -8 367h399q-10 -225 -10 -367v-729q0 -183 10 -332h-80q-15 15 -50 51.5t-53 55.5t-46 45.5t-51 46.5l-560 479v-358zM2023 772v-743q0 -137 -34 -243.5t-91.5 -169
t-127 -93.5t-146.5 -31q-83 0 -157 9.5t-83 9.5v327q32 -26 109 -26q149 0 149 235v715h-106q48 112 76 215h418q-7 -86 -7 -205zM1630 1278q0 85 60 145t145 60q83 0 141 -60t58 -145q0 -86 -58 -146.5t-141 -60.5q-85 0 -145 60.5t-60 146.5z" />
    <glyph glyph-name="uni01CC" unicode="&#x1cc;" horiz-adv-x="1863" 
d="M737 532q0 75 -28.5 118.5t-83.5 43.5q-115 0 -115 -159v-330q0 -129 8 -205h-395q6 86 6 205v557h-106q48 111 75 215h412v-100q43 57 112 87.5t148 30.5q348 0 348 -463v-327q0 -129 8 -205h-397q8 76 8 205v327zM1741 772v-743q0 -137 -34 -243.5t-92 -169
t-127.5 -93.5t-146.5 -31q-83 0 -156.5 9.5t-82.5 9.5v327q32 -26 108 -26q150 0 150 235v715h-107q48 112 76 215h418q-6 -73 -6 -205zM1348 1278q0 85 59.5 145t144.5 60q83 0 141 -60t58 -145q0 -86 -58 -146.5t-141 -60.5q-85 0 -144.5 60.5t-59.5 146.5z" />
    <glyph glyph-name="uni01F1" unicode="&#x1f1;" horiz-adv-x="2740" 
d="M707 0h-566q11 116 11 367v669q0 255 -11 367h566q190 0 352.5 -94t257 -255.5t94.5 -351.5q0 -142 -56 -272.5t-150.5 -224.5t-224.5 -149.5t-273 -55.5zM553 1075v-747h121q140 0 239 110.5t99 263.5q0 152 -99.5 262.5t-240.5 110.5h-119zM2507 1094l-363 -762h174
q216 0 338 8v-348q-122 8 -338 8h-768q60 105 158 311l352 762h-147q-254 0 -338 -8v346q126 -8 338 -8h745q-73 -142 -151 -309z" />
    <glyph glyph-name="uni01F2" unicode="&#x1f2;" horiz-adv-x="2553" 
d="M707 0h-566q11 116 11 367v669q0 255 -11 367h566q190 0 352.5 -94t257 -255.5t94.5 -351.5q0 -142 -56 -272.5t-150.5 -224.5t-224.5 -149.5t-273 -55.5zM553 1075v-747h121q140 0 239 110.5t99 263.5q0 152 -99.5 262.5t-240.5 110.5h-119zM2488 977l-364 -662h211
q83 0 162 7v-328q-65 6 -164 6h-770l360 662h-172q-80 0 -162 -7v328q68 -6 166 -6h733z" />
    <glyph glyph-name="uni01F3" unicode="&#x1f3;" horiz-adv-x="2351" 
d="M1174 1274v-1069q0 -117 8 -205h-391q2 31 2 90q-55 -57 -122.5 -80.5t-160.5 -23.5q-129 0 -233 69t-160 182t-56 246q0 222 133 368t349 146q86 0 152.5 -20.5t97.5 -52.5v366h-107q16 32 40 102t34 111h422q-8 -101 -8 -229zM799 489q0 78 -53 134.5t-128 56.5
q-71 0 -120 -56t-49 -135t52.5 -134.5t127.5 -55.5q69 0 119.5 55.5t50.5 134.5zM2286 977l-365 -662h211q83 0 162 7v-328q-64 6 -164 6h-770l360 662h-172q-80 0 -162 -7v328q68 -6 166 -6h734z" />
    <glyph glyph-name="Aringacute" unicode="&#x1fa;" horiz-adv-x="1527" 
d="M1528 0h-461q-6 19 -51 129l-41 94h-490l-63 -135q-28 -64 -31 -88h-391q97 165 166 311l502 1063q-74 19 -121 67t-47 109q0 77 74 132t178 55t178 -55t74 -132q0 -62 -49 -110.5t-126 -67.5l525 -1061q51 -108 174 -311zM571 1767l197 179h418l-248 -179h-367zM846 526
l-121 289l-117 -289h238zM700 1550q0 -19 15 -31t37 -12t37.5 12.5t15.5 30.5q0 19 -15.5 32t-37.5 13t-37 -13t-15 -32z" />
    <glyph glyph-name="aringacute" unicode="&#x1fb;" horiz-adv-x="1103" 
d="M401 725q-150 0 -249 -96v297q23 2 73 20.5t124 34.5t163 16q219 0 326.5 -118.5t107.5 -327.5v-213q0 -76 53 -76q39 0 56 10v-211q-49 -42 -102.5 -64t-133.5 -22q-78 0 -125.5 26t-81.5 75q-90 -101 -233 -101q-140 0 -225.5 84t-85.5 220q0 135 88 225t237 90
q56 0 107 -12t75 -27v39q0 64 -45.5 97.5t-128.5 33.5zM281 1198q0 73 69 124.5t166 51.5q100 0 170 -51.5t70 -124.5q0 -72 -70.5 -124t-169.5 -52q-97 0 -166 52t-69 124zM362 1401l197 178h375l-248 -178h-324zM428 291q0 -32 23 -54t55 -22t55 22t23 54q0 29 -23 50
t-55 21t-55 -21t-23 -50zM461 1198q0 -18 16.5 -30.5t38.5 -12.5q25 0 41 12t16 31t-16 32t-41 13q-22 0 -38.5 -13t-16.5 -32z" />
    <glyph glyph-name="AEacute" unicode="&#x1fc;" horiz-adv-x="1841" 
d="M1454 0h-489q-4 31 -19 109l-24 90h-398l-49 -99q-24 -51 -41 -100h-434q73 109 170 311l600 1092h498q144 0 334 10v-348q-81 8 -267 8h-225l61 -211h175q194 0 288 6v-342q-80 6 -229 6h-162l57 -200h144q175 0 289 8l2 -346q-83 6 -281 6zM928 1505l274 305h440
l-366 -305h-348zM786 797l-120 -269h188z" />
    <glyph glyph-name="aeacute" unicode="&#x1fd;" horiz-adv-x="1579" 
d="M154 631v295q20 0 71.5 18t120.5 35.5t129 17.5q99 0 179 -30t122 -93q53 56 120 88.5t171 32.5q195 0 312.5 -149.5t117.5 -386.5q0 -31 -6 -49h-578q56 -138 226 -138q140 0 241 58v-314q-40 -2 -121.5 -17t-158.5 -15q-223 0 -387 155q-42 -53 -79.5 -85.5t-99 -55.5
t-139.5 -23q-151 0 -237 86t-86 218t87 223.5t236 91.5q110 0 187 -41v35q0 63 -48 100t-139 37q-127 0 -241 -94zM1024 725q-43 0 -75.5 -31.5t-45.5 -91.5h234q-3 55 -33 89t-80 34zM434 291q0 -32 22 -54t56 -22q31 0 53.5 22t22.5 54q0 29 -22.5 50t-53.5 21
q-33 0 -55.5 -20.5t-22.5 -50.5zM672 1102l258 348h383l-318 -348h-323z" />
    <glyph glyph-name="Oslashacute" unicode="&#x1fe;" horiz-adv-x="1701" 
d="M86 702q0 148 58.5 282.5t159 232.5t243 155.5t303.5 57.5q208 0 383 -93l55 66h314l-181 -213q93 -98 144 -223.5t51 -264.5q0 -149 -58.5 -283.5t-159 -232.5t-243.5 -155.5t-305 -57.5q-206 0 -381 93l-55 -66h-312l179 209q-195 208 -195 493zM489 702
q0 -105 46 -192l464 551q-74 33 -149 33q-154 0 -257.5 -114t-103.5 -278zM1212 702q0 101 -43 189l-464 -549q67 -31 145 -31q154 0 258 113.5t104 277.5zM627 1505l274 305h440l-366 -305h-348z" />
    <glyph glyph-name="oslashacute" unicode="&#x1ff;" horiz-adv-x="1183" 
d="M66 489q0 138 70 255t191 185t263 68q166 0 309 -96l70 76h147l-135 -148q137 -143 137 -340q0 -137 -70.5 -253t-192 -183t-265.5 -67q-165 0 -301 90l-70 -76h-151l137 147q-139 145 -139 342zM426 489q0 -43 18 -81l222 239q-40 21 -76 21q-69 0 -116.5 -52
t-47.5 -127zM758 489q0 39 -17 78l-221 -239q30 -15 70 -15q69 0 118.5 51.5t49.5 124.5zM479 1102l258 348h383l-317 -348h-324z" />
    <glyph glyph-name="Scommaaccent" unicode="&#x218;" horiz-adv-x="1150" 
d="M590 1044q0 -31 24 -61t62 -58t84.5 -59.5t93 -73.5t84.5 -91t62 -119.5t24 -153.5q0 -139 -71.5 -245t-194 -161t-277.5 -55q-87 0 -205 16t-159 19v432q58 -68 166 -111.5t200 -43.5q55 0 85 25.5t30 66.5q0 34 -23 66.5t-60 60.5t-82 59t-90 71t-82 87t-60 116
t-23 150q0 211 136 332t382 121q59 0 147.5 -14.5t131.5 -16.5v-395q-47 58 -124.5 90t-152.5 32q-53 0 -80.5 -22.5t-27.5 -63.5zM446 -254v203q168 0 265.5 -71.5t97.5 -188.5q0 -106 -76 -169t-209 -63q-85 0 -147 27v221q41 -41 98 -41q60 0 60 39q0 20 -25.5 31.5
t-63.5 11.5z" />
    <glyph glyph-name="scommaaccent" unicode="&#x219;" horiz-adv-x="919" 
d="M475 705q0 -14 20 -28.5t52.5 -29.5t71.5 -34t78.5 -46.5t72 -62t52.5 -86t20 -113.5q0 -149 -105 -239.5t-307 -90.5q-72 0 -196 28t-142 28v342q47 -48 154 -89.5t170 -41.5q51 0 51 37q0 17 -27 34t-67 33t-87.5 44t-87.5 61.5t-67 91.5t-27 129q0 158 109 241.5
t311 83.5q69 0 162.5 -19t108.5 -20v-315q-38 47 -121.5 74.5t-134.5 27.5q-33 0 -48.5 -12.5t-15.5 -27.5zM324 -254v203q168 0 265 -71.5t97 -188.5q0 -106 -76 -169t-209 -63q-85 0 -147 27v221q41 -41 98 -41q60 0 60 39q0 20 -25 31.5t-63 11.5z" />
    <glyph glyph-name="uni021A" unicode="&#x21a;" horiz-adv-x="1361" 
d="M426 1403h506q251 0 373 8v-348q-152 10 -373 10h-47q-2 -76 -2 -262v-444q0 -262 10 -367h-424q10 158 10 367v444q0 148 -6 262h-47q-217 0 -369 -10v348q122 -8 369 -8zM561 -254v203q168 0 265.5 -71.5t97.5 -188.5q0 -106 -76 -169t-209 -63q-85 0 -147 27v221
q41 -41 98 -41q59 0 59 39q0 20 -25 31.5t-63 11.5z" />
    <glyph glyph-name="uni021B" unicode="&#x21b;" horiz-adv-x="897" 
d="M182 1245h391q-6 -74 -6 -186v-82h254v-313h-254v-197q0 -170 133 -170q73 0 93 20v-317q-17 0 -84 -8t-121 -8q-65 0 -123.5 15t-109.5 47.5t-88 79.5t-58 114t-21 149v275h-131v313h131v82q0 113 -6 186zM375 -254v203q168 0 265 -71.5t97 -188.5q0 -107 -75.5 -169.5
t-208.5 -62.5q-86 0 -148 27v221q41 -41 98 -41q60 0 60 39q0 20 -25 31.5t-63 11.5z" />
    <glyph glyph-name="uni021C" unicode="&#x21c;" horiz-adv-x="1173" 
d="M434 477q-82 0 -133 -10v342q54 -4 109 -4q79 0 131.5 39.5t52.5 105.5q0 57 -46 94t-114 37q-181 0 -270 -82v371q31 6 76 17t72 16.5t70.5 10.5t92.5 5q250 0 379 -112t129 -303q0 -113 -61 -203t-146 -121q51 -14 101 -45.5t95.5 -80.5t74 -122.5t28.5 -159.5
q0 -99 -36.5 -185t-102.5 -150t-153 -115t-192.5 -84.5t-215.5 -54t-228 -27.5v358h3q146 1 263.5 33.5t188 95.5t70.5 148q0 50 -22.5 87.5t-59.5 58t-76.5 30.5t-79.5 10z" />
    <glyph glyph-name="uni021D" unicode="&#x21d;" horiz-adv-x="976" 
d="M336 147q-62 0 -94 -18v307q102 15 156.5 55.5t54.5 98.5q0 37 -31 63.5t-78 26.5q-123 0 -211 -76v350q14 4 44.5 13t50 14t55 9.5t75.5 4.5q212 0 334.5 -104.5t122.5 -278.5q0 -87 -52.5 -167.5t-117.5 -104.5q77 -29 139 -112.5t62 -215.5q0 -432 -752 -553v328h2
q95 -6 183 19.5t146 80t58 125.5q0 66 -40.5 100.5t-106.5 34.5z" />
    <glyph glyph-name="uni0232" unicode="&#x232;" horiz-adv-x="1445" 
d="M518 0q6 189 6 305v303l-338 533q-115 174 -186 262h483q38 -86 78 -154l178 -299l174 293q42 67 86 160h447q-57 -73 -209 -305l-313 -486v-307q0 -179 8 -305h-414zM379 1767h723v-239h-723v239z" />
    <glyph glyph-name="uni0233" unicode="&#x233;" horiz-adv-x="1200" 
d="M598 -268q-80 -130 -180.5 -184t-249.5 -54q-52 0 -115 19q96 105 146 178q157 224 241 385l-334 698q-63 123 -106 203h442q13 -64 43 -133l150 -346q52 136 113 338q13 37 32 141h420q-22 -39 -54.5 -109.5t-45.5 -105.5q-210 -503 -295 -670q-90 -177 -207 -360z
M289 1395h659v-252h-659v252z" />
    <glyph glyph-name="uni0237" unicode="&#x237;" horiz-adv-x="632" 
d="M510 772v-780q0 -137 -34 -243t-91.5 -168t-126.5 -93t-147 -31q-83 0 -157.5 9.5t-82.5 9.5v327q29 -26 109 -26q71 0 110 61.5t39 210.5v715h-106q42 94 75 213h418q-6 -73 -6 -205z" />
    <glyph glyph-name="uni0259" unicode="&#x259;" horiz-adv-x="1126" 
d="M104 561h590q-18 63 -79 103.5t-148 40.5q-156 0 -258 -54v301q23 0 132 22.5t191 22.5q238 0 383.5 -140.5t145.5 -364.5q0 -136 -63.5 -252t-176 -184t-246.5 -68q-212 0 -345.5 139.5t-133.5 359.5q0 53 8 74zM586 256q48 0 80 30t36 83h-225q3 -47 32 -80t77 -33z
" />
    <glyph glyph-name="uni0275" unicode="&#x275;" horiz-adv-x="1183" 
d="M66 489q0 138 70 255t190.5 185t263.5 68t264.5 -68t192.5 -185t71 -255q0 -137 -71 -253t-192.5 -183t-264.5 -67q-218 0 -371 147t-153 356zM590 287q57 0 102 30t68 84h-336q20 -54 64.5 -84t101.5 -30zM590 694q-57 0 -100.5 -29t-65.5 -83h334q-21 53 -66.5 82.5
t-101.5 29.5z" />
    <glyph glyph-name="uni02BB" unicode="&#x2bb;" horiz-adv-x="786" 
d="M555 807h-352q0 214 36 385t95 258h299q-78 -198 -78 -643z" />
    <glyph glyph-name="uni02BC" unicode="&#x2bc;" horiz-adv-x="649" 
d="M180 1587h373q0 -467 -174 -753h-299q48 122 74 291.5t26 461.5z" />
    <glyph glyph-name="circumflex" unicode="&#x2c6;" horiz-adv-x="946" 
d="M467 1196l-70 -102h-278l311 376h80l319 -376h-292z" />
    <glyph glyph-name="caron" unicode="&#x2c7;" horiz-adv-x="946" 
d="M481 1343l70 103h278l-311 -377h-80l-319 377h293z" />
    <glyph glyph-name="uni02C9" unicode="&#x2c9;" horiz-adv-x="946" 
d="M143 1395h660v-252h-660v252z" />
    <glyph glyph-name="breve" unicode="&#x2d8;" horiz-adv-x="946" 
d="M387 1405q0 -38 24.5 -65t59.5 -27t60.5 27t25.5 65h248q0 -135 -98 -231.5t-236 -96.5t-235 96.5t-97 231.5h248z" />
    <glyph glyph-name="dotaccent" unicode="&#x2d9;" horiz-adv-x="946" 
d="M270 1278q0 86 60 145.5t145 59.5t143 -59.5t58 -145.5q0 -85 -58.5 -145t-142.5 -60q-85 0 -145 60t-60 145z" />
    <glyph glyph-name="ring" unicode="&#x2da;" horiz-adv-x="946" 
d="M236 1278q0 91 69 155t166 64q100 0 170 -64t70 -155t-70.5 -156t-169.5 -65q-97 0 -166 65t-69 156zM416 1278q0 -23 16.5 -39t38.5 -16q25 0 41 16t16 39t-16 39t-41 16q-22 0 -38.5 -16t-16.5 -39z" />
    <glyph glyph-name="ogonek" unicode="&#x2db;" horiz-adv-x="946" 
d="M127 -328q0 94 60.5 172t191.5 162h244q-91 -76 -126.5 -121t-35.5 -92q0 -35 23.5 -54.5t62.5 -19.5q60 0 123 52v-230q-49 -28 -79 -42t-86 -27t-122 -13q-106 0 -181 59.5t-75 153.5z" />
    <glyph glyph-name="tilde" unicode="&#x2dc;" horiz-adv-x="946" 
d="M332 1096h-230q2 129 74.5 218t183.5 89q47 0 84.5 -13t56.5 -28t40.5 -28t40.5 -13q24 0 36.5 19.5t12.5 48.5h215q0 -128 -68.5 -218t-173.5 -90q-46 0 -83.5 13t-56.5 29t-41 29t-42 13q-49 0 -49 -69z" />
    <glyph glyph-name="hungarumlaut" unicode="&#x2dd;" horiz-adv-x="946" 
d="M70 1104l196 326h342l-237 -326h-301zM524 1104l197 326h342l-238 -326h-301z" />
    <glyph glyph-name="uni0302" unicode="&#x302;" horiz-adv-x="0" 
d="M-2 1196l-70 -102h-278l311 376h80l319 -376h-292z" />
    <glyph glyph-name="tildecomb" unicode="&#x303;" horiz-adv-x="0" 
d="M-141 1096h-230q2 129 74.5 218t183.5 89q47 0 84.5 -13t56.5 -28t40.5 -28t40.5 -13q24 0 36.5 19.5t12.5 48.5h215q0 -128 -68.5 -218t-173.5 -90q-46 0 -83.5 13t-56.5 29t-41 29t-42 13q-49 0 -49 -69z" />
    <glyph glyph-name="uni0374" unicode="&#x374;" horiz-adv-x="606" 
d="M33 676l258 522h383l-318 -522h-323z" />
    <glyph glyph-name="uni0375" unicode="&#x375;" horiz-adv-x="606" 
d="M33 -223l258 522h383l-318 -522h-323z" />
    <glyph glyph-name="uni037A" unicode="&#x37a;" horiz-adv-x="946" 
d="M303 -262q0 53 9 103t18 71h282q-10 -45 -10 -92q0 -119 84 -119q13 0 29 4v-190q-1 -1 -12 -5t-16.5 -5.5t-18 -5.5t-23.5 -6t-26.5 -4.5t-33.5 -3.5t-38 -1q-120 0 -182 71t-62 183z" />
    <glyph glyph-name="uni037E" unicode="&#x37e;" horiz-adv-x="739" 
d="M143 752q0 94 65.5 160.5t158.5 66.5q92 0 157.5 -66.5t65.5 -160.5q0 -95 -65.5 -162.5t-157.5 -67.5q-94 0 -159 67.5t-65 162.5zM180 383h373q0 -451 -162 -717h-301q46 115 68 276.5t22 440.5z" />
    <glyph glyph-name="tonos" unicode="&#x384;" horiz-adv-x="903" 
d="M242 1104l258 326h374l-309 -326h-323z" />
    <glyph glyph-name="dieresistonos" unicode="&#x385;" horiz-adv-x="1306" 
d="M430 1083l172 387h334l-223 -387h-283zM905 1253q0 69 50.5 116.5t121.5 47.5q69 0 118.5 -47.5t49.5 -116.5q0 -66 -49.5 -112.5t-118.5 -46.5q-71 0 -121.5 46.5t-50.5 112.5zM92 1253q0 69 49.5 116.5t118.5 47.5q71 0 120.5 -47.5t49.5 -116.5q0 -66 -49.5 -112.5
t-120.5 -46.5q-69 0 -118.5 46.5t-49.5 112.5z" />
    <glyph glyph-name="Alphatonos" unicode="&#x386;" horiz-adv-x="1527" 
d="M1528 0h-461q-6 19 -51 129l-41 94h-490l-63 -135q-28 -64 -31 -88h-391q97 165 166 311l528 1116h109l551 -1116q51 -108 174 -311zM-49 963l131 483h334l-176 -483h-289zM846 526l-121 289l-117 -289h238z" />
    <glyph glyph-name="anoteleia" unicode="&#x387;" horiz-adv-x="671" 
d="M96 649q0 100 70.5 172t169.5 72q98 0 168.5 -72t70.5 -172q0 -103 -70.5 -175.5t-168.5 -72.5q-100 0 -170 72.5t-70 175.5z" />
    <glyph glyph-name="Epsilontonos" unicode="&#x388;" horiz-adv-x="1501" 
d="M1001 1073h-108v-190h82q228 0 354 8v-346q-126 8 -354 8h-82v-221h125q234 0 356 8v-348q-122 8 -356 8h-535q9 254 9 367v671q0 228 -9 365h518q168 0 357 12v-350q-84 8 -357 8zM-90 963l131 483h334l-176 -483h-289z" />
    <glyph glyph-name="Etatonos" unicode="&#x389;" horiz-adv-x="1906" 
d="M895 1036v-137h461v137q0 224 -10 367h419q-10 -225 -10 -367v-741q0 -153 10 -295h-419q10 95 10 297v270h-461v-272q0 -181 8 -295h-416q9 128 9 297v739q0 243 -9 367h416q-8 -110 -8 -367zM-90 963l131 483h334l-176 -483h-289z" />
    <glyph glyph-name="Iotatonos" unicode="&#x38a;" horiz-adv-x="1052" 
d="M897 1036v-669q0 -241 8 -367h-416q9 142 9 367v669q0 230 -9 367h416q-8 -122 -8 -367zM-90 963l131 483h334l-176 -483h-289z" />
    <glyph glyph-name="Omicrontonos" unicode="&#x38c;" horiz-adv-x="1892" 
d="M276 702q0 148 58.5 282.5t159 232.5t243 155.5t303.5 57.5q162 0 305 -57.5t243.5 -155.5t159 -232t58.5 -283t-58.5 -283.5t-159 -232.5t-243.5 -155.5t-305 -57.5q-161 0 -303.5 57.5t-243 155.5t-159 232.5t-58.5 283.5zM680 702q0 -164 103 -277.5t257 -113.5
t258.5 113.5t104.5 277.5t-104.5 278t-258.5 114t-257 -114t-103 -278zM-111 963l131 483h334l-176 -483h-289z" />
    <glyph glyph-name="Upsilontonos" unicode="&#x38e;" horiz-adv-x="1992" 
d="M991 0q6 189 6 305v303l-338 533q-115 174 -186 262h483q38 -86 78 -154l178 -299l174 293q46 73 87 160h446q-57 -73 -209 -305l-313 -486v-307q0 -179 8 -305h-414zM-29 963l131 483h334l-176 -483h-289z" />
    <glyph glyph-name="Omegatonos" unicode="&#x38f;" horiz-adv-x="1867" 
d="M694 741q0 -107 54 -219t145 -182v-340h-285q-246 0 -368 -8v334q137 -9 243 -9h31q-91 70 -155 200.5t-64 242.5q0 144 50.5 268.5t142.5 214.5t227 141.5t297 51.5q328 0 526.5 -188.5t198.5 -487.5q0 -112 -66 -242.5t-160 -200.5h25q110 0 252 9v-334q-126 8 -379 8
h-276v340q79 61 139.5 177.5t60.5 223.5q0 158 -86 258.5t-235 100.5t-233.5 -100.5t-84.5 -258.5zM-111 963l131 483h334l-176 -483h-289z" />
    <glyph glyph-name="iotadieresistonos" unicode="&#x390;" horiz-adv-x="647" 
d="M492 772v-399q0 -111 53 -111q45 0 55 10v-225q-103 -72 -223 -72q-141 0 -202.5 97.5t-61.5 298.5v399q0 107 -7 207h396q-10 -113 -10 -205zM104 1083l172 387h334l-223 -387h-283zM580 1253q0 69 50.5 116.5t121.5 47.5q69 0 118.5 -47.5t49.5 -116.5
q0 -66 -49.5 -112.5t-118.5 -46.5q-71 0 -121.5 46.5t-50.5 112.5zM-233 1253q0 69 49 116.5t118 47.5q71 0 120.5 -47.5t49.5 -116.5q0 -66 -49.5 -112.5t-120.5 -46.5q-69 0 -118 46.5t-49 112.5z" />
    <glyph glyph-name="Alpha" unicode="&#x391;" horiz-adv-x="1527" 
d="M1528 0h-461q-6 19 -51 129l-41 94h-490l-63 -135q-28 -64 -31 -88h-391q97 165 166 311l528 1116h109l551 -1116q51 -108 174 -311zM846 526l-121 289l-117 -289h238z" />
    <glyph glyph-name="Beta" unicode="&#x392;" horiz-adv-x="1325" 
d="M143 0q11 116 11 367v600q0 345 -9 436h508q138 0 239.5 -31.5t155 -84t77.5 -110t24 -120.5q0 -93 -43.5 -162.5t-122.5 -108.5q42 -18 80 -45.5t77 -68.5t62 -101t23 -129q0 -88 -34.5 -166t-102 -140.5t-179.5 -99t-256 -36.5h-510zM821 438q0 71 -51 120.5t-133 49.5
h-84v-344h74q194 0 194 174zM553 1149v-281h61q67 0 108.5 36t41.5 104q0 58 -42.5 99.5t-105.5 41.5h-63z" />
    <glyph glyph-name="Gamma" unicode="&#x393;" horiz-adv-x="1142" 
d="M141 0q9 142 9 367v669q0 230 -9 367h650q137 0 290 10v-360q-76 10 -290 10h-240v-696q0 -241 8 -367h-418z" />
    <glyph glyph-name="uni0394" unicode="&#x394;" horiz-adv-x="1480" 
d="M1481 0h-1481q73 108 166 311l530 1139h74l545 -1139q89 -186 166 -311zM709 791l-177 -463h375z" />
    <glyph glyph-name="Epsilon" unicode="&#x395;" horiz-adv-x="1159" 
d="M659 1073h-108v-190h82q228 0 354 8v-346q-126 8 -354 8h-82v-221h125q234 0 356 8v-348q-122 8 -356 8h-535q9 254 9 367v671q0 228 -9 365h518q168 0 357 12v-350q-84 8 -357 8z" />
    <glyph glyph-name="Zeta" unicode="&#x396;" horiz-adv-x="1241" 
d="M1008 1094l-363 -762h174q216 0 338 8v-348q-122 8 -338 8h-768q60 105 158 311l352 762h-147q-254 0 -338 -8v346q126 -8 338 -8h745q-73 -142 -151 -309z" />
    <glyph glyph-name="Eta" unicode="&#x397;" horiz-adv-x="1566" 
d="M553 1036v-137h461v137q0 224 -10 367h419q-10 -225 -10 -367v-741q0 -153 10 -295h-419q10 95 10 297v270h-461v-272q0 -181 8 -295h-416q9 128 9 297v739q0 243 -9 367h416q-8 -110 -8 -367z" />
    <glyph glyph-name="Theta" unicode="&#x398;" horiz-adv-x="1701" 
d="M762 846h168q144 0 205 6v-320q-79 7 -205 7h-168q-109 0 -195 -7v320q74 -6 195 -6zM86 702q0 148 58.5 282.5t159 232.5t243 155.5t303.5 57.5q162 0 305 -57.5t243.5 -155.5t159 -232t58.5 -283t-58.5 -283.5t-159 -232.5t-243.5 -155.5t-305 -57.5
q-161 0 -303.5 57.5t-243 155.5t-159 232.5t-58.5 283.5zM469 702q0 -161 112 -276t269 -115q158 0 269.5 114.5t111.5 276.5q0 163 -111.5 277.5t-269.5 114.5q-157 0 -269 -115t-112 -277z" />
    <glyph glyph-name="Iota" unicode="&#x399;" horiz-adv-x="706" 
d="M555 1036v-669q0 -241 8 -367h-416q9 142 9 367v669q0 230 -9 367h416q-8 -122 -8 -367z" />
    <glyph glyph-name="Kappa" unicode="&#x39a;" horiz-adv-x="1515" 
d="M551 1036v-266l256 383q98 151 149 250h445q-76 -98 -182 -254l-279 -406l330 -444q61 -81 246 -299h-541q-51 100 -129 203l-295 407v-243q0 -241 8 -367h-418q9 142 9 367v669q0 230 -9 367h418q-8 -122 -8 -367z" />
    <glyph glyph-name="Lambda" unicode="&#x39b;" horiz-adv-x="1441" 
d="M864 256q-28 79 -50.5 137.5t-57.5 146t-56 140.5q-99 -211 -227 -537l-49 -143h-424q55 89 158 311l516 1139h104l508 -1139q90 -209 156 -311h-500q-19 81 -78 256z" />
    <glyph glyph-name="Mu" unicode="&#x39c;" horiz-adv-x="1779" 
d="M1509 1427l166 -1058q32 -221 80 -369h-444q0 44 -13.5 132t-35.5 213.5t-33 205.5l-338 -574h-72l-336 578q-90 -449 -92 -555h-364q9 33 20 89.5t27 143t26 138.5l203 1056h100l494 -866l508 866h104z" />
    <glyph glyph-name="Nu" unicode="&#x39d;" horiz-adv-x="1513" 
d="M532 295q0 -167 9 -295h-400q9 128 9 297v725q0 158 -9 408h84q138 -138 236 -220l520 -446v272q0 195 -8 367h399q-10 -225 -10 -367v-729q0 -183 10 -332h-80q-15 15 -50 51.5t-53 55.5t-46 45.5t-51 46.5l-560 479v-358z" />
    <glyph glyph-name="Xi" unicode="&#x39e;" horiz-adv-x="1239" 
d="M123 -8v375q79 -9 299 -9h366q186 0 328 9v-375q-126 8 -328 8h-368q-182 0 -297 -8zM795 1047h-389q-159 0 -267 -9v373q96 -8 267 -8h389q73 0 303 12v-377q-136 9 -303 9zM162 524v373q76 -6 241 -6h396q73 0 126 1.5t96 4t56 2.5v-373q-133 9 -278 9h-396
q-163 0 -241 -11z" />
    <glyph glyph-name="Omicron" unicode="&#x39f;" horiz-adv-x="1701" 
d="M86 702q0 148 58.5 282.5t159 232.5t243 155.5t303.5 57.5q162 0 305 -57.5t243.5 -155.5t159 -232t58.5 -283t-58.5 -283.5t-159 -232.5t-243.5 -155.5t-305 -57.5q-161 0 -303.5 57.5t-243 155.5t-159 232.5t-58.5 283.5zM489 702q0 -164 103.5 -277.5t257.5 -113.5
t258 113.5t104 277.5t-104 278t-258 114t-257.5 -114t-103.5 -278z" />
    <glyph glyph-name="Pi" unicode="&#x3a0;" horiz-adv-x="1552" 
d="M143 1403h1264q-8 -114 -8 -418v-625q0 -282 8 -360h-420q10 137 10 365v706h-442v-704q0 -262 10 -367h-422q11 173 11 367v651q0 246 -11 385z" />
    <glyph glyph-name="Rho" unicode="&#x3a1;" horiz-adv-x="1288" 
d="M553 463v-96q0 -262 10 -367h-420q11 116 11 367v669q0 255 -11 367h539q250 0 390 -130.5t140 -344.5q0 -215 -137.5 -340t-392.5 -125h-129zM553 1102v-338h80q85 0 132.5 51t47.5 117q0 64 -48 117t-132 53h-80z" />
    <glyph glyph-name="Sigma" unicode="&#x3a3;" horiz-adv-x="1290" 
d="M23 0v70q119 119 241 270l279 350l-287 359q-144 183 -236 284v70h928q106 0 228 8v-346q-122 8 -242 8h-275l281 -362l-295 -379h318q119 0 241 8v-348q-122 8 -229 8h-952z" />
    <glyph glyph-name="Tau" unicode="&#x3a4;" horiz-adv-x="1361" 
d="M426 1403h506q251 0 373 8v-348q-152 10 -373 10h-47q-2 -76 -2 -262v-444q0 -262 10 -367h-424q10 158 10 367v444q0 148 -6 262h-47q-217 0 -369 -10v348q122 -8 369 -8z" />
    <glyph glyph-name="Upsilon" unicode="&#x3a5;" horiz-adv-x="1445" 
d="M518 0q6 189 6 305v303l-338 533q-115 174 -186 262h483q38 -86 78 -154l178 -299l174 293q42 67 86 160h447q-57 -73 -209 -305l-313 -486v-307q0 -179 8 -305h-414z" />
    <glyph glyph-name="Phi" unicode="&#x3a6;" horiz-adv-x="1701" 
d="M84 719q0 261 155.5 430.5t430.5 212.5q-1 24 -1.5 56t-1 52.5t-1.5 32.5h366l-6 -141q276 -43 434 -214t158 -429q0 -256 -158 -426t-434 -213l6 -129h-366q1 12 1.5 31t1 48t1.5 52q-274 43 -430 212.5t-156 424.5zM1231 721q0 239 -207 307v-614q207 71 207 307z
M467 721q0 -235 205 -307v614q-205 -72 -205 -307z" />
    <glyph glyph-name="Chi" unicode="&#x3a7;" horiz-adv-x="1388" 
d="M817 160l-143 239l-152 -262q-13 -24 -26.5 -48.5t-19.5 -36l-12 -23t-8 -17.5t-3 -12h-453q73 86 236 326l241 383l-239 374q-141 220 -220 320h480q43 -87 90 -168l108 -193l117 201q46 82 84 160h442q-93 -115 -215 -301l-233 -363l250 -381q152 -240 252 -358h-490
q-16 42 -86 160z" />
    <glyph glyph-name="Psi" unicode="&#x3a8;" horiz-adv-x="1710" 
d="M461 1403q16 -78 16 -365q0 -127 56.5 -207.5t132.5 -103.5v410q0 175 -9 266h396q-6 -91 -6 -266v-412q83 36 134.5 116t51.5 197q0 215 18 365h394q-35 -114 -35 -363q0 -108 -32 -206.5t-87 -174t-127 -134.5t-153 -94t-164 -46v-96q0 -195 6 -289h-396q9 142 9 289
v96q-105 14 -205 66.5t-181 135t-130.5 201t-49.5 252.5q0 227 -30 363h391z" />
    <glyph glyph-name="uni03A9" unicode="&#x3a9;" horiz-adv-x="1708" 
d="M535 741q0 -108 53.5 -219.5t144.5 -181.5v-340h-284q-247 0 -369 -8v334q137 -9 244 -9h30q-91 70 -155 200.5t-64 242.5q0 144 50.5 268.5t142.5 214.5t227 141.5t297 51.5q328 0 526.5 -188.5t198.5 -487.5q0 -112 -65.5 -242.5t-159.5 -200.5h24q110 0 252 9v-334
q-126 8 -379 8h-276v340q80 61 140.5 177.5t60.5 223.5q0 158 -86.5 258.5t-235.5 100.5q-148 0 -232.5 -100.5t-84.5 -258.5z" />
    <glyph glyph-name="Iotadieresis" unicode="&#x3aa;" horiz-adv-x="706" 
d="M555 1036v-669q0 -241 8 -367h-416q9 142 9 367v669q0 230 -9 367h416q-8 -122 -8 -367zM-96 1692q0 82 58 139t140 57q85 0 143 -57t58 -139q0 -80 -58.5 -136.5t-142.5 -56.5q-82 0 -140 56.5t-58 136.5zM406 1692q0 82 59.5 139t142.5 57q82 0 139.5 -57t57.5 -139
q0 -80 -57.5 -136.5t-139.5 -56.5q-83 0 -142.5 56.5t-59.5 136.5z" />
    <glyph glyph-name="Upsilondieresis" unicode="&#x3ab;" horiz-adv-x="1445" 
d="M518 0q6 189 6 305v303l-338 533q-115 174 -186 262h483q38 -86 78 -154l178 -299l174 293q42 67 86 160h447q-57 -73 -209 -305l-313 -486v-307q0 -179 8 -305h-414zM272 1692q0 81 58.5 138.5t140.5 57.5q85 0 143 -57t58 -139q0 -80 -58.5 -136.5t-142.5 -56.5
q-82 0 -140.5 57t-58.5 136zM774 1692q0 81 59.5 138.5t143.5 57.5q82 0 139.5 -57t57.5 -139q0 -80 -57.5 -136.5t-139.5 -56.5q-83 0 -143 57t-60 136z" />
    <glyph glyph-name="alphatonos" unicode="&#x3ac;" horiz-adv-x="1265" 
d="M784 977h355q-39 -271 -39 -492v-96q3 -108 88 -108q21 0 45 12v-256q-99 -62 -217 -62q-166 0 -223 146q-57 -78 -130.5 -112t-175.5 -34q-124 0 -222.5 70t-151 185t-52.5 251q0 143 53 260.5t152.5 186.5t227.5 69q183 0 276 -135q3 59 14 115zM393 1104l258 326h375
l-309 -326h-324zM764 487q0 88 -45.5 141.5t-116.5 53.5q-67 0 -111.5 -57t-44.5 -138q0 -82 47 -139t117 -57q68 0 111 51.5t43 144.5z" />
    <glyph glyph-name="epsilontonos" unicode="&#x3ad;" horiz-adv-x="948" 
d="M504 369q-35 0 -56.5 -13.5t-21.5 -36.5q0 -57 125 -57q175 0 315 98v-290q-18 -4 -56 -19.5t-76.5 -30t-112.5 -26.5t-164 -12q-101 0 -188.5 32.5t-147.5 104t-60 170.5q0 81 57 138t124 71q-62 20 -111 79.5t-49 127.5q0 136 114 214t308 78q80 0 145.5 -15t114 -32
t78.5 -20v-322q-48 48 -127.5 80.5t-163.5 32.5q-62 0 -87.5 -11t-25.5 -36q0 -56 109 -56q81 0 131 11v-275q-54 15 -174 15zM326 1104l258 326h374l-309 -326h-323z" />
    <glyph glyph-name="etatonos" unicode="&#x3ae;" horiz-adv-x="1234" 
d="M733 553q0 141 -100 141q-54 0 -91.5 -46t-37.5 -118v-325q0 -129 8 -205h-397q8 76 8 205v559q0 124 -6 213h375q4 -40 4 -111h2q30 54 101 92.5t173 38.5q342 0 342 -448v-1067h-395q14 165 14 366v705zM455 1104l258 326h374l-309 -326h-323z" />
    <glyph glyph-name="iotatonos" unicode="&#x3af;" horiz-adv-x="647" 
d="M492 772v-399q0 -111 53 -111q45 0 55 10v-225q-103 -72 -223 -72q-141 0 -202.5 97.5t-61.5 298.5v399q0 107 -7 207h396q-10 -113 -10 -205zM125 1104l258 326h375l-309 -326h-324z" />
    <glyph glyph-name="upsilondieresistonos" unicode="&#x3b0;" horiz-adv-x="1228" 
d="M510 752l-10 -320q-1 -68 33.5 -108.5t82.5 -40.5q77 0 113.5 65t36.5 221q0 135 -33.5 241.5t-73.5 166.5h375q113 -221 113 -408q0 -149 -40 -262.5t-112.5 -184t-169 -105.5t-215.5 -35q-136 0 -247.5 52t-178.5 151.5t-65 226.5l10 333q4 160 -16 232h381
q20 -95 16 -225zM414 1083l172 387h334l-224 -387h-282zM889 1253q0 69 50.5 116.5t121.5 47.5q69 0 118.5 -47.5t49.5 -116.5q0 -66 -49.5 -112.5t-118.5 -46.5q-71 0 -121.5 46.5t-50.5 112.5zM76 1253q0 69 49.5 116.5t118.5 47.5q71 0 120.5 -47.5t49.5 -116.5
q0 -66 -49.5 -112.5t-120.5 -46.5q-69 0 -118.5 46.5t-49.5 112.5z" />
    <glyph glyph-name="alpha" unicode="&#x3b1;" horiz-adv-x="1265" 
d="M784 977h355q-39 -271 -39 -492v-96q3 -108 88 -108q21 0 45 12v-256q-99 -62 -217 -62q-166 0 -223 146q-57 -78 -130.5 -112t-175.5 -34q-124 0 -222.5 70t-151 185t-52.5 251q0 143 53 260.5t152.5 186.5t227.5 69q183 0 276 -135q3 59 14 115zM764 487
q0 88 -45.5 141.5t-116.5 53.5q-67 0 -111.5 -57t-44.5 -138q0 -82 47 -139t117 -57q68 0 111 51.5t43 144.5z" />
    <glyph glyph-name="beta" unicode="&#x3b2;" horiz-adv-x="1335" 
d="M696 -14q-139 0 -211 41q1 -74 17 -247.5t18 -309.5h-379v1521q0 125 46 226t121.5 161.5t166.5 92.5t187 32q109 0 197 -32.5t142.5 -87t83.5 -122t29 -141.5q0 -110 -46 -179t-136 -112q315 -103 315 -387q0 -134 -73 -239t-198 -161t-280 -56zM678 586q-51 0 -78 -6
v331q82 10 122 52t40 106q0 56 -31.5 89.5t-81.5 33.5q-57 0 -93 -44.5t-36 -143.5v-670q61 -43 172 -43q75 0 125.5 41.5t50.5 107.5q0 70 -51.5 108t-138.5 38z" />
    <glyph glyph-name="gamma" unicode="&#x3b3;" horiz-adv-x="1290" 
d="M852 977h358q-7 -100 -21.5 -187.5t-43 -175.5t-52.5 -152t-73 -159t-80.5 -151.5t-97.5 -171.5q-13 -142 -76 -498h-397q37 79 76.5 234.5t39.5 263.5q0 133 -76 310.5t-233 442.5q-105 178 -176 244h502q10 -23 62.5 -142t79 -184.5t54.5 -158t29 -148.5q40 64 75 228
t46 323q4 58 4 82z" />
    <glyph glyph-name="delta" unicode="&#x3b4;" horiz-adv-x="1175" 
d="M61 469q0 140 77.5 245.5t205.5 164.5q-235 178 -235 352q0 133 126.5 210t350.5 77q138 0 267 -34t204 -71v-377q-71 73 -193.5 130t-245.5 57q-65 0 -88.5 -15t-23.5 -45q0 -40 265 -216q9 -6 13 -9q57 -38 92.5 -64t86 -73t79.5 -91.5t50.5 -107.5t21.5 -133
q0 -97 -41.5 -186t-111.5 -153.5t-167.5 -103t-203.5 -38.5q-149 0 -270.5 63t-190 173.5t-68.5 244.5zM444 477q0 -65 43 -113.5t103 -48.5q58 0 98.5 48.5t40.5 113.5q0 69 -40.5 117.5t-98.5 48.5q-60 0 -103 -48.5t-43 -117.5z" />
    <glyph glyph-name="epsilon" unicode="&#x3b5;" horiz-adv-x="948" 
d="M504 369q-35 0 -56.5 -13.5t-21.5 -36.5q0 -57 125 -57q175 0 315 98v-290q-18 -4 -56 -19.5t-76.5 -30t-112.5 -26.5t-164 -12q-101 0 -188.5 32.5t-147.5 104t-60 170.5q0 81 57 138t124 71q-62 20 -111 79.5t-49 127.5q0 136 114 214t308 78q80 0 145.5 -15t114 -32
t78.5 -20v-322q-48 48 -127.5 80.5t-163.5 32.5q-62 0 -87.5 -11t-25.5 -36q0 -56 109 -56q81 0 131 11v-275q-54 15 -174 15z" />
    <glyph glyph-name="zeta" unicode="&#x3b6;" horiz-adv-x="962" 
d="M885 1491v-305q-248 -230 -346.5 -366t-98.5 -277q0 -54 12.5 -89t43.5 -58t67 -35.5t99 -26.5q139 -33 210.5 -104.5t71.5 -206.5q0 -48 -7 -95.5t-14 -79.5t-24.5 -75.5t-25 -59.5t-29 -57.5t-23.5 -46.5h-327q104 193 104 297q0 76 -100 90q-224 39 -323 141.5
t-99 308.5q0 330 397 703q-279 0 -328 12v297q51 -14 173 -23.5t206 -9.5h246q53 36 115 66z" />
    <glyph glyph-name="eta" unicode="&#x3b7;" horiz-adv-x="1234" 
d="M733 553q0 141 -100 141q-54 0 -91.5 -46t-37.5 -118v-325q0 -129 8 -205h-397q8 76 8 205v559q0 124 -6 213h375q4 -40 4 -111h2q30 54 101 92.5t173 38.5q342 0 342 -448v-1067h-395q14 165 14 366v705z" />
    <glyph glyph-name="theta" unicode="&#x3b8;" horiz-adv-x="1261" 
d="M86 727q0 208 65 377t190 270t288 101q123 0 226.5 -58.5t173.5 -160t108.5 -238t38.5 -291.5q0 -153 -38.5 -288.5t-108.5 -236t-173.5 -158.5t-226.5 -58q-163 0 -288 100t-190 267.5t-65 373.5zM629 1147q-67 0 -113 -70.5t-65 -199.5h358q-17 128 -64 199t-116 71z
M629 311q67 0 114 67.5t66 190.5h-356q19 -123 64.5 -190.5t111.5 -67.5z" />
    <glyph glyph-name="iota" unicode="&#x3b9;" horiz-adv-x="647" 
d="M492 772v-399q0 -111 53 -111q45 0 55 10v-225q-103 -72 -223 -72q-141 0 -202.5 97.5t-61.5 298.5v399q0 107 -7 207h396q-10 -113 -10 -205z" />
    <glyph glyph-name="kappa" unicode="&#x3ba;" horiz-adv-x="1265" 
d="M530 735v-221q113 213 189 317q66 92 135.5 129t183.5 37q56 0 99 -11t61 -22.5t39 -29.5q-96 -65 -195 -197q-88 -119 -145 -229l207 -309q45 -65 162 -199h-484q-15 55 -73 139l-179 287v-221q0 -117 9 -205h-396q7 75 7 205v530q0 141 -9 242h381q8 -90 8 -242z" />
    <glyph glyph-name="lambda" unicode="&#x3bb;" horiz-adv-x="1241" 
d="M37 1159v318q14 3 54.5 16t80.5 20t92 7q96 0 167 -23.5t130 -80t106 -137t99 -206.5l317 -770q56 -131 150 -303h-457q-11 78 -57 199l-113 311l-172 -387q-5 -11 -18.5 -37.5t-22.5 -47t-14 -38.5h-367q52 64 107 180l338 697l-49 127q-40 102 -95.5 143t-128.5 43
q-64 2 -147 -31z" />
    <glyph glyph-name="uni03BC" unicode="&#x3bc;" horiz-adv-x="1269" 
d="M502 440q-1 -74 31 -114.5t85 -40.5q50 0 83.5 40.5t33.5 112.5v334q0 134 -10 205h397q-8 -76 -8 -205v-393q0 -67 13 -92t49 -25q34 0 47 10v-223q-96 -74 -230 -74q-179 0 -219 154q-49 -81 -98 -114t-141 -33q-71 0 -111 28q20 -33 32.5 -76t18 -106t6.5 -92t2 -101
q1 -33 2.5 -64.5t3.5 -60t3 -40.5h-375q6 65 6 204v1121q0 98 -8 182h397q-10 -95 -10 -205v-332z" />
    <glyph glyph-name="nu" unicode="&#x3bd;" horiz-adv-x="1126" 
d="M514 821l109 -299q94 202 94 352q0 50 -17 103h359q0 -14 2 -53t2 -50q0 -74 -17.5 -148t-65 -180.5t-145 -250t-243.5 -320.5h-66l-393 787q-69 131 -125 215h467q12 -77 39 -156z" />
    <glyph glyph-name="xi" unicode="&#x3be;" horiz-adv-x="1017" 
d="M838 -391h-330q35 63 70.5 156.5t35.5 136.5q0 42 -27 65.5t-91 32.5q-375 47 -375 373q0 119 73.5 210.5t206.5 133.5q-87 30 -150 108.5t-63 196.5q0 185 133.5 295t333.5 110q61 0 129 -8t93 -8v-315q-67 34 -148 34q-86 0 -133 -40t-47 -95t45.5 -95t103.5 -40
q34 0 57 4t34 8.5t26 14.5l2 -291q-68 0 -123 -6q-91 -13 -150 -51.5t-59 -100.5q0 -98 174 -123q72 -9 122.5 -27.5t91.5 -54.5t61 -96t20 -145q0 -47 -7 -92.5t-22.5 -89.5t-27 -72t-32.5 -72t-27 -57z" />
    <glyph glyph-name="omicron" unicode="&#x3bf;" horiz-adv-x="1185" 
d="M66 489q0 138 70.5 255t191.5 185t264 68t264.5 -68t192.5 -185t71 -255q0 -137 -71 -253t-192.5 -183t-264.5 -67t-264 67t-191.5 183t-70.5 253zM426 489q0 -74 48 -125t118 -51q69 0 118.5 51.5t49.5 124.5q0 75 -49.5 127t-118.5 52q-70 0 -118 -52t-48 -127z" />
    <glyph glyph-name="pi" unicode="&#x3c0;" horiz-adv-x="1490" 
d="M1413 983v-326q-86 7 -162 7h-51q-4 -26 -8 -112.5t-4 -121.5q0 -155 7 -241.5t28 -188.5h-383q-19 90 -19 367q0 132 6 297h-163l-39 -664h-355l39 664q-188 0 -235 -17v291q51 23 105.5 31t170.5 8h901q85 0 162 6z" />
    <glyph glyph-name="rho" unicode="&#x3c1;" horiz-adv-x="1230" 
d="M688 -14q-138 0 -203 57v-260q0 -198 27 -301h-379q-29 75 -29 301v678q0 165 72.5 288.5t191 185.5t263.5 62q153 0 275.5 -68.5t189.5 -184t67 -255.5q0 -137 -63.5 -253t-173 -183t-238.5 -67zM485 489v-131q50 -47 146 -47q69 0 118.5 52.5t49.5 125.5
q0 75 -49.5 128t-118.5 53q-62 0 -104 -50t-42 -131z" />
    <glyph glyph-name="uni03C2" unicode="&#x3c2;" horiz-adv-x="937" 
d="M428 514q0 -73 42 -111.5t128 -62.5q159 -47 215.5 -119t56.5 -219q0 -171 -127 -375h-329q100 151 100 252q0 30 -3.5 46.5t-18 35.5t-45 34t-82.5 32q-308 102 -308 438q0 150 71 272t196 191t278 69q40 0 75 -4t73 -10.5t63 -9.5v-395q-25 36 -79.5 64t-131.5 28
q-83 0 -128.5 -45t-45.5 -111z" />
    <glyph glyph-name="sigma" unicode="&#x3c3;" horiz-adv-x="1345" 
d="M596 977h442q129 0 205 8v-328q-76 -8 -205 -8h-51q84 -68 84 -192q0 -123 -65.5 -231t-182.5 -174t-258 -66q-107 0 -202 39.5t-161.5 106.5t-105.5 159.5t-39 195.5q0 214 143.5 352t395.5 138zM713 492q0 92 -88 157h-64q-63 0 -104 -45.5t-41 -111.5q0 -76 42 -127.5
t107 -51.5q63 0 105.5 52t42.5 127z" />
    <glyph glyph-name="tau" unicode="&#x3c4;" horiz-adv-x="1165" 
d="M1110 983v-330q-74 6 -162 6h-178q-4 -34 -10 -151t-6 -168q0 -90 43 -90q21 0 30 6v-240q-90 -41 -176 -41q-276 0 -276 353q0 194 10 331h-94q-192 0 -236 -16v293q53 24 108 32.5t169 8.5h616q86 0 162 6z" />
    <glyph glyph-name="upsilon" unicode="&#x3c5;" horiz-adv-x="1228" 
d="M510 752l-10 -320q-1 -68 33.5 -108.5t82.5 -40.5q77 0 113.5 65t36.5 221q0 135 -33.5 241.5t-73.5 166.5h375q113 -221 113 -408q0 -149 -40 -262.5t-112.5 -184t-169 -105.5t-215.5 -35q-136 0 -247.5 52t-178.5 151.5t-65 226.5l10 333q4 160 -16 232h381
q20 -95 16 -225z" />
    <glyph glyph-name="phi" unicode="&#x3c6;" horiz-adv-x="1458" 
d="M55 492q0 209 134.5 343t377.5 162v172q0 148 -10 207h342q-8 -49 -8 -205l-2 -174q242 -27 377 -164t135 -341q0 -208 -137.5 -345t-374.5 -163l2 -220q0 -136 12 -206h-344q8 63 8 206v220q-242 27 -377 165t-135 343zM1040 492q0 86 -41 135t-110 49v-375
q68 2 109.5 53t41.5 138zM416 492q0 -88 42 -138.5t109 -52.5v375q-67 0 -109 -49t-42 -135z" />
    <glyph glyph-name="chi" unicode="&#x3c7;" horiz-adv-x="1202" 
d="M674 -350l-99 217l-100 -193q-65 -126 -84 -192h-414q122 170 222 358l207 379l-136 273q-115 232 -158.5 312t-105.5 173h457q48 -145 96 -250l55 -121l93 189q61 124 77 182h408q-89 -124 -178 -295l-228 -428l136 -264q174 -340 278 -508h-457q-19 63 -69 168z" />
    <glyph glyph-name="psi" unicode="&#x3c8;" horiz-adv-x="1642" 
d="M983 973v-660q58 20 106 96t60 166q8 67 14.5 201t14.5 201h391q-18 -80 -31.5 -245.5t-17.5 -199.5q-29 -216 -170.5 -366t-366.5 -180v-156q0 -127 8 -205h-336q4 43 4 205v156q-223 27 -364 179t-170 365q-4 29 -18.5 196.5t-32.5 250.5h393q8 -68 13.5 -203
t13.5 -203q12 -86 60.5 -162t104.5 -96v660q0 158 -4 203h336q-8 -90 -8 -203z" />
    <glyph glyph-name="omega" unicode="&#x3c9;" horiz-adv-x="1570" 
d="M956 539v-107q0 -113 64 -113q47 0 68.5 50t21.5 155q0 115 -43.5 243t-114.5 210h412q1 -3 13 -26.5t16.5 -32t16.5 -34.5t17.5 -41.5t16 -44t16 -50t13 -53t11 -60t6.5 -63t3 -68.5q0 -111 -26 -204t-78.5 -165t-138.5 -112.5t-199 -40.5q-92 0 -165 45.5t-104 122.5
q-34 -76 -108 -122t-178 -46q-202 0 -309 141t-107 373q0 84 18.5 168.5t36 128.5t50.5 111t36 73h408q-72 -96 -120 -218t-48 -235q0 -104 20 -154.5t66 -50.5q27 0 47 25.5t20 81.5v115q0 110 -8 153h357q-7 -75 -7 -155z" />
    <glyph glyph-name="iotadieresis" unicode="&#x3ca;" horiz-adv-x="647" 
d="M492 772v-399q0 -111 53 -111q45 0 55 10v-225q-103 -72 -223 -72q-141 0 -202.5 97.5t-61.5 298.5v399q0 107 -7 207h396q-10 -113 -10 -205zM-115 1276q0 75 53.5 128.5t127.5 53.5q75 0 128.5 -53.5t53.5 -128.5t-53.5 -127.5t-128.5 -52.5q-74 0 -127.5 52.5
t-53.5 127.5zM369 1276q0 75 54 128.5t130 53.5q73 0 125.5 -53.5t52.5 -128.5t-52 -127.5t-126 -52.5q-77 0 -130.5 52.5t-53.5 127.5z" />
    <glyph glyph-name="upsilondieresis" unicode="&#x3cb;" horiz-adv-x="1228" 
d="M510 752l-10 -320q-1 -68 33.5 -108.5t82.5 -40.5q77 0 113.5 65t36.5 221q0 135 -33.5 241.5t-73.5 166.5h375q113 -221 113 -408q0 -149 -40 -262.5t-112.5 -184t-169 -105.5t-215.5 -35q-136 0 -247.5 52t-178.5 151.5t-65 226.5l10 333q4 160 -16 232h381
q20 -95 16 -225zM180 1276q0 75 53 128.5t127 53.5q75 0 129 -53.5t54 -128.5t-54 -127.5t-129 -52.5q-74 0 -127 52.5t-53 127.5zM664 1276q0 75 54 128.5t130 53.5q73 0 125.5 -53.5t52.5 -128.5t-52 -127.5t-126 -52.5q-77 0 -130.5 52.5t-53.5 127.5z" />
    <glyph glyph-name="omicrontonos" unicode="&#x3cc;" horiz-adv-x="1185" 
d="M66 489q0 138 70.5 255t191.5 185t264 68t264.5 -68t192.5 -185t71 -255q0 -137 -71 -253t-192.5 -183t-264.5 -67t-264 67t-191.5 183t-70.5 253zM389 1104l258 326h375l-309 -326h-324zM426 489q0 -74 48 -125t118 -51q69 0 118.5 51.5t49.5 124.5q0 75 -49.5 127
t-118.5 52q-70 0 -118 -52t-48 -127z" />
    <glyph glyph-name="upsilontonos" unicode="&#x3cd;" horiz-adv-x="1228" 
d="M510 752l-10 -320q-1 -68 33.5 -108.5t82.5 -40.5q77 0 113.5 65t36.5 221q0 135 -33.5 241.5t-73.5 166.5h375q113 -221 113 -408q0 -149 -40 -262.5t-112.5 -184t-169 -105.5t-215.5 -35q-136 0 -247.5 52t-178.5 151.5t-65 226.5l10 333q4 160 -16 232h381
q20 -95 16 -225zM399 1104l258 326h375l-309 -326h-324z" />
    <glyph glyph-name="omegatonos" unicode="&#x3ce;" horiz-adv-x="1570" 
d="M956 539v-107q0 -113 64 -113q47 0 68.5 50t21.5 155q0 115 -43.5 243t-114.5 210h412q1 -3 13 -26.5t16.5 -32t16.5 -34.5t17.5 -41.5t16 -44t16 -50t13 -53t11 -60t6.5 -63t3 -68.5q0 -111 -26 -204t-78.5 -165t-138.5 -112.5t-199 -40.5q-92 0 -165 45.5t-104 122.5
q-34 -76 -108 -122t-178 -46q-202 0 -309 141t-107 373q0 84 18.5 168.5t36 128.5t50.5 111t36 73h408q-72 -96 -120 -218t-48 -235q0 -104 20 -154.5t66 -50.5q27 0 47 25.5t20 81.5v115q0 110 -8 153h357q-7 -75 -7 -155zM612 1104l258 326h375l-309 -326h-324z" />
    <glyph glyph-name="uni03D1" unicode="&#x3d1;" horiz-adv-x="1181" 
d="M57 494h383q6 -14 17.5 -48t21 -55t25 -46.5t38 -38t50.5 -13.5q64 -1 102.5 66.5t38.5 146.5q-302 28 -467.5 161.5t-165.5 358.5q0 183 145 316t347 133q112 0 203.5 -39.5t164.5 -123t113.5 -228t40.5 -339.5q0 -86 -12 -171.5t-37.5 -174t-69.5 -164t-102 -135
t-141.5 -93.5t-182.5 -34q-59 0 -111 13.5t-90.5 34.5t-74.5 56.5t-60 68.5t-50.5 82.5t-43 86t-41.5 91.5t-41 88zM739 829q0 144 -42.5 242t-116.5 98q-46 0 -79.5 -37t-33.5 -92q0 -172 272 -211z" />
    <glyph glyph-name="uni03D7" unicode="&#x3d7;" horiz-adv-x="1398" 
d="M530 735v-221l168 287q113 196 338 196q41 0 75 -5.5t55.5 -15t35 -17.5t23.5 -17l10 -8q-72 -47 -166 -160q-106 -127 -172 -268l96 -137q78 -111 178 -111q75 0 160 49v-387q-30 -21 -80.5 -70.5t-98 -97t-122.5 -102.5t-154.5 -95.5t-194.5 -68t-243 -27.5
q-154 0 -292.5 41.5t-239.5 126.5v520q103 -174 242 -250.5t290 -76.5q105 0 194 21.5t136 47.5t97 56t75 39q-138 9 -278 235l-132 207v-221q0 -117 9 -205h-396q7 75 7 205v530q0 141 -9 242h381q8 -90 8 -242z" />
    <glyph glyph-name="uni03D9" unicode="&#x3d9;" horiz-adv-x="1169" 
d="M55 489q0 138 70.5 255t192 185t264.5 68t264.5 -68t192.5 -185t71 -255q0 -159 -94 -287t-244 -184v-98q0 -108 6 -237h-391q6 129 6 237v98q-151 55 -244.5 183t-93.5 288zM416 489q0 -74 48 -125t118 -51q69 0 118.5 51.5t49.5 124.5q0 75 -49.5 127t-118.5 52
q-70 0 -118 -52t-48 -127z" />
    <glyph glyph-name="uni03DB" unicode="&#x3db;" horiz-adv-x="950" 
d="M440 502q0 -116 156 -158q77 -20 126 -43t88.5 -63t57 -102t17.5 -152q0 -142 -125 -357h-332q40 54 71 130t31 114q0 56 -34 95.5t-123 66.5q-45 14 -81.5 30.5t-80 51t-72.5 79.5t-49 118t-20 163q0 200 123.5 339t304.5 173q52 7 70 41t20 119h319q-1 -214 -77 -328
t-205 -139q-185 -35 -185 -178z" />
    <glyph glyph-name="uni03DD" unicode="&#x3dd;" horiz-adv-x="1144" 
d="M117 -317q24 73 24 280v768q0 157 -6 246h555q193 0 281 12v-342q-118 8 -281 8h-147v-202h100q157 0 248 6v-336q-122 8 -248 8h-100v-168q0 -199 -8 -280h-418z" />
    <glyph glyph-name="uni03E1" unicode="&#x3e1;" horiz-adv-x="1470" 
d="M352 889l269 125q-187 184 -435 211l379 178q162 -41 334 -209.5t270 -376.5q62 -135 96 -270t31 -286.5t-55 -280.5l-385 -179q64 124 92.5 233t22.5 232l-269 -129q-33 -14 -72 -33t-79.5 -39.5t-50.5 -25.5l-133 291q17 5 47 18.5t84 39t73 34.5l324 151
q-57 135 -88 187l-328 -154q-14 -7 -43 -21t-47 -23.5t-40.5 -21t-38.5 -21t-25 -17.5l-140 297q15 4 41.5 14.5t48.5 20.5t60.5 28.5t56.5 26.5z" />
    <glyph glyph-name="uni0400" unicode="&#x400;" horiz-adv-x="1159" 
d="M659 1073h-108v-190h82q228 0 354 8v-346q-126 8 -354 8h-82v-221h125q234 0 356 8v-348q-122 8 -356 8h-535q9 254 9 367v671q0 228 -9 365h518q168 0 357 12v-350q-84 8 -357 8zM543 1810l276 -305h-350l-367 305h441z" />
    <glyph glyph-name="uni0401" unicode="&#x401;" horiz-adv-x="1159" 
d="M659 1073h-108v-190h82q228 0 354 8v-346q-126 8 -354 8h-82v-221h125q234 0 356 8v-348q-122 8 -356 8h-535q9 254 9 367v671q0 228 -9 365h518q168 0 357 12v-350q-84 8 -357 8zM129 1692q0 81 58.5 138.5t140.5 57.5q84 0 142 -57t58 -139q0 -80 -58 -136.5
t-142 -56.5q-82 0 -140.5 57t-58.5 136zM631 1692q0 81 59.5 138.5t143.5 57.5q82 0 139 -57t57 -139q0 -80 -57 -136.5t-139 -56.5q-83 0 -143 57t-60 136z" />
    <glyph glyph-name="uni0402" unicode="&#x402;" horiz-adv-x="1665" 
d="M1157 332q0 89 -51.5 149t-138.5 60q-71 0 -127 -21v-194q0 -200 8 -326h-420q10 158 10 367v706h-51q-178 0 -330 -10v348q122 -8 332 -8h696q204 0 326 8v-348q-153 10 -326 10h-245v-231q84 30 198 30q111 0 201.5 -31.5t150 -83t100 -119t58 -138t17.5 -142.5
q0 -230 -158 -394.5t-457 -229.5v360q207 68 207 238z" />
    <glyph glyph-name="uni0403" unicode="&#x403;" horiz-adv-x="1142" 
d="M141 0q9 142 9 367v669q0 230 -9 367h650q137 0 290 10v-360q-76 10 -290 10h-240v-696q0 -241 8 -367h-418zM420 1505l274 305h441l-367 -305h-348z" />
    <glyph glyph-name="uni0404" unicode="&#x404;" horiz-adv-x="1368" 
d="M737 553h-229q24 -111 130 -171t247 -60q115 0 194.5 28.5t147.5 83.5v-422q-33 -2 -152.5 -19.5t-204.5 -17.5q-172 0 -314.5 46.5t-247 136t-162.5 228.5t-58 316q0 326 214 527t568 201q96 0 197 -15t145 -16v-447q-108 129 -331 129q-148 0 -242.5 -55.5
t-120.5 -142.5h219q194 0 316 8v-346q-122 8 -316 8z" />
    <glyph glyph-name="uni0405" unicode="&#x405;" horiz-adv-x="1171" 
d="M610 1044q0 -32 24 -62t62 -58t84.5 -59t93 -72.5t84.5 -90.5t62 -120t24 -154q0 -139 -71.5 -245t-194.5 -161t-278 -55q-87 0 -214 18t-169 21v432q57 -69 168 -114t202 -45q55 0 84 25.5t29 66.5q0 34 -23.5 66t-61 60t-82.5 59t-90 70.5t-82.5 87t-61 116.5
t-23.5 151q0 211 137 332t383 121q59 0 157.5 -15.5t141.5 -17.5v-395q-49 59 -126.5 91.5t-149.5 32.5q-53 0 -81 -23t-28 -63z" />
    <glyph glyph-name="uni0406" unicode="&#x406;" horiz-adv-x="706" 
d="M555 1036v-669q0 -241 8 -367h-416q9 142 9 367v669q0 230 -9 367h416q-8 -122 -8 -367z" />
    <glyph glyph-name="uni0407" unicode="&#x407;" horiz-adv-x="706" 
d="M555 1036v-669q0 -241 8 -367h-416q9 142 9 367v669q0 230 -9 367h416q-8 -122 -8 -367zM-96 1692q0 82 58 139t140 57q85 0 143 -57t58 -139q0 -80 -58.5 -136.5t-142.5 -56.5q-82 0 -140 56.5t-58 136.5zM406 1692q0 82 59.5 139t142.5 57q82 0 139.5 -57t57.5 -139
q0 -80 -57.5 -136.5t-139.5 -56.5q-83 0 -142.5 56.5t-59.5 136.5z" />
    <glyph glyph-name="uni0408" unicode="&#x408;" horiz-adv-x="704" 
d="M553 1036v-1073q0 -155 -72 -277t-197.5 -188.5t-279.5 -66.5q-47 0 -124.5 12.5t-123.5 13.5v402q35 -47 93.5 -69.5t125.5 -22.5q77 0 127 62t50 155v1052q0 230 -9 367h418q-8 -122 -8 -367z" />
    <glyph glyph-name="uni0409" unicode="&#x409;" horiz-adv-x="1931" 
d="M840 256l-170 438l-201 -504q-42 -114 -59 -190h-410q17 29 39 73.5t33 68.5t41 92.5t34 76.5l502 1139h121l195 -473h327q262 0 410.5 -128.5t148.5 -354.5q0 -102 -37 -191t-106 -157t-177 -107t-241 -39h-372q-24 115 -78 256zM1223 670h-138l150 -363h10q93 0 150 54
t57 133q0 176 -229 176z" />
    <glyph glyph-name="uni040A" unicode="&#x40a;" horiz-adv-x="2093" 
d="M528 1036v-137h437v137q0 209 -11 367h398q0 -2 -4.5 -150.5t-4.5 -216.5v-78h142q107 0 195 -25.5t149.5 -69.5t104 -104t62 -128.5t19.5 -143.5q0 -97 -32.5 -183t-95 -154.5t-163.5 -109t-229 -40.5h-541q11 104 11 297v270h-437v-272q0 -167 9 -295h-396q9 128 9 297
v739q0 243 -9 367h396q-9 -124 -9 -367zM1343 627v-295h109q74 0 122 39.5t48 109.5q0 64 -48 105t-122 41h-109z" />
    <glyph glyph-name="uni040B" unicode="&#x40b;" horiz-adv-x="1681" 
d="M1149 389q0 77 -45.5 123.5t-112.5 46.5q-88 0 -145 -22v-158q0 -274 10 -379h-420q8 126 8 367v706h-53q-182 0 -334 -10v348q122 -8 334 -8h676q226 0 352 8v-348q-158 10 -352 10h-221v-227q102 26 258 26q94 0 174.5 -28t141.5 -81t95.5 -137t34.5 -190v-221
q0 -166 4 -215h-409q4 73 4 389z" />
    <glyph glyph-name="uni040C" unicode="&#x40c;" horiz-adv-x="1499" 
d="M150 367v669q0 230 -9 367h416q-8 -122 -8 -367v-180h100q124 186 330 547h473q-81 -98 -243.5 -348t-211.5 -318q68 -93 158.5 -238.5t175.5 -274t168 -224.5h-543q-212 380 -333 565h-74v-198q0 -241 8 -367h-416q9 142 9 367zM541 1505l274 305h440l-366 -305h-348z
" />
    <glyph glyph-name="uni040D" unicode="&#x40d;" horiz-adv-x="1529" 
d="M981 295v379l-459 -416q-91 -81 -284 -283h-99q11 164 11 332v729q0 120 -11 367h420q-10 -143 -10 -367v-278l498 442q79 69 237 230h105q-9 -250 -9 -408v-725q0 -169 9 -297h-416q8 114 8 295zM748 1810l276 -305h-350l-367 305h441z" />
    <glyph glyph-name="uni040E" unicode="&#x40e;" horiz-adv-x="1400" 
d="M541 1237l209 -428l186 440q36 91 41 154h424q-19 -35 -54 -108.5t-44 -90.5l-478 -997q-68 -148 -88 -207h-413q16 25 44 79t42 79l143 266l-424 768q-96 162 -129 211h477q20 -70 64 -166zM602 1765q0 -41 31 -68.5t84 -27.5q54 0 86.5 27.5t32.5 68.5h305
q0 -138 -113 -223.5t-311 -85.5q-196 0 -307 85.5t-111 223.5h303z" />
    <glyph glyph-name="uni040F" unicode="&#x40f;" horiz-adv-x="1521" 
d="M1380 0h-436l-18 -455h-346l-7 455h-432q9 171 9 385v649q0 199 -11 367h420q-10 -102 -10 -367v-706h424v706q0 207 -12 367h419q-8 -78 -8 -361v-624q0 -294 8 -416z" />
    <glyph glyph-name="uni0410" unicode="&#x410;" horiz-adv-x="1527" 
d="M1528 0h-461q-6 19 -51 129l-41 94h-490l-63 -135q-28 -64 -31 -88h-391q97 165 166 311l528 1116h109l551 -1116q51 -108 174 -311zM846 526l-121 289l-117 -289h238z" />
    <glyph glyph-name="uni0411" unicode="&#x411;" horiz-adv-x="1325" 
d="M141 1403h500q254 0 449 10v-307q-187 11 -459 8h-80v-264h225q204 0 325.5 -113t121.5 -295q0 -199 -126 -320.5t-349 -121.5h-609q11 116 11 367v667q0 176 -9 369zM551 567v-282h123q76 0 111.5 40.5t35.5 98.5q0 59 -36 101t-111 42h-123z" />
    <glyph glyph-name="uni0412" unicode="&#x412;" horiz-adv-x="1325" 
d="M143 0q11 116 11 367v600q0 345 -9 436h508q138 0 239.5 -31.5t155 -84t77.5 -110t24 -120.5q0 -93 -43.5 -162.5t-122.5 -108.5q42 -18 80 -45.5t77 -68.5t62 -101t23 -129q0 -88 -34.5 -166t-102 -140.5t-179.5 -99t-256 -36.5h-510zM821 438q0 71 -51 120.5t-133 49.5
h-84v-344h74q194 0 194 174zM553 1149v-281h61q67 0 108.5 36t41.5 104q0 58 -42.5 99.5t-105.5 41.5h-63z" />
    <glyph glyph-name="uni0413" unicode="&#x413;" horiz-adv-x="1142" 
d="M141 0q9 142 9 367v669q0 230 -9 367h650q137 0 290 10v-360q-76 10 -290 10h-240v-696q0 -241 8 -367h-418z" />
    <glyph glyph-name="uni0414" unicode="&#x414;" horiz-adv-x="1710" 
d="M1659 336l-66 -791h-342l15 455h-813l6 -455h-348l-58 791q49 -4 207 -4q23 44 105 211l426 907h127l419 -907q61 -125 109 -211q166 0 213 4zM1010 332l-174 436l-177 -436h351z" />
    <glyph glyph-name="uni0415" unicode="&#x415;" horiz-adv-x="1159" 
d="M659 1073h-108v-190h82q228 0 354 8v-346q-126 8 -354 8h-82v-221h125q234 0 356 8v-348q-122 8 -356 8h-535q9 254 9 367v671q0 228 -9 365h518q168 0 357 12v-350q-84 8 -357 8z" />
    <glyph glyph-name="uni0416" unicode="&#x416;" horiz-adv-x="2144" 
d="M870 367v227h-79q-58 -103 -142 -301.5t-135 -292.5h-514q63 75 123.5 180t101 195t99 200.5t116.5 190.5q-47 69 -178.5 304t-210.5 333h459q48 -86 131.5 -266.5t144.5 -278.5h84v178q0 245 -8 367h414q-6 -183 -6 -367v-178h86q62 98 146.5 278.5t133.5 266.5h457
q-78 -96 -208 -329t-181 -306q59 -80 117.5 -191t99 -201.5t100.5 -195.5t123 -180h-514q-55 99 -139.5 297t-138.5 297h-82v-227q0 -178 6 -367h-414q8 126 8 367z" />
    <glyph glyph-name="uni0417" unicode="&#x417;" horiz-adv-x="1155" 
d="M455 559q-105 0 -164 -12v327q50 -4 178 -4q71 0 111.5 33.5t40.5 81.5q0 50 -42 82.5t-110 32.5q-87 0 -173 -31t-142 -74v361q36 7 97.5 27t120.5 32t130 12q244 0 385 -109t141 -308q0 -92 -57.5 -172t-141.5 -113q96 -34 160 -115t64 -204q0 -196 -141.5 -311
t-381.5 -115q-84 0 -155.5 10.5t-110.5 23t-80 27t-59 18.5v373h2q54 -57 146 -90t194 -33q88 0 129 35.5t41 95.5q0 119 -182 119z" />
    <glyph glyph-name="uni0418" unicode="&#x418;" horiz-adv-x="1529" 
d="M981 295v379l-459 -416q-91 -81 -284 -283h-99q11 164 11 332v729q0 120 -11 367h420q-10 -143 -10 -367v-278l498 442q79 69 237 230h105q-9 -250 -9 -408v-725q0 -169 9 -297h-416q8 114 8 295z" />
    <glyph glyph-name="uni0419" unicode="&#x419;" horiz-adv-x="1529" 
d="M981 295v379l-459 -416q-91 -81 -284 -283h-99q11 164 11 332v729q0 120 -11 367h420q-10 -143 -10 -367v-278l498 442q79 69 237 230h105q-9 -250 -9 -408v-725q0 -169 9 -297h-416q8 114 8 295zM705 1765q0 -41 31 -68.5t83 -27.5q54 0 86.5 27.5t32.5 68.5h305
q0 -138 -113 -223.5t-311 -85.5q-196 0 -307 85.5t-111 223.5h304z" />
    <glyph glyph-name="uni041A" unicode="&#x41a;" horiz-adv-x="1499" 
d="M150 367v669q0 230 -9 367h416q-8 -122 -8 -367v-180h100q124 186 330 547h473q-81 -98 -243.5 -348t-211.5 -318q68 -93 158.5 -238.5t175.5 -274t168 -224.5h-543q-212 380 -333 565h-74v-198q0 -241 8 -367h-416q9 142 9 367z" />
    <glyph glyph-name="uni041B" unicode="&#x41b;" horiz-adv-x="1441" 
d="M864 256q-28 79 -50.5 137.5t-57.5 146t-56 140.5q-99 -211 -227 -537l-49 -143h-424q55 89 158 311l516 1139h104l508 -1139q90 -209 156 -311h-500q-19 81 -78 256z" />
    <glyph glyph-name="uni041C" unicode="&#x41c;" horiz-adv-x="1779" 
d="M1509 1427l166 -1058q32 -221 80 -369h-444q0 44 -13.5 132t-35.5 213.5t-33 205.5l-338 -574h-72l-336 578q-90 -449 -92 -555h-364q9 33 20 89.5t27 143t26 138.5l203 1056h100l494 -866l508 866h104z" />
    <glyph glyph-name="uni041D" unicode="&#x41d;" horiz-adv-x="1566" 
d="M553 1036v-137h461v137q0 224 -10 367h419q-10 -225 -10 -367v-741q0 -153 10 -295h-419q10 95 10 297v270h-461v-272q0 -181 8 -295h-416q9 128 9 297v739q0 243 -9 367h416q-8 -110 -8 -367z" />
    <glyph glyph-name="uni041E" unicode="&#x41e;" horiz-adv-x="1701" 
d="M86 702q0 148 58.5 282.5t159 232.5t243 155.5t303.5 57.5q162 0 305 -57.5t243.5 -155.5t159 -232t58.5 -283t-58.5 -283.5t-159 -232.5t-243.5 -155.5t-305 -57.5q-161 0 -303.5 57.5t-243 155.5t-159 232.5t-58.5 283.5zM489 702q0 -164 103.5 -277.5t257.5 -113.5
t258 113.5t104 277.5t-104 278t-258 114t-257.5 -114t-103.5 -278z" />
    <glyph glyph-name="uni041F" unicode="&#x41f;" horiz-adv-x="1552" 
d="M143 1403h1264q-8 -114 -8 -418v-625q0 -282 8 -360h-420q10 137 10 365v706h-442v-704q0 -262 10 -367h-422q11 173 11 367v651q0 246 -11 385z" />
    <glyph glyph-name="uni0420" unicode="&#x420;" horiz-adv-x="1288" 
d="M553 463v-96q0 -262 10 -367h-420q11 116 11 367v669q0 255 -11 367h539q250 0 390 -130.5t140 -344.5q0 -215 -137.5 -340t-392.5 -125h-129zM553 1102v-338h80q85 0 132.5 51t47.5 117q0 64 -48 117t-132 53h-80z" />
    <glyph glyph-name="uni0421" unicode="&#x421;" horiz-adv-x="1320" 
d="M487 705q0 -160 109.5 -271.5t273.5 -111.5q199 0 320 118v-430q-38 -2 -143 -18.5t-213 -16.5q-218 0 -389.5 98.5t-264 264.5t-92.5 367q0 200 92.5 365.5t264 263.5t389.5 98q104 0 202 -15.5t138 -15.5v-445q-124 127 -308 127q-162 0 -270.5 -109.5t-108.5 -268.5z
" />
    <glyph glyph-name="uni0422" unicode="&#x422;" horiz-adv-x="1361" 
d="M426 1403h506q251 0 373 8v-348q-152 10 -373 10h-47q-2 -76 -2 -262v-444q0 -262 10 -367h-424q10 158 10 367v444q0 148 -6 262h-47q-217 0 -369 -10v348q122 -8 369 -8z" />
    <glyph glyph-name="uni0423" unicode="&#x423;" horiz-adv-x="1400" 
d="M541 1237l209 -428l186 440q36 91 41 154h424q-19 -35 -54 -108.5t-44 -90.5l-478 -997q-68 -148 -88 -207h-413q16 25 44 79t42 79l143 266l-424 768q-96 162 -129 211h477q20 -70 64 -166z" />
    <glyph glyph-name="uni0424" unicode="&#x424;" horiz-adv-x="1779" 
d="M84 709q0 127 44 227.5t125.5 169t190.5 111t246 59.5q0 101 -6 203h410q-7 -119 -7 -203q136 -17 246 -59.5t192.5 -110.5t127.5 -169t45 -228t-45 -228.5t-127.5 -170.5t-192.5 -112t-246 -61q0 -94 9 -213h-412q6 102 6 213q-137 18 -246 61t-190.5 112.5
t-125.5 170.5t-44 228zM1325 709q0 104 -66 166.5t-172 70.5v-479q106 11 172 75t66 167zM457 709q0 -102 65.5 -166.5t167.5 -75.5v479q-105 -9 -169 -71t-64 -166z" />
    <glyph glyph-name="uni0425" unicode="&#x425;" horiz-adv-x="1388" 
d="M817 160l-143 239l-152 -262q-13 -24 -26.5 -48.5t-19.5 -36l-12 -23t-8 -17.5t-3 -12h-453q73 86 236 326l241 383l-239 374q-141 220 -220 320h480q43 -87 90 -168l108 -193l117 201q46 82 84 160h442q-93 -115 -215 -301l-233 -363l250 -381q152 -240 252 -358h-490
q-16 42 -86 160z" />
    <glyph glyph-name="uni0426" unicode="&#x426;" horiz-adv-x="1615" 
d="M1565 336l-68 -791h-340l14 455h-1032q11 139 11 385v649q0 199 -11 367h420q-10 -102 -10 -367v-706h412v706q0 220 -11 367h420q-10 -65 -10 -361v-624v-80h205z" />
    <glyph glyph-name="uni0427" unicode="&#x427;" horiz-adv-x="1488" 
d="M535 999q0 -105 60.5 -154.5t149.5 -49.5q140 0 195 32v361q0 131 -8 215h416q-9 -94 -9 -215v-948q0 -150 11 -240h-418q8 63 8 215v283q-103 -39 -297 -39q-143 0 -256 47t-182.5 146t-69.5 237v299q0 131 -8 215h416q-8 -84 -8 -215v-189z" />
    <glyph glyph-name="uni0428" unicode="&#x428;" horiz-adv-x="2138" 
d="M1995 0h-1856q11 86 11 391v653q0 288 -11 359h396q-13 -173 -13 -363v-725h361v729q0 288 -11 359h396q-13 -173 -13 -363v-725h363v721q0 214 -10 367h391q-10 -153 -10 -367v-649q0 -66 3 -194.5t3 -192.5z" />
    <glyph glyph-name="uni0429" unicode="&#x429;" horiz-adv-x="2230" 
d="M2177 336l-61 -754h-338l6 418h-1645q11 86 11 391v653q0 288 -11 359h396q-13 -173 -13 -363v-708h350v712q0 307 -8 359h396q-13 -173 -13 -363v-708h352v704q0 265 -10 367h391q-10 -153 -10 -367v-649v-51h207z" />
    <glyph glyph-name="uni042A" unicode="&#x42a;" horiz-adv-x="1609" 
d="M326 1403h546q-8 -244 -8 -359v-67h142q121 0 219 -40t160 -107t95 -153t33 -181q0 -93 -36.5 -182t-101 -159t-162.5 -112.5t-212 -42.5h-548q10 105 10 367v667v39h-137q-188 0 -269 -8v346q81 -8 269 -8zM864 645q0 -50 -1 -156.5t-1 -156.5h84q72 0 116 49t44 111
q0 63 -43.5 108t-116.5 45h-82z" />
    <glyph glyph-name="uni042B" unicode="&#x42b;" horiz-adv-x="1839" 
d="M1690 1036v-669q0 -241 8 -367h-398q9 142 9 367v669q0 230 -9 367h398q-8 -122 -8 -367zM532 645q0 -50 -1 -156.5t-1 -156.5h64q72 0 116 49t44 111q0 63 -43.5 108t-116.5 45h-62zM141 1403h402q-11 -168 -11 -359v-67h132q121 0 219 -40t160 -107t95 -153t33 -181
q0 -93 -36.5 -182t-101.5 -159t-162.5 -112.5t-211.5 -42.5h-520q11 116 11 367v667q0 232 -9 369z" />
    <glyph glyph-name="uni042C" unicode="&#x42c;" horiz-adv-x="1343" 
d="M141 1403h420q-10 -153 -10 -359v-67h188q121 0 219 -40t160 -107t95.5 -153t33.5 -181t-33.5 -182.5t-96 -158t-161.5 -113t-221 -42.5h-596q11 116 11 367v667q0 232 -9 369zM551 645v-313h113q74 0 119.5 48.5t45.5 111.5q0 65 -44.5 109t-120.5 44h-113z" />
    <glyph glyph-name="uni042D" unicode="&#x42d;" horiz-adv-x="1327" 
d="M819 553h-162q-191 0 -317 -8v346q126 -8 317 -8h164q-45 83 -133 135.5t-211 52.5q-225 0 -342 -149v438q27 6 80 19t85 20t85.5 13.5t110.5 6.5q173 0 315.5 -56.5t236 -154t144.5 -227.5t51 -279q0 -216 -93.5 -379t-262.5 -250t-391 -87q-72 0 -129 7.5t-126 23
t-102 20.5v424q82 -71 151.5 -99t186.5 -28q112 0 210 59t132 160z" />
    <glyph glyph-name="uni042E" unicode="&#x42e;" horiz-adv-x="2236" 
d="M549 1036v-182h196q47 248 234.5 406.5t456.5 158.5q157 0 290.5 -56.5t224.5 -153.5t142 -228.5t51 -278.5t-51 -278t-142 -228t-224.5 -153.5t-290.5 -56.5q-260 0 -443.5 148t-240.5 384h-203v-151q0 -241 8 -367h-416q9 142 9 367v669q0 230 -9 367h416
q-8 -122 -8 -367zM1139 702q0 -164 80 -272t217 -108q141 0 221 107.5t80 272.5t-80 272t-221 107q-137 0 -217 -107.5t-80 -271.5z" />
    <glyph glyph-name="uni042F" unicode="&#x42f;" horiz-adv-x="1355" 
d="M807 369v127h-80q-38 -53 -135 -246t-141 -250h-451q86 94 204 291t165 262q-72 36 -118.5 80.5t-76 122.5t-29.5 186q0 206 149.5 333.5t422.5 127.5h500q-11 -112 -11 -367v-667q0 -253 11 -369h-420q10 105 10 369zM807 780v307h-98q-76 0 -119 -43t-43 -102
q0 -64 46 -113t114 -49h100z" />
    <glyph glyph-name="uni0430" unicode="&#x430;" horiz-adv-x="1103" 
d="M401 725q-150 0 -249 -96v297q23 2 73 20.5t124 34.5t163 16q219 0 326.5 -118.5t107.5 -327.5v-213q0 -76 53 -76q39 0 56 10v-211q-49 -42 -102.5 -64t-133.5 -22q-78 0 -125.5 26t-81.5 75q-90 -101 -233 -101q-140 0 -225.5 84t-85.5 220q0 135 88 225t237 90
q56 0 107 -12t75 -27v39q0 64 -45.5 97.5t-128.5 33.5zM428 291q0 -32 23 -54t55 -22t55 22t23 54q0 29 -23 50t-55 21t-55 -21t-23 -50z" />
    <glyph glyph-name="uni0431" unicode="&#x431;" horiz-adv-x="1173" 
d="M991 1468v-352q-84 -47 -329 -78q-149 -20 -214 -78t-75 -145q40 45 110.5 75t159.5 30q200 0 325.5 -130t125.5 -331q0 -206 -137 -339.5t-357 -133.5q-159 0 -276.5 85t-175.5 224.5t-58 312.5q0 170 43 308.5t120.5 232.5t177.5 153t220 82q224 43 340 84zM451 457
q0 -61 42.5 -103.5t102.5 -42.5q58 0 99.5 40.5t41.5 97.5q0 58 -42 99.5t-101 41.5t-101 -39t-42 -94z" />
    <glyph glyph-name="uni0432" unicode="&#x432;" horiz-adv-x="1130" 
d="M625 0h-506q10 102 10 250v414q0 61 -2 98h-100q49 102 73 215h502q214 0 311 -65.5t97 -192.5q0 -64 -44 -123.5t-104 -71.5q189 -52 189 -219q0 -141 -103.5 -223t-322.5 -82zM684 311q0 34 -31 55t-84 21h-77v-156h86q106 0 106 80zM492 745v-172h67q43 0 68.5 25
t25.5 70q0 34 -27.5 55.5t-68.5 21.5h-65z" />
    <glyph glyph-name="uni0433" unicode="&#x433;" horiz-adv-x="929" 
d="M121 0q8 118 8 369v260q0 88 -2 133h-104q49 102 73 215h506q29 0 73.5 -0.5t66.5 -0.5t50.5 1t48 3t36.5 5v-336q-79 8 -275 8h-92v-288q0 -251 8 -369h-397z" />
    <glyph glyph-name="uni0434" unicode="&#x434;" horiz-adv-x="1314" 
d="M1270 291l-60 -651h-297l17 360h-545l2 -360h-297l-45 651q9 0 72.5 -1t103.5 -1l246 532q35 82 4 156h305l314 -688q47 0 107 1t73 1zM707 289l-99 260l-104 -260h203z" />
    <glyph glyph-name="uni0435" unicode="&#x435;" horiz-adv-x="1091" 
d="M1024 410h-600q71 -138 250 -138q125 0 231 56v-305q-23 0 -120 -19.5t-179 -19.5q-151 0 -275 66t-194.5 180.5t-70.5 254.5q0 213 139.5 361.5t343.5 148.5q137 0 247 -68.5t171 -185t61 -256.5q0 -43 -4 -75zM537 725q-44 0 -78.5 -35t-46.5 -88h241q-5 46 -34.5 84.5
t-81.5 38.5z" />
    <glyph glyph-name="uni0436" unicode="&#x436;" horiz-adv-x="1699" 
d="M518 831l119 -204h37v92q0 193 -6 258h370q-6 -64 -6 -258v-92h39l133 225q49 79 70 125h371v-2q-32 -34 -117 -164l-191 -297l234 -344q12 -17 34 -48.5t32 -45.5t27.5 -35t35.5 -41h-420q-9 40 -55 125l-158 274h-35v-135q0 -200 6 -264h-370q6 129 6 264v135h-37
l-160 -274q-45 -74 -61 -125h-416q62 67 129 168l240 338l-176 282q-76 119 -138 189h381q24 -57 82 -146z" />
    <glyph glyph-name="uni0437" unicode="&#x437;" horiz-adv-x="993" 
d="M426 373q-141 0 -168 -6v241q16 -2 164 -2q43 0 72.5 17t29.5 47q0 28 -31.5 46.5t-93.5 18.5q-77 0 -155.5 -23t-114.5 -59v299q204 43 330 43q204 0 309.5 -81.5t105.5 -215.5q0 -67 -49 -118.5t-112 -67.5q65 -10 131.5 -70t66.5 -153q0 -137 -124 -220t-326 -83
q-90 0 -157.5 9t-124.5 23t-73 17v293h3q34 -39 127.5 -61.5t181.5 -22.5q143 0 143 71q0 58 -135 58z" />
    <glyph glyph-name="uni0438" unicode="&#x438;" horiz-adv-x="1202" 
d="M729 203v164l-280 -228q-82 -66 -173 -157h-157q10 137 10 219v520v41h-106q49 102 73 215h389q-6 -91 -6 -256v-166l346 301q93 81 140 139h120q-6 -117 -6 -288v-504q0 -147 6 -203h-360q4 74 4 203z" />
    <glyph glyph-name="uni0439" unicode="&#x439;" horiz-adv-x="1202" 
d="M729 203v164l-280 -228q-82 -66 -173 -157h-157q10 137 10 219v520v41h-106q49 102 73 215h389q-6 -91 -6 -256v-166l346 301q93 81 140 139h120q-6 -117 -6 -288v-504q0 -147 6 -203h-360q4 74 4 203zM522 1436q0 -61 31.5 -98.5t75.5 -37.5q47 0 77.5 37t30.5 99h262
q0 -150 -108.5 -256.5t-263.5 -106.5q-152 0 -258.5 106.5t-106.5 256.5h260z" />
    <glyph glyph-name="uni043A" unicode="&#x43a;" horiz-adv-x="1243" 
d="M129 264v455v43h-109q50 106 74 215h422q-6 -64 -6 -258v-92h29l159 225q55 81 76 125h410q-97 -109 -142 -166l-192 -268l254 -373q54 -78 139 -170h-457q-12 46 -69 125l-185 274h-22v-135q0 -200 6 -264h-395q8 86 8 264z" />
    <glyph glyph-name="uni043B" unicode="&#x43b;" horiz-adv-x="1165" 
d="M670 174l-115 293l-117 -293q-40 -93 -57 -174h-381q44 81 102 215l287 610q19 40 19.5 73.5t-17.5 78.5h309l353 -762q8 -16 27 -56t29.5 -61t26 -50t29.5 -48h-444q-14 85 -51 174z" />
    <glyph glyph-name="uni043C" unicode="&#x43c;" horiz-adv-x="1347" 
d="M920 985h235l113 -727q20 -140 49 -258h-383q-4 70 -16 154l-31 202l-180 -376h-89l-192 380l-31 -180q-18 -116 -24 -180h-344q43 169 59 256l129 729h236l241 -493z" />
    <glyph glyph-name="uni043D" unicode="&#x43d;" horiz-adv-x="1247" 
d="M489 727v-98h275v98q0 132 -4 250h370q-6 -95 -6 -250v-526q0 -90 6 -201h-370q4 74 4 203v166h-275v-168q0 -109 5 -201h-371q6 56 6 203v524v35h-100q49 102 73 215h392q-5 -102 -5 -250z" />
    <glyph glyph-name="uni043E" unicode="&#x43e;" horiz-adv-x="1185" 
d="M66 489q0 138 70.5 255t191.5 185t264 68t264.5 -68t192.5 -185t71 -255q0 -137 -71 -253t-192.5 -183t-264.5 -67t-264 67t-191.5 183t-70.5 253zM426 489q0 -74 48 -125t118 -51q69 0 118.5 51.5t49.5 124.5q0 75 -49.5 127t-118.5 52q-70 0 -118 -52t-48 -127z" />
    <glyph glyph-name="uni043F" unicode="&#x43f;" horiz-adv-x="1249" 
d="M129 256v469v37h-106q49 102 73 215h1043q-15 -154 -15 -289v-440q0 -174 11 -248h-396q6 171 6 256v403h-235v-403q0 -92 8 -256h-395q6 123 6 256z" />
    <glyph glyph-name="uni0440" unicode="&#x440;" horiz-adv-x="1302" 
d="M129 -289v1055h-106q46 102 75 211h412v-94q63 58 127.5 86t150.5 28q129 0 233.5 -67t162 -179.5t57.5 -244.5q0 -144 -61.5 -263.5t-171.5 -189t-244 -69.5q-175 0 -254 59v-332q0 -129 8 -205h-395q6 86 6 205zM502 489q0 -79 53 -134.5t127 -55.5q69 0 119.5 55.5
t50.5 134.5q0 78 -49.5 134.5t-118.5 56.5q-74 0 -128 -56.5t-54 -134.5z" />
    <glyph glyph-name="uni0441" unicode="&#x441;" horiz-adv-x="923" 
d="M428 487q0 -73 54.5 -125.5t131.5 -52.5q119 0 199 97v-400q-11 -1 -77.5 -10.5t-129.5 -9.5q-120 0 -223.5 39.5t-174.5 107.5t-111 159.5t-40 194.5q0 141 68.5 257t195 184.5t285.5 68.5q40 0 109.5 -10.5t89.5 -11.5v-393q-39 42 -81.5 65t-109.5 23q-78 0 -132 -54
t-54 -129z" />
    <glyph glyph-name="uni0442" unicode="&#x442;" horiz-adv-x="1073" 
d="M315 977h441q221 0 266 4v-326q-90 4 -266 4h-29v-403q0 -194 6 -256h-393q6 123 6 256v403h-31q-180 0 -262 -4v326q82 -4 262 -4z" />
    <glyph glyph-name="uni0443" unicode="&#x443;" horiz-adv-x="1200" 
d="M598 -268q-80 -130 -180.5 -184t-249.5 -54q-52 0 -115 19q96 105 146 178q157 224 241 385l-334 698q-63 123 -106 203h442q13 -64 43 -133l150 -346q52 136 113 338q13 37 32 141h420q-22 -39 -54.5 -109.5t-45.5 -105.5q-210 -503 -295 -670q-90 -177 -207 -360z" />
    <glyph glyph-name="uni0444" unicode="&#x444;" horiz-adv-x="1462" 
d="M537 -203v209q-236 34 -356 156.5t-120 326.5q0 198 121 328t355 166v193h-107q50 111 76 215h407q-8 -63 -8 -215v-193q234 -36 355.5 -165.5t121.5 -328.5q0 -202 -120.5 -325.5t-356.5 -157.5v-209q0 -139 15 -207h-392q9 68 9 207zM1075 489q0 181 -170 232v-465
q170 53 170 233zM367 489q0 -181 170 -233v465q-170 -49 -170 -232z" />
    <glyph glyph-name="uni0445" unicode="&#x445;" horiz-adv-x="1110" 
d="M575 174l-32 59l-33 -63q-41 -69 -72 -170h-438q64 74 168 236l172 253l-188 310q-58 99 -129 178h448q22 -77 68 -156l32 -63l41 67q45 80 74 152h412q-101 -126 -135 -178l-191 -295l158 -268q102 -163 180 -236h-453q-33 79 -82 174z" />
    <glyph glyph-name="uni0446" unicode="&#x446;" horiz-adv-x="1351" 
d="M954 -360l4 360h-839q10 102 10 291v471h-94q50 106 74 215h409q-6 -171 -6 -256v-404h207v404q0 143 -10 256h397q-8 -180 -8 -256v-424h211l-54 -657h-301z" />
    <glyph glyph-name="uni0447" unicode="&#x447;" horiz-adv-x="1204" 
d="M487 692q0 -119 115 -119q43 0 94 15v180q0 130 -10 209h401q-10 -79 -10 -209v-537q0 -129 13 -231h-404q10 56 10 203v104q-113 -33 -219 -33q-173 0 -272 91.5t-99 277.5v119h-100q50 106 74 215h414q-7 -123 -7 -209v-76z" />
    <glyph glyph-name="uni0448" unicode="&#x448;" horiz-adv-x="1736" 
d="M1622 0h-1501q8 54 8 346v406v10h-106q49 102 73 215h406q-6 -234 -6 -256v-424h190l4 426q0 196 -8 254h377q-4 -59 -4 -256v-424h192v424q0 115 -6 256h379q-6 -141 -6 -256v-383q0 -221 8 -338z" />
    <glyph glyph-name="uni0449" unicode="&#x449;" horiz-adv-x="1863" 
d="M1466 -360l4 360h-1349q8 54 8 346v406v10h-106q49 102 73 215h406q-6 -234 -6 -256v-424h190l4 426q0 196 -8 254h377q-4 -59 -4 -256v-424h192v424q0 115 -6 256h379q-6 -141 -6 -256v-383v-41h207l-54 -657h-301z" />
    <glyph glyph-name="uni044A" unicode="&#x44a;" horiz-adv-x="1335" 
d="M823 0h-489q6 58 6 227v432l-287 -6v330q138 -6 283 -6h383q-6 -76 -6 -234v-24h166q176 0 286.5 -101.5t110.5 -255.5q0 -161 -119.5 -261.5t-333.5 -100.5zM909 356q0 48 -34 79.5t-99 31.5h-63v-221h65q67 0 99 30t32 80z" />
    <glyph glyph-name="uni044B" unicode="&#x44b;" horiz-adv-x="1624" 
d="M565 0h-448q6 58 6 227v516q0 158 -4 234h373q-7 -89 -7 -234v-24h129q173 0 285.5 -99t112.5 -258q0 -161 -120 -261.5t-327 -100.5zM643 358q0 46 -32.5 77.5t-92.5 31.5h-33v-221h35q62 0 92.5 31t30.5 81zM1501 772v-567q0 -147 6 -205h-372q4 43 4 205v567
q0 138 -6 205h374q-6 -68 -6 -205z" />
    <glyph glyph-name="uni044C" unicode="&#x44c;" horiz-adv-x="1124" 
d="M629 0h-512q6 58 6 227v516q0 158 -4 234h383q-6 -76 -6 -217v-41h151q190 0 302 -99t112 -251q0 -163 -117.5 -266t-314.5 -103zM694 356q0 48 -33.5 79.5t-95.5 31.5h-69v-221h71q127 0 127 110z" />
    <glyph glyph-name="uni044D" unicode="&#x44d;" horiz-adv-x="976" 
d="M565 375h-102q-151 0 -219 -6v239q45 -6 219 -6h104q-20 56 -74.5 88.5t-130.5 32.5q-142 0 -241 -80v320q18 2 67.5 11t95.5 14t103 5q122 0 223.5 -39t169 -107t105 -159.5t37.5 -195.5q0 -103 -36 -195t-102.5 -162t-169 -110.5t-227.5 -40.5q-67 0 -156 15t-118 17
v314q54 -40 109.5 -59t139.5 -19q166 0 203 123z" />
    <glyph glyph-name="uni044E" unicode="&#x44e;" horiz-adv-x="1714" 
d="M512 750v-144h145q35 179 167.5 284t318.5 105q142 0 260 -67t185 -181.5t67 -250.5q0 -139 -67 -256t-185 -185.5t-260 -68.5q-173 0 -304.5 95.5t-174.5 270.5h-152v-123q0 -118 6 -229h-393q0 12 2 95.5t2 133.5v521v14h-106q48 98 73 213h422q-6 -111 -6 -227z
M993 492q0 -86 41.5 -143.5t108.5 -57.5q66 0 107.5 57.5t41.5 143.5q0 82 -41.5 139t-107.5 57t-108 -57t-42 -139z" />
    <glyph glyph-name="uni044F" unicode="&#x44f;" horiz-adv-x="1167" 
d="M678 260v55h-60q-22 -36 -72.5 -158.5t-78.5 -156.5h-444q40 34 88 104t101.5 140.5t111.5 113.5q-94 31 -160 104.5t-66 178.5q0 155 115.5 245.5t353.5 90.5h484q-7 -55 -7 -258v-459q0 -210 7 -260h-381q8 86 8 260zM678 551v178h-103q-51 0 -80.5 -25.5t-29.5 -60.5
q0 -40 28 -66t82 -26h103z" />
    </font>
</defs>
</svg>
