<?xml version="1.0" standalone="no"?>
<!DOCTYPE svg PUBLIC "-//W3C//DTD SVG 1.1//EN" "http://www.w3.org/Graphics/SVG/1.1/DTD/svg11.dtd" >
<svg xmlns="http://www.w3.org/2000/svg" xmlns:xlink="http://www.w3.org/1999/xlink" version="1.1">
<metadata>
Created by FontForge 20170731 at Fri Dec 17 20:21:08 2021
 By Aleksey,,,
(c) 2007 Adobe Systems Incorporated. All Rights Reserved.
</metadata>
<defs>
<font id="HypatiaSansPro-Light" horiz-adv-x="980" >
  <font-face 
    font-family="Hypatia Sans Pro Light"
    font-weight="300"
    font-stretch="normal"
    units-per-em="2048"
    panose-1="2 11 3 2 2 2 4 2 3 3"
    ascent="1503"
    descent="-545"
    x-height="905"
    cap-height="1403"
    bbox="-383 -549 3803 2036"
    underline-thickness="94"
    underline-position="-284"
    unicode-range="U+0020-FB06"
  />
<missing-glyph horiz-adv-x="946" 
d="M0 0v1325h946v-1325h-946zM152 94h643l-322 484zM530 664l322 -484v967zM94 1147v-967l322 484zM152 1231l321 -483l322 483h-643z" />
    <glyph glyph-name="f_f" unicode="ff" horiz-adv-x="1011" 
d="M545 1479q124 0 213 -66q32 42 88 74.5t127 32.5q37 0 87 -8.5t64 -8.5v-117q-48 48 -137 48q-91 0 -147 -72t-56 -219v-238h197v-80h-197v-612q0 -115 4 -213h-110q4 98 4 213v612h-389v-612q0 -115 4 -213h-111q4 98 4 213v612h-149v80h149v152q0 197 99.5 309.5
t255.5 112.5zM293 1059v-154h389v230q0 118 31 198q-61 58 -162 58q-120 0 -189 -89t-69 -243z" />
    <glyph glyph-name="f_f_i" unicode="ffi" horiz-adv-x="1417" 
d="M1270 702v-489q0 -151 6 -213h-113q4 45 4 213v610h-383v-610q0 -115 4 -213h-110q4 98 4 213v610h-389v-610q0 -115 4 -213h-111q4 98 4 213v610h-153v82h153v135q0 95 21.5 172t56 125.5t81.5 81.5t95.5 46.5t100.5 13.5q144 0 233 -80q38 50 105.5 85.5t152.5 35.5
q55 0 94.5 -9.5t74 -26t46.5 -20.5v-125q-42 50 -92 73.5t-119 23.5q-113 0 -184.5 -88t-71.5 -256v-187h492q-6 -71 -6 -203zM293 905h389v189q0 131 47 227q-70 74 -184 74q-107 0 -179.5 -86.5t-72.5 -255.5v-148z" />
    <glyph glyph-name="f_f_l" unicode="ffl" horiz-adv-x="1419" 
d="M1042 1432q-115 0 -186.5 -83.5t-71.5 -254.5v-189h199v-82h-199v-610q0 -115 4 -213h-110q4 98 4 213v610h-389v-610q0 -115 4 -213h-111q4 98 4 213v610h-149v82h149v150q0 105 29.5 187.5t80 133.5t114.5 77t137 26q143 0 229 -78q96 115 269 115q70 0 138 -21.5
t87 -21.5h6q-6 -71 -6 -228v-1032q0 -151 6 -213h-113q4 45 4 213v1184q-20 14 -57 24.5t-72 10.5zM293 905h389v185q0 126 47 233q-69 72 -176 72q-115 0 -187.5 -85.5t-72.5 -250.5v-154z" />
    <glyph glyph-name="longs_t" unicode="&#x17f;t" horiz-adv-x="1081" 
d="M535 905h149v176q0 346 -188 346q-107 0 -155 -87t-48 -259v-866q0 -166 4 -215h-111q4 98 4 215v604h-149v86h149v178q0 433 308 433q145 0 216.5 -113.5t71.5 -319.5v-178h256v-86h-256v-543q0 -103 41 -153.5t107 -50.5q56 0 80 24v-104q-13 0 -48 -4t-51 -4
q-116 0 -173.5 78t-57.5 206v551h-149v86z" />
    <glyph glyph-name="T_h" unicode="Th" horiz-adv-x="1970" 
d="M1733 213v317q0 140 -64.5 222t-181.5 82q-119 0 -179.5 -83t-60.5 -219v-319q0 -119 4 -213h-112q6 70 6 213v1102h-469q-2 -76 -2 -264v-684q0 -262 10 -367h-129q10 158 10 367v684q0 150 -6 264h-166q-189 0 -346 -10v106q126 -8 346 -8h858q-4 -98 -4 -213v-430
q33 76 103.5 118t156.5 42q163 0 246.5 -107t83.5 -285v-315q0 -166 4 -213h-115q7 82 7 213z" />
    <glyph glyph-name="f_b" unicode="fb" horiz-adv-x="1673" 
d="M782 1260v-570q48 110 148 170t213 60q188 0 318 -135.5t130 -329.5q0 -196 -131.5 -332.5t-320.5 -136.5q-110 0 -209 60t-148 165q0 -119 9 -211h-111v1397q-56 35 -123 35q-71 0 -123.5 -27t-82.5 -75t-44 -107.5t-14 -132.5v-185h201v-82h-201v-610q0 -115 4 -213
h-111q4 98 4 213v610h-149v82h149v176q0 111 29 196t80 136.5t115.5 77t140.5 25.5q73 0 138.5 -21.5t94.5 -21.5q-6 -71 -6 -213zM776 453q0 -157 104 -268t250 -111t249.5 111t103.5 268q0 156 -105.5 267t-251.5 111q-147 0 -248.5 -110.5t-101.5 -267.5z" />
    <glyph glyph-name="f_f_b" unicode="ffb" horiz-adv-x="2164" 
d="M1042 1432q-113 0 -185.5 -83.5t-72.5 -250.5v-193h199v-82h-199v-610q0 -115 4 -213h-110q4 98 4 213v610h-389v-610q0 -115 4 -213h-111q4 98 4 213v610h-149v82h149v156q0 196 102 307t255 111q73 0 135 -23t98 -55q40 50 109 82.5t160 32.5q67 0 138 -21.5t87 -21.5
h6q-6 -72 -6 -220v-563q48 110 147.5 170t212.5 60q190 0 319.5 -135.5t129.5 -329.5q0 -197 -131.5 -333t-321.5 -136q-110 0 -208.5 60t-147.5 167q0 -131 4 -213h-111q4 66 4 213v1184q-20 14 -57 24.5t-72 10.5zM1270 453q0 -157 102.5 -268t247.5 -111q149 0 252.5 111
t103.5 268q0 156 -105.5 267t-250.5 111q-148 0 -249 -110t-101 -268zM293 905h389v191q0 120 47 227q-69 72 -176 72q-113 0 -186.5 -84.5t-73.5 -241.5v-164z" />
    <glyph glyph-name="f_f_h" unicode="ffh" horiz-adv-x="1996" 
d="M1042 1432q-115 0 -186.5 -83.5t-71.5 -254.5v-189h199v-82h-199v-610q0 -115 4 -213h-110q4 98 4 213v610h-389v-610q0 -115 4 -213h-111q4 98 4 213v610h-149v82h149v150q0 105 29.5 187.5t80 133.5t114.5 77t137 26q143 0 229 -78q96 115 269 115q70 0 138 -21.5
t87 -21.5h6q-6 -71 -6 -228v-485q37 72 107.5 116t152.5 44q164 0 246 -105.5t82 -286.5v-315q0 -143 6 -213h-113q0 21 2 98.5t2 114.5v317q0 140 -64.5 222t-181.5 82q-110 0 -173 -80.5t-66 -208.5v-332q0 -151 6 -213h-113q4 45 4 213v1184q-20 14 -57 24.5t-72 10.5z
M293 905h389v185q0 126 47 233q-69 72 -176 72q-115 0 -187.5 -85.5t-72.5 -250.5v-154z" />
    <glyph glyph-name="f_f_j" unicode="ffj" horiz-adv-x="1417" 
d="M1270 692v-866q0 -171 -69.5 -268t-205.5 -97q-38 0 -79 6.5t-42 6.5v102q33 -29 101 -29q88 0 140 74.5t52 212.5v989h-383v-610q0 -115 4 -213h-110q4 98 4 213v610h-389v-610q0 -115 4 -213h-111q4 98 4 213v610h-153v82h153v135q0 95 21.5 172t56 125.5t81.5 81.5
t95.5 46.5t100.5 13.5q144 0 233 -80q38 50 105.5 85.5t152.5 35.5q55 0 94.5 -9.5t74 -26t46.5 -20.5v-125q-42 50 -92 73.5t-119 23.5q-113 0 -184.5 -88t-71.5 -256v-187h492q-6 -76 -6 -213zM293 905h389v189q0 131 47 227q-70 74 -184 74q-107 0 -179.5 -86.5
t-72.5 -255.5v-148z" />
    <glyph glyph-name="f_f_k" unicode="ffk" horiz-adv-x="1845" 
d="M1042 1432q-115 0 -186.5 -83.5t-71.5 -254.5v-189h199v-82h-199v-610q0 -115 4 -213h-110q4 98 4 213v610h-389v-610q0 -115 4 -213h-111q4 98 4 213v610h-149v82h149v150q0 105 29.5 187.5t80 133.5t114.5 77t137 26q143 0 229 -78q96 115 269 115q70 0 138 -21.5
t87 -21.5h6q-6 -71 -6 -228v-780q213 242 276 317t97 123h131q-73 -68 -394 -434q221 -238 299 -318t162 -153h-151q-32 40 -101 114t-319 335v-236q0 -151 6 -213h-113q4 45 4 213v1184q-20 14 -57 24.5t-72 10.5zM293 905h389v185q0 126 47 233q-69 72 -176 72
q-115 0 -187.5 -85.5t-72.5 -250.5v-154z" />
    <glyph glyph-name="f_f_t" unicode="fft" horiz-adv-x="1542" 
d="M535 1479q134 0 221 -64q75 103 213 103q31 0 60 -3.5t55 -9t38 -6.5v-113q-43 46 -141 46q-93 0 -145 -76t-52 -211v-240h363v39q0 42 -6 189h112q-4 -98 -4 -189v-39h256v-80h-256v-526q0 -115 41 -167t109 -52q55 0 76 24v-104q-12 0 -46.5 -4t-50.5 -4
q-105 0 -168 68t-63 221v544h-363v-612q0 -164 4 -213h-110q4 98 4 213v612h-389v-612q0 -139 6 -213h-113q4 98 4 213v612h-149v80h149v168q0 180 98.5 293t246.5 113zM293 1075v-170h389v236q0 109 29 194q-56 56 -172 56q-106 0 -176 -90.5t-70 -225.5z" />
    <glyph glyph-name="f_h" unicode="fh" horiz-adv-x="1507" 
d="M784 1260v-500q33 76 103.5 118t156.5 42q161 0 244.5 -107t83.5 -285v-315q0 -143 6 -213h-112q4 94 4 213v317q0 140 -64.5 222t-181.5 82q-119 0 -179.5 -83t-60.5 -219v-319q0 -69 7 -213h-115q6 68 6 213v1184q-56 35 -123 35q-71 0 -123.5 -27t-82.5 -75
t-44 -107.5t-14 -132.5v-185h201v-82h-201v-610q0 -115 4 -213h-111q5 123 5 213v610h-150v82h150v176q0 111 29 196t79.5 136.5t115 77t140.5 25.5q73 0 139 -21.5t95 -21.5q-7 -82 -7 -213z" />
    <glyph glyph-name="f_i" unicode="fi" horiz-adv-x="927" 
d="M778 694v-481q0 -90 6 -213h-114q6 68 6 213v612h-383v-612q0 -115 4 -213h-111q4 98 4 213v612h-149v80h149v187q0 108 29.5 192t80 134.5t113.5 76t136 25.5q53 0 95 -11.5t72.5 -26t43.5 -16.5v-125q-88 95 -209 95q-110 0 -184 -84.5t-74 -249.5v-197h491
q-6 -141 -6 -211z" />
    <glyph glyph-name="f_j" unicode="fj" horiz-adv-x="927" 
d="M780 692v-866q0 -171 -69 -268t-205 -97q-38 0 -79 6.5t-42 6.5v102q33 -29 100 -29q88 0 140.5 74.5t52.5 212.5v991l-2 -2h-383v-610q0 -115 4 -213h-111q4 98 4 213v610h-149v82h149v187q0 108 29.5 192t80 134.5t113.5 76t136 25.5q53 0 95 -11.5t72.5 -26
t43.5 -16.5v-125q-88 95 -209 95q-110 0 -184 -84.5t-74 -249.5v-197h493q-6 -76 -6 -213z" />
    <glyph glyph-name="f_k" unicode="fk" horiz-adv-x="1355" 
d="M784 1260v-793q42 48 125.5 141.5t143.5 163.5t106 133h131q-92 -87 -391 -436q304 -336 457 -469h-150q-45 50 -103 112.5t-95.5 101.5t-116.5 121t-107 111v-233q0 -69 7 -213h-115q6 68 6 213v1184q-56 35 -123 35q-71 0 -123.5 -27t-82.5 -75t-44 -107.5t-14 -132.5
v-185h201v-82h-201v-610q0 -115 4 -213h-111q5 123 5 213v610h-150v82h150v176q0 111 29 196t79.5 136.5t115 77t140.5 25.5q73 0 139 -21.5t95 -21.5q-7 -82 -7 -213z" />
    <glyph glyph-name="f_l" unicode="fl" horiz-adv-x="929" 
d="M782 1260v-1047q0 -90 6 -213h-114q6 68 6 213v1184q-56 35 -123 35q-71 0 -123.5 -27t-82.5 -75t-44 -107.5t-14 -132.5v-185h201v-82h-201v-610q0 -115 4 -213h-111q4 98 4 213v610h-149v82h149v176q0 111 29 196t80 136.5t115.5 77t140.5 25.5q73 0 138.5 -21.5
t94.5 -21.5q-6 -71 -6 -213z" />
    <glyph glyph-name="f_t" unicode="ft" horiz-adv-x="1091" 
d="M41 825v80h149v236q0 184 78 279.5t209 95.5q28 0 56 -3.5t54.5 -9t37.5 -6.5v-113q-41 46 -133 46q-95 0 -147 -75.5t-52 -209.5v-240h399v39q0 91 -4 189h111q-4 -98 -4 -189v-39h256v-80h-256v-526q0 -116 41 -167.5t110 -51.5q52 0 76 24v-104q-13 0 -47 -4t-51 -4
q-104 0 -168 68.5t-64 220.5v544h-399v-612q0 -164 4 -213h-111q4 98 4 213v612h-149z" />
    <glyph glyph-name="longs_b" unicode="&#x17f;b" horiz-adv-x="1675" 
d="M782 1260v-570q48 110 148 170t213 60q188 0 318 -135.5t130 -329.5q0 -196 -131.5 -332.5t-320.5 -136.5q-110 0 -209 60t-148 165q0 -119 9 -211h-111v1397q-56 35 -123 35q-71 0 -123.5 -27t-82.5 -75t-44 -107.5t-14 -132.5v-877q0 -115 4 -213h-111q4 98 4 213v606
h-149v86h149v176q0 111 29 196t80 136.5t115.5 77t140.5 25.5q73 0 138.5 -21.5t94.5 -21.5q-6 -71 -6 -213zM776 453q0 -157 104 -268t250 -111t249.5 111t103.5 268q0 156 -105.5 267t-251.5 111q-147 0 -248.5 -110.5t-101.5 -267.5z" />
    <glyph glyph-name="longs_h" unicode="&#x17f;h" horiz-adv-x="1509" 
d="M782 1260v-500q33 76 103.5 118t156.5 42q161 0 244.5 -107t83.5 -285v-315q0 -143 6 -213h-112q4 94 4 213v317q0 140 -64.5 222t-181.5 82q-118 0 -179 -83t-61 -219v-319q0 -131 4 -213h-110q4 90 4 213v1184q-56 35 -123 35q-71 0 -123.5 -27t-82.5 -75t-44 -107.5
t-14 -132.5v-877q0 -115 4 -213h-111q4 98 4 213v606h-149v86h149v176q0 111 29 196t80 136.5t115.5 77t140.5 25.5q73 0 138.5 -21.5t94.5 -21.5q-6 -71 -6 -213z" />
    <glyph glyph-name="longs_i" unicode="&#x17f;i" horiz-adv-x="923" 
d="M293 1085v-872q0 -115 4 -213h-111q4 98 4 213v606h-149v86h149v187q0 108 29.5 192.5t80 134.5t113 75.5t132.5 25.5q54 0 97 -11.5t73.5 -25.5t44.5 -17v-125q-83 95 -211 95q-109 0 -182.5 -88t-73.5 -263zM782 692v-477q0 -153 6 -215h-114q6 68 6 215v621h-92
q9 6 17 15.5t12.5 15.5t12.5 19.5t11 18.5h147q-6 -71 -6 -213z" />
    <glyph glyph-name="longs_k" unicode="&#x17f;k" horiz-adv-x="1351" 
d="M782 1260v-791q41 48 124.5 141t142.5 162.5t106 132.5h131q-92 -88 -391 -436q304 -336 457 -469h-150q-45 50 -102.5 112t-94.5 100.5t-116.5 121t-106.5 110.5v-231q0 -131 4 -213h-110q4 90 4 213v1184q-56 35 -123 35q-71 0 -123.5 -27t-82.5 -75t-44 -107.5
t-14 -132.5v-877q0 -115 4 -213h-111q4 98 4 213v606h-149v86h149v176q0 111 29 196t80 136.5t115.5 77t140.5 25.5q73 0 138.5 -21.5t94.5 -21.5q-6 -71 -6 -213z" />
    <glyph glyph-name="longs_l" unicode="&#x17f;l" horiz-adv-x="931" 
d="M782 1260v-1047q0 -131 4 -213h-110q4 90 4 213v1184q-56 35 -123 35q-71 0 -123.5 -27t-82.5 -75t-44 -107.5t-14 -132.5v-877q0 -115 4 -213h-111q4 98 4 213v606h-149v86h149v176q0 111 29 196t80 136.5t115.5 77t140.5 25.5q73 0 138.5 -21.5t94.5 -21.5
q-6 -71 -6 -213z" />
    <glyph glyph-name="longs_longs_i" unicode="&#x17f;&#x17f;i" horiz-adv-x="1419" 
d="M293 1026v-813q0 -36 1 -113.5t1 -99.5h-109q4 98 4 213v606h-149v86h149v119q0 100 20.5 179.5t54.5 130.5t81 84.5t96 47t103 13.5q144 0 233 -80q39 51 106.5 86t155.5 35q55 0 95.5 -11t70.5 -26t45 -19v-123q-88 95 -207 95q-120 0 -190 -91.5t-70 -259.5v-872
q0 -115 4 -213h-108q0 22 1 99.5t1 113.5v606h-152v86h152v191q0 138 47 227q-62 70 -182 70q-114 0 -184 -89.5t-70 -277.5zM1270 692v-477q0 -153 6 -215h-115q6 68 6 215v621h-92q9 6 17 15.5t12.5 15.5t12.5 19.5t11 18.5h148q-6 -71 -6 -213z" />
    <glyph glyph-name="longs_longs_l" unicode="&#x17f;&#x17f;l" horiz-adv-x="1419" 
d="M293 1059v-846q0 -115 4 -213h-111q4 98 4 213v606h-149v86h149v150q0 105 29.5 187.5t80 133.5t114.5 77t137 26q143 0 229 -78q96 115 269 115q70 0 138 -21.5t87 -21.5h6q-6 -71 -6 -228v-1032q0 -151 6 -213h-113q4 45 4 213v1184q-20 14 -57 24.5t-72 10.5
q-115 0 -186.5 -83.5t-71.5 -254.5v-881q0 -115 4 -213h-110q4 98 4 213v606h-152v86h152v185q0 126 47 233q-69 72 -176 72q-115 0 -187.5 -85.5t-72.5 -250.5z" />
    <glyph glyph-name="t_f" unicode="tf" horiz-adv-x="954" 
d="M285 819v-530q0 -114 41 -165.5t110 -51.5q52 0 76 24v-104q-13 0 -47 -4t-51 -4q-104 0 -168 68t-64 220v547h-149v86h149v47q0 108 -6 181h115q-6 -73 -6 -181v-47h338v236q0 177 75.5 276t208.5 99q37 0 91 -9t63 -10v-115q-43 48 -137 48q-95 0 -147 -75t-52 -210
v-240h195v-86h-195v-606q0 -139 6 -213h-115q7 172 7 213v606h-338z" />
    <glyph glyph-name="t_t" unicode="tt" horiz-adv-x="1087" 
d="M684 1133h115q-6 -73 -6 -181v-47h256v-86h-256v-530q0 -114 41 -165.5t110 -51.5q52 0 76 24v-104q-13 0 -47 -4t-51 -4q-104 0 -168 68t-64 220v547h-405v-530q0 -114 41 -165.5t110 -51.5q52 0 76 24v-104q-13 0 -47 -4t-51 -4q-104 0 -168 68t-64 220v547h-149v86
h149v47q0 108 -6 181h115q-6 -73 -6 -181v-47h405v47q0 108 -6 181z" />
    <glyph glyph-name="Tcommaaccent_h" unicode="&#x162;h" horiz-adv-x="1970" 
d="M1733 213v317q0 140 -64.5 222t-181.5 82q-119 0 -179.5 -83t-60.5 -219v-319q0 -119 4 -213h-112q6 70 6 213v1102h-469q-2 -76 -2 -264v-684q0 -262 10 -367h-129q10 158 10 367v684q0 150 -6 264h-166q-189 0 -346 -10v106q126 -8 346 -8h858q-4 -98 -4 -213v-430
q33 76 103.5 118t156.5 42q163 0 246.5 -107t83.5 -285v-315q0 -166 4 -213h-115q7 82 7 213zM561 -162v68q89 -2 147 -55t58 -136q0 -75 -53 -124.5t-133 -49.5q-44 0 -97 21v73q42 -26 88 -26q45 0 77 31t32 75q0 52 -35.5 87.5t-83.5 35.5z" />
    <glyph glyph-name="Tcaron_h" unicode="&#x164;h" horiz-adv-x="1970" 
d="M1733 213v317q0 140 -64.5 222t-181.5 82q-119 0 -179.5 -83t-60.5 -219v-319q0 -119 4 -213h-112q6 70 6 213v1102h-469q-2 -76 -2 -264v-684q0 -262 10 -367h-129q10 158 10 367v684q0 150 -6 264h-166q-189 0 -346 -10v106q126 -8 346 -8h858q-4 -98 -4 -213v-430
q33 76 103.5 118t156.5 42q163 0 246.5 -107t83.5 -285v-315q0 -166 4 -213h-115q7 82 7 213zM623 1561l184 172h111l-285 -256h-21l-286 256h116z" />
    <glyph glyph-name=".notdef" horiz-adv-x="946" 
d="M0 0v1325h946v-1325h-946zM152 94h643l-322 484zM530 664l322 -484v967zM94 1147v-967l322 484zM152 1231l321 -483l322 483h-643z" />
    <glyph glyph-name=".null" horiz-adv-x="0" 
 />
    <glyph glyph-name="nonmarkingreturn" horiz-adv-x="682" 
 />
    <glyph glyph-name="space" unicode=" " horiz-adv-x="456" 
 />
    <glyph glyph-name="exclam" unicode="!" horiz-adv-x="585" 
d="M336 565v572q0 155 -6 219h114q-6 -70 -6 -219v-572q0 -147 6 -217h-114q6 70 6 217zM309 55q0 32 20.5 54t51.5 22q32 0 54 -22t22 -54q0 -31 -22 -52t-54 -21q-31 0 -51.5 21t-20.5 52z" />
    <glyph glyph-name="quotedbl" unicode="&#x22;" horiz-adv-x="575" 
d="M109 1468h106l-14 -497h-76zM358 1468h107l-14 -497h-76z" />
    <glyph glyph-name="numbersign" unicode="#" horiz-adv-x="1032" 
d="M283 43h-82l71 420h-192v78h205l51 309h-211v78h223l64 401h84l-66 -401h256l66 401h84l-68 -401h190v-78h-202l-54 -309h216v-78h-226l-71 -420h-80l65 420h-254zM365 541h256l51 309h-256z" />
    <glyph glyph-name="dollar" unicode="$" horiz-adv-x="1032" 
d="M354 1026q0 -60 27 -109.5t70 -85.5t95.5 -70.5t105 -72t95.5 -80.5t70 -106t27 -140q0 -129 -78 -219.5t-207 -109.5v-92h-82v88q-54 2 -144.5 21.5t-121.5 23.5v170q31 -59 116.5 -96t176.5 -37q97 0 160 71.5t63 173.5q0 60 -26.5 110t-69 86.5t-94 71t-103.5 71.5
t-94.5 80t-69 105t-26.5 138q0 123 69 203t185 102v90h82v-82h2q57 0 132 -16.5t97 -18.5v-161q-22 55 -81 85.5t-144 30.5q-96 0 -164 -59t-68 -166z" />
    <glyph glyph-name="percent" unicode="%" horiz-adv-x="1417" 
d="M383 1395h2q123 0 210 -92.5t87 -221.5q0 -135 -87.5 -230t-211.5 -95q-125 0 -212 91.5t-87 221.5q0 135 87.5 230.5t211.5 95.5zM383 1313h-2q-86 0 -147.5 -70t-61.5 -168t62 -167.5t151 -69.5q86 0 146.5 71t60.5 170q0 97 -61 165.5t-148 68.5zM1034 633h2
q123 0 210 -91t87 -220q0 -135 -88 -229.5t-211 -94.5q-125 0 -212 91.5t-87 221.5q0 134 87.5 228t211.5 94zM1036 551h-2q-87 0 -148 -69.5t-61 -168.5q0 -98 61.5 -166.5t149.5 -68.5q86 0 147.5 70.5t61.5 170.5q0 97 -60.5 164.5t-148.5 67.5zM227 0h-98l1057 1391h102
z" />
    <glyph glyph-name="ampersand" unicode="&#x26;" horiz-adv-x="1398" 
d="M1270 788h127q-37 -31 -74 -69t-64 -69t-63.5 -78.5t-56 -74t-57.5 -80t-52 -73.5q135 -183 266 -252l2 -110q-165 68 -337 276q-49 -64 -91.5 -108.5t-96.5 -85.5t-116.5 -61.5t-132.5 -20.5q-183 0 -299 116.5t-116 288.5q0 57 18.5 110t43.5 91t71 82t78.5 69t89.5 66
q-150 108 -150 272q0 108 79 185t191 77q105 0 178.5 -73.5t73.5 -180.5q0 -45 -15 -83.5t-46 -73t-64 -61.5t-84 -62q204 -140 400 -395q18 25 56 81t60.5 87.5t55 75t63.5 76t62 58.5zM537 76q106 0 190.5 65t177.5 187q-106 138 -205.5 238t-222.5 186
q-60 -43 -100.5 -77.5t-81.5 -80t-61.5 -96.5t-20.5 -107q0 -130 95 -222.5t229 -92.5zM354 1077q0 -115 152 -223q106 72 146 118.5t40 112.5q0 70 -49 121t-117 51q-73 0 -122.5 -52.5t-49.5 -127.5z" />
    <glyph glyph-name="quotesingle" unicode="'" horiz-adv-x="325" 
d="M109 1468h106l-14 -497h-76z" />
    <glyph glyph-name="parenleft" unicode="(" horiz-adv-x="534" 
d="M479 -264v-119q-131 111 -223 271t-135 330.5t-43 344.5q0 176 44.5 349.5t136.5 332.5t220 268v-114q-145 -149 -223 -377.5t-78 -456.5q0 -229 77.5 -453t223.5 -376z" />
    <glyph glyph-name="parenright" unicode=")" horiz-adv-x="534" 
d="M55 1393v120q195 -165 298.5 -422t103.5 -524q0 -270 -105.5 -528t-296.5 -422v113q145 151 224 379.5t79 455.5q0 229 -78 453t-225 375z" />
    <glyph glyph-name="asterisk" unicode="*" horiz-adv-x="833" 
d="M94 1075v90q31 -3 162 -8l100 -2l-59 98q-51 81 -88 131l80 48q8 -23 38 -79.5t33 -62.5l58 -100l55 102q60 110 70 140l80 -46q-8 -9 -88 -131l-60 -100l103 2q143 7 161 10v-92q-16 3 -45.5 4.5t-66.5 2t-49 1.5l-101 4l60 -96q47 -73 92 -129l-86 -47q-9 24 -38 78
t-32 61l-53 103l-62 -105q-5 -11 -36 -67.5t-35 -69.5l-82 49l92 127l59 96l-100 -4q-122 -5 -162 -8z" />
    <glyph glyph-name="plus" unicode="+" horiz-adv-x="1032" 
d="M565 918v-365h344v-86h-344v-367h-96v367h-344v86h344v365h96z" />
    <glyph glyph-name="comma" unicode="," horiz-adv-x="356" 
d="M154 178h104q0 -172 -29.5 -308.5t-76.5 -209.5h-84q38 78 62 215t24 303z" />
    <glyph glyph-name="hyphen" unicode="-" horiz-adv-x="595" 
d="M66 522h462v-92h-462v92z" />
    <glyph glyph-name="period" unicode="." horiz-adv-x="352" 
d="M96 61q0 32 24 56t56 24t56 -24t24 -56q0 -33 -24 -57t-56 -24t-56 24t-24 57z" />
    <glyph glyph-name="slash" unicode="/" horiz-adv-x="536" 
d="M106 -76h-98l422 1514h98z" />
    <glyph glyph-name="zero" unicode="0" horiz-adv-x="1032" 
d="M96 690q0 205 47.5 362.5t142 249t224.5 91.5q131 0 227.5 -91.5t145.5 -249.5t49 -362q0 -206 -49 -364.5t-145.5 -250t-227.5 -91.5q-130 0 -224.5 91.5t-142 249.5t-47.5 365zM207 690q0 -183 35 -320.5t104 -214.5t164 -77q147 0 230 167t83 445q0 180 -36.5 316.5
t-107.5 214t-169 77.5q-142 0 -222.5 -167t-80.5 -441z" />
    <glyph glyph-name="one" unicode="1" horiz-adv-x="1032" 
d="M631 1174v-959q0 -153 6 -215h-121q6 68 6 215v1045q-200 -84 -260 -117v96q37 12 154.5 66t185.5 90h37q-8 -65 -8 -221z" />
    <glyph glyph-name="two" unicode="2" horiz-adv-x="1032" 
d="M113 0v45q159 162 254.5 268t214.5 260q105 135 140.5 220t35.5 186q0 136 -84.5 226.5t-210.5 90.5q-106 0 -195 -47.5t-131 -118.5v156q21 6 75 35t121.5 50.5t149.5 21.5q171 0 280 -114t109 -292q-1 -107 -48 -210t-154 -240q-138 -172 -398 -443h334q246 4 307 10
v-110q-70 6 -317 6h-483z" />
    <glyph glyph-name="three" unicode="3" horiz-adv-x="1032" 
d="M440 1298q-89 0 -159.5 -34t-104.5 -86v139q5 2 61.5 25.5t107.5 36t112 12.5q155 0 255.5 -96.5t100.5 -250.5q0 -116 -71 -203t-175 -120q118 -27 199.5 -124.5t81.5 -227.5q0 -169 -111 -277t-284 -108q-54 0 -104 9t-76 18t-64 25.5t-49 20.5v140q35 -59 111 -90
t169 -31q131 0 214 83.5t83 219.5q0 123 -91 209t-222 86q-21 0 -45 -4v96q14 -4 45 -4q120 0 199 76t79 194q0 115 -76 190.5t-186 75.5z" />
    <glyph glyph-name="four" unicode="4" horiz-adv-x="1032" 
d="M35 512l676 887h41q0 -22 -1 -108t-1 -134v-602q172 0 245 6v-96q-79 6 -245 6v-235q0 -142 8 -236h-121q6 51 6 236v235h-403q-146 0 -205 -2v43zM643 1188l-471 -633h471v633z" />
    <glyph glyph-name="five" unicode="5" horiz-adv-x="1032" 
d="M428 -23q-49 0 -97.5 8.5t-74.5 17t-67.5 24.5t-51.5 20v139q41 -56 116.5 -85t160.5 -29q149 0 251.5 96t102.5 240q0 142 -98.5 239.5t-245.5 97.5q-164 0 -238 -71q88 414 109 506q28 123 37 200q55 -6 155 -6h154q101 0 184 6v-104q-76 6 -180 6h-233l-109 -475
q49 27 156 27q183 0 303.5 -119t120.5 -305q0 -182 -132.5 -307.5t-322.5 -125.5z" />
    <glyph glyph-name="six" unicode="6" horiz-adv-x="1032" 
d="M627 1133q-49 -56 -95 -112t-102 -126.5t-94 -116.5q30 25 85 42.5t109 17.5q173 0 293.5 -124t120.5 -302t-125.5 -303t-302.5 -125t-301.5 125t-124.5 305q0 105 36 194t124 207.5t282 341.5q149 175 175 217h139q-100 -100 -219 -241zM197 414q0 -139 94.5 -238.5
t226.5 -99.5t226 97t94 235q0 141 -95 240.5t-229 99.5q-133 0 -225 -96t-92 -238z" />
    <glyph glyph-name="seven" unicode="7" horiz-adv-x="1032" 
d="M336 1276q-148 0 -207 -6v106q43 -4 207 -4h444q158 0 207 4q-13 -19 -104 -178l-518 -1012q-62 -104 -91 -186h-133q22 30 129 213q499 969 547 1063h-481z" />
    <glyph glyph-name="eight" unicode="8" horiz-adv-x="1032" 
d="M217 381q0 -124 85.5 -211.5t205.5 -87.5q122 0 208.5 86t86.5 207q0 123 -87 212t-208 89q-120 0 -205.5 -86.5t-85.5 -208.5zM252 1038q0 -110 75 -189t181 -79q109 0 183.5 77.5t74.5 188.5q0 110 -74 184t-184 74q-108 0 -182 -74t-74 -182zM145 1042
q0 146 105.5 247.5t257.5 101.5q153 0 259.5 -100t106.5 -242q0 -117 -63.5 -202t-157.5 -122q111 -35 183.5 -128.5t72.5 -219.5q0 -163 -114 -277t-287 -114t-286 112t-113 275q0 123 72.5 219t176.5 133q-89 35 -151 119.5t-62 197.5z" />
    <glyph glyph-name="nine" unicode="9" horiz-adv-x="1032" 
d="M338 0h-143q86 80 194 213l313 381q-35 -26 -86 -42.5t-102 -16.5q-178 0 -302 125.5t-124 304.5t128.5 302.5t311.5 123.5q173 0 297.5 -127t124.5 -306q0 -142 -73.5 -262t-317.5 -417q-45 -56 -70 -86q-125 -155 -151 -193zM838 954q0 142 -91.5 242t-220.5 100
q-136 0 -232.5 -98.5t-96.5 -236.5t96 -236t231 -98q131 0 222.5 94.5t91.5 232.5z" />
    <glyph glyph-name="colon" unicode=":" horiz-adv-x="354" 
d="M100 756q0 31 22.5 54.5t53.5 23.5q32 0 55 -23.5t23 -54.5q0 -32 -23 -55t-55 -23q-31 0 -53.5 23t-22.5 55zM100 57q0 32 22.5 55t53.5 23q32 0 55 -23t23 -55t-23 -54.5t-55 -22.5q-31 0 -53.5 22.5t-22.5 54.5z" />
    <glyph glyph-name="semicolon" unicode=";" horiz-adv-x="391" 
d="M133 758q0 31 23 53.5t55 22.5q31 0 53.5 -22.5t22.5 -53.5q0 -32 -22.5 -56t-53.5 -24q-32 0 -55 24t-23 56zM162 172h102q0 -169 -29.5 -304t-74.5 -208h-84q38 78 62 213.5t24 298.5z" />
    <glyph glyph-name="less" unicode="&#x3c;" horiz-adv-x="1032" 
d="M924 16l-838 480v28l838 482v-109l-695 -387l695 -385v-109z" />
    <glyph glyph-name="equal" unicode="=" horiz-adv-x="1032" 
d="M909 606h-784v86h784v-86zM909 330h-784v84h784v-84z" />
    <glyph glyph-name="greater" unicode="&#x3e;" horiz-adv-x="1032" 
d="M125 1008l819 -480v-28l-819 -482v109l678 387l-678 387v107z" />
    <glyph glyph-name="question" unicode="?" horiz-adv-x="923" 
d="M377 1253q-109 0 -225 -63v108q18 3 60 16.5t88.5 23.5t94.5 10q158 0 255.5 -101.5t97.5 -255.5q0 -137 -70.5 -239.5t-267.5 -241.5q16 -127 30 -184h-106q-2 18 -5.5 41t-11.5 72t-16 102q142 101 213.5 171.5t96 128.5t24.5 140q0 117 -72.5 194.5t-185.5 77.5z
M342 55q0 32 21 54t51 22q32 0 53.5 -22t21.5 -54q0 -31 -21.5 -52t-53.5 -21q-30 0 -51 21t-21 52z" />
    <glyph glyph-name="at" unicode="@" horiz-adv-x="1642" 
d="M178 410q0 -137 51 -260.5t138 -212t207 -140t253 -51.5q114 0 218.5 22t160.5 58l-2 -107q-4 0 -138 -23.5t-239 -23.5q-152 0 -288.5 57t-235 155t-156 235t-57.5 291q0 155 58 296t157 242.5t235.5 162t286.5 60.5q208 0 372 -79.5t258.5 -231t94.5 -352.5
t-114.5 -333t-274.5 -132q-87 0 -124 34.5t-27 115.5q-92 -146 -260 -146q-123 0 -209 99.5t-86 242.5q0 172 107 294t259 122q96 0 163 -64t81 -135q25 155 23 178h92l-86 -538q-10 -62 7.5 -93.5t70.5 -31.5q117 0 202.5 108t85.5 271q0 182 -83 318.5t-226 208t-326 71.5
q-132 0 -252 -55t-207 -147.5t-138.5 -219.5t-51.5 -266zM1040 455q0 114 -63 191t-152 77q-114 0 -194 -96t-80 -230q0 -112 66.5 -191t160.5 -79q108 0 185 96t77 232z" />
    <glyph glyph-name="A" unicode="A" horiz-adv-x="1267" 
d="M1268 0h-142q-34 99 -102 258l-121 287h-557l-117 -285q-81 -195 -98 -260h-131q62 115 143 311l471 1119h33l473 -1119q79 -182 148 -311zM866 633l-241 592l-242 -592h483z" />
    <glyph glyph-name="B" unicode="B" 
d="M147 0q11 116 11 367v653q0 302 -8 383h249q168 0 269.5 -94t101.5 -234q0 -101 -53 -177.5t-121 -100.5q136 -38 213.5 -142.5t77.5 -244.5q0 -176 -128 -293t-329 -117h-283zM776 410q0 148 -92 238.5t-235 90.5h-185v-649h160q153 0 252.5 90.5t99.5 229.5zM264 1317
v-496h180q92 0 155 71.5t63 174.5q0 107 -77 178.5t-194 71.5h-127z" />
    <glyph glyph-name="C" unicode="C" horiz-adv-x="1286" 
d="M203 702q0 -171 86 -316t234 -229.5t323 -84.5q251 0 385 114v-131q-210 -78 -391 -78q-154 0 -293 57.5t-238.5 155t-158 231.5t-58.5 281t58.5 281t158 231.5t238.5 155t293 57.5q24 0 48 -1.5t42.5 -2.5t43 -5t38 -6t39 -8.5t34 -8t35.5 -9.5t32 -9.5t34 -10.5t31 -10
v-133q-135 108 -371 108q-175 0 -323 -84t-234 -229t-86 -316z" />
    <glyph glyph-name="D" unicode="D" horiz-adv-x="1298" 
d="M502 0h-355q11 116 11 367v669q0 255 -11 367h355q189 0 351 -94t256.5 -255.5t94.5 -351.5q0 -142 -56 -272.5t-150 -224.5t-224 -149.5t-272 -55.5zM266 1315v-1227h230q163 0 301 83.5t217.5 224.5t79.5 306q0 123 -47 236t-127 196t-191.5 132t-234.5 49h-228z" />
    <glyph glyph-name="E" unicode="E" horiz-adv-x="890" 
d="M440 1315h-176v-512h180q218 0 312 6v-102q-94 6 -312 6h-180v-623h193q253 0 344 6v-102q-91 6 -344 6h-310q9 254 9 367v671q0 228 -9 365h293q249 0 344 6v-102q-84 8 -344 8z" />
    <glyph glyph-name="F" unicode="F" horiz-adv-x="868" 
d="M147 0q9 142 9 367v669q0 230 -9 367h310q201 0 327 8v-104q-84 8 -327 8h-193v-549h203q136 0 258 8v-104q-122 8 -258 8h-203v-311q0 -178 6 -367h-123z" />
    <glyph glyph-name="G" unicode="G" horiz-adv-x="1357" 
d="M1219 399v-352q-99 -37 -183 -53.5t-196 -16.5q-160 0 -300 57.5t-238 155t-154 231t-56 281.5t56 281.5t153.5 231t237.5 155t299 57.5q192 0 360 -73v-131q-74 59 -159.5 83.5t-198.5 24.5q-181 0 -327.5 -84.5t-228 -228t-81.5 -316.5q0 -130 48.5 -246t132.5 -200.5
t203 -134t255 -49.5q193 0 272 51v274q0 130 -8 252h121q-8 -122 -8 -250z" />
    <glyph glyph-name="H" unicode="H" horiz-adv-x="1370" 
d="M264 1036v-231h842v231q0 281 -6 367h121q-7 -157 -7 -367v-741q0 -195 7 -295h-121q6 86 6 297v418h-842v-420q0 -209 6 -295h-118q6 86 6 297v739q0 284 -6 367h118q-6 -83 -6 -367z" />
    <glyph glyph-name="I" unicode="I" horiz-adv-x="440" 
d="M272 1036v-669q0 -225 9 -367h-123q8 126 8 367v669q0 245 -8 367h123q-9 -137 -9 -367z" />
    <glyph glyph-name="J" unicode="J" horiz-adv-x="434" 
d="M274 1036v-1034q0 -173 -90.5 -267.5t-230.5 -94.5q-26 0 -52.5 4.5t-56.5 11.5t-45 10v131q52 -65 150 -65q93 0 156 73.5t63 192.5v1038q0 245 -8 367h121q-7 -107 -7 -367z" />
    <glyph glyph-name="K" unicode="K" horiz-adv-x="1091" 
d="M264 1036v-303l408 445q132 144 196 225h146q-81 -76 -236 -242l-407 -438l503 -516q74 -79 218 -207h-174q-65 83 -142 162l-512 526v-321q0 -178 6 -367h-120q6 94 6 367v669q0 276 -6 367h120q-6 -183 -6 -367z" />
    <glyph glyph-name="L" unicode="L" horiz-adv-x="894" 
d="M264 1036v-946h262q198 0 320 8v-106q-122 8 -320 8h-376q6 170 6 367v669q0 276 -6 367h120q-6 -183 -6 -367z" />
    <glyph glyph-name="M" unicode="M" horiz-adv-x="1642" 
d="M1405 1432l104 -1115q17 -178 43 -317h-131q0 93 -16 293l-74 860l-497 -1176h-25l-492 1174l-96 -829q-24 -226 -26 -322h-121q35 219 53 371l133 1061h29l538 -1254l543 1254h35z" />
    <glyph glyph-name="N" unicode="N" horiz-adv-x="1404" 
d="M258 295q0 -181 8 -295h-116q6 86 6 297v745q0 228 -6 394h26q48 -67 150 -189l819 -1016v805q0 238 -6 367h116q-6 -135 -6 -367v-772q0 -170 6 -289h-26q-55 77 -139 179l-828 1028z" />
    <glyph glyph-name="O" unicode="O" horiz-adv-x="1611" 
d="M92 702q0 147 56.5 281t151.5 231.5t227.5 155t277.5 57.5q146 0 279 -57.5t229 -155t152.5 -231.5t56.5 -281t-56.5 -281t-152.5 -231.5t-229 -155t-279 -57.5q-145 0 -277.5 57.5t-227.5 155t-151.5 231.5t-56.5 281zM203 702q0 -172 80.5 -317.5t219.5 -230t302 -84.5
q164 0 303.5 84.5t221 230t81.5 317.5q0 128 -48 245t-129.5 201.5t-193.5 134.5t-235 50q-122 0 -233.5 -50t-192.5 -134.5t-128.5 -201.5t-47.5 -245z" />
    <glyph glyph-name="P" unicode="P" horiz-adv-x="919" 
d="M264 573v-206q0 -273 6 -367h-120q8 84 8 367v720q0 235 -8 316h258q202 0 323 -117.5t121 -296.5q0 -176 -128.5 -296t-322.5 -120h-137zM264 1319v-662h135q146 0 244 101t98 233q0 139 -93 233.5t-251 94.5h-133z" />
    <glyph glyph-name="Q" unicode="Q" horiz-adv-x="1611" 
d="M92 702q0 196 95 362.5t259.5 264.5t358.5 98t359.5 -98t261.5 -265t96 -362q0 -109 -28.5 -207.5t-77 -173t-103 -130t-115.5 -95.5q78 -63 199 -141q125 -72 228.5 -104.5t209.5 -32.5q97 0 160 16v-88q-78 -20 -180 -20q-124 0 -238.5 34.5t-257.5 124.5
q-92 55 -225 160q-121 -68 -289 -68q-194 0 -358.5 98t-259.5 264.5t-95 362.5zM203 702q0 -171 80.5 -316t219.5 -229.5t302 -84.5q164 0 304 84.5t221 229.5t81 316q0 127 -48 244t-129.5 201.5t-193.5 135t-235 50.5q-163 0 -302 -85t-219.5 -230.5t-80.5 -315.5z" />
    <glyph glyph-name="R" unicode="R" horiz-adv-x="1058" 
d="M266 602v-252q0 -287 6 -350h-120q8 126 8 350v686q0 245 -8 367h235q218 0 339.5 -110t121.5 -287q0 -151 -79 -246t-198 -131q49 -63 147.5 -201.5t183.5 -250t153 -177.5h-154q-275 365 -426 608q-41 -6 -78 -6h-131zM266 1317v-631h142q143 0 236 87.5t93 230.5
q0 132 -91.5 222.5t-262.5 90.5h-117z" />
    <glyph glyph-name="S" unicode="S" horiz-adv-x="909" 
d="M250 1083q0 -67 30.5 -123t79.5 -96.5t107.5 -78.5t117.5 -79t108 -88t79.5 -115t30.5 -151q0 -167 -109 -275t-284 -108q-57 0 -109.5 9.5t-109.5 25t-91 21.5v182q35 -64 122 -107t192 -43q127 0 200.5 79t73.5 206q0 60 -23.5 111t-62 87.5t-87.5 73t-100.5 67
t-100.5 70.5t-87.5 82.5t-62 104.5t-23.5 135q0 167 106 263t269 96q62 0 150.5 -20.5t103.5 -22.5v-177q-21 67 -88.5 100.5t-165.5 33.5q-119 0 -192.5 -69.5t-73.5 -193.5z" />
    <glyph glyph-name="T" unicode="T" horiz-adv-x="1239" 
d="M393 1403h449q256 0 350 6v-102q-126 8 -350 8h-166q-2 -76 -2 -264v-684q0 -304 6 -367h-121q6 94 6 367v684q0 150 -6 264h-166q-220 0 -346 -8v102q95 -6 346 -6z" />
    <glyph glyph-name="U" unicode="U" horiz-adv-x="1349" 
d="M147 1403h121q-6 -83 -6 -367v-471q0 -219 115 -356t299 -137t297.5 137t113.5 356v471q0 281 -6 367h119q-6 -135 -6 -367v-467q0 -271 -143 -431.5t-375 -160.5q-234 0 -378 160.5t-144 431.5v467q0 271 -7 367z" />
    <glyph glyph-name="V" unicode="V" horiz-adv-x="1259" 
d="M231 1155l404 -985l397 983q76 197 92 250h129q-56 -100 -141 -309l-469 -1137h-25l-473 1137q-85 205 -141 309h137q17 -63 90 -248z" />
    <glyph glyph-name="W" unicode="W" horiz-adv-x="1921" 
d="M662 -35h-19l-506 1157q-77 178 -135 281h135q21 -71 101 -252l426 -987l258 616l-146 338q-86 199 -137 285h131q30 -91 111 -277l92 -221l98 232q85 204 107 266h120q-30 -53 -135 -287l-141 -325l262 -625l408 973q48 105 106 264h121q-14 -31 -54.5 -119t-76.5 -168
l-496 -1151h-18l-305 705z" />
    <glyph glyph-name="X" unicode="X" horiz-adv-x="995" 
d="M700 262l-204 350l-226 -376q-85 -153 -127 -236h-141q90 122 193 289l245 411l-239 400q-95 165 -199 303h148q73 -137 143 -250l207 -352l209 352q33 58 81.5 145.5t57.5 104.5h141q-68 -87 -198 -301l-236 -391l240 -404q108 -178 202 -307h-145q-11 19 -63.5 110.5
t-88.5 151.5z" />
    <glyph glyph-name="Y" unicode="Y" horiz-adv-x="1138" 
d="M512 0q6 189 6 365v297l-323 475q-89 135 -195 266h145q42 -74 127 -203l301 -440l289 424q95 140 137 219h140q-95 -121 -197 -275l-317 -466v-297q0 -271 6 -365h-119z" />
    <glyph glyph-name="Z" unicode="Z" horiz-adv-x="1079" 
d="M821 1094l-600 -1004h465q244 0 336 6v-102q-92 6 -336 6h-637q63 95 193 311l602 1004h-410q-269 0 -350 -8v102q91 -6 350 -6h580q-83 -116 -193 -309z" />
    <glyph glyph-name="bracketleft" unicode="[" horiz-adv-x="638" 
d="M145 -373q7 79 7 215v1446q0 133 -7 215h283q100 0 170 6v-96q-67 6 -172 6h-182v-1710h184q100 0 170 6v-94q-67 6 -172 6h-281z" />
    <glyph glyph-name="backslash" unicode="\" horiz-adv-x="536" 
d="M528 -76h-98l-422 1514h98z" />
    <glyph glyph-name="bracketright" unicode="]" horiz-adv-x="638" 
d="M494 -373h-279q-105 0 -172 -6v94q71 -6 170 -6h184v1710h-182q-105 0 -172 -6v96q71 -6 170 -6h281q-5 -117 -5 -215v-1448q0 -100 5 -213z" />
    <glyph glyph-name="asciicircum" unicode="^" horiz-adv-x="962" 
d="M477 1327l-291 -418h-106l389 525h23l387 -525h-111z" />
    <glyph glyph-name="underscore" unicode="_" horiz-adv-x="995" 
d="M23 -141h948v-97h-948v97z" />
    <glyph glyph-name="grave" unicode="`" horiz-adv-x="946" 
d="M225 1337l195 -303h-94l-209 303h108z" />
    <glyph glyph-name="a" unicode="a" horiz-adv-x="872" 
d="M373 836q-144 0 -226 -93v117q16 4 55.5 20t86.5 28t100 12q166 0 249 -97t83 -301v-385q0 -76 51 -76q25 0 43 11v-70q-38 -25 -90 -25q-40 0 -67.5 27.5t-30.5 83.5q-35 -52 -99.5 -81.5t-138.5 -29.5q-142 0 -223.5 73.5t-81.5 187.5q0 113 82.5 188.5t226.5 75.5
q75 0 140 -30t90 -75v140q0 136 -58.5 217.5t-191.5 81.5zM188 242q0 -81 59 -134t163 -53q91 0 155 54.5t64 132.5q0 75 -64.5 129.5t-154.5 54.5q-103 0 -162.5 -53t-59.5 -131z" />
    <glyph glyph-name="b" unicode="b" horiz-adv-x="1140" 
d="M145 213v1223h-92q31 31 53 67h148q-6 -58 -6 -213v-600q47 109 147.5 169.5t212.5 60.5q124 0 227.5 -62t162.5 -169t59 -234q0 -197 -131.5 -333t-321.5 -136q-111 0 -209 58t-147 163q0 -125 4 -207h-113q6 63 6 213zM242 453q0 -157 103.5 -268t250.5 -111
q146 0 250 111t104 268q0 156 -105.5 267t-252.5 111t-248.5 -110.5t-101.5 -267.5z" />
    <glyph glyph-name="c" unicode="c" horiz-adv-x="841" 
d="M186 451q0 -155 104.5 -265t252.5 -110q78 0 127 12.5t90 44.5v-121q-19 -3 -63 -10.5t-79.5 -11.5t-78.5 -4q-190 0 -322.5 135.5t-132.5 329.5q0 195 132.5 332t322.5 137q54 0 122.5 -12t94.5 -13v-125q-82 59 -213 59q-149 0 -253 -111t-104 -267z" />
    <glyph glyph-name="d" unicode="d" horiz-adv-x="1138" 
d="M993 1333v-1120q0 -139 6 -213h-114q6 62 6 207q-55 -106 -153 -163.5t-206 -57.5q-188 0 -318 137.5t-130 333.5t129.5 329.5t323.5 133.5q114 0 208 -54.5t146 -160.5v731h-92q30 24 53 67h147q-6 -91 -6 -170zM897 453q0 157 -101 267.5t-247 110.5
q-148 0 -254.5 -110t-106.5 -266q0 -158 106 -269.5t255 -111.5q145 0 246.5 111t101.5 268z" />
    <glyph glyph-name="e" unicode="e" horiz-adv-x="997" 
d="M913 489h-723q-9 -107 33 -203t128 -156t194 -60q95 0 161.5 17.5t133.5 66.5v-115q-23 -3 -65.5 -17.5t-102.5 -26t-140 -11.5q-193 0 -320.5 134t-127.5 331q0 205 121.5 337t300.5 132q82 0 152.5 -29.5t116 -75t78.5 -101.5t47.5 -107.5t14.5 -94.5q0 -4 -1 -11.5
t-1 -9.5zM506 838q-112 0 -195 -77t-112 -194h604q-10 101 -93.5 186t-203.5 85z" />
    <glyph glyph-name="f" unicode="f" horiz-adv-x="522" 
d="M41 819v86h149v236q0 177 76 276t209 99q37 0 91 -9t63 -10v-115q-43 48 -137 48q-95 0 -147 -75t-52 -210v-240h194v-86h-194v-606q0 -139 6 -213h-115q6 147 6 213v606h-149z" />
    <glyph glyph-name="g" unicode="g" horiz-adv-x="974" 
d="M793 905h90q0 -52 -19 -85.5t-63 -67.5q59 -82 59 -197q0 -154 -109.5 -262.5t-265.5 -108.5q-56 0 -119.5 24.5t-84.5 24.5q-31 0 -56.5 -36.5t-25.5 -90.5q0 -47 32 -84.5t74 -37.5q10 0 71 10t111 10q184 0 312.5 -79t128.5 -199q0 -114 -131 -194.5t-314 -80.5
q-186 0 -316 78.5t-130 194.5q0 73 48.5 126.5t123.5 86.5q-51 16 -81 67.5t-30 101.5q0 55 33.5 107.5t93.5 75.5q-112 109 -112 266q0 151 108.5 258t263.5 107q156 0 263 -111q45 36 45 96zM217 555q0 -118 78.5 -201.5t187.5 -83.5q114 0 193.5 83t79.5 202
q0 117 -79.5 198t-193.5 81q-109 0 -187.5 -81.5t-78.5 -197.5zM141 -274q0 -83 100 -140t242 -57q140 0 239 57t99 138q0 80 -100.5 137t-239.5 57q-140 0 -240 -56.5t-100 -135.5z" />
    <glyph glyph-name="h" unicode="h" horiz-adv-x="972" 
d="M735 213v317q0 140 -63.5 222t-175.5 82q-117 0 -182.5 -86t-65.5 -216v-319q0 -143 6 -213h-115q6 70 6 213v1223h-92q11 10 28.5 34.5t24.5 32.5h148q-6 -77 -6 -213v-536q37 77 111 121.5t167 44.5q152 0 232 -107.5t80 -284.5v-315q0 -143 6 -213h-115q6 141 6 213z
" />
    <glyph glyph-name="i" unicode="i" horiz-adv-x="401" 
d="M256 692v-477q0 -153 6 -215h-115q7 79 7 215v621h-93q31 28 54 69h147q-6 -71 -6 -213zM135 1180q0 29 19 48t47 19q29 0 48 -19t19 -48q0 -28 -19 -47t-48 -19q-28 0 -47 19t-19 47z" />
    <glyph glyph-name="j" unicode="j" horiz-adv-x="401" 
d="M256 692v-860q0 -173 -68.5 -270t-205.5 -97q-37 0 -78 7.5t-43 7.5v102q35 -31 100 -31q88 0 140.5 74t52.5 209v1002h-95q26 26 56 69h147q-6 -76 -6 -213zM133 1180q0 29 19 48t47 19q29 0 48 -19t19 -48q0 -28 -19 -47t-48 -19q-28 0 -47 19t-19 47z" />
    <glyph glyph-name="k" unicode="k" horiz-adv-x="819" 
d="M248 1290v-825q317 361 375 440h131q-72 -64 -396 -434q221 -238 299 -318t162 -153h-151q-32 40 -101 114t-319 335v-236q0 -143 6 -213h-115q6 70 6 213v1223h-92q23 20 51 67h150q-6 -73 -6 -213z" />
    <glyph glyph-name="l" unicode="l" horiz-adv-x="393" 
d="M248 1290v-1077q0 -143 6 -213h-115q6 70 6 213v1223h-92q23 20 51 67h150q-6 -73 -6 -213z" />
    <glyph glyph-name="m" unicode="m" horiz-adv-x="1445" 
d="M672 0q6 70 6 215v352q0 269 -211 269q-86 0 -148.5 -74t-62.5 -205v-342q0 -141 6 -215h-115q7 86 7 215v621h-93q31 28 56 69h139v-143q30 73 93.5 116.5t150.5 43.5q204 0 258 -191q26 85 94 138t164 53q144 0 216.5 -92.5t72.5 -270.5v-344q0 -135 6 -215h-113
q4 55 4 215v336q0 285 -207 285q-89 0 -152 -76.5t-63 -198.5v-346q0 -147 6 -215h-114z" />
    <glyph glyph-name="n" unicode="n" horiz-adv-x="978" 
d="M743 539q0 147 -70 222t-171 75q-106 0 -176 -79t-70 -206v-336q0 -123 6 -215h-115q7 107 7 215v621h-93q27 27 54 69h141v-151q33 69 106 118.5t173 49.5q142 0 225.5 -101t83.5 -284v-322q0 -134 8 -215h-117q8 81 8 215v324z" />
    <glyph glyph-name="o" unicode="o" horiz-adv-x="1089" 
d="M84 453q0 193 135 330t324 137q126 0 232.5 -62.5t168.5 -170t62 -234.5t-62 -234.5t-168.5 -170t-232.5 -62.5q-189 0 -324 137t-135 330zM184 453q0 -157 105 -267t254 -110q150 0 256 110.5t106 266.5t-106 266t-256 110q-149 0 -254 -110.5t-105 -265.5z" />
    <glyph glyph-name="p" unicode="p" horiz-adv-x="1146" 
d="M154 -311v1147h-93q27 27 54 69h141v-217q54 107 148 169.5t210 62.5q123 0 226.5 -63t163 -170.5t59.5 -233.5q0 -195 -131 -331t-318 -136q-118 0 -214 57.5t-144 163.5v-518q0 -132 8 -213h-119q9 92 9 213zM250 453q0 -157 103 -268t249 -111q148 0 252 110t104 267
q0 158 -105.5 269t-254.5 111q-143 0 -245.5 -111t-102.5 -267z" />
    <glyph glyph-name="q" unicode="q" horiz-adv-x="1142" 
d="M995 -291q0 -125 9 -233h-117q8 96 8 237v496q-52 -109 -149 -166t-214 -57q-122 0 -225 62.5t-163 170t-60 234.5t59.5 234.5t162 170t224.5 62.5q119 0 214.5 -56.5t150.5 -161.5v41q0 97 -6 162h112q-6 -71 -6 -217v-979zM903 453q0 156 -104.5 267t-251.5 111
q-149 0 -254 -109.5t-105 -266.5q0 -158 106 -269.5t257 -111.5q145 0 248.5 110.5t103.5 268.5z" />
    <glyph glyph-name="r" unicode="r" horiz-adv-x="655" 
d="M494 920q34 0 70 -5.5t48 -5.5v-118q-50 34 -129 34q-86 0 -155.5 -92.5t-69.5 -212.5v-307q0 -117 8 -213h-116q6 108 6 213v623h-88q35 41 49 69h135v-209q26 100 95 162t147 62z" />
    <glyph glyph-name="s" unicode="s" horiz-adv-x="684" 
d="M225 698q0 -41 20 -75.5t52.5 -59.5t71 -49t77.5 -51.5t71.5 -59.5t52.5 -79.5t20 -106.5q0 -107 -72 -174.5t-190 -67.5q-46 0 -89 9.5t-87.5 25.5t-57.5 19v159q26 -57 92.5 -94t137.5 -37t117 42t46 112q0 44 -20 80.5t-52.5 63t-71.5 51.5t-78 52t-71.5 58t-52.5 76
t-20 100q0 100 68 164t186 64q45 0 107 -16t81 -17v-142q-19 41 -75 68t-109 27q-75 0 -114.5 -39.5t-39.5 -102.5z" />
    <glyph glyph-name="t" unicode="t" horiz-adv-x="579" 
d="M176 1133h115q-6 -73 -6 -181v-47h256v-86h-256v-530q0 -114 41 -165.5t110 -51.5q52 0 76 24v-104q-13 0 -47 -4t-51 -4q-104 0 -168 68t-64 220v547h-149v86h149v47q0 108 -6 181z" />
    <glyph glyph-name="u" unicode="u" horiz-adv-x="985" 
d="M252 350q0 -138 67.5 -209t167.5 -71q114 0 181 84t67 200v338q0 124 -6 213h115q-6 -89 -6 -213v-493q0 -126 28 -199h-98q-31 60 -31 150q-37 -74 -106 -120t-168 -46q-139 0 -226 93.5t-87 264.5v494h-93q31 28 54 69h145q-4 -118 -4 -213v-342z" />
    <glyph glyph-name="v" unicode="v" horiz-adv-x="849" 
d="M4 905h129q25 -77 53 -143l248 -594l225 555q50 124 66 182h121q-77 -154 -98 -207l-306 -727h-26l-310 723q-44 108 -102 211z" />
    <glyph glyph-name="w" unicode="w" horiz-adv-x="1300" 
d="M631 907h45l264 -731l190 567q48 153 48 162h118q-39 -89 -77 -192l-265 -746h-28l-277 760l-258 -760h-31l-270 727q-44 116 -84 211h125q23 -92 66 -209l188 -520z" />
    <glyph glyph-name="x" unicode="x" horiz-adv-x="724" 
d="M522 123l-160 252l-102 -160q-90 -143 -125 -215h-129q55 71 148 217l151 234l-149 239q-62 104 -142 215h131q30 -67 95 -170l127 -207l129 207q75 124 96 170h125q-66 -86 -148 -215l-147 -237l149 -234q70 -115 150 -219h-129q-28 58 -70 123z" />
    <glyph glyph-name="y" unicode="y" horiz-adv-x="874" 
d="M178 -424q-38 -61 -73 -86t-82 -25q-21 0 -33 5q65 87 125 178q195 301 293 481l-291 565q-74 141 -115 211h131q13 -39 72 -164l258 -497q147 305 219 481q33 77 70 180h122q-15 -26 -33 -64.5t-40.5 -89.5t-28.5 -65q-160 -368 -272 -571q-77 -147 -322 -539z" />
    <glyph glyph-name="z" unicode="z" horiz-adv-x="759" 
d="M715 905l-516 -821h331q100 0 170 6v-96q-68 6 -172 6h-487l514 817h-319q-100 0 -170 -6v100q68 -6 172 -6h477z" />
    <glyph glyph-name="braceleft" unicode="{" horiz-adv-x="649" 
d="M610 1507v-84q-33 4 -96 4q-75 0 -136 -74t-61 -175q0 -78 9.5 -184.5t9.5 -184.5q0 -57 -17.5 -103t-45.5 -73.5t-52 -43t-47 -22.5q23 -7 46 -20t51.5 -38.5t46.5 -69.5t18 -99q0 -80 -9.5 -192.5t-9.5 -192.5q0 -113 60.5 -182.5t136.5 -69.5q50 0 96 4v-86
q-37 6 -118 6q-108 0 -188.5 86t-80.5 238q0 73 8.5 181t8.5 194q0 101 -60.5 150.5t-148.5 49.5v80q88 0 148.5 54.5t60.5 166.5q0 75 -8.5 177.5t-8.5 177.5q0 136 78 228.5t191 92.5q48 0 118 4z" />
    <glyph glyph-name="bar" unicode="|" horiz-adv-x="378" 
d="M233 -379h-90l2 1895h93z" />
    <glyph glyph-name="braceright" unicode="}" horiz-adv-x="649" 
d="M152 -373q-64 0 -117 -6v86q37 -4 96 -4q76 0 134.5 69t58.5 183q0 80 -7.5 192.5t-7.5 192.5q0 55 17.5 99t45 69.5t51 38.5t46.5 20q-23 7 -46.5 22.5t-51 43t-45 73.5t-17.5 103q0 78 7.5 184.5t7.5 184.5q0 101 -59.5 175t-133.5 74q-65 0 -96 -4v84q37 -4 117 -4
q113 0 190.5 -92.5t77.5 -228.5q0 -75 -8.5 -177.5t-8.5 -177.5q0 -112 60.5 -166.5t148.5 -54.5v-80q-88 0 -148.5 -49.5t-60.5 -150.5q0 -86 8.5 -194t8.5 -181q0 -152 -80 -238t-188 -86z" />
    <glyph glyph-name="asciitilde" unicode="~" horiz-adv-x="1032" 
d="M180 338h-94q8 130 74.5 210.5t169.5 80.5q44 0 81 -15.5t61.5 -38.5t50.5 -50.5t47 -50.5t51 -38.5t63 -15.5q74 0 117 53.5t49 144.5h96q-7 -130 -78 -209t-180 -79q-54 0 -97.5 21.5t-72 52t-54.5 60.5t-59 51.5t-73 21.5q-66 0 -106 -54.5t-46 -144.5z" />
    <glyph glyph-name="uni00A0" unicode="&#xa0;" horiz-adv-x="456" 
 />
    <glyph glyph-name="exclamdown" unicode="&#xa1;" horiz-adv-x="581" 
d="M246 336v-572q0 -154 6 -219h-115q6 71 6 219v572q0 146 -6 217h115q-6 -70 -6 -217zM272 846q0 -32 -20 -54t-51 -22q-32 0 -54 22t-22 54q0 31 22 52.5t54 21.5q30 0 50.5 -21.5t20.5 -52.5z" />
    <glyph glyph-name="cent" unicode="&#xa2;" horiz-adv-x="1028" 
d="M649 -70h-67v121q-177 15 -295.5 147.5t-118.5 315.5q0 184 118.5 317t295.5 150v147h69l-2 -145q43 -2 103.5 -12.5t87.5 -12.5v-124q-75 59 -209 59q-149 0 -253 -111t-104 -268q0 -155 104.5 -265t252.5 -110q77 0 126 12.5t89 45.5v-121q-19 -3 -58.5 -10.5
t-71 -11.5t-67.5 -5v-119z" />
    <glyph glyph-name="sterling" unicode="&#xa3;" horiz-adv-x="1032" 
d="M203 690v74h157l9 84q12 125 39.5 219.5t65 155t89 98.5t106.5 53t122 15q39 0 93 -9.5t58 -9.5v-115q-45 48 -158 48q-129 0 -208 -104.5t-105 -352.5l-8 -82h274v-74h-278l-10 -121q-10 -120 -28.5 -208.5t-45 -142t-53.5 -84.5t-62 -50h420q144 0 211 6v-96
q-71 6 -213 6h-623v84q45 0 82 12.5t72.5 45.5t61.5 86.5t45.5 139t29.5 199.5l10 123h-153z" />
    <glyph glyph-name="currency" unicode="&#xa4;" horiz-adv-x="1032" 
d="M88 203l-59 55l161 162q-90 117 -90 258q0 137 90 252l-167 166l59 57l164 -162q123 101 270 101t268 -99l160 158l57 -55l-157 -164q92 -117 92 -254q0 -140 -92 -260l157 -164l-59 -57l-160 161q-54 -42 -125 -69t-141 -27q-159 0 -268 98zM195 678q0 -136 94.5 -232
t226.5 -96q134 0 229 96t95 232q0 135 -95 230.5t-229 95.5q-132 0 -226.5 -95.5t-94.5 -230.5z" />
    <glyph glyph-name="yen" unicode="&#xa5;" horiz-adv-x="1032" 
d="M455 0q8 126 8 291v149h-273v66h273v115h-273v65h273v55l-307 453q-99 144 -140 180h140q12 -27 98 -155l266 -379l234 334q113 165 131 200h131q-61 -66 -176 -237l-271 -400v-51h273v-65h-273v-115h273v-66h-273v-149q0 -102 6 -291h-120z" />
    <glyph glyph-name="brokenbar" unicode="&#xa6;" horiz-adv-x="376" 
d="M233 758h-90v758h90v-758zM233 379v-758h-90v758h90z" />
    <glyph glyph-name="section" unicode="&#xa7;" horiz-adv-x="915" 
d="M729 1378v-118q-79 90 -244 90q-104 0 -158.5 -49.5t-54.5 -131.5q0 -49 29.5 -89t76.5 -69t103.5 -56.5t113.5 -58.5t104 -68t76.5 -93t29.5 -125q0 -131 -137 -237q94 -84 94 -209q0 -71 -27 -126t-74 -87t-105.5 -48t-125.5 -16q-64 0 -117 11.5t-98.5 28t-64.5 20.5
v141q39 -59 117 -90t161 -31q106 0 170 48t64 143q0 61 -31 108.5t-80.5 78t-109.5 57t-120 54.5t-109.5 62.5t-80.5 88.5t-31 124t46 135.5t133 100.5q-38 25 -75.5 79t-37.5 119q0 126 85.5 195.5t225.5 69.5q57 0 100 -8t88.5 -24t63.5 -20zM195 743q0 -52 28 -94t76 -72
t98 -53.5t110.5 -52.5t96.5 -55q44 32 74.5 80t30.5 106q0 45 -19.5 84t-48.5 66.5t-71 54t-79 43.5t-81.5 38.5t-69.5 37.5q-67 -26 -106 -76.5t-39 -106.5z" />
    <glyph glyph-name="dieresis" unicode="&#xa8;" horiz-adv-x="946" 
d="M231 1182q0 26 18.5 43.5t45.5 17.5q26 0 43.5 -17.5t17.5 -43.5t-17.5 -44t-43.5 -18t-45 18t-19 44zM588 1182q0 26 18.5 43.5t44.5 17.5t44 -17.5t18 -43.5t-18 -44t-44 -18t-44.5 18t-18.5 44z" />
    <glyph glyph-name="copyright" unicode="&#xa9;" horiz-adv-x="1353" 
d="M82 639q0 163 79.5 301.5t216 218.5t296.5 80q122 0 233 -47.5t191 -127.5t127 -191.5t47 -233.5q0 -164 -79.5 -303t-217.5 -220t-301 -81q-120 0 -229.5 48t-189 128.5t-126.5 192.5t-47 235zM156 639q0 -109 41 -208.5t110.5 -171t165.5 -113.5t201 -42
q142 0 262.5 71.5t190 194.5t69.5 269q0 144 -69.5 266.5t-190 194t-262.5 71.5q-140 0 -259.5 -71.5t-189 -194t-69.5 -266.5zM457 639q0 -114 77.5 -195.5t184.5 -81.5q105 0 166 44v-103q-18 -2 -49.5 -7t-60 -8t-60.5 -3q-145 0 -245.5 103t-100.5 251
q0 149 100.5 253.5t245.5 104.5q45 0 99.5 -9.5t68.5 -10.5v-105q-63 46 -164 46q-108 0 -185 -82t-77 -197z" />
    <glyph glyph-name="ordfeminine" unicode="&#xaa;" horiz-adv-x="544" 
d="M219 1077q-80 0 -129 -49v84q9 2 32.5 11.5t50 15.5t58.5 6q113 0 167.5 -60t54.5 -188v-205q0 -53 32 -53q18 0 27 6v-39q-25 -28 -66 -28q-28 0 -47.5 16.5t-19.5 48.5q-44 -65 -143 -65q-87 0 -136 43.5t-49 113.5t50.5 117t138.5 47q46 0 82.5 -17t50.5 -44v69
q0 75 -37 122.5t-117 47.5zM137 737q0 -43 32 -69.5t89 -26.5q48 0 83.5 27.5t35.5 68.5t-34.5 70t-84.5 29q-57 0 -89 -28t-32 -71z" />
    <glyph glyph-name="guillemotleft" unicode="&#xab;" horiz-adv-x="1064" 
d="M197 453l333 -281v-106l-448 376v19l444 381v-107zM555 453l334 -281v-106l-449 376v19l445 381v-107z" />
    <glyph glyph-name="logicalnot" unicode="&#xac;" horiz-adv-x="1032" 
d="M887 266h-101v312h-739v86h840v-398z" />
    <glyph glyph-name="uni00AD" unicode="&#xad;" horiz-adv-x="595" 
d="M66 522h462v-92h-462v92z" />
    <glyph glyph-name="registered" unicode="&#xae;" horiz-adv-x="821" 
d="M131 1212q0 120 83.5 203.5t203.5 83.5t204.5 -83.5t84.5 -203.5q0 -121 -84.5 -206.5t-204.5 -85.5t-203.5 85t-83.5 207zM184 1212q0 -100 69.5 -171.5t164.5 -71.5q96 0 163.5 71.5t67.5 171.5q0 98 -67 168t-162 70q-97 0 -166.5 -70t-69.5 -168zM375 1182v-70
q0 -54 2 -70h-55q2 16 2 74v176q0 60 -5 90h87q53 0 84.5 -27.5t31.5 -70.5q0 -34 -21 -59.5t-55 -34.5q50 -74 117 -148h-78l-86 140h-24zM375 1343v-122h31q29 0 47.5 17.5t17.5 43.5q0 30 -17.5 45.5t-47.5 15.5h-31z" />
    <glyph glyph-name="macron" unicode="&#xaf;" horiz-adv-x="946" 
d="M246 1188h454v-76h-454v76z" />
    <glyph glyph-name="degree" unicode="&#xb0;" horiz-adv-x="634" 
d="M84 1161q0 100 67.5 169t165.5 69q96 0 164 -69.5t68 -168.5q0 -97 -68.5 -166t-163.5 -69q-98 0 -165.5 69t-67.5 166zM162 1161q0 -69 45 -115.5t110 -46.5t110.5 46.5t45.5 115.5q0 68 -46 116t-110 48t-109.5 -48t-45.5 -116z" />
    <glyph glyph-name="plusminus" unicode="&#xb1;" horiz-adv-x="1032" 
d="M565 1053v-365h344v-86h-344v-366h-96v366h-344v86h344v365h96zM125 0v86h784v-86h-784z" />
    <glyph glyph-name="twosuperior" unicode="&#xb2;" horiz-adv-x="645" 
d="M74 920v38q8 7 46 43t51 48t48.5 47t51 52t45 50.5t43.5 54.5t34 52t29.5 54.5t16.5 51.5t7 53q0 72 -48 125t-119 53q-62 0 -113.5 -27.5t-75.5 -68.5v113q13 3 45 19.5t73 29t89 12.5q106 0 174 -71.5t68 -175.5q0 -46 -19 -95.5t-43 -89t-71 -93t-78.5 -85
t-88.5 -86.5q-22 -21 -32 -31h176q123 0 182 6v-84q-54 5 -192 5h-299z" />
    <glyph glyph-name="threesuperior" unicode="&#xb3;" horiz-adv-x="645" 
d="M274 1645q-53 0 -96 -18.5t-67 -45.5v98q6 2 39 13.5t65.5 18.5t71.5 7q99 0 163 -55t64 -143q0 -68 -42 -117.5t-107 -69.5q72 -16 122 -70t50 -126q0 -100 -71 -163t-181 -63q-42 0 -75.5 6.5t-69.5 20t-40 14.5v97q46 -64 176 -64q73 0 123 43.5t50 112.5
q0 67 -54.5 113t-128.5 46q-6 0 -15.5 -1t-14.5 -1v72q20 -4 30 -4q70 0 116 40t46 103q0 60 -44 98t-110 38z" />
    <glyph glyph-name="acute" unicode="&#xb4;" horiz-adv-x="946" 
d="M516 1034l195 303h106l-209 -303h-92z" />
    <glyph glyph-name="mu" unicode="&#xb5;" horiz-adv-x="991" 
d="M248 348q2 -125 60.5 -198.5t183.5 -73.5q74 0 130 44t82.5 107.5t26.5 132.5v332q0 122 -6 213h115q-6 -91 -6 -213v-493q0 -77 11.5 -107.5t39.5 -30.5t43 11v-70q-1 -1 -10 -5.5t-14.5 -7t-15.5 -6t-22 -5t-26 -1.5q-48 0 -74 40.5t-29 156.5q-34 -81 -100.5 -134.5
t-159.5 -53.5q-168 0 -244 127q11 -151 11 -437q0 -83 6 -206h-111q6 68 6 213v1009q0 122 -6 213h115q-6 -92 -6 -213v-344z" />
    <glyph glyph-name="paragraph" unicode="&#xb6;" horiz-adv-x="925" 
d="M721 -84h-117q4 238 4 338v186h-20q-217 0 -357.5 140t-140.5 342q0 98 36 185.5t100.5 153t161 104t210.5 38.5h262v-90h-143v-1059q0 -219 4 -338z" />
    <glyph glyph-name="periodcentered" unicode="&#xb7;" horiz-adv-x="352" 
d="M96 485q0 34 24 58t56 24t56 -24t24 -58q0 -32 -24 -55.5t-56 -23.5t-56 23.5t-24 55.5z" />
    <glyph glyph-name="cedilla" unicode="&#xb8;" horiz-adv-x="946" 
d="M309 -170l107 170h71l-65 -100q59 -3 98 -41t39 -105t-47.5 -109t-120.5 -42q-59 0 -104 26v82q10 -17 38.5 -31t61.5 -14q40 0 67 24t27 62q0 40 -30.5 65t-77.5 25q-45 0 -64 -12z" />
    <glyph glyph-name="onesuperior" unicode="&#xb9;" horiz-adv-x="507" 
d="M334 1581v-532q0 -79 4 -129h-92v692l-156 -66v74q25 7 98 40t117 56h33q-4 -29 -4 -135z" />
    <glyph glyph-name="ordmasculine" unicode="&#xba;" horiz-adv-x="669" 
d="M49 860q0 117 83.5 201t199.5 84q120 0 204.5 -83.5t84.5 -201.5q0 -117 -84.5 -199.5t-204.5 -82.5q-116 0 -199.5 82.5t-83.5 199.5zM133 860q0 -89 58 -150t141 -61q86 0 145.5 61t59.5 150t-59.5 151t-145.5 62q-83 0 -141 -62t-58 -151z" />
    <glyph glyph-name="guillemotright" unicode="&#xbb;" horiz-adv-x="1064" 
d="M508 455l-334 280v107l449 -377v-19l-445 -380v106zM868 455l-333 280v107l448 -377v-19l-444 -380v106z" />
    <glyph glyph-name="onequarter" unicode="&#xbc;" horiz-adv-x="1400" 
d="M735 276l418 523h35q0 -14 -1 -65.5t-1 -80.5v-344q116 0 145 2v-73q-31 4 -145 4v-109q0 -75 4 -133h-92q2 29 2 133v109h-234q-92 0 -131 -2v36zM254 0h-88l905 1374h88zM369 1249v-532q0 -79 4 -129h-92v692l-156 -66v74q25 7 98 40t117 56h33q-4 -29 -4 -135z
M1100 649l-269 -340h269v340z" />
    <glyph glyph-name="onehalf" unicode="&#xbd;" horiz-adv-x="1400" 
d="M854 0v39q10 9 46.5 43t50.5 48t49 47.5t51 51.5t45 50.5t43.5 54t34.5 52t29.5 55t16.5 52t7 52.5q0 72 -48.5 125t-119.5 53q-62 0 -113.5 -27.5t-75.5 -68.5v112q13 3 45 19.5t73 29.5t89 13q106 0 174 -72t68 -176q0 -46 -19 -95.5t-42.5 -88t-71 -92.5t-77 -83.5
t-88.5 -86.5q-23 -22 -34 -33h176q125 0 183 6v-84q-43 4 -193 4h-299zM254 0h-88l905 1374h88zM369 1249v-532q0 -79 4 -129h-92v692l-156 -66v74q25 7 98 40t117 56h33q-4 -29 -4 -135z" />
    <glyph glyph-name="threequarters" unicode="&#xbe;" horiz-adv-x="1400" 
d="M268 1313q-54 0 -97 -18.5t-67 -45.5v99q4 1 38.5 13t67 18.5t71.5 6.5q99 0 163 -55t64 -143q0 -68 -42.5 -117.5t-107.5 -69.5q72 -16 122 -70t50 -126q0 -100 -70.5 -162.5t-180.5 -62.5q-42 0 -75.5 6.5t-69.5 20t-40 14.5v96q46 -64 176 -64q73 0 122.5 43.5
t49.5 112.5q0 67 -54 113.5t-128 46.5q-6 0 -16 -1t-15 -1v71q20 -4 31 -4q69 0 115.5 40.5t46.5 103.5q0 60 -44 97.5t-110 37.5zM315 0h-88l906 1374h88zM739 276l418 523h35q0 -14 -1 -65.5t-1 -80.5v-344q116 0 145 2v-73q-31 4 -145 4v-109q0 -75 4 -133h-92
q2 29 2 133v109h-234q-92 0 -131 -2v36zM1104 649l-268 -340h268v340z" />
    <glyph glyph-name="questiondown" unicode="&#xbf;" horiz-adv-x="923" 
d="M547 -352q109 0 225 63v-108q-18 -3 -60 -16.5t-89 -23t-95 -9.5q-158 0 -255 101t-97 255q0 137 70.5 239.5t267.5 241.5q-15 119 -31 184h107q2 -18 5.5 -41t11.5 -72t16 -102q-142 -101 -213.5 -171.5t-96 -128.5t-24.5 -140q0 -117 72.5 -194.5t185.5 -77.5zM582 846
q0 -32 -21 -54t-51 -22q-32 0 -54 22t-22 54q0 31 22 52.5t54 21.5q29 0 50.5 -21.5t21.5 -52.5z" />
    <glyph glyph-name="Agrave" unicode="&#xc0;" horiz-adv-x="1267" 
d="M1268 0h-142q-34 99 -102 258l-121 287h-557l-117 -285q-81 -195 -98 -260h-131q62 115 143 311l471 1119h33l473 -1119q79 -182 148 -311zM866 633l-241 592l-242 -592h483zM463 1716l262 -211h-117l-282 211h137z" />
    <glyph glyph-name="Aacute" unicode="&#xc1;" horiz-adv-x="1267" 
d="M1268 0h-142q-34 99 -102 258l-121 287h-557l-117 -285q-81 -195 -98 -260h-131q62 115 143 311l471 1119h33l473 -1119q79 -182 148 -311zM866 633l-241 592l-242 -592h483zM543 1505l260 211h137l-283 -211h-114z" />
    <glyph glyph-name="Acircumflex" unicode="&#xc2;" horiz-adv-x="1267" 
d="M1268 0h-142q-34 99 -102 258l-121 287h-557l-117 -285q-81 -195 -98 -260h-131q62 115 143 311l471 1119h33l473 -1119q79 -182 148 -311zM866 633l-241 592l-242 -592h483zM631 1653l-185 -172h-108l285 258h18l287 -258h-117z" />
    <glyph glyph-name="Atilde" unicode="&#xc3;" horiz-adv-x="1267" 
d="M1268 0h-142q-34 99 -102 258l-121 287h-557l-117 -285q-81 -195 -98 -260h-131q62 115 143 311l471 1119h33l473 -1119q79 -182 148 -311zM866 633l-241 592l-242 -592h483zM389 1513h-82q-3 84 49 137.5t140 53.5q44 0 77 -12.5t53.5 -31t39 -36.5t43.5 -30.5t57 -12.5
q45 0 74.5 31t29.5 84h84q0 -88 -51 -139.5t-137 -51.5q-43 0 -76 13t-53 31.5t-38.5 36.5t-44 31t-58.5 13q-46 0 -76.5 -34.5t-30.5 -82.5z" />
    <glyph glyph-name="Adieresis" unicode="&#xc4;" horiz-adv-x="1267" 
d="M1268 0h-142q-34 99 -102 258l-121 287h-557l-117 -285q-81 -195 -98 -260h-131q62 115 143 311l471 1119h33l473 -1119q79 -182 148 -311zM866 633l-241 592l-242 -592h483zM385 1593q0 27 20.5 46.5t47.5 19.5q28 0 47.5 -19t19.5 -47q0 -27 -20 -47t-47 -20
q-26 0 -47 20.5t-21 46.5zM743 1593q0 27 21 46.5t49 19.5t47 -19t19 -47q0 -27 -19.5 -47t-46.5 -20q-28 0 -49 20.5t-21 46.5z" />
    <glyph glyph-name="Aring" unicode="&#xc5;" horiz-adv-x="1267" 
d="M459 1585q0 71 51.5 119.5t120.5 48.5q72 0 124 -48.5t52 -119.5q0 -61 -46.5 -108.5t-111.5 -55.5l471 -1110q79 -182 148 -311h-142q-34 99 -102 258l-121 287h-557l-117 -285q-81 -195 -98 -260h-131q62 115 143 311l467 1110q-62 8 -106.5 55.5t-44.5 108.5zM866 633
l-241 592l-242 -592h483zM528 1585q0 -43 31 -73.5t72 -30.5q44 0 74 30.5t30 73.5q0 46 -30 77.5t-74 31.5q-42 0 -72.5 -32t-30.5 -77z" />
    <glyph glyph-name="AE" unicode="&#xc6;" horiz-adv-x="1675" 
d="M1313 0h-377l-35 287l-39 272h-438l-156 -297q-98 -182 -131 -262h-137q50 68 180 309l584 1094h348q193 0 295 6v-102q-84 8 -285 8h-266l84 -613h254q154 0 264 7v-103q-92 6 -252 6h-248l72 -522h279q191 0 282 6v-100q-59 4 -278 4zM770 1223l-303 -574h381z" />
    <glyph glyph-name="Ccedilla" unicode="&#xc7;" horiz-adv-x="1286" 
d="M719 -172l92 152q-149 5 -282 64t-229 155t-152 227.5t-56 275.5q0 147 58.5 281t158 231.5t238.5 155t293 57.5q24 0 48 -1.5t42.5 -2.5t43 -5t38 -6t39 -8.5t34 -8t35.5 -9.5t32 -9.5t34 -10.5t31 -10v-133q-135 108 -371 108q-175 0 -323 -84t-234 -229t-86 -316
t86 -316t234 -229.5t323 -84.5q251 0 385 114v-131q-179 -67 -344 -75l-51 -80q59 -5 99 -42.5t40 -103.5q0 -68 -49 -110.5t-123 -42.5q-59 0 -105 26v84q10 -17 39 -31t62 -14q41 0 66.5 23.5t25.5 60.5q0 40 -29 64t-78 24q-45 0 -65 -10z" />
    <glyph glyph-name="Egrave" unicode="&#xc8;" horiz-adv-x="890" 
d="M440 1315h-176v-512h180q218 0 312 6v-102q-94 6 -312 6h-180v-623h193q253 0 344 6v-102q-91 6 -344 6h-310q9 254 9 367v671q0 228 -9 365h293q249 0 344 6v-102q-84 8 -344 8zM268 1716l262 -211h-116l-283 211h137z" />
    <glyph glyph-name="Eacute" unicode="&#xc9;" horiz-adv-x="890" 
d="M440 1315h-176v-512h180q218 0 312 6v-102q-94 6 -312 6h-180v-623h193q253 0 344 6v-102q-91 6 -344 6h-310q9 254 9 367v671q0 228 -9 365h293q249 0 344 6v-102q-84 8 -344 8zM358 1505l260 211h138l-283 -211h-115z" />
    <glyph glyph-name="Ecircumflex" unicode="&#xca;" horiz-adv-x="890" 
d="M440 1315h-176v-512h180q218 0 312 6v-102q-94 6 -312 6h-180v-623h193q253 0 344 6v-102q-91 6 -344 6h-310q9 254 9 367v671q0 228 -9 365h293q249 0 344 6v-102q-84 8 -344 8zM459 1653l-185 -172h-108l285 258h18l287 -258h-117z" />
    <glyph glyph-name="Edieresis" unicode="&#xcb;" horiz-adv-x="890" 
d="M440 1315h-176v-512h180q218 0 312 6v-102q-94 6 -312 6h-180v-623h193q253 0 344 6v-102q-91 6 -344 6h-310q9 254 9 367v671q0 228 -9 365h293q249 0 344 6v-102q-84 8 -344 8zM219 1593q0 27 20.5 46.5t47.5 19.5q28 0 47.5 -19t19.5 -47q0 -27 -20 -47t-47 -20
q-26 0 -47 20.5t-21 46.5zM578 1593q0 27 20.5 46.5t48.5 19.5t47 -19t19 -47q0 -27 -19.5 -47t-46.5 -20q-28 0 -48.5 20.5t-20.5 46.5z" />
    <glyph glyph-name="Igrave" unicode="&#xcc;" horiz-adv-x="440" 
d="M272 1036v-669q0 -225 9 -367h-123q8 126 8 367v669q0 245 -8 367h123q-9 -137 -9 -367zM53 1716l262 -211h-116l-283 211h137z" />
    <glyph glyph-name="Iacute" unicode="&#xcd;" horiz-adv-x="440" 
d="M272 1036v-669q0 -225 9 -367h-123q8 126 8 367v669q0 245 -8 367h123q-9 -137 -9 -367zM129 1505l260 211h137l-282 -211h-115z" />
    <glyph glyph-name="Icircumflex" unicode="&#xce;" horiz-adv-x="440" 
d="M272 1036v-669q0 -225 9 -367h-123q8 126 8 367v669q0 245 -8 367h123q-9 -137 -9 -367zM217 1653l-184 -172h-109l285 258h18l287 -258h-117z" />
    <glyph glyph-name="Idieresis" unicode="&#xcf;" horiz-adv-x="440" 
d="M272 1036v-669q0 -225 9 -367h-123q8 126 8 367v669q0 245 -8 367h123q-9 -137 -9 -367zM-29 1593q0 27 20.5 46.5t47.5 19.5q28 0 47.5 -19t19.5 -47q0 -27 -20 -47t-47 -20q-26 0 -47 20.5t-21 46.5zM330 1593q0 27 20.5 46.5t48.5 19.5t47 -19t19 -47q0 -27 -19.5 -47
t-46.5 -20q-28 0 -48.5 20.5t-20.5 46.5z" />
    <glyph glyph-name="Eth" unicode="&#xd0;" horiz-adv-x="1398" 
d="M602 0h-354q10 105 10 367v288h-213v82h213v299q0 265 -10 367h354q190 0 351.5 -94t256.5 -255.5t95 -351.5t-95 -352t-257 -256t-351 -94zM367 1315v-578h333v-82h-333v-567h229q163 0 301 83.5t217.5 224.5t79.5 306q0 123 -47 236t-127 196t-191.5 132t-234.5 49
h-227z" />
    <glyph glyph-name="Ntilde" unicode="&#xd1;" horiz-adv-x="1404" 
d="M258 295q0 -181 8 -295h-116q6 86 6 297v745q0 228 -6 394h26q48 -67 150 -189l819 -1016v805q0 238 -6 367h116q-6 -135 -6 -367v-772q0 -170 6 -289h-26q-55 77 -139 179l-828 1028zM461 1513h-82q-3 84 48.5 137.5t139.5 53.5q44 0 77 -12.5t53.5 -31t39.5 -36.5
t44 -30.5t57 -12.5q45 0 74.5 31t29.5 84h84q0 -88 -51 -139.5t-137 -51.5q-43 0 -76 13t-53.5 31.5t-39 36.5t-44 31t-58.5 13q-46 0 -76 -34.5t-30 -82.5z" />
    <glyph glyph-name="Ograve" unicode="&#xd2;" horiz-adv-x="1611" 
d="M92 702q0 147 56.5 281t151.5 231.5t227.5 155t277.5 57.5q146 0 279 -57.5t229 -155t152.5 -231.5t56.5 -281t-56.5 -281t-152.5 -231.5t-229 -155t-279 -57.5q-145 0 -277.5 57.5t-227.5 155t-151.5 231.5t-56.5 281zM203 702q0 -172 80.5 -317.5t219.5 -230t302 -84.5
q164 0 303.5 84.5t221 230t81.5 317.5q0 128 -48 245t-129.5 201.5t-193.5 134.5t-235 50q-122 0 -233.5 -50t-192.5 -134.5t-128.5 -201.5t-47.5 -245zM639 1716l262 -211h-117l-282 211h137z" />
    <glyph glyph-name="Oacute" unicode="&#xd3;" horiz-adv-x="1611" 
d="M92 702q0 147 56.5 281t151.5 231.5t227.5 155t277.5 57.5q146 0 279 -57.5t229 -155t152.5 -231.5t56.5 -281t-56.5 -281t-152.5 -231.5t-229 -155t-279 -57.5q-145 0 -277.5 57.5t-227.5 155t-151.5 231.5t-56.5 281zM203 702q0 -172 80.5 -317.5t219.5 -230t302 -84.5
q164 0 303.5 84.5t221 230t81.5 317.5q0 128 -48 245t-129.5 201.5t-193.5 134.5t-235 50q-122 0 -233.5 -50t-192.5 -134.5t-128.5 -201.5t-47.5 -245zM715 1505l260 211h137l-283 -211h-114z" />
    <glyph glyph-name="Ocircumflex" unicode="&#xd4;" horiz-adv-x="1611" 
d="M92 702q0 147 56.5 281t151.5 231.5t227.5 155t277.5 57.5q146 0 279 -57.5t229 -155t152.5 -231.5t56.5 -281t-56.5 -281t-152.5 -231.5t-229 -155t-279 -57.5q-145 0 -277.5 57.5t-227.5 155t-151.5 231.5t-56.5 281zM203 702q0 -172 80.5 -317.5t219.5 -230t302 -84.5
q164 0 303.5 84.5t221 230t81.5 317.5q0 128 -48 245t-129.5 201.5t-193.5 134.5t-235 50q-122 0 -233.5 -50t-192.5 -134.5t-128.5 -201.5t-47.5 -245zM803 1653l-185 -172h-108l285 258h18l287 -258h-117z" />
    <glyph glyph-name="Otilde" unicode="&#xd5;" horiz-adv-x="1611" 
d="M92 702q0 147 56.5 281t151.5 231.5t227.5 155t277.5 57.5q146 0 279 -57.5t229 -155t152.5 -231.5t56.5 -281t-56.5 -281t-152.5 -231.5t-229 -155t-279 -57.5q-145 0 -277.5 57.5t-227.5 155t-151.5 231.5t-56.5 281zM203 702q0 -172 80.5 -317.5t219.5 -230t302 -84.5
q164 0 303.5 84.5t221 230t81.5 317.5q0 128 -48 245t-129.5 201.5t-193.5 134.5t-235 50q-122 0 -233.5 -50t-192.5 -134.5t-128.5 -201.5t-47.5 -245zM563 1513h-82q-3 84 49 137.5t140 53.5q44 0 77 -12.5t53.5 -31t39 -36.5t43.5 -30.5t57 -12.5q45 0 74.5 31t29.5 84
h84q0 -88 -51 -139.5t-137 -51.5q-43 0 -76 13t-53 31.5t-38.5 36.5t-44 31t-58.5 13q-46 0 -76.5 -34.5t-30.5 -82.5z" />
    <glyph glyph-name="Odieresis" unicode="&#xd6;" horiz-adv-x="1611" 
d="M92 702q0 147 56.5 281t151.5 231.5t227.5 155t277.5 57.5q146 0 279 -57.5t229 -155t152.5 -231.5t56.5 -281t-56.5 -281t-152.5 -231.5t-229 -155t-279 -57.5q-145 0 -277.5 57.5t-227.5 155t-151.5 231.5t-56.5 281zM203 702q0 -172 80.5 -317.5t219.5 -230t302 -84.5
q164 0 303.5 84.5t221 230t81.5 317.5q0 128 -48 245t-129.5 201.5t-193.5 134.5t-235 50q-122 0 -233.5 -50t-192.5 -134.5t-128.5 -201.5t-47.5 -245zM557 1593q0 27 20.5 46.5t47.5 19.5q28 0 47.5 -19t19.5 -47q0 -27 -20 -47t-47 -20q-26 0 -47 20.5t-21 46.5z
M915 1593q0 27 21 46.5t49 19.5t47 -19t19 -47q0 -27 -19.5 -47t-46.5 -20q-28 0 -49 20.5t-21 46.5z" />
    <glyph glyph-name="multiply" unicode="&#xd7;" horiz-adv-x="1032" 
d="M848 782l-273 -272l275 -270l-62 -62l-270 273l-272 -271l-62 60l271 274l-273 270l60 62l272 -273l272 269z" />
    <glyph glyph-name="Oslash" unicode="&#xd8;" horiz-adv-x="1611" 
d="M92 702q0 147 56.5 281t151.5 231.5t227.5 155t277.5 57.5q244 0 440 -153l111 129h104l-155 -182q103 -100 160 -234.5t57 -284.5q0 -147 -56.5 -281t-152.5 -231.5t-229 -155t-279 -57.5q-243 0 -436 150l-109 -127h-106l155 180q-103 101 -160 236t-57 286zM203 702
q0 -257 172 -444l805 940q-167 135 -375 135q-122 0 -233.5 -50t-192.5 -134.5t-128.5 -201.5t-47.5 -245zM1411 702q0 125 -46 238.5t-128 202.5l-803 -940q162 -133 371 -133q164 0 303.5 84.5t221 230t81.5 317.5z" />
    <glyph glyph-name="Ugrave" unicode="&#xd9;" horiz-adv-x="1349" 
d="M147 1403h121q-6 -83 -6 -367v-471q0 -219 115 -356t299 -137t297.5 137t113.5 356v471q0 281 -6 367h119q-6 -135 -6 -367v-467q0 -271 -143 -431.5t-375 -160.5q-234 0 -378 160.5t-144 431.5v467q0 271 -7 367zM510 1716l262 -211h-117l-282 211h137z" />
    <glyph glyph-name="Uacute" unicode="&#xda;" horiz-adv-x="1349" 
d="M147 1403h121q-6 -83 -6 -367v-471q0 -219 115 -356t299 -137t297.5 137t113.5 356v471q0 281 -6 367h119q-6 -135 -6 -367v-467q0 -271 -143 -431.5t-375 -160.5q-234 0 -378 160.5t-144 431.5v467q0 271 -7 367zM584 1505l260 211h137l-283 -211h-114z" />
    <glyph glyph-name="Ucircumflex" unicode="&#xdb;" horiz-adv-x="1349" 
d="M147 1403h121q-6 -83 -6 -367v-471q0 -219 115 -356t299 -137t297.5 137t113.5 356v471q0 281 -6 367h119q-6 -135 -6 -367v-467q0 -271 -143 -431.5t-375 -160.5q-234 0 -378 160.5t-144 431.5v467q0 271 -7 367zM672 1653l-185 -172h-108l285 258h18l287 -258h-117z
" />
    <glyph glyph-name="Udieresis" unicode="&#xdc;" horiz-adv-x="1349" 
d="M147 1403h121q-6 -83 -6 -367v-471q0 -219 115 -356t299 -137t297.5 137t113.5 356v471q0 281 -6 367h119q-6 -135 -6 -367v-467q0 -271 -143 -431.5t-375 -160.5q-234 0 -378 160.5t-144 431.5v467q0 271 -7 367zM430 1593q0 27 20.5 46.5t47.5 19.5q28 0 47.5 -19
t19.5 -47q0 -27 -20 -47t-47 -20q-26 0 -47 20.5t-21 46.5zM788 1593q0 27 21 46.5t49 19.5t47 -19t19 -47q0 -27 -19.5 -47t-46.5 -20q-28 0 -49 20.5t-21 46.5z" />
    <glyph glyph-name="Yacute" unicode="&#xdd;" horiz-adv-x="1138" 
d="M512 0q6 189 6 365v297l-323 475q-89 135 -195 266h145q42 -74 127 -203l301 -440l289 424q95 140 137 219h140q-95 -121 -197 -275l-317 -466v-297q0 -271 6 -365h-119zM479 1505l260 211h138l-283 -211h-115z" />
    <glyph glyph-name="Thorn" unicode="&#xde;" horiz-adv-x="907" 
d="M264 303v-35q0 -174 6 -268h-120q8 84 8 289v747q0 258 -8 367h120q-8 -117 -8 -275h131q205 0 325 -115t120 -296q0 -176 -130 -295t-325 -119h-119zM264 1042v-655h119q149 0 246.5 99t97.5 231q0 138 -93 231.5t-251 93.5h-119z" />
    <glyph glyph-name="germandbls" unicode="&#xdf;" horiz-adv-x="1028" 
d="M489 737q-49 0 -96 -8v100q29 -4 86 -4q126 0 207.5 88.5t81.5 219.5q0 120 -70 205t-186 85q-122 0 -195 -82.5t-73 -265.5v-868q0 -115 6 -207h-115q6 92 6 205v868q0 115 28.5 201t80.5 137t117.5 75.5t144.5 24.5q160 0 257 -106t97 -266q0 -138 -69.5 -222.5
t-182.5 -121.5q134 -26 225 -134.5t91 -261.5q0 -179 -116.5 -300.5t-287.5 -121.5q-34 0 -65 3.5t-47.5 6.5t-50.5 11.5t-48 11.5v146q39 -48 88 -68t119 -20q126 0 214.5 96t88.5 233q0 144 -93.5 242t-242.5 98z" />
    <glyph glyph-name="agrave" unicode="&#xe0;" horiz-adv-x="872" 
d="M373 836q-144 0 -226 -93v117q16 4 55.5 20t86.5 28t100 12q166 0 249 -97t83 -301v-385q0 -76 51 -76q25 0 43 11v-70q-38 -25 -90 -25q-40 0 -67.5 27.5t-30.5 83.5q-35 -52 -99.5 -81.5t-138.5 -29.5q-142 0 -223.5 73.5t-81.5 187.5q0 113 82.5 188.5t226.5 75.5
q75 0 140 -30t90 -75v140q0 136 -58.5 217.5t-191.5 81.5zM188 242q0 -81 59 -134t163 -53q91 0 155 54.5t64 132.5q0 75 -64.5 129.5t-154.5 54.5q-103 0 -162.5 -53t-59.5 -131zM266 1337l195 -303h-94l-209 303h108z" />
    <glyph glyph-name="aacute" unicode="&#xe1;" horiz-adv-x="872" 
d="M373 836q-144 0 -226 -93v117q16 4 55.5 20t86.5 28t100 12q166 0 249 -97t83 -301v-385q0 -76 51 -76q25 0 43 11v-70q-38 -25 -90 -25q-40 0 -67.5 27.5t-30.5 83.5q-35 -52 -99.5 -81.5t-138.5 -29.5q-142 0 -223.5 73.5t-81.5 187.5q0 113 82.5 188.5t226.5 75.5
q75 0 140 -30t90 -75v140q0 136 -58.5 217.5t-191.5 81.5zM188 242q0 -81 59 -134t163 -53q91 0 155 54.5t64 132.5q0 75 -64.5 129.5t-154.5 54.5q-103 0 -162.5 -53t-59.5 -131zM326 1034l194 303h107l-209 -303h-92z" />
    <glyph glyph-name="acircumflex" unicode="&#xe2;" horiz-adv-x="872" 
d="M373 836q-144 0 -226 -93v117q16 4 55.5 20t86.5 28t100 12q166 0 249 -97t83 -301v-385q0 -76 51 -76q25 0 43 11v-70q-38 -25 -90 -25q-40 0 -67.5 27.5t-30.5 83.5q-35 -52 -99.5 -81.5t-138.5 -29.5q-142 0 -223.5 73.5t-81.5 187.5q0 113 82.5 188.5t226.5 75.5
q75 0 140 -30t90 -75v140q0 136 -58.5 217.5t-191.5 81.5zM188 242q0 -81 59 -134t163 -53q91 0 155 54.5t64 132.5q0 75 -64.5 129.5t-154.5 54.5q-103 0 -162.5 -53t-59.5 -131zM399 1225l-155 -197h-92l241 291h17l237 -291h-94z" />
    <glyph glyph-name="atilde" unicode="&#xe3;" horiz-adv-x="872" 
d="M373 836q-144 0 -226 -93v117q16 4 55.5 20t86.5 28t100 12q166 0 249 -97t83 -301v-385q0 -76 51 -76q25 0 43 11v-70q-38 -25 -90 -25q-40 0 -67.5 27.5t-30.5 83.5q-35 -52 -99.5 -81.5t-138.5 -29.5q-142 0 -223.5 73.5t-81.5 187.5q0 113 82.5 188.5t226.5 75.5
q75 0 140 -30t90 -75v140q0 136 -58.5 217.5t-191.5 81.5zM188 242q0 -81 59 -134t163 -53q91 0 155 54.5t64 132.5q0 75 -64.5 129.5t-154.5 54.5q-103 0 -162.5 -53t-59.5 -131zM225 1073h-75q2 71 42 117.5t109 46.5q32 0 61.5 -15.5t47.5 -33.5t39.5 -33.5t39.5 -15.5
q40 0 62 24.5t22 67.5h74q0 -68 -44 -116t-109 -48q-34 0 -64 15.5t-48 33.5t-40.5 33.5t-42.5 15.5q-34 0 -54 -25.5t-20 -66.5z" />
    <glyph glyph-name="adieresis" unicode="&#xe4;" horiz-adv-x="872" 
d="M373 836q-144 0 -226 -93v117q16 4 55.5 20t86.5 28t100 12q166 0 249 -97t83 -301v-385q0 -76 51 -76q25 0 43 11v-70q-38 -25 -90 -25q-40 0 -67.5 27.5t-30.5 83.5q-35 -52 -99.5 -81.5t-138.5 -29.5q-142 0 -223.5 73.5t-81.5 187.5q0 113 82.5 188.5t226.5 75.5
q75 0 140 -30t90 -75v140q0 136 -58.5 217.5t-191.5 81.5zM188 242q0 -81 59 -134t163 -53q91 0 155 54.5t64 132.5q0 75 -64.5 129.5t-154.5 54.5q-103 0 -162.5 -53t-59.5 -131zM160 1182q0 26 18.5 43.5t44.5 17.5t44 -17.5t18 -43.5t-18 -44t-44 -18t-44.5 18t-18.5 44z
M516 1182q0 26 18.5 43.5t45.5 17.5q26 0 43.5 -17.5t17.5 -43.5t-17.5 -44t-43.5 -18t-45 18t-19 44z" />
    <glyph glyph-name="aring" unicode="&#xe5;" horiz-adv-x="872" 
d="M373 836q-144 0 -226 -93v117q16 4 55.5 20t86.5 28t100 12q166 0 249 -97t83 -301v-385q0 -76 51 -76q25 0 43 11v-70q-38 -25 -90 -25q-40 0 -67.5 27.5t-30.5 83.5q-35 -52 -99.5 -81.5t-138.5 -29.5q-142 0 -223.5 73.5t-81.5 187.5q0 113 82.5 188.5t226.5 75.5
q75 0 140 -30t90 -75v140q0 136 -58.5 217.5t-191.5 81.5zM188 242q0 -81 59 -134t163 -53q91 0 155 54.5t64 132.5q0 75 -64.5 129.5t-154.5 54.5q-103 0 -162.5 -53t-59.5 -131zM244 1180q0 62 45.5 105.5t109.5 43.5q65 0 111.5 -44t46.5 -105t-46.5 -105.5t-111.5 -44.5
q-64 0 -109.5 44t-45.5 106zM311 1180q0 -37 26.5 -63.5t61.5 -26.5q37 0 63.5 26.5t26.5 63.5t-26.5 63.5t-63.5 26.5q-35 0 -61.5 -26.5t-26.5 -63.5z" />
    <glyph glyph-name="ae" unicode="&#xe6;" horiz-adv-x="1540" 
d="M147 752v118q17 4 56 17.5t82.5 23t95.5 9.5q126 0 206.5 -66.5t92.5 -189.5q38 116 136.5 185t221.5 69q70 0 131.5 -21.5t104 -57t76 -78.5t53 -89.5t29.5 -86.5t10 -71q0 -21 -2 -25h-729v-36q0 -161 103.5 -273t256.5 -112q175 0 297 86v-115q-27 -6 -78.5 -22
t-101.5 -24.5t-121 -8.5q-76 0 -141.5 20.5t-111 55.5t-77 72.5t-53.5 80.5q-8 -98 -85 -167t-208 -69q-140 0 -222.5 70.5t-82.5 188.5q0 120 83 193t222 73q159 0 232 -105v133q0 139 -62.5 221.5t-191.5 82.5q-154 0 -222 -82zM188 238q0 -78 61.5 -130.5t162.5 -52.5
q94 0 155.5 54.5t61.5 130.5q0 80 -64.5 133t-152.5 53q-103 0 -163.5 -50.5t-60.5 -137.5zM1032 838q-114 0 -196.5 -74.5t-112.5 -196.5h608q-14 107 -98 189t-201 82z" />
    <glyph glyph-name="ccedilla" unicode="&#xe7;" horiz-adv-x="841" 
d="M408 -170l98 158q-118 7 -215 70t-152 167t-55 226q0 195 132.5 332t322.5 137q54 0 122.5 -12t94.5 -13v-125q-82 59 -213 59q-149 0 -253 -111t-104 -267q0 -155 104.5 -265t252.5 -110q78 0 127 12.5t90 44.5v-121q-139 -23 -185 -24l-55 -88q59 -3 98 -41t39 -105
t-47.5 -109t-120.5 -42q-59 0 -104 26v82q10 -17 38.5 -31t61.5 -14q40 0 67.5 24t27.5 62q0 40 -31 65t-78 25q-44 0 -63 -12z" />
    <glyph glyph-name="egrave" unicode="&#xe8;" horiz-adv-x="997" 
d="M913 489h-723q-9 -107 33 -203t128 -156t194 -60q95 0 161.5 17.5t133.5 66.5v-115q-23 -3 -65.5 -17.5t-102.5 -26t-140 -11.5q-193 0 -320.5 134t-127.5 331q0 205 121.5 337t300.5 132q82 0 152.5 -29.5t116 -75t78.5 -101.5t47.5 -107.5t14.5 -94.5q0 -4 -1 -11.5
t-1 -9.5zM506 838q-112 0 -195 -77t-112 -194h604q-10 101 -93.5 186t-203.5 85zM369 1337l194 -303h-94l-209 303h109z" />
    <glyph glyph-name="eacute" unicode="&#xe9;" horiz-adv-x="997" 
d="M913 489h-723q-9 -107 33 -203t128 -156t194 -60q95 0 161.5 17.5t133.5 66.5v-115q-23 -3 -65.5 -17.5t-102.5 -26t-140 -11.5q-193 0 -320.5 134t-127.5 331q0 205 121.5 337t300.5 132q82 0 152.5 -29.5t116 -75t78.5 -101.5t47.5 -107.5t14.5 -94.5q0 -4 -1 -11.5
t-1 -9.5zM506 838q-112 0 -195 -77t-112 -194h604q-10 101 -93.5 186t-203.5 85zM453 1034l194 303h107l-209 -303h-92z" />
    <glyph glyph-name="ecircumflex" unicode="&#xea;" horiz-adv-x="997" 
d="M913 489h-723q-9 -107 33 -203t128 -156t194 -60q95 0 161.5 17.5t133.5 66.5v-115q-23 -3 -65.5 -17.5t-102.5 -26t-140 -11.5q-193 0 -320.5 134t-127.5 331q0 205 121.5 337t300.5 132q82 0 152.5 -29.5t116 -75t78.5 -101.5t47.5 -107.5t14.5 -94.5q0 -4 -1 -11.5
t-1 -9.5zM506 838q-112 0 -195 -77t-112 -194h604q-10 101 -93.5 186t-203.5 85zM508 1225l-156 -197h-92l242 291h16l238 -291h-94z" />
    <glyph glyph-name="edieresis" unicode="&#xeb;" horiz-adv-x="997" 
d="M913 489h-723q-9 -107 33 -203t128 -156t194 -60q95 0 161.5 17.5t133.5 66.5v-115q-23 -3 -65.5 -17.5t-102.5 -26t-140 -11.5q-193 0 -320.5 134t-127.5 331q0 205 121.5 337t300.5 132q82 0 152.5 -29.5t116 -75t78.5 -101.5t47.5 -107.5t14.5 -94.5q0 -4 -1 -11.5
t-1 -9.5zM506 838q-112 0 -195 -77t-112 -194h604q-10 101 -93.5 186t-203.5 85zM266 1182q0 26 18.5 43.5t45.5 17.5q26 0 43.5 -17.5t17.5 -43.5t-17.5 -44t-43.5 -18t-45 18t-19 44zM623 1182q0 26 18.5 43.5t44.5 17.5t44 -17.5t18 -43.5t-18 -44t-44 -18t-44.5 18
t-18.5 44z" />
    <glyph glyph-name="igrave" unicode="&#xec;" horiz-adv-x="401" 
d="M256 692v-477q0 -153 6 -215h-115q7 79 7 215v621h-93q9 6 17.5 16t12 15t13.5 20.5t11 17.5h147q-6 -71 -6 -213zM68 1337l194 -303h-94l-209 303h109z" />
    <glyph glyph-name="iacute" unicode="&#xed;" horiz-adv-x="401" 
d="M256 692v-477q0 -153 6 -215h-115q7 79 7 215v621h-93q9 6 17.5 16t12 15t13.5 20.5t11 17.5h147q-6 -71 -6 -213zM145 1034l195 303h106l-208 -303h-93z" />
    <glyph glyph-name="icircumflex" unicode="&#xee;" horiz-adv-x="401" 
d="M256 692v-477q0 -153 6 -215h-115q7 79 7 215v621h-93q9 6 17.5 16t12 15t13.5 20.5t11 17.5h147q-6 -71 -6 -213zM205 1225l-156 -197h-92l242 291h16l238 -291h-95z" />
    <glyph glyph-name="idieresis" unicode="&#xef;" horiz-adv-x="401" 
d="M256 692v-477q0 -153 6 -215h-115q7 79 7 215v621h-93q9 6 17.5 16t12 15t13.5 20.5t11 17.5h147q-6 -71 -6 -213zM-37 1182q0 26 18.5 43.5t45.5 17.5q26 0 43.5 -17.5t17.5 -43.5t-17.5 -44t-43.5 -18t-45 18t-19 44zM319 1182q0 26 18.5 43.5t45.5 17.5
q26 0 43.5 -17.5t17.5 -43.5t-17.5 -44t-43.5 -18t-45 18t-19 44z" />
    <glyph glyph-name="eth" unicode="&#xf0;" horiz-adv-x="1112" 
d="M375 1124l223 136q-150 110 -377 153v92q277 -53 461 -194l190 114l37 -57l-172 -104q270 -255 273 -725q0 -159 -62 -286t-168.5 -197t-236.5 -70q-196 0 -329.5 135.5t-133.5 329.5q0 195 135.5 332t327.5 137q112 0 208.5 -51.5t147.5 -145.5q-44 309 -244 489
l-243 -147zM899 487q0 151 -102 244.5t-252 93.5q-148 0 -252.5 -109.5t-104.5 -264.5q0 -154 104.5 -263.5t252.5 -109.5q152 0 253 119.5t101 289.5z" />
    <glyph glyph-name="ntilde" unicode="&#xf1;" horiz-adv-x="978" 
d="M743 539q0 147 -70 222t-171 75q-106 0 -176 -79t-70 -206v-336q0 -123 6 -215h-115q7 107 7 215v621h-93q27 27 54 69h141v-151q33 69 106 118.5t173 49.5q142 0 225.5 -101t83.5 -284v-322q0 -134 8 -215h-117q8 81 8 215v324zM328 1073h-76q2 71 42 117.5t109 46.5
q40 0 75.5 -24.5t63.5 -49t50 -24.5q40 0 62 24.5t22 67.5h74q0 -68 -44.5 -116t-109.5 -48q-34 0 -64 15.5t-48 33.5t-40.5 33.5t-42.5 15.5q-34 0 -53.5 -25t-19.5 -67z" />
    <glyph glyph-name="ograve" unicode="&#xf2;" horiz-adv-x="1089" 
d="M84 453q0 193 135 330t324 137q126 0 232.5 -62.5t168.5 -170t62 -234.5t-62 -234.5t-168.5 -170t-232.5 -62.5q-189 0 -324 137t-135 330zM184 453q0 -157 105 -267t254 -110q150 0 256 110.5t106 266.5t-106 266t-256 110q-149 0 -254 -110.5t-105 -265.5zM403 1337
l195 -303h-94l-209 303h108z" />
    <glyph glyph-name="oacute" unicode="&#xf3;" horiz-adv-x="1089" 
d="M84 453q0 193 135 330t324 137q126 0 232.5 -62.5t168.5 -170t62 -234.5t-62 -234.5t-168.5 -170t-232.5 -62.5q-189 0 -324 137t-135 330zM184 453q0 -157 105 -267t254 -110q150 0 256 110.5t106 266.5t-106 266t-256 110q-149 0 -254 -110.5t-105 -265.5zM487 1034
l195 303h106l-208 -303h-93z" />
    <glyph glyph-name="ocircumflex" unicode="&#xf4;" horiz-adv-x="1089" 
d="M84 453q0 193 135 330t324 137q126 0 232.5 -62.5t168.5 -170t62 -234.5t-62 -234.5t-168.5 -170t-232.5 -62.5q-189 0 -324 137t-135 330zM184 453q0 -157 105 -267t254 -110q150 0 256 110.5t106 266.5t-106 266t-256 110q-149 0 -254 -110.5t-105 -265.5zM543 1225
l-156 -197h-92l242 291h16l238 -291h-95z" />
    <glyph glyph-name="otilde" unicode="&#xf5;" horiz-adv-x="1089" 
d="M84 453q0 193 135 330t324 137q126 0 232.5 -62.5t168.5 -170t62 -234.5t-62 -234.5t-168.5 -170t-232.5 -62.5q-189 0 -324 137t-135 330zM184 453q0 -157 105 -267t254 -110q150 0 256 110.5t106 266.5t-106 266t-256 110q-149 0 -254 -110.5t-105 -265.5zM371 1073
h-76q2 71 42 117.5t109 46.5q40 0 75.5 -24.5t63.5 -49t50 -24.5q40 0 62 24.5t22 67.5h74q0 -68 -44.5 -116t-109.5 -48q-34 0 -64 15.5t-48 33.5t-40.5 33.5t-42.5 15.5q-34 0 -53.5 -25t-19.5 -67z" />
    <glyph glyph-name="odieresis" unicode="&#xf6;" horiz-adv-x="1089" 
d="M84 453q0 193 135 330t324 137q126 0 232.5 -62.5t168.5 -170t62 -234.5t-62 -234.5t-168.5 -170t-232.5 -62.5q-189 0 -324 137t-135 330zM184 453q0 -157 105 -267t254 -110q150 0 256 110.5t106 266.5t-106 266t-256 110q-149 0 -254 -110.5t-105 -265.5zM301 1182
q0 26 18.5 43.5t45.5 17.5q26 0 43.5 -17.5t17.5 -43.5t-17.5 -44t-43.5 -18t-45 18t-19 44zM657 1182q0 26 18.5 43.5t45.5 17.5q26 0 43.5 -17.5t17.5 -43.5t-17.5 -44t-43.5 -18t-45 18t-19 44z" />
    <glyph glyph-name="divide" unicode="&#xf7;" horiz-adv-x="1032" 
d="M156 467v88h718v-88h-718zM442 715q0 29 20.5 49t49.5 20q33 0 54.5 -19.5t21.5 -49.5q0 -31 -22 -52.5t-54 -21.5q-29 0 -49.5 21.5t-20.5 52.5zM442 311q0 29 20.5 50.5t49.5 21.5q32 0 54 -21t22 -51q0 -31 -22 -52t-54 -21q-29 0 -49.5 21t-20.5 52z" />
    <glyph glyph-name="oslash" unicode="&#xf8;" horiz-adv-x="1091" 
d="M84 453q0 193 135 330t324 137q167 0 295 -109l55 61h78l-90 -100q125 -135 125 -319q0 -194 -135 -330.5t-328 -136.5q-161 0 -285 100l-49 -55h-82l88 96q-131 134 -131 326zM186 453q0 -146 93 -254l493 542q-101 88 -229 88q-148 0 -252.5 -110.5t-104.5 -265.5z
M903 453q0 137 -90 245l-491 -542q96 -80 221 -80q149 0 254.5 110t105.5 267z" />
    <glyph glyph-name="ugrave" unicode="&#xf9;" horiz-adv-x="985" 
d="M252 350q0 -138 67.5 -209t167.5 -71q114 0 181 84t67 200v338q0 124 -6 213h115q-6 -89 -6 -213v-493q0 -126 28 -199h-98q-31 60 -31 150q-37 -74 -106 -120t-168 -46q-139 0 -226 93.5t-87 264.5v494h-93q31 28 54 69h145q-4 -118 -4 -213v-342zM348 1337l195 -303
h-94l-209 303h108z" />
    <glyph glyph-name="uacute" unicode="&#xfa;" horiz-adv-x="985" 
d="M252 350q0 -138 67.5 -209t167.5 -71q114 0 181 84t67 200v338q0 124 -6 213h115q-6 -89 -6 -213v-493q0 -126 28 -199h-98q-31 60 -31 150q-37 -74 -106 -120t-168 -46q-139 0 -226 93.5t-87 264.5v494h-93q31 28 54 69h145q-4 -118 -4 -213v-342zM434 1034l195 303h106
l-209 -303h-92z" />
    <glyph glyph-name="ucircumflex" unicode="&#xfb;" horiz-adv-x="985" 
d="M252 350q0 -138 67.5 -209t167.5 -71q114 0 181 84t67 200v338q0 124 -6 213h115q-6 -89 -6 -213v-493q0 -126 28 -199h-98q-31 60 -31 150q-37 -74 -106 -120t-168 -46q-139 0 -226 93.5t-87 264.5v494h-93q31 28 54 69h145q-4 -118 -4 -213v-342zM494 1225l-156 -197
h-92l241 291h17l237 -291h-94z" />
    <glyph glyph-name="udieresis" unicode="&#xfc;" horiz-adv-x="985" 
d="M252 350q0 -138 67.5 -209t167.5 -71q114 0 181 84t67 200v338q0 124 -6 213h115q-6 -89 -6 -213v-493q0 -126 28 -199h-98q-31 60 -31 150q-37 -74 -106 -120t-168 -46q-139 0 -226 93.5t-87 264.5v494h-93q31 28 54 69h145q-4 -118 -4 -213v-342zM252 1182
q0 26 18.5 43.5t44.5 17.5t44 -17.5t18 -43.5t-18 -44t-44 -18t-44.5 18t-18.5 44zM608 1182q0 26 18.5 43.5t45.5 17.5q26 0 43.5 -17.5t17.5 -43.5t-17.5 -44t-43.5 -18t-45 18t-19 44z" />
    <glyph glyph-name="yacute" unicode="&#xfd;" horiz-adv-x="874" 
d="M178 -424q-38 -61 -73 -86t-82 -25q-21 0 -33 5q65 87 125 178q195 301 293 481l-291 565q-74 141 -115 211h131q13 -39 72 -164l258 -497q147 305 219 481q33 77 70 180h122q-15 -26 -33 -64.5t-40.5 -89.5t-28.5 -65q-160 -368 -272 -571q-77 -147 -322 -539zM381 1034
l194 303h107l-209 -303h-92z" />
    <glyph glyph-name="thorn" unicode="&#xfe;" horiz-adv-x="1140" 
d="M145 -258v1694h-92q40 46 53 67h148q-6 -58 -6 -213v-600q47 109 147.5 169.5t212.5 60.5q124 0 227.5 -62t162.5 -169t59 -234q0 -196 -132 -332.5t-321 -136.5q-113 0 -209.5 58.5t-146.5 164.5l2 -467q0 -158 6 -266h-117q6 108 6 266zM242 453q0 -157 103.5 -268
t250.5 -111q146 0 250 111t104 268q0 156 -105.5 267t-252.5 111t-248.5 -110.5t-101.5 -267.5z" />
    <glyph glyph-name="ydieresis" unicode="&#xff;" horiz-adv-x="874" 
d="M178 -424q-38 -61 -73 -86t-82 -25q-21 0 -33 5q65 87 125 178q195 301 293 481l-291 565q-74 141 -115 211h131q13 -39 72 -164l258 -497q147 305 219 481q33 77 70 180h122q-15 -26 -33 -64.5t-40.5 -89.5t-28.5 -65q-160 -368 -272 -571q-77 -147 -322 -539zM203 1182
q0 26 18.5 43.5t44.5 17.5t44 -17.5t18 -43.5t-18 -44t-44 -18t-44.5 18t-18.5 44zM559 1182q0 26 18.5 43.5t45.5 17.5q26 0 43.5 -17.5t17.5 -43.5t-17.5 -44t-43.5 -18t-45 18t-19 44z" />
    <glyph glyph-name="Amacron" unicode="&#x100;" horiz-adv-x="1267" 
d="M1268 0h-142q-34 99 -102 258l-121 287h-557l-117 -285q-81 -195 -98 -260h-131q62 115 143 311l471 1119h33l473 -1119q79 -182 148 -311zM866 633l-241 592l-242 -592h483zM360 1610h543v-76h-543v76z" />
    <glyph glyph-name="amacron" unicode="&#x101;" horiz-adv-x="872" 
d="M373 836q-144 0 -226 -93v117q16 4 55.5 20t86.5 28t100 12q166 0 249 -97t83 -301v-385q0 -76 51 -76q25 0 43 11v-70q-38 -25 -90 -25q-40 0 -67.5 27.5t-30.5 83.5q-35 -52 -99.5 -81.5t-138.5 -29.5q-142 0 -223.5 73.5t-81.5 187.5q0 113 82.5 188.5t226.5 75.5
q75 0 140 -30t90 -75v140q0 136 -58.5 217.5t-191.5 81.5zM188 242q0 -81 59 -134t163 -53q91 0 155 54.5t64 132.5q0 75 -64.5 129.5t-154.5 54.5q-103 0 -162.5 -53t-59.5 -131zM176 1188h455v-76h-455v76z" />
    <glyph glyph-name="Abreve" unicode="&#x102;" horiz-adv-x="1267" 
d="M1268 0h-142q-34 99 -102 258l-121 287h-557l-117 -285q-81 -195 -98 -260h-131q62 115 143 311l471 1119h33l473 -1119q79 -182 148 -311zM866 633l-241 592l-242 -592h483zM440 1704q0 -66 56.5 -111t136.5 -45q77 0 132.5 45.5t55.5 110.5h84q0 -99 -79.5 -162
t-192.5 -63q-118 0 -197.5 62.5t-79.5 162.5h84z" />
    <glyph glyph-name="abreve" unicode="&#x103;" horiz-adv-x="872" 
d="M373 836q-144 0 -226 -93v117q16 4 55.5 20t86.5 28t100 12q166 0 249 -97t83 -301v-385q0 -76 51 -76q25 0 43 11v-70q-38 -25 -90 -25q-40 0 -67.5 27.5t-30.5 83.5q-35 -52 -99.5 -81.5t-138.5 -29.5q-142 0 -223.5 73.5t-81.5 187.5q0 113 82.5 188.5t226.5 75.5
q75 0 140 -30t90 -75v140q0 136 -58.5 217.5t-191.5 81.5zM188 242q0 -81 59 -134t163 -53q91 0 155 54.5t64 132.5q0 75 -64.5 129.5t-154.5 54.5q-103 0 -162.5 -53t-59.5 -131zM260 1257q0 -61 43 -103t105 -42t104.5 42t42.5 103h78q0 -93 -65 -155t-160 -62t-160.5 62
t-65.5 155h78z" />
    <glyph glyph-name="Aogonek" unicode="&#x104;" horiz-adv-x="1267" 
d="M1268 0q-143 -69 -239.5 -163t-96.5 -183q0 -52 33.5 -83.5t83.5 -31.5q91 0 157 60v-95q-73 -49 -186 -49q-84 0 -137.5 47.5t-53.5 130.5q0 54 28 109.5t75.5 103t94.5 84.5t101 70h-2q-34 99 -102 258l-121 287h-557l-117 -285q-81 -195 -98 -260h-131q62 115 143 311
l471 1119h33l473 -1119q79 -182 148 -311zM866 633l-241 592l-242 -592h483z" />
    <glyph glyph-name="aogonek" unicode="&#x105;" horiz-adv-x="872" 
d="M373 836q-144 0 -226 -93v117q16 4 55.5 20t86.5 28t100 12q166 0 249 -97t83 -301v-385q0 -76 51 -76q25 0 43 11l-2 -56q-160 -117 -224.5 -187t-64.5 -140q0 -57 34.5 -89t90.5 -32q66 0 123 51v-84q-26 -19 -66.5 -32t-80.5 -13q-90 0 -142.5 47.5t-52.5 128.5
q0 38 14 74t32 63t57.5 63.5t67 58.5t83.5 65q-54 18 -57 98q-35 -52 -99.5 -81.5t-138.5 -29.5q-142 0 -223.5 73.5t-81.5 187.5q0 113 82.5 188.5t226.5 75.5q75 0 140 -30t90 -75v140q0 136 -58.5 217.5t-191.5 81.5zM188 242q0 -81 59 -134t163 -53q91 0 155 54.5
t64 132.5q0 75 -64.5 129.5t-154.5 54.5q-103 0 -162.5 -53t-59.5 -131z" />
    <glyph glyph-name="Cacute" unicode="&#x106;" horiz-adv-x="1286" 
d="M203 702q0 -171 86 -316t234 -229.5t323 -84.5q251 0 385 114v-131q-210 -78 -391 -78q-154 0 -293 57.5t-238.5 155t-158 231.5t-58.5 281t58.5 281t158 231.5t238.5 155t293 57.5q24 0 48 -1.5t42.5 -2.5t43 -5t38 -6t39 -8.5t34 -8t35.5 -9.5t32 -9.5t34 -10.5t31 -10
v-133q-135 108 -371 108q-175 0 -323 -84t-234 -229t-86 -316zM731 1505l260 211h137l-282 -211h-115z" />
    <glyph glyph-name="cacute" unicode="&#x107;" horiz-adv-x="841" 
d="M186 451q0 -155 104.5 -265t252.5 -110q78 0 127 12.5t90 44.5v-121q-19 -3 -63 -10.5t-79.5 -11.5t-78.5 -4q-190 0 -322.5 135.5t-132.5 329.5q0 195 132.5 332t322.5 137q54 0 122.5 -12t94.5 -13v-125q-82 59 -213 59q-149 0 -253 -111t-104 -267zM457 1034l194 303
h107l-209 -303h-92z" />
    <glyph glyph-name="Ccircumflex" unicode="&#x108;" horiz-adv-x="1286" 
d="M203 702q0 -171 86 -316t234 -229.5t323 -84.5q251 0 385 114v-131q-210 -78 -391 -78q-154 0 -293 57.5t-238.5 155t-158 231.5t-58.5 281t58.5 281t158 231.5t238.5 155t293 57.5q24 0 48 -1.5t42.5 -2.5t43 -5t38 -6t39 -8.5t34 -8t35.5 -9.5t32 -9.5t34 -10.5t31 -10
v-133q-135 108 -371 108q-175 0 -323 -84t-234 -229t-86 -316zM801 1653l-185 -172h-108l285 258h18l287 -258h-117z" />
    <glyph glyph-name="ccircumflex" unicode="&#x109;" horiz-adv-x="841" 
d="M186 451q0 -155 104.5 -265t252.5 -110q78 0 127 12.5t90 44.5v-121q-19 -3 -63 -10.5t-79.5 -11.5t-78.5 -4q-190 0 -322.5 135.5t-132.5 329.5q0 195 132.5 332t322.5 137q54 0 122.5 -12t94.5 -13v-125q-82 59 -213 59q-149 0 -253 -111t-104 -267zM510 1225
l-156 -197h-92l242 291h16l238 -291h-94z" />
    <glyph glyph-name="Cdotaccent" unicode="&#x10a;" horiz-adv-x="1286" 
d="M203 702q0 -171 86 -316t234 -229.5t323 -84.5q251 0 385 114v-131q-210 -78 -391 -78q-154 0 -293 57.5t-238.5 155t-158 231.5t-58.5 281t58.5 281t158 231.5t238.5 155t293 57.5q24 0 48 -1.5t42.5 -2.5t43 -5t38 -6t39 -8.5t34 -8t35.5 -9.5t32 -9.5t34 -10.5t31 -10
v-133q-135 108 -371 108q-175 0 -323 -84t-234 -229t-86 -316zM756 1583q0 28 20 48t49 20t49.5 -20t20.5 -48t-20.5 -49t-49.5 -21t-49 21t-20 49z" />
    <glyph glyph-name="cdotaccent" unicode="&#x10b;" horiz-adv-x="841" 
d="M186 451q0 -155 104.5 -265t252.5 -110q78 0 127 12.5t90 44.5v-121q-19 -3 -63 -10.5t-79.5 -11.5t-78.5 -4q-190 0 -322.5 135.5t-132.5 329.5q0 195 132.5 332t322.5 137q54 0 122.5 -12t94.5 -13v-125q-82 59 -213 59q-149 0 -253 -111t-104 -267zM449 1176
q0 29 18.5 47t46.5 18t47 -18t19 -47q0 -28 -19 -47t-47 -19t-46.5 19t-18.5 47z" />
    <glyph glyph-name="Ccaron" unicode="&#x10c;" horiz-adv-x="1286" 
d="M203 702q0 -171 86 -316t234 -229.5t323 -84.5q251 0 385 114v-131q-210 -78 -391 -78q-154 0 -293 57.5t-238.5 155t-158 231.5t-58.5 281t58.5 281t158 231.5t238.5 155t293 57.5q24 0 48 -1.5t42.5 -2.5t43 -5t38 -6t39 -8.5t34 -8t35.5 -9.5t32 -9.5t34 -10.5t31 -10
v-133q-135 108 -371 108q-175 0 -323 -84t-234 -229t-86 -316zM821 1561l185 172h110l-285 -256h-20l-287 256h117z" />
    <glyph glyph-name="ccaron" unicode="&#x10d;" horiz-adv-x="841" 
d="M186 451q0 -155 104.5 -265t252.5 -110q78 0 127 12.5t90 44.5v-121q-19 -3 -63 -10.5t-79.5 -11.5t-78.5 -4q-190 0 -322.5 135.5t-132.5 329.5q0 195 132.5 332t322.5 137q54 0 122.5 -12t94.5 -13v-125q-82 59 -213 59q-149 0 -253 -111t-104 -267zM512 1106l156 197
h90l-240 -291h-18l-238 291h94z" />
    <glyph glyph-name="Dcaron" unicode="&#x10e;" horiz-adv-x="1298" 
d="M502 0h-355q11 116 11 367v669q0 255 -11 367h355q189 0 351 -94t256.5 -255.5t94.5 -351.5q0 -142 -56 -272.5t-150 -224.5t-224 -149.5t-272 -55.5zM266 1315v-1227h230q163 0 301 83.5t217.5 224.5t79.5 306q0 123 -47 236t-127 196t-191.5 132t-234.5 49h-228z
M510 1561l184 172h111l-285 -256h-20l-287 256h117z" />
    <glyph glyph-name="dcaron" unicode="&#x10f;" horiz-adv-x="1138" 
d="M993 1333v-1120q0 -139 6 -213h-114q6 62 6 207q-55 -106 -153 -163.5t-206 -57.5q-188 0 -318 137.5t-130 333.5t129.5 329.5t323.5 133.5q114 0 208 -54.5t146 -160.5v731h-92q30 24 53 67h147q-6 -91 -6 -170zM897 453q0 157 -101 267.5t-247 110.5
q-148 0 -254.5 -110t-106.5 -266q0 -158 106 -269.5t255 -111.5q145 0 246.5 111t101.5 268zM1100 1200l8 316h96l-24 -316h-80z" />
    <glyph glyph-name="Dcroat" unicode="&#x110;" horiz-adv-x="1398" 
d="M602 0h-354q10 105 10 367v288h-213v82h213v299q0 265 -10 367h354q190 0 351.5 -94t256.5 -255.5t95 -351.5t-95 -352t-257 -256t-351 -94zM367 1315v-578h333v-82h-333v-567h229q163 0 301 83.5t217.5 224.5t79.5 306q0 123 -47 236t-127 196t-191.5 132t-234.5 49
h-227z" />
    <glyph glyph-name="dcroat" unicode="&#x111;" horiz-adv-x="1165" 
d="M993 1407v-221h172v-78h-172v-895q0 -123 11 -213h-123q2 16 10 207q-55 -106 -153 -163.5t-206 -57.5q-188 0 -318 137.5t-130 333.5t129.5 329.5t323.5 133.5q114 0 208 -54.5t146 -160.5v403h-412v78h412v250h-92q28 25 53 67h147q-6 -41 -6 -96zM899 453
q0 157 -102 267.5t-248 110.5q-148 0 -254.5 -110t-106.5 -266q0 -158 106 -269.5t255 -111.5q145 0 247.5 111t102.5 268z" />
    <glyph glyph-name="Emacron" unicode="&#x112;" horiz-adv-x="890" 
d="M440 1315h-176v-512h180q218 0 312 6v-102q-94 6 -312 6h-180v-623h193q253 0 344 6v-102q-91 6 -344 6h-310q9 254 9 367v671q0 228 -9 365h293q249 0 344 6v-102q-84 8 -344 8zM190 1610h543v-76h-543v76z" />
    <glyph glyph-name="emacron" unicode="&#x113;" horiz-adv-x="997" 
d="M913 489h-723q-9 -107 33 -203t128 -156t194 -60q95 0 161.5 17.5t133.5 66.5v-115q-23 -3 -65.5 -17.5t-102.5 -26t-140 -11.5q-193 0 -320.5 134t-127.5 331q0 205 121.5 337t300.5 132q82 0 152.5 -29.5t116 -75t78.5 -101.5t47.5 -107.5t14.5 -94.5q0 -4 -1 -11.5
t-1 -9.5zM506 838q-112 0 -195 -77t-112 -194h604q-10 101 -93.5 186t-203.5 85zM281 1188h454v-76h-454v76z" />
    <glyph glyph-name="Ebreve" unicode="&#x114;" horiz-adv-x="890" 
d="M440 1315h-176v-512h180q218 0 312 6v-102q-94 6 -312 6h-180v-623h193q253 0 344 6v-102q-91 6 -344 6h-310q9 254 9 367v671q0 228 -9 365h293q249 0 344 6v-102q-84 8 -344 8zM274 1704q0 -66 56.5 -111t136.5 -45q77 0 132.5 45.5t55.5 110.5h84q0 -99 -79.5 -162
t-192.5 -63q-118 0 -197.5 62.5t-79.5 162.5h84z" />
    <glyph glyph-name="ebreve" unicode="&#x115;" horiz-adv-x="997" 
d="M913 489h-723q-9 -107 33 -203t128 -156t194 -60q95 0 161.5 17.5t133.5 66.5v-115q-23 -3 -65.5 -17.5t-102.5 -26t-140 -11.5q-193 0 -320.5 134t-127.5 331q0 205 121.5 337t300.5 132q82 0 152.5 -29.5t116 -75t78.5 -101.5t47.5 -107.5t14.5 -94.5q0 -4 -1 -11.5
t-1 -9.5zM506 838q-112 0 -195 -77t-112 -194h604q-10 101 -93.5 186t-203.5 85zM360 1257q0 -61 43 -103t105 -42t104.5 42t42.5 103h78q0 -93 -65 -155t-160 -62t-160 62t-65 155h77z" />
    <glyph glyph-name="Edotaccent" unicode="&#x116;" horiz-adv-x="890" 
d="M440 1315h-176v-512h180q218 0 312 6v-102q-94 6 -312 6h-180v-623h193q253 0 344 6v-102q-91 6 -344 6h-310q9 254 9 367v671q0 228 -9 365h293q249 0 344 6v-102q-84 8 -344 8zM395 1583q0 28 20.5 48t49.5 20t49.5 -20t20.5 -48t-20.5 -49t-49.5 -21t-49.5 21
t-20.5 49z" />
    <glyph glyph-name="edotaccent" unicode="&#x117;" horiz-adv-x="997" 
d="M913 489h-723q-9 -107 33 -203t128 -156t194 -60q95 0 161.5 17.5t133.5 66.5v-115q-23 -3 -65.5 -17.5t-102.5 -26t-140 -11.5q-193 0 -320.5 134t-127.5 331q0 205 121.5 337t300.5 132q82 0 152.5 -29.5t116 -75t78.5 -101.5t47.5 -107.5t14.5 -94.5q0 -4 -1 -11.5
t-1 -9.5zM506 838q-112 0 -195 -77t-112 -194h604q-10 101 -93.5 186t-203.5 85zM444 1176q0 29 19 47t47 18t46.5 -18t18.5 -47q0 -28 -18.5 -47t-46.5 -19t-47 19t-19 47z" />
    <glyph glyph-name="Eogonek" unicode="&#x118;" horiz-adv-x="890" 
d="M387 -365q0 54 27.5 109t74.5 102.5t94 84t101 69.5h-537q9 254 9 367v671q0 228 -9 365h293q218 0 344 8v-104q-84 8 -344 8h-176v-512h180q218 0 312 6v-102q-94 6 -312 6h-180v-623h193q253 0 344 6v-96h-4q-130 -72 -219 -165t-89 -179q0 -52 33.5 -84.5t83.5 -32.5
q93 0 158 62v-95q-28 -20 -78.5 -34.5t-105.5 -14.5q-84 0 -138.5 47.5t-54.5 130.5z" />
    <glyph glyph-name="eogonek" unicode="&#x119;" horiz-adv-x="997" 
d="M913 489h-723q-9 -107 33 -203t128 -156t194 -60q95 0 161.5 17.5t133.5 66.5v-115q-149 -100 -235.5 -187t-86.5 -165q0 -55 35 -87t88 -32q66 0 123 51v-84q-65 -43 -162 -43q-78 0 -128 47t-50 127q0 45 21.5 90.5t61 88.5t83 79t100.5 76q-62 -16 -158 -16
q-193 0 -320.5 134t-127.5 331q0 205 121.5 337t300.5 132q82 0 152.5 -29.5t116 -75t78.5 -101.5t47.5 -107.5t14.5 -94.5q0 -4 -1 -11.5t-1 -9.5zM506 838q-112 0 -195 -77t-112 -194h604q-10 101 -93.5 186t-203.5 85z" />
    <glyph glyph-name="Ecaron" unicode="&#x11a;" horiz-adv-x="890" 
d="M440 1315h-176v-512h180q218 0 312 6v-102q-94 6 -312 6h-180v-623h193q253 0 344 6v-102q-91 6 -344 6h-310q9 254 9 367v671q0 228 -9 365h293q249 0 344 6v-102q-84 8 -344 8zM467 1561l184 172h111l-285 -256h-20l-287 256h117z" />
    <glyph glyph-name="ecaron" unicode="&#x11b;" horiz-adv-x="997" 
d="M913 489h-723q-9 -107 33 -203t128 -156t194 -60q95 0 161.5 17.5t133.5 66.5v-115q-23 -3 -65.5 -17.5t-102.5 -26t-140 -11.5q-193 0 -320.5 134t-127.5 331q0 205 121.5 337t300.5 132q82 0 152.5 -29.5t116 -75t78.5 -101.5t47.5 -107.5t14.5 -94.5q0 -4 -1 -11.5
t-1 -9.5zM506 838q-112 0 -195 -77t-112 -194h604q-10 101 -93.5 186t-203.5 85zM510 1106l156 197h90l-240 -291h-18l-238 291h94z" />
    <glyph glyph-name="Gcircumflex" unicode="&#x11c;" horiz-adv-x="1357" 
d="M1219 399v-352q-99 -37 -183 -53.5t-196 -16.5q-160 0 -300 57.5t-238 155t-154 231t-56 281.5t56 281.5t153.5 231t237.5 155t299 57.5q192 0 360 -73v-131q-74 59 -159.5 83.5t-198.5 24.5q-181 0 -327.5 -84.5t-228 -228t-81.5 -316.5q0 -130 48.5 -246t132.5 -200.5
t203 -134t255 -49.5q193 0 272 51v274q0 130 -8 252h121q-8 -122 -8 -250zM801 1653l-185 -172h-108l285 258h18l287 -258h-117z" />
    <glyph glyph-name="gcircumflex" unicode="&#x11d;" horiz-adv-x="974" 
d="M793 905h90q0 -52 -19 -85.5t-63 -67.5q59 -82 59 -197q0 -154 -109.5 -262.5t-265.5 -108.5q-56 0 -119.5 24.5t-84.5 24.5q-31 0 -56.5 -36.5t-25.5 -90.5q0 -47 32 -84.5t74 -37.5q10 0 71 10t111 10q184 0 312.5 -79t128.5 -199q0 -114 -131 -194.5t-314 -80.5
q-186 0 -316 78.5t-130 194.5q0 73 48.5 126.5t123.5 86.5q-51 16 -81 67.5t-30 101.5q0 55 33.5 107.5t93.5 75.5q-112 109 -112 266q0 151 108.5 258t263.5 107q156 0 263 -111q45 36 45 96zM217 555q0 -118 78.5 -201.5t187.5 -83.5q114 0 193.5 83t79.5 202
q0 117 -79.5 198t-193.5 81q-109 0 -187.5 -81.5t-78.5 -197.5zM141 -274q0 -83 100 -140t242 -57q140 0 239 57t99 138q0 80 -100.5 137t-239.5 57q-140 0 -240 -56.5t-100 -135.5zM489 1225l-155 -197h-92l241 291h17l237 -291h-94z" />
    <glyph glyph-name="Gbreve" unicode="&#x11e;" horiz-adv-x="1357" 
d="M1219 399v-352q-99 -37 -183 -53.5t-196 -16.5q-160 0 -300 57.5t-238 155t-154 231t-56 281.5t56 281.5t153.5 231t237.5 155t299 57.5q192 0 360 -73v-131q-74 59 -159.5 83.5t-198.5 24.5q-181 0 -327.5 -84.5t-228 -228t-81.5 -316.5q0 -130 48.5 -246t132.5 -200.5
t203 -134t255 -49.5q193 0 272 51v274q0 130 -8 252h121q-8 -122 -8 -250zM631 1704q0 -66 56 -111t136 -45q77 0 133 45.5t56 110.5h84q0 -99 -80 -162t-193 -63q-118 0 -197 62.5t-79 162.5h84z" />
    <glyph glyph-name="gbreve" unicode="&#x11f;" horiz-adv-x="974" 
d="M793 905h90q0 -52 -19 -85.5t-63 -67.5q59 -82 59 -197q0 -154 -109.5 -262.5t-265.5 -108.5q-56 0 -119.5 24.5t-84.5 24.5q-31 0 -56.5 -36.5t-25.5 -90.5q0 -47 32 -84.5t74 -37.5q10 0 71 10t111 10q184 0 312.5 -79t128.5 -199q0 -114 -131 -194.5t-314 -80.5
q-186 0 -316 78.5t-130 194.5q0 73 48.5 126.5t123.5 86.5q-51 16 -81 67.5t-30 101.5q0 55 33.5 107.5t93.5 75.5q-112 109 -112 266q0 151 108.5 258t263.5 107q156 0 263 -111q45 36 45 96zM217 555q0 -118 78.5 -201.5t187.5 -83.5q114 0 193.5 83t79.5 202
q0 117 -79.5 198t-193.5 81q-109 0 -187.5 -81.5t-78.5 -197.5zM141 -274q0 -83 100 -140t242 -57q140 0 239 57t99 138q0 80 -100.5 137t-239.5 57q-140 0 -240 -56.5t-100 -135.5zM342 1257q0 -61 42.5 -103t104.5 -42t105 42t43 103h78q0 -93 -65.5 -155t-160.5 -62
t-160 62t-65 155h78z" />
    <glyph glyph-name="Gdotaccent" unicode="&#x120;" horiz-adv-x="1357" 
d="M1219 399v-352q-99 -37 -183 -53.5t-196 -16.5q-160 0 -300 57.5t-238 155t-154 231t-56 281.5t56 281.5t153.5 231t237.5 155t299 57.5q192 0 360 -73v-131q-74 59 -159.5 83.5t-198.5 24.5q-181 0 -327.5 -84.5t-228 -228t-81.5 -316.5q0 -130 48.5 -246t132.5 -200.5
t203 -134t255 -49.5q193 0 272 51v274q0 130 -8 252h121q-8 -122 -8 -250zM752 1583q0 28 20 48t49 20t49.5 -20t20.5 -48t-20.5 -49t-49.5 -21t-49 21t-20 49z" />
    <glyph glyph-name="gdotaccent" unicode="&#x121;" horiz-adv-x="974" 
d="M793 905h90q0 -52 -19 -85.5t-63 -67.5q59 -82 59 -197q0 -154 -109.5 -262.5t-265.5 -108.5q-56 0 -119.5 24.5t-84.5 24.5q-31 0 -56.5 -36.5t-25.5 -90.5q0 -47 32 -84.5t74 -37.5q10 0 71 10t111 10q184 0 312.5 -79t128.5 -199q0 -114 -131 -194.5t-314 -80.5
q-186 0 -316 78.5t-130 194.5q0 73 48.5 126.5t123.5 86.5q-51 16 -81 67.5t-30 101.5q0 55 33.5 107.5t93.5 75.5q-112 109 -112 266q0 151 108.5 258t263.5 107q156 0 263 -111q45 36 45 96zM217 555q0 -118 78.5 -201.5t187.5 -83.5q114 0 193.5 83t79.5 202
q0 117 -79.5 198t-193.5 81q-109 0 -187.5 -81.5t-78.5 -197.5zM141 -274q0 -83 100 -140t242 -57q140 0 239 57t99 138q0 80 -100.5 137t-239.5 57q-140 0 -240 -56.5t-100 -135.5zM424 1176q0 29 18.5 47t46.5 18t47 -18t19 -47q0 -28 -19 -47t-47 -19t-46.5 19t-18.5 47z
" />
    <glyph glyph-name="Gcommaaccent" unicode="&#x122;" horiz-adv-x="1357" 
d="M1219 399v-352q-99 -37 -183 -53.5t-196 -16.5q-160 0 -300 57.5t-238 155t-154 231t-56 281.5t56 281.5t153.5 231t237.5 155t299 57.5q192 0 360 -73v-131q-74 59 -159.5 83.5t-198.5 24.5q-181 0 -327.5 -84.5t-228 -228t-81.5 -316.5q0 -130 48.5 -246t132.5 -200.5
t203 -134t255 -49.5q193 0 272 51v274q0 130 -8 252h121q-8 -122 -8 -250zM776 -162v68q89 -2 147 -55t58 -136q0 -75 -53 -124.5t-133 -49.5q-45 0 -97 21v73q42 -26 88 -26q45 0 77 31t32 75q0 52 -35.5 87.5t-83.5 35.5z" />
    <glyph glyph-name="gcommaaccent" unicode="&#x123;" horiz-adv-x="974" 
d="M793 905h90q0 -52 -19 -85.5t-63 -67.5q59 -82 59 -197q0 -154 -109.5 -262.5t-265.5 -108.5q-56 0 -119.5 24.5t-84.5 24.5q-31 0 -56.5 -36.5t-25.5 -90.5q0 -47 32 -84.5t74 -37.5q10 0 71 10t111 10q184 0 312.5 -79t128.5 -199q0 -114 -131 -194.5t-314 -80.5
q-186 0 -316 78.5t-130 194.5q0 73 48.5 126.5t123.5 86.5q-51 16 -81 67.5t-30 101.5q0 55 33.5 107.5t93.5 75.5q-112 109 -112 266q0 151 108.5 258t263.5 107q156 0 263 -111q45 36 45 96zM217 555q0 -118 78.5 -201.5t187.5 -83.5q114 0 193.5 83t79.5 202
q0 117 -79.5 198t-193.5 81q-109 0 -187.5 -81.5t-78.5 -197.5zM141 -274q0 -83 100 -140t242 -57q140 0 239 57t99 138q0 80 -100.5 137t-239.5 57q-140 0 -240 -56.5t-100 -135.5zM547 1065v-68q-89 2 -147 55t-58 136q0 75 53 124.5t133 49.5q44 0 97 -21v-73
q-42 26 -88 26q-45 0 -77 -31t-32 -75q0 -52 35.5 -87.5t83.5 -35.5z" />
    <glyph glyph-name="Hcircumflex" unicode="&#x124;" horiz-adv-x="1370" 
d="M264 1036v-231h842v231q0 281 -6 367h121q-7 -157 -7 -367v-741q0 -195 7 -295h-121q6 86 6 297v418h-842v-420q0 -209 6 -295h-118q6 86 6 297v739q0 284 -6 367h118q-6 -83 -6 -367zM682 1653l-184 -172h-109l285 258h18l287 -258h-117z" />
    <glyph glyph-name="hcircumflex" unicode="&#x125;" horiz-adv-x="972" 
d="M735 213v317q0 140 -63.5 222t-175.5 82q-117 0 -182.5 -86t-65.5 -216v-319q0 -143 6 -213h-115q6 70 6 213v1223h-92q11 10 28.5 34.5t24.5 32.5h148q-6 -77 -6 -213v-536q37 77 111 121.5t167 44.5q152 0 232 -107.5t80 -284.5v-315q0 -143 6 -213h-115q6 141 6 213z
M188 1694l-184 -172h-108l284 258h19l286 -258h-116z" />
    <glyph glyph-name="Hbar" unicode="&#x126;" horiz-adv-x="1382" 
d="M47 1100h117q-3 183 -8 303h125q-7 -164 -7 -303h838q-5 241 -8 303h129q-6 -120 -10 -303h110v-78h-110v-727q0 -153 10 -295h-129q8 76 8 297v405h-838v-407q0 -95 7 -295h-125q8 114 8 297v725h-117v78zM274 795h838v227h-838v-227z" />
    <glyph glyph-name="hbar" unicode="&#x127;" horiz-adv-x="974" 
d="M737 213v317q0 140 -63.5 222t-175.5 82q-117 0 -182.5 -86t-65.5 -216v-319q0 -143 6 -213h-115q6 70 6 213v895h-143v78h143v250h-90q11 10 28 34.5t24 32.5h147q-6 -73 -6 -213v-104h356v-78h-356v-354q37 77 111 121.5t167 44.5q152 0 232 -107.5t80 -284.5v-315
q0 -143 6 -213h-115q6 141 6 213z" />
    <glyph glyph-name="Itilde" unicode="&#x128;" horiz-adv-x="440" 
d="M272 1036v-669q0 -225 9 -367h-123q8 126 8 367v669q0 245 -8 367h123q-9 -137 -9 -367zM-20 1513h-82q-3 84 48.5 137.5t139.5 53.5q44 0 77 -12.5t53.5 -31t39 -36.5t43.5 -30.5t57 -12.5q45 0 75 31t30 84h84q0 -88 -51.5 -139.5t-137.5 -51.5q-43 0 -76 13t-53 31.5
t-38.5 36.5t-44 31t-58.5 13q-46 0 -76 -34.5t-30 -82.5z" />
    <glyph glyph-name="itilde" unicode="&#x129;" horiz-adv-x="401" 
d="M256 692v-477q0 -153 6 -215h-115q7 79 7 215v621h-93q9 6 17.5 16t12 15t13.5 20.5t11 17.5h147q-6 -71 -6 -213zM29 1073h-76q2 71 42 117.5t109 46.5q40 0 75.5 -24.5t63.5 -49t50 -24.5q40 0 62 24.5t22 67.5h74q0 -68 -44.5 -116t-109.5 -48q-34 0 -64 15.5
t-48 33.5t-40.5 33.5t-42.5 15.5q-34 0 -53.5 -25t-19.5 -67z" />
    <glyph glyph-name="Imacron" unicode="&#x12a;" horiz-adv-x="440" 
d="M272 1036v-669q0 -225 9 -367h-123q8 126 8 367v669q0 245 -8 367h123q-9 -137 -9 -367zM-53 1610h542v-76h-542v76z" />
    <glyph glyph-name="imacron" unicode="&#x12b;" horiz-adv-x="401" 
d="M256 692v-477q0 -153 6 -215h-115q7 79 7 215v621h-93q9 6 17.5 16t12 15t13.5 20.5t11 17.5h147q-6 -71 -6 -213zM-27 1188h455v-76h-455v76z" />
    <glyph glyph-name="Ibreve" unicode="&#x12c;" horiz-adv-x="440" 
d="M272 1036v-669q0 -225 9 -367h-123q8 126 8 367v669q0 245 -8 367h123q-9 -137 -9 -367zM29 1704q0 -66 56 -111t136 -45q77 0 133 45.5t56 110.5h84q0 -99 -80 -162t-193 -63q-118 0 -197 62.5t-79 162.5h84z" />
    <glyph glyph-name="ibreve" unicode="&#x12d;" horiz-adv-x="401" 
d="M256 692v-477q0 -153 6 -215h-115q7 79 7 215v621h-93q9 6 17.5 16t12 15t13.5 20.5t11 17.5h147q-6 -71 -6 -213zM53 1257q0 -61 43 -103t105 -42t104.5 42t42.5 103h78q0 -93 -65 -155t-160 -62t-160.5 62t-65.5 155h78z" />
    <glyph glyph-name="Iogonek" unicode="&#x12e;" horiz-adv-x="440" 
d="M272 1036v-669q0 -225 9 -367q-295 -175 -295 -344q0 -52 35.5 -84.5t87.5 -32.5q86 0 151 62v-95q-69 -49 -180 -49q-86 0 -141.5 47.5t-55.5 130.5q0 176 275 365q8 132 8 367v669q0 245 -8 367h123q-9 -137 -9 -367z" />
    <glyph glyph-name="iogonek" unicode="&#x12f;" horiz-adv-x="401" 
d="M256 692v-477q0 -153 6 -215q-130 -88 -195 -161t-65 -152q0 -55 36 -87t89 -32q63 0 123 51v-84q-69 -43 -164 -43q-77 0 -127.5 47.5t-50.5 128.5q0 49 19 95.5t56.5 89t74 74.5t89.5 73q7 79 7 215v621h-93q31 28 54 69h147q-6 -71 -6 -213zM135 1180q0 29 19 48
t47 19q29 0 48 -19t19 -48q0 -28 -19 -47t-48 -19q-28 0 -47 19t-19 47z" />
    <glyph glyph-name="Idotaccent" unicode="&#x130;" horiz-adv-x="440" 
d="M272 1036v-669q0 -225 9 -367h-123q8 126 8 367v669q0 245 -8 367h123q-9 -137 -9 -367zM150 1583q0 28 20 48t49 20t49.5 -20t20.5 -48t-20.5 -49t-49.5 -21t-49 21t-20 49z" />
    <glyph glyph-name="dotlessi" unicode="&#x131;" horiz-adv-x="401" 
d="M256 692v-477q0 -153 6 -215h-115q7 79 7 215v621h-93q9 6 17.5 16t12 15t13.5 20.5t11 17.5h147q-6 -71 -6 -213z" />
    <glyph glyph-name="IJ" unicode="&#x132;" horiz-adv-x="874" 
d="M272 1036v-669q0 -225 9 -367h-123q8 126 8 367v669q0 245 -8 367h123q-9 -137 -9 -367zM715 1036v-1034q0 -173 -91 -267.5t-231 -94.5q-26 0 -52.5 4.5t-56 11.5t-44.5 10v131q52 -65 149 -65q93 0 156 73.5t63 192.5v1038q0 245 -8 367h121q-6 -91 -6 -367z" />
    <glyph glyph-name="ij" unicode="&#x133;" horiz-adv-x="802" 
d="M256 692v-477q0 -153 6 -215h-115q7 79 7 215v621h-93q31 28 54 69h147q-6 -71 -6 -213zM135 1180q0 29 19 48t47 19q29 0 48 -19t19 -48q0 -28 -19 -47t-48 -19q-28 0 -47 19t-19 47zM657 692v-860q0 -173 -68.5 -270t-205.5 -97q-37 0 -78 7.5t-43 7.5v102
q35 -31 100 -31q88 0 140.5 74t52.5 209v1002h-94q23 23 55 69h148q-7 -89 -7 -213zM535 1180q0 29 18.5 48t46.5 19q29 0 48.5 -19t19.5 -48q0 -28 -19.5 -47t-48.5 -19q-28 0 -46.5 19t-18.5 47z" />
    <glyph glyph-name="Jcircumflex" unicode="&#x134;" horiz-adv-x="434" 
d="M274 1036v-1034q0 -173 -90.5 -267.5t-230.5 -94.5q-26 0 -52.5 4.5t-56.5 11.5t-45 10v131q52 -65 150 -65q93 0 156 73.5t63 192.5v1038q0 245 -8 367h121q-7 -107 -7 -367zM219 1653l-184 -172h-109l285 258h18l287 -258h-117z" />
    <glyph glyph-name="jcircumflex" unicode="&#x135;" horiz-adv-x="401" 
d="M256 692v-866q0 -171 -69 -268t-205 -97q-38 0 -79 6.5t-42 6.5v102q33 -29 100 -29q88 0 140.5 74.5t52.5 212.5v1002h-95q27 25 54 69h149q-6 -76 -6 -213zM203 1225l-156 -197h-92l242 291h16l238 -291h-95z" />
    <glyph glyph-name="Kcommaaccent" unicode="&#x136;" horiz-adv-x="1091" 
d="M264 1036v-303l408 445q132 144 196 225h146q-81 -76 -236 -242l-407 -438l503 -516q74 -79 218 -207h-174q-65 83 -142 162l-512 526v-321q0 -178 6 -367h-120q6 94 6 367v669q0 276 -6 367h120q-6 -183 -6 -367zM475 -162v68q89 -2 147 -55t58 -136q0 -75 -53 -124.5
t-133 -49.5q-44 0 -97 21v73q42 -26 88 -26q45 0 77 31t32 75q0 52 -35.5 87.5t-83.5 35.5z" />
    <glyph glyph-name="kcommaaccent" unicode="&#x137;" horiz-adv-x="819" 
d="M248 1290v-825q317 361 375 440h131q-72 -64 -396 -434q221 -238 299 -318t162 -153h-151q-32 40 -101 114t-319 335v-236q0 -143 6 -213h-115q6 70 6 213v1223h-92q23 20 51 67h150q-6 -73 -6 -213zM367 -162v68q88 -2 146 -55t58 -136q0 -75 -53 -124.5t-133 -49.5
q-43 0 -96 21v73q42 -26 88 -26q44 0 76 31t32 75q0 52 -35 87.5t-83 35.5z" />
    <glyph glyph-name="kgreenlandic" unicode="&#x138;" horiz-adv-x="825" 
d="M154 244v592h-93q24 24 54 69h147q-6 -123 -6 -243v-195l305 346q51 57 90 79.5t88 22.5q40 0 68 -16q-50 -13 -87 -43t-87 -90l-262 -297l256 -279q126 -130 198 -190h-155q-29 45 -127 147l-287 299v-202q0 -182 6 -244h-115q7 75 7 244z" />
    <glyph glyph-name="Lacute" unicode="&#x139;" horiz-adv-x="894" 
d="M264 1036v-946h262q198 0 320 8v-106q-122 8 -320 8h-376q6 170 6 367v669q0 276 -6 367h120q-6 -183 -6 -367zM129 1505l260 211h137l-282 -211h-115z" />
    <glyph glyph-name="lacute" unicode="&#x13a;" horiz-adv-x="393" 
d="M248 1245v-1032q0 -143 6 -213h-115q6 70 6 213v1178h-92q27 27 51 67h150q-6 -70 -6 -213zM106 1499l203 168h137l-223 -168h-117z" />
    <glyph glyph-name="Lcommaaccent" unicode="&#x13b;" horiz-adv-x="894" 
d="M264 1036v-946h262q198 0 320 8v-106q-122 8 -320 8h-376q6 170 6 367v669q0 276 -6 367h120q-6 -183 -6 -367zM399 -162v68q89 -2 147 -55t58 -136q0 -75 -53 -124.5t-133 -49.5q-44 0 -96 21v73q42 -26 88 -26q44 0 76 31t32 75q0 52 -35.5 87.5t-83.5 35.5z" />
    <glyph glyph-name="lcommaaccent" unicode="&#x13c;" horiz-adv-x="393" 
d="M248 1290v-1077q0 -143 6 -213h-115q6 70 6 213v1223h-92q23 20 51 67h150q-6 -73 -6 -213zM141 -162v68q89 -2 147 -55t58 -136q0 -75 -53 -124.5t-133 -49.5q-44 0 -97 21v73q42 -26 89 -26q44 0 76 31t32 75q0 52 -35.5 87.5t-83.5 35.5z" />
    <glyph glyph-name="Lcaron" unicode="&#x13d;" horiz-adv-x="894" 
d="M264 1036v-946h262q198 0 320 8v-106q-122 8 -320 8h-376q6 170 6 367v669q0 276 -6 367h120q-6 -183 -6 -367zM528 1200l9 316h96l-25 -316h-80z" />
    <glyph glyph-name="lcaron" unicode="&#x13e;" horiz-adv-x="393" 
d="M248 1290v-1077q0 -143 6 -213h-115q6 70 6 213v1223h-92q23 20 51 67h150q-6 -73 -6 -213zM356 1200l9 316h96l-25 -316h-80z" />
    <glyph glyph-name="Ldot" unicode="&#x13f;" horiz-adv-x="894" 
d="M264 1036v-946h262q198 0 320 8v-106q-122 8 -320 8h-376q6 170 6 367v669q0 276 -6 367h120q-6 -183 -6 -367zM594 766q0 28 20.5 48t49.5 20t49 -20t20 -48t-20 -49t-49 -21t-49.5 21t-20.5 49z" />
    <glyph glyph-name="ldot" unicode="&#x140;" horiz-adv-x="446" 
d="M360 799q0 26 16.5 43.5t41.5 17.5q23 0 39 -17.5t16 -43.5q0 -25 -16 -42.5t-39 -17.5q-25 0 -41.5 17.5t-16.5 42.5zM248 1290v-1077q0 -143 6 -213h-115q6 70 6 213v1223h-92q23 20 51 67h150q-6 -73 -6 -213z" />
    <glyph glyph-name="Lslash" unicode="&#x141;" horiz-adv-x="976" 
d="M348 1036v-297l369 219v-100l-369 -221v-547h260q198 0 320 8v-106q-122 8 -320 8h-375q7 198 7 367v215l-191 -113v102l191 111v354q0 260 -7 367h119q-4 -122 -4 -367z" />
    <glyph glyph-name="lslash" unicode="&#x142;" horiz-adv-x="571" 
d="M334 1290v-456l188 118v-90l-188 -121v-528q0 -143 6 -213h-115q6 70 6 213v471l-182 -119v94l182 115v662h-92q23 20 51 67h150q-6 -73 -6 -213z" />
    <glyph glyph-name="Nacute" unicode="&#x143;" horiz-adv-x="1404" 
d="M258 295q0 -181 8 -295h-116q6 86 6 297v745q0 228 -6 394h26q48 -67 150 -189l819 -1016v805q0 238 -6 367h116q-6 -135 -6 -367v-772q0 -170 6 -289h-26q-55 77 -139 179l-828 1028zM616 1505l261 211h137l-283 -211h-115z" />
    <glyph glyph-name="nacute" unicode="&#x144;" horiz-adv-x="978" 
d="M743 539q0 147 -70 222t-171 75q-106 0 -176 -79t-70 -206v-336q0 -123 6 -215h-115q7 107 7 215v621h-93q27 27 54 69h141v-151q33 69 106 118.5t173 49.5q142 0 225.5 -101t83.5 -284v-322q0 -134 8 -215h-117q8 81 8 215v324zM438 1034l195 303h106l-209 -303h-92z
" />
    <glyph glyph-name="Ncommaaccent" unicode="&#x145;" horiz-adv-x="1404" 
d="M258 295q0 -181 8 -295h-116q6 86 6 297v745q0 228 -6 394h26q48 -67 150 -189l819 -1016v805q0 238 -6 367h116q-6 -135 -6 -367v-772q0 -170 6 -289h-26q-55 77 -139 179l-828 1028zM670 -162v68q88 -2 146 -55t58 -136q0 -75 -53 -124.5t-133 -49.5q-44 0 -96 21v73
q42 -26 88 -26q44 0 76 31t32 75q0 52 -35 87.5t-83 35.5z" />
    <glyph glyph-name="ncommaaccent" unicode="&#x146;" horiz-adv-x="978" 
d="M743 539q0 147 -70 222t-171 75q-106 0 -176 -79t-70 -206v-336q0 -123 6 -215h-115q7 107 7 215v621h-93q27 27 54 69h141v-151q33 69 106 118.5t173 49.5q142 0 225.5 -101t83.5 -284v-322q0 -134 8 -215h-117q8 81 8 215v324zM432 -162v68q89 -2 147 -55t58 -136
q0 -75 -53 -124.5t-133 -49.5q-45 0 -97 21v73q42 -26 88 -26q45 0 77 31t32 75q0 52 -35.5 87.5t-83.5 35.5z" />
    <glyph glyph-name="Ncaron" unicode="&#x147;" horiz-adv-x="1404" 
d="M258 295q0 -181 8 -295h-116q6 86 6 297v745q0 228 -6 394h26q48 -67 150 -189l819 -1016v805q0 238 -6 367h116q-6 -135 -6 -367v-772q0 -170 6 -289h-26q-55 77 -139 179l-828 1028zM700 1561l185 172h110l-284 -256h-21l-287 256h117z" />
    <glyph glyph-name="ncaron" unicode="&#x148;" horiz-adv-x="978" 
d="M743 539q0 147 -70 222t-171 75q-106 0 -176 -79t-70 -206v-336q0 -123 6 -215h-115q7 107 7 215v621h-93q27 27 54 69h141v-151q33 69 106 118.5t173 49.5q142 0 225.5 -101t83.5 -284v-322q0 -134 8 -215h-117q8 81 8 215v324zM506 1106l156 197h90l-240 -291h-18
l-238 291h94z" />
    <glyph glyph-name="napostrophe" unicode="&#x149;" horiz-adv-x="978" 
d="M743 539q0 147 -70 222t-171 75q-106 0 -176 -79t-70 -206v-336q0 -123 6 -215h-115q7 107 7 215v621h-93q27 27 54 69h141v-151q33 69 106 118.5t173 49.5q142 0 225.5 -101t83.5 -284v-322q0 -134 8 -215h-117q8 81 8 215v324zM147 1008l9 315h96l-25 -315h-80z" />
    <glyph glyph-name="Eng" unicode="&#x14a;" horiz-adv-x="1404" 
d="M1249 1036v-1032q0 -172 -90 -268t-231 -96q-19 0 -40 2.5t-34.5 5.5t-39.5 9t-38 9v127q52 -65 152 -65q92 0 154.5 73.5t62.5 192.5v82l-885 1108v-776q0 -279 6 -408h-119q9 132 9 422v620q0 224 -6 394h26q48 -71 195 -254l774 -951v805q0 184 -6 367h118
q-8 -81 -8 -367z" />
    <glyph glyph-name="eng" unicode="&#x14b;" horiz-adv-x="989" 
d="M743 543q0 134 -69 212.5t-174 78.5q-113 0 -178.5 -79t-65.5 -208v-334q0 -91 4 -213h-113q7 107 7 213v623h-93q30 26 54 69h141v-151q30 69 95.5 117.5t170.5 48.5q148 0 236 -103t88 -272v-506q0 -172 -69.5 -269.5t-205.5 -97.5q-28 0 -55 4t-44 7.5t-21 3.5v102
q33 -29 100 -29q88 0 140 73.5t52 207.5v502z" />
    <glyph glyph-name="Omacron" unicode="&#x14c;" horiz-adv-x="1611" 
d="M92 702q0 147 56.5 281t151.5 231.5t227.5 155t277.5 57.5q146 0 279 -57.5t229 -155t152.5 -231.5t56.5 -281t-56.5 -281t-152.5 -231.5t-229 -155t-279 -57.5q-145 0 -277.5 57.5t-227.5 155t-151.5 231.5t-56.5 281zM203 702q0 -172 80.5 -317.5t219.5 -230t302 -84.5
q164 0 303.5 84.5t221 230t81.5 317.5q0 128 -48 245t-129.5 201.5t-193.5 134.5t-235 50q-122 0 -233.5 -50t-192.5 -134.5t-128.5 -201.5t-47.5 -245zM535 1610h542v-76h-542v76z" />
    <glyph glyph-name="omacron" unicode="&#x14d;" horiz-adv-x="1089" 
d="M84 453q0 193 135 330t324 137q126 0 232.5 -62.5t168.5 -170t62 -234.5t-62 -234.5t-168.5 -170t-232.5 -62.5q-189 0 -324 137t-135 330zM184 453q0 -157 105 -267t254 -110q150 0 256 110.5t106 266.5t-106 266t-256 110q-149 0 -254 -110.5t-105 -265.5zM315 1188
h455v-76h-455v76z" />
    <glyph glyph-name="Obreve" unicode="&#x14e;" horiz-adv-x="1611" 
d="M92 702q0 147 56.5 281t151.5 231.5t227.5 155t277.5 57.5q146 0 279 -57.5t229 -155t152.5 -231.5t56.5 -281t-56.5 -281t-152.5 -231.5t-229 -155t-279 -57.5q-145 0 -277.5 57.5t-227.5 155t-151.5 231.5t-56.5 281zM203 702q0 -172 80.5 -317.5t219.5 -230t302 -84.5
q164 0 303.5 84.5t221 230t81.5 317.5q0 128 -48 245t-129.5 201.5t-193.5 134.5t-235 50q-122 0 -233.5 -50t-192.5 -134.5t-128.5 -201.5t-47.5 -245zM614 1704q0 -66 56.5 -111t136.5 -45q77 0 132.5 45.5t55.5 110.5h84q0 -99 -79.5 -162t-192.5 -63q-118 0 -197.5 62.5
t-79.5 162.5h84z" />
    <glyph glyph-name="obreve" unicode="&#x14f;" horiz-adv-x="1089" 
d="M84 453q0 193 135 330t324 137q126 0 232.5 -62.5t168.5 -170t62 -234.5t-62 -234.5t-168.5 -170t-232.5 -62.5q-189 0 -324 137t-135 330zM184 453q0 -157 105 -267t254 -110q150 0 256 110.5t106 266.5t-106 266t-256 110q-149 0 -254 -110.5t-105 -265.5zM395 1257
q0 -61 43 -103t105 -42t104.5 42t42.5 103h78q0 -93 -65 -155t-160 -62t-160.5 62t-65.5 155h78z" />
    <glyph glyph-name="Ohungarumlaut" unicode="&#x150;" horiz-adv-x="1611" 
d="M92 702q0 147 56.5 281t151.5 231.5t227.5 155t277.5 57.5q146 0 279 -57.5t229 -155t152.5 -231.5t56.5 -281t-56.5 -281t-152.5 -231.5t-229 -155t-279 -57.5q-145 0 -277.5 57.5t-227.5 155t-151.5 231.5t-56.5 281zM203 702q0 -172 80.5 -317.5t219.5 -230t302 -84.5
q164 0 303.5 84.5t221 230t81.5 317.5q0 128 -48 245t-129.5 201.5t-193.5 134.5t-235 50q-122 0 -233.5 -50t-192.5 -134.5t-128.5 -201.5t-47.5 -245zM870 1505l187 273h102l-194 -273h-95zM616 1505l187 273h102l-196 -273h-93z" />
    <glyph glyph-name="ohungarumlaut" unicode="&#x151;" horiz-adv-x="1089" 
d="M84 453q0 193 135 330t324 137q126 0 232.5 -62.5t168.5 -170t62 -234.5t-62 -234.5t-168.5 -170t-232.5 -62.5q-189 0 -324 137t-135 330zM184 453q0 -157 105 -267t254 -110q150 0 256 110.5t106 266.5t-106 266t-256 110q-149 0 -254 -110.5t-105 -265.5zM618 1034
l187 273h102l-194 -273h-95zM365 1034l186 273h102l-196 -273h-92z" />
    <glyph glyph-name="OE" unicode="&#x152;" horiz-adv-x="1626" 
d="M1210 1313h-209v-510h197q202 0 293 6v-102q-92 6 -293 6h-197v-623h209q204 0 326 8v-106q-122 8 -326 8h-352q-167 0 -310.5 54t-243 148t-156 223.5t-56.5 276.5t56 276t155.5 222t242.5 147t310 54h354q184 0 310 8v-104q-84 8 -310 8zM203 702q0 -169 82.5 -308.5
t232 -221.5t336.5 -82h37l4 272v685l-4 266h-37q-140 0 -262 -48t-207 -130.5t-133.5 -195t-48.5 -237.5z" />
    <glyph glyph-name="oe" unicode="&#x153;" horiz-adv-x="1808" 
d="M1724 489h-729v-34q-3 -163 103 -274t262 -111q91 0 159.5 18.5t133.5 65.5v-115q-22 -5 -77 -21.5t-106 -25t-120 -8.5q-150 0 -257.5 81t-148.5 214q-32 -118 -139.5 -206.5t-261.5 -88.5q-124 0 -229.5 62t-167.5 170t-62 237q0 126 61.5 234t167 171.5t230.5 63.5
q149 0 261.5 -88t143.5 -203q27 122 133 204.5t246 82.5q73 0 138.5 -26.5t111.5 -69.5t80 -96.5t50.5 -108.5t16.5 -105v-23zM184 453q0 -155 106 -265t253 -110q149 0 254.5 110t105.5 263q0 156 -105.5 267t-254.5 111q-147 0 -253 -110.5t-106 -265.5zM1321 838
q-121 0 -202.5 -74t-110.5 -197h608q-13 104 -97.5 187.5t-197.5 83.5z" />
    <glyph glyph-name="Racute" unicode="&#x154;" horiz-adv-x="1058" 
d="M266 602v-252q0 -287 6 -350h-120q8 126 8 350v686q0 245 -8 367h235q218 0 339.5 -110t121.5 -287q0 -151 -79 -246t-198 -131q49 -63 147.5 -201.5t183.5 -250t153 -177.5h-154q-275 365 -426 608q-41 -6 -78 -6h-131zM266 1317v-631h142q143 0 236 87.5t93 230.5
q0 132 -91.5 222.5t-262.5 90.5h-117zM356 1505l260 211h138l-283 -211h-115z" />
    <glyph glyph-name="racute" unicode="&#x155;" horiz-adv-x="655" 
d="M494 920q34 0 70 -5.5t48 -5.5v-118q-50 34 -129 34q-86 0 -155.5 -92.5t-69.5 -212.5v-307q0 -117 8 -213h-116q6 108 6 213v623h-88q35 41 49 69h135v-209q26 100 95 162t147 62zM313 1034l195 303h106l-208 -303h-93z" />
    <glyph glyph-name="Rcommaaccent" unicode="&#x156;" horiz-adv-x="1058" 
d="M266 602v-252q0 -287 6 -350h-120q8 126 8 350v686q0 245 -8 367h235q218 0 339.5 -110t121.5 -287q0 -151 -79 -246t-198 -131q49 -63 147.5 -201.5t183.5 -250t153 -177.5h-154q-275 365 -426 608q-41 -6 -78 -6h-131zM266 1317v-631h142q143 0 236 87.5t93 230.5
q0 132 -91.5 222.5t-262.5 90.5h-117zM461 -162v68q89 -2 147 -55t58 -136q0 -75 -53.5 -124.5t-133.5 -49.5q-43 0 -96 21v73q42 -26 88 -26q45 0 77 31t32 75q0 52 -35.5 87.5t-83.5 35.5z" />
    <glyph glyph-name="rcommaaccent" unicode="&#x157;" horiz-adv-x="655" 
d="M494 920q34 0 70 -5.5t48 -5.5v-118q-50 34 -129 34q-86 0 -155.5 -92.5t-69.5 -212.5v-307q0 -117 8 -213h-116q6 108 6 213v623h-88q35 41 49 69h135v-209q26 100 95 162t147 62zM168 -162v68q89 -2 147 -55t58 -136q0 -75 -53.5 -124.5t-133.5 -49.5q-44 0 -96 21v73
q42 -26 88 -26q45 0 77 31t32 75q0 52 -35.5 87.5t-83.5 35.5z" />
    <glyph glyph-name="Rcaron" unicode="&#x158;" horiz-adv-x="1058" 
d="M266 602v-252q0 -287 6 -350h-120q8 126 8 350v686q0 245 -8 367h235q218 0 339.5 -110t121.5 -287q0 -151 -79 -246t-198 -131q49 -63 147.5 -201.5t183.5 -250t153 -177.5h-154q-275 365 -426 608q-41 -6 -78 -6h-131zM266 1317v-631h142q143 0 236 87.5t93 230.5
q0 132 -91.5 222.5t-262.5 90.5h-117zM449 1561l184 172h110l-284 -256h-21l-286 256h116z" />
    <glyph glyph-name="rcaron" unicode="&#x159;" horiz-adv-x="655" 
d="M494 920q34 0 70 -5.5t48 -5.5v-118q-50 34 -129 34q-86 0 -155.5 -92.5t-69.5 -212.5v-307q0 -117 8 -213h-116q6 108 6 213v623h-88q35 41 49 69h135v-209q26 100 95 162t147 62zM334 1106l155 197h91l-240 -291h-18l-238 291h94z" />
    <glyph glyph-name="Sacute" unicode="&#x15a;" horiz-adv-x="909" 
d="M250 1083q0 -67 30.5 -123t79.5 -96.5t107.5 -78.5t117.5 -79t108 -88t79.5 -115t30.5 -151q0 -167 -109 -275t-284 -108q-57 0 -109.5 9.5t-109.5 25t-91 21.5v182q35 -64 122 -107t192 -43q127 0 200.5 79t73.5 206q0 60 -23.5 111t-62 87.5t-87.5 73t-100.5 67
t-100.5 70.5t-87.5 82.5t-62 104.5t-23.5 135q0 167 106 263t269 96q62 0 150.5 -20.5t103.5 -22.5v-177q-21 67 -88.5 100.5t-165.5 33.5q-119 0 -192.5 -69.5t-73.5 -193.5zM426 1505l260 211h137l-282 -211h-115z" />
    <glyph glyph-name="sacute" unicode="&#x15b;" horiz-adv-x="684" 
d="M225 698q0 -41 20 -75.5t52.5 -59.5t71 -49t77.5 -51.5t71.5 -59.5t52.5 -79.5t20 -106.5q0 -107 -72 -174.5t-190 -67.5q-46 0 -89 9.5t-87.5 25.5t-57.5 19v159q26 -57 92.5 -94t137.5 -37t117 42t46 112q0 44 -20 80.5t-52.5 63t-71.5 51.5t-78 52t-71.5 58t-52.5 76
t-20 100q0 100 68 164t186 64q45 0 107 -16t81 -17v-142q-19 41 -75 68t-109 27q-75 0 -114.5 -39.5t-39.5 -102.5zM299 1034l195 303h106l-209 -303h-92z" />
    <glyph glyph-name="Scircumflex" unicode="&#x15c;" horiz-adv-x="909" 
d="M250 1083q0 -67 30.5 -123t79.5 -96.5t107.5 -78.5t117.5 -79t108 -88t79.5 -115t30.5 -151q0 -167 -109 -275t-284 -108q-57 0 -109.5 9.5t-109.5 25t-91 21.5v182q35 -64 122 -107t192 -43q127 0 200.5 79t73.5 206q0 60 -23.5 111t-62 87.5t-87.5 73t-100.5 67
t-100.5 70.5t-87.5 82.5t-62 104.5t-23.5 135q0 167 106 263t269 96q62 0 150.5 -20.5t103.5 -22.5v-177q-21 67 -88.5 100.5t-165.5 33.5q-119 0 -192.5 -69.5t-73.5 -193.5zM489 1653l-184 -172h-108l284 258h19l286 -258h-116z" />
    <glyph glyph-name="scircumflex" unicode="&#x15d;" horiz-adv-x="684" 
d="M225 698q0 -41 20 -75.5t52.5 -59.5t71 -49t77.5 -51.5t71.5 -59.5t52.5 -79.5t20 -106.5q0 -107 -72 -174.5t-190 -67.5q-46 0 -89 9.5t-87.5 25.5t-57.5 19v159q26 -57 92.5 -94t137.5 -37t117 42t46 112q0 44 -20 80.5t-52.5 63t-71.5 51.5t-78 52t-71.5 58t-52.5 76
t-20 100q0 100 68 164t186 64q45 0 107 -16t81 -17v-142q-19 41 -75 68t-109 27q-75 0 -114.5 -39.5t-39.5 -102.5zM360 1225l-155 -197h-92l241 291h17l237 -291h-94z" />
    <glyph glyph-name="Scedilla" unicode="&#x15e;" horiz-adv-x="909" 
d="M281 -172l88 143q-62 4 -155 27t-114 27v182q35 -64 122 -107t192 -43q127 0 200.5 79t73.5 206q0 60 -23.5 111t-62 87.5t-87.5 73t-100.5 67t-100.5 70.5t-87.5 82.5t-62 104.5t-23.5 135q0 167 106 263t269 96q62 0 150.5 -20.5t103.5 -22.5v-177q-21 67 -88.5 100.5
t-165.5 33.5q-119 0 -192.5 -69.5t-73.5 -193.5q0 -67 30.5 -123t79.5 -96.5t107.5 -78.5t117.5 -79t108 -88t79.5 -115t30.5 -151q0 -159 -99.5 -265t-261.5 -116l-45 -71q60 -5 100 -43t40 -103q0 -68 -49 -110.5t-123 -42.5q-59 0 -105 26v84q10 -17 38.5 -31t61.5 -14
q41 0 67 23.5t26 60.5q0 40 -29 64t-78 24q-45 0 -65 -10z" />
    <glyph glyph-name="scedilla" unicode="&#x15f;" horiz-adv-x="684" 
d="M178 -170l92 150q-33 4 -65.5 13.5t-64.5 20.5t-46 15v159q26 -57 92.5 -94t137.5 -37t117 42t46 112q0 44 -20 80.5t-52.5 63t-71.5 51.5t-78 52t-71.5 58t-52.5 76t-20 100q0 100 68 164t186 64q45 0 107 -16t81 -17v-142q-19 41 -75 68t-109 27q-75 0 -114.5 -39.5
t-39.5 -102.5q0 -41 20 -75.5t52.5 -59.5t71 -49t77.5 -51.5t71.5 -59.5t52.5 -79.5t20 -106.5q0 -103 -69 -170.5t-181 -71.5l-49 -75q59 -3 98 -41t39 -105t-47.5 -109t-120.5 -42q-58 0 -104 26v82q10 -17 38.5 -31t61.5 -14q40 0 67 24t27 62q0 40 -30.5 65t-77.5 25
q-45 0 -64 -12z" />
    <glyph glyph-name="Scaron" unicode="&#x160;" horiz-adv-x="909" 
d="M250 1083q0 -67 30.5 -123t79.5 -96.5t107.5 -78.5t117.5 -79t108 -88t79.5 -115t30.5 -151q0 -167 -109 -275t-284 -108q-57 0 -109.5 9.5t-109.5 25t-91 21.5v182q35 -64 122 -107t192 -43q127 0 200.5 79t73.5 206q0 60 -23.5 111t-62 87.5t-87.5 73t-100.5 67
t-100.5 70.5t-87.5 82.5t-62 104.5t-23.5 135q0 167 106 263t269 96q62 0 150.5 -20.5t103.5 -22.5v-177q-21 67 -88.5 100.5t-165.5 33.5q-119 0 -192.5 -69.5t-73.5 -193.5zM496 1561l184 172h111l-285 -256h-21l-286 256h116z" />
    <glyph glyph-name="scaron" unicode="&#x161;" horiz-adv-x="684" 
d="M225 698q0 -41 20 -75.5t52.5 -59.5t71 -49t77.5 -51.5t71.5 -59.5t52.5 -79.5t20 -106.5q0 -107 -72 -174.5t-190 -67.5q-46 0 -89 9.5t-87.5 25.5t-57.5 19v159q26 -57 92.5 -94t137.5 -37t117 42t46 112q0 44 -20 80.5t-52.5 63t-71.5 51.5t-78 52t-71.5 58t-52.5 76
t-20 100q0 100 68 164t186 64q45 0 107 -16t81 -17v-142q-19 41 -75 68t-109 27q-75 0 -114.5 -39.5t-39.5 -102.5zM369 1106l155 197h90l-239 -291h-19l-237 291h94z" />
    <glyph glyph-name="Tcommaaccent" unicode="&#x162;" horiz-adv-x="1239" 
d="M393 1403h449q256 0 350 6v-102q-126 8 -350 8h-166q-2 -76 -2 -264v-684q0 -304 6 -367h-121q6 94 6 367v684q0 150 -6 264h-166q-220 0 -346 -8v102q95 -6 346 -6zM559 -162v68q89 -2 147 -55t58 -136q0 -75 -53 -124.5t-133 -49.5q-44 0 -97 21v73q42 -26 88 -26
q45 0 77 31t32 75q0 52 -35.5 87.5t-83.5 35.5z" />
    <glyph glyph-name="tcommaaccent" unicode="&#x163;" horiz-adv-x="579" 
d="M176 1133h115q-6 -73 -6 -181v-47h256v-86h-256v-530q0 -114 41 -165.5t110 -51.5q52 0 76 24v-104q-13 0 -47 -4t-51 -4q-104 0 -168 68t-64 220v547h-149v86h149v47q0 108 -6 181zM303 -162v68q89 -2 147 -55t58 -136q0 -75 -53 -124.5t-133 -49.5q-44 0 -97 21v73
q42 -26 88 -26q45 0 77 31t32 75q0 52 -35.5 87.5t-83.5 35.5z" />
    <glyph glyph-name="Tcaron" unicode="&#x164;" horiz-adv-x="1239" 
d="M393 1403h449q256 0 350 6v-102q-126 8 -350 8h-166q-2 -76 -2 -264v-684q0 -304 6 -367h-121q6 94 6 367v684q0 150 -6 264h-166q-220 0 -346 -8v102q95 -6 346 -6zM621 1561l184 172h110l-284 -256h-21l-286 256h116z" />
    <glyph glyph-name="tcaron" unicode="&#x165;" horiz-adv-x="579" 
d="M176 1133h115q-6 -73 -6 -181v-47h256v-86h-256v-530q0 -114 41 -165.5t110 -51.5q52 0 76 24v-104q-13 0 -47 -4t-51 -4q-104 0 -168 68t-64 220v547h-149v86h149v47q0 108 -6 181zM406 1055l8 315h96l-25 -315h-79z" />
    <glyph glyph-name="Tbar" unicode="&#x166;" horiz-adv-x="1239" 
d="M393 1403h449q256 0 350 6v-102q-126 8 -350 8h-166q-2 -76 -2 -264v-244h289v-82h-289v-358q0 -304 6 -367h-121q6 94 6 367v358h-289v82h289v244q0 150 -6 264h-166q-220 0 -346 -8v102q95 -6 346 -6z" />
    <glyph glyph-name="tbar" unicode="&#x167;" horiz-adv-x="579" 
d="M176 1133h115q-6 -73 -6 -181v-47h256v-86h-256v-241h219v-72h-219v-217q0 -114 41 -165.5t110 -51.5q52 0 76 24v-104q-13 0 -47 -4t-51 -4q-104 0 -168 68t-64 220v234h-110v72h110v241h-149v86h149v47q0 108 -6 181z" />
    <glyph glyph-name="Utilde" unicode="&#x168;" horiz-adv-x="1349" 
d="M147 1403h121q-6 -83 -6 -367v-471q0 -219 115 -356t299 -137t297.5 137t113.5 356v471q0 281 -6 367h119q-6 -135 -6 -367v-467q0 -271 -143 -431.5t-375 -160.5q-234 0 -378 160.5t-144 431.5v467q0 271 -7 367zM442 1513h-82q-3 84 49 137.5t140 53.5q44 0 77 -12.5
t53.5 -31t39 -36.5t43.5 -30.5t57 -12.5q45 0 75 31t30 84h84q0 -88 -51.5 -139.5t-137.5 -51.5q-43 0 -76 13t-53 31.5t-38.5 36.5t-44 31t-58.5 13q-46 0 -76.5 -34.5t-30.5 -82.5z" />
    <glyph glyph-name="utilde" unicode="&#x169;" horiz-adv-x="985" 
d="M252 350q0 -138 67.5 -209t167.5 -71q114 0 181 84t67 200v338q0 124 -6 213h115q-6 -89 -6 -213v-493q0 -126 28 -199h-98q-31 60 -31 150q-37 -74 -106 -120t-168 -46q-139 0 -226 93.5t-87 264.5v494h-93q31 28 54 69h145q-4 -118 -4 -213v-342zM322 1073h-76
q2 71 42 117.5t109 46.5q40 0 75.5 -24.5t63.5 -49t50 -24.5q40 0 62 24.5t22 67.5h73q0 -68 -44 -116t-109 -48q-34 0 -64 15.5t-48 33.5t-40.5 33.5t-42.5 15.5q-34 0 -53.5 -25t-19.5 -67z" />
    <glyph glyph-name="Umacron" unicode="&#x16a;" horiz-adv-x="1349" 
d="M147 1403h121q-6 -83 -6 -367v-471q0 -219 115 -356t299 -137t297.5 137t113.5 356v471q0 281 -6 367h119q-6 -135 -6 -367v-467q0 -271 -143 -431.5t-375 -160.5q-234 0 -378 160.5t-144 431.5v467q0 271 -7 367zM403 1610h543v-76h-543v76z" />
    <glyph glyph-name="umacron" unicode="&#x16b;" horiz-adv-x="985" 
d="M252 350q0 -138 67.5 -209t167.5 -71q114 0 181 84t67 200v338q0 124 -6 213h115q-6 -89 -6 -213v-493q0 -126 28 -199h-98q-31 60 -31 150q-37 -74 -106 -120t-168 -46q-139 0 -226 93.5t-87 264.5v494h-93q31 28 54 69h145q-4 -118 -4 -213v-342zM266 1188h455v-76
h-455v76z" />
    <glyph glyph-name="Ubreve" unicode="&#x16c;" horiz-adv-x="1349" 
d="M147 1403h121q-6 -83 -6 -367v-471q0 -219 115 -356t299 -137t297.5 137t113.5 356v471q0 281 -6 367h119q-6 -135 -6 -367v-467q0 -271 -143 -431.5t-375 -160.5q-234 0 -378 160.5t-144 431.5v467q0 271 -7 367zM483 1704q0 -66 56.5 -111t136.5 -45q77 0 132.5 45.5
t55.5 110.5h84q0 -99 -79.5 -162t-192.5 -63q-118 0 -197.5 62.5t-79.5 162.5h84z" />
    <glyph glyph-name="ubreve" unicode="&#x16d;" horiz-adv-x="985" 
d="M252 350q0 -138 67.5 -209t167.5 -71q114 0 181 84t67 200v338q0 124 -6 213h115q-6 -89 -6 -213v-493q0 -126 28 -199h-98q-31 60 -31 150q-37 -74 -106 -120t-168 -46q-139 0 -226 93.5t-87 264.5v494h-93q31 28 54 69h145q-4 -118 -4 -213v-342zM346 1257
q0 -61 43 -103t105 -42t104.5 42t42.5 103h78q0 -93 -65 -155t-160 -62t-160.5 62t-65.5 155h78z" />
    <glyph glyph-name="Uring" unicode="&#x16e;" horiz-adv-x="1349" 
d="M147 1403h121q-6 -83 -6 -367v-471q0 -219 115 -356t299 -137t297.5 137t113.5 356v471q0 281 -6 367h119q-6 -135 -6 -367v-467q0 -271 -143 -431.5t-375 -160.5q-234 0 -378 160.5t-144 431.5v467q0 271 -7 367zM500 1665q0 71 51.5 119.5t120.5 48.5q72 0 124 -48.5
t52 -119.5q0 -66 -52.5 -115t-123.5 -49q-68 0 -120 49t-52 115zM569 1665q0 -43 30.5 -73.5t72.5 -30.5q44 0 74 30.5t30 73.5q0 46 -30 77.5t-74 31.5q-42 0 -72.5 -32t-30.5 -77z" />
    <glyph glyph-name="uring" unicode="&#x16f;" horiz-adv-x="985" 
d="M252 350q0 -138 67.5 -209t167.5 -71q114 0 181 84t67 200v338q0 124 -6 213h115q-6 -89 -6 -213v-493q0 -126 28 -199h-98q-31 60 -31 150q-37 -74 -106 -120t-168 -46q-139 0 -226 93.5t-87 264.5v494h-93q31 28 54 69h145q-4 -118 -4 -213v-342zM338 1180
q0 62 46 105.5t110 43.5q65 0 111 -44t46 -105q0 -62 -46.5 -106t-110.5 -44t-110 44t-46 106zM406 1180q0 -37 26.5 -63.5t61.5 -26.5q37 0 63.5 26.5t26.5 63.5t-26.5 63.5t-63.5 26.5q-35 0 -61.5 -26.5t-26.5 -63.5z" />
    <glyph glyph-name="Uhungarumlaut" unicode="&#x170;" horiz-adv-x="1349" 
d="M147 1403h121q-6 -83 -6 -367v-471q0 -219 115 -356t299 -137t297.5 137t113.5 356v471q0 281 -6 367h119q-6 -135 -6 -367v-467q0 -271 -143 -431.5t-375 -160.5q-234 0 -378 160.5t-144 431.5v467q0 271 -7 367zM739 1505l187 273h102l-194 -273h-95zM485 1505l187 273
h102l-196 -273h-93z" />
    <glyph glyph-name="uhungarumlaut" unicode="&#x171;" horiz-adv-x="985" 
d="M252 350q0 -138 67.5 -209t167.5 -71q114 0 181 84t67 200v338q0 124 -6 213h115q-6 -89 -6 -213v-493q0 -126 28 -199h-98q-31 60 -31 150q-37 -74 -106 -120t-168 -46q-139 0 -226 93.5t-87 264.5v494h-93q31 28 54 69h145q-4 -118 -4 -213v-342zM563 1034l187 273h102
l-195 -273h-94zM309 1034l187 273h102l-197 -273h-92z" />
    <glyph glyph-name="Uogonek" unicode="&#x172;" horiz-adv-x="1349" 
d="M477 -367q0 52 26 105.5t70.5 99t91.5 82t99 66.5q-40 -9 -92 -9q-229 0 -373.5 162t-144.5 430v467q0 284 -9 367h125q-8 -110 -8 -367v-469q0 -221 115.5 -358t298.5 -137q184 0 297.5 137.5t113.5 357.5v469q0 252 -8 367h123q-8 -180 -8 -367v-467q0 -161 -55 -288.5
t-156 -204.5q-23 -17 -88 -62.5t-110 -80.5t-97 -83t-80 -98t-28 -98q0 -52 36 -83.5t84 -31.5q95 3 154 62v-95q-25 -19 -78 -34t-104 -15q-88 0 -141.5 50t-53.5 126z" />
    <glyph glyph-name="uogonek" unicode="&#x173;" horiz-adv-x="985" 
d="M252 350q0 -138 67.5 -209t167.5 -71q114 0 181 84t67 200v338q0 124 -6 213h115q-6 -89 -6 -213v-493q0 -126 28 -199q-288 -168 -288 -313q0 -55 35 -87t89 -32q63 0 123 51v-84q-69 -43 -163 -43q-77 0 -128 47t-51 127q0 50 24 98.5t68 91t89 76t102 68.5
q-29 56 -29 150q-37 -74 -106 -120t-168 -46q-139 0 -226 93.5t-87 264.5v494h-93q31 28 54 69h145q-4 -118 -4 -213v-342z" />
    <glyph glyph-name="Wcircumflex" unicode="&#x174;" horiz-adv-x="1921" 
d="M662 -35h-19l-506 1157q-77 178 -135 281h135q21 -71 101 -252l426 -987l258 616l-146 338q-86 199 -137 285h131q30 -91 111 -277l92 -221l98 232q85 204 107 266h120q-30 -53 -135 -287l-141 -325l262 -625l408 973q48 105 106 264h121q-14 -31 -54.5 -119t-76.5 -168
l-496 -1151h-18l-305 705zM967 1653l-185 -172h-108l284 258h19l287 -258h-117z" />
    <glyph glyph-name="wcircumflex" unicode="&#x175;" horiz-adv-x="1300" 
d="M631 907h45l264 -731l190 567q48 153 48 162h118q-39 -89 -77 -192l-265 -746h-28l-277 760l-258 -760h-31l-270 727q-44 116 -84 211h125q23 -92 66 -209l188 -520zM651 1225l-155 -197h-93l242 291h17l237 -291h-94z" />
    <glyph glyph-name="Ycircumflex" unicode="&#x176;" horiz-adv-x="1138" 
d="M512 0q6 189 6 365v297l-323 475q-89 135 -195 266h145q42 -74 127 -203l301 -440l289 424q95 140 137 219h140q-95 -121 -197 -275l-317 -466v-297q0 -271 6 -365h-119zM571 1653l-184 -172h-108l284 258h19l286 -258h-116z" />
    <glyph glyph-name="ycircumflex" unicode="&#x177;" horiz-adv-x="874" 
d="M178 -424q-38 -61 -73 -86t-82 -25q-21 0 -33 5q65 87 125 178q195 301 293 481l-291 565q-74 141 -115 211h131q13 -39 72 -164l258 -497q147 305 219 481q33 77 70 180h122q-15 -26 -33 -64.5t-40.5 -89.5t-28.5 -65q-160 -368 -272 -571q-77 -147 -322 -539zM440 1225
l-155 -197h-92l241 291h17l237 -291h-94z" />
    <glyph glyph-name="Ydieresis" unicode="&#x178;" horiz-adv-x="1138" 
d="M512 0q6 189 6 365v297l-323 475q-89 135 -195 266h145q42 -74 127 -203l301 -440l289 424q95 140 137 219h140q-95 -121 -197 -275l-317 -466v-297q0 -271 6 -365h-119zM322 1593q0 27 20 46.5t47 19.5q28 0 48 -19t20 -47q0 -27 -20.5 -47t-47.5 -20q-26 0 -46.5 20.5
t-20.5 46.5zM680 1593q0 27 21 46.5t49 19.5t46.5 -19t18.5 -47q0 -27 -19 -47t-46 -20q-28 0 -49 20.5t-21 46.5z" />
    <glyph glyph-name="Zacute" unicode="&#x179;" horiz-adv-x="1079" 
d="M821 1094l-600 -1004h465q244 0 336 6v-102q-92 6 -336 6h-637q63 95 193 311l602 1004h-410q-269 0 -350 -8v102q91 -6 350 -6h580q-83 -116 -193 -309zM457 1505l260 211h137l-283 -211h-114z" />
    <glyph glyph-name="zacute" unicode="&#x17a;" horiz-adv-x="759" 
d="M715 905l-516 -821h331q100 0 170 6v-96q-68 6 -172 6h-487l514 817h-319q-100 0 -170 -6v100q68 -6 172 -6h477zM338 1034l194 303h107l-209 -303h-92z" />
    <glyph glyph-name="Zdotaccent" unicode="&#x17b;" horiz-adv-x="1079" 
d="M821 1094l-600 -1004h465q244 0 336 6v-102q-92 6 -336 6h-637q63 95 193 311l602 1004h-410q-269 0 -350 -8v102q91 -6 350 -6h580q-83 -116 -193 -309zM477 1583q0 28 20.5 48t49.5 20t49 -20t20 -48t-20 -49t-49 -21t-49.5 21t-20.5 49z" />
    <glyph glyph-name="zdotaccent" unicode="&#x17c;" horiz-adv-x="759" 
d="M715 905l-516 -821h331q100 0 170 6v-96q-68 6 -172 6h-487l514 817h-319q-100 0 -170 -6v100q68 -6 172 -6h477zM326 1176q0 29 18.5 47t46.5 18t47 -18t19 -47q0 -28 -19 -47t-47 -19t-46.5 19t-18.5 47z" />
    <glyph glyph-name="Zcaron" unicode="&#x17d;" horiz-adv-x="1079" 
d="M821 1094l-600 -1004h465q244 0 336 6v-102q-92 6 -336 6h-637q63 95 193 311l602 1004h-410q-269 0 -350 -8v102q91 -6 350 -6h580q-83 -116 -193 -309zM555 1561l184 172h111l-285 -256h-20l-287 256h117z" />
    <glyph glyph-name="zcaron" unicode="&#x17e;" horiz-adv-x="759" 
d="M715 905l-516 -821h331q100 0 170 6v-96q-68 6 -172 6h-487l514 817h-319q-100 0 -170 -6v100q68 -6 172 -6h477zM391 1106l156 197h90l-240 -291h-18l-238 291h95z" />
    <glyph glyph-name="longs" unicode="&#x17f;" horiz-adv-x="440" 
d="M41 819v86h149v252q0 174 81.5 266.5t203.5 92.5q36 0 91.5 -9t62.5 -10v-115q-43 48 -137 48q-88 0 -143.5 -72t-55.5 -207v-938q0 -164 4 -213h-111q4 98 4 213v606h-149z" />
    <glyph glyph-name="uni018F" unicode="&#x18f;" horiz-adv-x="1462" 
d="M84 643h1171q5 36 5 80q0 164 -74.5 303t-208.5 222t-297 83q-137 0 -260 -46t-209 -114v134q19 8 73 30.5t76 30.5t69.5 24t81 22.5t82.5 12t101 5.5q146 0 272.5 -56.5t214 -153.5t137.5 -229t50 -280q0 -196 -88 -363t-239 -264.5t-328 -97.5q-114 0 -216 38
t-176.5 102t-129 145t-82 170t-27.5 175q0 23 2 27zM715 82q187 0 341.5 136.5t188.5 336.5h-1038q9 -125 81.5 -234t186.5 -174t240 -65z" />
    <glyph glyph-name="florin" unicode="&#x192;" horiz-adv-x="1032" 
d="M193 791h196l25 157q69 451 346 451q44 0 74.5 -7t56.5 -18.5t41 -15.5v-117q-66 66 -166 66q-193 0 -248 -375l-22 -141h249v-91h-262l-59 -409q-23 -155 -47 -261t-56 -190t-74 -131.5t-97.5 -71.5t-129.5 -24q-42 0 -78 9.5t-69 24t-41 17.5v121q33 -34 82.5 -57
t108.5 -23q35 0 61 7t54.5 27t51 60.5t46 104.5t44 162t39.5 229l60 405h-186v91z" />
    <glyph glyph-name="uni019F" unicode="&#x19f;" horiz-adv-x="1613" 
d="M92 702q0 147 56.5 281t151.5 231.5t227.5 155t277.5 57.5q146 0 279 -57.5t229 -155t152.5 -231.5t56.5 -281t-56.5 -281t-152.5 -231.5t-229 -155t-279 -57.5q-145 0 -277.5 57.5t-227.5 155t-151.5 231.5t-56.5 281zM805 70q119 0 228.5 47t190 127.5t131 192
t56.5 235.5h-1208q7 -166 89 -304t218 -218t295 -80zM805 1333q-235 0 -408 -167.5t-192 -409.5h1204q-13 159 -97 291.5t-218 209t-289 76.5z" />
    <glyph glyph-name="Ohorn" unicode="&#x1a0;" horiz-adv-x="1611" 
d="M203 702q0 -172 80.5 -317.5t219.5 -230t302 -84.5q164 0 303.5 84.5t221 230t81.5 317.5q0 128 -48 245t-129.5 201.5t-193.5 134.5t-235 50q-122 0 -233.5 -50t-192.5 -134.5t-128.5 -201.5t-47.5 -245zM1364 1516h102q17 -38 17 -97q0 -81 -44 -136t-132 -64
q215 -210 215 -517q0 -147 -56.5 -281t-152.5 -231.5t-229 -155t-279 -57.5q-145 0 -277.5 57.5t-227.5 155t-151.5 231.5t-56.5 281t56.5 281t151.5 231.5t227.5 155t277.5 57.5q94 0 178.5 -22t132 -48.5t86.5 -48.5t53 -22q129 0 129 123q0 45 -20 107z" />
    <glyph glyph-name="ohorn" unicode="&#x1a1;" horiz-adv-x="1087" 
d="M954 1030h93q12 -36 12 -76q3 -177 -164 -202q109 -129 109 -299q0 -127 -62 -234.5t-168 -170t-231 -62.5q-190 0 -324.5 136.5t-134.5 330.5t134.5 330.5t324.5 136.5q64 0 121.5 -17t90 -37.5t60.5 -37.5t41 -17q55 0 84 29.5t29 81.5q0 58 -15 108zM184 453
q0 -157 105 -267t254 -110q148 0 253 110.5t105 266.5q0 155 -105 265.5t-253 110.5q-149 0 -254 -110.5t-105 -265.5z" />
    <glyph glyph-name="Uhorn" unicode="&#x1af;" horiz-adv-x="1349" 
d="M147 1403h121q-6 -83 -6 -367v-471q0 -217 115.5 -355t298.5 -138q184 0 297.5 137t113.5 356v471q0 281 -6 367h82q59 0 91 32.5t32 92.5q0 54 -20 104h104q16 -39 16 -92q0 -51 -16.5 -94t-60.5 -76t-111 -39q-4 -86 -4 -295v-467q0 -271 -143 -431.5t-375 -160.5
q-234 0 -378 160.5t-144 431.5v467q0 271 -7 367z" />
    <glyph glyph-name="uhorn" unicode="&#x1b0;" horiz-adv-x="985" 
d="M903 1118h94q15 -53 15 -84q0 -94 -49.5 -140.5t-124.5 -55.5v-617q0 -162 30 -221h-98q-31 51 -31 150q-88 -164 -276 -164q-138 0 -225.5 92t-87.5 254v502h-95q38 38 54 71h147q-4 -122 -4 -213v-352q0 -127 68.5 -197.5t166.5 -70.5q114 0 181 83t67 199v338
q0 122 -6 213h74q116 0 119 107q0 42 -19 106z" />
    <glyph glyph-name="uni01C4" unicode="&#x1c4;" horiz-adv-x="2377" 
d="M502 0h-355q11 116 11 367v669q0 255 -11 367h355q189 0 351 -94t256.5 -255.5t94.5 -351.5q0 -142 -56 -272.5t-150 -224.5t-224 -149.5t-272 -55.5zM266 1315v-1227h230q163 0 301 83.5t217.5 224.5t79.5 306q0 123 -47 236t-127 196t-191.5 132t-234.5 49h-228z
M2120 1094l-600 -1004h465q243 0 335 6v-102q-92 6 -335 6h-637q54 81 192 311l602 1004h-409q-270 0 -351 -8v102q91 -6 351 -6h579q-79 -109 -192 -309zM1853 1561l185 172h110l-284 -256h-21l-287 256h117z" />
    <glyph glyph-name="uni01C5" unicode="&#x1c5;" horiz-adv-x="2056" 
d="M502 0h-355q11 116 11 367v669q0 255 -11 367h355q189 0 351 -94t256.5 -255.5t94.5 -351.5q0 -142 -56 -272.5t-150 -224.5t-224 -149.5t-272 -55.5zM266 1315v-1227h230q163 0 301 83.5t217.5 224.5t79.5 306q0 123 -47 236t-127 196t-191.5 132t-234.5 49h-228z
M2013 905l-516 -821h332q99 0 170 6v-96q-67 6 -172 6h-488l514 817h-319q-100 0 -170 -6v100q68 -6 172 -6h477zM1688 1106l155 197h90l-239 -291h-19l-237 291h94z" />
    <glyph glyph-name="uni01C6" unicode="&#x1c6;" horiz-adv-x="1896" 
d="M993 1333v-1120q0 -139 6 -213h-114q6 62 6 207q-55 -106 -153 -163.5t-206 -57.5q-188 0 -318 137.5t-130 333.5t129.5 329.5t323.5 133.5q114 0 208 -54.5t146 -160.5v731h-92q30 24 53 67h147q-6 -91 -6 -170zM897 453q0 157 -101 267.5t-247 110.5
q-148 0 -254.5 -110t-106.5 -266q0 -158 106 -269.5t255 -111.5q145 0 246.5 111t101.5 268zM1853 905l-516 -821h332q99 0 170 6v-96q-67 6 -172 6h-487l514 817h-320q-100 0 -170 -6v100q68 -6 172 -6h477zM1528 1106l155 197h91l-240 -291h-18l-238 291h94z" />
    <glyph glyph-name="uni01C7" unicode="&#x1c7;" horiz-adv-x="1329" 
d="M264 1036v-946h262q198 0 320 8v-106q-122 8 -320 8h-376q6 170 6 367v669q0 276 -6 367h120q-6 -183 -6 -367zM1169 1036v-1034q0 -173 -90.5 -267.5t-230.5 -94.5q-26 0 -52.5 4.5t-56.5 11.5t-45 10v131q52 -65 150 -65q93 0 156 73.5t63 192.5v1038q0 245 -8 367h121
q-7 -107 -7 -367z" />
    <glyph glyph-name="uni01C8" unicode="&#x1c8;" horiz-adv-x="1296" 
d="M264 1036v-946h262q198 0 320 8v-106q-122 8 -320 8h-376q6 170 6 367v669q0 276 -6 367h120q-6 -183 -6 -367zM1151 692v-860q0 -173 -68.5 -270t-205.5 -97q-37 0 -78 7.5t-43 7.5v102q35 -31 100 -31q88 0 140.5 74t52.5 209v1002h-95q26 26 56 69h147q-6 -76 -6 -213
zM1028 1180q0 29 19 48t47 19q29 0 48 -19t19 -48q0 -28 -19 -47t-48 -19q-28 0 -47 19t-19 47z" />
    <glyph glyph-name="uni01C9" unicode="&#x1c9;" horiz-adv-x="794" 
d="M248 1290v-1077q0 -143 6 -213h-115q6 70 6 213v1223h-92q23 20 51 67h150q-6 -73 -6 -213zM649 692v-860q0 -173 -68.5 -270t-205.5 -97q-37 0 -78 7.5t-43 7.5v102q35 -31 100 -31q88 0 140.5 74t52.5 209v1002h-94q23 23 55 69h147q-6 -76 -6 -213zM526 1180
q0 29 19 48t47 19q29 0 48 -19t19 -48q0 -28 -19 -47t-48 -19q-28 0 -47 19t-19 47z" />
    <glyph glyph-name="uni01CA" unicode="&#x1ca;" horiz-adv-x="1839" 
d="M258 295q0 -181 8 -295h-116q6 86 6 297v745q0 228 -6 394h26q48 -67 150 -189l819 -1016v805q0 238 -6 367h116q-6 -135 -6 -367v-772q0 -170 6 -289h-26q-55 77 -139 179l-828 1028zM1679 1036v-1034q0 -173 -90.5 -267.5t-230.5 -94.5q-26 0 -52.5 4.5t-56.5 11.5
t-45 10v131q52 -65 150 -65q93 0 156 73.5t63 192.5v1038q0 245 -8 367h121q-7 -107 -7 -367z" />
    <glyph glyph-name="uni01CB" unicode="&#x1cb;" horiz-adv-x="1808" 
d="M258 295q0 -181 8 -295h-116q6 86 6 297v745q0 228 -6 394h26q48 -67 150 -189l819 -1016v805q0 238 -6 367h116q-6 -135 -6 -367v-772q0 -170 6 -289h-26q-55 77 -139 179l-828 1028zM1661 692v-860q0 -173 -69 -270t-206 -97q-37 0 -77.5 7.5t-42.5 7.5v102
q35 -31 100 -31q88 0 140.5 74t52.5 209v1002h-95q26 26 56 69h147q-6 -76 -6 -213zM1538 1180q0 29 19 48t47 19q29 0 48 -19t19 -48q0 -28 -19 -47t-48 -19q-28 0 -47 19t-19 47z" />
    <glyph glyph-name="uni01CC" unicode="&#x1cc;" horiz-adv-x="1382" 
d="M743 539q0 147 -70 222t-171 75q-106 0 -176 -79t-70 -206v-336q0 -123 6 -215h-115q7 107 7 215v621h-93q27 27 54 69h141v-151q33 69 106 118.5t173 49.5q142 0 225.5 -101t83.5 -284v-322q0 -134 8 -215h-117q8 81 8 215v324zM1235 692v-860q0 -173 -68.5 -270
t-205.5 -97q-37 0 -78 7.5t-43 7.5v102q35 -31 100 -31q88 0 140.5 74t52.5 209v1002h-95q26 26 56 69h147q-6 -76 -6 -213zM1112 1180q0 29 19 48t47 19q29 0 48 -19t19 -48q0 -28 -19 -47t-48 -19q-28 0 -47 19t-19 47z" />
    <glyph glyph-name="uni01F1" unicode="&#x1f1;" horiz-adv-x="2377" 
d="M502 0h-355q11 116 11 367v669q0 255 -11 367h355q189 0 351 -94t256.5 -255.5t94.5 -351.5q0 -142 -56 -272.5t-150 -224.5t-224 -149.5t-272 -55.5zM266 1315v-1227h230q163 0 301 83.5t217.5 224.5t79.5 306q0 123 -47 236t-127 196t-191.5 132t-234.5 49h-228z
M2120 1094l-600 -1004h465q243 0 335 6v-102q-92 6 -335 6h-637q54 81 192 311l602 1004h-409q-270 0 -351 -8v102q91 -6 351 -6h579q-79 -109 -192 -309z" />
    <glyph glyph-name="uni01F2" unicode="&#x1f2;" horiz-adv-x="2056" 
d="M502 0h-355q11 116 11 367v669q0 255 -11 367h355q189 0 351 -94t256.5 -255.5t94.5 -351.5q0 -142 -56 -272.5t-150 -224.5t-224 -149.5t-272 -55.5zM266 1315v-1227h230q163 0 301 83.5t217.5 224.5t79.5 306q0 123 -47 236t-127 196t-191.5 132t-234.5 49h-228z
M2013 905l-516 -821h332q99 0 170 6v-96q-67 6 -172 6h-488l514 817h-319q-100 0 -170 -6v100q68 -6 172 -6h477z" />
    <glyph glyph-name="uni01F3" unicode="&#x1f3;" horiz-adv-x="1896" 
d="M993 1333v-1120q0 -139 6 -213h-114q6 62 6 207q-55 -106 -153 -163.5t-206 -57.5q-188 0 -318 137.5t-130 333.5t129.5 329.5t323.5 133.5q114 0 208 -54.5t146 -160.5v731h-92q30 24 53 67h147q-6 -91 -6 -170zM897 453q0 157 -101 267.5t-247 110.5
q-148 0 -254.5 -110t-106.5 -266q0 -158 106 -269.5t255 -111.5q145 0 246.5 111t101.5 268zM1853 905l-516 -821h332q99 0 170 6v-96q-67 6 -172 6h-487l514 817h-320q-100 0 -170 -6v100q68 -6 172 -6h477z" />
    <glyph glyph-name="Aringacute" unicode="&#x1fa;" horiz-adv-x="1267" 
d="M1268 0h-142q-34 99 -102 258l-121 287h-557l-117 -285q-81 -195 -98 -260h-131q62 115 143 311l461 1094q-57 7 -94 45.5t-37 89.5q0 57 46.5 97t113.5 40t114.5 -40t47.5 -97q0 -52 -39.5 -89.5t-98.5 -45.5l463 -1094q79 -182 148 -311zM866 633l-241 592l-242 -592
h483zM547 1540q0 -32 25 -54t61 -22t62 22t26 54q0 31 -26.5 53.5t-61.5 22.5t-60.5 -22.5t-25.5 -53.5zM569 1706l203 156h131l-215 -156h-119z" />
    <glyph glyph-name="aringacute" unicode="&#x1fb;" horiz-adv-x="872" 
d="M373 836q-144 0 -226 -93v117q16 4 55.5 20t86.5 28t100 12q166 0 249 -97t83 -301v-385q0 -76 51 -76q25 0 43 11v-70q-38 -25 -90 -25q-40 0 -67.5 27.5t-30.5 83.5q-35 -52 -99.5 -81.5t-138.5 -29.5q-142 0 -223.5 73.5t-81.5 187.5q0 113 82.5 188.5t226.5 75.5
q75 0 140 -30t90 -75v140q0 136 -58.5 217.5t-191.5 81.5zM188 242q0 -81 59 -134t163 -53q91 0 155 54.5t64 132.5q0 75 -64.5 129.5t-154.5 54.5q-103 0 -162.5 -53t-59.5 -131zM248 1102q0 54 45 91.5t108 37.5q64 0 110 -37.5t46 -91.5t-46 -91.5t-110 -37.5
q-63 0 -108 37.5t-45 91.5zM315 1102q0 -32 25.5 -55t60.5 -23t60.5 23t25.5 55t-25.5 55t-60.5 23t-60.5 -23t-25.5 -55zM336 1266l170 168h110l-180 -168h-100z" />
    <glyph glyph-name="AEacute" unicode="&#x1fc;" horiz-adv-x="1675" 
d="M1313 0h-377l-35 287l-39 272h-438l-156 -297q-98 -182 -131 -262h-137q50 68 180 309l584 1094h348q193 0 295 6v-102q-84 8 -285 8h-266l84 -613h254q154 0 264 7v-103q-92 6 -252 6h-248l72 -522h279q191 0 282 6v-100q-59 4 -278 4zM770 1223l-303 -574h381z
M948 1505l260 211h138l-283 -211h-115z" />
    <glyph glyph-name="aeacute" unicode="&#x1fd;" horiz-adv-x="1540" 
d="M147 752v118q17 4 56 17.5t82.5 23t95.5 9.5q126 0 206.5 -66.5t92.5 -189.5q38 116 136.5 185t221.5 69q70 0 131.5 -21.5t104 -57t76 -78.5t53 -89.5t29.5 -86.5t10 -71q0 -21 -2 -25h-729v-36q0 -161 103.5 -273t256.5 -112q175 0 297 86v-115q-27 -6 -78.5 -22
t-101.5 -24.5t-121 -8.5q-76 0 -141.5 20.5t-111 55.5t-77 72.5t-53.5 80.5q-8 -98 -85 -167t-208 -69q-140 0 -222.5 70.5t-82.5 188.5q0 120 83 193t222 73q159 0 232 -105v133q0 139 -62.5 221.5t-191.5 82.5q-154 0 -222 -82zM188 238q0 -78 61.5 -130.5t162.5 -52.5
q94 0 155.5 54.5t61.5 130.5q0 80 -64.5 133t-152.5 53q-103 0 -163.5 -50.5t-60.5 -137.5zM1032 838q-114 0 -196.5 -74.5t-112.5 -196.5h608q-14 107 -98 189t-201 82zM674 1034l194 303h107l-209 -303h-92z" />
    <glyph glyph-name="Oslashacute" unicode="&#x1fe;" horiz-adv-x="1611" 
d="M92 702q0 147 56.5 281t151.5 231.5t227.5 155t277.5 57.5q244 0 440 -153l111 129h104l-155 -182q103 -100 160 -234.5t57 -284.5q0 -147 -56.5 -281t-152.5 -231.5t-229 -155t-279 -57.5q-243 0 -436 150l-109 -127h-106l155 180q-103 101 -160 236t-57 286zM203 702
q0 -257 172 -444l805 940q-167 135 -375 135q-122 0 -233.5 -50t-192.5 -134.5t-128.5 -201.5t-47.5 -245zM1411 702q0 125 -46 238.5t-128 202.5l-803 -940q162 -133 371 -133q164 0 303.5 84.5t221 230t81.5 317.5zM721 1505l260 211h137l-282 -211h-115z" />
    <glyph glyph-name="oslashacute" unicode="&#x1ff;" horiz-adv-x="1091" 
d="M84 453q0 193 135 330t324 137q167 0 295 -109l55 61h78l-90 -100q125 -135 125 -319q0 -194 -135 -330.5t-328 -136.5q-161 0 -285 100l-49 -55h-82l88 96q-131 134 -131 326zM186 453q0 -146 93 -254l493 542q-101 88 -229 88q-148 0 -252.5 -110.5t-104.5 -265.5z
M903 453q0 137 -90 245l-491 -542q96 -80 221 -80q149 0 254.5 110t105.5 267zM481 1034l195 303h106l-209 -303h-92z" />
    <glyph glyph-name="Scommaaccent" unicode="&#x218;" horiz-adv-x="909" 
d="M250 1083q0 -67 30.5 -123t79.5 -96.5t107.5 -78.5t117.5 -79t108 -88t79.5 -115t30.5 -151q0 -167 -109 -275t-284 -108q-57 0 -109.5 9.5t-109.5 25t-91 21.5v182q35 -64 122 -107t192 -43q127 0 200.5 79t73.5 206q0 60 -23.5 111t-62 87.5t-87.5 73t-100.5 67
t-100.5 70.5t-87.5 82.5t-62 104.5t-23.5 135q0 167 106 263t269 96q62 0 150.5 -20.5t103.5 -22.5v-177q-21 67 -88.5 100.5t-165.5 33.5q-119 0 -192.5 -69.5t-73.5 -193.5zM385 -162v68q89 -2 147 -55t58 -136q0 -75 -53.5 -124.5t-133.5 -49.5q-43 0 -96 21v73
q42 -26 88 -26q45 0 77 31t32 75q0 52 -35.5 87.5t-83.5 35.5z" />
    <glyph glyph-name="scommaaccent" unicode="&#x219;" horiz-adv-x="684" 
d="M225 698q0 -41 20 -75.5t52.5 -59.5t71 -49t77.5 -51.5t71.5 -59.5t52.5 -79.5t20 -106.5q0 -107 -72 -174.5t-190 -67.5q-46 0 -89 9.5t-87.5 25.5t-57.5 19v159q26 -57 92.5 -94t137.5 -37t117 42t46 112q0 44 -20 80.5t-52.5 63t-71.5 51.5t-78 52t-71.5 58t-52.5 76
t-20 100q0 100 68 164t186 64q45 0 107 -16t81 -17v-142q-19 41 -75 68t-109 27q-75 0 -114.5 -39.5t-39.5 -102.5zM270 -162v68q89 -2 147 -55t58 -136q0 -75 -53 -124.5t-133 -49.5q-43 0 -96 21v73q42 -26 88 -26q44 0 76 31t32 75q0 52 -35.5 87.5t-83.5 35.5z" />
    <glyph glyph-name="uni021A" unicode="&#x21a;" horiz-adv-x="1239" 
d="M393 1403h449q256 0 350 6v-102q-126 8 -350 8h-166q-2 -76 -2 -264v-684q0 -304 6 -367h-121q6 94 6 367v684q0 150 -6 264h-166q-220 0 -346 -8v102q95 -6 346 -6zM559 -162v68q89 -2 147 -55t58 -136q0 -75 -53 -124.5t-133 -49.5q-44 0 -97 21v73q42 -26 88 -26
q45 0 77 31t32 75q0 52 -35.5 87.5t-83.5 35.5z" />
    <glyph glyph-name="uni021B" unicode="&#x21b;" horiz-adv-x="579" 
d="M176 1133h115q-6 -73 -6 -181v-47h256v-86h-256v-530q0 -114 41 -165.5t110 -51.5q52 0 76 24v-104q-13 0 -47 -4t-51 -4q-104 0 -168 68t-64 220v547h-149v86h149v47q0 108 -6 181zM303 -162v68q89 -2 147 -55t58 -136q0 -75 -53 -124.5t-133 -49.5q-44 0 -97 21v73
q42 -26 88 -26q45 0 77 31t32 75q0 52 -35.5 87.5t-83.5 35.5z" />
    <glyph glyph-name="uni021C" unicode="&#x21c;" horiz-adv-x="993" 
d="M385 680q-67 0 -129 -12v114q51 -10 127 -10q124 0 224 89.5t100 199.5q0 111 -88 187.5t-234 76.5q-145 0 -248 -70v117q29 5 112.5 26t141.5 21q204 0 314 -97t110 -255q0 -110 -67.5 -197t-186.5 -131q136 -26 231 -131.5t95 -255.5q0 -90 -27 -168.5t-71.5 -137
t-109.5 -108t-133 -83t-149.5 -61t-151.5 -44t-147 -29.5v109h2q87 6 176.5 28t181 65t161.5 101t114.5 143.5t44.5 186.5q0 77 -32 140t-87 103t-125 61.5t-149 21.5z" />
    <glyph glyph-name="uni021D" unicode="&#x21d;" horiz-adv-x="837" 
d="M350 270q-89 0 -135 -28v102q167 8 272 81t105 183q0 98 -75.5 162t-186.5 64q-119 0 -207 -64v109q17 4 51 16t72 19.5t88 7.5q154 0 257 -86t103 -224q0 -192 -227 -284q116 -21 189 -110.5t73 -227.5q0 -407 -666 -527v99h3q67 3 140.5 20t149 52.5t135.5 83.5t98 119
t38 153q0 132 -78 206t-199 74z" />
    <glyph glyph-name="uni0232" unicode="&#x232;" horiz-adv-x="1138" 
d="M512 0q6 189 6 365v297l-323 475q-89 135 -195 266h145q42 -74 127 -203l301 -440l289 424q95 140 137 219h140q-95 -121 -197 -275l-317 -466v-297q0 -271 6 -365h-119zM301 1610h543v-76h-543v76z" />
    <glyph glyph-name="uni0233" unicode="&#x233;" horiz-adv-x="874" 
d="M178 -424q-38 -61 -73 -86t-82 -25q-21 0 -33 5q65 87 125 178q195 301 293 481l-291 565q-74 141 -115 211h131q13 -39 72 -164l258 -497q147 305 219 481q33 77 70 180h122q-15 -26 -33 -64.5t-40.5 -89.5t-28.5 -65q-160 -368 -272 -571q-77 -147 -322 -539zM225 1188
h455v-76h-455v76z" />
    <glyph glyph-name="uni0237" unicode="&#x237;" horiz-adv-x="401" 
d="M256 692v-866q0 -171 -69 -268t-205 -97q-38 0 -79 6.5t-42 6.5v102q33 -29 100 -29q88 0 140.5 74.5t52.5 212.5v1002h-95q27 25 54 69h149q-6 -76 -6 -213z" />
    <glyph glyph-name="uni0259" unicode="&#x259;" horiz-adv-x="1003" 
d="M86 453h725q2 94 -37 180.5t-120 144.5t-187 58q-183 0 -307 -105v115q20 4 69.5 24t112.5 35t139 15q191 0 314 -133t123 -332q0 -205 -121 -337t-301 -132q-83 0 -153.5 28t-117 74t-79.5 105t-47.5 119.5t-14.5 119.5q0 4 1 12t1 9zM496 68q132 0 217.5 90t99.5 219
h-618q6 -130 91 -219.5t210 -89.5z" />
    <glyph glyph-name="uni0275" unicode="&#x275;" horiz-adv-x="1089" 
d="M84 453q0 193 135 330t324 137q126 0 232.5 -62.5t168.5 -170t62 -234.5t-62 -234.5t-168.5 -170t-232.5 -62.5q-189 0 -324 137t-135 330zM543 70q143 0 248 104t114 256h-723q8 -153 111.5 -256.5t249.5 -103.5zM543 836q-138 0 -240 -96t-119 -238h717
q-17 142 -119.5 238t-238.5 96z" />
    <glyph glyph-name="uni02BB" unicode="&#x2bb;" horiz-adv-x="487" 
d="M281 1018h-101q0 283 82 424h84q-65 -148 -65 -424z" />
    <glyph glyph-name="uni02BC" unicode="&#x2bc;" horiz-adv-x="325" 
d="M145 1493h105q0 -172 -30 -308.5t-77 -209.5h-84q38 78 62 215t24 303z" />
    <glyph glyph-name="circumflex" unicode="&#x2c6;" horiz-adv-x="946" 
d="M473 1225l-156 -197h-92l242 291h16l238 -291h-94z" />
    <glyph glyph-name="caron" unicode="&#x2c7;" horiz-adv-x="946" 
d="M475 1106l156 197h90l-240 -291h-18l-238 291h94z" />
    <glyph glyph-name="uni02C9" unicode="&#x2c9;" horiz-adv-x="946" 
d="M246 1188h454v-76h-454v76z" />
    <glyph glyph-name="breve" unicode="&#x2d8;" horiz-adv-x="946" 
d="M326 1257q0 -61 42.5 -103t104.5 -42t105 42t43 103h77q0 -93 -65 -155t-160 -62t-160 62t-65 155h78z" />
    <glyph glyph-name="dotaccent" unicode="&#x2d9;" horiz-adv-x="946" 
d="M410 1176q0 29 18.5 47t46.5 18t47 -18t19 -47q0 -28 -19 -47t-47 -19t-46.5 19t-18.5 47z" />
    <glyph glyph-name="ring" unicode="&#x2da;" horiz-adv-x="946" 
d="M317 1180q0 62 46 105.5t110 43.5q65 0 111.5 -44t46.5 -105t-46.5 -105.5t-111.5 -44.5q-64 0 -110 44t-46 106zM385 1180q0 -37 26.5 -63.5t61.5 -26.5q37 0 63.5 26.5t26.5 63.5t-26.5 63.5t-63.5 26.5q-35 0 -61.5 -26.5t-26.5 -63.5z" />
    <glyph glyph-name="ogonek" unicode="&#x2db;" horiz-adv-x="946" 
d="M209 -334q0 49 24 97t71 93.5t84.5 75t96.5 70.5h90q-65 -46 -105 -78.5t-82.5 -74t-62.5 -81.5t-20 -81q0 -55 35 -87t88 -32q66 0 123 51v-84q-69 -43 -162 -43q-78 0 -129 47t-51 127z" />
    <glyph glyph-name="tilde" unicode="&#x2dc;" horiz-adv-x="946" 
d="M301 1073h-76q2 71 42.5 117.5t109.5 46.5q32 0 61.5 -15.5t47.5 -33.5t39.5 -33.5t39.5 -15.5q40 0 62 24.5t22 67.5h74q0 -68 -44.5 -116t-109.5 -48q-34 0 -64 15.5t-48 33.5t-40 33.5t-42 15.5q-34 0 -54 -25.5t-20 -66.5z" />
    <glyph glyph-name="hungarumlaut" unicode="&#x2dd;" horiz-adv-x="946" 
d="M510 1034l186 273h103l-195 -273h-94zM256 1034l186 273h103l-197 -273h-92z" />
    <glyph glyph-name="uni0302" unicode="&#x302;" horiz-adv-x="0" 
d="M0 1225l-156 -197h-92l242 291h16l238 -291h-94z" />
    <glyph glyph-name="tildecomb" unicode="&#x303;" horiz-adv-x="0" 
d="M-174 1073h-76q2 71 42.5 117.5t109.5 46.5q32 0 61.5 -15.5t47.5 -33.5t39.5 -33.5t39.5 -15.5q40 0 62 24.5t22 67.5h74q0 -68 -44.5 -116t-109.5 -48q-34 0 -64 15.5t-48 33.5t-40 33.5t-42 15.5q-34 0 -54 -25.5t-20 -66.5z" />
    <glyph glyph-name="uni0374" unicode="&#x374;" horiz-adv-x="460" 
d="M70 680l194 455h107l-209 -455h-92z" />
    <glyph glyph-name="uni0375" unicode="&#x375;" horiz-adv-x="460" 
d="M70 -219l194 455h107l-209 -455h-92z" />
    <glyph glyph-name="uni037A" unicode="&#x37a;" horiz-adv-x="788" 
d="M330 -246q0 77 20 135h84q-12 -42 -12 -106q0 -60 26 -89.5t70 -29.5q36 0 57 14v-63q-40 -21 -90 -21q-79 0 -117 48t-38 112z" />
    <glyph glyph-name="uni037E" unicode="&#x37e;" horiz-adv-x="391" 
d="M133 758q0 31 23 53.5t55 22.5q31 0 53.5 -22.5t22.5 -53.5q0 -32 -22.5 -56t-53.5 -24q-32 0 -55 24t-23 56zM162 172h102q0 -169 -29.5 -304t-74.5 -208h-84q38 78 62 213.5t24 298.5z" />
    <glyph glyph-name="tonos" unicode="&#x384;" horiz-adv-x="940" 
d="M408 1034l194 273h107l-205 -273h-96z" />
    <glyph glyph-name="dieresistonos" unicode="&#x385;" horiz-adv-x="962" 
d="M381 1032l145 283h99l-156 -283h-88zM227 1161q0 24 18 41t42 17q26 0 44.5 -16.5t18.5 -41.5t-18 -41t-45 -16q-24 0 -42 16.5t-18 40.5zM639 1161q0 25 17 41.5t42 16.5q26 0 44 -16.5t18 -41.5t-18 -41t-44 -16q-25 0 -42 16t-17 41z" />
    <glyph glyph-name="Alphatonos" unicode="&#x386;" horiz-adv-x="1267" 
d="M1268 0h-142q-34 99 -102 258l-121 287h-557l-117 -285q-81 -195 -98 -260h-131q62 115 143 311l471 1119h33l473 -1119q79 -182 148 -311zM866 633l-241 592l-242 -592h483zM123 1081l117 349h94l-123 -349h-88z" />
    <glyph glyph-name="anoteleia" unicode="&#x387;" horiz-adv-x="352" 
d="M96 717q0 34 24 58t56 24t56 -24t24 -58q0 -32 -24 -56t-56 -24t-56 24t-24 56z" />
    <glyph glyph-name="Epsilontonos" unicode="&#x388;" horiz-adv-x="987" 
d="M537 1315h-177v-512h181q217 0 311 6v-102q-95 6 -311 6h-181v-623h193q253 0 344 6v-102q-91 6 -344 6h-309q8 226 8 367v671q0 243 -8 365h293q249 0 344 6v-102q-84 8 -344 8zM-61 1081l116 349h95l-123 -349h-88z" />
    <glyph glyph-name="Etatonos" unicode="&#x389;" horiz-adv-x="1466" 
d="M360 1036v-231h842v231q0 281 -6 367h121q-6 -135 -6 -367v-741q0 -209 6 -295h-121q6 86 6 297v418h-842v-420q0 -195 7 -295h-119q6 86 6 297v739q0 284 -6 367h119q-7 -96 -7 -367zM-61 1081l116 349h95l-123 -349h-88z" />
    <glyph glyph-name="Iotatonos" unicode="&#x38a;" horiz-adv-x="507" 
d="M340 1036v-669q0 -241 8 -367h-123q8 126 8 367v669q0 245 -8 367h123q-8 -122 -8 -367zM-61 1081l116 349h95l-123 -349h-88z" />
    <glyph glyph-name="Omicrontonos" unicode="&#x38c;" horiz-adv-x="1642" 
d="M123 702q0 147 56.5 281t151.5 231.5t227.5 155t277.5 57.5q195 0 360 -97.5t260.5 -264.5t95.5 -363t-95.5 -363t-260.5 -264.5t-360 -97.5q-145 0 -277.5 57.5t-227.5 155t-151.5 231.5t-56.5 281zM233 702q0 -172 81 -317.5t220 -230t302 -84.5q164 0 303.5 84.5
t221 230t81.5 317.5q0 128 -48 245t-129.5 201.5t-193.5 134.5t-235 50q-163 0 -302 -84.5t-220 -230t-81 -316.5zM-31 1081l117 349h94l-123 -349h-88z" />
    <glyph glyph-name="Upsilontonos" unicode="&#x38e;" horiz-adv-x="1351" 
d="M711 0q6 189 6 365v297l-324 475q-94 142 -194 266h145q42 -74 127 -203l301 -440l289 424q95 140 137 219h139q-89 -113 -196 -275l-318 -466v-297q0 -271 6 -365h-118zM-35 1081l117 349h94l-123 -349h-88z" />
    <glyph glyph-name="Omegatonos" unicode="&#x38f;" horiz-adv-x="1689" 
d="M266 705q0 -209 116.5 -370.5t293.5 -238.5v-96h-273q-209 0 -301 -6v100q122 -8 285 -8h145q-162 89 -269 254.5t-107 366.5q0 195 93 359t254 258.5t353 94.5q191 0 352.5 -94.5t256 -258.5t94.5 -359q0 -205 -108 -367.5t-271 -253.5h125q181 0 307 8v-100
q-94 6 -322 6h-252v96q78 34 150 91.5t131 134t94 176.5t35 207q0 167 -79 309.5t-215.5 226.5t-297.5 84q-162 0 -298 -84t-214 -226.5t-78 -309.5zM-31 1081l117 349h94l-123 -349h-88z" />
    <glyph glyph-name="iotadieresistonos" unicode="&#x390;" horiz-adv-x="403" 
d="M246 692v-495q0 -136 47 -136q36 0 47 11v-70q-40 -25 -86 -25q-62 0 -86.5 54.5t-24.5 173.5v493q0 136 -6 207h115q-6 -71 -6 -213zM104 1032l146 283h98l-155 -283h-89zM-49 1161q0 24 17.5 41t41.5 17q26 0 45 -16.5t19 -41.5q0 -24 -18.5 -40.5t-45.5 -16.5
q-24 0 -41.5 16.5t-17.5 40.5zM362 1161q0 25 17.5 41.5t42.5 16.5q26 0 43.5 -16.5t17.5 -41.5t-17.5 -41t-43.5 -16q-25 0 -42.5 16.5t-17.5 40.5z" />
    <glyph glyph-name="Alpha" unicode="&#x391;" horiz-adv-x="1267" 
d="M1268 0h-142q-34 99 -102 258l-121 287h-557l-117 -285q-81 -195 -98 -260h-131q62 115 143 311l471 1119h33l473 -1119q79 -182 148 -311zM866 633l-241 592l-242 -592h483z" />
    <glyph glyph-name="Beta" unicode="&#x392;" 
d="M147 0q11 116 11 367v653q0 302 -8 383h249q168 0 269.5 -94t101.5 -234q0 -101 -53 -177.5t-121 -100.5q136 -38 213.5 -142.5t77.5 -244.5q0 -176 -128 -293t-329 -117h-283zM776 410q0 148 -92 238.5t-235 90.5h-185v-649h160q153 0 252.5 90.5t99.5 229.5zM264 1317
v-496h180q92 0 155 71.5t63 174.5q0 107 -77 178.5t-194 71.5h-127z" />
    <glyph glyph-name="Gamma" unicode="&#x393;" horiz-adv-x="884" 
d="M147 0q9 142 9 367v669q0 230 -9 367h381q148 0 306 10v-108q-252 8 -306 8h-264v-946q0 -178 6 -367h-123z" />
    <glyph glyph-name="uni0394" unicode="&#x394;" horiz-adv-x="1222" 
d="M1223 0h-1223q60 108 141 311l459 1125h23l460 -1125q42 -105 140 -311zM606 1227l-444 -1133h891z" />
    <glyph glyph-name="Epsilon" unicode="&#x395;" horiz-adv-x="890" 
d="M440 1315h-176v-512h180q218 0 312 6v-102q-94 6 -312 6h-180v-623h193q253 0 344 6v-102q-91 6 -344 6h-310q9 254 9 367v671q0 228 -9 365h293q249 0 344 6v-102q-84 8 -344 8z" />
    <glyph glyph-name="Zeta" unicode="&#x396;" horiz-adv-x="1079" 
d="M821 1094l-600 -1004h465q244 0 336 6v-102q-92 6 -336 6h-637q63 95 193 311l602 1004h-410q-269 0 -350 -8v102q91 -6 350 -6h580q-83 -116 -193 -309z" />
    <glyph glyph-name="Eta" unicode="&#x397;" horiz-adv-x="1370" 
d="M264 1036v-231h842v231q0 281 -6 367h121q-7 -157 -7 -367v-741q0 -195 7 -295h-121q6 86 6 297v418h-842v-420q0 -209 6 -295h-118q6 86 6 297v739q0 284 -6 367h118q-6 -83 -6 -367z" />
    <glyph glyph-name="Theta" unicode="&#x398;" horiz-adv-x="1611" 
d="M664 750h294q131 0 213 8v-105q-68 6 -213 6h-294q-142 0 -213 -6v105q94 -8 213 -8zM92 702q0 147 56.5 281t151.5 231.5t227.5 155t277.5 57.5q146 0 279 -57.5t229 -155t152.5 -231.5t56.5 -281t-56.5 -281t-152.5 -231.5t-229 -155t-279 -57.5q-145 0 -277.5 57.5
t-227.5 155t-151.5 231.5t-56.5 281zM203 702q0 -172 80.5 -317.5t219.5 -230t302 -84.5q164 0 303.5 84.5t221 230t81.5 317.5q0 128 -48 245t-129.5 201.5t-193.5 134.5t-235 50q-122 0 -233.5 -50t-192.5 -134.5t-128.5 -201.5t-47.5 -245z" />
    <glyph glyph-name="Iota" unicode="&#x399;" horiz-adv-x="440" 
d="M272 1036v-669q0 -225 9 -367h-123q8 126 8 367v669q0 245 -8 367h123q-9 -137 -9 -367z" />
    <glyph glyph-name="Kappa" unicode="&#x39a;" horiz-adv-x="1091" 
d="M264 1036v-303l408 445q132 144 196 225h146q-81 -76 -236 -242l-407 -438l503 -516q74 -79 218 -207h-174q-65 83 -142 162l-512 526v-321q0 -178 6 -367h-120q6 94 6 367v669q0 276 -6 367h120q-6 -183 -6 -367z" />
    <glyph glyph-name="Lambda" unicode="&#x39b;" horiz-adv-x="1280" 
d="M1032 256q-52 126 -401 958q-215 -501 -400 -962q-60 -146 -94 -252h-137q63 106 145 311l480 1139h18l485 -1139q101 -229 152 -311h-147q-18 58 -101 256z" />
    <glyph glyph-name="Mu" unicode="&#x39c;" horiz-adv-x="1642" 
d="M1405 1432l104 -1115q17 -178 43 -317h-131q0 93 -16 293l-74 860l-497 -1176h-25l-492 1174l-96 -829q-24 -226 -26 -322h-121q35 219 53 371l133 1061h29l538 -1254l543 1254h35z" />
    <glyph glyph-name="Nu" unicode="&#x39d;" horiz-adv-x="1404" 
d="M258 295q0 -181 8 -295h-116q6 86 6 297v745q0 228 -6 394h26q48 -67 150 -189l819 -1016v805q0 238 -6 367h116q-6 -135 -6 -367v-772q0 -170 6 -289h-26q-55 77 -139 179l-828 1028z" />
    <glyph glyph-name="Xi" unicode="&#x39e;" horiz-adv-x="1028" 
d="M90 -8v110q86 -8 256 -8h311q155 0 281 8v-110q-126 8 -281 8h-313q-142 0 -254 -8zM641 1311h-252q-158 0 -283 -8v108q125 -8 283 -8h252q147 0 279 12v-112q-82 8 -279 8zM154 702v109q117 -8 243 -8q42 0 117 1t117 1q37 0 241 6v-109q-153 9 -241 9h-234
q-111 0 -243 -9z" />
    <glyph glyph-name="Omicron" unicode="&#x39f;" horiz-adv-x="1611" 
d="M92 702q0 147 56.5 281t151.5 231.5t227.5 155t277.5 57.5q146 0 279 -57.5t229 -155t152.5 -231.5t56.5 -281t-56.5 -281t-152.5 -231.5t-229 -155t-279 -57.5q-145 0 -277.5 57.5t-227.5 155t-151.5 231.5t-56.5 281zM203 702q0 -172 80.5 -317.5t219.5 -230t302 -84.5
q164 0 303.5 84.5t221 230t81.5 317.5q0 128 -48 245t-129.5 201.5t-193.5 134.5t-235 50q-122 0 -233.5 -50t-192.5 -134.5t-128.5 -201.5t-47.5 -245z" />
    <glyph glyph-name="Pi" unicode="&#x3a0;" horiz-adv-x="1286" 
d="M150 1403h985q-7 -77 -7 -256v-772q0 -247 11 -375h-123q6 99 6 371v942h-758v-946q0 -273 6 -367h-120q8 126 8 367v677q0 207 -8 359z" />
    <glyph glyph-name="Rho" unicode="&#x3a1;" horiz-adv-x="919" 
d="M264 573v-206q0 -273 6 -367h-120q8 84 8 367v720q0 235 -8 316h258q202 0 323 -117.5t121 -296.5q0 -176 -128.5 -296t-322.5 -120h-137zM264 1319v-662h135q146 0 244 101t98 233q0 139 -93 233.5t-251 94.5h-133z" />
    <glyph glyph-name="Sigma" unicode="&#x3a3;" horiz-adv-x="1107" 
d="M29 0v14q102 111 168 189l434 514l-418 487q-98 115 -162 187v12h692q177 0 269 6v-102q-122 8 -271 8h-497l508 -596l-533 -629h576q174 0 268 6v-102q-94 6 -268 6h-766z" />
    <glyph glyph-name="Tau" unicode="&#x3a4;" horiz-adv-x="1239" 
d="M393 1403h449q256 0 350 6v-102q-126 8 -350 8h-166q-2 -76 -2 -264v-684q0 -304 6 -367h-121q6 94 6 367v684q0 150 -6 264h-166q-220 0 -346 -8v102q95 -6 346 -6z" />
    <glyph glyph-name="Upsilon" unicode="&#x3a5;" horiz-adv-x="1138" 
d="M512 0q6 189 6 365v297l-323 475q-89 135 -195 266h145q42 -74 127 -203l301 -440l289 424q95 140 137 219h140q-95 -121 -197 -275l-317 -466v-297q0 -271 6 -365h-119z" />
    <glyph glyph-name="Phi" unicode="&#x3a6;" horiz-adv-x="1474" 
d="M90 702q0 260 166.5 432t431.5 187q-5 103 -8 139h113q-7 -79 -7 -139q264 -17 432 -189t168 -430q0 -256 -168.5 -428.5t-431.5 -187.5q0 -62 7 -141h-113q3 36 8 139q-265 17 -431.5 189t-166.5 429zM1278 705q0 216 -138 362.5t-354 163.5v-1051q216 15 354 161.5
t138 363.5zM197 705q0 -218 137 -364t354 -161v1051q-217 -17 -354 -163.5t-137 -362.5z" />
    <glyph glyph-name="Chi" unicode="&#x3a7;" horiz-adv-x="995" 
d="M700 262l-204 350l-226 -376q-85 -153 -127 -236h-141q90 122 193 289l245 411l-239 400q-95 165 -199 303h148q73 -137 143 -250l207 -352l209 352q33 58 81.5 145.5t57.5 104.5h141q-68 -87 -198 -301l-236 -391l240 -404q108 -178 202 -307h-145q-11 19 -63.5 110.5
t-88.5 151.5z" />
    <glyph glyph-name="Psi" unicode="&#x3a8;" horiz-adv-x="1302" 
d="M197 1403q14 -102 14 -354q0 -185 112 -310.5t279 -146.5v459q0 271 -8 352h119q-6 -91 -6 -352v-459q164 23 275.5 148t111.5 309q0 154 12 354h119q-29 -151 -29 -354q0 -230 -138.5 -379t-350.5 -170v-129q0 -277 6 -371h-119q8 126 8 371v129q-139 14 -250.5 83
t-178.5 191t-67 275q0 226 -24 354h115z" />
    <glyph glyph-name="uni03A9" unicode="&#x3a9;" horiz-adv-x="1662" 
d="M242 705q0 -209 116 -370.5t293 -238.5v-96h-272q-209 0 -301 -6v100q122 -8 284 -8h146q-162 89 -269.5 254.5t-107.5 366.5q0 195 93 359t254 258.5t353 94.5q191 0 352.5 -94.5t256 -258.5t94.5 -359q0 -205 -108 -367.5t-271 -253.5h125q181 0 307 8v-100
q-95 6 -321 6h-252v96q78 34 149.5 91.5t130.5 134t94 176.5t35 207q0 167 -79 309.5t-215.5 226.5t-297.5 84q-121 0 -230.5 -49.5t-188 -133.5t-124.5 -198t-46 -239z" />
    <glyph glyph-name="Iotadieresis" unicode="&#x3aa;" horiz-adv-x="440" 
d="M272 1036v-669q0 -225 9 -367h-123q8 126 8 367v669q0 245 -8 367h123q-9 -137 -9 -367zM-29 1593q0 27 20.5 46.5t47.5 19.5q28 0 47.5 -19t19.5 -47q0 -27 -20 -47t-47 -20q-26 0 -47 20.5t-21 46.5zM330 1593q0 27 20.5 46.5t48.5 19.5t47 -19t19 -47q0 -27 -19.5 -47
t-46.5 -20q-28 0 -48.5 20.5t-20.5 46.5z" />
    <glyph glyph-name="Upsilondieresis" unicode="&#x3ab;" horiz-adv-x="1138" 
d="M512 0q6 189 6 365v297l-323 475q-89 135 -195 266h145q42 -74 127 -203l301 -440l289 424q95 140 137 219h140q-95 -121 -197 -275l-317 -466v-297q0 -271 6 -365h-119zM322 1593q0 27 20 46.5t47 19.5q28 0 48 -19t20 -47q0 -27 -20.5 -47t-47.5 -20q-26 0 -46.5 20.5
t-20.5 46.5zM680 1593q0 27 21 46.5t49 19.5t46.5 -19t18.5 -47q0 -27 -19 -47t-46 -20q-28 0 -49 20.5t-21 46.5z" />
    <glyph glyph-name="alphatonos" unicode="&#x3ac;" horiz-adv-x="1060" 
d="M825 905h101q-27 -162 -27 -348v-303q-1 -108 19 -149.5t59 -41.5q21 0 43 11v-74q-38 -23 -84 -23q-69 0 -96.5 55.5t-30.5 180.5q-45 -108 -126.5 -172t-195.5 -64q-111 0 -203 64.5t-144 173t-52 236.5q0 195 115 332t284 137q222 0 320 -234q3 90 18 219zM803 449
q0 160 -86.5 271t-210.5 111q-131 0 -221 -111t-90 -269q0 -160 91.5 -272.5t221.5 -112.5q123 0 209 111t86 272zM453 1034l194 273h107l-205 -273h-96z" />
    <glyph glyph-name="epsilontonos" unicode="&#x3ad;" horiz-adv-x="751" 
d="M430 426q-118 0 -184 -46.5t-66 -125.5q0 -81 61 -130.5t167 -49.5q168 0 280 100v-113q-7 -2 -49.5 -20t-68.5 -27t-77 -18.5t-102 -9.5q-140 0 -226.5 71t-86.5 189q0 46 16.5 84.5t45.5 65t59 44t65 29.5q-166 68 -166 209q0 104 84.5 173t223.5 69q68 0 117 -13
t80.5 -28t49.5 -17v-121q-36 39 -97.5 66t-139.5 27q-102 0 -158.5 -45t-56.5 -113q0 -77 65.5 -120.5t169.5 -43.5q96 0 129 8v-100q-35 6 -135 6zM346 1034l195 273h106l-205 -273h-96z" />
    <glyph glyph-name="etatonos" unicode="&#x3ae;" 
d="M735 561q0 137 -62 205t-167 68q-104 0 -181 -88t-77 -218v-315q0 -132 8 -213h-117q6 92 6 213v543q0 94 -6 149h101q6 -43 6 -114v-60q35 83 110.5 136t171.5 53q149 0 229.5 -92.5t80.5 -266.5v-1089h-117q14 116 14 239v850zM453 1034l194 273h107l-205 -273h-96z
" />
    <glyph glyph-name="iotatonos" unicode="&#x3af;" horiz-adv-x="403" 
d="M246 692v-495q0 -136 47 -136q36 0 47 11v-70q-40 -25 -86 -25q-62 0 -86.5 54.5t-24.5 173.5v493q0 136 -6 207h115q-6 -71 -6 -213zM143 1034l195 273h106l-204 -273h-97z" />
    <glyph glyph-name="upsilondieresistonos" unicode="&#x3b0;" horiz-adv-x="970" 
d="M246 702l-10 -372q-1 -118 68 -187t169 -69q141 0 218 118t77 306q0 120 -24.5 213t-79.5 194h108q36 -65 67 -174.5t31 -232.5q0 -226 -104.5 -369t-290.5 -143q-148 0 -246 92t-94 248l8 376q0 133 -8 203h103q12 -99 8 -203zM373 1032l145 283h98l-155 -283h-88z
M219 1161q0 24 18 41t42 17q26 0 44.5 -16.5t18.5 -41.5t-18 -41t-45 -16q-24 0 -42 16.5t-18 40.5zM631 1161q0 25 17 41.5t42 16.5q26 0 44 -16.5t18 -41.5t-18 -41t-44 -16q-25 0 -42 16t-17 41z" />
    <glyph glyph-name="alpha" unicode="&#x3b1;" horiz-adv-x="1060" 
d="M825 905h101q-27 -162 -27 -348v-303q-1 -108 19 -149.5t59 -41.5q21 0 43 11v-74q-38 -23 -84 -23q-69 0 -96.5 55.5t-30.5 180.5q-45 -108 -126.5 -172t-195.5 -64q-111 0 -203 64.5t-144 173t-52 236.5q0 195 115 332t284 137q222 0 320 -234q3 90 18 219zM803 449
q0 160 -86.5 271t-210.5 111q-131 0 -221 -111t-90 -269q0 -160 91.5 -272.5t221.5 -112.5q123 0 209 111t86 272z" />
    <glyph glyph-name="beta" unicode="&#x3b2;" horiz-adv-x="1071" 
d="M514 -20q-147 0 -270 69q6 -570 6 -579h-105v1607q0 102 30 184.5t81 134.5t117 79.5t141 27.5q144 0 238 -91.5t94 -229.5q0 -134 -80 -233t-193 -134q118 -5 210 -61t141 -145t49 -195q0 -185 -128.5 -309.5t-330.5 -124.5zM514 743q-68 0 -123 -6v92q139 3 246.5 103
t107.5 242q0 107 -67 173t-166 66q-113 0 -187.5 -86t-74.5 -250v-921q105 -88 264 -88q148 0 251 100.5t103 245.5t-105.5 237t-248.5 92z" />
    <glyph glyph-name="gamma" unicode="&#x3b3;" horiz-adv-x="976" 
d="M784 905h109q-52 -276 -132.5 -463.5t-244.5 -435.5q-13 -178 -86 -534h-111q95 360 95 542q0 279 -267 701q-71 114 -147 190h147q63 -98 111.5 -180.5t103 -190.5t87.5 -214t40 -201q56 89 96.5 163t93.5 209t85 279q18 93 20 135z" />
    <glyph glyph-name="delta" unicode="&#x3b4;" horiz-adv-x="1017" 
d="M84 424q0 123 62 224.5t165.5 153.5t220.5 40q-176 131 -296.5 262.5t-120.5 218.5q0 94 93.5 143.5t229.5 49.5q60 0 113.5 -7t109.5 -24.5t81.5 -26.5t86.5 -36t66 -29v-119q-94 75 -214 116.5t-239 41.5q-93 0 -157 -29.5t-64 -89.5q0 -39 44.5 -100t117.5 -128.5
t142 -124.5t141 -110q144 -106 205 -202t61 -224q0 -182 -123.5 -309t-300.5 -127q-178 0 -301 126.5t-123 309.5zM188 426q0 -143 94 -245.5t226 -102.5t225.5 102.5t93.5 245.5t-93.5 244.5t-225.5 101.5t-226 -101.5t-94 -244.5z" />
    <glyph glyph-name="epsilon" unicode="&#x3b5;" horiz-adv-x="751" 
d="M430 426q-118 0 -184 -46.5t-66 -125.5q0 -81 61 -130.5t167 -49.5q168 0 280 100v-113q-7 -2 -49.5 -20t-68.5 -27t-77 -18.5t-102 -9.5q-140 0 -226.5 71t-86.5 189q0 46 16.5 84.5t45.5 65t59 44t65 29.5q-166 68 -166 209q0 104 84.5 173t223.5 69q68 0 117 -13
t80.5 -28t49.5 -17v-121q-36 39 -97.5 66t-139.5 27q-102 0 -158.5 -45t-56.5 -113q0 -77 65.5 -120.5t169.5 -43.5q96 0 129 8v-100q-35 6 -135 6z" />
    <glyph glyph-name="zeta" unicode="&#x3b6;" horiz-adv-x="757" 
d="M729 1501v-94q-534 -547 -534 -948q0 -86 18 -147.5t39.5 -95.5t69.5 -59t77.5 -33t95.5 -21q22 -5 33 -7q114 -25 168 -72.5t54 -146.5q0 -132 -103 -301h-98q42 64 73 141t31 140q0 61 -35.5 93t-113.5 50q-151 34 -193 48q-121 43 -171 138q-48 92 -48 254
q0 396 483 920q-352 0 -411 12v92q36 -10 128 -17t167 -7h198z" />
    <glyph glyph-name="eta" unicode="&#x3b7;" 
d="M735 561q0 137 -62 205t-167 68q-104 0 -181 -88t-77 -218v-315q0 -132 8 -213h-117q6 92 6 213v543q0 94 -6 149h101q6 -43 6 -114v-60q35 83 110.5 136t171.5 53q149 0 229.5 -92.5t80.5 -266.5v-1089h-117q14 116 14 239v850z" />
    <glyph glyph-name="theta" unicode="&#x3b8;" horiz-adv-x="1019" 
d="M106 733q0 213 47 382t139 269.5t216 100.5q126 0 219 -100.5t139.5 -269.5t46.5 -382q0 -212 -46.5 -380t-139.5 -267.5t-219 -99.5q-124 0 -216 99.5t-139 267.5t-47 380zM508 1395q-94 0 -162 -83t-102 -221.5t-37 -316.5h606q-4 179 -39 317.5t-103.5 221
t-162.5 82.5zM508 76q94 0 162 81t102.5 217.5t38.5 315.5h-604q4 -177 40 -315t103.5 -218.5t157.5 -80.5z" />
    <glyph glyph-name="iota" unicode="&#x3b9;" horiz-adv-x="403" 
d="M246 692v-495q0 -136 47 -136q36 0 47 11v-70q-40 -25 -86 -25q-62 0 -86.5 54.5t-24.5 173.5v493q0 136 -6 207h115q-6 -71 -6 -213z" />
    <glyph glyph-name="kappa" unicode="&#x3ba;" horiz-adv-x="866" 
d="M254 686v-225q191 232 287 319q84 83 126 111.5t93 28.5q47 0 74 -27q-47 -13 -91 -45t-122 -105q-96 -91 -252 -272l284 -276q133 -134 213 -195h-157q-30 39 -136 145l-319 316v-248q0 -151 6 -213h-115q7 79 7 213v473q0 113 -9 219h105q6 -71 6 -219z" />
    <glyph glyph-name="lambda" unicode="&#x3bb;" horiz-adv-x="868" 
d="M-98 1393v98q16 3 39 10.5t45 11t53 3.5q118 0 202 -93.5t169 -308.5l352 -881q65 -160 104 -233h-143q-18 90 -53 182l-226 582l-288 -684q-24 -49 -31 -80h-123q41 63 57 98l338 774l-82 211q-75 190 -141.5 265t-159.5 75q-53 0 -112 -30z" />
    <glyph glyph-name="uni03BC" unicode="&#x3bc;" horiz-adv-x="991" 
d="M248 348q2 -125 60.5 -198.5t183.5 -73.5q74 0 130 44t82.5 107.5t26.5 132.5v332q0 122 -6 213h115q-6 -91 -6 -213v-493q0 -77 11.5 -107.5t39.5 -30.5t43 11v-70q-1 -1 -10 -5.5t-14.5 -7t-15.5 -6t-22 -5t-26 -1.5q-48 0 -74 40.5t-29 156.5q-34 -81 -100.5 -134.5
t-159.5 -53.5q-168 0 -244 127q11 -151 11 -437q0 -83 6 -206h-111q6 68 6 213v1009q0 122 -6 213h115q-6 -92 -6 -213v-344z" />
    <glyph glyph-name="nu" unicode="&#x3bd;" horiz-adv-x="860" 
d="M199 719l225 -590q117 151 177.5 303t60.5 270q0 125 -35 203h123q-3 -19 5.5 -77t8.5 -123q0 -154 -82.5 -332t-271.5 -404h-23l-289 723q-49 129 -96 213h139q16 -82 58 -186z" />
    <glyph glyph-name="xi" unicode="&#x3be;" horiz-adv-x="839" 
d="M674 -424h-99q101 170 101 283q0 39 -15 65.5t-46.5 41t-64.5 21.5t-85 11q-47 4 -85.5 11.5t-81 21.5t-74.5 38.5t-58.5 58.5t-40.5 85t-14 115q0 136 83.5 243.5t213.5 149.5q-120 38 -190.5 127t-70.5 217q0 152 113.5 254.5t276.5 105.5q57 1 122 -8.5t72 -9.5v-96
q-96 33 -180 28q-126 -3 -214.5 -84t-88.5 -194q0 -123 88.5 -208t212.5 -85q91 0 160 27l-2 -97q-141 0 -224 -26q-123 -37 -197.5 -129t-74.5 -205q0 -70 25 -119t70 -75t90 -38.5t102 -17.5q53 -5 87 -10.5t74 -20t62 -35.5t37.5 -58.5t15.5 -88.5q0 -20 -2 -40t-7 -40.5
t-9 -36.5t-12.5 -37t-13 -33t-15 -33t-14.5 -28.5t-14.5 -27.5t-12.5 -23z" />
    <glyph glyph-name="omicron" unicode="&#x3bf;" horiz-adv-x="1089" 
d="M84 453q0 193 135 330t324 137q126 0 232.5 -62.5t168.5 -170t62 -234.5t-62 -234.5t-168.5 -170t-232.5 -62.5q-189 0 -324 137t-135 330zM184 453q0 -157 105 -267t254 -110q150 0 256 110.5t106 266.5t-106 266t-256 110q-149 0 -254 -110.5t-105 -265.5z" />
    <glyph glyph-name="pi" unicode="&#x3c0;" horiz-adv-x="1077" 
d="M1042 911v-96q-78 4 -120 4h-107q-14 -403 -14 -545q0 -204 22 -274h-110q-13 73 -13 264q0 67 5.5 271.5t9.5 283.5h-312l-36 -819h-99l37 819q-201 0 -268 -18v82q64 22 242 22h645q56 0 118 6z" />
    <glyph glyph-name="rho" unicode="&#x3c1;" horiz-adv-x="1067" 
d="M557 -14q-206 0 -328 137v-332q0 -133 5.5 -198t27.5 -121h-112q-25 95 -25 307v633q0 243 114.5 375.5t313.5 132.5q187 0 307.5 -135t120.5 -332q0 -195 -122 -331t-302 -136zM229 412v-185q114 -151 322 -151q138 0 232 110t94 267q0 158 -92 267t-232 109
q-151 0 -237.5 -107.5t-86.5 -309.5z" />
    <glyph glyph-name="uni03C2" unicode="&#x3c2;" horiz-adv-x="835" 
d="M186 455q0 -289 344 -361q132 -29 181 -78.5t49 -144.5q0 -105 -88 -260h-99q43 72 66 128t23 114q0 59 -37 94.5t-129 56.5q-71 14 -128 35t-112 56t-91.5 81.5t-58.5 115.5t-22 154q0 198 134 336t327 138q46 0 120 -12.5t91 -14.5v-123q-79 59 -211 59
q-152 0 -255.5 -108.5t-103.5 -265.5z" />
    <glyph glyph-name="sigma" unicode="&#x3c3;" horiz-adv-x="1132" 
d="M530 909h304q156 0 245 9v-91q-79 -8 -245 -8h-99q85 -62 141 -157t56 -211q0 -192 -125 -328.5t-303 -136.5q-176 0 -298 136.5t-122 332.5t119.5 325t326.5 129zM827 455q0 104 -59.5 201t-153.5 163h-102q-138 0 -233 -106t-95 -258q0 -157 94 -268t226 -111
q135 0 229 111t94 268z" />
    <glyph glyph-name="tau" unicode="&#x3c4;" horiz-adv-x="831" 
d="M799 911v-96q-39 4 -144 4h-194q-15 -431 -15 -624q0 -58 8 -90t17 -39t23 -7q26 0 41 9v-70q-40 -21 -78 -21q-61 0 -87 45.5t-26 170.5q0 83 5 316t9 310h-41q-232 0 -284 -20v84q64 22 241 22h381q85 0 144 6z" />
    <glyph glyph-name="upsilon" unicode="&#x3c5;" horiz-adv-x="970" 
d="M246 702l-10 -372q-1 -118 68 -187t169 -69q141 0 218 118t77 306q0 120 -24.5 213t-79.5 194h108q36 -65 67 -174.5t31 -232.5q0 -226 -104.5 -369t-290.5 -143q-148 0 -246 92t-94 248l8 376q0 133 -8 203h103q12 -99 8 -203z" />
    <glyph glyph-name="phi" unicode="&#x3c6;" horiz-adv-x="1255" 
d="M82 469q0 107 40 196t109 149t159 95.5t192 42.5v140q0 158 -7 215h103q-4 -98 -4 -215v-140q101 -7 190.5 -43t158 -96t108.5 -149t40 -195q0 -142 -69.5 -251t-180.5 -166.5t-247 -65.5v-228q0 -146 6 -217h-105q7 82 7 217v228q-139 8 -250.5 65.5t-180.5 166
t-69 251.5zM1069 469q0 173 -115 278t-280 115v-788q106 6 194 52t144.5 136t56.5 207zM184 469q0 -89 32.5 -162.5t88 -122.5t127 -77t150.5 -33v788q-166 -10 -282 -115t-116 -278z" />
    <glyph glyph-name="chi" unicode="&#x3c7;" horiz-adv-x="849" 
d="M571 -215l-149 297l-172 -352q-103 -207 -123 -258h-129q89 135 178 319l201 399l-203 402q-89 176 -168 313h131q38 -102 119 -260l178 -346l162 332q88 174 129 274h123q-66 -109 -164 -303l-203 -407l178 -361q136 -274 191 -362h-135q-17 51 -144 313z" />
    <glyph glyph-name="psi" unicode="&#x3c8;" horiz-adv-x="1261" 
d="M678 877v-799q60 10 107 32.5t88.5 66t71.5 115t48 171.5q7 41 22 136.5t27.5 167t28.5 138.5h117q-17 -52 -32 -118t-23.5 -112.5t-20 -118.5t-16.5 -101q-39 -229 -140 -339.5t-278 -127.5v-178q0 -138 6 -199h-104q4 90 4 199v178q-118 10 -198 56.5t-135.5 146.5
t-80.5 260q-16 102 -23.5 150t-27.5 141.5t-43 162.5h117q16 -68 28.5 -137.5t28.5 -169.5t22 -135q17 -105 46.5 -178t72 -114.5t87.5 -62t106 -30.5v799q0 119 -4 213h104q-6 -70 -6 -213z" />
    <glyph glyph-name="omega" unicode="&#x3c9;" horiz-adv-x="1429" 
d="M766 532v-170q0 -132 59 -210t154 -78q71 0 130 52t90.5 134t31.5 172q0 136 -50.5 249.5t-142.5 223.5h125q36 -52 60 -91.5t52.5 -101.5t43 -133.5t14.5 -150.5q0 -119 -43 -220.5t-124 -163.5t-183 -62q-111 0 -177 60t-93 159q-26 -96 -92.5 -157.5t-178.5 -61.5
q-155 0 -250.5 123t-95.5 321q0 260 176 479h117q-96 -109 -143 -221t-47 -252q0 -153 70.5 -255.5t181.5 -102.5q94 0 153.5 78.5t59.5 209.5v173q0 94 -5 155h113q-6 -76 -6 -158z" />
    <glyph glyph-name="iotadieresis" unicode="&#x3ca;" horiz-adv-x="403" 
d="M246 692v-495q0 -136 47 -136q36 0 47 11v-70q-40 -25 -86 -25q-62 0 -86.5 54.5t-24.5 173.5v493q0 136 -6 207h115q-6 -71 -6 -213zM-45 1182q0 26 18.5 43.5t44.5 17.5t44 -17.5t18 -43.5t-18 -44t-44 -18t-44.5 18t-18.5 44zM311 1182q0 26 18.5 43.5t45.5 17.5
q26 0 43.5 -17.5t17.5 -43.5t-17.5 -44t-43.5 -18t-45 18t-19 44z" />
    <glyph glyph-name="upsilondieresis" unicode="&#x3cb;" horiz-adv-x="970" 
d="M246 702l-10 -372q-1 -118 68 -187t169 -69q141 0 218 118t77 306q0 120 -24.5 213t-79.5 194h108q36 -65 67 -174.5t31 -232.5q0 -226 -104.5 -369t-290.5 -143q-148 0 -246 92t-94 248l8 376q0 133 -8 203h103q12 -99 8 -203zM225 1182q0 26 18.5 43.5t45.5 17.5
q26 0 43.5 -17.5t17.5 -43.5t-17.5 -44t-43.5 -18t-45 18t-19 44zM582 1182q0 26 18.5 43.5t44.5 17.5t44 -17.5t18 -43.5t-18 -44t-44 -18t-44.5 18t-18.5 44z" />
    <glyph glyph-name="omicrontonos" unicode="&#x3cc;" horiz-adv-x="1089" 
d="M84 453q0 193 135 330t324 137q126 0 232.5 -62.5t168.5 -170t62 -234.5t-62 -234.5t-168.5 -170t-232.5 -62.5q-189 0 -324 137t-135 330zM184 453q0 -157 105 -267t254 -110q150 0 256 110.5t106 266.5t-106 266t-256 110q-149 0 -254 -110.5t-105 -265.5zM483 1034
l195 273h106l-204 -273h-97z" />
    <glyph glyph-name="upsilontonos" unicode="&#x3cd;" horiz-adv-x="970" 
d="M246 702l-10 -372q-1 -118 68 -187t169 -69q141 0 218 118t77 306q0 120 -24.5 213t-79.5 194h108q36 -65 67 -174.5t31 -232.5q0 -226 -104.5 -369t-290.5 -143q-148 0 -246 92t-94 248l8 376q0 133 -8 203h103q12 -99 8 -203zM410 1034l194 273h107l-205 -273h-96z" />
    <glyph glyph-name="omegatonos" unicode="&#x3ce;" horiz-adv-x="1429" 
d="M766 532v-170q0 -132 59 -210t154 -78q71 0 130 52t90.5 134t31.5 172q0 136 -50.5 249.5t-142.5 223.5h125q36 -52 60 -91.5t52.5 -101.5t43 -133.5t14.5 -150.5q0 -119 -43 -220.5t-124 -163.5t-183 -62q-111 0 -177 60t-93 159q-26 -96 -92.5 -157.5t-178.5 -61.5
q-155 0 -250.5 123t-95.5 321q0 260 176 479h117q-96 -109 -143 -221t-47 -252q0 -153 70.5 -255.5t181.5 -102.5q94 0 153.5 78.5t59.5 209.5v173q0 94 -5 155h113q-6 -76 -6 -158zM666 1034l194 273h107l-205 -273h-96z" />
    <glyph glyph-name="uni03D1" unicode="&#x3d1;" horiz-adv-x="940" 
d="M63 418h115q15 -29 39.5 -80.5t39.5 -82t39.5 -69.5t46.5 -60.5t53.5 -37.5t66.5 -16q81 0 145.5 77.5t100 200t41.5 268.5q-160 1 -287.5 41t-207.5 107.5t-122.5 154t-42.5 185.5q0 147 102 263t248 116q137 0 232.5 -95t140.5 -256.5t45 -377.5q0 -353 -110 -562.5
t-289 -209.5q-53 0 -98 19.5t-76.5 49t-63 77t-52.5 89t-51.5 101t-54.5 98.5zM756 707q5 194 -28 348.5t-108.5 249t-183.5 94.5q-105 0 -174 -89t-69 -200q0 -170 148 -285t415 -118z" />
    <glyph glyph-name="uni03D7" unicode="&#x3d7;" horiz-adv-x="1038" 
d="M254 686v-221q18 21 75 86t97.5 109.5t79.5 84.5q86 89 142 132t104 43q55 0 82 -27q-84 -18 -216 -150q-115 -112 -249 -272l268 -299q50 -58 94 -80t98 -22q97 0 172 61v-113q-34 -20 -91.5 -69.5t-115.5 -97t-130.5 -95t-163.5 -77t-187 -29.5q-81 0 -150 17.5
t-120.5 50t-87 65t-68.5 74.5v188q65 -147 175 -223t251 -76q90 0 181 34.5t149 75.5t116 85t77 53q-150 -26 -285 131l-297 336v-248q0 -151 6 -213h-115q7 79 7 213v473q0 113 -9 219h105q6 -71 6 -219z" />
    <glyph glyph-name="uni03D9" unicode="&#x3d9;" horiz-adv-x="1087" 
d="M82 453q0 193 135 330t324 137q126 0 232.5 -62.5t168.5 -170t62 -234.5q0 -179 -118.5 -311.5t-291.5 -151.5v-144q0 -53 4 -163h-111q5 138 5 163v142q-173 19 -291.5 152t-118.5 313zM182 453q0 -157 105 -267t254 -110q150 0 256 110.5t106 266.5t-106 266t-256 110
q-149 0 -254 -110.5t-105 -265.5z" />
    <glyph glyph-name="uni03DB" unicode="&#x3db;" horiz-adv-x="829" 
d="M190 453q0 -290 340 -357q121 -25 176.5 -73.5t55.5 -151.5q0 -45 -17 -98.5t-30.5 -80.5t-42.5 -81h-99q89 137 89 239q0 67 -43.5 102.5t-135.5 53.5q-397 79 -397 443q0 191 116.5 316.5t321.5 154.5q48 7 73.5 15t46 28.5t27.5 56t7 94.5h94q-1 -79 -12 -128.5
t-39.5 -80.5t-67.5 -45.5t-104 -23.5q-172 -26 -265.5 -127.5t-93.5 -255.5z" />
    <glyph glyph-name="uni03DD" unicode="&#x3dd;" horiz-adv-x="913" 
d="M133 -317q23 95 23 266v676q0 131 -9 280h246q126 0 324 6v-102q-99 6 -324 6h-133v-430h166q141 0 240 6v-100q-99 6 -240 6h-166v-350q0 -154 -10 -264h-117z" />
    <glyph glyph-name="uni03E1" unicode="&#x3e1;" horiz-adv-x="1073" 
d="M336 846l326 160q-109 152 -248 248t-244 94l133 61q62 -17 135.5 -62t154 -116.5t161.5 -181t143 -238.5q78 -161 114.5 -318t33 -287t-40.5 -239l-127 -57q46 73 61 182.5t4.5 215t-37.5 208.5l-342 -170q-123 -57 -207 -104l-43 88q60 25 209 96l359 174
q-73 190 -166 328l-342 -164l-205 -102l-41 88q59 21 209 96z" />
    <glyph glyph-name="uni0400" unicode="&#x400;" horiz-adv-x="890" 
d="M440 1315h-176v-512h180q218 0 312 6v-102q-94 6 -312 6h-180v-623h193q253 0 344 6v-102q-91 6 -344 6h-310q9 254 9 367v671q0 228 -9 365h293q249 0 344 6v-102q-84 8 -344 8zM268 1716l262 -211h-116l-283 211h137z" />
    <glyph glyph-name="uni0401" unicode="&#x401;" horiz-adv-x="890" 
d="M440 1315h-176v-512h180q218 0 312 6v-102q-94 6 -312 6h-180v-623h193q253 0 344 6v-102q-91 6 -344 6h-310q9 254 9 367v671q0 228 -9 365h293q249 0 344 6v-102q-84 8 -344 8zM219 1593q0 27 20.5 46.5t47.5 19.5q28 0 47.5 -19t19.5 -47q0 -27 -20 -47t-47 -20
q-26 0 -47 20.5t-21 46.5zM578 1593q0 27 20.5 46.5t48.5 19.5t47 -19t19 -47q0 -27 -19.5 -47t-46.5 -20q-28 0 -48.5 20.5t-20.5 46.5z" />
    <glyph glyph-name="uni0402" unicode="&#x402;" horiz-adv-x="1361" 
d="M1165 377q0 74 -22.5 142t-65 123t-111.5 87.5t-155 32.5q-144 0 -248 -60v-340q0 -278 8 -362h-122q6 94 6 367v948h-127q-173 0 -295 -8v102q92 -6 295 -6h510q218 0 309 6v-102q-122 8 -313 8h-271v-522q38 24 107 42.5t151 18.5q114 0 203.5 -40.5t143 -108
t81 -150.5t27.5 -174q0 -115 -42.5 -215t-115.5 -172t-163 -122t-193 -79v103q64 19 120 47t109 70t91 93.5t60.5 121t22.5 149.5z" />
    <glyph glyph-name="uni0403" unicode="&#x403;" horiz-adv-x="884" 
d="M147 0q9 142 9 367v669q0 230 -9 367h381q148 0 306 10v-108q-252 8 -306 8h-264v-946q0 -178 6 -367h-123zM410 1505l260 211h137l-283 -211h-114z" />
    <glyph glyph-name="uni0404" unicode="&#x404;" horiz-adv-x="1312" 
d="M711 678h-508q2 -130 46.5 -241t123.5 -192t197 -127t261 -46q264 0 390 100v-127q-195 -68 -392 -68q-229 0 -397 93.5t-254 256.5t-86 375q0 209 86.5 372t255.5 258t395 95q32 0 63 -2t54 -3.5t53 -7t44.5 -8t45.5 -10.5t38.5 -10t41.5 -11.5t37 -10.5v-135
q-72 57 -163 79.5t-212 22.5q-139 0 -254.5 -42.5t-194 -118t-124 -178.5t-51.5 -224h504q275 0 370 6v-102q-95 6 -370 6z" />
    <glyph glyph-name="uni0405" unicode="&#x405;" horiz-adv-x="942" 
d="M252 1083q0 -59 25 -110t66 -87t93.5 -72.5t107.5 -67.5t107.5 -71t93.5 -83t66 -105t25 -135q0 -169 -109 -276t-297 -107q-64 0 -120.5 11t-116.5 29t-93 24v182q34 -65 131 -111.5t203 -46.5q134 0 210.5 79t76.5 206q0 60 -25 111t-66 87.5t-93 73t-107 67t-107 70.5
t-93 82.5t-66 104.5t-25 135q0 168 108 263.5t281 95.5q66 0 158.5 -27.5t120.5 -30.5v-178q-24 67 -103 108.5t-174 41.5q-127 0 -202.5 -69t-75.5 -194z" />
    <glyph glyph-name="uni0406" unicode="&#x406;" horiz-adv-x="440" 
d="M272 1036v-669q0 -225 9 -367h-123q8 126 8 367v669q0 245 -8 367h123q-9 -137 -9 -367z" />
    <glyph glyph-name="uni0407" unicode="&#x407;" horiz-adv-x="440" 
d="M272 1036v-669q0 -225 9 -367h-123q8 126 8 367v669q0 245 -8 367h123q-9 -137 -9 -367zM-29 1593q0 27 20.5 46.5t47.5 19.5q28 0 47.5 -19t19.5 -47q0 -27 -20 -47t-47 -20q-26 0 -47 20.5t-21 46.5zM330 1593q0 27 20.5 46.5t48.5 19.5t47 -19t19 -47q0 -27 -19.5 -47
t-46.5 -20q-28 0 -48.5 20.5t-20.5 46.5z" />
    <glyph glyph-name="uni0408" unicode="&#x408;" horiz-adv-x="434" 
d="M274 1036v-1034q0 -173 -90.5 -267.5t-230.5 -94.5q-26 0 -52.5 4.5t-56.5 11.5t-45 10v131q52 -65 150 -65q93 0 156 73.5t63 192.5v1038q0 245 -8 367h121q-7 -107 -7 -367z" />
    <glyph glyph-name="uni0409" unicode="&#x409;" horiz-adv-x="1705" 
d="M950 256l-372 971l-359 -973q-73 -192 -86 -254h-133q62 112 135 311l434 1139h33l223 -584h297q254 0 379 -109.5t125 -307.5q0 -192 -130 -320.5t-341 -128.5h-113q-15 54 -92 256zM1108 780h-248l273 -694h20q150 0 255 103t105 260q0 158 -98 244.5t-307 86.5z" />
    <glyph glyph-name="uni040A" unicode="&#x40a;" horiz-adv-x="1808" 
d="M260 1036v-231h727v231q0 224 -10 367h123q-8 -360 -8 -367v-172h135q234 0 368 -120.5t134 -309.5q0 -191 -134 -312.5t-366 -121.5h-252q10 95 10 297v418h-727v-420q0 -124 6 -295h-119q9 128 9 297v739q0 243 -9 367h119q-6 -165 -6 -367zM1092 772v-682h129
q186 0 291.5 93.5t105.5 248.5q0 152 -105.5 246t-291.5 94h-129z" />
    <glyph glyph-name="uni040B" unicode="&#x40b;" horiz-adv-x="1402" 
d="M1155 442q0 86 -23 150.5t-64 101.5t-91 54.5t-109 17.5q-155 0 -305 -94v-303q0 -243 8 -369h-127q13 136 13 367v948h-152q-150 0 -272 -8v104q122 -8 272 -8h529q203 0 325 8v-106q-79 10 -325 10h-271v-549q160 88 324 88q78 0 144 -22.5t119.5 -69t83.5 -126
t30 -185.5v-236q0 -141 6 -215h-121q6 94 6 442z" />
    <glyph glyph-name="uni040C" unicode="&#x40c;" horiz-adv-x="1085" 
d="M156 367v669q0 230 -9 367h123q-6 -183 -6 -367v-264h94q59 63 111.5 121t92.5 103t77.5 89t62.5 73.5t51 62.5t39.5 50.5t31.5 43l24 34t20.5 30t16.5 24.5h153q-26 -24 -83 -92t-193 -225.5t-311 -348.5q148 -172 277 -323.5t183.5 -217t99 -116.5t74.5 -80h-167
q-37 56 -71 101.5t-157 193t-336 393.5h-90v-321q0 -178 6 -367h-123q9 142 9 367zM434 1505l260 211h137l-282 -211h-115z" />
    <glyph glyph-name="uni040D" unicode="&#x40d;" horiz-adv-x="1406" 
d="M1145 295v895l-752 -948q-132 -163 -219 -285h-29q11 164 11 307v772q0 120 -11 367h127q-8 -172 -8 -367v-821l750 944q135 167 217 289h29q-9 -254 -9 -406v-745q0 -169 9 -297h-121q6 86 6 295zM541 1716l262 -211h-117l-283 211h138z" />
    <glyph glyph-name="uni040E" unicode="&#x40e;" horiz-adv-x="1161" 
d="M219 1241l385 -706l359 714q55 123 63 154h135q-58 -99 -108 -193l-529 -1042q-10 -24 -27 -61t-27 -60.5t-17 -46.5h-136q59 94 99 170l131 252l-424 772q-8 13 -53 90.5t-70 118.5h139q20 -55 80 -162zM369 1720q11 -80 73.5 -132t157.5 -52t157 52t70 132h95
q-11 -110 -99 -183t-223 -73q-134 0 -223.5 73t-100.5 183h93z" />
    <glyph glyph-name="uni040F" unicode="&#x40f;" horiz-adv-x="1261" 
d="M999 88v942q0 241 -8 373h125q-10 -113 -10 -375v-772q0 -163 8 -256h-424l-16 -362h-99l3 362h-428q6 228 6 360v676q0 255 -11 367h127q-8 -122 -8 -367v-948h735z" />
    <glyph glyph-name="uni0410" unicode="&#x410;" horiz-adv-x="1267" 
d="M1268 0h-142q-34 99 -102 258l-121 287h-557l-117 -285q-81 -195 -98 -260h-131q62 115 143 311l471 1119h33l473 -1119q79 -182 148 -311zM866 633l-241 592l-242 -592h483z" />
    <glyph glyph-name="uni0411" unicode="&#x411;" horiz-adv-x="987" 
d="M147 1403h299q187 0 322 6v-94q-127 6 -322 6h-182v-481h178q197 0 321 -120t124 -300q0 -181 -124.5 -300.5t-324.5 -119.5h-293q11 116 11 367v667q0 255 -9 369zM264 758v-676h166q153 0 250.5 98.5t97.5 237.5t-98.5 239.5t-249.5 100.5h-166z" />
    <glyph glyph-name="uni0412" unicode="&#x412;" 
d="M147 0q11 116 11 367v653q0 302 -8 383h249q168 0 269.5 -94t101.5 -234q0 -101 -53 -177.5t-121 -100.5q136 -38 213.5 -142.5t77.5 -244.5q0 -176 -128 -293t-329 -117h-283zM776 410q0 148 -92 238.5t-235 90.5h-185v-649h160q153 0 252.5 90.5t99.5 229.5zM264 1317
v-496h180q92 0 155 71.5t63 174.5q0 107 -77 178.5t-194 71.5h-127z" />
    <glyph glyph-name="uni0413" unicode="&#x413;" horiz-adv-x="884" 
d="M147 0q9 142 9 367v669q0 230 -9 367h381q148 0 306 10v-108q-252 8 -306 8h-264v-946q0 -178 6 -367h-123z" />
    <glyph glyph-name="uni0414" unicode="&#x414;" horiz-adv-x="1435" 
d="M1403 94l-35 -456h-96l20 362h-1147l2 -362h-92l-18 456q27 -4 121 -4q9 18 94 215l457 1145h20l453 -1145q70 -166 94 -215q96 0 127 4zM1149 90l-434 1145l-441 -1145h875z" />
    <glyph glyph-name="uni0415" unicode="&#x415;" horiz-adv-x="890" 
d="M440 1315h-176v-512h180q218 0 312 6v-102q-94 6 -312 6h-180v-623h193q253 0 344 6v-102q-91 6 -344 6h-310q9 254 9 367v671q0 228 -9 365h293q249 0 344 6v-102q-84 8 -344 8z" />
    <glyph glyph-name="uni0416" unicode="&#x416;" horiz-adv-x="1710" 
d="M799 367v319h-101q-197 -230 -342.5 -416t-201.5 -270h-154q39 39 127 147t230 286t247 304q-128 153 -267 322t-200.5 242t-91.5 102h150q146 -217 512 -637h92v270q0 276 -6 367h120q-8 -122 -8 -367v-270h101q75 84 143 163.5t112.5 133t93.5 117t68.5 90t57 77.5
t41.5 56h145q-51 -52 -132 -148.5t-204.5 -246.5t-224.5 -267q145 -173 278.5 -342t205 -259.5t120.5 -139.5h-160q-6 8 -42 58.5t-52 72.5t-56 75.5t-74 96.5t-83 105t-107 131.5t-124 146.5h-107v-319q0 -241 8 -367h-120q6 94 6 367z" />
    <glyph glyph-name="uni0417" unicode="&#x417;" horiz-adv-x="966" 
d="M410 684q-92 0 -160 -10v108q31 -10 162 -10q127 0 217 79t90 212q0 116 -82.5 190t-212.5 74q-77 0 -153 -25.5t-134 -70.5v125q18 3 112 33t181 30q183 0 291 -98t108 -254q0 -126 -73 -215t-181 -119q125 -32 205 -125.5t80 -228.5q0 -171 -113 -282t-317 -111
q-67 0 -126.5 12t-94 26t-73 30.5t-62.5 21.5v139h2q56 -58 154 -97.5t190 -39.5q157 0 243.5 86t86.5 217q0 94 -49 164.5t-125 104.5t-166 34z" />
    <glyph glyph-name="uni0418" unicode="&#x418;" horiz-adv-x="1406" 
d="M1145 295v895l-752 -948q-132 -163 -219 -285h-29q11 164 11 307v772q0 120 -11 367h127q-8 -172 -8 -367v-821l750 944q135 167 217 289h29q-9 -254 -9 -406v-745q0 -169 9 -297h-121q6 86 6 295z" />
    <glyph glyph-name="uni0419" unicode="&#x419;" horiz-adv-x="1406" 
d="M1145 295v895l-752 -948q-132 -163 -219 -285h-29q11 164 11 307v772q0 120 -11 367h127q-8 -172 -8 -367v-821l750 944q135 167 217 289h29q-9 -254 -9 -406v-745q0 -169 9 -297h-121q6 86 6 295zM483 1720q11 -80 74 -132t158 -52t157 52t70 132h94
q-11 -110 -98.5 -183t-222.5 -73q-134 0 -223.5 73t-100.5 183h92z" />
    <glyph glyph-name="uni041A" unicode="&#x41a;" horiz-adv-x="1085" 
d="M156 367v669q0 230 -9 367h123q-6 -183 -6 -367v-264h94q59 63 111.5 121t92.5 103t77.5 89t62.5 73.5t51 62.5t39.5 50.5t31.5 43l24 34t20.5 30t16.5 24.5h153q-26 -24 -83 -92t-193 -225.5t-311 -348.5q148 -172 277 -323.5t183.5 -217t99 -116.5t74.5 -80h-167
q-37 56 -71 101.5t-157 193t-336 393.5h-90v-321q0 -178 6 -367h-123q9 142 9 367z" />
    <glyph glyph-name="uni041B" unicode="&#x41b;" horiz-adv-x="1280" 
d="M1032 256q-52 126 -401 958q-215 -501 -400 -962q-60 -146 -94 -252h-137q63 106 145 311l480 1139h18l485 -1139q101 -229 152 -311h-147q-18 58 -101 256z" />
    <glyph glyph-name="uni041C" unicode="&#x41c;" horiz-adv-x="1642" 
d="M1405 1432l104 -1115q17 -178 43 -317h-131q0 93 -16 293l-74 860l-497 -1176h-25l-492 1174l-96 -829q-24 -226 -26 -322h-121q35 219 53 371l133 1061h29l538 -1254l543 1254h35z" />
    <glyph glyph-name="uni041D" unicode="&#x41d;" horiz-adv-x="1370" 
d="M264 1036v-231h842v231q0 281 -6 367h121q-7 -157 -7 -367v-741q0 -195 7 -295h-121q6 86 6 297v418h-842v-420q0 -209 6 -295h-118q6 86 6 297v739q0 284 -6 367h118q-6 -83 -6 -367z" />
    <glyph glyph-name="uni041E" unicode="&#x41e;" horiz-adv-x="1611" 
d="M92 702q0 147 56.5 281t151.5 231.5t227.5 155t277.5 57.5q146 0 279 -57.5t229 -155t152.5 -231.5t56.5 -281t-56.5 -281t-152.5 -231.5t-229 -155t-279 -57.5q-145 0 -277.5 57.5t-227.5 155t-151.5 231.5t-56.5 281zM203 702q0 -172 80.5 -317.5t219.5 -230t302 -84.5
q164 0 303.5 84.5t221 230t81.5 317.5q0 128 -48 245t-129.5 201.5t-193.5 134.5t-235 50q-122 0 -233.5 -50t-192.5 -134.5t-128.5 -201.5t-47.5 -245z" />
    <glyph glyph-name="uni041F" unicode="&#x41f;" horiz-adv-x="1286" 
d="M150 1403h985q-7 -77 -7 -256v-772q0 -247 11 -375h-123q6 99 6 371v942h-758v-946q0 -273 6 -367h-120q8 126 8 367v677q0 207 -8 359z" />
    <glyph glyph-name="uni0420" unicode="&#x420;" horiz-adv-x="919" 
d="M264 573v-206q0 -273 6 -367h-120q8 84 8 367v720q0 235 -8 316h258q202 0 323 -117.5t121 -296.5q0 -176 -128.5 -296t-322.5 -120h-137zM264 1319v-662h135q146 0 244 101t98 233q0 139 -93 233.5t-251 94.5h-133z" />
    <glyph glyph-name="uni0421" unicode="&#x421;" horiz-adv-x="1286" 
d="M203 702q0 -171 86 -316t234 -229.5t323 -84.5q251 0 385 114v-131q-210 -78 -391 -78q-154 0 -293 57.5t-238.5 155t-158 231.5t-58.5 281t58.5 281t158 231.5t238.5 155t293 57.5q24 0 48 -1.5t42.5 -2.5t43 -5t38 -6t39 -8.5t34 -8t35.5 -9.5t32 -9.5t34 -10.5t31 -10
v-133q-135 108 -371 108q-175 0 -323 -84t-234 -229t-86 -316z" />
    <glyph glyph-name="uni0422" unicode="&#x422;" horiz-adv-x="1239" 
d="M393 1403h449q256 0 350 6v-102q-126 8 -350 8h-166q-2 -76 -2 -264v-684q0 -304 6 -367h-121q6 94 6 367v684q0 150 -6 264h-166q-220 0 -346 -8v102q95 -6 346 -6z" />
    <glyph glyph-name="uni0423" unicode="&#x423;" horiz-adv-x="1161" 
d="M219 1241l385 -706l359 714q55 123 63 154h135q-58 -99 -108 -193l-529 -1042q-10 -24 -27 -61t-27 -60.5t-17 -46.5h-136q59 94 99 170l131 252l-424 772q-8 13 -53 90.5t-70 118.5h139q20 -55 80 -162z" />
    <glyph glyph-name="uni0424" unicode="&#x424;" horiz-adv-x="1474" 
d="M84 713q0 125 46 228.5t126.5 173.5t189.5 110.5t236 46.5q0 79 -6 184h119q-7 -122 -7 -184q171 -7 306 -73.5t216 -192.5t81 -293t-81 -293t-216 -192.5t-306 -73.5q0 -41 3.5 -115t3.5 -90h-119q1 24 2.5 65t2.5 75t1 65q-171 7 -305 74t-213.5 192.5t-79.5 292.5z
M1286 713q0 139 -68 245t-179.5 161.5t-250.5 60.5v-934q139 4 250.5 59t179.5 161.5t68 246.5zM190 713q0 -139 67 -244.5t177 -161t248 -61.5v934q-138 -6 -248 -62t-177 -161.5t-67 -243.5z" />
    <glyph glyph-name="uni0425" unicode="&#x425;" horiz-adv-x="995" 
d="M700 262l-204 350l-226 -376q-85 -153 -127 -236h-141q90 122 193 289l245 411l-239 400q-95 165 -199 303h148q73 -137 143 -250l207 -352l209 352q33 58 81.5 145.5t57.5 104.5h141q-68 -87 -198 -301l-236 -391l240 -404q108 -178 202 -307h-145q-11 19 -63.5 110.5
t-88.5 151.5z" />
    <glyph glyph-name="uni0426" unicode="&#x426;" horiz-adv-x="1263" 
d="M1188 90l-27 -452h-96l10 362h-928q9 171 9 360v676q0 199 -11 367h127q-8 -122 -8 -367v-948h719v942q0 285 -8 373h125q-10 -113 -10 -375v-772q0 -113 2 -166h96z" />
    <glyph glyph-name="uni0427" unicode="&#x427;" horiz-adv-x="1138" 
d="M221 999q0 -158 91 -241.5t231 -83.5q193 0 331 76v438q0 144 -6 215h119q-6 -71 -6 -215v-973q0 -121 8 -215h-121q6 74 6 215v442q-161 -75 -348 -75q-183 0 -297 101.5t-114 301.5v203q0 144 -6 215h116q-4 -94 -4 -215v-189z" />
    <glyph glyph-name="uni0428" unicode="&#x428;" horiz-adv-x="1699" 
d="M1550 0h-1403q9 159 9 334v694q0 250 -11 375h121q-8 -88 -8 -371v-946h543v942q0 262 -10 375h118q-6 -66 -6 -371v-946h537v950q0 123 -8 367h120q-10 -153 -10 -367v-676q0 -126 8 -360z" />
    <glyph glyph-name="uni0429" unicode="&#x429;" horiz-adv-x="1699" 
d="M1630 90l-24 -424h-93l5 334h-1368q6 106 6 334v694q0 273 -9 375h119q-8 -132 -8 -371v-942h533v938q0 256 -7 375h115q-6 -66 -6 -371v-942h530v946q0 245 -8 367h121q-10 -153 -10 -367v-676q0 -182 4 -270h100z" />
    <glyph glyph-name="uni042A" unicode="&#x42a;" horiz-adv-x="1226" 
d="M309 1403h207q-6 -61 -6 -367v-131h162q214 0 337.5 -129t123.5 -325q0 -124 -57.5 -226.5t-163.5 -163.5t-240 -61h-279q10 105 10 367v667q0 121 -4 281h-90q-195 0 -276 -8v102q92 -6 276 -6zM510 813v-723h152q153 0 255.5 105.5t102.5 255.5q0 155 -98 258.5
t-260 103.5h-152z" />
    <glyph glyph-name="uni042B" unicode="&#x42b;" horiz-adv-x="1296" 
d="M147 1403h121q-8 -122 -8 -367v-131h160q214 0 336.5 -129t122.5 -325q0 -190 -128 -320.5t-333 -130.5h-273q11 116 11 367v667q0 232 -9 369zM260 813v-723h148q153 0 256.5 105.5t103.5 255.5q0 155 -98.5 258.5t-261.5 103.5h-148zM1141 1036v-669q0 -273 6 -367
h-117q6 63 6 367v669q0 306 -6 367h117q-6 -91 -6 -367z" />
    <glyph glyph-name="uni042C" unicode="&#x42c;" horiz-adv-x="1007" 
d="M147 1403h123q-6 -91 -6 -367v-131h191q214 0 336 -129t122 -325q0 -191 -127 -321t-333 -130h-308q11 116 11 367v667q0 232 -9 369zM264 813v-723h178q152 0 255.5 106t103.5 255q0 155 -98.5 258.5t-260.5 103.5h-178z" />
    <glyph glyph-name="uni042D" unicode="&#x42d;" horiz-adv-x="1302" 
d="M1096 676h-494q-262 0 -354 -6v106q91 -6 354 -6h494q-7 113 -56.5 215.5t-128.5 177.5t-190 119.5t-236 44.5q-233 0 -370 -110v126q196 76 374 76q211 0 376 -97t253 -260t88 -360q0 -199 -88 -361.5t-253 -258.5t-376 -96q-175 0 -389 77v130q143 -115 385 -115
q171 0 311 81.5t218.5 218t81.5 298.5z" />
    <glyph glyph-name="uni042E" unicode="&#x42e;" horiz-adv-x="1908" 
d="M264 1036v-293h225q10 186 98.5 340.5t236.5 245t323 90.5q182 0 335 -96.5t240.5 -261t87.5 -359.5q0 -146 -52 -278t-140 -228.5t-211 -153t-260 -56.5q-174 0 -320.5 88.5t-235 241t-99.5 337.5h-228v-286q0 -178 6 -367h-123q9 142 9 367v669q0 230 -9 367h123
q-6 -183 -6 -367zM598 702q0 -127 43 -242t116.5 -198.5t175.5 -132.5t214 -49q114 0 216.5 49t176 132.5t117 198.5t43.5 242q0 128 -43.5 243t-117 198.5t-176 132.5t-216.5 49q-150 0 -276.5 -83t-199.5 -226.5t-73 -313.5z" />
    <glyph glyph-name="uni042F" unicode="&#x42f;" horiz-adv-x="1028" 
d="M766 350v254h-131q-65 0 -100 4q-70 -102 -207 -319.5t-187 -288.5h-141q74 83 228.5 322t203.5 307q-45 14 -87.5 40t-86 69.5t-70 113t-26.5 154.5q0 177 117.5 287t328.5 110h275q-11 -112 -11 -367v-686q0 -234 11 -350h-127q10 79 10 350zM766 688v629h-160
q-107 0 -185 -45t-114.5 -114t-36.5 -152q0 -141 94.5 -229.5t235.5 -88.5h166z" />
    <glyph glyph-name="uni0430" unicode="&#x430;" horiz-adv-x="872" 
d="M373 836q-144 0 -226 -93v117q16 4 55.5 20t86.5 28t100 12q166 0 249 -97t83 -301v-385q0 -76 51 -76q25 0 43 11v-70q-38 -25 -90 -25q-40 0 -67.5 27.5t-30.5 83.5q-35 -52 -99.5 -81.5t-138.5 -29.5q-142 0 -223.5 73.5t-81.5 187.5q0 113 82.5 188.5t226.5 75.5
q75 0 140 -30t90 -75v140q0 136 -58.5 217.5t-191.5 81.5zM188 242q0 -81 59 -134t163 -53q91 0 155 54.5t64 132.5q0 75 -64.5 129.5t-154.5 54.5q-103 0 -162.5 -53t-59.5 -131z" />
    <glyph glyph-name="uni0431" unicode="&#x431;" horiz-adv-x="1054" 
d="M952 1434v-105q-41 -12 -94.5 -24t-128.5 -27t-121 -25q-207 -47 -315.5 -198t-118.5 -439q33 116 132 188.5t235 72.5q180 0 305 -125.5t125 -305.5q0 -192 -121.5 -326t-298.5 -134q-66 0 -125 14t-122.5 55.5t-109 106.5t-75 176.5t-29.5 257.5q0 303 128 496t380 258
q51 14 175.5 40t178.5 44zM199 459q0 -157 103 -270t247 -113q132 0 226.5 107.5t94.5 260.5q0 141 -99 240.5t-239 99.5q-137 0 -235 -96t-98 -229z" />
    <glyph glyph-name="uni0432" unicode="&#x432;" horiz-adv-x="847" 
d="M438 0h-291q7 72 7 233v412q0 134 -2 191h-93q37 33 54 69h331q138 0 210.5 -59.5t72.5 -161.5q0 -73 -41 -122t-98 -66q86 -28 128 -90t42 -144q0 -121 -87 -191.5t-233 -70.5zM653 264q0 78 -50.5 129t-127.5 51h-223v-368h182q98 0 158.5 51.5t60.5 136.5zM252 829
v-313h205q60 0 114 46.5t54 113.5q0 70 -47 111.5t-140 41.5h-186z" />
    <glyph glyph-name="uni0433" unicode="&#x433;" horiz-adv-x="688" 
d="M145 0q9 142 9 328v215q0 157 -7 293h-88q37 33 54 69h280q201 0 264 6v-100q-95 6 -264 6h-137v-489q0 -202 8 -328h-119z" />
    <glyph glyph-name="uni0434" unicode="&#x434;" horiz-adv-x="1087" 
d="M1036 88l-26 -385h-88l16 297h-786l6 -297h-90l-15 385q49 -6 115 -6l311 760q11 27 2 63h97l342 -823q82 0 116 6zM807 82l-272 684l-273 -684h545z" />
    <glyph glyph-name="uni0435" unicode="&#x435;" horiz-adv-x="997" 
d="M913 489h-723q-9 -107 33 -203t128 -156t194 -60q95 0 161.5 17.5t133.5 66.5v-115q-23 -3 -65.5 -17.5t-102.5 -26t-140 -11.5q-193 0 -320.5 134t-127.5 331q0 205 121.5 337t300.5 132q82 0 152.5 -29.5t116 -75t78.5 -101.5t47.5 -107.5t14.5 -94.5q0 -4 -1 -11.5
t-1 -9.5zM506 838q-112 0 -195 -77t-112 -194h604q-10 101 -93.5 186t-203.5 85z" />
    <glyph glyph-name="uni0436" unicode="&#x436;" horiz-adv-x="1185" 
d="M260 770l195 -268h90v160q0 54 -1 141.5t-1 101.5h106q-6 -123 -6 -243v-160h92l197 274q31 38 88 129h119v-2q-56 -56 -142 -174l-188 -264l219 -287q87 -112 158 -178h-142q-27 50 -90 131l-221 299h-90v-186q0 -182 6 -244h-106q2 43 2 244v186h-86l-234 -305
q-65 -83 -88 -125h-137q67 60 147 166l232 299l-186 256q-98 133 -154 184h129q35 -69 92 -135z" />
    <glyph glyph-name="uni0437" unicode="&#x437;" horiz-adv-x="782" 
d="M334 432q-89 0 -135 -8v94q33 -8 129 -8q104 0 169.5 44t65.5 124q0 70 -56 117t-157 47q-79 0 -141.5 -26t-95.5 -62v108q17 2 48 17t80.5 28t118.5 13q139 0 222.5 -69t83.5 -173q0 -75 -46.5 -127.5t-119.5 -79.5q79 -28 133.5 -82.5t54.5 -140.5q0 -120 -86.5 -192
t-228.5 -72q-67 0 -121.5 12.5t-110.5 36.5t-63 26v105h4q45 -42 115.5 -70t158.5 -28q106 0 168 53t62 135q0 81 -66.5 129.5t-185.5 48.5z" />
    <glyph glyph-name="uni0438" unicode="&#x438;" horiz-adv-x="985" 
d="M743 193v509l-399 -526q-117 -153 -158 -211h-39q7 91 7 199v502q0 115 -2 170h-86q35 32 53 69h137q-6 -86 -6 -239v-496l405 528q81 105 158 224h33q-6 -108 -6 -252v-475q0 -139 6 -195h-107q4 74 4 193z" />
    <glyph glyph-name="uni0439" unicode="&#x439;" horiz-adv-x="985" 
d="M743 193v509l-399 -526q-117 -153 -158 -211h-39q7 91 7 199v502q0 115 -2 170h-86q35 32 53 69h137q-6 -86 -6 -239v-496l405 528q81 105 158 224h33q-6 -108 -6 -252v-475q0 -139 6 -195h-107q4 74 4 193zM330 1253q0 -64 52 -108.5t126 -44.5t127 44.5t53 108.5h84
q0 -95 -77.5 -161t-186.5 -66t-185.5 66t-76.5 161h84z" />
    <glyph glyph-name="uni043A" unicode="&#x43a;" horiz-adv-x="813" 
d="M154 244v418q0 123 -2 174h-93q37 33 54 69h149q-6 -123 -6 -243v-160h41l238 274q67 67 106 129h131q-69 -59 -168 -174l-223 -260l264 -299q84 -97 168 -172h-143q-53 68 -105 125l-272 305h-37v-186q0 -182 6 -244h-112q4 43 4 244z" />
    <glyph glyph-name="uni043B" unicode="&#x43b;" horiz-adv-x="866" 
d="M676 164l-252 594l-246 -594q-39 -94 -59 -164h-119q40 67 92 199l270 630q17 42 7 76h92l307 -706q7 -16 23.5 -52.5t25.5 -56.5t23 -46t26 -44h-129q-22 75 -61 164z" />
    <glyph glyph-name="uni043C" unicode="&#x43c;" horiz-adv-x="1175" 
d="M926 918h55l72 -676q15 -178 28 -242h-110q-7 130 -17 223l-45 473l-307 -710h-31l-309 712l-55 -471q-21 -190 -23 -227h-106q19 94 39 242l88 676h55l332 -768z" />
    <glyph glyph-name="uni043D" unicode="&#x43d;" horiz-adv-x="991" 
d="M252 670v-142h496v142q0 139 -7 235h111q-6 -171 -6 -235v-480q0 -79 6 -190h-111q7 65 7 190v263h-496v-263q0 -116 4 -190h-109q7 130 7 190v480q0 68 -4 166h-91q37 33 54 69h143q0 -12 -2 -97t-2 -138z" />
    <glyph glyph-name="uni043E" unicode="&#x43e;" horiz-adv-x="1089" 
d="M84 453q0 193 135 330t324 137q126 0 232.5 -62.5t168.5 -170t62 -234.5t-62 -234.5t-168.5 -170t-232.5 -62.5q-189 0 -324 137t-135 330zM184 453q0 -157 105 -267t254 -110q150 0 256 110.5t106 266.5t-106 266t-256 110q-149 0 -254 -110.5t-105 -265.5z" />
    <glyph glyph-name="uni043F" unicode="&#x43f;" horiz-adv-x="964" 
d="M154 641q0 16 -1 86.5t-1 108.5h-93q37 33 54 69h718q-4 -43 -4 -200v-463q0 -199 4 -242h-108v242v577h-467v-579q0 -201 4 -240h-110q0 13 2 99.5t2 140.5v401z" />
    <glyph glyph-name="uni0440" unicode="&#x440;" horiz-adv-x="1146" 
d="M154 -311v1147h-93q27 27 54 69h141v-217q54 107 148 169.5t210 62.5q123 0 226.5 -63t163 -170.5t59.5 -233.5q0 -195 -131 -331t-318 -136q-118 0 -214 57.5t-144 163.5v-518q0 -132 8 -213h-119q9 92 9 213zM250 453q0 -157 103 -268t249 -111q148 0 252 110t104 267
q0 158 -105.5 269t-254.5 111q-143 0 -245.5 -111t-102.5 -267z" />
    <glyph glyph-name="uni0441" unicode="&#x441;" horiz-adv-x="841" 
d="M186 451q0 -155 104.5 -265t252.5 -110q78 0 127 12.5t90 44.5v-121q-19 -3 -63 -10.5t-79.5 -11.5t-78.5 -4q-190 0 -322.5 135.5t-132.5 329.5q0 195 132.5 332t322.5 137q54 0 122.5 -12t94.5 -13v-125q-82 59 -213 59q-149 0 -253 -111t-104 -267z" />
    <glyph glyph-name="uni0442" unicode="&#x442;" horiz-adv-x="796" 
d="M242 905h315q125 0 207 4v-94q-82 4 -207 4h-108v-579q0 -182 6 -240h-115q6 117 6 240v579h-104q-131 0 -209 -4v94q78 -4 209 -4z" />
    <glyph glyph-name="uni0443" unicode="&#x443;" horiz-adv-x="874" 
d="M178 -424q-38 -61 -73 -86t-82 -25q-21 0 -33 5q65 87 125 178q195 301 293 481l-291 565q-74 141 -115 211h131q13 -39 72 -164l258 -497q147 305 219 481q33 77 70 180h122q-15 -26 -33 -64.5t-40.5 -89.5t-28.5 -65q-160 -368 -272 -571q-77 -147 -322 -539z" />
    <glyph glyph-name="uni0444" unicode="&#x444;" horiz-adv-x="1243" 
d="M571 -213v203q-227 13 -357 142t-130 321q0 191 130.5 321.5t356.5 143.5v327h-92q11 13 29 38t24 32h146q-6 -58 -6 -168v-229q226 -13 357.5 -143.5t131.5 -321.5q0 -193 -131.5 -322t-357.5 -141v-203q0 -145 6 -213h-113q6 67 6 213zM1059 453q0 158 -101.5 264
t-285.5 119v-770q184 13 285.5 120t101.5 267zM186 453q0 -158 101 -264t284 -121v768q-183 -15 -284 -121t-101 -262z" />
    <glyph glyph-name="uni0445" unicode="&#x445;" horiz-adv-x="724" 
d="M522 123l-160 252l-102 -160q-90 -143 -125 -215h-129q55 71 148 217l151 234l-149 239q-62 104 -142 215h131q30 -67 95 -170l127 -207l129 207q75 124 96 170h125q-66 -86 -148 -215l-147 -237l149 -234q70 -115 150 -219h-129q-28 58 -70 123z" />
    <glyph glyph-name="uni0446" unicode="&#x446;" horiz-adv-x="987" 
d="M813 -297l4 297h-670q7 75 7 186v650h-93q37 33 54 69h143q-2 -22 -2 -241v-578h463v582q0 196 -4 237h110q-4 -82 -4 -237v-586h94l-18 -379h-84z" />
    <glyph glyph-name="uni0447" unicode="&#x447;" horiz-adv-x="851" 
d="M201 643q0 -101 53.5 -156t151.5 -55q99 0 196 43v234q0 98 -4 196h113q-6 -73 -6 -196v-473q0 -168 8 -236h-115q4 98 4 231v162q-112 -47 -223 -47q-133 0 -207 73.5t-74 209.5v88q0 80 -2 119h-90q35 32 53 69h146q-4 -68 -4 -188v-74z" />
    <glyph glyph-name="uni0448" unicode="&#x448;" horiz-adv-x="1280" 
d="M1141 0h-991q4 68 4 248v420q0 54 -4 168h-91q37 33 54 69h145q-4 -78 -4 -239v-584h340v584q0 196 -4 239h108q-2 -45 -2 -239v-584h340v588q0 176 -6 235h111q-4 -78 -4 -235v-406q0 -188 4 -264z" />
    <glyph glyph-name="uni0449" unicode="&#x449;" horiz-adv-x="1300" 
d="M1130 -297l5 297h-985q4 68 4 248v420q0 54 -4 168h-91q37 33 54 69h145q-4 -78 -4 -239v-584h340v584q0 196 -4 239h108q-2 -45 -2 -239v-584h340v588q0 176 -6 235h111q-4 -78 -4 -235v-406v-182h96l-19 -379h-84z" />
    <glyph glyph-name="uni044A" unicode="&#x44a;" horiz-adv-x="923" 
d="M539 0h-265q7 72 7 233v426v158q-84 0 -248 -4v96q192 -4 291 -4h65q-6 -114 -6 -246v-57h152q150 0 237.5 -87.5t87.5 -215.5q0 -127 -85.5 -213t-235.5 -86zM756 297q0 96 -61.5 162.5t-174.5 66.5h-137v-450h149q107 0 165.5 63.5t58.5 157.5z" />
    <glyph glyph-name="uni044B" unicode="&#x44b;" horiz-adv-x="1050" 
d="M369 0h-230q6 62 6 233v426q0 170 -4 246h109q-6 -123 -6 -246v-57h123q150 0 238.5 -87t88.5 -216q0 -128 -87 -213.5t-238 -85.5zM590 299q0 92 -62.5 159.5t-171.5 67.5h-112v-450h118q109 0 168.5 64.5t59.5 158.5zM905 692v-479q0 -151 6 -213h-110q6 68 6 213v479
q0 142 -6 213h110q-6 -71 -6 -213z" />
    </font>
</defs>
</svg>
