<?xml version="1.0" standalone="no"?>
<!DOCTYPE svg PUBLIC "-//W3C//DTD SVG 1.1//EN" "http://www.w3.org/Graphics/SVG/1.1/DTD/svg11.dtd" >
<svg xmlns="http://www.w3.org/2000/svg" xmlns:xlink="http://www.w3.org/1999/xlink" version="1.1">
<metadata>
Created by FontForge 20170731 at Fri Dec 17 20:21:15 2021
 By Aleksey,,,
(c) 2007 Adobe Systems Incorporated. All Rights Reserved.
</metadata>
<defs>
<font id="HypatiaSansPro-Regular" horiz-adv-x="1046" >
  <font-face 
    font-family="Hypatia Sans Pro"
    font-weight="400"
    font-stretch="normal"
    units-per-em="2048"
    panose-1="2 11 5 2 2 2 4 2 3 3"
    ascent="1503"
    descent="-545"
    x-height="920"
    cap-height="1403"
    bbox="-360 -547 3752 2073"
    underline-thickness="94"
    underline-position="-284"
    unicode-range="U+0020-FB06"
  />
<missing-glyph horiz-adv-x="946" 
d="M0 0v1325h946v-1325h-946zM152 94h643l-322 484zM530 664l322 -484v967zM94 1147v-967l322 484zM152 1231l321 -483l322 483h-643z" />
    <glyph glyph-name="f_f" unicode="ff" horiz-adv-x="1122" 
d="M586 1485q136 0 231 -68q34 41 95 72t137 31q40 0 98.5 -9t69.5 -10v-162q-47 50 -140 50q-88 0 -141 -67.5t-53 -197.5v-204h202v-119h-202v-590q0 -113 4 -211h-166q4 98 4 211v590h-367v-590q0 -113 4 -211h-165q4 98 4 211v590h-158v119h158v133q0 200 107.5 316
t277.5 116zM358 1055v-135h367v192q0 98 27 182q-58 58 -156 58q-110 0 -174 -80.5t-64 -216.5z" />
    <glyph glyph-name="f_f_i" unicode="ffi" horiz-adv-x="1540" 
d="M1401 696v-485q0 -149 6 -211h-170q4 45 4 211v584h-358v-584q0 -113 4 -211h-166q4 98 4 211v584h-367v-584q0 -113 4 -211h-165q4 98 4 211v584h-160v125h160v108q0 97 22 175.5t59 130t87.5 86.5t105.5 50t115 15q152 0 252 -82q42 49 113.5 83t166.5 34
q61 0 106 -10.5t82 -26t54 -19.5v-176q-49 56 -103 81.5t-133 25.5q-110 0 -177.5 -81t-67.5 -237v-157h524q-6 -70 -6 -224zM358 920h367v161q0 113 41 209q-64 68 -174 68q-99 0 -166.5 -76.5t-67.5 -230.5v-131z" />
    <glyph glyph-name="f_f_l" unicode="ffl" horiz-adv-x="1548" 
d="M1120 1391q-107 0 -172 -76t-65 -234v-161h200v-125h-200v-584q0 -113 4 -211h-166q4 98 4 211v584h-367v-584q0 -113 4 -211h-165q4 98 4 211v584h-158v125h158v124q0 108 32 193.5t86.5 139t124.5 81t150 27.5q149 0 250 -80q105 113 286 113q66 0 119 -13.5t90.5 -27
t67.5 -13.5h6q-6 -68 -6 -225v-1028q0 -149 6 -211h-168q4 45 4 211v1141q-49 39 -129 39zM358 920h367v155q0 124 43 215q-65 68 -170 68q-107 0 -173.5 -77t-66.5 -224v-137z" />
    <glyph glyph-name="longs_t" unicode="&#x17f;t" horiz-adv-x="1189" 
d="M586 920h145v143q0 317 -180 317q-193 0 -193 -321v-844q0 -166 4 -215h-165q4 98 4 215v573h-158v132h158v145q0 213 88.5 332t265.5 119q163 0 248.5 -120.5t85.5 -330.5v-145h256v-132h-256v-471q0 -102 39.5 -151t105.5 -49q55 0 82 24v-147q-14 0 -54 -5t-63 -5
q-129 0 -198.5 84.5t-69.5 230.5v489h-145v132z" />
    <glyph glyph-name="T_h" unicode="Th" horiz-adv-x="2052" 
d="M1761 211v324q0 126 -57 198t-160 72q-106 0 -160.5 -74t-54.5 -196v-324q0 -135 6 -211h-172q6 76 6 211v1055h-452v-899q0 -283 8 -367h-186q10 158 10 367v634q0 151 -6 265h-142q-179 0 -352 -11v156q126 -8 352 -8h934q-6 -71 -6 -211v-406q36 72 106 111t154 39
q165 0 249.5 -110t84.5 -296v-319q0 -160 4 -211h-170q4 102 4 211z" />
    <glyph glyph-name="f_b" unicode="fb" horiz-adv-x="1753" 
d="M883 1253v-518q43 94 137 147.5t203 53.5q128 0 232 -63t162 -170.5t58 -237.5q0 -204 -133 -341.5t-330 -137.5q-101 0 -193 51.5t-136 142.5q0 -124 6 -180h-166v1352q-59 39 -121 39q-126 0 -185 -84.5t-59 -225.5v-161h199v-125h-199v-584q0 -113 4 -211h-165
q4 98 4 211v584h-158v125h158v145q0 116 32.5 205.5t89 142.5t125.5 79t148 26q75 0 126.5 -13t89 -26t77.5 -13q-6 -70 -6 -213zM874 461q0 -140 94.5 -240t225.5 -100q132 0 224.5 99.5t92.5 240.5q0 139 -95 239.5t-226 100.5t-223.5 -100t-92.5 -240z" />
    <glyph glyph-name="f_f_b" unicode="ffb" horiz-adv-x="2279" 
d="M1120 1391q-104 0 -170.5 -77t-66.5 -227v-167h200v-125h-200v-584q0 -113 4 -211h-166q4 98 4 211v584h-367v-584q0 -113 4 -211h-165q4 98 4 211v584h-158v125h158v127q0 205 111 321.5t276 116.5q155 0 256 -80q41 49 117.5 81t171.5 32q78 0 165 -27t109 -27h6
q-6 -92 -6 -188v-541q45 94 139 147.5t203 53.5q128 0 232 -63t162.5 -170.5t58.5 -237.5q0 -204 -133 -341.5t-330 -137.5q-101 0 -193.5 52t-138.5 144q0 -57 2 -114t2 -68h-168q6 63 6 211v1139q-45 41 -129 41zM1403 461q0 -141 93 -240.5t224 -99.5q132 0 225 99.5
t93 240.5q0 139 -94.5 239.5t-225.5 100.5q-133 0 -224 -99.5t-91 -240.5zM358 920h367v163q0 108 43 207q-65 68 -170 68q-106 0 -173 -77t-67 -218v-143z" />
    <glyph glyph-name="f_f_h" unicode="ffh" horiz-adv-x="2129" 
d="M1120 1391q-107 0 -172 -76t-65 -234v-161h200v-125h-200v-584q0 -113 4 -211h-166q4 98 4 211v584h-367v-584q0 -113 4 -211h-165q4 98 4 211v584h-158v125h158v124q0 108 32 193.5t86.5 139t124.5 81t150 27.5q149 0 250 -80q105 113 286 113q66 0 119 -13.5t90.5 -27
t67.5 -13.5h6q-6 -68 -6 -225v-453q40 69 110 109.5t152 40.5q166 0 249 -109t83 -297v-319q0 -135 6 -211h-170q4 102 4 211v324q0 126 -57 198t-160 72q-100 0 -157 -72t-60 -188v-334q0 -149 6 -211h-168q4 45 4 211v1141q-49 39 -129 39zM358 920h367v155q0 124 43 215
q-65 68 -170 68q-107 0 -173.5 -77t-66.5 -224v-137z" />
    <glyph glyph-name="f_f_j" unicode="ffj" horiz-adv-x="1542" 
d="M1401 709v-848q0 -191 -79 -296.5t-220 -105.5q-48 0 -96.5 7.5t-49.5 7.5v149q29 -29 103 -29q85 0 133.5 71t48.5 212v918h-358v-584q0 -113 4 -211h-166q4 98 4 211v584h-367v-584q0 -113 4 -211h-165q4 98 4 211v584h-160v125h160v108q0 97 22 175.5t59 130
t87.5 86.5t105.5 50t115 15q152 0 252 -82q42 49 113.5 83t166.5 34q61 0 106 -10.5t82 -26t54 -19.5v-176q-49 56 -103 81.5t-133 25.5q-110 0 -177.5 -81t-67.5 -237v-157h524q-6 -76 -6 -211zM358 920h367v161q0 113 41 209q-64 68 -174 68q-99 0 -166.5 -76.5
t-67.5 -230.5v-131z" />
    <glyph glyph-name="f_f_k" unicode="ffk" horiz-adv-x="2017" 
d="M1120 1391q-107 0 -172 -76t-65 -234v-161h200v-125h-200v-584q0 -113 4 -211h-166q4 98 4 211v584h-367v-584q0 -113 4 -211h-165q4 98 4 211v584h-158v125h158v124q0 108 32 193.5t86.5 139t124.5 81t150 27.5q149 0 250 -80q105 113 286 113q66 0 119 -13.5t90.5 -27
t67.5 -13.5h6q-6 -68 -6 -225v-752q202 242 259.5 313.5t88.5 119.5h182q-42 -40 -111.5 -121t-262.5 -314q210 -238 289.5 -322.5t164.5 -162.5h-215q-47 60 -395 440v-229q0 -149 6 -211h-168q4 45 4 211v1141q-49 39 -129 39zM358 920h367v155q0 124 43 215
q-65 68 -170 68q-107 0 -173.5 -77t-66.5 -224v-137z" />
    <glyph glyph-name="f_f_t" unicode="fft" horiz-adv-x="1699" 
d="M358 801v-590q0 -113 4 -211h-165q4 98 4 211v590h-158v119h158v143q0 188 104.5 305t267.5 117q153 0 240 -68q85 101 231 101q35 0 67 -3.5t59.5 -9t39.5 -6.5v-156q-43 43 -139 43q-89 0 -138.5 -69t-49.5 -195v-202h356v47q0 90 -4 188h168q-4 -98 -4 -188v-47h256
v-119h-256v-469q0 -207 147 -207q59 0 78 22v-147q-12 0 -53 -5t-66 -5q-117 0 -191.5 76t-74.5 237v498h-356v-590q0 -113 4 -211h-166q4 98 4 211v590h-367zM358 1067v-147h367v194q0 101 25 184q-54 54 -164 54q-100 0 -164 -82.5t-64 -202.5z" />
    <glyph glyph-name="f_h" unicode="fh" horiz-adv-x="1605" 
d="M885 1253v-462q36 69 105.5 107t152.5 38q165 0 248.5 -110t83.5 -296v-319q0 -143 8 -211h-170q4 102 4 211v324q0 125 -57.5 197.5t-159.5 72.5q-97 0 -151.5 -61t-63.5 -164v-369q0 -149 6 -211h-172q6 68 6 211v1141q-59 39 -121 39q-126 0 -185 -84.5t-59 -225.5
v-161h199v-125h-199v-584q0 -88 5 -211h-166q4 98 4 211v584h-158v125h158v145q0 116 32.5 205.5t89 142.5t125.5 79t148 26q75 0 126.5 -13t89 -26t77.5 -13q-6 -70 -6 -213z" />
    <glyph glyph-name="f_i" unicode="fi" horiz-adv-x="1017" 
d="M874 688v-477q0 -67 7 -211h-170q6 68 6 211v590h-359v-590q0 -113 4 -211h-165q4 98 4 211v590h-158v119h158v153q0 218 110 332.5t291 114.5q57 0 103.5 -12t80.5 -26t52 -16v-176q-98 105 -230 105q-112 0 -181 -78.5t-69 -226.5v-170h523q-7 -164 -7 -232z" />
    <glyph glyph-name="f_j" unicode="fj" horiz-adv-x="1017" 
d="M877 709v-848q0 -191 -79 -296.5t-220 -105.5q-48 0 -96.5 7.5t-49.5 7.5v149q29 -29 103 -29q85 0 133.5 71t48.5 212v918h-359v-584q0 -113 4 -211h-165q4 98 4 211v584h-158v125h158v153q0 218 110 332.5t291 114.5q57 0 103.5 -12t80.5 -26t52 -16v-176
q-98 105 -230 105q-112 0 -181 -78.5t-69 -226.5v-170h525q-6 -77 -6 -211z" />
    <glyph glyph-name="f_k" unicode="fk" horiz-adv-x="1492" 
d="M885 1253v-761q38 47 119 142.5t132.5 159.5t94.5 126h184q-110 -110 -375 -437q304 -348 453 -483h-215q-50 60 -107 124t-155 171t-131 143v-227q0 -149 6 -211h-172q6 68 6 211v1141q-59 39 -121 39q-126 0 -185 -84.5t-59 -225.5v-161h199v-125h-199v-584
q0 -88 5 -211h-166q4 98 4 211v584h-158v125h158v145q0 116 32.5 205.5t89 142.5t125.5 79t148 26q75 0 126.5 -13t89 -26t77.5 -13q-6 -70 -6 -213z" />
    <glyph glyph-name="f_l" unicode="fl" horiz-adv-x="1024" 
d="M883 1253v-1042q0 -149 6 -211h-172q6 68 6 211v1141q-59 39 -121 39q-126 0 -185 -84.5t-59 -225.5v-161h199v-125h-199v-584q0 -113 4 -211h-165q4 98 4 211v584h-158v125h158v145q0 116 32.5 205.5t89 142.5t125.5 79t148 26q75 0 126.5 -13t89 -26t77.5 -13
q-6 -70 -6 -213z" />
    <glyph glyph-name="f_t" unicode="ft" horiz-adv-x="1212" 
d="M43 801v119h158v194q0 198 85.5 300t231.5 102q43 0 97 -9t65 -10v-154q-41 41 -133 41q-89 0 -139 -69t-50 -195v-200h392v47q0 65 -5 188h168q-4 -98 -4 -188v-47h256v-119h-256v-469q0 -207 148 -207q59 0 78 22v-147q-13 0 -54 -5t-65 -5q-117 0 -191.5 76t-74.5 237
v498h-392v-590q0 -162 4 -211h-165q4 98 4 211v590h-158z" />
    <glyph glyph-name="longs_b" unicode="&#x17f;b" horiz-adv-x="1755" 
d="M883 1253v-518q43 94 137 147.5t203 53.5q128 0 232 -63t162 -170.5t58 -237.5q0 -204 -133 -341.5t-330 -137.5q-101 0 -193 51.5t-136 142.5q0 -124 6 -180h-166v1352q-59 39 -121 39q-126 0 -185 -84.5t-59 -225.5v-870q0 -113 4 -211h-165q4 98 4 211v577h-158v132
h158v145q0 116 32.5 205.5t89 142.5t125.5 79t148 26q75 0 126.5 -13t89 -26t77.5 -13q-6 -70 -6 -213zM874 461q0 -140 94.5 -240t225.5 -100q132 0 224.5 99.5t92.5 240.5q0 139 -95 239.5t-226 100.5t-223.5 -100t-92.5 -240z" />
    <glyph glyph-name="longs_h" unicode="&#x17f;h" horiz-adv-x="1609" 
d="M883 1253v-467q36 72 105.5 111t154.5 39q165 0 248.5 -110t83.5 -296v-319q0 -135 6 -211h-170q4 51 4 211v324q0 126 -57 198t-160 72q-102 0 -156 -67.5t-59 -180.5v-346q0 -129 4 -211h-168q4 90 4 211v1141q-59 39 -121 39q-126 0 -185 -84.5t-59 -225.5v-870
q0 -113 4 -211h-165q4 98 4 211v577h-158v132h158v145q0 116 32.5 205.5t89 142.5t125.5 79t148 26q75 0 126.5 -13t89 -26t77.5 -13q-6 -70 -6 -213z" />
    <glyph glyph-name="longs_i" unicode="&#x17f;i" horiz-adv-x="1015" 
d="M358 1057v-846q0 -113 4 -211h-165q4 98 4 211v577h-158v132h158v153q0 217 110 332t285 115q58 0 104.5 -11.5t82 -25.5t55.5 -17v-176q-97 105 -232 105q-113 0 -180.5 -85t-67.5 -253zM879 709v-496q0 -151 6 -213h-170q4 90 4 213v608h-94q11 11 20.5 26.5t22 40.5
t16.5 32h201q-6 -70 -6 -211z" />
    <glyph glyph-name="longs_k" unicode="&#x17f;k" horiz-adv-x="1488" 
d="M883 1253v-759q39 48 118 141.5t131 158t95 126.5h184q-110 -110 -375 -437q304 -348 453 -483h-215q-49 60 -107 125t-152 167t-132 144v-225q0 -129 4 -211h-168q4 90 4 211v1141q-59 39 -121 39q-126 0 -185 -84.5t-59 -225.5v-870q0 -113 4 -211h-165q4 98 4 211v577
h-158v132h158v145q0 116 32.5 205.5t89 142.5t125.5 79t148 26q75 0 126.5 -13t89 -26t77.5 -13q-6 -70 -6 -213z" />
    <glyph glyph-name="longs_l" unicode="&#x17f;l" horiz-adv-x="1026" 
d="M883 1253v-1042q0 -129 4 -211h-168q4 90 4 211v1141q-59 39 -121 39q-126 0 -185 -84.5t-59 -225.5v-870q0 -113 4 -211h-165q4 98 4 211v577h-158v132h158v145q0 116 32.5 205.5t89 142.5t125.5 79t148 26q75 0 126.5 -13t89 -26t77.5 -13q-6 -70 -6 -213z" />
    <glyph glyph-name="longs_longs_i" unicode="&#x17f;&#x17f;i" horiz-adv-x="1540" 
d="M358 1018v-807q0 -35 1 -112t1 -99h-163q4 98 4 211v577h-158v132h158v98q0 124 32 216.5t87.5 146t123 79t146.5 25.5q149 0 252 -80q43 48 115 81.5t165 33.5q62 0 107.5 -11t81 -26t53.5 -19v-174q-97 105 -231 105q-120 0 -185 -86t-65 -252v-846q0 -113 4 -211h-164
q0 22 1 99t1 112v577h-156v132h156v165q0 125 41 205q-56 68 -170 68q-109 0 -173.5 -82t-64.5 -258zM1401 709v-496q0 -151 6 -213h-170q4 90 4 213v608h-94q11 11 20.5 26.5t22 40.5t16.5 32h201q-6 -70 -6 -211z" />
    <glyph glyph-name="longs_longs_l" unicode="&#x17f;&#x17f;l" horiz-adv-x="1548" 
d="M358 1057v-846q0 -113 4 -211h-165q4 98 4 211v577h-158v132h158v124q0 108 32 193.5t86.5 139t124.5 81t150 27.5q149 0 250 -80q105 113 286 113q66 0 119 -13.5t90.5 -27t67.5 -13.5h6q-6 -68 -6 -225v-1028q0 -149 6 -211h-168q4 45 4 211v1141q-49 39 -129 39
q-107 0 -172 -76t-65 -234v-870q0 -137 6 -211h-168q4 98 4 211v577h-156v132h156v155q0 124 43 215q-65 68 -170 68q-107 0 -173.5 -77t-66.5 -224z" />
    <glyph glyph-name="t_f" unicode="tf" horiz-adv-x="1083" 
d="M342 788v-462q0 -209 147 -209q56 0 80 24v-147q-13 0 -54 -5t-66 -5q-117 0 -191 75.5t-74 235.5v493h-145v132h145v53q0 109 -6 182h170q-6 -73 -6 -182v-53h344v194q0 193 83.5 297.5t231.5 104.5q41 0 95.5 -9t77.5 -10v-162q-43 49 -142 49q-89 0 -138.5 -69
t-49.5 -195v-200h200v-132h-200v-577q0 -137 6 -211h-170q6 147 6 211v577h-344z" />
    <glyph glyph-name="t_t" unicode="tt" horiz-adv-x="1204" 
d="M178 1155h170q-6 -73 -6 -182v-53h256v-132h-256v-462q0 -209 147 -209q56 0 80 24v-147q-13 0 -54 -5t-66 -5q-117 0 -191 75.5t-74 235.5v493h-145v132h145v53q0 109 -6 182zM739 1155h170q-6 -74 -6 -182v-53h256v-132h-256v-462q0 -109 40 -159t108 -50q55 0 79 24
v-147q-14 0 -54 -5t-66 -5q-117 0 -191 75.5t-74 235.5v493h-145v132h145v53q0 109 -6 182z" />
    <glyph glyph-name="Tcommaaccent_h" unicode="&#x162;h" horiz-adv-x="2052" 
d="M1761 211v324q0 126 -57 198t-160 72q-106 0 -160.5 -74t-54.5 -196v-324q0 -135 6 -211h-172q6 76 6 211v1055h-452v-899q0 -283 8 -367h-186q10 158 10 367v634q0 151 -6 265h-142q-179 0 -352 -11v156q126 -8 352 -8h934q-6 -71 -6 -211v-406q36 72 106 111t154 39
q165 0 249.5 -110t84.5 -296v-319q0 -160 4 -211h-170q4 102 4 211zM559 -180v94q104 0 171 -58t67 -147q0 -81 -58 -132.5t-149 -51.5q-57 0 -107 20v105q42 -29 90 -29q42 0 70.5 26.5t28.5 65.5q0 44 -33.5 75.5t-79.5 31.5z" />
    <glyph glyph-name="Tcaron_h" unicode="&#x164;h" horiz-adv-x="2052" 
d="M1761 211v324q0 126 -57 198t-160 72q-106 0 -160.5 -74t-54.5 -196v-324q0 -135 6 -211h-172q6 76 6 211v1055h-452v-899q0 -283 8 -367h-186q10 158 10 367v634q0 151 -6 265h-142q-179 0 -352 -11v156q126 -8 352 -8h934q-6 -71 -6 -211v-406q36 72 106 111t154 39
q165 0 249.5 -110t84.5 -296v-319q0 -160 4 -211h-170q4 102 4 211zM641 1597l162 152h155l-303 -272h-32l-304 272h164z" />
    <glyph glyph-name=".notdef" horiz-adv-x="946" 
d="M0 0v1325h946v-1325h-946zM152 94h643l-322 484zM530 664l322 -484v967zM94 1147v-967l322 484zM152 1231l321 -483l322 483h-643z" />
    <glyph glyph-name=".null" horiz-adv-x="0" 
 />
    <glyph glyph-name="nonmarkingreturn" horiz-adv-x="682" 
 />
    <glyph glyph-name="space" unicode=" " horiz-adv-x="444" 
 />
    <glyph glyph-name="exclam" unicode="!" horiz-adv-x="649" 
d="M336 614v531q0 135 -8 221h174q-6 -70 -6 -221v-531q0 -148 6 -221h-174q8 98 8 221zM309 84q0 44 30 74t73 30q44 0 74 -30t30 -74q0 -42 -30 -72t-74 -30q-42 0 -72.5 30t-30.5 72z" />
    <glyph glyph-name="quotedbl" unicode="&#x22;" horiz-adv-x="663" 
d="M102 1473h162l-24 -523h-113zM399 1473h162l-24 -523h-113z" />
    <glyph glyph-name="numbersign" unicode="#" horiz-adv-x="1060" 
d="M303 37h-115l70 401h-184v115h202l50 285h-203v112h221l64 381h114l-63 -381h239l64 381h117l-66 -381h182v-112h-198l-52 -285h205v-115h-223l-70 -401h-112l65 401h-239zM389 553h242l49 285h-242z" />
    <glyph glyph-name="dollar" unicode="$" horiz-adv-x="1060" 
d="M414 1014q0 -52 25.5 -96.5t66.5 -78t90.5 -66t99.5 -69.5t91 -79.5t66.5 -105t25.5 -138.5q0 -130 -78.5 -221.5t-208.5 -116.5v-104h-115v96q-57 2 -147 20.5t-121 22.5v211q36 -60 120.5 -96.5t172.5 -36.5t143 60.5t55 150.5q0 53 -25.5 98t-65.5 78.5t-89 66t-98 69
t-89 78.5t-65.5 104.5t-25.5 137.5q0 124 68 205.5t186 108.5l-2 104h114v-92q55 -1 132 -15.5t104 -17.5v-200q-29 56 -89 85t-139 29q-85 0 -143.5 -50t-58.5 -142z" />
    <glyph glyph-name="percent" unicode="%" horiz-adv-x="1497" 
d="M395 1401h2q129 0 219.5 -95t90.5 -227q0 -141 -91.5 -239.5t-222.5 -98.5t-222 95t-91 229q0 139 92 237.5t223 98.5zM395 1282h-2q-78 0 -134 -62t-56 -149q0 -88 56.5 -150.5t135.5 -62.5q76 0 131.5 64.5t55.5 152.5q0 86 -55 146.5t-132 60.5zM1106 649h2
q129 0 219 -93.5t90 -225.5q0 -140 -91.5 -238t-221.5 -98q-131 0 -222 94.5t-91 228.5q0 138 91.5 235t223.5 97zM1106 532h-2q-77 0 -133 -61t-56 -149q0 -87 56.5 -149t134.5 -62q77 0 132.5 63.5t55.5 153.5q0 85 -55 144.5t-133 59.5zM287 0h-140l1059 1393h144z" />
    <glyph glyph-name="ampersand" unicode="&#x26;" horiz-adv-x="1427" 
d="M1239 788h184q-37 -32 -74 -71t-63 -68.5t-64 -78t-54.5 -70.5t-56.5 -77t-50 -69q127 -164 256 -221l2 -151q-184 46 -365 245q-47 -56 -88.5 -96t-94 -76t-113 -54.5t-128.5 -18.5q-191 0 -307.5 117.5t-116.5 289.5q0 54 17.5 104.5t43 89t67 78.5t77.5 68t86 62
q-141 106 -141 272q0 116 87 198t210 82q115 0 195.5 -77t80.5 -195q0 -84 -48.5 -147t-149.5 -136q180 -127 342 -337q20 27 62.5 88.5t67 96t63 79t73.5 73.5zM549 121q91 0 165.5 54.5t153.5 156.5q-94 124 -181.5 213.5t-194.5 165.5q-69 -49 -114 -89.5t-79.5 -100.5
t-34.5 -124q0 -114 84.5 -195t200.5 -81zM395 1065q0 -108 140 -201q92 60 128.5 104t36.5 103q0 63 -44 108.5t-105 45.5q-67 0 -111.5 -46.5t-44.5 -113.5z" />
    <glyph glyph-name="quotesingle" unicode="'" horiz-adv-x="368" 
d="M102 1473h162l-24 -523h-113z" />
    <glyph glyph-name="parenleft" unicode="(" horiz-adv-x="602" 
d="M539 -221v-164q-151 103 -257.5 261.5t-156 332.5t-49.5 354q0 284 123 543.5t340 411.5v-160q-148 -137 -231 -352.5t-83 -438.5q0 -222 82 -435.5t232 -352.5z" />
    <glyph glyph-name="parenright" unicode=")" horiz-adv-x="602" 
d="M63 1352v166q223 -154 343 -413.5t120 -537.5q0 -284 -123 -542.5t-340 -409.5v160q149 138 232.5 352.5t83.5 435.5q0 222 -83 436t-233 353z" />
    <glyph glyph-name="asterisk" unicode="*" horiz-adv-x="899" 
d="M98 1034v133l166 -14l105 -4l-64 98q-30 45 -94 131l117 70q17 -52 69 -150l54 -102l51 102q18 34 41 85t26 65l119 -70q-9 -8 -96 -131l-64 -98l107 4l166 16v-135q-19 5 -85 10t-81 7l-105 4l64 -97q59 -82 98 -131l-121 -65q-15 39 -69 145l-49 105l-60 -105
q-7 -19 -35 -76.5t-32 -68.5l-119 69q15 18 100 130l62 94l-105 -4q-31 -2 -90.5 -9t-75.5 -8z" />
    <glyph glyph-name="plus" unicode="+" horiz-adv-x="1060" 
d="M602 938v-356h338v-127h-338v-357h-143v357h-338v127h338v356h143z" />
    <glyph glyph-name="comma" unicode="," horiz-adv-x="419" 
d="M160 227h157q0 -191 -33.5 -337.5t-84.5 -227.5h-129q90 192 90 565z" />
    <glyph glyph-name="hyphen" unicode="-" horiz-adv-x="634" 
d="M66 553h501v-143h-501v143z" />
    <glyph glyph-name="period" unicode="." horiz-adv-x="415" 
d="M96 90q0 47 33.5 81t79.5 34t78 -34t32 -81q0 -46 -32.5 -80.5t-77.5 -34.5q-46 0 -79.5 34.5t-33.5 80.5z" />
    <glyph glyph-name="slash" unicode="/" horiz-adv-x="583" 
d="M154 -76h-148l424 1514h148z" />
    <glyph glyph-name="zero" unicode="0" horiz-adv-x="1060" 
d="M86 688q0 204 49.5 361.5t150 250.5t238.5 93q140 0 242.5 -93t153.5 -251t51 -361t-51 -361.5t-153.5 -251.5t-242.5 -93q-138 0 -238.5 93t-150 251t-49.5 362zM256 688q0 -256 70 -409.5t198 -153.5q132 0 204.5 153.5t72.5 409.5q0 254 -72.5 407.5t-204.5 153.5
q-128 0 -198 -153t-70 -408z" />
    <glyph glyph-name="one" unicode="1" horiz-adv-x="1060" 
d="M684 1163v-948q0 -153 6 -215h-178q6 135 6 215v983q-183 -72 -262 -115v142q51 19 176.5 75.5t192.5 92.5h67q-8 -65 -8 -230z" />
    <glyph glyph-name="two" unicode="2" horiz-adv-x="1060" 
d="M121 0v74q143 145 239 251.5t211 258.5q93 122 125.5 200t32.5 168q0 127 -77 209t-195 82q-100 0 -184.5 -45t-125.5 -115v213q24 5 63.5 22t74.5 32.5t92.5 28t118.5 12.5q185 0 297 -116t112 -302q0 -104 -45.5 -204.5t-150.5 -233.5q-55 -70 -121 -145.5
t-102.5 -114.5t-123.5 -130q34 -1 86 -1t116 0.5t89 0.5q221 4 297 11v-164q-93 8 -323 8h-506z" />
    <glyph glyph-name="three" unicode="3" horiz-adv-x="1060" 
d="M440 1247q-85 0 -155 -31t-107 -79v182q14 4 65.5 24t107.5 33t118 13q167 0 272 -97t105 -254q0 -117 -69 -200.5t-175 -116.5q119 -31 200 -125t81 -223q0 -173 -116 -281t-300 -108q-54 0 -105 8.5t-80 18t-68.5 24t-51.5 18.5v185q36 -55 112 -85t166 -30
q121 0 196 73.5t75 194.5q0 109 -81 183.5t-198 74.5q-23 0 -51 -4v137q16 -4 51 -4q105 0 175.5 66.5t70.5 169.5t-68.5 168t-169.5 65z" />
    <glyph glyph-name="four" unicode="4" horiz-adv-x="1060" 
d="M31 502l698 897h64q-2 -53 -2 -242v-598q166 0 237 6v-135q-51 4 -237 4v-215q0 -149 6 -219h-179q7 60 7 219v215h-373q-158 0 -221 -2v70zM625 1096l-400 -537h400v537z" />
    <glyph glyph-name="five" unicode="5" horiz-adv-x="1060" 
d="M442 -25q-64 0 -119 11t-118.5 34t-69.5 25v186q40 -52 117 -82t160 -30q136 0 227.5 84.5t91.5 212.5q0 126 -90.5 211.5t-226.5 85.5q-157 0 -236 -68q65 310 113 522q31 137 37 211q55 -6 151 -6h185q116 0 184 8v-155q-77 6 -174 6h-230l-92 -408q44 21 133 21
q183 0 303.5 -118.5t120.5 -307.5q0 -123 -62.5 -225t-170 -160t-234.5 -58z" />
    <glyph glyph-name="six" unicode="6" horiz-adv-x="1060" 
d="M659 1137q-65 -75 -270 -332q25 21 74 35t100 14q175 0 295.5 -126t120.5 -308q0 -181 -132.5 -308.5t-318.5 -127.5q-185 0 -314.5 129t-129.5 315q0 80 15.5 142t66 148.5t124.5 182t212 258.5q133 154 166 213h204q-78 -78 -213 -235zM248 424q0 -125 83 -212t201 -87
q117 0 200 86t83 207q0 123 -84 210t-203 87q-118 0 -199 -83.5t-81 -207.5z" />
    <glyph glyph-name="seven" unicode="7" horiz-adv-x="1060" 
d="M332 1223q-146 0 -207 -6v157q45 -4 207 -4h487q156 0 203 4q-29 -46 -98 -178q-229 -450 -504 -1010q-59 -105 -88 -186h-189q33 45 125 213q249 484 512 1010h-448z" />
    <glyph glyph-name="eight" unicode="8" horiz-adv-x="1060" 
d="M268 393q0 -109 74 -185.5t180 -76.5t182 76t76 182t-76.5 184t-181.5 78t-179.5 -76t-74.5 -182zM303 1024q0 -95 64 -162t155 -67q93 0 157 66.5t64 160.5t-63.5 157.5t-157.5 63.5q-92 0 -155.5 -63.5t-63.5 -155.5zM141 1034q0 149 109.5 252t271.5 103
q163 0 273 -102.5t110 -248.5q0 -113 -60.5 -194.5t-150.5 -118.5q109 -39 179.5 -130t70.5 -214q0 -165 -119.5 -280t-302.5 -115t-300.5 114t-117.5 281q0 119 69 211.5t173 132.5q-87 34 -146 116.5t-59 192.5z" />
    <glyph glyph-name="nine" unicode="9" horiz-adv-x="1060" 
d="M399 0h-202q77 74 186 205q135 166 291 362q-28 -22 -72.5 -35.5t-87.5 -13.5q-181 0 -306.5 126t-125.5 308q0 183 134.5 310t324.5 127q181 0 310.5 -131t129.5 -316q0 -146 -74 -269.5t-308 -415.5q-26 -33 -40 -50q-148 -188 -160 -207zM815 944q0 126 -81 213.5
t-195 87.5q-120 0 -205.5 -86t-85.5 -209q0 -121 85 -208t204 -87q116 0 197 84t81 205z" />
    <glyph glyph-name="colon" unicode=":" horiz-adv-x="421" 
d="M104 754q0 44 31.5 76t75.5 32t75 -32t31 -76q0 -45 -31 -77t-75 -32t-75.5 32.5t-31.5 76.5zM104 82q0 44 31.5 76t75.5 32t75 -32t31 -76q0 -45 -31 -77t-75 -32t-75.5 32.5t-31.5 76.5z" />
    <glyph glyph-name="semicolon" unicode=";" horiz-adv-x="462" 
d="M135 756q0 44 31.5 76t75.5 32t75 -32t31 -76q0 -45 -31 -77t-75 -32t-75.5 32.5t-31.5 76.5zM166 215h156q0 -187 -32.5 -330t-82.5 -223h-127q86 191 86 553z" />
    <glyph glyph-name="less" unicode="&#x3c;" horiz-adv-x="1060" 
d="M952 8l-864 490v41l864 489v-156l-653 -354l653 -352v-158z" />
    <glyph glyph-name="equal" unicode="=" horiz-adv-x="1060" 
d="M940 614h-819v127h819v-127zM940 295h-819v127h819v-127z" />
    <glyph glyph-name="greater" unicode="&#x3e;" horiz-adv-x="1060" 
d="M141 1034l826 -489v-41l-826 -490v158l621 352l-621 355v155z" />
    <glyph glyph-name="question" unicode="?" horiz-adv-x="923" 
d="M360 1217q-118 0 -215 -62v158q17 3 60.5 16t92 22t99.5 9q168 0 269.5 -101t101.5 -260q0 -133 -69 -237t-250 -230q13 -92 32 -176h-162q-3 30 -36 224q187 131 250 211.5t63 185.5q0 102 -66 171t-170 69zM324 84q0 43 29.5 72.5t70.5 29.5q43 0 73.5 -29.5
t30.5 -72.5t-30.5 -72.5t-73.5 -29.5q-41 0 -70.5 29.5t-29.5 72.5z" />
    <glyph glyph-name="at" unicode="@" horiz-adv-x="1697" 
d="M215 426q0 -135 49.5 -256.5t134.5 -208t203 -137.5t250 -51q109 0 206 20t152 55l-6 -139q-5 0 -129 -20.5t-223 -20.5q-159 0 -301 58.5t-243.5 159.5t-160.5 241.5t-59 298.5q0 159 60.5 304t163.5 249.5t245.5 166.5t300.5 62q218 0 388.5 -82.5t267 -236.5
t96.5 -357q0 -211 -117.5 -347t-288.5 -136q-94 0 -139 37t-41 117q-90 -146 -256 -146q-123 0 -207 98.5t-84 239.5q0 177 108 302.5t259 125.5q90 0 152.5 -54.5t80.5 -119.5q20 135 19 154h129l-84 -516q-19 -127 76 -127q110 0 187 99t77 261q0 266 -172 424t-451 158
q-175 0 -323 -91t-234 -246.5t-86 -338.5zM1047 467q0 99 -56 167t-133 68q-100 0 -172 -85t-72 -203q0 -98 59 -167t142 -69q96 0 164 84t68 205z" />
    <glyph glyph-name="A" unicode="A" horiz-adv-x="1320" 
d="M1321 0h-213q-24 70 -92 231l-103 244h-534l-100 -239q-76 -183 -91 -236h-188q85 159 147 311l484 1119h47l489 -1119q76 -172 154 -311zM856 612l-211 516l-211 -516h422z" />
    <glyph glyph-name="B" unicode="B" horiz-adv-x="1050" 
d="M145 0q11 116 11 367v643q0 302 -9 393h304q188 0 292.5 -96t104.5 -236q0 -99 -51.5 -174t-122.5 -102q127 -37 203.5 -139t76.5 -240q0 -177 -130.5 -296.5t-348.5 -119.5h-330zM786 420q0 130 -85 210.5t-216 80.5h-163v-576h141q141 0 232 79.5t91 205.5zM322 1274
v-440h157q87 0 145 62t58 157q0 97 -69.5 159t-176.5 62h-114z" />
    <glyph glyph-name="C" unicode="C" horiz-adv-x="1294" 
d="M260 702q0 -118 46.5 -225t125.5 -184.5t189 -123.5t231 -46q239 0 371 115v-193q-76 -23 -121.5 -35t-117 -22.5t-144.5 -10.5q-157 0 -296.5 57.5t-238.5 155t-157 231t-58 281.5t58 282.5t157 232.5t238.5 155.5t296.5 57.5q58 0 114.5 -7t89.5 -15t87 -22.5t77 -19.5
v-197q-133 111 -358 111q-161 0 -297 -77.5t-214.5 -210.5t-78.5 -290z" />
    <glyph glyph-name="D" unicode="D" horiz-adv-x="1339" 
d="M543 0h-396q11 116 11 367v669q0 255 -11 367h396q190 0 352.5 -94t257 -255.5t94.5 -351.5q0 -142 -56 -272.5t-150.5 -224.5t-224.5 -149.5t-273 -55.5zM324 1266v-1129h208q149 0 274.5 77t198 207t72.5 281t-72.5 281t-198.5 206.5t-276 76.5h-206z" />
    <glyph glyph-name="E" unicode="E" horiz-adv-x="944" 
d="M485 1266h-163v-447h161q225 0 320 6v-151q-94 6 -320 6h-161v-541h180q254 0 346 6v-151q-92 6 -346 6h-355q9 254 9 367v671q0 228 -9 365h338q220 0 346 8v-154q-95 9 -346 9z" />
    <glyph glyph-name="F" unicode="F" horiz-adv-x="919" 
d="M147 0q9 142 9 367v669q0 230 -9 367h351q207 0 333 8v-154q-95 9 -333 9h-176v-488h176q152 0 274 8v-155q-81 8 -274 8h-176v-272q0 -178 6 -367h-181z" />
    <glyph glyph-name="G" unicode="G" horiz-adv-x="1370" 
d="M1227 393v-348q-80 -26 -121 -37.5t-111.5 -22t-150.5 -10.5q-162 0 -303.5 57.5t-240 155.5t-154.5 231.5t-56 282.5q0 148 55.5 281.5t153 232t238.5 156.5t303 58q104 0 184 -16.5t176 -51.5v-193q-135 113 -354 113q-167 0 -302 -77.5t-209.5 -210t-74.5 -292.5
t75.5 -293t210 -210.5t298.5 -77.5q157 0 223 41v231q0 136 -8 258h176q-8 -122 -8 -258z" />
    <glyph glyph-name="H" unicode="H" horiz-adv-x="1411" 
d="M322 1036v-213h765v213q0 281 -6 367h181q-9 -202 -9 -367v-741q0 -167 9 -295h-181q6 86 6 297v389h-765v-391q0 -181 8 -295h-180q6 86 6 297v739q0 284 -6 367h180q-8 -110 -8 -367z" />
    <glyph glyph-name="I" unicode="I" horiz-adv-x="493" 
d="M330 1036v-669q0 -241 8 -367h-182q8 126 8 367v669q0 245 -8 367h182q-8 -122 -8 -367z" />
    <glyph glyph-name="J" unicode="J" horiz-adv-x="489" 
d="M330 1036v-1042q0 -185 -104 -291t-263 -106q-39 0 -99.5 13t-72.5 15v185q56 -70 164 -70q89 0 149 71t60 183v1042q0 184 -6 367h180q-8 -122 -8 -367z" />
    <glyph glyph-name="K" unicode="K" horiz-adv-x="1177" 
d="M322 1036v-299l378 434q135 161 187 232h205q-101 -101 -226 -244l-381 -432l469 -502q42 -46 82 -86.5t82 -80.5t60 -58h-248q-75 101 -139 170l-469 508v-311q0 -178 6 -367h-181q9 142 9 367v669q0 230 -9 367h181q-6 -183 -6 -367z" />
    <glyph glyph-name="L" unicode="L" horiz-adv-x="946" 
d="M322 1036v-895h245q237 0 328 6v-155q-122 8 -328 8h-420q9 254 9 367v669q0 230 -9 367h181q-6 -183 -6 -367z" />
    <glyph glyph-name="M" unicode="M" horiz-adv-x="1669" 
d="M1425 1430l119 -1102q22 -197 49 -328h-194q0 62 -19 279l-69 749l-459 -1046h-41l-453 1044l-90 -731q-24 -205 -26 -295h-179q23 108 58 371l147 1059h43l531 -1170l536 1170h47z" />
    <glyph glyph-name="N" unicode="N" horiz-adv-x="1427" 
d="M313 295q0 -167 9 -295h-175q9 128 9 297v741q0 146 -9 396h39q59 -74 168 -195l758 -901v698q0 109 -6 367h172q-6 -135 -6 -367v-764q0 -178 6 -297h-37q-64 83 -151 183l-773 917z" />
    <glyph glyph-name="O" unicode="O" horiz-adv-x="1630" 
d="M90 702q0 147 56.5 281t153 231.5t231.5 155t284 57.5t284 -57.5t231.5 -155t153 -231.5t56.5 -281q0 -198 -96 -365t-263 -264.5t-366 -97.5t-366 97.5t-263 264.5t-96 365zM260 702q0 -119 44 -227.5t118 -186t177 -123.5t216 -46t216 46t177 123.5t118 186t44 227.5
q0 158 -74 292t-202 212t-279 78t-279 -78t-202 -212t-74 -292z" />
    <glyph glyph-name="P" unicode="P" horiz-adv-x="995" 
d="M322 551v-184q0 -241 8 -367h-180q6 94 6 367v710q0 235 -6 326h313q214 0 337.5 -119t123.5 -307q0 -185 -130 -305.5t-335 -120.5h-137zM322 1274v-596h124q133 0 221.5 91t88.5 210q0 124 -84 209.5t-228 85.5h-122z" />
    <glyph glyph-name="Q" unicode="Q" horiz-adv-x="1630" 
d="M90 702q0 147 56.5 281.5t153 232.5t231.5 156t284 58q148 0 282.5 -58.5t231.5 -156.5t154 -232.5t57 -280.5q0 -85 -18.5 -165.5t-49 -144t-71.5 -120t-83.5 -96.5t-88.5 -72q75 -65 182 -131q221 -129 412 -129q92 0 159 19v-129q-90 -25 -196 -25q-127 0 -246 38.5
t-256 127.5q-81 52 -213 158q-110 -58 -256 -58q-198 0 -365 98t-263.5 265t-96.5 364zM260 702q0 -158 74.5 -292t202.5 -211.5t278 -77.5t278 77.5t202.5 211.5t74.5 292q0 157 -74.5 291t-202.5 212.5t-278 78.5t-278 -78.5t-202.5 -212.5t-74.5 -291z" />
    <glyph glyph-name="R" unicode="R" horiz-adv-x="1134" 
d="M324 582v-228q0 -270 8 -354h-182q8 84 8 354v682q0 286 -8 367h292q228 0 355 -113.5t127 -296.5q0 -152 -79 -246.5t-198 -132.5q53 -65 148.5 -196.5t181 -240.5t156.5 -177h-228q-244 311 -403 586q-25 -4 -68 -4h-110zM324 1270v-565h133q130 0 213.5 78.5
t83.5 205.5q0 117 -83 199t-235 82h-112z" />
    <glyph glyph-name="S" unicode="S" horiz-adv-x="958" 
d="M317 1075q0 -60 29.5 -110.5t76 -88t103 -74.5t113.5 -78t103.5 -88.5t76 -116t29.5 -150.5q0 -177 -117.5 -288.5t-306.5 -111.5q-59 0 -113 9t-112.5 22.5t-94.5 19.5v234q39 -65 130 -108.5t194 -43.5q112 0 177 68.5t65 177.5q0 61 -29 112.5t-75 89.5t-101.5 75
t-111.5 77.5t-102 87t-75 115t-29 150.5q0 176 112.5 276.5t293.5 100.5q61 0 147.5 -18t110.5 -21v-222q-27 65 -96 98.5t-162 33.5q-105 0 -170.5 -60.5t-65.5 -167.5z" />
    <glyph glyph-name="T" unicode="T" horiz-adv-x="1263" 
d="M399 1403h461q260 0 354 6v-152q-142 9 -354 9h-143q-2 -76 -2 -265v-634q0 -283 8 -367h-182q6 94 6 367v634q0 151 -6 265h-142q-208 0 -350 -9v152q94 -6 350 -6z" />
    <glyph glyph-name="U" unicode="U" horiz-adv-x="1378" 
d="M145 1403h183q-9 -124 -9 -367v-473q0 -197 103.5 -318.5t267.5 -121.5t266.5 121.5t102.5 318.5v473q0 281 -6 367h180q-6 -135 -6 -367v-469q0 -270 -149.5 -430t-387.5 -160t-387 159.5t-149 430.5v469q0 243 -9 367z" />
    <glyph glyph-name="V" unicode="V" horiz-adv-x="1304" 
d="M293 1159l366 -880l361 880q82 210 92 244h186q-55 -100 -145 -309l-485 -1135h-31l-487 1135q-97 224 -148 309h201q20 -75 90 -244z" />
    <glyph glyph-name="W" unicode="W" horiz-adv-x="1988" 
d="M707 -31h-25l-535 1151q-79 176 -145 283h205q31 -88 102 -244l404 -905l223 520l-156 344q-87 195 -145 285h190q34 -96 113 -268l76 -179l80 185q70 163 106 262h176q-29 -44 -143 -287l-148 -321l234 -533l375 873q77 168 110 268h181q-72 -144 -140 -289l-520 -1145
h-20l-299 654z" />
    <glyph glyph-name="X" unicode="X" horiz-adv-x="1075" 
d="M723 242l-193 327l-208 -354q-82 -144 -117 -215h-203q95 128 201 297l246 405l-240 394q-111 185 -203 307h215q56 -112 131 -234l189 -319l188 321q29 50 71.5 128t57.5 104h201q-74 -97 -201 -301l-235 -385l241 -400q116 -187 213 -317h-215q-11 18 -35 61.5
t-50.5 90t-53.5 90.5z" />
    <glyph glyph-name="Y" unicode="Y" horiz-adv-x="1202" 
d="M512 0q6 94 6 352v299l-325 488q-107 158 -193 264h215q33 -67 115 -193l278 -411l264 397q93 138 127 207h203q-65 -81 -201 -281l-317 -471v-299q0 -226 8 -352h-180z" />
    <glyph glyph-name="Z" unicode="Z" horiz-adv-x="1112" 
d="M860 1094l-553 -955h406q243 0 338 6v-151q-95 6 -338 6h-664q66 102 187 311l550 955h-356q-253 0 -348 -9v152q94 -6 348 -6h612q-87 -135 -182 -309z" />
    <glyph glyph-name="bracketleft" unicode="[" horiz-adv-x="692" 
d="M145 -373q7 79 7 215v1446q0 133 -7 215h326q99 0 170 6v-137q-67 6 -172 6h-180v-1626h182q99 0 170 6v-137q-68 6 -172 6h-324z" />
    <glyph glyph-name="backslash" unicode="\" horiz-adv-x="583" 
d="M578 -76h-148l-424 1514h148z" />
    <glyph glyph-name="bracketright" unicode="]" horiz-adv-x="692" 
d="M545 -373h-320q-105 0 -172 -6v137q70 -6 170 -6h180v1626h-178q-105 0 -172 -6v137q71 -6 170 -6h322q-4 -94 -4 -215v-1446q0 -125 4 -215z" />
    <glyph glyph-name="asciicircum" unicode="^" horiz-adv-x="978" 
d="M483 1298l-262 -370h-158l410 522h31l407 -522h-163z" />
    <glyph glyph-name="underscore" unicode="_" horiz-adv-x="993" 
d="M23 -141h948v-97h-948v97z" />
    <glyph glyph-name="grave" unicode="`" horiz-adv-x="946" 
d="M225 1360l209 -311h-141l-232 311h164z" />
    <glyph glyph-name="a" unicode="a" horiz-adv-x="919" 
d="M379 809q-139 0 -229 -94v159q18 3 59.5 19.5t93.5 29.5t111 13q179 0 265.5 -100.5t86.5 -307.5v-346q0 -80 53 -80q31 0 45 11v-101q-52 -35 -121 -35q-48 0 -80.5 27.5t-39.5 81.5q-35 -52 -98 -80.5t-136 -28.5q-142 0 -224.5 74.5t-82.5 192.5q0 119 84 197.5
t233 78.5q71 0 132 -26.5t85 -65.5v117q0 118 -57 191t-180 73zM240 252q0 -72 50.5 -118t141.5 -46q78 0 133.5 47.5t55.5 116.5q0 65 -55.5 112.5t-133.5 47.5q-90 0 -141 -46t-51 -114z" />
    <glyph glyph-name="b" unicode="b" horiz-adv-x="1171" 
d="M141 211v1194h-94q31 49 55 98h203q-6 -62 -6 -211v-557q45 94 138.5 147.5t201.5 53.5q195 0 324 -136.5t129 -334.5q0 -203 -133.5 -341t-329.5 -138q-103 0 -193.5 50t-136.5 140q0 -102 4 -176h-170q8 84 8 211zM293 461q0 -141 93.5 -240.5t225.5 -99.5
q131 0 224.5 99.5t93.5 240.5q0 139 -95 239.5t-227 100.5q-131 0 -223 -100t-92 -240z" />
    <glyph glyph-name="c" unicode="c" horiz-adv-x="858" 
d="M236 457q0 -138 94 -236t227 -98q75 0 124.5 15.5t88.5 49.5v-178q-23 -3 -61.5 -9.5t-75 -10.5t-80.5 -4q-201 0 -338 137.5t-137 333.5q0 201 137 340t338 139q51 0 120 -12t93 -13v-178q-86 64 -209 64q-134 0 -227.5 -100t-93.5 -240z" />
    <glyph glyph-name="d" unicode="d" horiz-adv-x="1169" 
d="M1030 1321v-1110q0 -131 6 -211h-170q4 39 4 184q-55 -98 -146.5 -148t-195.5 -50q-124 0 -227.5 64t-162 173t-58.5 238q0 202 130 338.5t327 136.5q109 0 197 -47.5t136 -138.5v655h-94q28 30 58 98h202q-6 -99 -6 -182zM877 459q0 141 -92 241.5t-222 100.5
q-132 0 -226.5 -99.5t-94.5 -238.5q0 -143 94 -243.5t229 -100.5q129 0 220.5 100t91.5 240z" />
    <glyph glyph-name="e" unicode="e" horiz-adv-x="1015" 
d="M934 469h-690q-3 -93 37 -174t116.5 -131.5t173.5 -50.5q90 0 154 16t129 59v-151q-23 -3 -67 -17t-103.5 -25t-136.5 -11q-201 0 -334 136t-133 337q0 205 125.5 341t308.5 136q82 0 153.5 -29t120 -74.5t83.5 -103t51 -115t16 -108.5q0 -23 -4 -35zM514 815
q-98 0 -169 -65.5t-97 -167.5h522q-10 87 -81.5 160t-174.5 73z" />
    <glyph glyph-name="f" unicode="f" horiz-adv-x="598" 
d="M43 788v132h158v194q0 193 83.5 297.5t231.5 104.5q41 0 95 -9t77 -10v-162q-43 49 -141 49q-89 0 -139 -69t-50 -195v-200h201v-132h-201v-577q0 -125 7 -211h-170q6 147 6 211v577h-158z" />
    <glyph glyph-name="g" unicode="g" horiz-adv-x="1011" 
d="M797 920h135q0 -101 -90 -164q55 -76 55 -189q0 -154 -114.5 -262t-278.5 -108q-49 0 -108 19.5t-77 19.5q-30 0 -52.5 -30.5t-22.5 -78.5q0 -40 29.5 -72t68.5 -32q9 0 63.5 8t98.5 8q125 0 229.5 -36.5t167 -105t62.5 -155.5q0 -79 -62.5 -145.5t-169 -105
t-231.5 -38.5q-192 0 -326.5 81.5t-134.5 203.5q0 135 160 215q-47 16 -76 65.5t-29 100.5q0 56 37 108.5t98 73.5q-116 107 -116 266q0 153 113.5 261t277.5 108q147 0 258 -100q35 32 35 84zM272 567q0 -100 68 -171.5t162 -71.5q97 0 166 71.5t69 171.5t-69 170t-166 70
q-94 0 -162 -70.5t-68 -169.5zM199 -260q0 -73 87.5 -123.5t213.5 -50.5q125 0 212 49t87 121q0 71 -89.5 121.5t-215.5 50.5q-122 0 -208.5 -49t-86.5 -119z" />
    <glyph glyph-name="h" unicode="h" horiz-adv-x="1024" 
d="M735 211v324q0 125 -57 197.5t-158 72.5q-105 0 -163 -75.5t-58 -194.5v-324q0 -143 8 -211h-174q8 68 8 211v1194h-94q12 15 32 53.5t23 44.5h205q-8 -71 -8 -211v-512q42 74 113 115t161 41q156 0 238 -110.5t82 -295.5v-319q0 -143 8 -211h-174q8 102 8 211z" />
    <glyph glyph-name="i" unicode="i" horiz-adv-x="448" 
d="M307 709v-496q0 -151 6 -213h-172q6 68 6 213v608h-94q25 28 60 99h200q-6 -70 -6 -211zM131 1198q0 41 27 68.5t67 27.5t67 -27.5t27 -68.5q0 -38 -27 -65t-67 -27t-67 27t-27 65z" />
    <glyph glyph-name="j" unicode="j" horiz-adv-x="448" 
d="M307 709v-836q0 -192 -78 -296.5t-221 -104.5q-47 0 -94.5 7t-50.5 7v147q31 -28 102 -28q84 0 133 69.5t49 202.5v944h-94q34 49 58 99h202q-6 -76 -6 -211zM131 1200q0 40 27 67t65 27q40 0 67 -27t27 -67t-27 -67t-67 -27q-38 0 -65 27t-27 67z" />
    <glyph glyph-name="k" unicode="k" horiz-adv-x="909" 
d="M299 1292v-805q191 229 252 305t96 128h182q-75 -75 -374 -435q209 -238 288.5 -322.5t165.5 -162.5h-217q-44 57 -393 440v-229q0 -141 6 -211h-172q8 63 8 211v1194h-94q31 45 53 98h205q-6 -71 -6 -211z" />
    <glyph glyph-name="l" unicode="l" horiz-adv-x="440" 
d="M299 1292v-1081q0 -141 6 -211h-172q8 63 8 211v1194h-94q31 45 53 98h205q-6 -71 -6 -211z" />
    <glyph glyph-name="m" unicode="m" horiz-adv-x="1521" 
d="M682 0q6 80 6 213v348q0 246 -188 246q-80 0 -136.5 -67t-56.5 -187v-340q0 -139 6 -213h-170q4 98 4 213v608h-94q39 53 60 99h194v-138q34 71 98.5 112.5t153.5 41.5q201 0 258 -180q30 80 98.5 130t167.5 50q146 0 226 -96t80 -277v-350q0 -131 6 -213h-172
q6 88 6 213v332q0 262 -189 262q-81 0 -136.5 -68.5t-55.5 -183.5v-342q0 -137 6 -213h-172z" />
    <glyph glyph-name="n" unicode="n" horiz-adv-x="1030" 
d="M741 537q0 132 -61 201t-154 69q-96 0 -157.5 -71t-61.5 -187v-336q0 -125 6 -213h-172q6 88 6 213v608h-94q28 37 60 99h194v-142q35 67 107.5 112.5t167.5 45.5q150 0 233.5 -104.5t83.5 -296.5v-322q0 -134 8 -213h-172q6 88 6 213v324z" />
    <glyph glyph-name="o" unicode="o" horiz-adv-x="1107" 
d="M80 459q0 97 37.5 185.5t101 152.5t151 101.5t183.5 37.5q97 0 184.5 -37.5t151.5 -101.5t101.5 -152.5t37.5 -185.5q0 -96 -37.5 -184t-101.5 -151t-151.5 -100.5t-184.5 -37.5q-195 0 -334 138.5t-139 334.5zM233 459q0 -139 93 -236.5t227 -97.5q133 0 227 98t94 236
q0 140 -94 239t-227 99t-226.5 -99t-93.5 -239z" />
    <glyph glyph-name="p" unicode="p" horiz-adv-x="1179" 
d="M147 -307v1128h-94q31 39 58 99h196v-193q55 98 143.5 153.5t198.5 55.5q124 0 228.5 -64t163.5 -173t59 -236q0 -200 -132.5 -338.5t-322.5 -138.5q-110 0 -200 48t-138 140v-481q0 -132 8 -211h-174q6 89 6 211zM301 459q0 -140 93.5 -240t223.5 -100q131 0 225.5 100
t94.5 240q0 141 -95 241.5t-229 100.5q-129 0 -221 -100.5t-92 -241.5z" />
    <glyph glyph-name="q" unicode="q" horiz-adv-x="1173" 
d="M1032 -285q0 -140 8 -233h-174q8 88 8 239v461q-51 -96 -142 -146t-204 -50q-186 0 -317 137.5t-131 335.5t130.5 337.5t317.5 139.5q116 0 204.5 -49t141.5 -142v35q0 82 -6 140h170q-6 -74 -6 -234v-971zM883 459q0 141 -94.5 241.5t-225.5 100.5q-133 0 -227 -99
t-94 -239q0 -143 95 -243.5t230 -100.5q129 0 222.5 100t93.5 240z" />
    <glyph glyph-name="r" unicode="r" horiz-adv-x="706" 
d="M547 936q35 0 67 -5t43 -5v-174q-55 34 -133 34q-84 0 -147.5 -87.5t-63.5 -198.5v-289q0 -106 9 -211h-172q6 105 6 211v610h-95q35 44 56 99h184v-209q26 102 94.5 163.5t151.5 61.5z" />
    <glyph glyph-name="s" unicode="s" horiz-adv-x="731" 
d="M276 700q0 -36 20 -66t52.5 -53t71 -46t77.5 -50t71.5 -59.5t52.5 -81.5t20 -108q0 -116 -79.5 -188.5t-213.5 -72.5q-47 0 -96.5 11t-95 25.5t-62.5 17.5v198q30 -56 103 -93.5t143 -37.5q64 0 102.5 35t38.5 94q0 37 -20 69t-52 56t-71 48t-78 51t-71 58.5t-52 78
t-20 102.5q0 111 77 179.5t212 68.5q50 0 118.5 -17t85.5 -18v-178q-23 42 -84.5 69t-113.5 27q-66 0 -101 -33.5t-35 -85.5z" />
    <glyph glyph-name="t" unicode="t" horiz-adv-x="643" 
d="M178 1155h170q-6 -73 -6 -182v-53h256v-132h-256v-462q0 -209 147 -209q56 0 80 24v-147q-13 0 -54 -5t-66 -5q-117 0 -191 75.5t-74 235.5v493h-145v132h145v53q0 109 -6 182z" />
    <glyph glyph-name="u" unicode="u" horiz-adv-x="1036" 
d="M303 369q0 -127 62.5 -191.5t150.5 -64.5q97 0 158 74t61 186v336q0 123 -6 211h172q-8 -79 -8 -211v-506q0 -130 31 -203h-154q-28 55 -31 141q-87 -157 -274 -157q-143 0 -232.5 96.5t-89.5 273.5v467h-94q28 30 57 99h201q-4 -118 -4 -211v-340z" />
    <glyph glyph-name="v" unicode="v" horiz-adv-x="903" 
d="M2 920h193q15 -57 49 -132l219 -528l199 490q41 96 59 170h178q-68 -125 -108 -218l-320 -733h-35l-327 742q-55 126 -107 209z" />
    <glyph glyph-name="w" unicode="w" horiz-adv-x="1355" 
d="M647 922h76l246 -648l172 504q37 117 41 142h172q-48 -99 -92 -220l-269 -731h-39l-276 707l-258 -707h-41l-287 742q-61 152 -88 209h189q28 -111 57 -185l166 -461z" />
    <glyph glyph-name="x" unicode="x" horiz-adv-x="802" 
d="M532 133l-133 213l-88 -141q-76 -119 -114 -205h-191q66 86 152 221l155 238l-159 254q-63 108 -138 207h195q36 -77 88 -168l109 -177l110 179q60 96 92 166h185q-71 -92 -146 -207l-155 -250l151 -242q91 -146 156 -221h-195q-36 73 -74 133z" />
    <glyph glyph-name="y" unicode="y" horiz-adv-x="940" 
d="M264 -391q-46 -75 -95 -106t-116 -31q-27 0 -51 6q55 67 129 178q3 4 43 66t50.5 79t45 71.5t52.5 85t44.5 76t47.5 85.5l-299 592q-72 137 -113 209h193q18 -58 67 -158l236 -467q111 235 198 453q41 105 62 172h182q-24 -43 -100 -218q-171 -394 -279 -591
q-84 -163 -297 -502z" />
    <glyph glyph-name="z" unicode="z" horiz-adv-x="819" 
d="M770 920l-485 -789h307q98 0 168 6v-143q-68 6 -170 6h-545l483 786h-288q-98 0 -168 -6v146q67 -6 170 -6h528z" />
    <glyph glyph-name="braceleft" unicode="{" horiz-adv-x="704" 
d="M662 1507v-121q-39 5 -95 5q-79 0 -136.5 -69.5t-57.5 -166.5q0 -69 7 -167t7 -165q0 -57 -17.5 -104.5t-46 -76.5t-54.5 -46.5t-52 -26.5q25 -7 51 -22.5t54.5 -43t46.5 -72.5t18 -101q0 -72 -7 -177t-7 -176q0 -108 57 -172.5t137 -64.5q57 0 95 6v-123q-54 4 -140 4
q-121 0 -208 91.5t-87 250.5q0 66 8.5 166.5t8.5 177.5q0 101 -59 148t-150 47v123q91 0 150 50.5t59 160.5q0 65 -8.5 159.5t-8.5 161.5q0 146 85.5 243t209.5 97q70 0 140 4z" />
    <glyph glyph-name="bar" unicode="|" horiz-adv-x="417" 
d="M274 -379h-133l2 1895h133z" />
    <glyph glyph-name="braceright" unicode="}" horiz-adv-x="704" 
d="M180 -373q-69 0 -139 -4v123q55 -6 94 -6q80 0 136.5 64.5t56.5 172.5q0 71 -7.5 176.5t-7.5 176.5q0 56 18 101t46.5 72.5t55 43t52.5 22.5q-26 9 -53 26.5t-55.5 46.5t-46 76.5t-17.5 104.5q0 67 7.5 165t7.5 167q0 98 -57 167t-136 69q-58 0 -94 -5v121q37 -4 139 -4
q123 0 207 -97t84 -243q0 -67 -7 -161.5t-7 -159.5q0 -110 59.5 -160.5t149.5 -50.5v-123q-89 0 -149 -47t-60 -148q0 -77 7 -177.5t7 -166.5q0 -159 -85.5 -250.5t-205.5 -91.5z" />
    <glyph glyph-name="asciitilde" unicode="~" horiz-adv-x="1060" 
d="M215 328h-137q6 141 80 230t188 89q53 0 96 -20t71 -48t53.5 -56t57 -48t68.5 -20q67 0 106.5 50t45.5 132h139q-6 -140 -84.5 -229t-198.5 -89q-55 0 -98 19.5t-70.5 47.5t-52 55.5t-56 47t-69.5 19.5q-61 0 -97 -49.5t-42 -130.5z" />
    <glyph glyph-name="uni00A0" unicode="&#xa0;" horiz-adv-x="444" 
 />
    <glyph glyph-name="exclamdown" unicode="&#xa1;" horiz-adv-x="641" 
d="M305 303v-530q0 -136 8 -222h-174q6 71 6 222v530q0 147 -6 221h174q-8 -98 -8 -221zM332 834q0 -44 -30 -74.5t-73 -30.5q-44 0 -74 30.5t-30 74.5q0 42 30 72t74 30q43 0 73 -30t30 -72z" />
    <glyph glyph-name="cent" unicode="&#xa2;" horiz-adv-x="1050" 
d="M682 -96h-94v135q-181 22 -299.5 154.5t-118.5 314.5q0 183 119 319t299 156v158h94v-156q37 -2 93.5 -12t82.5 -12v-179q-73 64 -201 64q-135 0 -229 -99t-94 -239q0 -138 94.5 -235t228.5 -97q73 0 121 14.5t86 49.5v-179q-16 -3 -43.5 -7.5t-44 -7.5t-42.5 -5.5
t-52 -3.5v-133z" />
    <glyph glyph-name="sterling" unicode="&#xa3;" horiz-adv-x="1060" 
d="M180 670v106h168l8 76q14 148 52 253.5t98.5 167t135.5 89t171 27.5q42 0 98 -11t66 -12v-162q-51 51 -164 51q-126 0 -200.5 -93t-96.5 -310l-8 -76h274v-106h-282l-8 -107q-31 -349 -181 -436h404q149 0 213 6v-139q-74 6 -215 6h-666v127q45 0 81 11t71 40t60 77.5
t44.5 126t28.5 181.5l10 107h-162z" />
    <glyph glyph-name="currency" unicode="&#xa4;" horiz-adv-x="1060" 
d="M123 193l-84 79l158 158q-84 112 -84 242q0 126 84 241l-166 162l84 82l161 -160q50 40 118 64t136 24q139 0 250 -86l156 154l84 -80l-154 -160q84 -115 84 -241q0 -136 -84 -244l156 -160l-84 -82l-158 160q-49 -37 -116 -61.5t-134 -24.5q-148 0 -251 86zM254 674
q0 -118 81 -200.5t195 -82.5q116 0 196.5 82.5t80.5 200.5q0 117 -80.5 198.5t-196.5 81.5q-114 0 -195 -81.5t-81 -198.5z" />
    <glyph glyph-name="yen" unicode="&#xa5;" horiz-adv-x="1060" 
d="M436 0q8 126 8 274v127h-260v88h260v109h-260v88h260v49l-301 463q-96 144 -129 174h199q13 -31 90 -149l232 -340l206 303q104 155 119 186h187q-67 -76 -168 -235l-269 -406v-45h264v-88h-264v-109h264v-88h-264v-127q0 -148 8 -274h-182z" />
    <glyph glyph-name="brokenbar" unicode="&#xa6;" horiz-adv-x="415" 
d="M274 758h-133v758h133v-758zM274 379v-758h-133v758h133z" />
    <glyph glyph-name="section" unicode="&#xa7;" horiz-adv-x="974" 
d="M780 1376v-155q-38 44 -106 67t-146 23q-95 0 -143.5 -42t-48.5 -114q0 -45 29 -82t75.5 -63.5t103 -52.5t113 -56.5t103 -67t75.5 -93t29 -126.5q0 -132 -143 -237q98 -77 98 -211q0 -143 -100.5 -216t-261.5 -73q-67 0 -121.5 10.5t-103.5 26.5t-72 20v183
q42 -61 125 -93t168 -32q98 0 155.5 43t57.5 125q0 55 -31 97t-80.5 70t-109.5 53t-120 53.5t-109.5 63t-80.5 89t-31 125.5q0 73 47.5 139t135.5 100q-38 26 -75.5 82t-37.5 121q0 130 89 202t245 72q63 0 109.5 -7.5t96 -23.5t66.5 -20zM246 733q0 -48 25.5 -85.5
t71 -64.5t92 -48.5t104 -48t92.5 -50.5q90 69 90 164q0 49 -24 89t-67 69t-85 50t-94.5 45t-79.5 40q-57 -21 -91 -66t-34 -94z" />
    <glyph glyph-name="dieresis" unicode="&#xa8;" horiz-adv-x="946" 
d="M195 1200q0 36 26 61t62 25t61 -25t25 -61q0 -35 -25.5 -60.5t-60.5 -25.5t-61.5 25.5t-26.5 60.5zM578 1200q0 37 25.5 61.5t62.5 24.5q35 0 59.5 -24.5t24.5 -61.5q0 -35 -24.5 -60.5t-59.5 -25.5q-37 0 -62.5 25.5t-25.5 60.5z" />
    <glyph glyph-name="copyright" unicode="&#xa9;" horiz-adv-x="1415" 
d="M84 645q0 170 83.5 315t227 229.5t312.5 84.5q127 0 243 -50t199.5 -134.5t132.5 -200.5t49 -244q0 -129 -49 -246t-132.5 -202t-199.5 -135t-243 -50q-169 0 -312.5 84.5t-227 230.5t-83.5 318zM184 645q0 -147 70 -271t190.5 -196t262.5 -72t263 72t191 196t70 271
q0 109 -41.5 208t-111.5 170.5t-167.5 114t-203.5 42.5q-142 0 -262.5 -71.5t-190.5 -195t-70 -268.5zM522 645q0 -102 69.5 -174t168.5 -72q106 0 162 47v-145q-18 -2 -49 -7t-59.5 -8t-61.5 -3q-150 0 -253.5 105.5t-103.5 256.5q0 152 103.5 258.5t253.5 106.5
q44 0 96.5 -10t69.5 -11v-147q-57 51 -158 51q-98 0 -168 -73t-70 -175z" />
    <glyph glyph-name="ordfeminine" unicode="&#xaa;" horiz-adv-x="575" 
d="M223 1059q-80 0 -133 -49v108q5 1 56.5 17t97.5 16q127 0 184 -61.5t57 -192.5v-182q0 -31 10 -45.5t23 -14.5q20 0 31 7v-50q-21 -21 -38 -30t-48 -9q-33 0 -56 18.5t-26 49.5q-44 -68 -143 -68q-86 0 -137.5 45t-51.5 117q0 73 53 122.5t142 49.5q46 0 80.5 -15.5
t48.5 -39.5v53q0 68 -37.5 111t-112.5 43zM170 741q0 -37 27.5 -60.5t76.5 -23.5q42 0 72.5 24.5t30.5 59.5q0 34 -30 58t-73 24q-49 0 -76.5 -23.5t-27.5 -58.5z" />
    <glyph glyph-name="guillemotleft" unicode="&#xab;" horiz-adv-x="1179" 
d="M268 459l310 -254v-156l-484 397v27l479 399v-155zM686 459l309 -254v-156l-483 397v27l479 399v-155z" />
    <glyph glyph-name="logicalnot" unicode="&#xac;" horiz-adv-x="1060" 
d="M918 250h-152v315h-717v127h869v-442z" />
    <glyph glyph-name="uni00AD" unicode="&#xad;" horiz-adv-x="634" 
d="M66 553h501v-143h-501v143z" />
    <glyph glyph-name="registered" unicode="&#xae;" horiz-adv-x="845" 
d="M129 1204q0 123 86.5 210t210.5 87q123 0 210 -87t87 -210q0 -125 -87 -213t-210 -88q-124 0 -210.5 88t-86.5 213zM193 1204q0 -99 68.5 -170t164.5 -71t163.5 70.5t67.5 170.5q0 99 -67.5 168.5t-163.5 69.5q-95 0 -164 -70t-69 -168zM385 1169v-63q0 -54 2 -70h-68
q5 40 5 76v170q0 60 -5 90h95q55 0 86.5 -28t31.5 -72q0 -33 -20 -58t-51 -34q55 -81 114 -144h-88l-79 133h-23zM385 1327v-110h31q27 0 43.5 15t15.5 38q0 27 -16 42t-43 15h-31z" />
    <glyph glyph-name="macron" unicode="&#xaf;" horiz-adv-x="946" 
d="M225 1231h496v-113h-496v113z" />
    <glyph glyph-name="degree" unicode="&#xb0;" horiz-adv-x="645" 
d="M78 1149q0 104 71.5 177t174.5 73q100 0 171.5 -73t71.5 -177q0 -101 -71.5 -174.5t-171.5 -73.5q-102 0 -174 73t-72 175zM182 1149q0 -63 41.5 -105.5t100.5 -42.5q58 0 98.5 43t40.5 105q0 61 -41 105t-98 44q-59 0 -100.5 -44t-41.5 -105z" />
    <glyph glyph-name="plusminus" unicode="&#xb1;" horiz-adv-x="1060" 
d="M602 1116v-356h338v-127h-338v-357h-143v357h-338v127h338v356h143zM121 0v127h819v-127h-819z" />
    <glyph glyph-name="twosuperior" unicode="&#xb2;" horiz-adv-x="673" 
d="M80 918v59q7 6 48 44t53.5 50t50 48.5t52.5 54.5t44 52t42 57t29.5 53.5t22.5 57.5t6 54q0 67 -44.5 114.5t-109.5 47.5q-58 0 -105 -25.5t-73 -66.5v149q7 1 77.5 27t133.5 26q114 0 184 -73t68 -183q0 -53 -22 -107.5t-66.5 -110t-86 -98.5t-104.5 -105
q-12 -11 -18 -17h152q116 0 174 6v-119q-54 5 -195 5h-313z" />
    <glyph glyph-name="threesuperior" unicode="&#xb3;" horiz-adv-x="673" 
d="M281 1616q-102 0 -164 -62v127q4 1 40 13t70 18t74 6q106 0 174 -54.5t68 -145.5q0 -70 -41 -117.5t-107 -69.5q72 -16 121 -67t49 -125q0 -104 -74 -167t-192 -63q-41 0 -77 7t-72.5 18.5t-43.5 13.5v127q23 -30 71.5 -46.5t105.5 -16.5q66 0 109.5 37.5t43.5 99.5
q0 58 -46.5 96.5t-113.5 38.5q-8 0 -18 -1t-14 -1v98q20 -4 32 -4q61 0 100.5 34t39.5 87t-38.5 86t-96.5 33z" />
    <glyph glyph-name="acute" unicode="&#xb4;" horiz-adv-x="946" 
d="M500 1049l209 311h161l-231 -311h-139z" />
    <glyph glyph-name="mu" unicode="&#xb5;" 
d="M299 367q2 -116 54.5 -183t162.5 -67q99 0 158 78.5t59 181.5v332q0 132 -8 211h172q-6 -88 -6 -211v-473q0 -76 11.5 -105t41.5 -29q32 0 43 11v-101q-1 0 -8 -4.5t-9.5 -6t-10.5 -5.5t-13.5 -6t-15 -5t-17.5 -4.5t-19.5 -2.5t-23.5 -1q-57 0 -88 39.5t-37 147.5
q-83 -180 -256 -180q-145 0 -217 108q21 -135 21 -424q0 -75 6 -198h-164q6 68 6 211v1032q0 126 -8 207h172q-6 -88 -6 -211v-342z" />
    <glyph glyph-name="paragraph" unicode="&#xb6;" horiz-adv-x="1042" 
d="M795 -174h-179q5 318 5 362v224h-19q-225 0 -368.5 144t-143.5 351q0 99 35 188t99 158t164 109.5t222 40.5h346v-139h-168v-1076q0 -143 7 -362z" />
    <glyph glyph-name="periodcentered" unicode="&#xb7;" horiz-adv-x="415" 
d="M96 492q0 46 33.5 79t79.5 33t78 -33t32 -79q0 -47 -32 -81t-78 -34t-79.5 34t-33.5 81z" />
    <glyph glyph-name="cedilla" unicode="&#xb8;" horiz-adv-x="946" 
d="M307 -186l111 186h92l-59 -94q64 -8 104.5 -48.5t40.5 -109.5q0 -76 -53.5 -123t-141.5 -47q-20 0 -40.5 3.5t-30 6.5t-28.5 10l-19 7v104q14 -18 44 -31.5t64 -13.5q40 0 66 21.5t26 56.5q0 38 -28.5 61t-77.5 23q-51 0 -70 -12z" />
    <glyph glyph-name="onesuperior" unicode="&#xb9;" horiz-adv-x="544" 
d="M373 1577v-530q0 -79 4 -129h-131q2 27 2 129v528q-57 -21 -156 -66v105q31 11 111.5 46t122.5 56h51q-4 -29 -4 -139z" />
    <glyph glyph-name="ordmasculine" unicode="&#xba;" horiz-adv-x="684" 
d="M45 862q0 119 87 204t208 85q124 0 211.5 -84.5t87.5 -204.5q0 -119 -87.5 -204t-211.5 -85q-121 0 -208 85t-87 204zM162 862q0 -78 51.5 -133t126.5 -55t128.5 55t53.5 133t-53.5 133.5t-128.5 55.5t-126.5 -55.5t-51.5 -133.5z" />
    <glyph glyph-name="guillemotright" unicode="&#xbb;" horiz-adv-x="1179" 
d="M492 463l-310 254v155l484 -397v-26l-480 -400v156zM911 463l-309 254v155l483 -397v-26l-479 -400v156z" />
    <glyph glyph-name="onequarter" unicode="&#xbc;" horiz-adv-x="1476" 
d="M399 1243v-530q0 -79 4 -129h-131q2 27 2 129v528q-63 -23 -155 -65v104q31 11 110.5 45.5t122.5 56.5h51q-4 -29 -4 -139zM315 0h-120l895 1372h120zM780 276l434 527h48q0 -14 -1 -65.5t-1 -80.5v-340q112 0 139 2v-100q-29 4 -139 4v-98q0 -67 4 -125h-129q4 31 4 125
v98h-219q-99 0 -140 -2v55zM1139 608l-234 -291h234v291z" />
    <glyph glyph-name="onehalf" unicode="&#xbd;" horiz-adv-x="1476" 
d="M399 1243v-530q0 -79 4 -129h-131q2 27 2 129v528q-63 -23 -155 -65v104q31 11 110.5 45.5t122.5 56.5h51q-4 -29 -4 -139zM315 0h-120l895 1372h120zM915 0v59q9 8 48.5 44.5t53.5 50t50 48.5t52.5 54t44.5 52t41.5 57t29.5 53.5t22.5 57t6.5 54.5q0 67 -44.5 114.5
t-109.5 47.5q-58 0 -105 -25.5t-73 -66.5v150q7 1 77.5 27t133.5 26q114 0 184 -73t68 -183q0 -53 -22 -107.5t-66.5 -110t-86 -98.5t-104.5 -105q-12 -11 -18 -17h151q116 0 174 6v-119q-43 4 -194 4h-314z" />
    <glyph glyph-name="threequarters" unicode="&#xbe;" horiz-adv-x="1476" 
d="M268 1282q-103 0 -164 -61v127q2 1 40 12.5t71.5 17.5t73.5 6q106 0 173.5 -54.5t67.5 -145.5q0 -70 -40.5 -117.5t-106.5 -69.5q72 -16 121 -67t49 -125q0 -104 -74 -167t-192 -63q-41 0 -77 7t-72.5 18.5t-43.5 13.5v127q23 -30 71 -46.5t105 -16.5q66 0 110 37.5
t44 99.5q0 58 -46.5 96.5t-113.5 38.5q-8 0 -18 -1t-15 -1v99q25 -5 33 -5q60 0 99.5 33.5t39.5 87.5q0 53 -38.5 86t-96.5 33zM375 0h-121l895 1372h121zM788 276l435 527h47q0 -14 -1 -65.5t-1 -80.5v-340q112 0 139 2v-100q-29 4 -139 4v-98q0 -67 4 -125h-129
q4 31 4 125v98h-219q-99 0 -140 -2v55zM1147 608l-234 -291h234v291z" />
    <glyph glyph-name="questiondown" unicode="&#xbf;" horiz-adv-x="923" 
d="M563 -299q119 0 215 61v-157q-17 -3 -60.5 -16t-92 -22t-99.5 -9q-168 0 -269 100.5t-101 259.5q0 133 69 237t250 230q-11 81 -33 176h162q1 -14 37 -223q-187 -131 -250 -211.5t-63 -185.5q0 -102 65.5 -171t169.5 -69zM600 834q0 -43 -29.5 -73t-70.5 -30
q-43 0 -74 30t-31 73q0 42 31 72t74 30q41 0 70.5 -29.5t29.5 -72.5z" />
    <glyph glyph-name="Agrave" unicode="&#xc0;" horiz-adv-x="1320" 
d="M1321 0h-213q-24 70 -92 231l-103 244h-534l-100 -239q-76 -183 -91 -236h-188q85 159 147 311l484 1119h47l489 -1119q76 -172 154 -311zM856 612l-211 516l-211 -516h422zM506 1735l264 -230h-164l-299 230h199z" />
    <glyph glyph-name="Aacute" unicode="&#xc1;" horiz-adv-x="1320" 
d="M1321 0h-213q-24 70 -92 231l-103 244h-534l-100 -239q-76 -183 -91 -236h-188q85 159 147 311l484 1119h47l489 -1119q76 -172 154 -311zM856 612l-211 516l-211 -516h422zM545 1505l262 230h199l-299 -230h-162z" />
    <glyph glyph-name="Acircumflex" unicode="&#xc2;" horiz-adv-x="1320" 
d="M1321 0h-213q-24 70 -92 231l-103 244h-534l-100 -239q-76 -183 -91 -236h-188q85 159 147 311l484 1119h47l489 -1119q76 -172 154 -311zM856 612l-211 516l-211 -516h422zM657 1638l-161 -151h-156l303 272h33l303 -272h-164z" />
    <glyph glyph-name="Atilde" unicode="&#xc3;" horiz-adv-x="1320" 
d="M1321 0h-213q-24 70 -92 231l-103 244h-534l-100 -239q-76 -183 -91 -236h-188q85 159 147 311l484 1119h47l489 -1119q76 -172 154 -311zM856 612l-211 516l-211 -516h422zM420 1516h-115q-3 95 55.5 156t159.5 61q45 0 79.5 -12.5t55.5 -29.5t40 -34.5t43.5 -30
t54.5 -12.5q43 0 70.5 28.5t27.5 77.5h117q0 -97 -58.5 -156t-156.5 -59q-44 0 -78 12t-55 28.5t-40 33.5t-44 29t-56 12q-45 0 -72.5 -30t-27.5 -74z" />
    <glyph glyph-name="Adieresis" unicode="&#xc4;" horiz-adv-x="1320" 
d="M1321 0h-213q-24 70 -92 231l-103 244h-534l-100 -239q-76 -183 -91 -236h-188q85 159 147 311l484 1119h47l489 -1119q76 -172 154 -311zM856 612l-211 516l-211 -516h422zM367 1614q0 38 28 65t66 27q40 0 67 -27t27 -65t-27 -65t-67 -27q-38 0 -66 27t-28 65z
M754 1614q0 38 28.5 65t67.5 27q38 0 65 -27t27 -65t-27 -65t-65 -27q-39 0 -67.5 27t-28.5 65z" />
    <glyph glyph-name="Aring" unicode="&#xc5;" horiz-adv-x="1320" 
d="M471 1595q0 74 54.5 125.5t129.5 51.5q76 0 131.5 -51.5t55.5 -125.5q0 -65 -47 -115t-115 -59l487 -1110q76 -172 154 -311h-213q-24 70 -92 231l-103 244h-534l-100 -239q-76 -183 -91 -236h-188q85 159 147 311l480 1112q-65 9 -110.5 58t-45.5 114zM856 612l-211 516
l-211 -516h422zM561 1595q0 -40 28 -68t66 -28q40 0 68.5 28t28.5 68q0 41 -28.5 70t-68.5 29q-38 0 -66 -29t-28 -70z" />
    <glyph glyph-name="AE" unicode="&#xc6;" horiz-adv-x="1710" 
d="M1341 0h-399l-31 250l-37 237h-430l-133 -258q-74 -133 -114 -229h-197q57 79 178 309l588 1094h377q167 0 303 8v-154q-91 9 -281 9h-258l80 -531h238q175 0 270 6v-151q-91 6 -250 6h-229l69 -457h252q195 0 283 6v-149q-59 4 -279 4zM772 1137l-264 -512h340z" />
    <glyph glyph-name="Ccedilla" unicode="&#xc7;" horiz-adv-x="1294" 
d="M698 -190l101 170q-200 10 -362.5 108.5t-254.5 260.5t-92 353q0 148 58 282.5t157 232.5t238.5 155.5t296.5 57.5q58 0 114.5 -7t89.5 -15t87 -22.5t77 -19.5v-197q-133 111 -358 111q-161 0 -297 -77.5t-214.5 -210.5t-78.5 -290q0 -118 46.5 -225t125.5 -184.5
t189 -123.5t231 -46q239 0 371 115v-193q-187 -58 -330 -65l-47 -74q65 -8 106 -50t41 -112q0 -77 -53.5 -124.5t-142.5 -47.5q-25 0 -48.5 5t-45 13t-27.5 9v108q14 -18 45 -31.5t65 -13.5q40 0 66.5 21.5t26.5 54.5q0 39 -29 61.5t-80 22.5q-50 0 -72 -12z" />
    <glyph glyph-name="Egrave" unicode="&#xc8;" horiz-adv-x="944" 
d="M485 1266h-163v-447h161q225 0 320 6v-151q-94 6 -320 6h-161v-541h180q254 0 346 6v-151q-92 6 -346 6h-355q9 254 9 367v671q0 228 -9 365h338q220 0 346 8v-154q-95 9 -346 9zM324 1735l264 -230h-164l-299 230h199z" />
    <glyph glyph-name="Eacute" unicode="&#xc9;" horiz-adv-x="944" 
d="M485 1266h-163v-447h161q225 0 320 6v-151q-94 6 -320 6h-161v-541h180q254 0 346 6v-151q-92 6 -346 6h-355q9 254 9 367v671q0 228 -9 365h338q220 0 346 8v-154q-95 9 -346 9zM367 1505l262 230h198l-299 -230h-161z" />
    <glyph glyph-name="Ecircumflex" unicode="&#xca;" horiz-adv-x="944" 
d="M485 1266h-163v-447h161q225 0 320 6v-151q-94 6 -320 6h-161v-541h180q254 0 346 6v-151q-92 6 -346 6h-355q9 254 9 367v671q0 228 -9 365h338q220 0 346 8v-154q-95 9 -346 9zM483 1638l-161 -151h-156l303 272h33l303 -272h-164z" />
    <glyph glyph-name="Edieresis" unicode="&#xcb;" horiz-adv-x="944" 
d="M485 1266h-163v-447h161q225 0 320 6v-151q-94 6 -320 6h-161v-541h180q254 0 346 6v-151q-92 6 -346 6h-355q9 254 9 367v671q0 228 -9 365h338q220 0 346 8v-154q-95 9 -346 9zM201 1614q0 38 28 65t66 27q40 0 67 -27t27 -65t-27 -65t-67 -27q-38 0 -66 27t-28 65z
M588 1614q0 38 28.5 65t67.5 27q38 0 65 -27t27 -65t-27 -65t-65 -27q-39 0 -67.5 27t-28.5 65z" />
    <glyph glyph-name="Igrave" unicode="&#xcc;" horiz-adv-x="493" 
d="M330 1036v-669q0 -241 8 -367h-182q8 126 8 367v669q0 245 -8 367h182q-8 -122 -8 -367zM100 1735l265 -230h-164l-299 230h198z" />
    <glyph glyph-name="Iacute" unicode="&#xcd;" horiz-adv-x="493" 
d="M330 1036v-669q0 -241 8 -367h-182q8 126 8 367v669q0 245 -8 367h182q-8 -122 -8 -367zM133 1505l262 230h199l-299 -230h-162z" />
    <glyph glyph-name="Icircumflex" unicode="&#xce;" horiz-adv-x="493" 
d="M330 1036v-669q0 -241 8 -367h-182q8 126 8 367v669q0 245 -8 367h182q-8 -122 -8 -367zM246 1638l-162 -151h-156l303 272h33l303 -272h-164z" />
    <glyph glyph-name="Idieresis" unicode="&#xcf;" horiz-adv-x="493" 
d="M330 1036v-669q0 -241 8 -367h-182q8 126 8 367v669q0 245 -8 367h182q-8 -122 -8 -367zM-41 1614q0 38 28 65t66 27q40 0 67 -27t27 -65t-27 -65t-67 -27q-38 0 -66 27t-28 65zM346 1614q0 38 28.5 65t67.5 27q38 0 65.5 -27t27.5 -65t-27.5 -65t-65.5 -27
q-39 0 -67.5 27t-28.5 65z" />
    <glyph glyph-name="Eth" unicode="&#xd0;" horiz-adv-x="1441" 
d="M645 0h-395q10 105 10 367v264h-219v123h219v282q0 265 -10 367h395q190 0 352.5 -94t257.5 -255.5t95 -351.5t-95 -352t-257.5 -256t-352.5 -94zM426 1266v-512h313v-123h-313v-494h209q149 0 274.5 77t198 207t72.5 281t-72.5 281t-198.5 206.5t-276 76.5h-207z" />
    <glyph glyph-name="Ntilde" unicode="&#xd1;" horiz-adv-x="1427" 
d="M313 295q0 -167 9 -295h-175q9 128 9 297v741q0 146 -9 396h39q59 -74 168 -195l758 -901v698q0 109 -6 367h172q-6 -135 -6 -367v-764q0 -178 6 -297h-37q-64 83 -151 183l-773 917zM477 1516h-115q-3 95 56 156t160 61q45 0 79 -12.5t55.5 -29.5t40 -34.5t43 -30
t54.5 -12.5q43 0 70.5 28.5t27.5 77.5h117q0 -97 -58.5 -156t-156.5 -59q-44 0 -78 12t-55 28.5t-40 33.5t-43.5 29t-55.5 12q-45 0 -73 -30t-28 -74z" />
    <glyph glyph-name="Ograve" unicode="&#xd2;" horiz-adv-x="1630" 
d="M90 702q0 147 56.5 281t153 231.5t231.5 155t284 57.5t284 -57.5t231.5 -155t153 -231.5t56.5 -281q0 -198 -96 -365t-263 -264.5t-366 -97.5t-366 97.5t-263 264.5t-96 365zM260 702q0 -119 44 -227.5t118 -186t177 -123.5t216 -46t216 46t177 123.5t118 186t44 227.5
q0 158 -74 292t-202 212t-279 78t-279 -78t-202 -212t-74 -292zM670 1735l264 -230h-164l-299 230h199z" />
    <glyph glyph-name="Oacute" unicode="&#xd3;" horiz-adv-x="1630" 
d="M90 702q0 147 56.5 281t153 231.5t231.5 155t284 57.5t284 -57.5t231.5 -155t153 -231.5t56.5 -281q0 -198 -96 -365t-263 -264.5t-366 -97.5t-366 97.5t-263 264.5t-96 365zM260 702q0 -119 44 -227.5t118 -186t177 -123.5t216 -46t216 46t177 123.5t118 186t44 227.5
q0 158 -74 292t-202 212t-279 78t-279 -78t-202 -212t-74 -292zM700 1505l263 230h198l-299 -230h-162z" />
    <glyph glyph-name="Ocircumflex" unicode="&#xd4;" horiz-adv-x="1630" 
d="M90 702q0 147 56.5 281t153 231.5t231.5 155t284 57.5t284 -57.5t231.5 -155t153 -231.5t56.5 -281q0 -198 -96 -365t-263 -264.5t-366 -97.5t-366 97.5t-263 264.5t-96 365zM260 702q0 -119 44 -227.5t118 -186t177 -123.5t216 -46t216 46t177 123.5t118 186t44 227.5
q0 158 -74 292t-202 212t-279 78t-279 -78t-202 -212t-74 -292zM813 1638l-162 -151h-155l303 272h32l304 -272h-164z" />
    <glyph glyph-name="Otilde" unicode="&#xd5;" horiz-adv-x="1630" 
d="M90 702q0 147 56.5 281t153 231.5t231.5 155t284 57.5t284 -57.5t231.5 -155t153 -231.5t56.5 -281q0 -198 -96 -365t-263 -264.5t-366 -97.5t-366 97.5t-263 264.5t-96 365zM260 702q0 -119 44 -227.5t118 -186t177 -123.5t216 -46t216 46t177 123.5t118 186t44 227.5
q0 158 -74 292t-202 212t-279 78t-279 -78t-202 -212t-74 -292zM578 1516h-115q-3 95 55.5 156t159.5 61q45 0 79 -12.5t55.5 -29.5t40 -34.5t43 -30t54.5 -12.5q44 0 71.5 28.5t27.5 77.5h116q0 -97 -58.5 -156t-156.5 -59q-44 0 -78 12t-55 28.5t-40 33.5t-43.5 29
t-55.5 12q-45 0 -72.5 -30t-27.5 -74z" />
    <glyph glyph-name="Odieresis" unicode="&#xd6;" horiz-adv-x="1630" 
d="M90 702q0 147 56.5 281t153 231.5t231.5 155t284 57.5t284 -57.5t231.5 -155t153 -231.5t56.5 -281q0 -198 -96 -365t-263 -264.5t-366 -97.5t-366 97.5t-263 264.5t-96 365zM260 702q0 -119 44 -227.5t118 -186t177 -123.5t216 -46t216 46t177 123.5t118 186t44 227.5
q0 158 -74 292t-202 212t-279 78t-279 -78t-202 -212t-74 -292zM526 1614q0 38 28 65t67 27q40 0 67 -27t27 -65t-27 -65t-67 -27q-39 0 -67 27t-28 65zM913 1614q0 38 29 65t68 27q38 0 65 -27t27 -65t-27 -65t-65 -27q-39 0 -68 27t-29 65z" />
    <glyph glyph-name="multiply" unicode="&#xd7;" horiz-adv-x="1060" 
d="M887 788l-271 -272l273 -270l-86 -86l-271 272l-270 -268l-88 86l268 270l-272 271l86 88l272 -273l271 266z" />
    <glyph glyph-name="Oslash" unicode="&#xd8;" horiz-adv-x="1630" 
d="M90 702q0 147 56.5 281t153 231.5t231.5 155t284 57.5q240 0 428 -139l98 115h148l-160 -189q100 -100 155.5 -232.5t55.5 -279.5q0 -198 -96 -365t-263 -264.5t-366 -97.5q-237 0 -428 138l-96 -113h-148l160 186q-101 100 -157 233t-56 283zM260 702q0 -113 38.5 -215
t107.5 -180l737 862q-147 115 -328 115q-151 0 -279 -78t-202 -212t-74 -292zM1370 702q0 228 -145 392l-738 -865q145 -110 328 -110q113 0 216 46t177 123.5t118 186t44 227.5z" />
    <glyph glyph-name="Ugrave" unicode="&#xd9;" horiz-adv-x="1378" 
d="M145 1403h183q-9 -124 -9 -367v-473q0 -197 103.5 -318.5t267.5 -121.5t266.5 121.5t102.5 318.5v473q0 281 -6 367h180q-6 -135 -6 -367v-469q0 -270 -149.5 -430t-387.5 -160t-387 159.5t-149 430.5v469q0 243 -9 367zM547 1735l264 -230h-164l-299 230h199z" />
    <glyph glyph-name="Uacute" unicode="&#xda;" horiz-adv-x="1378" 
d="M145 1403h183q-9 -124 -9 -367v-473q0 -197 103.5 -318.5t267.5 -121.5t266.5 121.5t102.5 318.5v473q0 281 -6 367h180q-6 -135 -6 -367v-469q0 -270 -149.5 -430t-387.5 -160t-387 159.5t-149 430.5v469q0 243 -9 367zM575 1505l263 230h198l-299 -230h-162z" />
    <glyph glyph-name="Ucircumflex" unicode="&#xdb;" horiz-adv-x="1378" 
d="M145 1403h183q-9 -124 -9 -367v-473q0 -197 103.5 -318.5t267.5 -121.5t266.5 121.5t102.5 318.5v473q0 281 -6 367h180q-6 -135 -6 -367v-469q0 -270 -149.5 -430t-387.5 -160t-387 159.5t-149 430.5v469q0 243 -9 367zM686 1638l-162 -151h-155l303 272h33l303 -272
h-164z" />
    <glyph glyph-name="Udieresis" unicode="&#xdc;" horiz-adv-x="1378" 
d="M145 1403h183q-9 -124 -9 -367v-473q0 -197 103.5 -318.5t267.5 -121.5t266.5 121.5t102.5 318.5v473q0 281 -6 367h180q-6 -135 -6 -367v-469q0 -270 -149.5 -430t-387.5 -160t-387 159.5t-149 430.5v469q0 243 -9 367zM403 1614q0 38 28 65t67 27q40 0 67 -27t27 -65
t-27 -65t-67 -27q-39 0 -67 27t-28 65zM791 1614q0 38 28.5 65t67.5 27q38 0 65 -27t27 -65t-27 -65t-65 -27q-39 0 -67.5 27t-28.5 65z" />
    <glyph glyph-name="Yacute" unicode="&#xdd;" horiz-adv-x="1202" 
d="M512 0q6 94 6 352v299l-325 488q-107 158 -193 264h215q33 -67 115 -193l278 -411l264 397q93 138 127 207h203q-65 -81 -201 -281l-317 -471v-299q0 -226 8 -352h-180zM487 1505l263 230h198l-299 -230h-162z" />
    <glyph glyph-name="Thorn" unicode="&#xde;" horiz-adv-x="980" 
d="M322 293v-31q0 -168 6 -262h-181q9 94 9 305v731q0 279 -9 367h181q-6 -120 -6 -268h127q214 0 337 -117t123 -305q0 -183 -132 -301.5t-343 -118.5h-112zM322 1004v-582h108q135 0 223 87.5t88 205.5q0 123 -84 206t-227 83h-108z" />
    <glyph glyph-name="germandbls" unicode="&#xdf;" horiz-adv-x="1085" 
d="M539 702q-61 0 -103 -12v150q25 -4 80 -4q113 0 185.5 80t72.5 198q0 109 -64 185.5t-169 76.5q-111 0 -178.5 -76t-67.5 -243v-844q0 -125 6 -213h-170q6 92 6 211v848q0 93 21.5 169t58.5 127.5t88.5 86.5t111 51t126.5 16q172 0 277.5 -108t105.5 -275
q0 -127 -65 -209t-175 -120q129 -26 220 -133t91 -258q0 -187 -120.5 -309t-301.5 -122q-43 0 -75.5 4.5t-74.5 15t-58 13.5v187q68 -82 198 -82q112 0 191.5 85t79.5 205q0 127 -83 213t-214 86z" />
    <glyph glyph-name="agrave" unicode="&#xe0;" horiz-adv-x="919" 
d="M379 809q-139 0 -229 -94v159q18 3 59.5 19.5t93.5 29.5t111 13q179 0 265.5 -100.5t86.5 -307.5v-346q0 -80 53 -80q31 0 45 11v-101q-52 -35 -121 -35q-48 0 -80.5 27.5t-39.5 81.5q-35 -52 -98 -80.5t-136 -28.5q-142 0 -224.5 74.5t-82.5 192.5q0 119 84 197.5
t233 78.5q71 0 132 -26.5t85 -65.5v117q0 118 -57 191t-180 73zM240 252q0 -72 50.5 -118t141.5 -46q78 0 133.5 47.5t55.5 116.5q0 65 -55.5 112.5t-133.5 47.5q-90 0 -141 -46t-51 -114zM301 1360l209 -311h-141l-232 311h164z" />
    <glyph glyph-name="aacute" unicode="&#xe1;" horiz-adv-x="919" 
d="M379 809q-139 0 -229 -94v159q18 3 59.5 19.5t93.5 29.5t111 13q179 0 265.5 -100.5t86.5 -307.5v-346q0 -80 53 -80q31 0 45 11v-101q-52 -35 -121 -35q-48 0 -80.5 27.5t-39.5 81.5q-35 -52 -98 -80.5t-136 -28.5q-142 0 -224.5 74.5t-82.5 192.5q0 119 84 197.5
t233 78.5q71 0 132 -26.5t85 -65.5v117q0 118 -57 191t-180 73zM240 252q0 -72 50.5 -118t141.5 -46q78 0 133.5 47.5t55.5 116.5q0 65 -55.5 112.5t-133.5 47.5q-90 0 -141 -46t-51 -114zM326 1049l209 311h161l-231 -311h-139z" />
    <glyph glyph-name="acircumflex" unicode="&#xe2;" horiz-adv-x="919" 
d="M379 809q-139 0 -229 -94v159q18 3 59.5 19.5t93.5 29.5t111 13q179 0 265.5 -100.5t86.5 -307.5v-346q0 -80 53 -80q31 0 45 11v-101q-52 -35 -121 -35q-48 0 -80.5 27.5t-39.5 81.5q-35 -52 -98 -80.5t-136 -28.5q-142 0 -224.5 74.5t-82.5 192.5q0 119 84 197.5
t233 78.5q71 0 132 -26.5t85 -65.5v117q0 118 -57 191t-180 73zM240 252q0 -72 50.5 -118t141.5 -46q78 0 133.5 47.5t55.5 116.5q0 65 -55.5 112.5t-133.5 47.5q-90 0 -141 -46t-51 -114zM420 1219l-137 -177h-129l254 308h30l254 -308h-135z" />
    <glyph glyph-name="atilde" unicode="&#xe3;" horiz-adv-x="919" 
d="M379 809q-139 0 -229 -94v159q18 3 59.5 19.5t93.5 29.5t111 13q179 0 265.5 -100.5t86.5 -307.5v-346q0 -80 53 -80q31 0 45 11v-101q-52 -35 -121 -35q-48 0 -80.5 27.5t-39.5 81.5q-35 -52 -98 -80.5t-136 -28.5q-142 0 -224.5 74.5t-82.5 192.5q0 119 84 197.5
t233 78.5q71 0 132 -26.5t85 -65.5v117q0 118 -57 191t-180 73zM240 252q0 -72 50.5 -118t141.5 -46q78 0 133.5 47.5t55.5 116.5q0 65 -55.5 112.5t-133.5 47.5q-90 0 -141 -46t-51 -114zM254 1077h-107q2 84 49 138.5t123 54.5q35 0 66.5 -14.5t50 -32.5t40 -32.5
t40.5 -14.5q35 0 55.5 23t20.5 63h102q0 -79 -48.5 -135t-121.5 -56q-37 0 -69 14.5t-50 32.5t-40 32.5t-41 14.5q-33 0 -51.5 -24.5t-18.5 -63.5z" />
    <glyph glyph-name="adieresis" unicode="&#xe4;" horiz-adv-x="919" 
d="M379 809q-139 0 -229 -94v159q18 3 59.5 19.5t93.5 29.5t111 13q179 0 265.5 -100.5t86.5 -307.5v-346q0 -80 53 -80q31 0 45 11v-101q-52 -35 -121 -35q-48 0 -80.5 27.5t-39.5 81.5q-35 -52 -98 -80.5t-136 -28.5q-142 0 -224.5 74.5t-82.5 192.5q0 119 84 197.5
t233 78.5q71 0 132 -26.5t85 -65.5v117q0 118 -57 191t-180 73zM240 252q0 -72 50.5 -118t141.5 -46q78 0 133.5 47.5t55.5 116.5q0 65 -55.5 112.5t-133.5 47.5q-90 0 -141 -46t-51 -114zM147 1200q0 36 26.5 61t62.5 25t61 -25t25 -61q0 -35 -25.5 -60.5t-60.5 -25.5
q-36 0 -62.5 25.5t-26.5 60.5zM530 1200q0 37 25.5 61.5t62.5 24.5q35 0 59.5 -24.5t24.5 -61.5q0 -35 -24.5 -60.5t-59.5 -25.5q-37 0 -62.5 25.5t-25.5 60.5z" />
    <glyph glyph-name="aring" unicode="&#xe5;" horiz-adv-x="919" 
d="M379 809q-139 0 -229 -94v159q18 3 59.5 19.5t93.5 29.5t111 13q179 0 265.5 -100.5t86.5 -307.5v-346q0 -80 53 -80q31 0 45 11v-101q-52 -35 -121 -35q-48 0 -80.5 27.5t-39.5 81.5q-35 -52 -98 -80.5t-136 -28.5q-142 0 -224.5 74.5t-82.5 192.5q0 119 84 197.5
t233 78.5q71 0 132 -26.5t85 -65.5v117q0 118 -57 191t-180 73zM240 252q0 -72 50.5 -118t141.5 -46q78 0 133.5 47.5t55.5 116.5q0 65 -55.5 112.5t-133.5 47.5q-90 0 -141 -46t-51 -114zM248 1200q0 66 50 114t122 48t123 -48t51 -114q0 -68 -51 -116t-123 -48t-122 48
t-50 116zM338 1200q0 -35 24 -59.5t58 -24.5t58 24.5t24 59.5q0 34 -24 58t-58 24t-58 -24t-24 -58z" />
    <glyph glyph-name="ae" unicode="&#xe6;" horiz-adv-x="1548" 
d="M150 727v158q17 3 57 17t87 24t101 10q123 0 203.5 -59.5t97.5 -171.5q38 104 133 166.5t211 62.5q82 0 152.5 -30t117 -76.5t79.5 -104t48 -112.5t15 -103q0 -33 -2 -39h-705v-2q0 -152 96.5 -255t241.5 -103q168 0 287 81v-155q-32 -5 -80 -19t-98.5 -23t-118.5 -9
q-143 0 -236.5 61t-144.5 152q-14 -94 -92.5 -157t-206.5 -63q-143 0 -226 74t-83 195q0 122 84.5 198t224.5 76q154 0 223 -94v109q0 122 -59.5 197t-183.5 75q-152 0 -223 -80zM242 248q0 -68 52.5 -113t139.5 -45q83 0 136 47t53 113q0 69 -56 114.5t-133 45.5
q-89 0 -140.5 -43.5t-51.5 -118.5zM1028 815q-97 0 -169.5 -63t-100.5 -170h528q-14 94 -85.5 163.5t-172.5 69.5z" />
    <glyph glyph-name="ccedilla" unicode="&#xe7;" horiz-adv-x="858" 
d="M403 -186l103 174q-184 17 -306 150.5t-122 318.5q0 201 137 340t338 139q51 0 120 -12t93 -13v-178q-86 64 -209 64q-134 0 -227.5 -100t-93.5 -240q0 -138 94 -236t227 -98q75 0 124.5 15.5t88.5 49.5v-178q-18 -2 -51.5 -7.5t-61.5 -9t-59 -5.5l-51 -82
q64 -8 104.5 -48.5t40.5 -109.5q0 -77 -53 -123.5t-141 -46.5q-16 0 -31.5 2t-29 5.5t-22.5 6.5t-21 7.5t-15 5.5v104q14 -18 44 -31.5t64 -13.5q40 0 66.5 21.5t26.5 56.5q0 38 -29 61t-78 23q-51 0 -70 -12z" />
    <glyph glyph-name="egrave" unicode="&#xe8;" horiz-adv-x="1015" 
d="M934 469h-690q-3 -93 37 -174t116.5 -131.5t173.5 -50.5q90 0 154 16t129 59v-151q-23 -3 -67 -17t-103.5 -25t-136.5 -11q-201 0 -334 136t-133 337q0 205 125.5 341t308.5 136q82 0 153.5 -29t120 -74.5t83.5 -103t51 -115t16 -108.5q0 -23 -4 -35zM514 815
q-98 0 -169 -65.5t-97 -167.5h522q-10 87 -81.5 160t-174.5 73zM387 1360l209 -311h-141l-232 311h164z" />
    <glyph glyph-name="eacute" unicode="&#xe9;" horiz-adv-x="1015" 
d="M934 469h-690q-3 -93 37 -174t116.5 -131.5t173.5 -50.5q90 0 154 16t129 59v-151q-23 -3 -67 -17t-103.5 -25t-136.5 -11q-201 0 -334 136t-133 337q0 205 125.5 341t308.5 136q82 0 153.5 -29t120 -74.5t83.5 -103t51 -115t16 -108.5q0 -23 -4 -35zM514 815
q-98 0 -169 -65.5t-97 -167.5h522q-10 87 -81.5 160t-174.5 73zM438 1049l209 311h162l-231 -311h-140z" />
    <glyph glyph-name="ecircumflex" unicode="&#xea;" horiz-adv-x="1015" 
d="M934 469h-690q-3 -93 37 -174t116.5 -131.5t173.5 -50.5q90 0 154 16t129 59v-151q-23 -3 -67 -17t-103.5 -25t-136.5 -11q-201 0 -334 136t-133 337q0 205 125.5 341t308.5 136q82 0 153.5 -29t120 -74.5t83.5 -103t51 -115t16 -108.5q0 -23 -4 -35zM514 815
q-98 0 -169 -65.5t-97 -167.5h522q-10 87 -81.5 160t-174.5 73zM514 1219l-137 -177h-129l254 308h30l254 -308h-135z" />
    <glyph glyph-name="edieresis" unicode="&#xeb;" horiz-adv-x="1015" 
d="M934 469h-690q-3 -93 37 -174t116.5 -131.5t173.5 -50.5q90 0 154 16t129 59v-151q-23 -3 -67 -17t-103.5 -25t-136.5 -11q-201 0 -334 136t-133 337q0 205 125.5 341t308.5 136q82 0 153.5 -29t120 -74.5t83.5 -103t51 -115t16 -108.5q0 -23 -4 -35zM514 815
q-98 0 -169 -65.5t-97 -167.5h522q-10 87 -81.5 160t-174.5 73zM238 1200q0 36 26 61t62 25t61 -25t25 -61q0 -35 -25.5 -60.5t-60.5 -25.5t-61.5 25.5t-26.5 60.5zM621 1200q0 37 25.5 61.5t62.5 24.5q35 0 59.5 -24.5t24.5 -61.5q0 -35 -24.5 -60.5t-59.5 -25.5
q-37 0 -62.5 25.5t-25.5 60.5z" />
    <glyph glyph-name="igrave" unicode="&#xec;" horiz-adv-x="448" 
d="M307 709v-496q0 -151 6 -213h-170q4 90 4 213v608h-94q9 9 18 22t14.5 23.5t14.5 28t13 25.5h200q-6 -70 -6 -211zM104 1360l209 -311h-141l-231 311h163z" />
    <glyph glyph-name="iacute" unicode="&#xed;" horiz-adv-x="448" 
d="M307 709v-496q0 -151 6 -213h-170q4 90 4 213v608h-94q9 9 18 22t14.5 23.5t14.5 28t13 25.5h200q-6 -70 -6 -211zM143 1049l209 311h162l-231 -311h-140z" />
    <glyph glyph-name="icircumflex" unicode="&#xee;" horiz-adv-x="448" 
d="M307 709v-496q0 -151 6 -213h-170q4 90 4 213v608h-94q9 9 18 22t14.5 23.5t14.5 28t13 25.5h200q-6 -70 -6 -211zM225 1219l-137 -177h-129l254 308h31l254 -308h-136z" />
    <glyph glyph-name="idieresis" unicode="&#xef;" horiz-adv-x="448" 
d="M307 709v-496q0 -151 6 -213h-170q4 90 4 213v608h-94q9 9 18 22t14.5 23.5t14.5 28t13 25.5h200q-6 -70 -6 -211zM-51 1200q0 36 26 61t62 25t61 -25t25 -61q0 -35 -25.5 -60.5t-60.5 -25.5t-61.5 25.5t-26.5 60.5zM332 1200q0 37 25.5 61.5t62.5 24.5q35 0 59.5 -24.5
t24.5 -61.5q0 -35 -24.5 -60.5t-59.5 -25.5q-37 0 -62.5 25.5t-25.5 60.5z" />
    <glyph glyph-name="eth" unicode="&#xf0;" horiz-adv-x="1150" 
d="M358 1118l211 125q-138 94 -340 131v135q285 -54 469 -192l191 113l49 -78l-166 -99q263 -251 266 -700q1 -245 -138 -406t-347 -161q-200 0 -336.5 135.5t-136.5 333.5q0 197 136.5 332t332.5 135q104 0 191.5 -43t133.5 -125q-44 267 -225 428l-241 -142zM874 483
q0 134 -90.5 216.5t-224.5 82.5q-132 0 -224.5 -95.5t-92.5 -231.5q0 -135 92.5 -230.5t224.5 -95.5q134 0 224.5 103t90.5 251z" />
    <glyph glyph-name="ntilde" unicode="&#xf1;" horiz-adv-x="1030" 
d="M741 537q0 132 -61 201t-154 69q-96 0 -157.5 -71t-61.5 -187v-336q0 -125 6 -213h-172q6 88 6 213v608h-94q28 37 60 99h194v-142q35 67 107.5 112.5t167.5 45.5q150 0 233.5 -104.5t83.5 -296.5v-322q0 -134 8 -213h-172q6 88 6 213v324zM358 1077h-106q2 84 49 138.5
t123 54.5q35 0 66.5 -14.5t50 -32.5t40 -32.5t40.5 -14.5q35 0 55 23t20 63h103q0 -79 -48.5 -135t-121.5 -56q-37 0 -69 14.5t-50.5 32.5t-40.5 32.5t-41 14.5q-33 0 -51.5 -24.5t-18.5 -63.5z" />
    <glyph glyph-name="ograve" unicode="&#xf2;" horiz-adv-x="1107" 
d="M80 459q0 97 37.5 185.5t101 152.5t151 101.5t183.5 37.5q97 0 184.5 -37.5t151.5 -101.5t101.5 -152.5t37.5 -185.5q0 -96 -37.5 -184t-101.5 -151t-151.5 -100.5t-184.5 -37.5q-195 0 -334 138.5t-139 334.5zM233 459q0 -139 93 -236.5t227 -97.5q133 0 227 98t94 236
q0 140 -94 239t-227 99t-226.5 -99t-93.5 -239zM422 1360l209 -311h-142l-231 311h164z" />
    <glyph glyph-name="oacute" unicode="&#xf3;" horiz-adv-x="1107" 
d="M80 459q0 97 37.5 185.5t101 152.5t151 101.5t183.5 37.5q97 0 184.5 -37.5t151.5 -101.5t101.5 -152.5t37.5 -185.5q0 -96 -37.5 -184t-101.5 -151t-151.5 -100.5t-184.5 -37.5q-195 0 -334 138.5t-139 334.5zM233 459q0 -139 93 -236.5t227 -97.5q133 0 227 98t94 236
q0 140 -94 239t-227 99t-226.5 -99t-93.5 -239zM477 1049l209 311h162l-232 -311h-139z" />
    <glyph glyph-name="ocircumflex" unicode="&#xf4;" horiz-adv-x="1107" 
d="M80 459q0 97 37.5 185.5t101 152.5t151 101.5t183.5 37.5q97 0 184.5 -37.5t151.5 -101.5t101.5 -152.5t37.5 -185.5q0 -96 -37.5 -184t-101.5 -151t-151.5 -100.5t-184.5 -37.5q-195 0 -334 138.5t-139 334.5zM233 459q0 -139 93 -236.5t227 -97.5q133 0 227 98t94 236
q0 140 -94 239t-227 99t-226.5 -99t-93.5 -239zM551 1219l-137 -177h-129l254 308h30l254 -308h-135z" />
    <glyph glyph-name="otilde" unicode="&#xf5;" horiz-adv-x="1107" 
d="M80 459q0 97 37.5 185.5t101 152.5t151 101.5t183.5 37.5q97 0 184.5 -37.5t151.5 -101.5t101.5 -152.5t37.5 -185.5q0 -96 -37.5 -184t-101.5 -151t-151.5 -100.5t-184.5 -37.5q-195 0 -334 138.5t-139 334.5zM233 459q0 -139 93 -236.5t227 -97.5q133 0 227 98t94 236
q0 140 -94 239t-227 99t-226.5 -99t-93.5 -239zM387 1077h-106q2 84 49 138.5t123 54.5q35 0 66 -14.5t49.5 -32.5t40 -32.5t40.5 -14.5q35 0 55.5 23t20.5 63h102q0 -79 -48.5 -135t-121.5 -56q-37 0 -69 14.5t-50 32.5t-40 32.5t-41 14.5q-33 0 -51.5 -24.5t-18.5 -63.5z
" />
    <glyph glyph-name="odieresis" unicode="&#xf6;" horiz-adv-x="1107" 
d="M80 459q0 97 37.5 185.5t101 152.5t151 101.5t183.5 37.5q97 0 184.5 -37.5t151.5 -101.5t101.5 -152.5t37.5 -185.5q0 -96 -37.5 -184t-101.5 -151t-151.5 -100.5t-184.5 -37.5q-195 0 -334 138.5t-139 334.5zM233 459q0 -139 93 -236.5t227 -97.5q133 0 227 98t94 236
q0 140 -94 239t-227 99t-226.5 -99t-93.5 -239zM274 1200q0 36 26 61t62 25t61.5 -25t25.5 -61q0 -35 -26 -60.5t-61 -25.5t-61.5 25.5t-26.5 60.5zM657 1200q0 37 25.5 61.5t62.5 24.5q35 0 59.5 -24.5t24.5 -61.5q0 -35 -24.5 -60.5t-59.5 -25.5q-37 0 -62.5 25.5
t-25.5 60.5z" />
    <glyph glyph-name="divide" unicode="&#xf7;" horiz-adv-x="1060" 
d="M141 455v129h777v-129h-777zM428 774q0 41 29 69.5t69 28.5q43 0 74 -28.5t31 -69.5t-31 -71.5t-74 -30.5q-40 0 -69 30.5t-29 71.5zM428 270q0 41 29 71t69 30q43 0 74 -30t31 -71t-31 -70.5t-74 -29.5q-40 0 -69 29.5t-29 70.5z" />
    <glyph glyph-name="oslash" unicode="&#xf8;" horiz-adv-x="1110" 
d="M80 459q0 97 37.5 185.5t101 152.5t151 101.5t183.5 37.5q166 0 299 -107l57 64h92l-100 -111q127 -137 127 -323q0 -97 -37.5 -184.5t-101 -150.5t-151.5 -100.5t-185 -37.5q-160 0 -289 98l-53 -59h-96l96 106q-131 134 -131 328zM236 459q0 -132 75 -219l443 483
q-87 74 -201 74q-132 0 -224.5 -99t-92.5 -239zM874 459q0 121 -73 213l-439 -482q80 -65 191 -65q132 0 226.5 97.5t94.5 236.5z" />
    <glyph glyph-name="ugrave" unicode="&#xf9;" horiz-adv-x="1036" 
d="M303 369q0 -127 62.5 -191.5t150.5 -64.5q97 0 158 74t61 186v336q0 123 -6 211h172q-8 -79 -8 -211v-506q0 -130 31 -203h-154q-28 55 -31 141q-87 -157 -274 -157q-143 0 -232.5 96.5t-89.5 273.5v467h-94q28 30 57 99h201q-4 -118 -4 -211v-340zM383 1360l209 -311
h-141l-232 311h164z" />
    <glyph glyph-name="uacute" unicode="&#xfa;" horiz-adv-x="1036" 
d="M303 369q0 -127 62.5 -191.5t150.5 -64.5q97 0 158 74t61 186v336q0 123 -6 211h172q-8 -79 -8 -211v-506q0 -130 31 -203h-154q-28 55 -31 141q-87 -157 -274 -157q-143 0 -232.5 96.5t-89.5 273.5v467h-94q28 30 57 99h201q-4 -118 -4 -211v-340zM440 1049l209 311h162
l-231 -311h-140z" />
    <glyph glyph-name="ucircumflex" unicode="&#xfb;" horiz-adv-x="1036" 
d="M303 369q0 -127 62.5 -191.5t150.5 -64.5q97 0 158 74t61 186v336q0 123 -6 211h172q-8 -79 -8 -211v-506q0 -130 31 -203h-154q-28 55 -31 141q-87 -157 -274 -157q-143 0 -232.5 96.5t-89.5 273.5v467h-94q28 30 57 99h201q-4 -118 -4 -211v-340zM516 1219l-137 -177
h-129l254 308h31l253 -308h-135z" />
    <glyph glyph-name="udieresis" unicode="&#xfc;" horiz-adv-x="1036" 
d="M303 369q0 -127 62.5 -191.5t150.5 -64.5q97 0 158 74t61 186v336q0 123 -6 211h172q-8 -79 -8 -211v-506q0 -130 31 -203h-154q-28 55 -31 141q-87 -157 -274 -157q-143 0 -232.5 96.5t-89.5 273.5v467h-94q28 30 57 99h201q-4 -118 -4 -211v-340zM240 1200q0 36 26 61
t62 25t61 -25t25 -61q0 -35 -25.5 -60.5t-60.5 -25.5t-61.5 25.5t-26.5 60.5zM623 1200q0 37 25.5 61.5t62.5 24.5q35 0 59.5 -24.5t24.5 -61.5q0 -35 -24.5 -60.5t-59.5 -25.5q-37 0 -62.5 25.5t-25.5 60.5z" />
    <glyph glyph-name="yacute" unicode="&#xfd;" horiz-adv-x="940" 
d="M264 -391q-46 -75 -95 -106t-116 -31q-27 0 -51 6q55 67 129 178q3 4 43 66t50.5 79t45 71.5t52.5 85t44.5 76t47.5 85.5l-299 592q-72 137 -113 209h193q18 -58 67 -158l236 -467q111 235 198 453q41 105 62 172h182q-24 -43 -100 -218q-171 -394 -279 -591
q-84 -163 -297 -502zM393 1049l209 311h162l-232 -311h-139z" />
    <glyph glyph-name="thorn" unicode="&#xfe;" horiz-adv-x="1171" 
d="M141 -240v1645h-94q4 8 16 28.5t22.5 38.5t16.5 31h203q-6 -62 -6 -211v-557q45 94 138.5 147.5t201.5 53.5q195 0 324 -136.5t129 -334.5q0 -204 -132.5 -341.5t-328.5 -137.5q-105 0 -195.5 49.5t-136.5 140.5l2 -416q0 -158 6 -278h-174q8 109 8 278zM293 461
q0 -141 93.5 -240.5t225.5 -99.5q131 0 224.5 99.5t93.5 240.5q0 139 -95 239.5t-227 100.5q-131 0 -223 -100t-92 -240z" />
    <glyph glyph-name="ydieresis" unicode="&#xff;" horiz-adv-x="940" 
d="M264 -391q-46 -75 -95 -106t-116 -31q-27 0 -51 6q55 67 129 178q3 4 43 66t50.5 79t45 71.5t52.5 85t44.5 76t47.5 85.5l-299 592q-72 137 -113 209h193q18 -58 67 -158l236 -467q111 235 198 453q41 105 62 172h182q-24 -43 -100 -218q-171 -394 -279 -591
q-84 -163 -297 -502zM201 1200q0 36 26 61t62 25t61 -25t25 -61q0 -35 -25.5 -60.5t-60.5 -25.5t-61.5 25.5t-26.5 60.5zM584 1200q0 37 25.5 61.5t62.5 24.5q35 0 59.5 -24.5t24.5 -61.5q0 -35 -24.5 -60.5t-59.5 -25.5q-37 0 -62.5 25.5t-25.5 60.5z" />
    <glyph glyph-name="Amacron" unicode="&#x100;" horiz-adv-x="1320" 
d="M1321 0h-213q-24 70 -92 231l-103 244h-534l-100 -239q-76 -183 -91 -236h-188q85 159 147 311l484 1119h47l489 -1119q76 -172 154 -311zM856 612l-211 516l-211 -516h422zM367 1640h579v-106h-579v106z" />
    <glyph glyph-name="amacron" unicode="&#x101;" horiz-adv-x="919" 
d="M379 809q-139 0 -229 -94v159q18 3 59.5 19.5t93.5 29.5t111 13q179 0 265.5 -100.5t86.5 -307.5v-346q0 -80 53 -80q31 0 45 11v-101q-52 -35 -121 -35q-48 0 -80.5 27.5t-39.5 81.5q-35 -52 -98 -80.5t-136 -28.5q-142 0 -224.5 74.5t-82.5 192.5q0 119 84 197.5
t233 78.5q71 0 132 -26.5t85 -65.5v117q0 118 -57 191t-180 73zM240 252q0 -72 50.5 -118t141.5 -46q78 0 133.5 47.5t55.5 116.5q0 65 -55.5 112.5t-133.5 47.5q-90 0 -141 -46t-51 -114zM180 1231h496v-113h-496v113z" />
    <glyph glyph-name="Abreve" unicode="&#x102;" horiz-adv-x="1320" 
d="M1321 0h-213q-24 70 -92 231l-103 244h-534l-100 -239q-76 -183 -91 -236h-188q85 159 147 311l484 1119h47l489 -1119q76 -172 154 -311zM856 612l-211 516l-211 -516h422zM483 1716q0 -60 49.5 -99.5t122.5 -39.5q70 0 120 40t50 99h117q0 -105 -83.5 -170t-203.5 -65
q-123 0 -205.5 65t-82.5 170h116z" />
    <glyph glyph-name="abreve" unicode="&#x103;" horiz-adv-x="919" 
d="M379 809q-139 0 -229 -94v159q18 3 59.5 19.5t93.5 29.5t111 13q179 0 265.5 -100.5t86.5 -307.5v-346q0 -80 53 -80q31 0 45 11v-101q-52 -35 -121 -35q-48 0 -80.5 27.5t-39.5 81.5q-35 -52 -98 -80.5t-136 -28.5q-142 0 -224.5 74.5t-82.5 192.5q0 119 84 197.5
t233 78.5q71 0 132 -26.5t85 -65.5v117q0 118 -57 191t-180 73zM240 252q0 -72 50.5 -118t141.5 -46q78 0 133.5 47.5t55.5 116.5q0 65 -55.5 112.5t-133.5 47.5q-90 0 -141 -46t-51 -114zM295 1286q0 -56 39 -94.5t96 -38.5t96 38.5t39 94.5h111q0 -101 -71.5 -170
t-174.5 -69t-175.5 69t-72.5 170h113z" />
    <glyph glyph-name="Aogonek" unicode="&#x104;" horiz-adv-x="1320" 
d="M1321 0q-154 -54 -251 -142t-97 -173q0 -47 32 -78t80 -31q88 0 152 64v-127q-86 -58 -209 -58q-91 0 -150 50.5t-59 136.5q0 177 289 358q-24 70 -92 231l-103 244h-534l-100 -239q-76 -183 -91 -236h-188q85 159 147 311l484 1119h47l489 -1119q76 -172 154 -311z
M856 612l-211 516l-211 -516h422z" />
    <glyph glyph-name="aogonek" unicode="&#x105;" horiz-adv-x="919" 
d="M379 809q-139 0 -229 -94v159q18 3 59.5 19.5t93.5 29.5t111 13q179 0 265.5 -100.5t86.5 -307.5v-346q0 -80 53 -80q31 0 45 11l-2 -84q-156 -113 -219 -182t-63 -136q0 -53 32 -82.5t84 -29.5q66 0 123 51v-113q-79 -53 -174 -53t-152 50.5t-57 133.5q0 88 61.5 159
t190.5 165q-54 19 -65 94q-35 -52 -98 -80.5t-136 -28.5q-142 0 -224.5 74.5t-82.5 192.5q0 119 84 197.5t233 78.5q71 0 132 -26.5t85 -65.5v117q0 118 -57 191t-180 73zM240 252q0 -72 50.5 -118t141.5 -46q78 0 133.5 47.5t55.5 116.5q0 65 -55.5 112.5t-133.5 47.5
q-90 0 -141 -46t-51 -114z" />
    <glyph glyph-name="Cacute" unicode="&#x106;" horiz-adv-x="1294" 
d="M260 702q0 -118 46.5 -225t125.5 -184.5t189 -123.5t231 -46q239 0 371 115v-193q-76 -23 -121.5 -35t-117 -22.5t-144.5 -10.5q-157 0 -296.5 57.5t-238.5 155t-157 231t-58 281.5t58 282.5t157 232.5t238.5 155.5t296.5 57.5q58 0 114.5 -7t89.5 -15t87 -22.5t77 -19.5
v-197q-133 111 -358 111q-161 0 -297 -77.5t-214.5 -210.5t-78.5 -290zM707 1505l262 230h198l-299 -230h-161z" />
    <glyph glyph-name="cacute" unicode="&#x107;" horiz-adv-x="858" 
d="M236 457q0 -138 94 -236t227 -98q75 0 124.5 15.5t88.5 49.5v-178q-23 -3 -61.5 -9.5t-75 -10.5t-80.5 -4q-201 0 -338 137.5t-137 333.5q0 201 137 340t338 139q51 0 120 -12t93 -13v-178q-86 64 -209 64q-134 0 -227.5 -100t-93.5 -240zM446 1049l209 311h162
l-231 -311h-140z" />
    <glyph glyph-name="Ccircumflex" unicode="&#x108;" horiz-adv-x="1294" 
d="M260 702q0 -118 46.5 -225t125.5 -184.5t189 -123.5t231 -46q239 0 371 115v-193q-76 -23 -121.5 -35t-117 -22.5t-144.5 -10.5q-157 0 -296.5 57.5t-238.5 155t-157 231t-58 281.5t58 282.5t157 232.5t238.5 155.5t296.5 57.5q58 0 114.5 -7t89.5 -15t87 -22.5t77 -19.5
v-197q-133 111 -358 111q-161 0 -297 -77.5t-214.5 -210.5t-78.5 -290zM803 1638l-162 -151h-156l303 272h33l303 -272h-163z" />
    <glyph glyph-name="ccircumflex" unicode="&#x109;" horiz-adv-x="858" 
d="M236 457q0 -138 94 -236t227 -98q75 0 124.5 15.5t88.5 49.5v-178q-23 -3 -61.5 -9.5t-75 -10.5t-80.5 -4q-201 0 -338 137.5t-137 333.5q0 201 137 340t338 139q51 0 120 -12t93 -13v-178q-86 64 -209 64q-134 0 -227.5 -100t-93.5 -240zM518 1219l-137 -177h-129
l254 308h31l254 -308h-136z" />
    <glyph glyph-name="Cdotaccent" unicode="&#x10a;" horiz-adv-x="1294" 
d="M260 702q0 -118 46.5 -225t125.5 -184.5t189 -123.5t231 -46q239 0 371 115v-193q-76 -23 -121.5 -35t-117 -22.5t-144.5 -10.5q-157 0 -296.5 57.5t-238.5 155t-157 231t-58 281.5t58 282.5t157 232.5t238.5 155.5t296.5 57.5q58 0 114.5 -7t89.5 -15t87 -22.5t77 -19.5
v-197q-133 111 -358 111q-161 0 -297 -77.5t-214.5 -210.5t-78.5 -290zM725 1604q0 41 28.5 69.5t69.5 28.5q40 0 68.5 -28.5t28.5 -69.5q0 -40 -28.5 -68.5t-68.5 -28.5q-41 0 -69.5 28.5t-28.5 68.5z" />
    <glyph glyph-name="cdotaccent" unicode="&#x10b;" horiz-adv-x="858" 
d="M236 457q0 -138 94 -236t227 -98q75 0 124.5 15.5t88.5 49.5v-178q-23 -3 -61.5 -9.5t-75 -10.5t-80.5 -4q-201 0 -338 137.5t-137 333.5q0 201 137 340t338 139q51 0 120 -12t93 -13v-178q-86 64 -209 64q-134 0 -227.5 -100t-93.5 -240zM430 1196q0 40 27 67t67 27
t67 -27t27 -67q0 -38 -27 -65t-67 -27t-67 27t-27 65z" />
    <glyph glyph-name="Ccaron" unicode="&#x10c;" horiz-adv-x="1294" 
d="M260 702q0 -118 46.5 -225t125.5 -184.5t189 -123.5t231 -46q239 0 371 115v-193q-76 -23 -121.5 -35t-117 -22.5t-144.5 -10.5q-157 0 -296.5 57.5t-238.5 155t-157 231t-58 281.5t58 282.5t157 232.5t238.5 155.5t296.5 57.5q58 0 114.5 -7t89.5 -15t87 -22.5t77 -19.5
v-197q-133 111 -358 111q-161 0 -297 -77.5t-214.5 -210.5t-78.5 -290zM821 1597l162 152h156l-303 -272h-33l-303 272h164z" />
    <glyph glyph-name="ccaron" unicode="&#x10d;" horiz-adv-x="858" 
d="M236 457q0 -138 94 -236t227 -98q75 0 124.5 15.5t88.5 49.5v-178q-23 -3 -61.5 -9.5t-75 -10.5t-80.5 -4q-201 0 -338 137.5t-137 333.5q0 201 137 340t338 139q51 0 120 -12t93 -13v-178q-86 64 -209 64q-134 0 -227.5 -100t-93.5 -240zM522 1155l140 176h129
l-256 -307h-31l-252 307h133z" />
    <glyph glyph-name="Dcaron" unicode="&#x10e;" horiz-adv-x="1339" 
d="M543 0h-396q11 116 11 367v669q0 255 -11 367h396q190 0 352.5 -94t257 -255.5t94.5 -351.5q0 -142 -56 -272.5t-150.5 -224.5t-224.5 -149.5t-273 -55.5zM324 1266v-1129h208q149 0 274.5 77t198 207t72.5 281t-72.5 281t-198.5 206.5t-276 76.5h-206zM535 1597l161 152
h156l-303 -272h-33l-303 272h164z" />
    <glyph glyph-name="dcaron" unicode="&#x10f;" horiz-adv-x="1169" 
d="M1030 1321v-1110q0 -131 6 -211h-170q4 39 4 184q-55 -98 -146.5 -148t-195.5 -50q-124 0 -227.5 64t-162 173t-58.5 238q0 202 130 338.5t327 136.5q109 0 197 -47.5t136 -138.5v655h-94q28 30 58 98h202q-6 -99 -6 -182zM877 459q0 141 -92 241.5t-222 100.5
q-132 0 -226.5 -99.5t-94.5 -238.5q0 -143 94 -243.5t229 -100.5q129 0 220.5 100t91.5 240zM1135 1167l12 334h141l-35 -334h-118z" />
    <glyph glyph-name="Dcroat" unicode="&#x110;" horiz-adv-x="1441" 
d="M645 0h-395q10 105 10 367v264h-219v123h219v282q0 265 -10 367h395q190 0 352.5 -94t257.5 -255.5t95 -351.5t-95 -352t-257.5 -256t-352.5 -94zM426 1266v-512h313v-123h-313v-494h209q149 0 274.5 77t198 207t72.5 281t-72.5 281t-198.5 206.5t-276 76.5h-207z" />
    <glyph glyph-name="dcroat" unicode="&#x111;" horiz-adv-x="1200" 
d="M1030 1384v-184h170v-117h-170v-872q0 -145 10 -211h-178q8 86 8 184q-55 -98 -146.5 -148t-195.5 -50q-124 0 -227.5 64t-162 173t-58.5 238q0 202 130 338.5t327 136.5q109 0 197 -47.5t136 -138.5v333h-397v117h397v205h-94q33 46 58 98h202q-6 -37 -6 -119zM879 459
q0 141 -93 241.5t-223 100.5q-132 0 -226.5 -99.5t-94.5 -238.5q0 -143 94 -243.5t229 -100.5q129 0 221.5 100t92.5 240z" />
    <glyph glyph-name="Emacron" unicode="&#x112;" horiz-adv-x="944" 
d="M485 1266h-163v-447h161q225 0 320 6v-151q-94 6 -320 6h-161v-541h180q254 0 346 6v-151q-92 6 -346 6h-355q9 254 9 367v671q0 228 -9 365h338q220 0 346 8v-154q-95 9 -346 9zM197 1640h579v-106h-579v106z" />
    <glyph glyph-name="emacron" unicode="&#x113;" horiz-adv-x="1015" 
d="M934 469h-690q-3 -93 37 -174t116.5 -131.5t173.5 -50.5q90 0 154 16t129 59v-151q-23 -3 -67 -17t-103.5 -25t-136.5 -11q-201 0 -334 136t-133 337q0 205 125.5 341t308.5 136q82 0 153.5 -29t120 -74.5t83.5 -103t51 -115t16 -108.5q0 -23 -4 -35zM514 815
q-98 0 -169 -65.5t-97 -167.5h522q-10 87 -81.5 160t-174.5 73zM268 1231h496v-113h-496v113z" />
    <glyph glyph-name="Ebreve" unicode="&#x114;" horiz-adv-x="944" 
d="M485 1266h-163v-447h161q225 0 320 6v-151q-94 6 -320 6h-161v-541h180q254 0 346 6v-151q-92 6 -346 6h-355q9 254 9 367v671q0 228 -9 365h338q220 0 346 8v-154q-95 9 -346 9zM317 1716q0 -60 49.5 -99.5t122.5 -39.5q70 0 120 40t50 99h117q0 -105 -83.5 -170
t-203.5 -65q-123 0 -205.5 65t-82.5 170h116z" />
    <glyph glyph-name="ebreve" unicode="&#x115;" horiz-adv-x="1015" 
d="M934 469h-690q-3 -93 37 -174t116.5 -131.5t173.5 -50.5q90 0 154 16t129 59v-151q-23 -3 -67 -17t-103.5 -25t-136.5 -11q-201 0 -334 136t-133 337q0 205 125.5 341t308.5 136q82 0 153.5 -29t120 -74.5t83.5 -103t51 -115t16 -108.5q0 -23 -4 -35zM514 815
q-98 0 -169 -65.5t-97 -167.5h522q-10 87 -81.5 160t-174.5 73zM381 1286q0 -56 39 -94.5t96 -38.5t96 38.5t39 94.5h111q0 -101 -71.5 -170t-174.5 -69t-175.5 69t-72.5 170h113z" />
    <glyph glyph-name="Edotaccent" unicode="&#x116;" horiz-adv-x="944" 
d="M485 1266h-163v-447h161q225 0 320 6v-151q-94 6 -320 6h-161v-541h180q254 0 346 6v-151q-92 6 -346 6h-355q9 254 9 367v671q0 228 -9 365h338q220 0 346 8v-154q-95 9 -346 9zM393 1604q0 41 29 69.5t70 28.5q40 0 68 -28.5t28 -69.5q0 -40 -28 -68.5t-68 -28.5
q-41 0 -70 28.5t-29 68.5z" />
    <glyph glyph-name="edotaccent" unicode="&#x117;" horiz-adv-x="1015" 
d="M934 469h-690q-3 -93 37 -174t116.5 -131.5t173.5 -50.5q90 0 154 16t129 59v-151q-23 -3 -67 -17t-103.5 -25t-136.5 -11q-201 0 -334 136t-133 337q0 205 125.5 341t308.5 136q82 0 153.5 -29t120 -74.5t83.5 -103t51 -115t16 -108.5q0 -23 -4 -35zM514 815
q-98 0 -169 -65.5t-97 -167.5h522q-10 87 -81.5 160t-174.5 73zM424 1196q0 40 27 67t67 27t67 -27t27 -67q0 -38 -27 -65t-67 -27t-67 27t-27 65z" />
    <glyph glyph-name="Eogonek" unicode="&#x118;" horiz-adv-x="944" 
d="M401 -356q0 96 81.5 187.5t201.5 168.5h-537q9 254 9 367v671q0 228 -9 365h338q189 0 346 10v-156q-95 9 -346 9h-163v-447h161q225 0 320 6v-151q-94 6 -320 6h-161v-541h180q254 0 346 6v-145h-4q-123 -60 -206 -148.5t-83 -164.5q0 -47 32 -78t79 -31q90 0 151 64
v-127q-82 -58 -209 -58q-91 0 -149 50.5t-58 136.5z" />
    <glyph glyph-name="eogonek" unicode="&#x119;" horiz-adv-x="1015" 
d="M934 469h-690q-3 -93 37 -174t116.5 -131.5t173.5 -50.5q90 0 154 16t129 59v-151q-140 -97 -217.5 -177.5t-77.5 -152.5q0 -50 33 -79t84 -29q63 0 123 51v-113q-79 -51 -189 -51q-84 0 -139 49t-55 133q0 150 254 324q-70 -8 -123 -8q-201 0 -334 136t-133 337
q0 205 125.5 341t308.5 136q82 0 153.5 -29t120 -74.5t83.5 -103t51 -115t16 -108.5q0 -23 -4 -35zM514 815q-98 0 -169 -65.5t-97 -167.5h522q-10 87 -81.5 160t-174.5 73z" />
    <glyph glyph-name="Ecaron" unicode="&#x11a;" horiz-adv-x="944" 
d="M485 1266h-163v-447h161q225 0 320 6v-151q-94 6 -320 6h-161v-541h180q254 0 346 6v-151q-92 6 -346 6h-355q9 254 9 367v671q0 228 -9 365h338q220 0 346 8v-154q-95 9 -346 9zM492 1597l161 152h156l-303 -272h-33l-303 272h164z" />
    <glyph glyph-name="ecaron" unicode="&#x11b;" horiz-adv-x="1015" 
d="M934 469h-690q-3 -93 37 -174t116.5 -131.5t173.5 -50.5q90 0 154 16t129 59v-151q-23 -3 -67 -17t-103.5 -25t-136.5 -11q-201 0 -334 136t-133 337q0 205 125.5 341t308.5 136q82 0 153.5 -29t120 -74.5t83.5 -103t51 -115t16 -108.5q0 -23 -4 -35zM514 815
q-98 0 -169 -65.5t-97 -167.5h522q-10 87 -81.5 160t-174.5 73zM518 1155l139 176h129l-256 -307h-30l-252 307h133z" />
    <glyph glyph-name="Gcircumflex" unicode="&#x11c;" horiz-adv-x="1370" 
d="M1227 393v-348q-80 -26 -121 -37.5t-111.5 -22t-150.5 -10.5q-162 0 -303.5 57.5t-240 155.5t-154.5 231.5t-56 282.5q0 148 55.5 281.5t153 232t238.5 156.5t303 58q104 0 184 -16.5t176 -51.5v-193q-135 113 -354 113q-167 0 -302 -77.5t-209.5 -210t-74.5 -292.5
t75.5 -293t210 -210.5t298.5 -77.5q157 0 223 41v231q0 136 -8 258h176q-8 -122 -8 -258zM807 1638l-162 -151h-156l304 272h32l303 -272h-163z" />
    <glyph glyph-name="gcircumflex" unicode="&#x11d;" horiz-adv-x="1011" 
d="M797 920h135q0 -101 -90 -164q55 -76 55 -189q0 -154 -114.5 -262t-278.5 -108q-49 0 -108 19.5t-77 19.5q-30 0 -52.5 -30.5t-22.5 -78.5q0 -40 29.5 -72t68.5 -32q9 0 63.5 8t98.5 8q125 0 229.5 -36.5t167 -105t62.5 -155.5q0 -79 -62.5 -145.5t-169 -105
t-231.5 -38.5q-192 0 -326.5 81.5t-134.5 203.5q0 135 160 215q-47 16 -76 65.5t-29 100.5q0 56 37 108.5t98 73.5q-116 107 -116 266q0 153 113.5 261t277.5 108q147 0 258 -100q35 32 35 84zM272 567q0 -100 68 -171.5t162 -71.5q97 0 166 71.5t69 171.5t-69 170t-166 70
q-94 0 -162 -70.5t-68 -169.5zM199 -260q0 -73 87.5 -123.5t213.5 -50.5q125 0 212 49t87 121q0 71 -89.5 121.5t-215.5 50.5q-122 0 -208.5 -49t-86.5 -119zM506 1219l-137 -177h-129l254 308h30l254 -308h-135z" />
    <glyph glyph-name="Gbreve" unicode="&#x11e;" horiz-adv-x="1370" 
d="M1227 393v-348q-80 -26 -121 -37.5t-111.5 -22t-150.5 -10.5q-162 0 -303.5 57.5t-240 155.5t-154.5 231.5t-56 282.5q0 148 55.5 281.5t153 232t238.5 156.5t303 58q104 0 184 -16.5t176 -51.5v-193q-135 113 -354 113q-167 0 -302 -77.5t-209.5 -210t-74.5 -292.5
t75.5 -293t210 -210.5t298.5 -77.5q157 0 223 41v231q0 136 -8 258h176q-8 -122 -8 -258zM651 1716q0 -60 49.5 -99.5t122.5 -39.5q70 0 120 40t50 99h117q0 -105 -83.5 -170t-203.5 -65q-123 0 -205.5 65t-82.5 170h116z" />
    <glyph glyph-name="gbreve" unicode="&#x11f;" horiz-adv-x="1011" 
d="M797 920h135q0 -101 -90 -164q55 -76 55 -189q0 -154 -114.5 -262t-278.5 -108q-49 0 -108 19.5t-77 19.5q-30 0 -52.5 -30.5t-22.5 -78.5q0 -40 29.5 -72t68.5 -32q9 0 63.5 8t98.5 8q125 0 229.5 -36.5t167 -105t62.5 -155.5q0 -79 -62.5 -145.5t-169 -105
t-231.5 -38.5q-192 0 -326.5 81.5t-134.5 203.5q0 135 160 215q-47 16 -76 65.5t-29 100.5q0 56 37 108.5t98 73.5q-116 107 -116 266q0 153 113.5 261t277.5 108q147 0 258 -100q35 32 35 84zM272 567q0 -100 68 -171.5t162 -71.5q97 0 166 71.5t69 171.5t-69 170t-166 70
q-94 0 -162 -70.5t-68 -169.5zM199 -260q0 -73 87.5 -123.5t213.5 -50.5q125 0 212 49t87 121q0 71 -89.5 121.5t-215.5 50.5q-122 0 -208.5 -49t-86.5 -119zM373 1286q0 -56 39 -94.5t96 -38.5t96 38.5t39 94.5h111q0 -101 -71.5 -170t-174.5 -69t-175.5 69t-72.5 170h113z
" />
    <glyph glyph-name="Gdotaccent" unicode="&#x120;" horiz-adv-x="1370" 
d="M1227 393v-348q-80 -26 -121 -37.5t-111.5 -22t-150.5 -10.5q-162 0 -303.5 57.5t-240 155.5t-154.5 231.5t-56 282.5q0 148 55.5 281.5t153 232t238.5 156.5t303 58q104 0 184 -16.5t176 -51.5v-193q-135 113 -354 113q-167 0 -302 -77.5t-209.5 -210t-74.5 -292.5
t75.5 -293t210 -210.5t298.5 -77.5q157 0 223 41v231q0 136 -8 258h176q-8 -122 -8 -258zM729 1604q0 41 28.5 69.5t69.5 28.5q40 0 68.5 -28.5t28.5 -69.5q0 -40 -28.5 -68.5t-68.5 -28.5q-41 0 -69.5 28.5t-28.5 68.5z" />
    <glyph glyph-name="gdotaccent" unicode="&#x121;" horiz-adv-x="1011" 
d="M797 920h135q0 -101 -90 -164q55 -76 55 -189q0 -154 -114.5 -262t-278.5 -108q-49 0 -108 19.5t-77 19.5q-30 0 -52.5 -30.5t-22.5 -78.5q0 -40 29.5 -72t68.5 -32q9 0 63.5 8t98.5 8q125 0 229.5 -36.5t167 -105t62.5 -155.5q0 -79 -62.5 -145.5t-169 -105
t-231.5 -38.5q-192 0 -326.5 81.5t-134.5 203.5q0 135 160 215q-47 16 -76 65.5t-29 100.5q0 56 37 108.5t98 73.5q-116 107 -116 266q0 153 113.5 261t277.5 108q147 0 258 -100q35 32 35 84zM272 567q0 -100 68 -171.5t162 -71.5q97 0 166 71.5t69 171.5t-69 170t-166 70
q-94 0 -162 -70.5t-68 -169.5zM199 -260q0 -73 87.5 -123.5t213.5 -50.5q125 0 212 49t87 121q0 71 -89.5 121.5t-215.5 50.5q-122 0 -208.5 -49t-86.5 -119zM414 1196q0 40 27 67t67 27t67 -27t27 -67q0 -38 -27 -65t-67 -27t-67 27t-27 65z" />
    <glyph glyph-name="Gcommaaccent" unicode="&#x122;" horiz-adv-x="1370" 
d="M1227 393v-348q-80 -26 -121 -37.5t-111.5 -22t-150.5 -10.5q-162 0 -303.5 57.5t-240 155.5t-154.5 231.5t-56 282.5q0 148 55.5 281.5t153 232t238.5 156.5t303 58q104 0 184 -16.5t176 -51.5v-193q-135 113 -354 113q-167 0 -302 -77.5t-209.5 -210t-74.5 -292.5
t75.5 -293t210 -210.5t298.5 -77.5q157 0 223 41v231q0 136 -8 258h176q-8 -122 -8 -258zM762 -180v94q104 0 170.5 -58t66.5 -147q0 -82 -57.5 -133t-148.5 -51q-57 0 -107 20v105q42 -29 90 -29q42 0 70 26t28 66q0 44 -33 75.5t-79 31.5z" />
    <glyph glyph-name="gcommaaccent" unicode="&#x123;" horiz-adv-x="1011" 
d="M797 920h135q0 -101 -90 -164q55 -76 55 -189q0 -154 -114.5 -262t-278.5 -108q-49 0 -108 19.5t-77 19.5q-30 0 -52.5 -30.5t-22.5 -78.5q0 -40 29.5 -72t68.5 -32q9 0 63.5 8t98.5 8q125 0 229.5 -36.5t167 -105t62.5 -155.5q0 -79 -62.5 -145.5t-169 -105
t-231.5 -38.5q-192 0 -326.5 81.5t-134.5 203.5q0 135 160 215q-47 16 -76 65.5t-29 100.5q0 56 37 108.5t98 73.5q-116 107 -116 266q0 153 113.5 261t277.5 108q147 0 258 -100q35 32 35 84zM272 567q0 -100 68 -171.5t162 -71.5q97 0 166 71.5t69 171.5t-69 170t-166 70
q-94 0 -162 -70.5t-68 -169.5zM199 -260q0 -73 87.5 -123.5t213.5 -50.5q125 0 212 49t87 121q0 71 -89.5 121.5t-215.5 50.5q-122 0 -208.5 -49t-86.5 -119zM575 1102v-94q-104 0 -170.5 57.5t-66.5 146.5q0 82 58 133.5t149 51.5q53 0 106 -21v-104q-41 28 -90 28
q-42 0 -70 -26t-28 -66q0 -44 33 -75t79 -31z" />
    <glyph glyph-name="Hcircumflex" unicode="&#x124;" horiz-adv-x="1411" 
d="M322 1036v-213h765v213q0 281 -6 367h181q-9 -202 -9 -367v-741q0 -167 9 -295h-181q6 86 6 297v389h-765v-391q0 -181 8 -295h-180q6 86 6 297v739q0 284 -6 367h180q-8 -110 -8 -367zM702 1638l-161 -151h-156l303 272h33l303 -272h-164z" />
    <glyph glyph-name="hcircumflex" unicode="&#x125;" horiz-adv-x="1024" 
d="M735 211v324q0 125 -57 197.5t-158 72.5q-105 0 -163 -75.5t-58 -194.5v-324q0 -143 8 -211h-174q8 68 8 211v1194h-94q12 15 32 53.5t23 44.5h205q-8 -71 -8 -211v-512q42 74 113 115t161 41q156 0 238 -110.5t82 -295.5v-319q0 -143 8 -211h-174q8 102 8 211zM209 1686
l-162 -152h-156l304 272h32l303 -272h-163z" />
    <glyph glyph-name="Hbar" unicode="&#x126;" horiz-adv-x="1433" 
d="M45 1126h123q-3 156 -8 277h188q-8 -90 -8 -277h756q-4 192 -9 277h193q-7 -113 -10 -277h116v-110h-116v-721q0 -153 10 -295h-193q9 86 9 297v362h-756v-364q0 -181 8 -295h-188q8 114 8 297v719h-123v110zM340 805h756v211h-756v-211z" />
    <glyph glyph-name="hbar" unicode="&#x127;" horiz-adv-x="1030" 
d="M739 211v324q0 125 -57 197.5t-156 72.5q-105 0 -163 -75.5t-58 -194.5v-324q0 -135 6 -211h-172q6 76 6 211v872h-135v117h135v205h-94q9 11 19.5 28.5t22 39.5t16.5 30h202q-6 -71 -6 -211v-92h342v-117h-342v-303q38 73 111 114.5t164 41.5q156 0 237.5 -110.5
t81.5 -295.5v-319q0 -135 6 -211h-172q6 76 6 211z" />
    <glyph glyph-name="Itilde" unicode="&#x128;" horiz-adv-x="493" 
d="M330 1036v-669q0 -241 8 -367h-182q8 126 8 367v669q0 245 -8 367h182q-8 -122 -8 -367zM12 1516h-114q-3 95 55.5 156t159.5 61q45 0 79 -12.5t55.5 -29.5t40 -34.5t43 -30t54.5 -12.5q43 0 70.5 28.5t27.5 77.5h117q0 -97 -58.5 -156t-156.5 -59q-44 0 -78 12t-55 28.5
t-40 33.5t-43.5 29t-55.5 12q-45 0 -73 -30t-28 -74z" />
    <glyph glyph-name="itilde" unicode="&#x129;" horiz-adv-x="448" 
d="M307 709v-496q0 -151 6 -213h-170q4 90 4 213v608h-94q9 9 18 22t14.5 23.5t14.5 28t13 25.5h200q-6 -70 -6 -211zM57 1077h-106q2 84 49 138.5t123 54.5q35 0 66 -14.5t49.5 -32.5t40 -32.5t40.5 -14.5q35 0 55.5 23t20.5 63h103q0 -79 -48.5 -135t-121.5 -56
q-37 0 -69 14.5t-50.5 32.5t-40.5 32.5t-41 14.5q-33 0 -51.5 -24.5t-18.5 -63.5z" />
    <glyph glyph-name="Imacron" unicode="&#x12a;" horiz-adv-x="493" 
d="M330 1036v-669q0 -241 8 -367h-182q8 126 8 367v669q0 245 -8 367h182q-8 -122 -8 -367zM-47 1640h579v-106h-579v106z" />
    <glyph glyph-name="imacron" unicode="&#x12b;" horiz-adv-x="448" 
d="M307 709v-496q0 -151 6 -213h-170q4 90 4 213v608h-94q9 9 18 22t14.5 23.5t14.5 28t13 25.5h200q-6 -70 -6 -211zM-25 1231h496v-113h-496v113z" />
    <glyph glyph-name="Ibreve" unicode="&#x12c;" horiz-adv-x="493" 
d="M330 1036v-669q0 -241 8 -367h-182q8 126 8 367v669q0 245 -8 367h182q-8 -122 -8 -367zM76 1716q0 -60 49.5 -99.5t122.5 -39.5q70 0 120 40t50 99h117q0 -105 -83.5 -170t-203.5 -65q-123 0 -206 65t-83 170h117z" />
    <glyph glyph-name="ibreve" unicode="&#x12d;" horiz-adv-x="448" 
d="M307 709v-496q0 -151 6 -213h-170q4 90 4 213v608h-94q9 9 18 22t14.5 23.5t14.5 28t13 25.5h200q-6 -70 -6 -211zM88 1286q0 -56 39 -94.5t96 -38.5t96 38.5t39 94.5h111q0 -101 -71.5 -170t-174.5 -69t-175.5 69t-72.5 170h113z" />
    <glyph glyph-name="Iogonek" unicode="&#x12e;" horiz-adv-x="493" 
d="M330 1036v-669q0 -241 8 -367q-132 -61 -213.5 -144.5t-81.5 -168.5q0 -47 33.5 -78t83.5 -31q86 0 147 64v-127q-86 -58 -205 -58q-93 0 -152 50.5t-59 136.5q0 172 265 358q8 132 8 365v669q0 245 -8 367h182q-8 -122 -8 -367z" />
    <glyph glyph-name="iogonek" unicode="&#x12f;" horiz-adv-x="448" 
d="M307 709v-496q0 -151 6 -213q-130 -84 -194 -152t-64 -141q0 -49 34 -78.5t83 -29.5q63 0 123 51v-113q-76 -51 -189 -51q-83 0 -137.5 50t-54.5 136q0 90 58.5 166.5t168.5 161.5q6 68 6 213v608h-94q25 28 60 99h200q-6 -70 -6 -211zM131 1198q0 41 27 68.5t67 27.5
t67 -27.5t27 -68.5q0 -38 -27 -65t-67 -27t-67 27t-27 65z" />
    <glyph glyph-name="Idotaccent" unicode="&#x130;" horiz-adv-x="493" 
d="M330 1036v-669q0 -241 8 -367h-182q8 126 8 367v669q0 245 -8 367h182q-8 -122 -8 -367zM147 1604q0 41 29 69.5t70 28.5q40 0 68 -28.5t28 -69.5q0 -40 -28 -68.5t-68 -28.5q-41 0 -70 28.5t-29 68.5z" />
    <glyph glyph-name="dotlessi" unicode="&#x131;" horiz-adv-x="448" 
d="M307 709v-496q0 -151 6 -213h-170q4 90 4 213v608h-94q9 9 18 22t14.5 23.5t14.5 28t13 25.5h200q-6 -70 -6 -211z" />
    <glyph glyph-name="IJ" unicode="&#x132;" horiz-adv-x="983" 
d="M330 1036v-669q0 -241 8 -367h-182q8 126 8 367v669q0 245 -8 367h182q-8 -122 -8 -367zM823 1036v-1042q0 -185 -103.5 -291t-262.5 -106q-39 0 -99.5 13t-72.5 15v185q56 -70 164 -70q89 0 148.5 71t59.5 183v1042q0 184 -6 367h180q-8 -122 -8 -367z" />
    <glyph glyph-name="ij" unicode="&#x133;" horiz-adv-x="897" 
d="M307 709v-496q0 -151 6 -213h-172q6 68 6 213v608h-94q25 28 60 99h200q-6 -70 -6 -211zM131 1198q0 41 27 68.5t67 27.5t67 -27.5t27 -68.5q0 -38 -27 -65t-67 -27t-67 27t-27 65zM756 709v-836q0 -192 -78 -296.5t-221 -104.5q-47 0 -95 7t-51 7v147q32 -28 103 -28
q84 0 133 69.5t49 202.5v944h-94q31 45 57 99h203q-6 -77 -6 -211zM580 1200q0 40 27 67t65 27q40 0 67 -27t27 -67t-27 -67t-67 -27q-38 0 -65 27t-27 67z" />
    <glyph glyph-name="Jcircumflex" unicode="&#x134;" horiz-adv-x="489" 
d="M330 1036v-1042q0 -185 -104 -291t-263 -106q-39 0 -99.5 13t-72.5 15v185q56 -70 164 -70q89 0 149 71t60 183v1042q0 184 -6 367h180q-8 -122 -8 -367zM246 1638l-162 -151h-156l303 272h33l303 -272h-164z" />
    <glyph glyph-name="jcircumflex" unicode="&#x135;" horiz-adv-x="448" 
d="M307 709v-848q0 -191 -79 -296.5t-220 -105.5q-48 0 -96 7.5t-49 7.5v149q29 -29 102 -29q85 0 133.5 71t48.5 212v944h-94q37 50 56 99h204q-6 -76 -6 -211zM223 1219l-137 -177h-129l254 308h31l254 -308h-136z" />
    <glyph glyph-name="Kcommaaccent" unicode="&#x136;" horiz-adv-x="1177" 
d="M322 1036v-299l378 434q135 161 187 232h205q-101 -101 -226 -244l-381 -432l469 -502q42 -46 82 -86.5t82 -80.5t60 -58h-248q-75 101 -139 170l-469 508v-311q0 -178 6 -367h-181q9 142 9 367v669q0 230 -9 367h181q-6 -183 -6 -367zM504 -180v94q104 0 170.5 -58
t66.5 -147q0 -82 -57.5 -133t-148.5 -51q-57 0 -107 20v105q42 -29 90 -29q42 0 70 26t28 66q0 44 -33 75.5t-79 31.5z" />
    <glyph glyph-name="kcommaaccent" unicode="&#x137;" horiz-adv-x="909" 
d="M299 1292v-805q191 229 252 305t96 128h182q-75 -75 -374 -435q209 -238 288.5 -322.5t165.5 -162.5h-217q-44 57 -393 440v-229q0 -141 6 -211h-172q8 63 8 211v1194h-94q31 45 53 98h205q-6 -71 -6 -211zM395 -180v94q104 0 171 -58t67 -147q0 -81 -58 -132.5
t-149 -51.5q-57 0 -107 20v105q42 -29 91 -29q42 0 70 26t28 66q0 44 -33.5 75.5t-79.5 31.5z" />
    <glyph glyph-name="kgreenlandic" unicode="&#x138;" horiz-adv-x="915" 
d="M147 248v573h-94q20 25 58 99h202q-6 -123 -6 -246v-185l273 324q54 65 101 92t110 27q57 0 90 -19q-48 -14 -86.5 -48.5t-92.5 -102.5l-237 -279l258 -290q122 -132 192 -193h-219q-31 50 -121 145l-268 293v-190q0 -186 6 -248h-170q4 43 4 248z" />
    <glyph glyph-name="Lacute" unicode="&#x139;" horiz-adv-x="946" 
d="M322 1036v-895h245q237 0 328 6v-155q-122 8 -328 8h-420q9 254 9 367v669q0 230 -9 367h181q-6 -183 -6 -367zM129 1505l262 230h199l-299 -230h-162z" />
    <glyph glyph-name="lacute" unicode="&#x13a;" horiz-adv-x="440" 
d="M299 1245v-1034q0 -148 8 -211h-174q8 63 8 211v1147h-94q28 38 53 98h205q-6 -74 -6 -211zM109 1501l208 182h199l-244 -182h-163z" />
    <glyph glyph-name="Lcommaaccent" unicode="&#x13b;" horiz-adv-x="946" 
d="M322 1036v-895h245q237 0 328 6v-155q-122 8 -328 8h-420q9 254 9 367v669q0 230 -9 367h181q-6 -183 -6 -367zM406 -180v94q104 0 170.5 -58t66.5 -147q0 -81 -58 -132.5t-149 -51.5q-56 0 -106 20v105q42 -29 90 -29q42 0 70 26t28 66q0 44 -33 75.5t-79 31.5z" />
    <glyph glyph-name="lcommaaccent" unicode="&#x13c;" horiz-adv-x="440" 
d="M299 1292v-1081q0 -141 6 -211h-172q8 63 8 211v1194h-94q31 45 53 98h205q-6 -71 -6 -211zM152 -180v94q104 0 170.5 -58t66.5 -147q0 -81 -58 -132.5t-149 -51.5q-56 0 -106 20v105q42 -29 90 -29q42 0 70 26t28 66q0 44 -33 75.5t-79 31.5z" />
    <glyph glyph-name="Lcaron" unicode="&#x13d;" horiz-adv-x="946" 
d="M322 1036v-895h245q237 0 328 6v-155q-122 8 -328 8h-420q9 254 9 367v669q0 230 -9 367h181q-6 -183 -6 -367zM563 1167l12 334h142l-35 -334h-119z" />
    <glyph glyph-name="lcaron" unicode="&#x13e;" horiz-adv-x="440" 
d="M299 1292v-1081q0 -141 6 -211h-172q8 63 8 211v1194h-94q31 45 53 98h205q-6 -71 -6 -211zM406 1167l12 334h141l-35 -334h-118z" />
    <glyph glyph-name="Ldot" unicode="&#x13f;" horiz-adv-x="946" 
d="M322 1036v-895h245q237 0 328 6v-155q-122 8 -328 8h-420q9 254 9 367v669q0 230 -9 367h181q-6 -183 -6 -367zM618 788q0 41 29 70t70 29q40 0 68 -29t28 -70q0 -40 -28 -68t-68 -28q-41 0 -70 28t-29 68z" />
    <glyph glyph-name="ldot" unicode="&#x140;" horiz-adv-x="542" 
d="M416 799q0 36 20.5 60t52.5 24t53 -24t21 -60q0 -34 -21 -57t-53 -23t-52.5 23t-20.5 57zM299 1292v-1081q0 -141 6 -211h-172q8 63 8 211v1194h-94q31 45 53 98h205q-6 -71 -6 -211z" />
    <glyph glyph-name="Lslash" unicode="&#x141;" horiz-adv-x="1030" 
d="M408 1036v-258l364 217v-149l-364 -215v-490h243q237 0 328 6v-155q-122 8 -328 8h-418q7 198 7 367v178l-185 -109v150l185 106v344q0 260 -7 367h179q-4 -122 -4 -367z" />
    <glyph glyph-name="lslash" unicode="&#x142;" horiz-adv-x="634" 
d="M393 1292v-436l189 117v-133l-189 -119v-510q0 -141 6 -211h-172q9 70 9 211v426l-181 -115v137l181 111v635h-97q27 34 58 98h202q-6 -71 -6 -211z" />
    <glyph glyph-name="Nacute" unicode="&#x143;" horiz-adv-x="1427" 
d="M313 295q0 -167 9 -295h-175q9 128 9 297v741q0 146 -9 396h39q59 -74 168 -195l758 -901v698q0 109 -6 367h172q-6 -135 -6 -367v-764q0 -178 6 -297h-37q-64 83 -151 183l-773 917zM602 1505l262 230h199l-299 -230h-162z" />
    <glyph glyph-name="nacute" unicode="&#x144;" horiz-adv-x="1030" 
d="M741 537q0 132 -61 201t-154 69q-96 0 -157.5 -71t-61.5 -187v-336q0 -125 6 -213h-172q6 88 6 213v608h-94q28 37 60 99h194v-142q35 67 107.5 112.5t167.5 45.5q150 0 233.5 -104.5t83.5 -296.5v-322q0 -134 8 -213h-172q6 88 6 213v324zM440 1049l209 311h162
l-231 -311h-140z" />
    <glyph glyph-name="Ncommaaccent" unicode="&#x145;" horiz-adv-x="1427" 
d="M313 295q0 -167 9 -295h-175q9 128 9 297v741q0 146 -9 396h39q59 -74 168 -195l758 -901v698q0 109 -6 367h172q-6 -135 -6 -367v-764q0 -178 6 -297h-37q-64 83 -151 183l-773 917zM678 -180v94q104 0 170.5 -58t66.5 -147q0 -82 -57.5 -133t-148.5 -51q-57 0 -107 20
v105q42 -29 90 -29q42 0 70.5 26.5t28.5 65.5q0 44 -33.5 75.5t-79.5 31.5z" />
    <glyph glyph-name="ncommaaccent" unicode="&#x146;" horiz-adv-x="1030" 
d="M741 537q0 132 -61 201t-154 69q-96 0 -157.5 -71t-61.5 -187v-336q0 -125 6 -213h-172q6 88 6 213v608h-94q28 37 60 99h194v-142q35 67 107.5 112.5t167.5 45.5q150 0 233.5 -104.5t83.5 -296.5v-322q0 -134 8 -213h-172q6 88 6 213v324zM446 -180v94q104 0 171 -58
t67 -147q0 -81 -58 -132.5t-149 -51.5q-56 0 -106 20v105q42 -29 90 -29q42 0 70 26t28 66q0 44 -33.5 75.5t-79.5 31.5z" />
    <glyph glyph-name="Ncaron" unicode="&#x147;" horiz-adv-x="1427" 
d="M313 295q0 -167 9 -295h-175q9 128 9 297v741q0 146 -9 396h39q59 -74 168 -195l758 -901v698q0 109 -6 367h172q-6 -135 -6 -367v-764q0 -178 6 -297h-37q-64 83 -151 183l-773 917zM707 1597l161 152h156l-303 -272h-33l-303 272h164z" />
    <glyph glyph-name="ncaron" unicode="&#x148;" horiz-adv-x="1030" 
d="M741 537q0 132 -61 201t-154 69q-96 0 -157.5 -71t-61.5 -187v-336q0 -125 6 -213h-172q6 88 6 213v608h-94q28 37 60 99h194v-142q35 67 107.5 112.5t167.5 45.5q150 0 233.5 -104.5t83.5 -296.5v-322q0 -134 8 -213h-172q6 88 6 213v324zM530 1155l140 176h129
l-256 -307h-31l-252 307h133z" />
    <glyph glyph-name="napostrophe" unicode="&#x149;" horiz-adv-x="1030" 
d="M741 537q0 132 -61 201t-154 69q-96 0 -157.5 -71t-61.5 -187v-336q0 -125 6 -213h-172q6 88 6 213v608h-94q28 37 60 99h194v-142q35 67 107.5 112.5t167.5 45.5q150 0 233.5 -104.5t83.5 -296.5v-322q0 -134 8 -213h-172q6 88 6 213v324zM135 1022l12 334h142l-35 -334
h-119z" />
    <glyph glyph-name="Eng" unicode="&#x14a;" horiz-adv-x="1427" 
d="M1272 1036v-1040q0 -185 -102.5 -292t-264.5 -107q-28 0 -54.5 4.5t-59 12t-54.5 11.5v176q55 -69 166 -69q89 0 149 70.5t60 183.5v129l-797 960v-690q0 -241 7 -385h-175q9 184 9 397v641q0 142 -9 396h39q35 -48 187 -232l739 -862v696q0 245 -8 367h176
q-8 -81 -8 -367z" />
    <glyph glyph-name="eng" unicode="&#x14b;" horiz-adv-x="1038" 
d="M741 543q0 122 -60.5 192t-156.5 70q-100 0 -158.5 -70.5t-58.5 -187.5v-336q0 -123 6 -211h-172q6 88 6 211v610h-94q32 37 58 99h196v-142q32 65 97.5 111.5t168.5 46.5q151 0 239.5 -105t88.5 -282v-512q0 -190 -79 -294.5t-220 -104.5q-48 0 -96 7t-49 7v147
q31 -28 102 -28q84 0 133 70t49 202v500z" />
    <glyph glyph-name="Omacron" unicode="&#x14c;" horiz-adv-x="1630" 
d="M90 702q0 147 56.5 281t153 231.5t231.5 155t284 57.5t284 -57.5t231.5 -155t153 -231.5t56.5 -281q0 -198 -96 -365t-263 -264.5t-366 -97.5t-366 97.5t-263 264.5t-96 365zM260 702q0 -119 44 -227.5t118 -186t177 -123.5t216 -46t216 46t177 123.5t118 186t44 227.5
q0 158 -74 292t-202 212t-279 78t-279 -78t-202 -212t-74 -292zM526 1640h580v-106h-580v106z" />
    <glyph glyph-name="omacron" unicode="&#x14d;" horiz-adv-x="1107" 
d="M80 459q0 97 37.5 185.5t101 152.5t151 101.5t183.5 37.5q97 0 184.5 -37.5t151.5 -101.5t101.5 -152.5t37.5 -185.5q0 -96 -37.5 -184t-101.5 -151t-151.5 -100.5t-184.5 -37.5q-195 0 -334 138.5t-139 334.5zM233 459q0 -139 93 -236.5t227 -97.5q133 0 227 98t94 236
q0 140 -94 239t-227 99t-226.5 -99t-93.5 -239zM305 1231h496v-113h-496v113z" />
    <glyph glyph-name="Obreve" unicode="&#x14e;" horiz-adv-x="1630" 
d="M90 702q0 147 56.5 281t153 231.5t231.5 155t284 57.5t284 -57.5t231.5 -155t153 -231.5t56.5 -281q0 -198 -96 -365t-263 -264.5t-366 -97.5t-366 97.5t-263 264.5t-96 365zM260 702q0 -119 44 -227.5t118 -186t177 -123.5t216 -46t216 46t177 123.5t118 186t44 227.5
q0 158 -74 292t-202 212t-279 78t-279 -78t-202 -212t-74 -292zM643 1716q0 -60 49.5 -99.5t122.5 -39.5q70 0 120 40t50 99h117q0 -105 -83.5 -170t-203.5 -65q-123 0 -206 65t-83 170h117z" />
    <glyph glyph-name="obreve" unicode="&#x14f;" horiz-adv-x="1107" 
d="M80 459q0 97 37.5 185.5t101 152.5t151 101.5t183.5 37.5q97 0 184.5 -37.5t151.5 -101.5t101.5 -152.5t37.5 -185.5q0 -96 -37.5 -184t-101.5 -151t-151.5 -100.5t-184.5 -37.5q-195 0 -334 138.5t-139 334.5zM233 459q0 -139 93 -236.5t227 -97.5q133 0 227 98t94 236
q0 140 -94 239t-227 99t-226.5 -99t-93.5 -239zM418 1286q0 -56 39 -94.5t96 -38.5t96 38.5t39 94.5h111q0 -101 -71.5 -170t-174.5 -69t-175.5 69t-72.5 170h113z" />
    <glyph glyph-name="Ohungarumlaut" unicode="&#x150;" horiz-adv-x="1630" 
d="M90 702q0 147 56.5 281t153 231.5t231.5 155t284 57.5t284 -57.5t231.5 -155t153 -231.5t56.5 -281q0 -198 -96 -365t-263 -264.5t-366 -97.5t-366 97.5t-263 264.5t-96 365zM260 702q0 -119 44 -227.5t118 -186t177 -123.5t216 -46t216 46t177 123.5t118 186t44 227.5
q0 158 -74 292t-202 212t-279 78t-279 -78t-202 -212t-74 -292zM582 1505l188 283h152l-205 -283h-135zM879 1505l188 283h150l-203 -283h-135z" />
    <glyph glyph-name="ohungarumlaut" unicode="&#x151;" horiz-adv-x="1107" 
d="M80 459q0 97 37.5 185.5t101 152.5t151 101.5t183.5 37.5q97 0 184.5 -37.5t151.5 -101.5t101.5 -152.5t37.5 -185.5q0 -96 -37.5 -184t-101.5 -151t-151.5 -100.5t-184.5 -37.5q-195 0 -334 138.5t-139 334.5zM233 459q0 -139 93 -236.5t227 -97.5q133 0 227 98t94 236
q0 140 -94 239t-227 99t-226.5 -99t-93.5 -239zM334 1049l188 282h152l-205 -282h-135zM631 1049l188 282h150l-203 -282h-135z" />
    <glyph glyph-name="OE" unicode="&#x152;" horiz-adv-x="1691" 
d="M1257 1264h-188v-445h174q211 0 305 6v-151q-95 6 -305 6h-174v-541h193q209 0 331 8v-155q-122 8 -331 8h-398q-225 0 -402.5 92.5t-274.5 252.5t-97 357t96 356t273 251t403 92h395q163 0 320 10v-156q-95 9 -320 9zM260 702q0 -240 168.5 -401.5t429.5 -161.5h43
l2 254v625l-2 246h-45q-172 0 -308.5 -74t-212 -202.5t-75.5 -285.5z" />
    <glyph glyph-name="oe" unicode="&#x153;" horiz-adv-x="1798" 
d="M1716 469h-702v-2q-3 -154 97.5 -255t244.5 -101q163 0 280 77v-153q-22 -4 -78 -19.5t-106.5 -23.5t-114.5 -8q-145 0 -248 71.5t-147 192.5q-36 -107 -140.5 -185.5t-252.5 -78.5q-126 0 -234 63t-171.5 172.5t-63.5 239.5q0 129 63 239.5t171 175t235 64.5
q144 0 250 -78t143 -184q33 112 134.5 185t234.5 73q74 0 140.5 -26.5t114.5 -70.5t83.5 -99.5t53 -114.5t17.5 -115q0 -23 -4 -39zM233 459q0 -137 94 -235.5t224 -98.5q133 0 227 98.5t94 235.5q0 138 -93.5 238t-225.5 100q-131 0 -225.5 -99.5t-94.5 -238.5zM1300 815
q-104 0 -174.5 -63t-97.5 -170h524q-11 92 -83.5 162.5t-168.5 70.5z" />
    <glyph glyph-name="Racute" unicode="&#x154;" horiz-adv-x="1134" 
d="M324 582v-228q0 -270 8 -354h-182q8 84 8 354v682q0 286 -8 367h292q228 0 355 -113.5t127 -296.5q0 -152 -79 -246.5t-198 -132.5q53 -65 148.5 -196.5t181 -240.5t156.5 -177h-228q-244 311 -403 586q-25 -4 -68 -4h-110zM324 1270v-565h133q130 0 213.5 78.5
t83.5 205.5q0 117 -83 199t-235 82h-112zM377 1505l262 230h199l-299 -230h-162z" />
    <glyph glyph-name="racute" unicode="&#x155;" horiz-adv-x="706" 
d="M547 936q35 0 67 -5t43 -5v-174q-55 34 -133 34q-84 0 -147.5 -87.5t-63.5 -198.5v-289q0 -106 9 -211h-172q6 105 6 211v610h-95q35 44 56 99h184v-209q26 102 94.5 163.5t151.5 61.5zM313 1049l209 311h162l-231 -311h-140z" />
    <glyph glyph-name="Rcommaaccent" unicode="&#x156;" horiz-adv-x="1134" 
d="M324 582v-228q0 -270 8 -354h-182q8 84 8 354v682q0 286 -8 367h292q228 0 355 -113.5t127 -296.5q0 -152 -79 -246.5t-198 -132.5q53 -65 148.5 -196.5t181 -240.5t156.5 -177h-228q-244 311 -403 586q-25 -4 -68 -4h-110zM324 1270v-565h133q130 0 213.5 78.5
t83.5 205.5q0 117 -83 199t-235 82h-112zM485 -180v94q104 0 171 -58t67 -147q0 -81 -58 -132.5t-149 -51.5q-56 0 -106 20v105q42 -29 90 -29q42 0 70 26t28 66q0 44 -33.5 75.5t-79.5 31.5z" />
    <glyph glyph-name="rcommaaccent" unicode="&#x157;" horiz-adv-x="706" 
d="M547 936q35 0 67 -5t43 -5v-174q-55 34 -133 34q-84 0 -147.5 -87.5t-63.5 -198.5v-289q0 -106 9 -211h-172q6 105 6 211v610h-95q35 44 56 99h184v-209q26 102 94.5 163.5t151.5 61.5zM176 -180v94q104 0 171 -58t67 -147q0 -81 -58 -132.5t-149 -51.5q-57 0 -107 20
v105q42 -29 90 -29q42 0 70.5 26.5t28.5 65.5q0 44 -33.5 75.5t-79.5 31.5z" />
    <glyph glyph-name="Rcaron" unicode="&#x158;" horiz-adv-x="1134" 
d="M324 582v-228q0 -270 8 -354h-182q8 84 8 354v682q0 286 -8 367h292q228 0 355 -113.5t127 -296.5q0 -152 -79 -246.5t-198 -132.5q53 -65 148.5 -196.5t181 -240.5t156.5 -177h-228q-244 311 -403 586q-25 -4 -68 -4h-110zM324 1270v-565h133q130 0 213.5 78.5
t83.5 205.5q0 117 -83 199t-235 82h-112zM496 1597l161 152h156l-303 -272h-33l-303 272h164z" />
    <glyph glyph-name="rcaron" unicode="&#x159;" horiz-adv-x="706" 
d="M547 936q35 0 67 -5t43 -5v-174q-55 34 -133 34q-84 0 -147.5 -87.5t-63.5 -198.5v-289q0 -106 9 -211h-172q6 105 6 211v610h-95q35 44 56 99h184v-209q26 102 94.5 163.5t151.5 61.5zM362 1155l140 176h129l-256 -307h-31l-252 307h133z" />
    <glyph glyph-name="Sacute" unicode="&#x15a;" horiz-adv-x="958" 
d="M317 1075q0 -60 29.5 -110.5t76 -88t103 -74.5t113.5 -78t103.5 -88.5t76 -116t29.5 -150.5q0 -177 -117.5 -288.5t-306.5 -111.5q-59 0 -113 9t-112.5 22.5t-94.5 19.5v234q39 -65 130 -108.5t194 -43.5q112 0 177 68.5t65 177.5q0 61 -29 112.5t-75 89.5t-101.5 75
t-111.5 77.5t-102 87t-75 115t-29 150.5q0 176 112.5 276.5t293.5 100.5q61 0 147.5 -18t110.5 -21v-222q-27 65 -96 98.5t-162 33.5q-105 0 -170.5 -60.5t-65.5 -167.5zM430 1505l262 230h199l-299 -230h-162z" />
    <glyph glyph-name="sacute" unicode="&#x15b;" horiz-adv-x="731" 
d="M276 700q0 -36 20 -66t52.5 -53t71 -46t77.5 -50t71.5 -59.5t52.5 -81.5t20 -108q0 -116 -79.5 -188.5t-213.5 -72.5q-47 0 -96.5 11t-95 25.5t-62.5 17.5v198q30 -56 103 -93.5t143 -37.5q64 0 102.5 35t38.5 94q0 37 -20 69t-52 56t-71 48t-78 51t-71 58.5t-52 78
t-20 102.5q0 111 77 179.5t212 68.5q50 0 118.5 -17t85.5 -18v-178q-23 42 -84.5 69t-113.5 27q-66 0 -101 -33.5t-35 -85.5zM303 1049l209 311h162l-232 -311h-139z" />
    <glyph glyph-name="Scircumflex" unicode="&#x15c;" horiz-adv-x="958" 
d="M317 1075q0 -60 29.5 -110.5t76 -88t103 -74.5t113.5 -78t103.5 -88.5t76 -116t29.5 -150.5q0 -177 -117.5 -288.5t-306.5 -111.5q-59 0 -113 9t-112.5 22.5t-94.5 19.5v234q39 -65 130 -108.5t194 -43.5q112 0 177 68.5t65 177.5q0 61 -29 112.5t-75 89.5t-101.5 75
t-111.5 77.5t-102 87t-75 115t-29 150.5q0 176 112.5 276.5t293.5 100.5q61 0 147.5 -18t110.5 -21v-222q-27 65 -96 98.5t-162 33.5q-105 0 -170.5 -60.5t-65.5 -167.5zM518 1638l-162 -151h-155l303 272h33l303 -272h-164z" />
    <glyph glyph-name="scircumflex" unicode="&#x15d;" horiz-adv-x="731" 
d="M276 700q0 -36 20 -66t52.5 -53t71 -46t77.5 -50t71.5 -59.5t52.5 -81.5t20 -108q0 -116 -79.5 -188.5t-213.5 -72.5q-47 0 -96.5 11t-95 25.5t-62.5 17.5v198q30 -56 103 -93.5t143 -37.5q64 0 102.5 35t38.5 94q0 37 -20 69t-52 56t-71 48t-78 51t-71 58.5t-52 78
t-20 102.5q0 111 77 179.5t212 68.5q50 0 118.5 -17t85.5 -18v-178q-23 42 -84.5 69t-113.5 27q-66 0 -101 -33.5t-35 -85.5zM383 1219l-137 -177h-129l254 308h30l254 -308h-135z" />
    <glyph glyph-name="Scedilla" unicode="&#x15e;" horiz-adv-x="958" 
d="M281 -190l94 161q-60 3 -151.5 24t-119.5 25v234q39 -65 130 -108.5t194 -43.5q112 0 177 68.5t65 177.5q0 61 -29 112.5t-75 89.5t-101.5 75t-111.5 77.5t-102 87t-75 115t-29 150.5q0 176 112.5 276.5t293.5 100.5q61 0 147.5 -18t110.5 -21v-222q-27 65 -96 98.5
t-162 33.5q-105 0 -170.5 -60.5t-65.5 -167.5q0 -60 29.5 -110.5t76 -88t103 -74.5t113.5 -78t103.5 -88.5t76 -116t29.5 -150.5q0 -165 -104 -274t-273 -124l-43 -65q65 -8 106 -50t41 -112q0 -77 -53.5 -124.5t-142.5 -47.5q-25 0 -48.5 5t-45 13t-27.5 9v108
q14 -18 45.5 -31.5t65.5 -13.5q40 0 66 21t26 55q0 39 -29 61.5t-80 22.5q-49 0 -71 -12z" />
    <glyph glyph-name="scedilla" unicode="&#x15f;" horiz-adv-x="731" 
d="M193 -186l98 166q-47 6 -115.5 26.5t-81.5 22.5v198q30 -56 103 -93.5t143 -37.5q64 0 102.5 35t38.5 94q0 37 -20 69t-52 56t-71 48t-78 51t-71 58.5t-52 78t-20 102.5q0 111 77 179.5t212 68.5q50 0 118.5 -17t85.5 -18v-178q-23 42 -84.5 69t-113.5 27
q-66 0 -101 -33.5t-35 -85.5q0 -36 20 -66t52.5 -53t71 -46t77.5 -50t71.5 -59.5t52.5 -81.5t20 -108q0 -108 -70 -179t-190 -80l-45 -71q64 -8 104.5 -48.5t40.5 -109.5q0 -77 -53 -123.5t-141 -46.5q-16 0 -31.5 2t-29 5.5t-22.5 6.5t-21 7.5t-15 5.5v104q14 -18 44 -31.5
t64 -13.5q40 0 66.5 21.5t26.5 56.5q0 38 -29 61t-78 23q-50 0 -69 -12z" />
    <glyph glyph-name="Scaron" unicode="&#x160;" horiz-adv-x="958" 
d="M317 1075q0 -60 29.5 -110.5t76 -88t103 -74.5t113.5 -78t103.5 -88.5t76 -116t29.5 -150.5q0 -177 -117.5 -288.5t-306.5 -111.5q-59 0 -113 9t-112.5 22.5t-94.5 19.5v234q39 -65 130 -108.5t194 -43.5q112 0 177 68.5t65 177.5q0 61 -29 112.5t-75 89.5t-101.5 75
t-111.5 77.5t-102 87t-75 115t-29 150.5q0 176 112.5 276.5t293.5 100.5q61 0 147.5 -18t110.5 -21v-222q-27 65 -96 98.5t-162 33.5q-105 0 -170.5 -60.5t-65.5 -167.5zM524 1597l162 152h156l-303 -272h-33l-303 272h164z" />
    <glyph glyph-name="scaron" unicode="&#x161;" horiz-adv-x="731" 
d="M276 700q0 -36 20 -66t52.5 -53t71 -46t77.5 -50t71.5 -59.5t52.5 -81.5t20 -108q0 -116 -79.5 -188.5t-213.5 -72.5q-47 0 -96.5 11t-95 25.5t-62.5 17.5v198q30 -56 103 -93.5t143 -37.5q64 0 102.5 35t38.5 94q0 37 -20 69t-52 56t-71 48t-78 51t-71 58.5t-52 78
t-20 102.5q0 111 77 179.5t212 68.5q50 0 118.5 -17t85.5 -18v-178q-23 42 -84.5 69t-113.5 27q-66 0 -101 -33.5t-35 -85.5zM393 1155l139 176h130l-256 -307h-31l-252 307h133z" />
    <glyph glyph-name="Tcommaaccent" unicode="&#x162;" horiz-adv-x="1263" 
d="M399 1403h461q260 0 354 6v-152q-142 9 -354 9h-143q-2 -76 -2 -265v-634q0 -283 8 -367h-182q6 94 6 367v634q0 151 -6 265h-142q-208 0 -350 -9v152q94 -6 350 -6zM559 -180v94q104 0 171 -58t67 -147q0 -81 -58 -132.5t-149 -51.5q-57 0 -107 20v105q42 -29 90 -29
q42 0 70.5 26.5t28.5 65.5q0 44 -33.5 75.5t-79.5 31.5z" />
    <glyph glyph-name="tcommaaccent" unicode="&#x163;" horiz-adv-x="643" 
d="M178 1155h170q-6 -73 -6 -182v-53h256v-132h-256v-462q0 -209 147 -209q56 0 80 24v-147q-13 0 -54 -5t-66 -5q-117 0 -191 75.5t-74 235.5v493h-145v132h145v53q0 109 -6 182zM317 -180v94q104 0 171 -58t67 -147q0 -81 -58 -132.5t-149 -51.5q-56 0 -106 20v105
q42 -29 90 -29q42 0 70 26t28 66q0 44 -33.5 75.5t-79.5 31.5z" />
    <glyph glyph-name="Tcaron" unicode="&#x164;" horiz-adv-x="1263" 
d="M399 1403h461q260 0 354 6v-152q-142 9 -354 9h-143q-2 -76 -2 -265v-634q0 -283 8 -367h-182q6 94 6 367v634q0 151 -6 265h-142q-208 0 -350 -9v152q94 -6 350 -6zM633 1597l162 152h155l-303 -272h-33l-303 272h164z" />
    <glyph glyph-name="tcaron" unicode="&#x165;" horiz-adv-x="643" 
d="M178 1155h170q-6 -73 -6 -182v-53h256v-132h-256v-462q0 -209 147 -209q56 0 80 24v-147q-13 0 -54 -5t-66 -5q-117 0 -191 75.5t-74 235.5v493h-145v132h145v53q0 109 -6 182zM459 1069l12 334h141l-34 -334h-119z" />
    <glyph glyph-name="Tbar" unicode="&#x166;" horiz-adv-x="1263" 
d="M399 1403h461q260 0 354 6v-152q-142 9 -354 9h-143q-2 -76 -2 -265v-196h278v-123h-278v-315q0 -283 8 -367h-182q6 94 6 367v315h-275v123h275v196q0 151 -6 265h-142q-208 0 -350 -9v152q94 -6 350 -6z" />
    <glyph glyph-name="tbar" unicode="&#x167;" horiz-adv-x="643" 
d="M178 1155h170q-6 -73 -6 -182v-53h256v-132h-256v-204h209v-105h-209v-153q0 -209 147 -209q56 0 80 24v-147q-13 0 -54 -5t-66 -5q-117 0 -191 75.5t-74 235.5v184h-110v105h110v204h-145v132h145v53q0 109 -6 182z" />
    <glyph glyph-name="Utilde" unicode="&#x168;" horiz-adv-x="1378" 
d="M145 1403h183q-9 -124 -9 -367v-473q0 -197 103.5 -318.5t267.5 -121.5t266.5 121.5t102.5 318.5v473q0 281 -6 367h180q-6 -135 -6 -367v-469q0 -270 -149.5 -430t-387.5 -160t-387 159.5t-149 430.5v469q0 243 -9 367zM461 1516h-115q-3 95 55.5 156t159.5 61
q45 0 79.5 -12.5t55.5 -29.5t40 -34.5t43.5 -30t54.5 -12.5q43 0 70.5 28.5t27.5 77.5h117q0 -97 -58.5 -156t-156.5 -59q-44 0 -78 12t-55 28.5t-40 33.5t-44 29t-56 12q-45 0 -72.5 -30t-27.5 -74z" />
    <glyph glyph-name="utilde" unicode="&#x169;" horiz-adv-x="1036" 
d="M303 369q0 -127 62.5 -191.5t150.5 -64.5q97 0 158 74t61 186v336q0 123 -6 211h172q-8 -79 -8 -211v-506q0 -130 31 -203h-154q-28 55 -31 141q-87 -157 -274 -157q-143 0 -232.5 96.5t-89.5 273.5v467h-94q28 30 57 99h201q-4 -118 -4 -211v-340zM352 1077h-106
q2 84 49 138.5t123 54.5q35 0 66 -14.5t49.5 -32.5t40 -32.5t40.5 -14.5q35 0 55.5 23t20.5 63h103q0 -79 -48.5 -135t-121.5 -56q-37 0 -69 14.5t-50.5 32.5t-40.5 32.5t-41 14.5q-33 0 -51.5 -24.5t-18.5 -63.5z" />
    <glyph glyph-name="Umacron" unicode="&#x16a;" horiz-adv-x="1378" 
d="M145 1403h183q-9 -124 -9 -367v-473q0 -197 103.5 -318.5t267.5 -121.5t266.5 121.5t102.5 318.5v473q0 281 -6 367h180q-6 -135 -6 -367v-469q0 -270 -149.5 -430t-387.5 -160t-387 159.5t-149 430.5v469q0 243 -9 367zM399 1640h580v-106h-580v106z" />
    <glyph glyph-name="umacron" unicode="&#x16b;" horiz-adv-x="1036" 
d="M303 369q0 -127 62.5 -191.5t150.5 -64.5q97 0 158 74t61 186v336q0 123 -6 211h172q-8 -79 -8 -211v-506q0 -130 31 -203h-154q-28 55 -31 141q-87 -157 -274 -157q-143 0 -232.5 96.5t-89.5 273.5v467h-94q28 30 57 99h201q-4 -118 -4 -211v-340zM270 1231h496v-113
h-496v113z" />
    <glyph glyph-name="Ubreve" unicode="&#x16c;" horiz-adv-x="1378" 
d="M145 1403h183q-9 -124 -9 -367v-473q0 -197 103.5 -318.5t267.5 -121.5t266.5 121.5t102.5 318.5v473q0 281 -6 367h180q-6 -135 -6 -367v-469q0 -270 -149.5 -430t-387.5 -160t-387 159.5t-149 430.5v469q0 243 -9 367zM518 1716q0 -60 49.5 -99.5t122.5 -39.5
q70 0 120 40t50 99h117q0 -105 -83.5 -170t-203.5 -65q-123 0 -206 65t-83 170h117z" />
    <glyph glyph-name="ubreve" unicode="&#x16d;" horiz-adv-x="1036" 
d="M303 369q0 -127 62.5 -191.5t150.5 -64.5q97 0 158 74t61 186v336q0 123 -6 211h172q-8 -79 -8 -211v-506q0 -130 31 -203h-154q-28 55 -31 141q-87 -157 -274 -157q-143 0 -232.5 96.5t-89.5 273.5v467h-94q28 30 57 99h201q-4 -118 -4 -211v-340zM383 1286
q0 -56 39 -94.5t96 -38.5t96 38.5t39 94.5h111q0 -101 -71.5 -170t-174.5 -69t-175.5 69t-72.5 170h113z" />
    <glyph glyph-name="Uring" unicode="&#x16e;" horiz-adv-x="1378" 
d="M145 1403h183q-9 -124 -9 -367v-473q0 -197 103.5 -318.5t267.5 -121.5t266.5 121.5t102.5 318.5v473q0 281 -6 367h180q-6 -135 -6 -367v-469q0 -270 -149.5 -430t-387.5 -160t-387 159.5t-149 430.5v469q0 243 -9 367zM504 1677q0 74 54.5 125t129.5 51q76 0 131 -51
t55 -125q0 -72 -55.5 -123t-130.5 -51q-74 0 -129 51.5t-55 122.5zM594 1677q0 -40 28 -68t66 -28q40 0 68 28t28 68q0 41 -28 70t-68 29q-38 0 -66 -29t-28 -70z" />
    <glyph glyph-name="uring" unicode="&#x16f;" horiz-adv-x="1036" 
d="M303 369q0 -127 62.5 -191.5t150.5 -64.5q97 0 158 74t61 186v336q0 123 -6 211h172q-8 -79 -8 -211v-506q0 -130 31 -203h-154q-28 55 -31 141q-87 -157 -274 -157q-143 0 -232.5 96.5t-89.5 273.5v467h-94q28 30 57 99h201q-4 -118 -4 -211v-340zM346 1200q0 66 50 114
t122 48t123 -48t51 -114q0 -68 -51 -116t-123 -48t-122 48t-50 116zM436 1200q0 -35 24 -59.5t58 -24.5t58 24.5t24 59.5q0 34 -24 58t-58 24t-58 -24t-24 -58z" />
    <glyph glyph-name="Uhungarumlaut" unicode="&#x170;" horiz-adv-x="1378" 
d="M145 1403h183q-9 -124 -9 -367v-473q0 -197 103.5 -318.5t267.5 -121.5t266.5 121.5t102.5 318.5v473q0 281 -6 367h180q-6 -135 -6 -367v-469q0 -270 -149.5 -430t-387.5 -160t-387 159.5t-149 430.5v469q0 243 -9 367zM457 1505l188 283h152l-205 -283h-135zM754 1505
l188 283h150l-203 -283h-135z" />
    <glyph glyph-name="uhungarumlaut" unicode="&#x171;" horiz-adv-x="1036" 
d="M303 369q0 -127 62.5 -191.5t150.5 -64.5q97 0 158 74t61 186v336q0 123 -6 211h172q-8 -79 -8 -211v-506q0 -130 31 -203h-154q-28 55 -31 141q-87 -157 -274 -157q-143 0 -232.5 96.5t-89.5 273.5v467h-94q28 30 57 99h201q-4 -118 -4 -211v-340zM293 1049l188 282h152
l-205 -282h-135zM590 1049l188 282h150l-203 -282h-135z" />
    <glyph glyph-name="Uogonek" unicode="&#x172;" horiz-adv-x="1378" 
d="M481 -358q0 99 81 189.5t194 154.5q-34 -9 -74 -9q-229 0 -378.5 163t-149.5 429v467q0 243 -9 367h183q-9 -124 -9 -367v-471q0 -197 104.5 -319.5t266.5 -122.5q163 0 266 122.5t103 319.5v471q0 252 -8 367h182q-6 -135 -6 -367v-467q0 -158 -57.5 -284.5
t-159.5 -206.5q-25 -20 -87.5 -64t-103.5 -76t-88 -76t-71.5 -88.5t-24.5 -88.5q0 -48 34.5 -77.5t80.5 -29.5q82 0 149 64v-129q-35 -22 -94 -39t-117 -17q-93 0 -150 52.5t-57 132.5z" />
    <glyph glyph-name="uogonek" unicode="&#x173;" horiz-adv-x="1036" 
d="M303 369q0 -127 62.5 -191.5t150.5 -64.5q97 0 158 74t61 186v336q0 123 -6 211h172q-8 -79 -8 -211v-506q0 -130 31 -203q-127 -58 -207 -138t-80 -155q0 -51 33 -79.5t84 -28.5q66 0 123 51v-113q-82 -53 -189 -53q-84 0 -139 50t-55 134q0 49 22 96t63 88.5t86.5 76.5
t104.5 71q-28 55 -31 141q-87 -157 -274 -157q-143 0 -232.5 96.5t-89.5 273.5v467h-94q28 30 57 99h201q-4 -118 -4 -211v-340z" />
    <glyph glyph-name="Wcircumflex" unicode="&#x174;" horiz-adv-x="1988" 
d="M707 -31h-25l-535 1151q-79 176 -145 283h205q31 -88 102 -244l404 -905l223 520l-156 344q-87 195 -145 285h190q34 -96 113 -268l76 -179l80 185q70 163 106 262h176q-29 -44 -143 -287l-148 -321l234 -533l375 873q77 168 110 268h181q-72 -144 -140 -289l-520 -1145
h-20l-299 654zM1008 1638l-162 -151h-156l303 272h33l303 -272h-164z" />
    <glyph glyph-name="wcircumflex" unicode="&#x175;" horiz-adv-x="1355" 
d="M647 922h76l246 -648l172 504q37 117 41 142h172q-48 -99 -92 -220l-269 -731h-39l-276 707l-258 -707h-41l-287 742q-61 152 -88 209h189q28 -111 57 -185l166 -461zM682 1219l-137 -177h-129l254 308h30l254 -308h-135z" />
    <glyph glyph-name="Ycircumflex" unicode="&#x176;" horiz-adv-x="1202" 
d="M512 0q6 94 6 352v299l-325 488q-107 158 -193 264h215q33 -67 115 -193l278 -411l264 397q93 138 127 207h203q-65 -81 -201 -281l-317 -471v-299q0 -226 8 -352h-180zM604 1638l-162 -151h-155l303 272h33l303 -272h-164z" />
    <glyph glyph-name="ycircumflex" unicode="&#x177;" horiz-adv-x="940" 
d="M264 -391q-46 -75 -95 -106t-116 -31q-27 0 -51 6q55 67 129 178q3 4 43 66t50.5 79t45 71.5t52.5 85t44.5 76t47.5 85.5l-299 592q-72 137 -113 209h193q18 -58 67 -158l236 -467q111 235 198 453q41 105 62 172h182q-24 -43 -100 -218q-171 -394 -279 -591
q-84 -163 -297 -502zM475 1219l-137 -177h-129l254 308h31l254 -308h-136z" />
    <glyph glyph-name="Ydieresis" unicode="&#x178;" horiz-adv-x="1202" 
d="M512 0q6 94 6 352v299l-325 488q-107 158 -193 264h215q33 -67 115 -193l278 -411l264 397q93 138 127 207h203q-65 -81 -201 -281l-317 -471v-299q0 -226 8 -352h-180zM311 1614q0 38 28 65t67 27q40 0 67 -27t27 -65t-27 -65t-67 -27q-39 0 -67 27t-28 65zM698 1614
q0 38 29 65t68 27q38 0 65 -27t27 -65t-27 -65t-65 -27q-39 0 -68 27t-29 65z" />
    <glyph glyph-name="Zacute" unicode="&#x179;" horiz-adv-x="1112" 
d="M860 1094l-553 -955h406q243 0 338 6v-151q-95 6 -338 6h-664q66 102 187 311l550 955h-356q-253 0 -348 -9v152q94 -6 348 -6h612q-87 -135 -182 -309zM446 1505l263 230h198l-299 -230h-162z" />
    <glyph glyph-name="zacute" unicode="&#x17a;" horiz-adv-x="819" 
d="M770 920l-485 -789h307q98 0 168 6v-143q-68 6 -170 6h-545l483 786h-288q-98 0 -168 -6v146q67 -6 170 -6h528zM344 1049l209 311h162l-232 -311h-139z" />
    <glyph glyph-name="Zdotaccent" unicode="&#x17b;" horiz-adv-x="1112" 
d="M860 1094l-553 -955h406q243 0 338 6v-151q-95 6 -338 6h-664q66 102 187 311l550 955h-356q-253 0 -348 -9v152q94 -6 348 -6h612q-87 -135 -182 -309zM465 1604q0 41 28.5 69.5t69.5 28.5q40 0 68 -28.5t28 -69.5q0 -40 -28 -68.5t-68 -28.5q-41 0 -69.5 28.5
t-28.5 68.5z" />
    <glyph glyph-name="zdotaccent" unicode="&#x17c;" horiz-adv-x="819" 
d="M770 920l-485 -789h307q98 0 168 6v-143q-68 6 -170 6h-545l483 786h-288q-98 0 -168 -6v146q67 -6 170 -6h528zM324 1196q0 40 27 67t67 27t67 -27t27 -67q0 -38 -27 -65t-67 -27t-67 27t-27 65z" />
    <glyph glyph-name="Zcaron" unicode="&#x17d;" horiz-adv-x="1112" 
d="M860 1094l-553 -955h406q243 0 338 6v-151q-95 6 -338 6h-664q66 102 187 311l550 955h-356q-253 0 -348 -9v152q94 -6 348 -6h612q-87 -135 -182 -309zM567 1597l162 152h156l-303 -272h-33l-303 272h164z" />
    <glyph glyph-name="zcaron" unicode="&#x17e;" horiz-adv-x="819" 
d="M770 920l-485 -789h307q98 0 168 6v-143q-68 6 -170 6h-545l483 786h-288q-98 0 -168 -6v146q67 -6 170 -6h528zM420 1155l139 176h129l-256 -307h-31l-251 307h133z" />
    <glyph glyph-name="longs" unicode="&#x17f;" horiz-adv-x="499" 
d="M43 788v132h158v206q0 189 88 289.5t225 100.5q41 0 97 -9t77 -10v-160q-42 47 -141 47q-85 0 -137 -67.5t-52 -196.5v-909q0 -162 4 -211h-165q4 98 4 211v577h-158z" />
    <glyph glyph-name="uni018F" unicode="&#x18f;" horiz-adv-x="1480" 
d="M86 678h1126q5 31 5 65q0 142 -68 264.5t-193.5 197.5t-279.5 75q-137 0 -255.5 -44t-201.5 -110v189l81 31.5t92 34t84.5 24.5t110.5 21t118 6q151 0 279.5 -56.5t216 -154t136.5 -229t49 -279.5t-52 -282.5t-140.5 -232t-212 -155t-260.5 -57.5q-143 0 -265.5 57
t-203 149.5t-125.5 206.5t-45 230q0 29 4 49zM727 133q170 0 307 118.5t166 295.5h-928q12 -169 146.5 -291.5t308.5 -122.5z" />
    <glyph glyph-name="florin" unicode="&#x192;" horiz-adv-x="1060" 
d="M176 793h199l20 137q39 248 137 358.5t246 110.5q46 0 77 -6.5t58 -17.5t45 -15v-162q-64 64 -165 64q-41 0 -75 -16t-66.5 -53.5t-57.5 -108.5t-41 -173l-16 -118h241v-129h-260l-55 -381q-56 -377 -153.5 -529.5t-293.5 -152.5q-41 0 -76.5 9t-68 23t-43.5 17v164
q32 -32 81.5 -53t106.5 -21q43 0 72 9t62 41t57.5 91t49 161t46.5 249l55 373h-182v129z" />
    <glyph glyph-name="uni019F" unicode="&#x19f;" horiz-adv-x="1632" 
d="M90 702q0 147 56.5 281t153 231.5t231.5 155t284 57.5t284 -57.5t231.5 -155t153 -231.5t56.5 -281q0 -198 -96 -365t-263 -264.5t-366 -97.5t-366 97.5t-263 264.5t-96 365zM815 119q107 0 204.5 41t170.5 111.5t120.5 168.5t57.5 209h-1106q12 -148 88.5 -269.5
t199 -191t265.5 -69.5zM815 1284q-211 0 -368 -145.5t-183 -360.5h1100q-26 215 -182 360.5t-367 145.5z" />
    <glyph glyph-name="Ohorn" unicode="&#x1a0;" horiz-adv-x="1630" 
d="M260 702q0 -119 44 -227.5t118 -186t177 -123.5t216 -46t216 46t177 123.5t118 186t44 227.5q0 158 -74 292t-202 212t-279 78t-279 -78t-202 -212t-74 -292zM1362 1522h154q14 -38 14 -101q0 -92 -48.5 -152.5t-138.5 -70.5q197 -205 197 -496q0 -198 -96 -365
t-263 -264.5t-366 -97.5t-366 97.5t-263 264.5t-96 365q0 147 56.5 281t153 231.5t231.5 155t284 57.5q94 0 179 -21.5t132.5 -48t87 -48t54.5 -21.5q116 0 116 113q0 27 -7 65t-15 56z" />
    <glyph glyph-name="ohorn" unicode="&#x1a1;" horiz-adv-x="1103" 
d="M944 1051h139q11 -66 11 -74q6 -197 -168 -227q98 -130 98 -291q0 -97 -37.5 -184.5t-100.5 -150.5t-150.5 -100.5t-184.5 -37.5t-184.5 37.5t-150.5 100.5t-100.5 150.5t-37.5 184.5q0 198 138.5 337.5t334.5 139.5q66 0 123.5 -16.5t89 -37t60 -37t42.5 -16.5
q45 0 71 27t26 72q0 59 -19 123zM231 459q0 -139 93 -236.5t227 -97.5q131 0 225 97.5t94 236.5t-94 238.5t-225 99.5q-133 0 -226.5 -99t-93.5 -239z" />
    <glyph glyph-name="Uhorn" unicode="&#x1af;" horiz-adv-x="1378" 
d="M145 1403h183q-9 -124 -9 -367v-473q0 -195 104.5 -317.5t266.5 -122.5q164 0 266.5 121.5t102.5 318.5v473q0 281 -6 367h125q108 0 108 113q0 65 -22 114h155q15 -47 15 -100q0 -86 -49.5 -151.5t-155.5 -75.5q-2 -80 -2 -267v-469q0 -270 -149.5 -430t-387.5 -160
t-387 159.5t-149 430.5v469q0 243 -9 367z" />
    <glyph glyph-name="uhorn" unicode="&#x1b0;" horiz-adv-x="1036" 
d="M930 1133h139q12 -54 12 -86q1 -103 -52 -157.5t-136 -64.5v-604q0 -165 33 -221h-154q-28 49 -31 143q-92 -159 -278 -159q-141 0 -230.5 95.5t-89.5 264.5v475h-96q31 36 57 101h203q-4 -118 -4 -211v-349q0 -120 62.5 -182.5t150.5 -62.5q97 0 158 73t61 185v336
q0 123 -6 211h113q103 0 106 96q0 54 -18 117z" />
    <glyph glyph-name="uni01C4" unicode="&#x1c4;" horiz-adv-x="2451" 
d="M543 0h-396q11 116 11 367v669q0 255 -11 367h396q190 0 352.5 -94t257 -255.5t94.5 -351.5q0 -142 -56 -272.5t-150.5 -224.5t-224.5 -149.5t-273 -55.5zM324 1266v-1129h208q149 0 274.5 77t198 207t72.5 281t-72.5 281t-198.5 206.5t-276 76.5h-206zM2200 1094
l-553 -955h405q244 0 338 6v-151q-94 6 -338 6h-663q56 87 186 311l551 955h-357q-254 0 -348 -9v152q94 -6 348 -6h613q-87 -135 -182 -309zM1907 1597l161 152h156l-303 -272h-33l-303 272h164z" />
    <glyph glyph-name="uni01C5" unicode="&#x1c5;" horiz-adv-x="2156" 
d="M543 0h-396q11 116 11 367v669q0 255 -11 367h396q190 0 352.5 -94t257 -255.5t94.5 -351.5q0 -142 -56 -272.5t-150.5 -224.5t-224.5 -149.5t-273 -55.5zM324 1266v-1129h208q149 0 274.5 77t198 207t72.5 281t-72.5 281t-198.5 206.5t-276 76.5h-206zM2109 920
l-485 -789h307q97 0 168 6v-143q-67 6 -170 6h-545l484 786h-289q-97 0 -168 -6v146q67 -6 170 -6h528zM1759 1155l139 176h130l-256 -307h-31l-252 307h133z" />
    <glyph glyph-name="uni01C6" unicode="&#x1c6;" horiz-adv-x="1988" 
d="M1030 1321v-1110q0 -131 6 -211h-170q4 39 4 184q-55 -98 -146.5 -148t-195.5 -50q-124 0 -227.5 64t-162 173t-58.5 238q0 202 130 338.5t327 136.5q109 0 197 -47.5t136 -138.5v655h-94q28 30 58 98h202q-6 -99 -6 -182zM877 459q0 141 -92 241.5t-222 100.5
q-132 0 -226.5 -99.5t-94.5 -238.5q0 -143 94 -243.5t229 -100.5q129 0 220.5 100t91.5 240zM1939 920l-485 -789h307q97 0 168 6v-143q-67 6 -170 6h-545l484 786h-289q-97 0 -168 -6v146q68 -6 170 -6h528zM1589 1155l140 176h129l-256 -307h-31l-252 307h133z" />
    <glyph glyph-name="uni01C7" unicode="&#x1c7;" horiz-adv-x="1433" 
d="M322 1036v-895h245q237 0 328 6v-155q-122 8 -328 8h-420q9 254 9 367v669q0 230 -9 367h181q-6 -183 -6 -367zM1276 1036v-1042q0 -185 -104 -291t-263 -106q-39 0 -99.5 13t-72.5 15v185q56 -70 164 -70q89 0 149 71t60 183v1042q0 184 -6 367h180q-8 -122 -8 -367z
" />
    <glyph glyph-name="uni01C8" unicode="&#x1c8;" horiz-adv-x="1394" 
d="M322 1036v-895h245q237 0 328 6v-155q-122 8 -328 8h-420q9 254 9 367v669q0 230 -9 367h181q-6 -183 -6 -367zM1253 709v-836q0 -192 -78 -296.5t-221 -104.5q-47 0 -94.5 7t-50.5 7v147q31 -28 102 -28q84 0 133.5 69.5t49.5 202.5v944h-95q34 49 58 99h203
q-7 -89 -7 -211zM1077 1200q0 40 27 67t65 27q40 0 67.5 -27t27.5 -67t-27.5 -67t-67.5 -27q-38 0 -65 27t-27 67z" />
    <glyph glyph-name="uni01C9" unicode="&#x1c9;" horiz-adv-x="888" 
d="M299 1292v-1081q0 -141 6 -211h-172q8 63 8 211v1194h-94q31 45 53 98h205q-6 -71 -6 -211zM748 709v-836q0 -192 -78 -296.5t-221 -104.5q-47 0 -95 7t-51 7v147q31 -28 103 -28q84 0 133 69.5t49 202.5v944h-94q31 45 57 99h203q-6 -77 -6 -211zM571 1200q0 40 27.5 67
t65.5 27q40 0 67 -27t27 -67t-27 -67t-67 -27q-38 0 -65.5 27t-27.5 67z" />
    <glyph glyph-name="uni01CA" unicode="&#x1ca;" horiz-adv-x="1916" 
d="M313 295q0 -167 9 -295h-175q9 128 9 297v741q0 146 -9 396h39q59 -74 168 -195l758 -901v698q0 109 -6 367h172q-6 -135 -6 -367v-764q0 -178 6 -297h-37q-64 83 -151 183l-773 917zM1757 1036v-1042q0 -185 -103.5 -291t-262.5 -106q-39 0 -99.5 13t-72.5 15v185
q56 -70 163 -70q89 0 149 71t60 183v1042q0 184 -6 367h180q-8 -122 -8 -367z" />
    <glyph glyph-name="uni01CB" unicode="&#x1cb;" horiz-adv-x="1875" 
d="M313 295q0 -167 9 -295h-175q9 128 9 297v741q0 146 -9 396h39q59 -74 168 -195l758 -901v698q0 109 -6 367h172q-6 -135 -6 -367v-764q0 -178 6 -297h-37q-64 83 -151 183l-773 917zM1735 709v-836q0 -192 -78 -296.5t-221 -104.5q-48 0 -96 7t-50 7v147q32 -28 103 -28
q84 0 133 69.5t49 202.5v944h-94q31 45 57 99h203q-6 -76 -6 -211zM1559 1200q0 40 27 67t65 27q40 0 67 -27t27 -67t-27 -67t-67 -27q-38 0 -65 27t-27 67z" />
    <glyph glyph-name="uni01CC" unicode="&#x1cc;" horiz-adv-x="1478" 
d="M741 537q0 132 -61 201t-154 69q-96 0 -157.5 -71t-61.5 -187v-336q0 -125 6 -213h-172q6 88 6 213v608h-94q28 37 60 99h194v-142q35 67 107.5 112.5t167.5 45.5q150 0 233.5 -104.5t83.5 -296.5v-322q0 -134 8 -213h-172q6 88 6 213v324zM1337 709v-836
q0 -192 -78 -296.5t-221 -104.5q-48 0 -95.5 7t-49.5 7v147q31 -28 102 -28q84 0 133.5 69.5t49.5 202.5v944h-95q34 49 58 99h202q-6 -76 -6 -211zM1161 1200q0 40 27 67t65 27q40 0 67.5 -27t27.5 -67t-27.5 -67t-67.5 -27q-38 0 -65 27t-27 67z" />
    <glyph glyph-name="uni01F1" unicode="&#x1f1;" horiz-adv-x="2451" 
d="M543 0h-396q11 116 11 367v669q0 255 -11 367h396q190 0 352.5 -94t257 -255.5t94.5 -351.5q0 -142 -56 -272.5t-150.5 -224.5t-224.5 -149.5t-273 -55.5zM324 1266v-1129h208q149 0 274.5 77t198 207t72.5 281t-72.5 281t-198.5 206.5t-276 76.5h-206zM2200 1094
l-553 -955h405q244 0 338 6v-151q-94 6 -338 6h-663q56 87 186 311l551 955h-357q-254 0 -348 -9v152q94 -6 348 -6h613q-87 -135 -182 -309z" />
    <glyph glyph-name="uni01F2" unicode="&#x1f2;" horiz-adv-x="2156" 
d="M543 0h-396q11 116 11 367v669q0 255 -11 367h396q190 0 352.5 -94t257 -255.5t94.5 -351.5q0 -142 -56 -272.5t-150.5 -224.5t-224.5 -149.5t-273 -55.5zM324 1266v-1129h208q149 0 274.5 77t198 207t72.5 281t-72.5 281t-198.5 206.5t-276 76.5h-206zM2109 920
l-485 -789h307q97 0 168 6v-143q-67 6 -170 6h-545l484 786h-289q-97 0 -168 -6v146q67 -6 170 -6h528z" />
    <glyph glyph-name="uni01F3" unicode="&#x1f3;" horiz-adv-x="1988" 
d="M1030 1321v-1110q0 -131 6 -211h-170q4 39 4 184q-55 -98 -146.5 -148t-195.5 -50q-124 0 -227.5 64t-162 173t-58.5 238q0 202 130 338.5t327 136.5q109 0 197 -47.5t136 -138.5v655h-94q28 30 58 98h202q-6 -99 -6 -182zM877 459q0 141 -92 241.5t-222 100.5
q-132 0 -226.5 -99.5t-94.5 -238.5q0 -143 94 -243.5t229 -100.5q129 0 220.5 100t91.5 240zM1939 920l-485 -789h307q97 0 168 6v-143q-67 6 -170 6h-545l484 786h-289q-97 0 -168 -6v146q68 -6 170 -6h528z" />
    <glyph glyph-name="Aringacute" unicode="&#x1fa;" horiz-adv-x="1320" 
d="M1321 0h-213q-24 70 -92 231l-103 244h-534l-100 -239q-76 -183 -91 -236h-188q85 159 147 311l469 1086q-61 12 -100 52.5t-39 92.5q0 60 52.5 104t127.5 44q73 0 127 -44t54 -104q0 -53 -42 -93.5t-104 -51.5l475 -1086q76 -172 154 -311zM856 612l-211 516l-211 -516
h422zM569 1718l201 160h191l-222 -160h-170zM578 1542q0 -29 22.5 -49t56.5 -20q33 0 56.5 20t23.5 49t-23.5 49.5t-56.5 20.5q-34 0 -56.5 -20.5t-22.5 -49.5z" />
    <glyph glyph-name="aringacute" unicode="&#x1fb;" horiz-adv-x="919" 
d="M379 809q-139 0 -229 -94v159q18 3 59.5 19.5t93.5 29.5t111 13q179 0 265.5 -100.5t86.5 -307.5v-346q0 -80 53 -80q31 0 45 11v-101q-52 -35 -121 -35q-48 0 -80.5 27.5t-39.5 81.5q-35 -52 -98 -80.5t-136 -28.5q-142 0 -224.5 74.5t-82.5 192.5q0 119 84 197.5
t233 78.5q71 0 132 -26.5t85 -65.5v117q0 118 -57 191t-180 73zM240 252q0 -72 50.5 -118t141.5 -46q78 0 133.5 47.5t55.5 116.5q0 65 -55.5 112.5t-133.5 47.5q-90 0 -141 -46t-51 -114zM254 1120q0 58 50.5 99t119.5 41q71 0 121.5 -41t50.5 -99q0 -57 -50.5 -97
t-121.5 -40q-69 0 -119.5 40t-50.5 97zM342 1292l174 172h164l-193 -172h-145zM346 1120q0 -29 23 -49t55 -20q34 0 57 20t23 49q0 31 -23 51.5t-57 20.5q-32 0 -55 -20.5t-23 -51.5z" />
    <glyph glyph-name="AEacute" unicode="&#x1fc;" horiz-adv-x="1710" 
d="M1341 0h-399l-31 250l-37 237h-430l-133 -258q-74 -133 -114 -229h-197q57 79 178 309l588 1094h377q167 0 303 8v-154q-91 9 -281 9h-258l80 -531h238q175 0 270 6v-151q-91 6 -250 6h-229l69 -457h252q195 0 283 6v-149q-59 4 -279 4zM772 1137l-264 -512h340z
M944 1505l262 230h199l-299 -230h-162z" />
    <glyph glyph-name="aeacute" unicode="&#x1fd;" horiz-adv-x="1548" 
d="M150 727v158q17 3 57 17t87 24t101 10q123 0 203.5 -59.5t97.5 -171.5q38 104 133 166.5t211 62.5q82 0 152.5 -30t117 -76.5t79.5 -104t48 -112.5t15 -103q0 -33 -2 -39h-705v-2q0 -152 96.5 -255t241.5 -103q168 0 287 81v-155q-32 -5 -80 -19t-98.5 -23t-118.5 -9
q-143 0 -236.5 61t-144.5 152q-14 -94 -92.5 -157t-206.5 -63q-143 0 -226 74t-83 195q0 122 84.5 198t224.5 76q154 0 223 -94v109q0 122 -59.5 197t-183.5 75q-152 0 -223 -80zM242 248q0 -68 52.5 -113t139.5 -45q83 0 136 47t53 113q0 69 -56 114.5t-133 45.5
q-89 0 -140.5 -43.5t-51.5 -118.5zM1028 815q-97 0 -169.5 -63t-100.5 -170h528q-14 94 -85.5 163.5t-172.5 69.5zM674 1049l209 311h161l-231 -311h-139z" />
    <glyph glyph-name="Oslashacute" unicode="&#x1fe;" horiz-adv-x="1630" 
d="M90 702q0 147 56.5 281t153 231.5t231.5 155t284 57.5q240 0 428 -139l98 115h148l-160 -189q100 -100 155.5 -232.5t55.5 -279.5q0 -198 -96 -365t-263 -264.5t-366 -97.5q-237 0 -428 138l-96 -113h-148l160 186q-101 100 -157 233t-56 283zM260 702q0 -113 38.5 -215
t107.5 -180l737 862q-147 115 -328 115q-151 0 -279 -78t-202 -212t-74 -292zM1370 702q0 228 -145 392l-738 -865q145 -110 328 -110q113 0 216 46t177 123.5t118 186t44 227.5zM702 1505l263 230h198l-299 -230h-162z" />
    <glyph glyph-name="oslashacute" unicode="&#x1ff;" horiz-adv-x="1110" 
d="M80 459q0 97 37.5 185.5t101 152.5t151 101.5t183.5 37.5q166 0 299 -107l57 64h92l-100 -111q127 -137 127 -323q0 -97 -37.5 -184.5t-101 -150.5t-151.5 -100.5t-185 -37.5q-160 0 -289 98l-53 -59h-96l96 106q-131 134 -131 328zM236 459q0 -132 75 -219l443 483
q-87 74 -201 74q-132 0 -224.5 -99t-92.5 -239zM874 459q0 121 -73 213l-439 -482q80 -65 191 -65q132 0 226.5 97.5t94.5 236.5zM481 1049l209 311h162l-231 -311h-140z" />
    <glyph glyph-name="Scommaaccent" unicode="&#x218;" horiz-adv-x="958" 
d="M317 1075q0 -60 29.5 -110.5t76 -88t103 -74.5t113.5 -78t103.5 -88.5t76 -116t29.5 -150.5q0 -177 -117.5 -288.5t-306.5 -111.5q-59 0 -113 9t-112.5 22.5t-94.5 19.5v234q39 -65 130 -108.5t194 -43.5q112 0 177 68.5t65 177.5q0 61 -29 112.5t-75 89.5t-101.5 75
t-111.5 77.5t-102 87t-75 115t-29 150.5q0 176 112.5 276.5t293.5 100.5q61 0 147.5 -18t110.5 -21v-222q-27 65 -96 98.5t-162 33.5q-105 0 -170.5 -60.5t-65.5 -167.5zM397 -180v94q104 0 171 -58t67 -147q0 -81 -58 -132.5t-149 -51.5q-56 0 -106 20v105q42 -29 90 -29
q42 0 70 26t28 66q0 44 -33.5 75.5t-79.5 31.5z" />
    <glyph glyph-name="scommaaccent" unicode="&#x219;" horiz-adv-x="731" 
d="M276 700q0 -36 20 -66t52.5 -53t71 -46t77.5 -50t71.5 -59.5t52.5 -81.5t20 -108q0 -116 -79.5 -188.5t-213.5 -72.5q-47 0 -96.5 11t-95 25.5t-62.5 17.5v198q30 -56 103 -93.5t143 -37.5q64 0 102.5 35t38.5 94q0 37 -20 69t-52 56t-71 48t-78 51t-71 58.5t-52 78
t-20 102.5q0 111 77 179.5t212 68.5q50 0 118.5 -17t85.5 -18v-178q-23 42 -84.5 69t-113.5 27q-66 0 -101 -33.5t-35 -85.5zM281 -180v94q104 0 170.5 -58t66.5 -147q0 -81 -58 -132.5t-149 -51.5q-56 0 -106 20v105q42 -29 90 -29q42 0 70 26t28 66q0 44 -33 75.5
t-79 31.5z" />
    <glyph glyph-name="uni021A" unicode="&#x21a;" horiz-adv-x="1263" 
d="M399 1403h461q260 0 354 6v-152q-142 9 -354 9h-143q-2 -76 -2 -265v-634q0 -283 8 -367h-182q6 94 6 367v634q0 151 -6 265h-142q-208 0 -350 -9v152q94 -6 350 -6zM559 -180v94q104 0 171 -58t67 -147q0 -81 -58 -132.5t-149 -51.5q-57 0 -107 20v105q42 -29 90 -29
q42 0 70.5 26.5t28.5 65.5q0 44 -33.5 75.5t-79.5 31.5z" />
    <glyph glyph-name="uni021B" unicode="&#x21b;" horiz-adv-x="643" 
d="M178 1155h170q-6 -73 -6 -182v-53h256v-132h-256v-462q0 -209 147 -209q56 0 80 24v-147q-13 0 -54 -5t-66 -5q-117 0 -191 75.5t-74 235.5v493h-145v132h145v53q0 109 -6 182zM317 -180v94q104 0 171 -58t67 -147q0 -81 -58 -132.5t-149 -51.5q-56 0 -106 20v105
q42 -29 90 -29q42 0 70 26t28 66q0 44 -33.5 75.5t-79.5 31.5z" />
    <glyph glyph-name="uni021C" unicode="&#x21c;" horiz-adv-x="1030" 
d="M395 639q-67 0 -129 -12v161q46 -10 121 -10q117 0 207 79t90 181q0 101 -79.5 169.5t-209.5 68.5q-153 0 -252 -72v168q36 6 86 19t91 20.5t88 7.5q213 0 326.5 -100t113.5 -264q0 -112 -65.5 -199.5t-178.5 -128.5q132 -27 227 -132.5t95 -258.5q0 -89 -27 -167
t-73 -136.5t-111.5 -108t-136 -83.5t-154 -61.5t-159 -44t-156.5 -28.5v160h2q87 5 174.5 25t173.5 59t152 92t106.5 130.5t40.5 168.5q0 95 -53.5 164.5t-134 101t-175.5 31.5z" />
    <glyph glyph-name="uni021D" unicode="&#x21d;" horiz-adv-x="866" 
d="M346 246q-29 0 -67.5 -7.5t-59.5 -19.5v143q155 9 249.5 75.5t94.5 166.5q0 86 -66 142.5t-163 56.5q-121 0 -209 -68v160q17 4 52.5 15.5t74 18.5t88.5 7q165 0 272 -89t107 -235q0 -103 -63.5 -174.5t-153.5 -107.5q109 -21 179.5 -109t70.5 -227q0 -101 -43 -184.5
t-109 -139t-160 -99.5t-181.5 -68t-188.5 -42v146h2q65 1 135 16.5t140 48t126 76.5t90.5 108t34.5 138q0 119 -71 185.5t-181 66.5z" />
    <glyph glyph-name="uni0232" unicode="&#x232;" horiz-adv-x="1202" 
d="M512 0q6 94 6 352v299l-325 488q-107 158 -193 264h215q33 -67 115 -193l278 -411l264 397q93 138 127 207h203q-65 -81 -201 -281l-317 -471v-299q0 -226 8 -352h-180zM315 1640h580v-106h-580v106z" />
    <glyph glyph-name="uni0233" unicode="&#x233;" horiz-adv-x="940" 
d="M264 -391q-46 -75 -95 -106t-116 -31q-27 0 -51 6q55 67 129 178q3 4 43 66t50.5 79t45 71.5t52.5 85t44.5 76t47.5 85.5l-299 592q-72 137 -113 209h193q18 -58 67 -158l236 -467q111 235 198 453q41 105 62 172h182q-24 -43 -100 -218q-171 -394 -279 -591
q-84 -163 -297 -502zM238 1231h495v-113h-495v113z" />
    <glyph glyph-name="uni0237" unicode="&#x237;" horiz-adv-x="448" 
d="M307 709v-848q0 -191 -79 -296.5t-220 -105.5q-48 0 -96 7.5t-49 7.5v149q29 -29 102 -29q85 0 133.5 71t48.5 212v944h-94q37 50 56 99h204q-6 -76 -6 -211z" />
    <glyph glyph-name="uni0259" unicode="&#x259;" horiz-adv-x="1028" 
d="M90 483h694q-1 81 -37.5 154t-110.5 121.5t-169 48.5q-178 0 -297 -92v151q21 4 71.5 22.5t114 33t136.5 14.5q200 0 327 -135t127 -340q0 -204 -125 -339.5t-309 -135.5q-84 0 -155 27t-120 72.5t-84 105t-51 124t-16 129.5q0 23 4 39zM512 104q115 0 189 78t87 189
h-536q8 -112 80 -189.5t180 -77.5z" />
    <glyph glyph-name="uni0275" unicode="&#x275;" horiz-adv-x="1107" 
d="M80 459q0 97 37.5 185.5t101 152.5t151 101.5t183.5 37.5q97 0 184.5 -37.5t151.5 -101.5t101.5 -152.5t37.5 -185.5q0 -96 -37.5 -184t-101.5 -151t-151.5 -100.5t-184.5 -37.5q-195 0 -334 138.5t-139 334.5zM553 113q125 0 218 87.5t106 219.5h-648
q14 -132 106 -219.5t218 -87.5zM553 809q-120 0 -210 -81.5t-112 -205.5h641q-20 124 -110.5 205.5t-208.5 81.5z" />
    <glyph glyph-name="uni02BB" unicode="&#x2bb;" horiz-adv-x="546" 
d="M336 975h-152q0 312 92 469h127q-67 -162 -67 -469z" />
    <glyph glyph-name="uni02BC" unicode="&#x2bc;" horiz-adv-x="391" 
d="M154 1513h157q0 -191 -33.5 -337.5t-84.5 -227.5h-130q91 194 91 565z" />
    <glyph glyph-name="circumflex" unicode="&#x2c6;" horiz-adv-x="946" 
d="M471 1219l-137 -177h-129l254 308h30l254 -308h-135z" />
    <glyph glyph-name="caron" unicode="&#x2c7;" horiz-adv-x="946" 
d="M475 1155l139 176h129l-256 -307h-30l-252 307h133z" />
    <glyph glyph-name="uni02C9" unicode="&#x2c9;" horiz-adv-x="946" 
d="M225 1231h496v-113h-496v113z" />
    <glyph glyph-name="breve" unicode="&#x2d8;" horiz-adv-x="946" 
d="M338 1286q0 -56 39 -94.5t96 -38.5t96 38.5t39 94.5h111q0 -101 -71.5 -170t-174.5 -69t-175.5 69t-72.5 170h113z" />
    <glyph glyph-name="dotaccent" unicode="&#x2d9;" horiz-adv-x="946" 
d="M381 1196q0 40 27 67t67 27t67 -27t27 -67q0 -38 -27 -65t-67 -27t-67 27t-27 65z" />
    <glyph glyph-name="ring" unicode="&#x2da;" horiz-adv-x="946" 
d="M301 1200q0 66 50 114t122 48t123 -48t51 -114q0 -68 -51 -116t-123 -48t-122 48t-50 116zM391 1200q0 -35 24 -59.5t58 -24.5t58 24.5t24 59.5q0 34 -24 58t-58 24t-58 -24t-24 -58z" />
    <glyph glyph-name="ogonek" unicode="&#x2db;" horiz-adv-x="946" 
d="M193 -332q0 48 22.5 95.5t65 91t84.5 77t100 72.5h121q-63 -47 -99.5 -77.5t-75.5 -69.5t-57 -76t-18 -74q0 -50 33 -79t84 -29q62 0 122 51v-113q-79 -51 -188 -51q-84 0 -139 49t-55 133z" />
    <glyph glyph-name="tilde" unicode="&#x2dc;" horiz-adv-x="946" 
d="M307 1077h-106q2 84 49 138.5t123 54.5q35 0 66 -14.5t49.5 -32.5t40 -32.5t40.5 -14.5q35 0 55.5 23t20.5 63h103q0 -79 -48.5 -135t-121.5 -56q-37 0 -69 14.5t-50.5 32.5t-40.5 32.5t-41 14.5q-33 0 -51.5 -24.5t-18.5 -63.5z" />
    <glyph glyph-name="hungarumlaut" unicode="&#x2dd;" horiz-adv-x="946" 
d="M217 1049l189 282h151l-205 -282h-135zM514 1049l188 282h150l-203 -282h-135z" />
    <glyph glyph-name="uni0302" unicode="&#x302;" horiz-adv-x="0" 
d="M0 1219l-137 -177h-129l254 308h30l254 -308h-135z" />
    <glyph glyph-name="tildecomb" unicode="&#x303;" horiz-adv-x="0" 
d="M-168 1077h-106q2 84 49 138.5t123 54.5q35 0 66 -14.5t49.5 -32.5t40 -32.5t40.5 -14.5q35 0 55.5 23t20.5 63h102q0 -79 -48.5 -135t-121.5 -56q-37 0 -69 14.5t-50 32.5t-40 32.5t-41 14.5q-33 0 -51.5 -24.5t-18.5 -63.5z" />
    <glyph glyph-name="uni0374" unicode="&#x374;" horiz-adv-x="489" 
d="M61 680l209 469h162l-231 -469h-140z" />
    <glyph glyph-name="uni0375" unicode="&#x375;" horiz-adv-x="489" 
d="M61 -219l209 469h162l-231 -469h-140z" />
    <glyph glyph-name="uni037A" unicode="&#x37a;" horiz-adv-x="819" 
d="M326 -248q0 88 20 142h125q-12 -48 -12 -103q0 -61 25.5 -90t66.5 -29q31 0 53 11v-89q-42 -22 -106 -22q-87 0 -129.5 53t-42.5 127z" />
    <glyph glyph-name="uni037E" unicode="&#x37e;" horiz-adv-x="462" 
d="M135 756q0 44 31.5 76t75.5 32t75 -32t31 -76q0 -45 -31 -77t-75 -32t-75.5 32.5t-31.5 76.5zM166 215h156q0 -187 -32.5 -330t-82.5 -223h-127q86 191 86 553z" />
    <glyph glyph-name="tonos" unicode="&#x384;" horiz-adv-x="931" 
d="M373 1049l209 282h161l-227 -282h-143z" />
    <glyph glyph-name="dieresistonos" unicode="&#x385;" horiz-adv-x="1032" 
d="M391 1042l152 304h145l-170 -304h-127zM201 1180q0 34 24 57t58 23t59 -23.5t25 -56.5q0 -32 -25 -55t-59 -23t-58 23t-24 55zM692 1180q0 33 25 56.5t59 23.5t58 -23t24 -57q0 -32 -24 -55t-58 -23t-59 23t-25 55z" />
    <glyph glyph-name="Alphatonos" unicode="&#x386;" horiz-adv-x="1320" 
d="M1321 0h-213q-24 70 -92 231l-103 244h-534l-100 -239q-76 -183 -91 -236h-188q85 159 147 311l484 1119h47l489 -1119q76 -172 154 -311zM856 612l-211 516l-211 -516h422zM88 1057l119 377h143l-133 -377h-129z" />
    <glyph glyph-name="anoteleia" unicode="&#x387;" horiz-adv-x="415" 
d="M96 705q0 46 33.5 79t79.5 33t78 -33t32 -79q0 -47 -32 -81t-78 -34t-79.5 34t-33.5 81z" />
    <glyph glyph-name="Epsilontonos" unicode="&#x388;" horiz-adv-x="1091" 
d="M631 1266h-164v-447h162q225 0 319 6v-151q-95 6 -319 6h-162v-541h180q255 0 346 6v-151q-91 6 -346 6h-354q8 226 8 367v671q0 243 -8 365h338q220 0 346 8v-154q-95 9 -346 9zM-68 1057l119 377h144l-134 -377h-129z" />
    <glyph glyph-name="Etatonos" unicode="&#x389;" horiz-adv-x="1554" 
d="M467 1036v-213h766v213q0 281 -6 367h180q-8 -180 -8 -367v-741q0 -181 8 -295h-180q6 86 6 297v389h-766v-391q0 -181 8 -295h-180q6 86 6 297v739q0 284 -6 367h180q-8 -110 -8 -367zM-68 1057l119 377h144l-134 -377h-129z" />
    <glyph glyph-name="Iotatonos" unicode="&#x38a;" horiz-adv-x="618" 
d="M453 1036v-669q0 -241 8 -367h-182q8 126 8 367v669q0 245 -8 367h182q-8 -122 -8 -367zM-68 1057l119 377h144l-134 -377h-129z" />
    <glyph glyph-name="Omicrontonos" unicode="&#x38c;" horiz-adv-x="1693" 
d="M154 702q0 147 56.5 281t153 231.5t231.5 155t284 57.5t284 -57.5t231.5 -155t153 -231.5t56.5 -281q0 -198 -96 -365t-263 -264.5t-366 -97.5t-366 97.5t-263 264.5t-96 365zM324 702q0 -119 44 -227.5t118 -186t177 -123.5t216 -46t216 46t177 123.5t118 186t44 227.5
q0 158 -74 292t-202 212t-279 78t-279 -78t-202 -212t-74 -292zM-47 1057l119 377h143l-133 -377h-129z" />
    <glyph glyph-name="Upsilontonos" unicode="&#x38e;" horiz-adv-x="1480" 
d="M766 0q6 94 6 352v299l-326 488q-112 165 -192 264h215q33 -67 115 -193l278 -411l264 397q93 138 127 207h203q-65 -81 -201 -281l-317 -471v-299q0 -226 8 -352h-180zM-33 1057l119 377h143l-133 -377h-129z" />
    <glyph glyph-name="Omegatonos" unicode="&#x38f;" horiz-adv-x="1724" 
d="M354 711q0 -187 104 -338.5t263 -227.5v-145h-275q-224 0 -315 -6v147q122 -8 277 -8h122q-146 83 -245 242.5t-99 341.5q0 195 91.5 356.5t253 254.5t358.5 93q147 0 278 -54.5t225 -148t148.5 -224t54.5 -277.5q0 -185 -99.5 -342t-246.5 -242h103q171 0 297 8v-147
q-95 6 -334 6h-256v145q70 33 134.5 88.5t116.5 127t83.5 163.5t31.5 187q0 116 -41.5 221t-112.5 181.5t-171 121.5t-211 45q-149 0 -272.5 -76.5t-193 -207t-69.5 -285.5zM-47 1057l119 377h143l-133 -377h-129z" />
    <glyph glyph-name="iotadieresistonos" unicode="&#x390;" horiz-adv-x="452" 
d="M295 709v-476q0 -131 49 -131q38 0 49 11v-101q-55 -35 -114 -35q-79 0 -110.5 63t-31.5 198v475q0 133 -6 207h172q-8 -94 -8 -211zM104 1042l152 304h145l-170 -304h-127zM-86 1180q0 34 24 57t58 23t59 -23.5t25 -56.5q0 -32 -25 -55t-59 -23t-58 23t-24 55zM406 1180
q0 33 24.5 56.5t58.5 23.5t58 -23t24 -57q0 -32 -24 -55t-58 -23t-58.5 23t-24.5 55z" />
    <glyph glyph-name="Alpha" unicode="&#x391;" horiz-adv-x="1320" 
d="M1321 0h-213q-24 70 -92 231l-103 244h-534l-100 -239q-76 -183 -91 -236h-188q85 159 147 311l484 1119h47l489 -1119q76 -172 154 -311zM856 612l-211 516l-211 -516h422z" />
    <glyph glyph-name="Beta" unicode="&#x392;" horiz-adv-x="1050" 
d="M145 0q11 116 11 367v643q0 302 -9 393h304q188 0 292.5 -96t104.5 -236q0 -99 -51.5 -174t-122.5 -102q127 -37 203.5 -139t76.5 -240q0 -177 -130.5 -296.5t-348.5 -119.5h-330zM786 420q0 130 -85 210.5t-216 80.5h-163v-576h141q141 0 232 79.5t91 205.5zM322 1274
v-440h157q87 0 145 62t58 157q0 97 -69.5 159t-176.5 62h-114z" />
    <glyph glyph-name="Gamma" unicode="&#x393;" horiz-adv-x="935" 
d="M147 0q9 142 9 367v669q0 230 -9 367h435q146 0 303 10v-160q-142 9 -303 9h-260v-895q0 -178 6 -367h-181z" />
    <glyph glyph-name="uni0394" unicode="&#x394;" horiz-adv-x="1273" 
d="M1274 0h-1274q48 83 147 311l471 1129h33l479 -1129q57 -137 144 -311zM625 1124l-383 -983h774z" />
    <glyph glyph-name="Epsilon" unicode="&#x395;" horiz-adv-x="944" 
d="M485 1266h-163v-447h161q225 0 320 6v-151q-94 6 -320 6h-161v-541h180q254 0 346 6v-151q-92 6 -346 6h-355q9 254 9 367v671q0 228 -9 365h338q220 0 346 8v-154q-95 9 -346 9z" />
    <glyph glyph-name="Zeta" unicode="&#x396;" horiz-adv-x="1112" 
d="M860 1094l-553 -955h406q243 0 338 6v-151q-95 6 -338 6h-664q66 102 187 311l550 955h-356q-253 0 -348 -9v152q94 -6 348 -6h612q-87 -135 -182 -309z" />
    <glyph glyph-name="Eta" unicode="&#x397;" horiz-adv-x="1411" 
d="M322 1036v-213h765v213q0 281 -6 367h181q-9 -202 -9 -367v-741q0 -167 9 -295h-181q6 86 6 297v389h-765v-391q0 -181 8 -295h-180q6 86 6 297v739q0 284 -6 367h180q-8 -110 -8 -367z" />
    <glyph glyph-name="Theta" unicode="&#x398;" horiz-adv-x="1630" 
d="M680 772h276q129 0 211 8v-151q-67 6 -211 6h-276q-138 0 -209 -6v151q94 -8 209 -8zM90 702q0 147 56.5 281t153 231.5t231.5 155t284 57.5t284 -57.5t231.5 -155t153 -231.5t56.5 -281q0 -198 -96 -365t-263 -264.5t-366 -97.5t-366 97.5t-263 264.5t-96 365zM260 702
q0 -119 44 -227.5t118 -186t177 -123.5t216 -46t216 46t177 123.5t118 186t44 227.5q0 158 -74 292t-202 212t-279 78t-279 -78t-202 -212t-74 -292z" />
    <glyph glyph-name="Iota" unicode="&#x399;" horiz-adv-x="493" 
d="M330 1036v-669q0 -241 8 -367h-182q8 126 8 367v669q0 245 -8 367h182q-8 -122 -8 -367z" />
    <glyph glyph-name="Kappa" unicode="&#x39a;" horiz-adv-x="1177" 
d="M322 1036v-299l378 434q135 161 187 232h205q-101 -101 -226 -244l-381 -432l469 -502q42 -46 82 -86.5t82 -80.5t60 -58h-248q-75 101 -139 170l-469 508v-311q0 -178 6 -367h-181q9 142 9 367v669q0 230 -9 367h181q-6 -183 -6 -367z" />
    <glyph glyph-name="Lambda" unicode="&#x39b;" horiz-adv-x="1312" 
d="M999 256q-60 147 -178.5 429t-175.5 421q-145 -335 -364 -877q-59 -146 -86 -229h-195q65 109 147 311l488 1139h37l487 -1139q96 -218 154 -311h-219q-17 56 -95 256z" />
    <glyph glyph-name="Mu" unicode="&#x39c;" horiz-adv-x="1669" 
d="M1425 1430l119 -1102q22 -197 49 -328h-194q0 62 -19 279l-69 749l-459 -1046h-41l-453 1044l-90 -731q-24 -205 -26 -295h-179q23 108 58 371l147 1059h43l531 -1170l536 1170h47z" />
    <glyph glyph-name="Nu" unicode="&#x39d;" horiz-adv-x="1427" 
d="M313 295q0 -167 9 -295h-175q9 128 9 297v741q0 146 -9 396h39q59 -74 168 -195l758 -901v698q0 109 -6 367h172q-6 -135 -6 -367v-764q0 -178 6 -297h-37q-64 83 -151 183l-773 917z" />
    <glyph glyph-name="Xi" unicode="&#x39e;" horiz-adv-x="1071" 
d="M96 -8v164q99 -9 266 -9h322q152 0 289 9v-164q-122 8 -289 8h-324q-149 0 -264 -8zM672 1257h-279q-160 0 -280 -8v162q120 -8 280 -8h279q132 0 284 12v-166q-114 8 -284 8zM156 666v161q84 -6 241 -6h267q41 0 86.5 1.5t93.5 3.5t69 3v-163q-132 8 -249 8h-267
q-132 0 -241 -8z" />
    <glyph glyph-name="Omicron" unicode="&#x39f;" horiz-adv-x="1630" 
d="M90 702q0 147 56.5 281t153 231.5t231.5 155t284 57.5t284 -57.5t231.5 -155t153 -231.5t56.5 -281q0 -198 -96 -365t-263 -264.5t-366 -97.5t-366 97.5t-263 264.5t-96 365zM260 702q0 -119 44 -227.5t118 -186t177 -123.5t216 -46t216 46t177 123.5t118 186t44 227.5
q0 158 -74 292t-202 212t-279 78t-279 -78t-202 -212t-74 -292z" />
    <glyph glyph-name="Pi" unicode="&#x3a0;" horiz-adv-x="1339" 
d="M147 1403h1043q-6 -63 -6 -289v-743q0 -245 8 -371h-182q6 70 6 371v893h-692v-897q0 -273 6 -367h-180q6 94 6 367v671q0 194 -9 365z" />
    <glyph glyph-name="Rho" unicode="&#x3a1;" horiz-adv-x="995" 
d="M322 551v-184q0 -241 8 -367h-180q6 94 6 367v710q0 235 -6 326h313q214 0 337.5 -119t123.5 -307q0 -185 -130 -305.5t-335 -120.5h-137zM322 1274v-596h124q133 0 221.5 91t88.5 210q0 124 -84 209.5t-228 85.5h-122z" />
    <glyph glyph-name="Sigma" unicode="&#x3a3;" horiz-adv-x="1144" 
d="M29 0v27q115 124 182 202l401 482l-391 460q-85 106 -176 207v25h739q168 0 260 6v-152q-137 9 -264 9h-452l460 -549l-483 -578h522q171 0 265 6v-151q-94 6 -261 6h-802z" />
    <glyph glyph-name="Tau" unicode="&#x3a4;" horiz-adv-x="1263" 
d="M399 1403h461q260 0 354 6v-152q-142 9 -354 9h-143q-2 -76 -2 -265v-634q0 -283 8 -367h-182q6 94 6 367v634q0 151 -6 265h-142q-208 0 -350 -9v152q94 -6 350 -6z" />
    <glyph glyph-name="Upsilon" unicode="&#x3a5;" horiz-adv-x="1202" 
d="M512 0q6 94 6 352v299l-325 488q-107 158 -193 264h215q33 -67 115 -193l278 -411l264 397q93 138 127 207h203q-65 -81 -201 -281l-317 -471v-299q0 -226 8 -352h-180z" />
    <glyph glyph-name="Phi" unicode="&#x3a6;" horiz-adv-x="1521" 
d="M88 707q0 257 165.5 428t428.5 194q0 83 -6 139h166l-6 -139q265 -23 431.5 -194t166.5 -428q0 -255 -167 -426.5t-431 -196.5l6 -139h-166q6 59 6 139q-263 25 -428.5 196.5t-165.5 426.5zM1268 707q0 196 -120 328t-312 155v-967q192 23 312 155.5t120 328.5zM252 707
q0 -197 119.5 -329t312.5 -155v967q-194 -23 -313 -155t-119 -328z" />
    <glyph glyph-name="Chi" unicode="&#x3a7;" horiz-adv-x="1075" 
d="M723 242l-193 327l-208 -354q-82 -144 -117 -215h-203q95 128 201 297l246 405l-240 394q-111 185 -203 307h215q56 -112 131 -234l189 -319l188 321q29 50 71.5 128t57.5 104h201q-74 -97 -201 -301l-235 -385l241 -400q116 -187 213 -317h-215q-11 18 -35 61.5
t-50.5 90t-53.5 90.5z" />
    <glyph glyph-name="Psi" unicode="&#x3a8;" horiz-adv-x="1384" 
d="M250 1403q14 -98 14 -356q0 -173 101 -289t249 -137v446q0 255 -8 336h174q-6 -91 -6 -336v-449q148 26 248 143t100 286t15 356h174q-31 -135 -31 -356q0 -158 -70 -284.5t-183.5 -198.5t-252.5 -87v-123q0 -260 6 -354h-174q8 126 8 354v123q-104 11 -196 56
t-161.5 117t-110 175t-40.5 222q0 219 -26 356h170z" />
    <glyph glyph-name="uni03A9" unicode="&#x3a9;" horiz-adv-x="1673" 
d="M301 711q0 -187 104 -338.5t263 -227.5v-145h-275q-223 0 -315 -6v147q122 -8 276 -8h123q-146 83 -245 242.5t-99 341.5q0 195 91.5 356.5t253 254.5t358.5 93q147 0 278 -54.5t225 -148t148.5 -224t54.5 -277.5q0 -185 -99.5 -342t-246.5 -242h102q171 0 297 8v-147
q-95 6 -333 6h-256v145q70 33 134.5 88.5t116.5 127t83.5 163.5t31.5 187q0 116 -41.5 221t-112.5 181.5t-171 121.5t-211 45q-149 0 -272.5 -76.5t-193 -207t-69.5 -285.5z" />
    <glyph glyph-name="Iotadieresis" unicode="&#x3aa;" horiz-adv-x="493" 
d="M330 1036v-669q0 -241 8 -367h-182q8 126 8 367v669q0 245 -8 367h182q-8 -122 -8 -367zM-41 1614q0 38 28 65t66 27q40 0 67 -27t27 -65t-27 -65t-67 -27q-38 0 -66 27t-28 65zM346 1614q0 38 28.5 65t67.5 27q38 0 65.5 -27t27.5 -65t-27.5 -65t-65.5 -27
q-39 0 -67.5 27t-28.5 65z" />
    <glyph glyph-name="Upsilondieresis" unicode="&#x3ab;" horiz-adv-x="1202" 
d="M512 0q6 94 6 352v299l-325 488q-107 158 -193 264h215q33 -67 115 -193l278 -411l264 397q93 138 127 207h203q-65 -81 -201 -281l-317 -471v-299q0 -226 8 -352h-180zM311 1614q0 38 28 65t67 27q40 0 67 -27t27 -65t-27 -65t-67 -27q-39 0 -67 27t-28 65zM698 1614
q0 38 29 65t68 27q38 0 65 -27t27 -65t-27 -65t-65 -27q-39 0 -68 27t-29 65z" />
    <glyph glyph-name="alphatonos" unicode="&#x3ac;" horiz-adv-x="1101" 
d="M817 920h152q-29 -199 -29 -377v-260q-1 -99 19.5 -136.5t60.5 -37.5q20 0 43 10v-113q-53 -29 -111 -29q-73 0 -105.5 52t-41.5 166q-102 -218 -318 -218q-171 0 -287 140.5t-116 339.5q0 131 51.5 240.5t145 174t208.5 64.5q215 0 310 -213q3 82 18 197zM795 457
q0 145 -78 244.5t-193 99.5q-117 0 -197.5 -101t-80.5 -243q0 -143 82 -244.5t200 -101.5q111 0 189 99t78 247zM438 1049l209 282h162l-227 -282h-144z" />
    <glyph glyph-name="epsilontonos" unicode="&#x3ad;" horiz-adv-x="792" 
d="M444 410q-101 0 -158 -38t-57 -104q0 -68 55 -108.5t152 -40.5q172 0 287 100v-156q-4 -1 -64.5 -26.5t-119.5 -39t-133 -13.5q-144 0 -238 73.5t-94 194.5q0 88 55 143.5t131 79.5q-72 26 -118 78.5t-46 130.5q0 110 89.5 181t240.5 71q70 0 122.5 -13.5t87.5 -28.5
t56 -17v-175q-94 101 -250 101q-93 0 -142.5 -36t-49.5 -93q0 -66 57 -100.5t152 -34.5q98 0 129 8v-146q-56 9 -144 9zM340 1049l209 282h162l-228 -282h-143z" />
    <glyph glyph-name="etatonos" unicode="&#x3ae;" horiz-adv-x="1032" 
d="M735 559q0 123 -55 184.5t-150 61.5q-93 0 -162 -79t-69 -198v-317q0 -132 8 -211h-174q8 79 8 211v547q0 101 -6 162h156q6 -40 6 -113v-47q34 76 109 126t172 50q153 0 234 -96.5t81 -280.5v-1085h-172q14 126 14 264v821zM451 1049l208 282h162l-227 -282h-143z" />
    <glyph glyph-name="iotatonos" unicode="&#x3af;" horiz-adv-x="452" 
d="M295 709v-476q0 -131 49 -131q38 0 49 11v-101q-55 -35 -114 -35q-79 0 -110.5 63t-31.5 198v475q0 133 -6 207h172q-8 -94 -8 -211zM137 1049l209 282h162l-227 -282h-144z" />
    <glyph glyph-name="upsilondieresistonos" unicode="&#x3b0;" horiz-adv-x="1021" 
d="M299 713l-10 -363q-1 -108 61 -171.5t152 -63.5q128 0 197 108.5t69 288.5q0 123 -26.5 218.5t-79.5 189.5h163q38 -70 69.5 -180t31.5 -228q0 -239 -113 -383.5t-311 -144.5q-160 0 -267.5 98t-103.5 260l8 369q3 113 -8 209h158q14 -96 10 -207zM381 1042l151 304h146
l-170 -304h-127zM190 1180q0 34 24 57t58 23t59 -23.5t25 -56.5q0 -32 -25 -55t-59 -23t-58 23t-24 55zM682 1180q0 33 25 56.5t59 23.5t58 -23t24 -57q0 -32 -24 -55t-58 -23t-59 23t-25 55z" />
    <glyph glyph-name="alpha" unicode="&#x3b1;" horiz-adv-x="1101" 
d="M817 920h152q-29 -199 -29 -377v-260q-1 -99 19.5 -136.5t60.5 -37.5q20 0 43 10v-113q-53 -29 -111 -29q-73 0 -105.5 52t-41.5 166q-102 -218 -318 -218q-171 0 -287 140.5t-116 339.5q0 131 51.5 240.5t145 174t208.5 64.5q215 0 310 -213q3 82 18 197zM795 457
q0 145 -78 244.5t-193 99.5q-117 0 -197.5 -101t-80.5 -243q0 -143 82 -244.5t200 -101.5q111 0 189 99t78 247z" />
    <glyph glyph-name="beta" unicode="&#x3b2;" horiz-adv-x="1124" 
d="M551 -20q-146 0 -258 65q1 -87 6 -275t6 -300h-162v1589q0 107 33 193t89.5 140t127.5 82.5t150 28.5q158 0 257 -96t99 -238q0 -130 -72 -223t-180 -127q170 -17 275.5 -129t105.5 -270q0 -189 -134 -314.5t-343 -125.5zM547 713q-63 0 -113 -6v139q128 5 222 93t94 214
q0 96 -60.5 155.5t-150.5 59.5q-101 0 -167.5 -77.5t-66.5 -227.5v-873q97 -77 246 -77q132 0 224.5 89t92.5 216q0 131 -95 213t-226 82z" />
    <glyph glyph-name="gamma" unicode="&#x3b3;" horiz-adv-x="1040" 
d="M799 920h159q-47 -275 -128.5 -467t-247.5 -451q-11 -148 -84 -528h-168q35 117 66.5 270.5t31.5 261.5q0 273 -274 713q-82 129 -154 201h219q59 -96 103 -175t96 -184.5t83.5 -207.5t37.5 -189q171 276 241 631q17 83 19 125z" />
    <glyph glyph-name="delta" unicode="&#x3b4;" horiz-adv-x="1048" 
d="M80 434q0 117 57 214t152 150.5t205 51.5q-165 124 -273 246.5t-108 208.5q0 101 100.5 156t253.5 55q38 0 76.5 -4t68 -8t67 -14.5t57.5 -16t57 -19.5t47.5 -18.5t47.5 -21t40 -17.5v-172q-90 76 -210 120t-239 44q-88 0 -144 -26.5t-56 -80.5q0 -34 40 -87.5t106 -113
t131 -111.5t134 -102q144 -105 211.5 -203t67.5 -231q0 -186 -130 -316t-315 -130q-187 0 -315.5 129t-128.5 317zM240 436q0 -128 83 -218.5t201 -90.5t200.5 90.5t82.5 218.5t-82.5 218.5t-200.5 90.5t-201 -90.5t-83 -218.5z" />
    <glyph glyph-name="epsilon" unicode="&#x3b5;" horiz-adv-x="792" 
d="M444 410q-101 0 -158 -38t-57 -104q0 -68 55 -108.5t152 -40.5q172 0 287 100v-156q-4 -1 -64.5 -26.5t-119.5 -39t-133 -13.5q-144 0 -238 73.5t-94 194.5q0 88 55 143.5t131 79.5q-72 26 -118 78.5t-46 130.5q0 110 89.5 181t240.5 71q70 0 122.5 -13.5t87.5 -28.5
t56 -17v-175q-94 101 -250 101q-93 0 -142.5 -36t-49.5 -93q0 -66 57 -100.5t152 -34.5q98 0 129 8v-146q-56 9 -144 9z" />
    <glyph glyph-name="zeta" unicode="&#x3b6;" horiz-adv-x="798" 
d="M760 1499v-137q-255 -256 -385.5 -475.5t-130.5 -411.5q0 -49 5.5 -89t17.5 -70t25 -52.5t36 -39.5t41.5 -27.5t49.5 -20t53 -14.5t58 -12q17 -3 25 -5q118 -27 175.5 -79.5t57.5 -159.5q0 -140 -106 -324h-145q42 66 73 144t31 141q0 56 -33 86.5t-104 44.5
q-76 16 -116.5 26.5t-97.5 32.5t-86 50.5t-59.5 73.5t-42.5 110t-12 151q0 384 465 875q-327 0 -395 12v135q41 -11 138.5 -19.5t174.5 -8.5h207q46 41 80 63z" />
    <glyph glyph-name="eta" unicode="&#x3b7;" horiz-adv-x="1032" 
d="M735 559q0 123 -55 184.5t-150 61.5q-93 0 -162 -79t-69 -198v-317q0 -132 8 -211h-174q8 79 8 211v547q0 101 -6 162h156q6 -40 6 -113v-47q34 76 109 126t172 50q153 0 234 -96.5t81 -280.5v-1085h-172q14 126 14 264v821z" />
    <glyph glyph-name="theta" unicode="&#x3b8;" horiz-adv-x="1069" 
d="M102 733q0 211 50.5 379.5t149.5 269.5t230 101q132 0 232.5 -100.5t151.5 -270t51 -379.5t-51 -378.5t-151 -268.5t-233 -100q-132 0 -230.5 100t-149 268.5t-50.5 378.5zM532 1343q-83 0 -144.5 -71.5t-94.5 -193.5t-39 -283h559q-5 160 -38.5 282.5t-96 194
t-146.5 71.5zM532 123q124 0 198 149t83 394h-557q9 -244 82.5 -393.5t193.5 -149.5z" />
    <glyph glyph-name="iota" unicode="&#x3b9;" horiz-adv-x="452" 
d="M295 709v-476q0 -131 49 -131q38 0 49 11v-101q-55 -35 -114 -35q-79 0 -110.5 63t-31.5 198v475q0 133 -6 207h172q-8 -94 -8 -211z" />
    <glyph glyph-name="kappa" unicode="&#x3ba;" horiz-adv-x="948" 
d="M309 696v-231q185 245 266 326q80 83 128.5 114t111.5 31q61 0 100 -35q-47 -16 -92 -51.5t-116 -106.5q-114 -117 -232 -264l268 -282q104 -115 205 -197h-225q-21 31 -121 145l-293 312v-246q0 -149 6 -211h-170q7 79 7 211v485q0 118 -9 224h160q6 -70 6 -224z" />
    <glyph glyph-name="lambda" unicode="&#x3bb;" horiz-adv-x="944" 
d="M-72 1346v141q14 3 41.5 12.5t53 14t61.5 4.5q131 0 220 -95t177 -317l346 -858q60 -150 113 -248h-207q-15 85 -53 186l-203 527l-266 -625q-28 -64 -35 -88h-172q39 56 68 115l338 759l-76 193q-66 170 -131.5 239.5t-153.5 69.5q-60 0 -121 -30z" />
    <glyph glyph-name="uni03BC" unicode="&#x3bc;" 
d="M299 367q2 -116 54.5 -183t162.5 -67q99 0 158 78.5t59 181.5v332q0 132 -8 211h172q-6 -88 -6 -211v-473q0 -76 11.5 -105t41.5 -29q32 0 43 11v-101q-1 0 -8 -4.5t-9.5 -6t-10.5 -5.5t-13.5 -6t-15 -5t-17.5 -4.5t-19.5 -2.5t-23.5 -1q-57 0 -88 39.5t-37 147.5
q-83 -180 -256 -180q-145 0 -217 108q21 -135 21 -424q0 -75 6 -198h-164q6 68 6 211v1032q0 126 -8 207h172q-6 -88 -6 -211v-342z" />
    <glyph glyph-name="nu" unicode="&#x3bd;" horiz-adv-x="913" 
d="M262 739l201 -530q104 140 157.5 278.5t53.5 249.5q0 109 -33 183h170q-2 -17 5 -72t7 -109q0 -155 -85 -337.5t-292 -430.5h-30l-310 736q-68 156 -104 213h207q15 -76 53 -181z" />
    <glyph glyph-name="xi" unicode="&#x3be;" horiz-adv-x="874" 
d="M707 -418h-146q103 175 103 285q0 68 -48 95.5t-145 35.5q-60 6 -107.5 17t-96.5 35.5t-81 60.5t-52.5 94t-20.5 133q0 131 81.5 235t211.5 146q-112 37 -181 124.5t-69 213.5q0 158 117.5 262t287.5 106q57 1 120 -7t79 -9v-141q-89 32 -174 30q-118 -3 -197.5 -76
t-79.5 -175q0 -108 80.5 -184.5t190.5 -76.5q87 0 149 27v-135q-119 0 -203 -23q-116 -32 -188 -113.5t-72 -183.5q0 -49 16 -87t41 -61.5t61.5 -39.5t70.5 -23.5t75 -11.5q53 -5 90 -12.5t75.5 -24t62 -40.5t38.5 -64.5t15 -95.5q0 -27 -3.5 -54t-11.5 -54.5t-14 -47
t-19.5 -48.5t-18.5 -39.5t-20.5 -40t-16.5 -32.5z" />
    <glyph glyph-name="omicron" unicode="&#x3bf;" horiz-adv-x="1107" 
d="M80 459q0 97 37.5 185.5t101 152.5t151 101.5t183.5 37.5q97 0 184.5 -37.5t151.5 -101.5t101.5 -152.5t37.5 -185.5q0 -96 -37.5 -184t-101.5 -151t-151.5 -100.5t-184.5 -37.5q-195 0 -334 138.5t-139 334.5zM233 459q0 -139 93 -236.5t227 -97.5q133 0 227 98t94 236
q0 140 -94 239t-227 99t-226.5 -99t-93.5 -239z" />
    <glyph glyph-name="pi" unicode="&#x3c0;" horiz-adv-x="1161" 
d="M1116 926v-142q-41 2 -129 2h-94q-14 -343 -14 -481q0 -209 26 -305h-168q-12 76 -12 285q0 69 4 252t8 249h-280l-39 -786h-150l39 786q-205 0 -264 -16v125q73 25 250 25h698q63 0 125 6z" />
    <glyph glyph-name="rho" unicode="&#x3c1;" horiz-adv-x="1099" 
d="M584 -14q-193 0 -303 120v-317q0 -129 6 -194t26 -121h-166q-26 82 -26 307v641q0 243 121.5 378.5t326.5 135.5q195 0 322 -138t127 -339q0 -129 -56.5 -237.5t-156.5 -172t-221 -63.5zM281 428v-174q105 -131 286 -131q124 0 208.5 98.5t84.5 237.5q0 142 -82.5 240
t-208.5 98q-133 0 -210.5 -96t-77.5 -273z" />
    <glyph glyph-name="uni03C2" unicode="&#x3c2;" horiz-adv-x="856" 
d="M236 467q0 -60 17 -109t45 -83t69 -61t83.5 -43t94.5 -28q137 -32 187 -86t50 -159q0 -121 -96 -283h-145q28 48 45 80t32 78t15 84q0 60 -35 94.5t-129 56.5q-64 14 -117 34t-105.5 55t-88 81.5t-58 116.5t-22.5 156q0 204 139 344.5t340 140.5q47 0 121 -12.5t90 -14.5
v-178q-82 66 -211 66q-138 0 -229.5 -96t-91.5 -234z" />
    <glyph glyph-name="sigma" unicode="&#x3c3;" horiz-adv-x="1175" 
d="M545 924h329q159 0 238 8v-139q-88 -9 -238 -9h-88q77 -57 126 -141t49 -190q0 -125 -59 -232.5t-161.5 -171t-224.5 -63.5q-91 0 -172 37.5t-139.5 101.5t-92.5 151.5t-34 184.5q0 200 125.5 331.5t341.5 131.5zM805 463q0 91 -53 176.5t-136 144.5h-94
q-124 0 -207.5 -93.5t-83.5 -227.5q0 -141 83 -239.5t202 -98.5q120 0 204.5 98.5t84.5 239.5z" />
    <glyph glyph-name="tau" unicode="&#x3c4;" horiz-adv-x="899" 
d="M862 926v-144q-41 4 -147 4h-193q-14 -343 -14 -561q0 -54 7 -83.5t16 -36.5t24 -7q26 0 39 8v-104q-52 -25 -98 -25q-78 0 -112 55.5t-34 188.5q0 271 12 565h-51q-215 0 -274 -18v125q71 27 250 27h428q83 0 147 6z" />
    <glyph glyph-name="upsilon" unicode="&#x3c5;" horiz-adv-x="1021" 
d="M299 713l-10 -363q-1 -108 61 -171.5t152 -63.5q128 0 197 108.5t69 288.5q0 123 -26.5 218.5t-79.5 189.5h163q38 -70 69.5 -180t31.5 -228q0 -239 -113 -383.5t-311 -144.5q-160 0 -267.5 98t-103.5 260l8 369q3 113 -8 209h158q14 -96 10 -207z" />
    <glyph glyph-name="phi" unicode="&#x3c6;" horiz-adv-x="1296" 
d="M78 473q0 210 141 341t359 149v145q0 156 -7 213h152q-4 -49 -4 -213l-2 -145q218 -18 360 -149.5t142 -340.5q0 -141 -68.5 -250t-181 -168.5t-252.5 -68.5l2 -228q0 -142 6 -213h-154q7 82 7 213v228q-219 15 -359.5 145.5t-140.5 341.5zM1063 473q0 156 -100.5 250
t-245.5 100v-702q146 8 246 102t100 250zM231 473q0 -157 100.5 -250.5t246.5 -101.5v702q-146 -6 -246.5 -100t-100.5 -250z" />
    <glyph glyph-name="chi" unicode="&#x3c7;" horiz-adv-x="921" 
d="M592 -244l-139 283l-158 -322q-97 -193 -115 -243h-186q92 140 186 327l203 396l-190 374q-108 219 -187 349h197q41 -114 114 -258l154 -302l147 304q84 166 119 256h181q-60 -95 -168 -302l-207 -411l170 -342q128 -259 207 -391h-199q-25 68 -129 282z" />
    <glyph glyph-name="psi" unicode="&#x3c8;" horiz-adv-x="1337" 
d="M739 895v-770q111 22 183 104.5t102 255.5q2 15 26 181.5t42 253.5h174q-20 -66 -35 -143t-29 -174t-20 -132q-38 -226 -147 -344.5t-296 -138.5v-174q0 -111 9 -199h-152q4 86 4 199v174q-187 19 -295.5 133t-144.5 346q-43 320 -84 453h172q14 -65 25.5 -138.5
t23.5 -160.5t20 -136q29 -178 100 -258t183 -102v770q0 121 -4 211h152q-9 -101 -9 -211z" />
    <glyph glyph-name="omega" unicode="&#x3c9;" horiz-adv-x="1458" 
d="M805 535v-158q0 -119 49.5 -186.5t132.5 -67.5q96 0 157.5 97.5t61.5 230.5q0 246 -186 469h184q33 -50 55 -88.5t50 -100.5t42.5 -134.5t14.5 -152.5q0 -125 -43 -229.5t-128.5 -168.5t-197.5 -64q-108 0 -175 56.5t-95 151.5q-27 -92 -95.5 -150t-178.5 -58
q-164 0 -261.5 126.5t-97.5 331.5q0 258 168 480h176q-186 -215 -186 -469q0 -143 60 -235.5t157 -92.5q81 0 132.5 68t51.5 184v160q0 108 -4 157h162q-6 -77 -6 -157z" />
    <glyph glyph-name="iotadieresis" unicode="&#x3ca;" horiz-adv-x="452" 
d="M295 709v-476q0 -131 49 -131q38 0 49 11v-101q-55 -35 -114 -35q-79 0 -110.5 63t-31.5 198v475q0 133 -6 207h172q-8 -94 -8 -211zM-59 1200q0 36 26 61t62 25t61 -25t25 -61q0 -35 -25.5 -60.5t-60.5 -25.5t-61.5 25.5t-26.5 60.5zM324 1200q0 37 25.5 61.5t62.5 24.5
q35 0 59.5 -24.5t24.5 -61.5q0 -35 -24.5 -60.5t-59.5 -25.5q-37 0 -62.5 25.5t-25.5 60.5z" />
    <glyph glyph-name="upsilondieresis" unicode="&#x3cb;" horiz-adv-x="1021" 
d="M299 713l-10 -363q-1 -108 61 -171.5t152 -63.5q128 0 197 108.5t69 288.5q0 123 -26.5 218.5t-79.5 189.5h163q38 -70 69.5 -180t31.5 -228q0 -239 -113 -383.5t-311 -144.5q-160 0 -267.5 98t-103.5 260l8 369q3 113 -8 209h158q14 -96 10 -207zM215 1200q0 36 26 61
t62 25t61 -25t25 -61q0 -35 -25.5 -60.5t-60.5 -25.5t-61.5 25.5t-26.5 60.5zM598 1200q0 37 25.5 61.5t62.5 24.5q35 0 59.5 -24.5t24.5 -61.5q0 -35 -24.5 -60.5t-59.5 -25.5q-37 0 -62.5 25.5t-25.5 60.5z" />
    <glyph glyph-name="omicrontonos" unicode="&#x3cc;" horiz-adv-x="1107" 
d="M80 459q0 97 37.5 185.5t101 152.5t151 101.5t183.5 37.5q97 0 184.5 -37.5t151.5 -101.5t101.5 -152.5t37.5 -185.5q0 -96 -37.5 -184t-101.5 -151t-151.5 -100.5t-184.5 -37.5q-195 0 -334 138.5t-139 334.5zM233 459q0 -139 93 -236.5t227 -97.5q133 0 227 98t94 236
q0 140 -94 239t-227 99t-226.5 -99t-93.5 -239zM463 1049l209 282h162l-228 -282h-143z" />
    <glyph glyph-name="upsilontonos" unicode="&#x3cd;" horiz-adv-x="1021" 
d="M299 713l-10 -363q-1 -108 61 -171.5t152 -63.5q128 0 197 108.5t69 288.5q0 123 -26.5 218.5t-79.5 189.5h163q38 -70 69.5 -180t31.5 -228q0 -239 -113 -383.5t-311 -144.5q-160 0 -267.5 98t-103.5 260l8 369q3 113 -8 209h158q14 -96 10 -207zM408 1049l208 282h162
l-227 -282h-143z" />
    <glyph glyph-name="omegatonos" unicode="&#x3ce;" horiz-adv-x="1458" 
d="M805 535v-158q0 -119 49.5 -186.5t132.5 -67.5q96 0 157.5 97.5t61.5 230.5q0 246 -186 469h184q33 -50 55 -88.5t50 -100.5t42.5 -134.5t14.5 -152.5q0 -125 -43 -229.5t-128.5 -168.5t-197.5 -64q-108 0 -175 56.5t-95 151.5q-27 -92 -95.5 -150t-178.5 -58
q-164 0 -261.5 126.5t-97.5 331.5q0 258 168 480h176q-186 -215 -186 -469q0 -143 60 -235.5t157 -92.5q81 0 132.5 68t51.5 184v160q0 108 -4 157h162q-6 -77 -6 -157zM653 1049l209 282h162l-227 -282h-144z" />
    <glyph glyph-name="uni03D1" unicode="&#x3d1;" horiz-adv-x="989" 
d="M61 434h170q14 -27 41 -86.5t43.5 -89.5t43.5 -68t59 -55t71 -18q73 0 131 69t90 176t38 234q-158 4 -284 43.5t-206.5 106.5t-123 155t-42.5 189q0 100 49 190t137.5 146.5t192.5 56.5q208 0 323 -195.5t115 -533.5q0 -224 -50 -397.5t-148 -274t-230 -100.5
q-59 0 -108.5 20.5t-82.5 50.5t-67 80t-55 92.5t-52.5 106t-54.5 102.5zM752 731q4 175 -26 313t-97.5 223t-163.5 85q-93 0 -155 -78t-62 -178q0 -153 132.5 -256t371.5 -109z" />
    <glyph glyph-name="uni03D7" unicode="&#x3d7;" horiz-adv-x="1110" 
d="M309 696v-227q203 251 236 289q78 88 141 133t123 45q13 0 25 -1t20.5 -2.5t17 -5t13 -5.5t10.5 -6t8 -5.5t7 -5.5l5 -4q-77 -22 -206 -151q-117 -120 -234 -271l234 -266q50 -59 94 -83t96 -24q92 0 168 62v-170q-33 -21 -91.5 -73.5t-118.5 -102t-136.5 -99.5t-176 -81
t-206.5 -31q-271 0 -447 199v256q73 -153 189 -229.5t258 -76.5q76 0 148.5 20.5t128.5 51.5t100.5 62.5t83 60.5t57.5 37q-149 -18 -283 151l-264 312v-244q0 -149 6 -211h-170q7 79 7 211v485q0 118 -9 224h160q6 -70 6 -224z" />
    <glyph glyph-name="uni03D9" unicode="&#x3d9;" horiz-adv-x="1103" 
d="M76 459q0 97 37.5 185.5t101 152.5t151 101.5t183.5 37.5q97 0 184.5 -37.5t151.5 -101.5t101.5 -152.5t37.5 -185.5q0 -175 -113 -307t-282 -160v-131q0 -87 6 -178h-168q4 122 4 178v131q-169 28 -282 160t-113 307zM229 459q0 -139 93 -236.5t227 -97.5q133 0 227 98
t94 236q0 140 -94 239t-227 99t-226.5 -99t-93.5 -239z" />
    <glyph glyph-name="uni03DB" unicode="&#x3db;" horiz-adv-x="854" 
d="M242 463q0 -257 303 -316q127 -28 184 -81.5t57 -171.5q0 -47 -17.5 -103.5t-33.5 -89t-45 -86.5h-145q37 57 63.5 122.5t26.5 117.5q0 63 -41.5 99.5t-132.5 57.5q-379 79 -379 441q0 194 117.5 322t318.5 159q57 8 85 22.5t42 52.5t14 111h140q0 -164 -53 -230
t-181 -87q-156 -23 -239.5 -113t-83.5 -227z" />
    <glyph glyph-name="uni03DD" unicode="&#x3dd;" horiz-adv-x="960" 
d="M129 -317q23 81 23 270v692q0 165 -7 275h308q189 0 315 8v-152q-94 6 -315 6h-136v-383h154q130 0 240 7v-148q-63 4 -240 4h-154v-311q0 -163 -10 -268h-178z" />
    <glyph glyph-name="uni03E1" unicode="&#x3e1;" horiz-adv-x="1153" 
d="M340 854l313 154q-107 139 -238.5 226.5t-240.5 88.5l182 86q141 -40 310.5 -198.5t285.5 -399.5q112 -232 137 -455t-36 -387l-181 -82q44 74 62 177t13 202t-27 199l-328 -160q-140 -66 -207 -104l-61 129q24 9 208 94l353 172q-70 173 -152 299l-340 -162
q-180 -90 -203 -104l-59 131q33 11 209 94z" />
    <glyph glyph-name="uni0400" unicode="&#x400;" horiz-adv-x="944" 
d="M485 1266h-163v-447h161q225 0 320 6v-151q-94 6 -320 6h-161v-541h180q254 0 346 6v-151q-92 6 -346 6h-355q9 254 9 367v671q0 228 -9 365h338q220 0 346 8v-154q-95 9 -346 9zM324 1735l264 -230h-164l-299 230h199z" />
    <glyph glyph-name="uni0401" unicode="&#x401;" horiz-adv-x="944" 
d="M485 1266h-163v-447h161q225 0 320 6v-151q-94 6 -320 6h-161v-541h180q254 0 346 6v-151q-92 6 -346 6h-355q9 254 9 367v671q0 228 -9 365h338q220 0 346 8v-154q-95 9 -346 9zM201 1614q0 38 28 65t66 27q40 0 67 -27t27 -65t-27 -65t-67 -27q-38 0 -66 27t-28 65z
M588 1614q0 38 28.5 65t67.5 27q38 0 65 -27t27 -65t-27 -65t-65 -27q-39 0 -67.5 27t-28.5 65z" />
    <glyph glyph-name="uni0402" unicode="&#x402;" horiz-adv-x="1423" 
d="M1163 367q0 92 -34.5 170t-109 129t-177.5 51q-131 0 -224 -51v-312q0 -260 9 -354h-183q9 142 9 367v899h-113q-164 0 -301 -9v152q92 -6 301 -6h549q219 0 311 6v-152q-137 9 -315 9h-267v-463q95 55 248 55q118 0 210.5 -42t147 -112t82 -153t27.5 -174
q0 -116 -41.5 -215.5t-115 -173.5t-169 -126t-208.5 -81v153q74 23 136.5 58.5t115 87t82.5 125.5t30 162z" />
    <glyph glyph-name="uni0403" unicode="&#x403;" horiz-adv-x="935" 
d="M147 0q9 142 9 367v669q0 230 -9 367h435q146 0 303 10v-160q-142 9 -303 9h-260v-895q0 -178 6 -367h-181zM412 1505l262 230h198l-299 -230h-161z" />
    <glyph glyph-name="uni0404" unicode="&#x404;" horiz-adv-x="1325" 
d="M717 653h-453q9 -234 166 -382t412 -148q252 0 381 102v-186q-203 -62 -385 -62q-229 0 -399 90.5t-259.5 254.5t-89.5 380q0 157 52 290.5t147 229.5t236.5 150.5t312.5 54.5q61 0 120.5 -6.5t86.5 -11.5t89 -20t72 -17v-198q-125 106 -364 106q-251 0 -404 -136.5
t-168 -352.5h447q266 0 358 6v-150q-92 6 -358 6z" />
    <glyph glyph-name="uni0405" unicode="&#x405;" horiz-adv-x="989" 
d="M326 1075q0 -60 30.5 -110.5t79.5 -88.5t107.5 -74.5t117.5 -77.5t108 -88t79.5 -115.5t30.5 -151.5q0 -179 -118.5 -289.5t-316.5 -110.5q-64 0 -122.5 10t-120.5 26t-97 22v233q38 -66 137.5 -112t202.5 -46q119 0 185.5 68t66.5 178q0 61 -30.5 112.5t-78.5 89.5
t-106.5 74.5t-117.5 77t-107 87.5t-78.5 115t-30.5 151q0 177 113 277t301 100q66 0 160.5 -25.5t122.5 -28.5v-221q-29 66 -107 106t-168 40q-112 0 -177.5 -60.5t-65.5 -167.5z" />
    <glyph glyph-name="uni0406" unicode="&#x406;" horiz-adv-x="493" 
d="M330 1036v-669q0 -241 8 -367h-182q8 126 8 367v669q0 245 -8 367h182q-8 -122 -8 -367z" />
    <glyph glyph-name="uni0407" unicode="&#x407;" horiz-adv-x="493" 
d="M330 1036v-669q0 -241 8 -367h-182q8 126 8 367v669q0 245 -8 367h182q-8 -122 -8 -367zM-41 1614q0 38 28 65t66 27q40 0 67 -27t27 -65t-27 -65t-67 -27q-38 0 -66 27t-28 65zM346 1614q0 38 28.5 65t67.5 27q38 0 65.5 -27t27.5 -65t-27.5 -65t-65.5 -27
q-39 0 -67.5 27t-28.5 65z" />
    <glyph glyph-name="uni0408" unicode="&#x408;" horiz-adv-x="489" 
d="M330 1036v-1042q0 -185 -104 -291t-263 -106q-39 0 -99.5 13t-72.5 15v185q56 -70 164 -70q89 0 149 71t60 183v1042q0 184 -6 367h180q-8 -122 -8 -367z" />
    <glyph glyph-name="uni0409" unicode="&#x409;" horiz-adv-x="1751" 
d="M928 256l-332 862l-326 -876q-62 -162 -82 -242h-188q46 80 137 311l449 1139h49l219 -561h303q255 0 384.5 -113.5t129.5 -316.5q0 -95 -34 -179t-96 -146t-155 -98t-204 -36h-164q-23 84 -90 256zM1130 758h-225l248 -627h18q138 0 234 93.5t96 234.5
q0 142 -90.5 220.5t-280.5 78.5z" />
    <glyph glyph-name="uni040A" unicode="&#x40a;" horiz-adv-x="1865" 
d="M313 1036v-213h670v213q0 224 -10 367h178q-8 -360 -8 -367v-153h135q121 0 218 -34t160 -93.5t96.5 -139t33.5 -172.5q0 -193 -133.5 -318.5t-370.5 -125.5h-309q10 95 10 297v389h-670v-391q0 -167 9 -295h-175q9 128 9 297v739q0 243 -9 367h175q-9 -124 -9 -367z
M1143 743v-604h125q164 0 258 83t94 220q0 134 -94.5 217.5t-257.5 83.5h-125z" />
    <glyph glyph-name="uni040B" unicode="&#x40b;" horiz-adv-x="1458" 
d="M1155 432q0 149 -74 220t-188 71q-149 0 -272 -80v-272q0 -245 8 -371h-187q13 136 13 367v899h-133q-146 0 -283 -9v154q122 -8 283 -8h559q205 0 331 8v-156q-87 11 -331 11h-260v-484q148 76 311 76q81 0 149.5 -24t123 -72t85.5 -129t31 -187v-231q0 -141 6 -215
h-180q8 97 8 432z" />
    <glyph glyph-name="uni040C" unicode="&#x40c;" horiz-adv-x="1169" 
d="M156 367v669q0 230 -9 367h181q-6 -183 -6 -367v-248h102q48 53 92 103.5t77 89.5t67 82t55 68.5t47.5 62.5t37.5 52t33 48l26 39t24 38l20 32h219q-30 -31 -95.5 -113.5t-189 -232.5t-276.5 -320q167 -197 302.5 -365.5t198 -247t107.5 -124.5h-243q-49 78 -83 127.5
t-144 189t-287 347.5h-90v-297q0 -178 6 -367h-181q9 142 9 367zM457 1505l262 230h199l-300 -230h-161z" />
    <glyph glyph-name="uni040D" unicode="&#x40d;" horiz-adv-x="1431" 
d="M1112 295v790l-692 -841q-134 -153 -234 -283h-41q11 164 11 311v764q0 120 -11 367h185q-8 -172 -8 -367v-710l698 841q144 174 221 277h45q-8 -222 -8 -406v-741q0 -183 8 -297h-182q8 114 8 295zM582 1735l264 -230h-164l-299 230h199z" />
    <glyph glyph-name="uni040E" unicode="&#x40e;" horiz-adv-x="1210" 
d="M285 1239l348 -649l325 659q50 117 58 154h194q-20 -34 -106 -193l-518 -1034q-10 -23 -29.5 -64t-29.5 -64.5t-17 -47.5h-193q44 68 97 168l135 254l-426 772q-76 136 -123 209h209q22 -65 76 -164zM416 1731q9 -74 65 -121t142 -47q88 0 144 47.5t62 120.5h138
q-9 -117 -102 -193t-242 -76q-146 0 -239.5 76t-102.5 193h135z" />
    <glyph glyph-name="uni040F" unicode="&#x40f;" horiz-adv-x="1314" 
d="M1167 0h-426l-16 -381h-147l-3 381h-428q9 171 9 367v669q0 199 -11 367h185q-8 -122 -8 -367v-899h671v895q0 231 -8 371h184q-10 -102 -10 -373v-741q0 -198 8 -289z" />
    <glyph glyph-name="uni0410" unicode="&#x410;" horiz-adv-x="1320" 
d="M1321 0h-213q-24 70 -92 231l-103 244h-534l-100 -239q-76 -183 -91 -236h-188q85 159 147 311l484 1119h47l489 -1119q76 -172 154 -311zM856 612l-211 516l-211 -516h422z" />
    <glyph glyph-name="uni0411" unicode="&#x411;" horiz-adv-x="1054" 
d="M145 1403h340q202 0 349 8v-139q-152 9 -351 6h-161v-436h188q198 0 321 -119t123 -299q0 -185 -124 -304.5t-330 -119.5h-355q11 116 11 367v667q0 211 -11 369zM322 719v-596h157q137 0 222 87t85 208q0 124 -85 212.5t-222 88.5h-157z" />
    <glyph glyph-name="uni0412" unicode="&#x412;" horiz-adv-x="1050" 
d="M145 0q11 116 11 367v643q0 302 -9 393h304q188 0 292.5 -96t104.5 -236q0 -99 -51.5 -174t-122.5 -102q127 -37 203.5 -139t76.5 -240q0 -177 -130.5 -296.5t-348.5 -119.5h-330zM786 420q0 130 -85 210.5t-216 80.5h-163v-576h141q141 0 232 79.5t91 205.5zM322 1274
v-440h157q87 0 145 62t58 157q0 97 -69.5 159t-176.5 62h-114z" />
    <glyph glyph-name="uni0413" unicode="&#x413;" horiz-adv-x="935" 
d="M147 0q9 142 9 367v669q0 230 -9 367h435q146 0 303 10v-160q-142 9 -303 9h-260v-895q0 -178 6 -367h-181z" />
    <glyph glyph-name="uni0414" unicode="&#x414;" horiz-adv-x="1490" 
d="M1454 143l-41 -524h-145l18 381h-1077l2 -381h-143l-27 524q31 -4 137 -4q28 60 96 215l451 1096h43l446 -1096q54 -129 97 -215q110 0 143 4zM1120 139l-381 1002l-387 -1002h768z" />
    <glyph glyph-name="uni0415" unicode="&#x415;" horiz-adv-x="944" 
d="M485 1266h-163v-447h161q225 0 320 6v-151q-94 6 -320 6h-161v-541h180q254 0 346 6v-151q-92 6 -346 6h-355q9 254 9 367v671q0 228 -9 365h338q220 0 346 8v-154q-95 9 -346 9z" />
    <glyph glyph-name="uni0416" unicode="&#x416;" horiz-adv-x="1798" 
d="M813 367v301h-96q-172 -211 -298.5 -386.5t-191.5 -281.5h-227q56 59 250.5 324t320.5 419q-121 146 -239 298t-185 239t-102 123h213q45 -72 79 -123t140.5 -191.5t245.5 -304.5h90v252q0 276 -6 367h180q-8 -122 -8 -367v-252h96q57 65 107 125.5t92.5 115.5t73.5 96
t65 89.5t50 71.5t45.5 67.5t35.5 53.5h209q-62 -67 -238.5 -296t-287.5 -362q134 -162 252 -323t192 -263.5t127 -158.5h-231q-2 3 -73.5 111t-107 158t-122.5 165.5t-185 233.5h-100v-301q0 -241 8 -367h-180q6 94 6 367z" />
    <glyph glyph-name="uni0417" unicode="&#x417;" horiz-adv-x="1003" 
d="M420 659q-94 0 -162 -10v152q31 -8 166 -8q116 0 195 69.5t79 184.5q0 103 -73.5 168t-190.5 65q-81 0 -158.5 -26t-136.5 -70v172q35 7 85.5 24.5t102 29t117.5 11.5q196 0 311 -100.5t115 -265.5q0 -118 -70 -205.5t-173 -118.5q120 -32 196 -123t76 -225
q0 -176 -118.5 -287.5t-329.5 -111.5q-91 0 -162 17.5t-126.5 41.5t-78.5 29v188h2q57 -58 153 -96.5t191 -38.5q142 0 219.5 76t77.5 192q0 123 -89 194.5t-218 71.5z" />
    <glyph glyph-name="uni0418" unicode="&#x418;" horiz-adv-x="1431" 
d="M1112 295v790l-692 -841q-134 -153 -234 -283h-41q11 164 11 311v764q0 120 -11 367h185q-8 -172 -8 -367v-710l698 841q144 174 221 277h45q-8 -222 -8 -406v-741q0 -183 8 -297h-182q8 114 8 295z" />
    <glyph glyph-name="uni0419" unicode="&#x419;" horiz-adv-x="1431" 
d="M1112 295v790l-692 -841q-134 -153 -234 -283h-41q11 164 11 311v764q0 120 -11 367h185q-8 -172 -8 -367v-710l698 841q144 174 221 277h45q-8 -222 -8 -406v-741q0 -183 8 -297h-182q8 114 8 295zM528 1731q9 -74 65 -121t142 -47q88 0 144.5 47.5t62.5 120.5h137
q-9 -117 -102 -193t-242 -76q-146 0 -239.5 76t-102.5 193h135z" />
    <glyph glyph-name="uni041A" unicode="&#x41a;" horiz-adv-x="1169" 
d="M156 367v669q0 230 -9 367h181q-6 -183 -6 -367v-248h102q48 53 92 103.5t77 89.5t67 82t55 68.5t47.5 62.5t37.5 52t33 48l26 39t24 38l20 32h219q-30 -31 -95.5 -113.5t-189 -232.5t-276.5 -320q167 -197 302.5 -365.5t198 -247t107.5 -124.5h-243q-49 78 -83 127.5
t-144 189t-287 347.5h-90v-297q0 -178 6 -367h-181q9 142 9 367z" />
    <glyph glyph-name="uni041B" unicode="&#x41b;" horiz-adv-x="1312" 
d="M999 256q-60 147 -178.5 429t-175.5 421q-145 -335 -364 -877q-59 -146 -86 -229h-195q65 109 147 311l488 1139h37l487 -1139q96 -218 154 -311h-219q-17 56 -95 256z" />
    <glyph glyph-name="uni041C" unicode="&#x41c;" horiz-adv-x="1669" 
d="M1425 1430l119 -1102q22 -197 49 -328h-194q0 62 -19 279l-69 749l-459 -1046h-41l-453 1044l-90 -731q-24 -205 -26 -295h-179q23 108 58 371l147 1059h43l531 -1170l536 1170h47z" />
    <glyph glyph-name="uni041D" unicode="&#x41d;" horiz-adv-x="1411" 
d="M322 1036v-213h765v213q0 281 -6 367h181q-9 -202 -9 -367v-741q0 -167 9 -295h-181q6 86 6 297v389h-765v-391q0 -181 8 -295h-180q6 86 6 297v739q0 284 -6 367h180q-8 -110 -8 -367z" />
    <glyph glyph-name="uni041E" unicode="&#x41e;" horiz-adv-x="1630" 
d="M90 702q0 147 56.5 281t153 231.5t231.5 155t284 57.5t284 -57.5t231.5 -155t153 -231.5t56.5 -281q0 -198 -96 -365t-263 -264.5t-366 -97.5t-366 97.5t-263 264.5t-96 365zM260 702q0 -119 44 -227.5t118 -186t177 -123.5t216 -46t216 46t177 123.5t118 186t44 227.5
q0 158 -74 292t-202 212t-279 78t-279 -78t-202 -212t-74 -292z" />
    <glyph glyph-name="uni041F" unicode="&#x41f;" horiz-adv-x="1339" 
d="M147 1403h1043q-6 -63 -6 -289v-743q0 -245 8 -371h-182q6 70 6 371v893h-692v-897q0 -273 6 -367h-180q6 94 6 367v671q0 194 -9 365z" />
    <glyph glyph-name="uni0420" unicode="&#x420;" horiz-adv-x="995" 
d="M322 551v-184q0 -241 8 -367h-180q6 94 6 367v710q0 235 -6 326h313q214 0 337.5 -119t123.5 -307q0 -185 -130 -305.5t-335 -120.5h-137zM322 1274v-596h124q133 0 221.5 91t88.5 210q0 124 -84 209.5t-228 85.5h-122z" />
    <glyph glyph-name="uni0421" unicode="&#x421;" horiz-adv-x="1294" 
d="M260 702q0 -118 46.5 -225t125.5 -184.5t189 -123.5t231 -46q239 0 371 115v-193q-76 -23 -121.5 -35t-117 -22.5t-144.5 -10.5q-157 0 -296.5 57.5t-238.5 155t-157 231t-58 281.5t58 282.5t157 232.5t238.5 155.5t296.5 57.5q58 0 114.5 -7t89.5 -15t87 -22.5t77 -19.5
v-197q-133 111 -358 111q-161 0 -297 -77.5t-214.5 -210.5t-78.5 -290z" />
    <glyph glyph-name="uni0422" unicode="&#x422;" horiz-adv-x="1263" 
d="M399 1403h461q260 0 354 6v-152q-142 9 -354 9h-143q-2 -76 -2 -265v-634q0 -283 8 -367h-182q6 94 6 367v634q0 151 -6 265h-142q-208 0 -350 -9v152q94 -6 350 -6z" />
    <glyph glyph-name="uni0423" unicode="&#x423;" horiz-adv-x="1210" 
d="M285 1239l348 -649l325 659q50 117 58 154h194q-20 -34 -106 -193l-518 -1034q-10 -23 -29.5 -64t-29.5 -64.5t-17 -47.5h-193q44 68 97 168l135 254l-426 772q-76 136 -123 209h209q22 -65 76 -164z" />
    <glyph glyph-name="uni0424" unicode="&#x424;" horiz-adv-x="1536" 
d="M84 711q0 167 79.5 292t213 191.5t307.5 79.5q0 84 -6 186h176q-6 -102 -6 -186q130 -9 240 -49.5t192 -110t128 -173t46 -230.5q0 -166 -80.5 -291.5t-216 -192.5t-309.5 -77q0 -75 8 -207h-178q1 25 2.5 66.5t2.5 75.5t1 65q-174 12 -307.5 78.5t-213 191.5t-79.5 291z
M1294 711q0 189 -126.5 301.5t-319.5 120.5v-842q126 5 226 55t160 145t60 220zM244 711q0 -186 125 -298.5t315 -121.5v842q-191 -9 -315.5 -121.5t-124.5 -300.5z" />
    <glyph glyph-name="uni0425" unicode="&#x425;" horiz-adv-x="1075" 
d="M723 242l-193 327l-208 -354q-82 -144 -117 -215h-203q95 128 201 297l246 405l-240 394q-111 185 -203 307h215q56 -112 131 -234l189 -319l188 321q29 50 71.5 128t57.5 104h201q-74 -97 -201 -301l-235 -385l241 -400q116 -187 213 -317h-215q-11 18 -35 61.5
t-50.5 90t-53.5 90.5z" />
    <glyph glyph-name="uni0426" unicode="&#x426;" horiz-adv-x="1335" 
d="M1264 139l-35 -520h-146l11 381h-949q11 139 11 367v669q0 199 -11 367h185q-8 -122 -8 -367v-899h657v895q0 254 -10 371h186q-10 -102 -10 -373v-741v-150h119z" />
    <glyph glyph-name="uni0427" unicode="&#x427;" horiz-adv-x="1208" 
d="M285 999q0 -148 84.5 -224.5t214.5 -76.5q180 0 305 68v422q0 147 -8 215h180q-6 -77 -6 -215v-967q0 -127 8 -221h-182q8 65 8 215v410q-151 -68 -340 -68q-92 0 -169 25t-136 74t-92 128.5t-33 182.5v221q0 138 -6 215h178q-6 -77 -6 -215v-189z" />
    <glyph glyph-name="uni0428" unicode="&#x428;" horiz-adv-x="1787" 
d="M1640 0h-1495q11 172 11 346v686q0 259 -11 371h174q-8 -93 -8 -369v-901h506v899q0 269 -10 371h176q-8 -93 -8 -369v-901h502v903q0 92 -9 367h174q-10 -153 -10 -367v-669q0 -129 8 -367z" />
    <glyph glyph-name="uni0429" unicode="&#x429;" horiz-adv-x="1808" 
d="M1741 139l-31 -489h-143l4 350h-1424q9 141 9 346v686q0 259 -11 371h174q-8 -140 -8 -369v-895h496v893q0 280 -6 371h172q-8 -93 -8 -369v-895h495v897q0 265 -10 367h176q-10 -153 -10 -367v-669q0 -152 2 -228h123z" />
    <glyph glyph-name="uni042A" unicode="&#x42a;" horiz-adv-x="1304" 
d="M311 1403h277q-6 -91 -6 -365v-118h157q147 0 255 -63t161 -166t53 -230q0 -124 -57.5 -229t-166.5 -168.5t-247 -63.5h-331q10 105 10 367v667q0 160 -2 232h-103q-181 0 -272 -9v152q92 -6 272 -6zM582 780v-641h137q137 0 227 94t90 226q0 137 -86 229t-231 92h-137z
" />
    <glyph glyph-name="uni042B" unicode="&#x42b;" horiz-adv-x="1406" 
d="M147 1403h177q-9 -137 -9 -365v-118h154q147 0 255 -63t161 -166t53 -230q0 -124 -57.5 -229t-166.5 -168.5t-247 -63.5h-322q11 116 11 367v667q0 232 -9 369zM315 780v-641h131q136 0 227 94.5t91 225.5q0 137 -86.5 229t-231.5 92h-131zM1251 1036v-669q0 -225 9 -367
h-175q7 110 7 367v669q0 260 -7 367h175q-9 -137 -9 -367z" />
    <glyph glyph-name="uni042C" unicode="&#x42c;" horiz-adv-x="1075" 
d="M147 1403h183q-8 -122 -8 -365v-118h190q147 0 255 -63t161 -166t53 -230q0 -125 -55.5 -229t-164.5 -168t-251 -64h-365q11 116 11 367v667q0 232 -9 369zM322 780v-641h165q136 0 228 94.5t92 225.5q0 136 -88 228.5t-232 92.5h-165z" />
    <glyph glyph-name="uni042D" unicode="&#x42d;" horiz-adv-x="1308" 
d="M1040 651h-426q-256 0 -348 -6v154q91 -6 348 -6h426q-21 203 -176.5 343t-380.5 140q-228 0 -364 -119v189q101 37 184 55t186 18q215 0 382 -97t255 -259.5t88 -360.5q0 -203 -89.5 -365.5t-255.5 -256.5t-380 -94q-100 0 -183.5 17.5t-196.5 53.5v189
q146 -117 374 -117q150 0 275.5 70t199.5 189.5t82 262.5z" />
    <glyph glyph-name="uni042E" unicode="&#x42e;" horiz-adv-x="1974" 
d="M322 1036v-270h219q14 181 103.5 330t237 236t322.5 87q188 0 343 -96.5t243 -261t88 -359.5t-88 -359.5t-243 -260.5t-343 -96q-130 0 -247.5 50t-204 135.5t-142 203.5t-67.5 252h-221v-260q0 -178 6 -367h-183q11 116 11 367v669q0 255 -11 367h183q-6 -183 -6 -367z
M709 702q0 -117 38 -223t103.5 -183t158 -122t195.5 -45q141 0 256.5 77t180.5 208t65 288t-65 288.5t-180.5 208.5t-256.5 77q-138 0 -252 -77t-178.5 -208.5t-64.5 -288.5z" />
    <glyph glyph-name="uni042F" unicode="&#x42f;" horiz-adv-x="1095" 
d="M774 354v228h-112q-58 0 -89 4q-62 -89 -190.5 -303t-179.5 -283h-203q76 85 222.5 313t197.5 299q-37 14 -71 32.5t-70 51t-62 72.5t-42.5 98.5t-16.5 126.5q0 184 124 297t349 113h319q-10 -102 -10 -367v-682q0 -249 10 -354h-186q10 79 10 354zM774 707v563h-147
q-72 0 -130.5 -23.5t-95 -62.5t-56 -88t-19.5 -103q0 -125 84.5 -205.5t210.5 -80.5h153z" />
    <glyph glyph-name="uni0430" unicode="&#x430;" horiz-adv-x="919" 
d="M379 809q-139 0 -229 -94v159q18 3 59.5 19.5t93.5 29.5t111 13q179 0 265.5 -100.5t86.5 -307.5v-346q0 -80 53 -80q31 0 45 11v-101q-52 -35 -121 -35q-48 0 -80.5 27.5t-39.5 81.5q-35 -52 -98 -80.5t-136 -28.5q-142 0 -224.5 74.5t-82.5 192.5q0 119 84 197.5
t233 78.5q71 0 132 -26.5t85 -65.5v117q0 118 -57 191t-180 73zM240 252q0 -72 50.5 -118t141.5 -46q78 0 133.5 47.5t55.5 116.5q0 65 -55.5 112.5t-133.5 47.5q-90 0 -141 -46t-51 -114z" />
    <glyph glyph-name="uni0431" unicode="&#x431;" horiz-adv-x="1079" 
d="M961 1442v-156q-30 -10 -74 -21t-75.5 -17.5t-98.5 -19t-95 -18.5q-195 -42 -294 -174t-111 -381q35 102 128.5 166t219.5 64q184 0 309 -125.5t125 -310.5q0 -196 -124.5 -329.5t-309.5 -133.5q-59 0 -113.5 13t-108.5 40.5t-98 76t-78.5 114t-53.5 160t-19 208.5
q0 309 133 503t385 257q41 10 117.5 25.5t133.5 29t102 29.5zM250 459q0 -138 91 -237t218 -99q117 0 201 94.5t84 228.5q0 124 -88 211.5t-211 87.5q-122 0 -208.5 -84t-86.5 -202z" />
    <glyph glyph-name="uni0432" unicode="&#x432;" horiz-adv-x="905" 
d="M475 0h-334q9 92 9 238v411q0 25 -1.5 84.5t-1.5 87.5h-92q40 54 58 99h364q153 0 230 -60.5t77 -167.5q0 -71 -41.5 -123.5t-99.5 -66.5q84 -26 129 -86.5t45 -145.5q0 -124 -90.5 -197t-251.5 -73zM659 274q0 69 -45 112.5t-116 43.5h-197v-317h166q87 0 139.5 44
t52.5 117zM301 807v-272h180q55 0 102.5 39t47.5 100q0 62 -41.5 97.5t-122.5 35.5h-166z" />
    <glyph glyph-name="uni0433" unicode="&#x433;" horiz-adv-x="737" 
d="M141 0q9 137 9 336v223q0 72 -5 262h-92q40 54 58 99h325q203 0 266 6v-148q-95 6 -266 6h-129v-448q0 -214 8 -336h-174z" />
    <glyph glyph-name="uni0434" unicode="&#x434;" horiz-adv-x="1134" 
d="M1083 133l-32 -442h-131l16 309h-737l8 -309h-131l-25 442q47 -6 129 -6l297 709q16 43 0 84h141l336 -793q92 0 129 6zM784 127l-233 590l-236 -590h469z" />
    <glyph glyph-name="uni0435" unicode="&#x435;" horiz-adv-x="1015" 
d="M934 469h-690q-3 -93 37 -174t116.5 -131.5t173.5 -50.5q90 0 154 16t129 59v-151q-23 -3 -67 -17t-103.5 -25t-136.5 -11q-201 0 -334 136t-133 337q0 205 125.5 341t308.5 136q82 0 153.5 -29t120 -74.5t83.5 -103t51 -115t16 -108.5q0 -23 -4 -35zM514 815
q-98 0 -169 -65.5t-97 -167.5h522q-10 87 -81.5 160t-174.5 73z" />
    <glyph glyph-name="uni0436" unicode="&#x436;" horiz-adv-x="1290" 
d="M311 782l178 -256h82v148q0 164 -4 246h162q-6 -62 -6 -246v-148h82l182 267q32 42 84 127h170v-2q-46 -46 -135 -173l-191 -270l222 -299q79 -105 153 -176h-198q-11 26 -82 131l-207 293h-80v-176q0 -186 6 -248h-162q4 86 4 248v176h-79l-216 -299q-54 -72 -83 -125
h-193q58 54 143 166l234 307l-184 262q-97 137 -150 185h178q38 -71 90 -138z" />
    <glyph glyph-name="uni0437" unicode="&#x437;" horiz-adv-x="825" 
d="M360 420q-101 0 -143 -10v131q38 -9 129 -9q95 0 153 39.5t58 108.5q0 61 -50 101t-142 40q-79 0 -147.5 -27t-100.5 -63v143q17 3 52.5 19t88 29.5t123.5 13.5q151 0 240.5 -71t89.5 -181q0 -73 -47 -127.5t-117 -81.5q76 -24 131 -79t55 -140q0 -124 -94 -198t-238 -74
q-77 0 -136 13t-118.5 38t-62.5 26v142h2q116 -97 283 -97q97 0 153 45.5t56 116.5q0 69 -58 110.5t-160 41.5z" />
    <glyph glyph-name="uni0438" unicode="&#x438;" horiz-adv-x="1030" 
d="M741 195v440l-376 -465q-137 -172 -160 -203h-64q9 120 9 205v506q0 20 -5 143h-86q40 54 58 99h186q-6 -85 -6 -242v-430l393 481q95 119 154 207h51q-6 -108 -6 -260v-479q0 -141 6 -197h-158q4 74 4 195z" />
    <glyph glyph-name="uni0439" unicode="&#x439;" horiz-adv-x="1030" 
d="M741 195v440l-376 -465q-137 -172 -160 -203h-64q9 120 9 205v506q0 20 -5 143h-86q40 54 58 99h186q-6 -85 -6 -242v-430l393 481q95 119 154 207h51q-6 -108 -6 -260v-479q0 -141 6 -197h-158q4 74 4 195zM369 1290q0 -64 47.5 -106.5t115.5 -42.5q69 0 117.5 42.5
t48.5 106.5h119q0 -106 -83.5 -180t-203.5 -74q-117 0 -198.5 74t-81.5 180h119z" />
    <glyph glyph-name="uni043A" unicode="&#x43a;" horiz-adv-x="899" 
d="M150 248v426q0 79 -3 147h-94q40 54 58 99h202q-6 -123 -6 -246v-148h39l223 267q64 71 101 127h186q-70 -63 -164 -172l-217 -263l262 -313q76 -90 164 -172h-207q-63 87 -98 125l-252 299h-37v-176q0 -186 6 -248h-170q7 75 7 248z" />
    <glyph glyph-name="uni043B" unicode="&#x43b;" horiz-adv-x="925" 
d="M676 166l-225 532l-220 -532q-35 -79 -59 -166h-172q40 66 94 201l273 626q22 49 6 93h137l315 -719q72 -157 101 -201h-191q-23 81 -59 166z" />
    <glyph glyph-name="uni043C" unicode="&#x43c;" horiz-adv-x="1210" 
d="M926 932h90l80 -686q16 -155 32 -246h-165q0 48 -15 209l-43 420l-282 -645h-41l-287 645l-49 -412q-23 -198 -23 -217h-155q37 199 43 246l96 686h92l313 -713z" />
    <glyph glyph-name="uni043D" unicode="&#x43d;" horiz-adv-x="1042" 
d="M301 682v-133h451v133q0 142 -7 238h164q-6 -85 -6 -238v-489q0 -82 6 -193h-164q7 65 7 193v243h-451v-243q0 -119 4 -193h-162q7 130 7 193v489q0 23 -1.5 70.5t-1.5 68.5h-92q40 54 58 99h192q0 -12 -2 -98.5t-2 -139.5z" />
    <glyph glyph-name="uni043E" unicode="&#x43e;" horiz-adv-x="1107" 
d="M80 459q0 97 37.5 185.5t101 152.5t151 101.5t183.5 37.5q97 0 184.5 -37.5t151.5 -101.5t101.5 -152.5t37.5 -185.5q0 -96 -37.5 -184t-101.5 -151t-151.5 -100.5t-184.5 -37.5q-195 0 -334 138.5t-139 334.5zM233 459q0 -139 93 -236.5t227 -97.5q133 0 227 98t94 236
q0 140 -94 239t-227 99t-226.5 -99t-93.5 -239z" />
    <glyph glyph-name="uni043F" unicode="&#x43f;" horiz-adv-x="1021" 
d="M147 242v415v164h-94q40 54 58 99h782q-6 -129 -6 -218v-460q0 -180 6 -242h-168q2 22 2 246v540h-420v-544q0 -164 4 -242h-168q0 13 2 100.5t2 141.5z" />
    <glyph glyph-name="uni0440" unicode="&#x440;" horiz-adv-x="1179" 
d="M147 -307v1128h-94q31 39 58 99h196v-193q55 98 143.5 153.5t198.5 55.5q124 0 228.5 -64t163.5 -173t59 -236q0 -200 -132.5 -338.5t-322.5 -138.5q-110 0 -200 48t-138 140v-481q0 -132 8 -211h-174q6 89 6 211zM301 459q0 -140 93.5 -240t223.5 -100q131 0 225.5 100
t94.5 240q0 141 -95 241.5t-229 100.5q-129 0 -221 -100.5t-92 -241.5z" />
    <glyph glyph-name="uni0441" unicode="&#x441;" horiz-adv-x="858" 
d="M236 457q0 -138 94 -236t227 -98q75 0 124.5 15.5t88.5 49.5v-178q-23 -3 -61.5 -9.5t-75 -10.5t-80.5 -4q-201 0 -338 137.5t-137 333.5q0 201 137 340t338 139q51 0 120 -12t93 -13v-178q-86 64 -209 64q-134 0 -227.5 -100t-93.5 -240z" />
    <glyph glyph-name="uni0442" unicode="&#x442;" horiz-adv-x="851" 
d="M256 920h340q137 0 219 4v-142q-82 4 -219 4h-92v-542q0 -186 6 -244h-170q6 117 6 244v542h-90q-141 0 -219 -4v142q78 -4 219 -4z" />
    <glyph glyph-name="uni0443" unicode="&#x443;" horiz-adv-x="940" 
d="M264 -391q-46 -75 -95 -106t-116 -31q-27 0 -51 6q55 67 129 178q3 4 43 66t50.5 79t45 71.5t52.5 85t44.5 76t47.5 85.5l-299 592q-72 137 -113 209h193q18 -58 67 -158l236 -467q111 235 198 453q41 105 62 172h182q-24 -43 -100 -218q-171 -394 -279 -591
q-84 -163 -297 -502z" />
    <glyph glyph-name="uni0444" unicode="&#x444;" horiz-adv-x="1288" 
d="M565 -211v203q-229 20 -357 146.5t-128 320.5q0 193 128.5 323t356.5 150v299h-94q29 42 57 100h199q-6 -61 -6 -178v-221q230 -20 359.5 -150t129.5 -323q0 -195 -129.5 -322t-359.5 -145v-203q0 -150 8 -213h-170q6 71 6 213zM1053 459q0 144 -85.5 239t-246.5 115
v-709q161 18 246.5 114.5t85.5 240.5zM236 459q0 -142 84.5 -238t244.5 -117v709q-161 -21 -245 -116.5t-84 -237.5z" />
    <glyph glyph-name="uni0445" unicode="&#x445;" horiz-adv-x="802" 
d="M532 133l-133 213l-88 -141q-76 -119 -114 -205h-191q66 86 152 221l155 238l-159 254q-63 108 -138 207h195q36 -77 88 -168l109 -177l110 179q60 96 92 166h185q-71 -92 -146 -207l-155 -250l151 -242q91 -146 156 -221h-195q-36 73 -74 133z" />
    <glyph glyph-name="uni0446" unicode="&#x446;" horiz-adv-x="1060" 
d="M842 -309l4 309h-705q6 64 6 207v614h-90q40 54 58 99h196q-4 -47 -4 -244v-543h412v545q0 181 -6 242h170q-6 -123 -6 -242v-553h118l-24 -434h-129z" />
    <glyph glyph-name="uni0447" unicode="&#x447;" horiz-adv-x="923" 
d="M258 653q0 -93 48 -142.5t138 -49.5q89 0 177 37v223q0 110 -7 199h170q-6 -77 -6 -199v-488q0 -135 8 -233h-172q7 82 7 225v150q-115 -43 -224 -43q-141 0 -220 77t-79 224v94q0 61 -2 94h-88q40 54 58 99h196q-4 -68 -4 -193v-74z" />
    <glyph glyph-name="uni0448" unicode="&#x448;" horiz-adv-x="1372" 
d="M1239 0h-1094q5 148 5 268v416q0 22 -1.5 67.5t-1.5 69.5h-94q40 54 58 99h196q-4 -156 -4 -242v-553h309l2 553q0 181 -6 242h164q-4 -47 -4 -242v-553h311v555q0 179 -6 240h164q-4 -82 -4 -240v-401q0 -201 6 -279z" />
    <glyph glyph-name="uni0449" unicode="&#x449;" horiz-adv-x="1415" 
d="M1198 -309l4 309h-1057q5 148 5 268v416q0 22 -1.5 67.5t-1.5 69.5h-94q40 54 58 99h196q-4 -156 -4 -242v-553h309l2 553q0 181 -6 242h164q-4 -47 -4 -242v-553h311v555q0 179 -6 240h164q-4 -82 -4 -240v-401v-154h119l-25 -434h-129z" />
    <glyph glyph-name="uni044A" unicode="&#x44a;" horiz-adv-x="1007" 
d="M596 0h-309q6 62 6 231v445v110l-256 -6v144q200 -4 305 -4h113q-6 -114 -6 -244v-51h155q155 0 247.5 -90.5t92.5 -223.5q0 -134 -92.5 -222.5t-255.5 -88.5zM786 309q0 86 -56 145.5t-159 59.5h-122v-403h133q99 0 151.5 56.5t52.5 141.5z" />
    <glyph glyph-name="uni044B" unicode="&#x44b;" horiz-adv-x="1167" 
d="M410 0h-275q6 62 6 231v445q0 168 -4 244h162q-6 -120 -6 -244v-51h125q154 0 247 -89.5t93 -224.5q0 -134 -93.5 -222.5t-254.5 -88.5zM600 311q0 82 -56 142.5t-155 60.5h-96v-403h100q99 0 153 57.5t54 142.5zM1026 709v-498q0 -149 6 -211h-164q6 68 6 211v498
q0 141 -6 211h164q-6 -70 -6 -211z" />
    <glyph glyph-name="uni044C" unicode="&#x44c;" horiz-adv-x="870" 
d="M457 0h-322q6 62 6 231v445q0 168 -4 244h166q-6 -120 -6 -238v-57h156q162 0 257 -89.5t95 -222.5q0 -135 -94 -224t-254 -89zM647 309q0 85 -58.5 145t-162.5 60h-129v-403h139q103 0 157 55.5t54 142.5z" />
    <glyph glyph-name="uni044D" unicode="&#x44d;" horiz-adv-x="905" 
d="M647 410h-227q-182 0 -225 -4v135q64 -6 225 -6h229q-4 48 -25.5 95t-57 86t-91.5 63t-121 24q-167 0 -254 -78v168q21 4 68 17t90 19.5t102 6.5q202 0 334.5 -134.5t132.5 -340.5t-131 -340.5t-336 -134.5q-53 0 -95 6.5t-97 20.5t-74 18v168q95 -82 260 -82
q126 0 208 85t85 208z" />
    <glyph glyph-name="uni044E" unicode="&#x44e;" horiz-adv-x="1464" 
d="M307 686v-174h195q14 184 136 304t298 120q190 0 318 -137.5t128 -335.5q0 -130 -57.5 -239t-160.5 -173.5t-228 -64.5q-172 0 -293 116.5t-141 298.5h-195v-165q0 -119 6 -236h-170q0 13 2 99.5t2 136.5v450q0 22 -1 68t-1 67h-92q34 40 58 99h202q-6 -117 -6 -234z
M647 461q0 -144 82 -244t207 -100q126 0 208.5 100t82.5 244q0 143 -82.5 243.5t-208.5 100.5q-124 0 -206.5 -100.5t-82.5 -243.5z" />
    </font>
</defs>
</svg>
