<svg width="38" height="38" viewBox="0 0 38 38" fill="none" xmlns="http://www.w3.org/2000/svg">
<rect width="38" height="38" fill="#B6391E"/>
<path d="M20.6459 19L25.6626 13.995C25.8823 13.7753 26.0057 13.4773 26.0057 13.1667C26.0057 12.856 25.8823 12.558 25.6626 12.3383C25.4429 12.1186 25.1449 11.9952 24.8342 11.9952C24.5236 11.9952 24.2256 12.1186 24.0059 12.3383L19.0009 17.355L13.9959 12.3383C13.7762 12.1186 13.4783 11.9952 13.1676 11.9952C12.8569 11.9952 12.5589 12.1186 12.3392 12.3383C12.1196 12.558 11.9961 12.856 11.9961 13.1667C11.9961 13.4773 12.1196 13.7753 12.3392 13.995L17.3559 19L12.3392 24.005C12.2299 24.1134 12.1431 24.2425 12.0839 24.3846C12.0246 24.5268 11.9941 24.6793 11.9941 24.8333C11.9941 24.9873 12.0246 25.1398 12.0839 25.282C12.1431 25.4242 12.2299 25.5532 12.3392 25.6617C12.4477 25.771 12.5767 25.8578 12.7189 25.917C12.8611 25.9763 13.0136 26.0068 13.1676 26.0068C13.3216 26.0068 13.4741 25.9763 13.6162 25.917C13.7584 25.8578 13.8874 25.771 13.9959 25.6617L19.0009 20.645L24.0059 25.6617C24.1144 25.771 24.2434 25.8578 24.3856 25.917C24.5277 25.9763 24.6802 26.0068 24.8342 26.0068C24.9883 26.0068 25.1407 25.9763 25.2829 25.917C25.4251 25.8578 25.5541 25.771 25.6626 25.6617C25.7719 25.5532 25.8587 25.4242 25.9179 25.282C25.9772 25.1398 26.0077 24.9873 26.0077 24.8333C26.0077 24.6793 25.9772 24.5268 25.9179 24.3846C25.8587 24.2425 25.7719 24.1134 25.6626 24.005L20.6459 19Z" fill="white"/>
</svg>
