<svg width="344" height="56" viewBox="0 0 344 56" fill="none" xmlns="http://www.w3.org/2000/svg">
<g clip-path="url(#clip0_3_28)">
<path d="M31.1993 12.9581C26.907 12.9581 24.1837 14.2528 21.5508 15.5053C19.1346 16.6541 16.854 17.7402 13.2805 17.7402C10.5244 17.7402 8.55996 17.1093 6.45899 16.1619C5.99896 15.9544 5.54303 15.7375 5.07375 15.5146C4.95669 15.4591 4.83552 15.4036 4.7164 15.3481L4.71948 29.7982C4.71948 43.5094 21.3557 47.6976 21.3557 47.6976C21.3557 47.6976 37.994 43.5094 37.994 29.7982V14.2209C36.1241 13.4996 33.9954 12.9581 31.1993 12.9581ZM33.825 29.7982C33.825 33.9411 31.7106 37.4738 27.5426 40.2984C25.1459 41.9219 22.6824 42.8868 21.3485 43.3399C18.2012 42.2846 8.88753 38.4335 8.88753 29.7971L8.8865 21.9561C10.1958 22.3579 11.5882 22.5973 13.2805 22.5973C16.8529 22.5973 19.1346 21.5122 21.5508 20.3635C24.1837 19.1109 26.907 17.8152 31.1993 17.8152C32.1471 17.8152 33.0148 17.8799 33.825 17.9909V29.7982Z" fill="white"/>
<path d="M33.8249 3.47818C33.0086 3.36618 32.1337 3.30042 31.1767 3.30042C26.8844 3.30042 24.1621 4.59407 21.5272 5.84764C19.112 6.99642 16.8313 8.08148 13.2578 8.08148C11.5604 8.08148 10.1557 7.83076 8.88648 7.44442C7.51767 7.02827 6.30597 6.45388 5.06038 5.861C4.9464 5.80654 4.83242 5.75208 4.71741 5.69865L4.71843 10.5743C4.83242 10.6287 4.9464 10.6832 5.06038 10.7366C6.307 11.3295 7.51767 11.9039 8.88751 12.321C10.1567 12.7064 11.5604 12.9581 13.2578 12.9581C16.8313 12.9581 19.112 11.873 21.5272 10.7232C24.1621 9.47069 26.8844 8.17601 31.1767 8.17601C32.1337 8.17601 33.0086 8.24177 33.8249 8.3548C35.4053 8.57161 36.7577 8.96926 37.994 9.44808V4.57146C36.7577 4.09366 35.4053 3.69498 33.8249 3.47818Z" fill="white"/>
<path d="M51.1348 25.9408C51.5877 26.1268 52.2685 26.2501 52.8651 26.2501C53.6065 26.2501 54.2236 25.8997 54.7597 25.199L49.3655 14.4871H52.2675L56.1788 22.2325L59.6188 14.1562L62.2332 14.8364L57.868 24.6636C56.8801 26.9088 55.4169 28.6813 52.9893 28.6813C52.248 28.6813 51.6082 28.5775 51.1348 28.372V25.9408Z" fill="white"/>
<path d="M63.4048 17.5347H69.7047L72.4023 17.2665V27.8356H69.7047V19.8425H66.1014V27.8356H63.4048V17.5347Z" fill="white"/>
<path d="M75.2036 17.4319H76.1503L76.9328 18.07C77.591 17.6375 78.6014 17.2049 79.8152 17.2049C82.6165 17.2049 84.6743 19.0595 84.6743 22.1082C84.6743 25.4456 81.7919 27.9805 77.9001 28.1449V30.8226H75.2036V17.4319ZM77.9001 20.048V25.8792C80.494 25.7138 81.9768 24.0656 81.9768 22.1082C81.9768 20.419 80.7209 19.5743 79.5267 19.5743C78.8469 19.5743 78.2708 19.8014 77.9001 20.048Z" fill="white"/>
<path d="M87.5177 17.5963C87.5177 17.5963 88.6504 17.1843 90.0079 17.1843C93.2405 17.1843 94.5795 18.6465 94.5795 21.428V27.9589H93.8781L92.5401 27.1759C91.9025 27.6907 90.8109 28.1654 89.7604 28.1654C87.5578 28.1654 86.2188 27.0732 86.2188 25.239C86.2188 22.5819 88.979 21.5934 91.9025 21.4074C91.8809 20.1508 91.0584 19.5332 89.8025 19.5332C88.7726 19.5332 87.4962 19.9658 87.4962 19.9658L87.5177 17.5963ZM90.1116 25.9408C90.8314 25.9408 91.5318 25.6316 91.9025 25.385V23.0771C90.4813 23.222 88.8958 23.6947 88.8958 24.7869C88.8958 25.4877 89.3281 25.9408 90.1116 25.9408Z" fill="white"/>
<path d="M97.3633 19.5949L96.972 17.5347H101.501C104.076 17.5347 105.743 18.5859 105.743 20.1302C105.743 21.1403 105.187 21.8616 104.528 22.3147C105.577 22.624 106.421 23.2837 106.421 24.3955C106.421 26.6622 104.239 27.8356 101.398 27.8356H97.3623V19.5949H97.3633ZM100.061 19.5949V21.5934H102.572C102.819 21.3879 103.045 21.0375 103.045 20.5844C103.045 19.9463 102.53 19.5949 101.501 19.5949H100.061ZM100.061 23.4892V25.7765H101.439C102.861 25.7765 103.726 25.2401 103.726 24.4777C103.726 23.818 103.148 23.4892 102.45 23.4892H100.061Z" fill="white"/>
<path d="M109.795 17.5347H115.107L117.783 17.2665V27.8356H115.107V19.8631L114.036 19.8836L113.232 22.7062C112.637 24.8281 111.503 26.7444 109.547 28.2682L107.675 26.4145C108.992 25.4456 110.35 23.5303 110.782 22.0065L111.379 19.9042H109.795V17.5347Z" fill="white"/>
<path d="M119.861 17.7412L124.063 17.2254V27.8367H121.365V19.7192H119.861V17.7412ZM121.755 12.4464L124.598 12.7968L124.124 15.6194L121.467 15.8876L121.755 12.4464Z" fill="white"/>
<path d="M126.846 17.5347H129.543V21.3663H133.352V17.5347L136.049 17.2665V27.8356H133.352V23.6752H129.543V27.8356H126.846V17.5347Z" fill="white"/>
<path d="M138.852 17.5347H141.547V21.3663H145.358V17.5347L148.053 17.2665V27.8356H145.358V23.6752H141.547V27.8356H138.852V17.5347Z" fill="white"/>
<path d="M152.484 23.9218C151.577 23.407 150.837 22.5624 150.837 21.4907C150.837 19.1212 152.897 17.5347 156.478 17.5347H159.875L159.423 19.7192V27.8366H156.726V24.7459H154.913L152.32 28.2281L150.179 26.8482L152.484 23.9218ZM155.058 22.6446H156.725V19.7182H156.519C154.606 19.7182 153.595 20.2546 153.595 21.2636C153.595 22.1709 154.316 22.6446 155.058 22.6446Z" fill="white"/>
<path d="M169.797 21.5934H172.063C172.308 21.4896 172.762 21.0992 172.762 20.5433C172.762 19.9874 172.33 19.5332 170.951 19.5332C169.591 19.5332 168.358 20.0696 168.335 20.0696V17.7618C168.335 17.7618 169.488 17.2049 171.279 17.2049C174.204 17.2049 175.439 18.4009 175.439 20.1302C175.439 21.0786 174.861 21.7794 174.223 22.212C175.273 22.5613 176.056 23.221 176.056 24.3955C176.056 26.6211 173.996 28.1655 171.094 28.1655C169.899 28.1655 169.015 28.0216 168.108 27.6712V25.3839C168.912 25.611 169.735 25.8371 171.033 25.8371C172.557 25.8371 173.379 25.199 173.379 24.4777C173.379 23.818 172.802 23.4892 172.104 23.4892H169.528L169.797 21.5934Z" fill="white"/>
<path d="M184.62 17.5347H190.92L193.618 17.2665V27.8356H190.92V19.8425H187.317V27.8356H184.62V17.5347Z" fill="white"/>
<path d="M196.418 17.5347H199.115V24.0451L199.095 24.1489L203.686 17.5347H206.528L206.24 19.1417V27.8356H203.542V21.5523L198.972 28.1665L196.418 27.6301V17.5347Z" fill="white"/>
<path d="M208.219 17.5347H217.155L216.66 19.8425H213.963V27.8356H211.288V19.8425H208.219V17.5347Z" fill="white"/>
<path d="M219.327 17.5963C219.327 17.5963 220.46 17.1843 221.817 17.1843C225.05 17.1843 226.389 18.6465 226.389 21.428V27.9589H225.688L224.35 27.1759C223.712 27.6907 222.62 28.1654 221.57 28.1654C219.367 28.1654 218.028 27.0732 218.028 25.239C218.028 22.5819 220.788 21.5934 223.712 21.4074C223.69 20.1508 222.868 19.5332 221.611 19.5332C220.582 19.5332 219.306 19.9658 219.306 19.9658L219.327 17.5963ZM221.921 25.9408C222.641 25.9408 223.341 25.6316 223.712 25.385V23.0771C222.291 23.222 220.705 23.6947 220.705 24.7869C220.706 25.4877 221.139 25.9408 221.921 25.9408Z" fill="white"/>
<path d="M229.121 17.5347H231.819V21.3663H235.628V17.5347L238.325 17.2665V27.8356H235.628V23.6752H231.819V27.8356H229.121V17.5347Z" fill="white"/>
<path d="M241.235 25.7754V17.5347H243.933V20.9748H245.971C248.338 20.9748 250.067 22.0466 250.067 23.9423C250.067 26.2286 248.05 27.8356 244.199 27.8356H240.843L241.235 25.7754ZM245.847 22.9939H243.933V25.7754H244.242C246.569 25.7754 247.371 24.9308 247.371 24.1478C247.37 23.5293 246.814 23.035 245.847 22.9939Z" fill="white"/>
<path d="M263.574 17.2059C267.031 17.2059 268.822 19.6781 268.822 22.3147C268.822 25.5494 266.846 28.1665 263.366 28.1665C259.886 28.1665 258.096 25.6942 258.096 23.0566C258.097 19.8219 260.093 17.2059 263.574 17.2059ZM260.773 22.8922C260.773 24.3954 261.616 25.7764 263.366 25.7764C265.239 25.7764 266.146 24.4982 266.146 22.4801C266.146 20.9759 265.302 19.5949 263.573 19.5949C261.678 19.5949 260.773 20.8721 260.773 22.8922Z" fill="white"/>
<path d="M273.493 22.4791L270.097 17.5347H273.083L275.348 20.8104L278.27 17.1442L280.206 18.6054L276.706 22.7884L280.206 27.8356H277.18L274.873 24.4766L271.805 28.2065L269.746 26.7433L273.493 22.4791Z" fill="white"/>
<path d="M286.82 17.2059C290.278 17.2059 292.068 19.6781 292.068 22.3147C292.068 25.5494 290.093 28.1665 286.613 28.1665C283.133 28.1665 281.342 25.6942 281.342 23.0566C281.343 19.8219 283.34 17.2059 286.82 17.2059ZM284.02 22.8922C284.02 24.3954 284.863 25.7764 286.614 25.7764C288.487 25.7764 289.393 24.4982 289.393 22.4801C289.393 20.9759 288.549 19.5949 286.82 19.5949C284.925 19.5949 284.02 20.8721 284.02 22.8922Z" fill="white"/>
<path d="M294.347 17.4319H295.294L296.077 18.07C296.735 17.6375 297.744 17.2049 298.96 17.2049C301.76 17.2049 303.819 19.0595 303.819 22.1082C303.819 25.4456 300.935 27.9805 297.043 28.1449V30.8226H294.347V17.4319ZM297.042 20.048V25.8792C299.635 25.7138 301.12 24.0656 301.12 22.1082C301.12 20.419 299.863 19.5743 298.669 19.5743C297.989 19.5743 297.414 19.8014 297.042 20.048Z" fill="white"/>
<path d="M311.048 17.2059C314.505 17.2059 316.296 19.6781 316.296 22.3147C316.296 25.5494 314.321 28.1665 310.84 28.1665C307.36 28.1665 305.57 25.6942 305.57 23.0566C305.571 19.8219 307.568 17.2059 311.048 17.2059ZM308.248 22.8922C308.248 24.3954 309.091 25.7764 310.842 25.7764C312.715 25.7764 313.621 24.4982 313.621 22.4801C313.621 20.9759 312.777 19.5949 311.048 19.5949C309.152 19.5949 308.248 20.8721 308.248 22.8922Z" fill="white"/>
<path d="M318.573 17.5347H321.27V21.3663H325.079V17.5347L327.777 17.2665V27.8356H325.079V23.6752H321.27V27.8356H318.573V17.5347Z" fill="white"/>
<path d="M330.579 17.5347H333.274V24.0451L333.254 24.1489L337.847 17.5347H340.686L340.399 19.1417V27.8356H337.701V21.5523L333.131 28.1665L330.579 27.6301V17.5347Z" fill="white"/>
<path d="M52.8641 42.4881V47.3709H50.1675V37.0699H52.8641V42.0144L57.4552 36.7401L59.3703 38.0584L55.6859 42.0555L60.1939 47.3709H57.105L52.8641 42.4881Z" fill="white"/>
<path d="M64.0867 46.3619L61.0605 37.07H63.8803L66.0018 43.8896L66.0418 43.7869C67.4004 41.8706 68.0802 39.5422 68.0802 37.9362C68.0802 37.6885 68.0586 37.4409 68.0186 37.2354L70.7161 36.7607C70.7777 37.1111 70.7983 37.482 70.7983 37.8735C70.7983 39.9964 69.7067 42.6124 67.9559 45.1052L64.1267 50.6066L61.6746 49.5554L64.0867 46.3619Z" fill="white"/>
<path d="M73.2525 37.07H78.5645L81.2405 36.8018V47.3709H78.5645V39.3983L77.4935 39.4189L76.6904 42.2415C76.0949 44.3633 74.9612 46.2797 73.005 47.8035L71.1331 45.9498C72.4495 44.9809 73.808 43.0656 74.2403 41.5417L74.837 39.4394H73.2525V37.07Z" fill="white"/>
<path d="M84.1609 45.3107V37.0699H86.8584V40.5101H88.8968C91.2637 40.5101 92.9929 41.5818 92.9929 43.4776C92.9929 45.7638 90.9752 47.3709 87.1244 47.3709H83.7686L84.1609 45.3107ZM88.7725 42.5292H86.8584V45.3107H87.1675C89.4944 45.3107 90.2964 44.4661 90.2964 43.6831C90.2964 43.0645 89.7409 42.5703 88.7725 42.5292Z" fill="white"/>
<path d="M93.3513 37.0699H102.287L101.792 39.3778H99.0966V47.3709H96.4186V39.3778H93.3513V37.0699Z" fill="white"/>
<path d="M106.762 46.3619L103.736 37.07H106.558L108.677 43.8896L108.717 43.7869C110.077 41.8706 110.757 39.5422 110.757 37.9362C110.757 37.6885 110.735 37.4409 110.694 37.2354L113.392 36.7607C113.454 37.1111 113.474 37.482 113.474 37.8735C113.474 39.9964 112.382 42.6124 110.631 45.1052L106.802 50.6066L104.351 49.5554L106.762 46.3619Z" fill="white"/>
<path d="M115.38 36.9672H116.326L117.109 37.6053C117.767 37.1727 118.778 36.7401 119.991 36.7401C122.793 36.7401 124.85 38.5948 124.85 41.6434C124.85 44.9808 121.968 47.5157 118.076 47.6801V50.3579H115.38V36.9672ZM118.076 39.5833V45.4145C120.67 45.249 122.153 43.6009 122.153 41.6434C122.153 39.9542 120.897 39.1096 119.703 39.1096C119.023 39.1096 118.447 39.3367 118.076 39.5833Z" fill="white"/>
<path d="M127.092 37.07H129.789V40.9016H133.598V37.07L136.295 36.8018V47.3709H133.598V43.2104H129.789V47.3709H127.092V37.07Z" fill="white"/>
<path d="M144.048 36.7401C147.505 36.7401 149.296 39.2123 149.296 41.849C149.296 45.0836 147.32 47.7007 143.84 47.7007C140.36 47.7007 138.57 45.2285 138.57 42.5908C138.571 39.3572 140.569 36.7401 144.048 36.7401ZM141.248 42.4274C141.248 43.9307 142.092 45.3117 143.841 45.3117C145.715 45.3117 146.621 44.0335 146.621 42.0154C146.621 40.5111 145.777 39.1301 144.048 39.1301C142.153 39.1301 141.248 40.4073 141.248 42.4274Z" fill="white"/>
<path d="M150.678 37.2754L154.878 36.6363V47.3709H152.18V39.2534H150.678V37.2754ZM150.802 32.5375H153.376L153.191 35.2368L150.802 35.6489V32.5375ZM154.549 32.5375L157.123 32.7235L156.649 35.2368L154.261 35.4423L154.549 32.5375Z" fill="white"/>
<path d="M169.228 45.4145C170.072 45.4145 170.628 45.3107 171.225 45.0641V47.3298C170.773 47.5353 169.969 47.7017 169.021 47.7017C165.335 47.7017 163.441 45.4145 163.441 42.633C163.441 39.3562 166.426 36.7411 171.224 36.7411V39.0479C168.259 39.0479 166.118 40.4906 166.118 42.633C166.119 44.0335 167.025 45.4145 169.228 45.4145Z" fill="white"/>
<path d="M173.587 37.07H179.886L182.584 36.8018V47.3709H179.886V39.3778H176.282V47.3709H173.587V37.07Z" fill="white"/>
<path d="M186.083 37.1316C186.083 37.1316 187.215 36.7196 188.574 36.7196C191.805 36.7196 193.145 38.1817 193.145 40.9632V47.4942H192.445L191.107 46.7112C190.467 47.226 189.377 47.7007 188.327 47.7007C186.123 47.7007 184.785 46.6085 184.785 44.7743C184.785 42.1172 187.545 41.1287 190.467 40.9427C190.447 39.686 189.623 39.0685 188.367 39.0685C187.338 39.0685 186.063 39.5011 186.063 39.5011L186.083 37.1316ZM188.676 45.4751C189.398 45.4751 190.096 45.1658 190.467 44.9192V42.6114C189.047 42.7563 187.462 43.2289 187.462 44.3212C187.463 45.022 187.895 45.4751 188.676 45.4751Z" fill="white"/>
<path d="M203.707 47.3709H197.613V49.9664H194.957V45.0641H196.028C196.831 43.7653 197.55 42.1788 197.943 40.7372L198.27 39.46H196.706V37.07H202.328L205.004 36.8018V45.0641H206.857L205.828 50.0496H203.151L203.707 47.3709ZM198.911 45.0641H202.328V39.46H200.847L200.331 41.4164C199.98 42.6741 199.529 43.8691 198.911 45.0641Z" fill="white"/>
<path d="M208.766 45.0641V37.07H211.462V45.0641H214.037V37.07H216.733V45.0641H219.308V37.07L222.003 36.8018V45.0641H223.857L222.828 50.0496H220.13L220.686 47.3709H208.375L208.766 45.0641Z" fill="white"/>
<path d="M225.721 37.0699H228.417V43.5803L228.398 43.6841L232.991 37.0699H235.83L235.542 38.677V47.3709H232.845V41.0876L228.274 47.7017L225.721 47.1654V37.0699Z" fill="white"/>
<path d="M238.426 37.07H241.121V40.9016H244.931V37.07L247.628 36.8018V47.3709H244.931V43.2104H241.121V47.3709H238.426V37.07Z" fill="white"/>
<path d="M250.43 37.0699H253.126V43.5803L253.106 43.6841L257.697 37.0699H260.539L260.25 38.677V47.3709H257.552V41.0876L252.982 47.7017L250.43 47.1654V37.0699Z" fill="white"/>
</g>
<defs>
<clipPath id="clip0_3_28">
<rect width="344" height="56" fill="white"/>
</clipPath>
</defs>
</svg>
