<svg width="30" height="30" viewBox="0 0 30 30" fill="none" xmlns="http://www.w3.org/2000/svg">
<g clip-path="url(#clip0_48_5904)">
<path d="M7.5 0C6.50544 0 5.55161 0.395088 4.84835 1.09835C4.14509 1.80161 3.75 2.75544 3.75 3.75V26.25C3.75 27.2446 4.14509 28.1984 4.84835 28.9016C5.55161 29.6049 6.50544 30 7.5 30H22.5C23.4946 30 24.4484 29.6049 25.1516 28.9016C25.8549 28.1984 26.25 27.2446 26.25 26.25V3.75C26.25 2.75544 25.8549 1.80161 25.1516 1.09835C24.4484 0.395088 23.4946 0 22.5 0L7.5 0ZM7.5 1.875H22.5C22.9973 1.875 23.4742 2.07254 23.8258 2.42417C24.1775 2.77581 24.375 3.25272 24.375 3.75V26.25C24.375 26.7473 24.1775 27.2242 23.8258 27.5758C23.4742 27.9275 22.9973 28.125 22.5 28.125H7.5C7.00272 28.125 6.52581 27.9275 6.17417 27.5758C5.82254 27.2242 5.625 26.7473 5.625 26.25V3.75C5.625 3.25272 5.82254 2.77581 6.17417 2.42417C6.52581 2.07254 7.00272 1.875 7.5 1.875Z" fill="#B6391E"/>
<path d="M8.62984 22.6631C8.26438 22.517 7.96995 22.2346 7.80859 21.8756C7.44296 21.1481 7.56484 20.4206 7.95859 19.8094C8.32984 19.2338 8.94484 18.7444 9.64046 18.3338C10.5216 17.834 11.453 17.4287 12.4192 17.1244C13.1696 15.7755 13.8346 14.3809 14.4105 12.9488C14.0662 12.1665 13.7962 11.3535 13.6042 10.5206C13.443 9.77064 13.3811 9.02814 13.518 8.39064C13.6586 7.72689 14.0317 7.13064 14.7367 6.84751C15.0967 6.70314 15.4867 6.62251 15.8655 6.70314C16.056 6.74369 16.2351 6.82615 16.3898 6.94452C16.5445 7.0629 16.6709 7.21422 16.7598 7.38751C16.9248 7.69501 16.9848 8.05501 16.998 8.39626C17.0111 8.74689 16.9755 9.13689 16.9098 9.54751C16.7523 10.5038 16.4036 11.6738 15.9348 12.9113C16.4521 14.0175 17.0671 15.0755 17.7723 16.0725C18.6069 16.0066 19.4463 16.0381 20.2736 16.1663C20.9561 16.2881 21.6498 16.5319 22.0736 17.0381C22.2986 17.3081 22.4355 17.6381 22.4486 18.0094C22.4617 18.3694 22.3605 18.7256 22.1898 19.065C22.042 19.3795 21.8129 19.6488 21.5261 19.845C21.2426 20.0299 20.9079 20.1205 20.5698 20.1038C19.9492 20.0775 19.3436 19.7363 18.8205 19.3219C18.1844 18.7959 17.6112 18.1982 17.1123 17.5406C15.8444 17.6844 14.5914 17.9392 13.368 18.3019C12.807 19.2956 12.1668 20.2424 11.4536 21.1331C10.9098 21.7894 10.3136 22.3613 9.71734 22.6088C9.37475 22.7637 8.98617 22.7832 8.62984 22.6631ZM11.2155 19.0988C10.9042 19.2413 10.6155 19.3913 10.3548 19.545C9.73984 19.9088 9.34046 20.2631 9.14171 20.5706C8.96546 20.8425 8.96171 21.0394 9.06671 21.2475C9.08546 21.2888 9.10421 21.315 9.11546 21.33C9.13782 21.324 9.15975 21.3165 9.18109 21.3075C9.43796 21.2025 9.84671 20.8669 10.3717 20.235C10.6703 19.8694 10.9518 19.4903 11.2155 19.0988ZM14.2905 16.605C14.9165 16.4588 15.5483 16.338 16.1842 16.2431C15.8427 15.7208 15.5236 15.184 15.228 14.6344C14.9339 15.2993 14.6213 15.9558 14.2905 16.6031V16.605ZM18.8767 17.4488C19.158 17.7525 19.4317 18.0113 19.6923 18.2175C20.1423 18.5738 20.4555 18.6919 20.6261 18.6975C20.6718 18.7035 20.7181 18.6936 20.7573 18.6694C20.8353 18.6078 20.8961 18.527 20.9336 18.435C21.0002 18.3208 21.0382 18.1921 21.0442 18.06C21.0431 18.016 21.0258 17.9739 20.9955 17.9419C20.898 17.8256 20.6205 17.6569 20.0242 17.55C19.6449 17.4866 19.2612 17.4534 18.8767 17.4506V17.4488ZM15.1455 10.875C15.3033 10.366 15.4285 9.84744 15.5205 9.32251C15.5786 8.97001 15.6011 8.67939 15.5917 8.45064C15.5922 8.32443 15.572 8.199 15.5317 8.07939C15.4379 8.091 15.3463 8.11627 15.2598 8.15439C15.0967 8.22001 14.9636 8.35314 14.8923 8.68501C14.8173 9.04501 14.8361 9.56439 14.9786 10.2263C15.0236 10.4344 15.0798 10.6519 15.1473 10.875H15.1455Z" fill="#B6391E"/>
</g>
<defs>
<clipPath id="clip0_48_5904">
<rect width="30" height="30" fill="white"/>
</clipPath>
</defs>
</svg>
