<svg width="25" height="31" viewBox="0 0 25 31" fill="none" xmlns="http://www.w3.org/2000/svg">
<path d="M21.3644 0.0848694C22.2434 0.0847614 23.0896 0.418325 23.732 1.01815C24.3745 1.61797 24.7653 2.43932 24.8255 3.3162L24.8332 3.55208V27.4448C24.8333 28.3238 24.4997 29.17 23.8999 29.8124C23.3001 30.4549 22.4787 30.8457 21.6018 30.9059L21.3644 30.9136H3.63525C2.75631 30.9137 1.9101 30.5801 1.26763 29.9803C0.625172 29.3805 0.234371 28.5591 0.174212 27.6822L0.166504 27.4479V3.55362C0.166396 2.67467 0.499959 1.82846 1.09978 1.186C1.6996 0.543537 2.52095 0.152737 3.39784 0.0925779L3.63525 0.0848694H21.3644ZM21.3644 2.39737H3.63525C3.35585 2.39738 3.08589 2.49857 2.87532 2.68222C2.66475 2.86587 2.52779 3.11956 2.4898 3.39637L2.479 3.55362V27.4464C2.479 28.0322 2.91375 28.5163 3.478 28.5918L3.63525 28.6026H21.3644C21.6438 28.6026 21.9138 28.5014 22.1244 28.3178C22.3349 28.1341 22.4719 27.8804 22.5099 27.6036L22.5207 27.4464V3.55362C22.5207 3.27421 22.4195 3.00426 22.2358 2.79368C22.0522 2.58311 21.7985 2.44616 21.5217 2.40816L21.3644 2.39583V2.39737Z" fill="white"/>
<path d="M4.7915 21.2812C4.7915 20.9746 4.91332 20.6805 5.13016 20.4637C5.347 20.2468 5.6411 20.125 5.94775 20.125H19.0519C19.3586 20.125 19.6527 20.2468 19.8695 20.4637C20.0864 20.6805 20.2082 20.9746 20.2082 21.2812C20.2082 21.5879 20.0864 21.882 19.8695 22.0988C19.6527 22.3157 19.3586 22.4375 19.0519 22.4375H5.94775C5.6411 22.4375 5.347 22.3157 5.13016 22.0988C4.91332 21.882 4.7915 21.5879 4.7915 21.2812Z" fill="white"/>
<path d="M4.7915 8.94791C4.7915 8.64125 4.91332 8.34715 5.13016 8.13031C5.347 7.91348 5.6411 7.79166 5.94775 7.79166H19.0519C19.3586 7.79166 19.6527 7.91348 19.8695 8.13031C20.0864 8.34715 20.2082 8.64125 20.2082 8.94791C20.2082 9.25456 20.0864 9.54866 19.8695 9.7655C19.6527 9.98234 19.3586 10.1042 19.0519 10.1042H5.94775C5.6411 10.1042 5.347 9.98234 5.13016 9.7655C4.91332 9.54866 4.7915 9.25456 4.7915 8.94791Z" fill="white"/>
<path d="M4.7915 15.1146C4.7915 14.8079 4.91332 14.5138 5.13016 14.297C5.347 14.0801 5.6411 13.9583 5.94775 13.9583H19.0519C19.2038 13.9583 19.3541 13.9882 19.4944 14.0463C19.6347 14.1045 19.7621 14.1896 19.8695 14.297C19.9769 14.4044 20.062 14.5318 20.1202 14.6721C20.1783 14.8124 20.2082 14.9627 20.2082 15.1146C20.2082 15.2664 20.1783 15.4168 20.1202 15.5571C20.062 15.6973 19.9769 15.8248 19.8695 15.9322C19.7621 16.0395 19.6347 16.1247 19.4944 16.1828C19.3541 16.2409 19.2038 16.2708 19.0519 16.2708H5.94775C5.6411 16.2708 5.347 16.149 5.13016 15.9322C4.91332 15.7153 4.7915 15.4212 4.7915 15.1146Z" fill="white"/>
</svg>
