<svg width="30" height="34" viewBox="0 0 30 34" fill="none" xmlns="http://www.w3.org/2000/svg">
<path d="M10 0C8.93913 0 7.92172 0.421427 7.17157 1.17157C6.42143 1.92172 6 2.93913 6 4V14.414C6.65376 14.2289 7.32331 14.1051 8 14.044V4C8 3.46957 8.21072 2.96086 8.58579 2.58579C8.96086 2.21071 9.46957 2 10 2H18V9C18 9.79565 18.3161 10.5587 18.8787 11.1213C19.4413 11.6839 20.2044 12 21 12H28V28C28 28.5304 27.7893 29.0391 27.4142 29.4142C27.0391 29.7893 26.5304 30 26 30H18.8C18.4359 30.7124 17.9953 31.383 17.486 32H26C27.0609 32 28.0783 31.5786 28.8284 30.8284C29.5786 30.0783 30 29.0609 30 28V10.828C29.9993 10.0326 29.6828 9.27007 29.12 8.708L21.292 0.877999C20.7296 0.315963 19.9671 0.000169763 19.172 0H10ZM27.586 10H21C20.7348 10 20.4804 9.89464 20.2929 9.7071C20.1054 9.51957 20 9.26521 20 9V2.414L27.586 10ZM9 34C11.3869 34 13.6761 33.0518 15.364 31.3639C17.0518 29.6761 18 27.3869 18 25C18 22.613 17.0518 20.3239 15.364 18.636C13.6761 16.9482 11.3869 16 9 16C6.61305 16 4.32387 16.9482 2.63604 18.636C0.948212 20.3239 0 22.613 0 25C0 27.3869 0.948212 29.6761 2.63604 31.3639C4.32387 33.0518 6.61305 34 9 34ZM4.292 25.708C4.10423 25.5202 3.99874 25.2655 3.99874 25C3.99874 24.7344 4.10423 24.4798 4.292 24.292C4.47977 24.1042 4.73445 23.9987 5 23.9987C5.26555 23.9987 5.52023 24.1042 5.708 24.292L8 26.586V21C8 20.7348 8.10536 20.4804 8.29289 20.2929C8.48043 20.1053 8.73478 20 9 20C9.26522 20 9.51957 20.1053 9.70711 20.2929C9.89464 20.4804 10 20.7348 10 21V26.586L12.292 24.292C12.4798 24.1042 12.7345 23.9987 13 23.9987C13.2656 23.9987 13.5202 24.1042 13.708 24.292C13.8958 24.4798 14.0013 24.7344 14.0013 25C14.0013 25.2655 13.8958 25.5202 13.708 25.708L9.708 29.708C9.52157 29.894 9.26932 29.9989 9.006 30H8.994C8.73333 29.9984 8.4836 29.895 8.298 29.712L8.292 29.706L4.292 25.706V25.708Z" fill="white"/>
</svg>
