<svg width="687" height="127" viewBox="0 0 687 127" fill="none" xmlns="http://www.w3.org/2000/svg">
<path d="M544.625 124.045H530.766V96.3942H544.625V124.045ZM531.598 123.213H543.795V97.2269H531.598V123.213Z" fill="#B6391E"/>
<path d="M469.462 124.045H455.604V96.3842H469.462V124.045ZM456.435 123.214H468.631V97.216H456.435V123.214Z" fill="#B6391E"/>
<path d="M544.625 97.226H530.766V87.8232H544.625V97.226ZM531.598 96.3934H543.795V88.6549H531.598V96.3934Z" fill="#B6391E"/>
<path d="M469.462 97.2403H455.604V87.7066H469.462V97.2403ZM456.435 96.4085H468.631V88.5384H456.435V96.4085Z" fill="#B6391E"/>
<path d="M537.441 96.8009H463.098V123.673H537.441V96.8009Z" fill="white"/>
<path d="M537.857 124.089H462.682V96.385H537.857V124.089ZM463.514 123.257H537.026V97.2168H463.514V123.257Z" fill="#B6391E"/>
<path d="M538.89 84.138H461.451V96.8009H538.89V84.138Z" fill="white"/>
<path d="M539.305 97.2168H461.035V83.7221H539.305V97.2168ZM461.866 96.385H538.473V84.5539H461.866V96.385Z" fill="#B6391E"/>
<path d="M520.164 59.5859H480.376L480.137 58.8304C481.532 57.8419 483.13 56.5824 483.367 56.2068C483.396 46.1692 490.011 42.4077 494.844 39.6608C497.644 38.0693 499.854 36.8124 499.854 34.9233H500.685C500.685 36.8116 502.896 38.0693 505.694 39.6608C510.528 42.4085 517.143 46.1692 517.171 56.2068C517.408 56.5824 519.007 57.8419 520.402 58.8304L520.164 59.5859ZM481.66 58.7533H518.88C516.342 56.8692 516.342 56.4583 516.342 56.2714C516.342 46.6689 510.211 43.1833 505.286 40.3827C503.004 39.0856 501.083 37.993 500.271 36.5223C499.458 37.993 497.537 39.0856 495.256 40.3827C490.33 43.1833 484.2 46.6689 484.2 56.2714C484.199 56.4583 484.199 56.8692 481.66 58.7533Z" fill="#B6391E"/>
<path d="M519.249 59.1961H481.635V84.138H519.249V59.1961Z" fill="white"/>
<path d="M519.665 84.553H481.219V58.7802H519.665V84.553ZM482.05 83.7212H518.833V59.612H482.05V83.7212Z" fill="#B6391E"/>
<path d="M508.45 59.586H491.49L491.701 59.0242C492.12 57.9082 492.574 56.5439 492.577 56.2848C492.577 46.3369 495.502 42.5838 497.638 39.8445C498.877 38.2555 499.855 37.0011 499.855 35.0223H500.686C500.686 37.0011 501.664 38.2564 502.903 39.8445C505.039 42.5847 507.964 46.3369 507.964 56.2848C507.967 56.5431 508.421 57.9082 508.84 59.0242L509.051 59.586H508.45ZM492.685 58.7534H507.853C507.559 57.9409 507.131 56.6856 507.131 56.284C507.131 46.622 504.308 42.9997 502.246 40.3543C501.442 39.3229 500.706 38.3796 500.27 37.2619C499.833 38.3796 499.098 39.3229 498.293 40.3543C496.231 42.9989 493.408 46.622 493.408 56.284C493.408 56.6856 492.979 57.9409 492.685 58.7534Z" fill="#B6391E"/>
<path d="M492.415 64.669C492.415 63.6946 491.627 62.9048 490.653 62.9048C489.679 62.9048 488.891 63.6946 488.891 64.669C488.891 65.6433 489.678 66.4332 490.653 66.4332C491.627 66.4332 492.415 65.6441 492.415 64.669Z" fill="#B6391E"/>
<path d="M490.652 66.849C489.452 66.849 488.475 65.8713 488.475 64.6689C488.475 63.4665 489.452 62.4888 490.652 62.4888C491.854 62.4888 492.831 63.4674 492.831 64.6689C492.831 65.8705 491.853 66.849 490.652 66.849ZM490.652 63.3215C489.91 63.3215 489.307 63.926 489.307 64.6698C489.307 65.4127 489.911 66.0172 490.652 66.0172C491.395 66.0172 491.999 65.4127 491.999 64.6698C491.999 63.926 491.394 63.3215 490.652 63.3215Z" fill="#B6391E"/>
<path d="M502.032 64.669C502.032 63.6946 501.244 62.9048 500.27 62.9048C499.296 62.9048 498.508 63.6946 498.508 64.669C498.508 65.6433 499.295 66.4332 500.27 66.4332C501.243 66.4332 502.032 65.6441 502.032 64.669Z" fill="#B6391E"/>
<path d="M500.269 66.849C499.069 66.849 498.092 65.8713 498.092 64.6689C498.092 63.4665 499.069 62.4888 500.269 62.4888C501.471 62.4888 502.448 63.4674 502.448 64.6689C502.448 65.8705 501.471 66.849 500.269 66.849ZM500.269 63.3215C499.527 63.3215 498.924 63.926 498.924 64.6698C498.924 65.4127 499.528 66.0172 500.269 66.0172C501.012 66.0172 501.616 65.4127 501.616 64.6698C501.617 63.926 501.012 63.3215 500.269 63.3215Z" fill="#B6391E"/>
<path d="M511.703 64.669C511.703 63.6946 510.915 62.9048 509.94 62.9048C508.966 62.9048 508.178 63.6946 508.178 64.669C508.178 65.6433 508.966 66.4332 509.94 66.4332C510.915 66.4332 511.703 65.6441 511.703 64.669Z" fill="#B6391E"/>
<path d="M509.942 66.849C508.741 66.849 507.764 65.8713 507.764 64.6689C507.764 63.4665 508.741 62.4888 509.942 62.4888C511.143 62.4888 512.12 63.4674 512.12 64.6689C512.12 65.8705 511.143 66.849 509.942 66.849ZM509.942 63.3215C509.199 63.3215 508.596 63.926 508.596 64.6698C508.596 65.4127 509.2 66.0172 509.942 66.0172C510.684 66.0172 511.288 65.4127 511.288 64.6698C511.289 63.926 510.685 63.3215 509.942 63.3215Z" fill="#B6391E"/>
<path d="M501.728 31.5098C501.479 31.5098 501.228 31.4981 500.993 31.4863C500.598 31.4679 500.285 31.4679 499.889 31.4863C499.654 31.4981 499.404 31.5098 499.155 31.5098C498.576 31.5098 496.811 31.5098 496.811 29.7322C496.811 28.5315 497.343 28.1097 497.906 27.6628C498.336 27.3224 498.823 26.9367 499.32 26.0847C499.871 25.1406 500.023 23.5265 500.027 22.7215H500.41L500.289 22.7157L500.027 22.7207V22.6981H500.858L500.774 22.7031H500.858L500.468 22.7207H500.858C500.86 23.5257 501.012 25.1389 501.563 26.0831C502.061 26.935 502.548 27.3215 502.978 27.6611C503.541 28.108 504.074 28.5298 504.074 29.7305C504.073 31.5098 502.308 31.5098 501.728 31.5098ZM500.442 30.6361C500.62 30.6361 500.821 30.6453 501.033 30.6554C501.257 30.6663 501.492 30.6772 501.728 30.6772C502.988 30.6772 503.241 30.3149 503.241 29.7314C503.241 28.9331 502.997 28.7394 502.461 28.3143C502.022 27.9663 501.421 27.4909 500.845 26.5032C500.679 26.2189 500.546 25.9003 500.441 25.5724C500.335 25.9011 500.203 26.2189 500.038 26.5032C499.461 27.4901 498.861 27.9663 498.422 28.3135C497.886 28.7386 497.642 28.9323 497.642 29.7305C497.642 30.3141 497.895 30.6763 499.155 30.6763C499.39 30.6763 499.626 30.6646 499.849 30.6545C500.062 30.6453 500.262 30.6361 500.442 30.6361Z" fill="#B6391E"/>
<path d="M501.983 31.1887H498.748V37.5243H501.983V31.1887Z" fill="#F0F8FD"/>
<path d="M502.397 37.941H498.33V30.7728H502.397V37.941ZM499.162 37.1084H501.566V31.6045H499.162V37.1084Z" fill="#B6391E"/>
<path d="M493.129 80.9994H488.178V72.3939C488.178 70.5199 489.103 69.4005 490.653 69.4005C492.204 69.4005 493.129 70.5199 493.129 72.3939V80.9994V80.9994ZM489.009 80.1676H492.298V72.3939C492.298 71.0004 491.714 70.2323 490.653 70.2323C489.593 70.2323 489.009 71.0004 489.009 72.3939V80.1676V80.1676Z" fill="#B6391E"/>
<path d="M502.744 80.9994H497.793V72.3939C497.793 70.5199 498.718 69.4005 500.269 69.4005C501.82 69.4005 502.744 70.5199 502.744 72.3939V80.9994V80.9994ZM498.624 80.1676H501.913V72.3939C501.913 71.0004 501.329 70.2323 500.269 70.2323C499.208 70.2323 498.624 71.0004 498.624 72.3939V80.1676V80.1676Z" fill="#B6391E"/>
<path d="M512.416 80.9994H507.465V72.3939C507.465 70.5199 508.39 69.4005 509.941 69.4005C511.491 69.4005 512.416 70.5199 512.416 72.3939V80.9994V80.9994ZM508.296 80.1676H511.585V72.3939C511.585 71.0004 511.001 70.2323 509.941 70.2323C508.88 70.2323 508.296 71.0004 508.296 72.3939V80.1676V80.1676Z" fill="#B6391E"/>
<path d="M485.338 65.5024C485.338 65.5024 480.586 62.4561 480.586 62.2088C480.586 56.0668 473.065 55.0514 473.065 52.8369C473.065 55.0514 465.543 56.0668 465.543 62.2088C465.543 62.4561 460.791 65.5024 460.791 65.5024H485.338Z" fill="white"/>
<path d="M485.339 65.9183H460.793L460.568 65.1519C462.529 63.895 464.675 62.4553 465.13 62.0562C465.206 58.0918 468.24 56.1943 470.464 54.8041C471.637 54.0704 472.649 53.4365 472.649 52.8361H473.481C473.481 53.4365 474.494 54.0704 475.666 54.8041C477.889 56.1943 480.924 58.0918 480.999 62.0562C481.454 62.4553 483.6 63.895 485.561 65.1519L485.339 65.9183ZM462.205 65.0865H483.927C480.172 62.6465 480.172 62.4503 480.172 62.2088C480.172 58.6016 477.432 56.8877 475.229 55.5101C474.316 54.9391 473.524 54.4444 473.068 53.8876C472.611 54.4444 471.819 54.9391 470.906 55.5101C468.703 56.8877 465.962 58.6016 465.962 62.2088C465.96 62.4503 465.96 62.6465 462.205 65.0865Z" fill="#B6391E"/>
<path d="M474.351 48.6579C474.103 48.6579 473.853 48.6461 473.618 48.6344C473.221 48.616 472.909 48.616 472.513 48.6344C472.278 48.6461 472.027 48.6579 471.779 48.6579C471.199 48.6579 469.434 48.6579 469.434 46.8803C469.434 45.6796 469.966 45.257 470.53 44.8109C470.96 44.4704 471.447 44.0847 471.944 43.2328C472.495 42.2878 472.647 40.6754 472.651 39.8705V39.847H473.482L473.396 39.852L473.482 39.8529L473.091 39.8696H473.482C473.484 40.6737 473.637 42.2878 474.188 43.2337C474.684 44.0856 475.172 44.4713 475.601 44.8117C476.165 45.2586 476.698 45.6804 476.698 46.8811C476.696 48.6579 474.931 48.6579 474.351 48.6579ZM473.065 47.7842C473.244 47.7842 473.444 47.7934 473.656 47.8035C473.88 47.8144 474.116 47.8253 474.351 47.8253C475.611 47.8253 475.865 47.4639 475.865 46.8803C475.865 46.082 475.62 45.8875 475.083 45.4632C474.645 45.1152 474.044 44.6398 473.468 43.6521C473.302 43.3678 473.17 43.0492 473.065 42.7205C472.958 43.0492 472.827 43.3678 472.661 43.6521C472.084 44.639 471.484 45.1152 471.045 45.4632C470.508 45.8883 470.264 46.082 470.264 46.8803C470.264 47.4639 470.517 47.8253 471.778 47.8253C472.013 47.8253 472.249 47.8135 472.472 47.8035C472.685 47.7942 472.886 47.7842 473.065 47.7842Z" fill="#B6391E"/>
<path d="M483.032 65.5033H463.098V84.1329H483.032V65.5033Z" fill="white"/>
<path d="M483.447 84.548H462.682V65.0865H483.447V84.548V84.548ZM463.513 83.7162H482.616V65.9191H463.513V83.7162Z" fill="#B6391E"/>
<path d="M471.355 80.9995H467.109V72.2137C467.109 69.4358 468.734 69.2203 469.232 69.2203C469.731 69.2203 471.355 69.4366 471.355 72.2137V80.9995ZM467.94 80.1677H470.524V72.2137C470.524 71.4063 470.357 70.0521 469.232 70.0521C468.108 70.0521 467.94 71.4063 467.94 72.2137V80.1677V80.1677Z" fill="#B6391E"/>
<path d="M479.021 80.9995H474.775V72.2137C474.775 69.4358 476.4 69.2203 476.898 69.2203C477.397 69.2203 479.021 69.4366 479.021 72.2137V80.9995ZM475.606 80.1677H478.19V72.2137C478.19 71.4063 478.023 70.0521 476.898 70.0521C475.774 70.0521 475.606 71.4063 475.606 72.2137V80.1677V80.1677Z" fill="#B6391E"/>
<path d="M477.854 65.5024C477.854 65.5024 476.298 62.7597 476.298 62.5048C476.298 56.1691 473.066 55.121 473.066 52.8369C473.066 55.121 469.834 56.1691 469.834 62.5048C469.834 62.7597 468.277 65.5024 468.277 65.5024H477.854Z" fill="white"/>
<path d="M478.57 65.9183H467.562L467.915 65.297C468.606 64.0795 469.36 62.6775 469.426 62.4394C469.418 58.4205 470.735 56.4433 471.697 54.9994C472.251 54.1684 472.651 53.5681 472.651 52.8369H473.482C473.482 53.5681 473.883 54.1684 474.436 54.9994C475.398 56.4433 476.715 58.4205 476.715 62.5048C476.772 62.6775 477.527 64.0795 478.218 65.297L478.57 65.9183ZM468.988 65.0865H477.143C475.882 62.8318 475.882 62.6138 475.882 62.5048C475.882 58.672 474.696 56.8919 473.743 55.4614C473.491 55.0832 473.254 54.7277 473.065 54.3663C472.876 54.7277 472.639 55.0832 472.387 55.4614C471.434 56.8927 470.248 58.6728 470.248 62.5048C470.249 62.6138 470.249 62.8318 468.988 65.0865Z" fill="#B6391E"/>
<path d="M475.098 55.0899H471.031V47.9225H475.098V55.0899ZM471.863 54.2573H474.267V48.7534H471.863V54.2573Z" fill="#B6391E"/>
<path d="M539.747 65.5024C539.747 65.5024 534.994 62.4561 534.994 62.2088C534.994 56.0668 527.473 55.0514 527.473 52.8369C527.473 55.0514 519.952 56.0668 519.952 62.2088C519.952 62.4561 515.199 65.5024 515.199 65.5024H539.747Z" fill="white"/>
<path d="M539.746 65.9183H515.199L514.975 65.1519C516.935 63.895 519.082 62.4553 519.537 62.0562C519.613 58.0918 522.647 56.1943 524.87 54.8041C526.043 54.0704 527.056 53.4365 527.056 52.8361H527.887C527.887 53.4365 528.9 54.0704 530.073 54.8041C532.295 56.1943 535.33 58.0918 535.405 62.0562C535.86 62.4553 538.008 63.895 539.968 65.1519L539.746 65.9183ZM516.612 65.0865H538.334C534.578 62.6465 534.578 62.4503 534.578 62.2088C534.578 58.6016 531.838 56.8877 529.635 55.5101C528.722 54.9391 527.93 54.4444 527.474 53.8876C527.017 54.4444 526.225 54.9391 525.312 55.5101C523.11 56.8877 520.369 58.6016 520.369 62.2088C520.368 62.4503 520.368 62.6465 516.612 65.0865Z" fill="#B6391E"/>
<path d="M528.762 48.6579C528.513 48.6579 528.262 48.6461 528.027 48.6344C527.631 48.616 527.318 48.616 526.923 48.6344C526.687 48.6461 526.438 48.6579 526.189 48.6579C525.609 48.6579 523.844 48.6579 523.844 46.8803C523.844 45.6796 524.377 45.257 524.94 44.8109C525.37 44.4704 525.857 44.0847 526.354 43.2328C526.904 42.2887 527.057 40.6763 527.06 39.8713V39.847H527.891L527.807 39.852L527.891 39.8529L527.501 39.8705H527.891C527.894 40.6746 528.046 42.2878 528.598 43.2337C529.095 44.0856 529.582 44.4713 530.011 44.8117C530.575 45.2586 531.108 45.6804 531.108 46.8811C531.106 48.6579 529.341 48.6579 528.762 48.6579ZM527.475 47.7842C527.654 47.7842 527.854 47.7934 528.067 47.8035C528.29 47.8144 528.526 47.8253 528.762 47.8253C530.022 47.8253 530.275 47.4639 530.275 46.8803C530.275 46.0812 530.03 45.8875 529.494 45.4624C529.056 45.1144 528.455 44.639 527.879 43.6521C527.713 43.3678 527.58 43.0492 527.475 42.7205C527.369 43.0492 527.237 43.367 527.072 43.6521C526.495 44.639 525.896 45.1152 525.457 45.4632C524.92 45.8883 524.675 46.082 524.675 46.8803C524.675 47.4639 524.928 47.8253 526.189 47.8253C526.423 47.8253 526.66 47.8135 526.883 47.8035C527.095 47.7942 527.296 47.7842 527.475 47.7842Z" fill="#B6391E"/>
<path d="M537.441 65.5033H517.506V84.1329H537.441V65.5033Z" fill="white"/>
<path d="M537.856 84.548H517.09V65.0865H537.856V84.548ZM517.921 83.7162H537.025V65.9191H517.921V83.7162Z" fill="#B6391E"/>
<path d="M525.766 80.9995H521.52V72.2137C521.52 69.4358 523.144 69.2203 523.643 69.2203C524.141 69.2203 525.766 69.4366 525.766 72.2137V80.9995ZM522.351 80.1677H524.934V72.2137C524.934 71.4063 524.767 70.0521 523.643 70.0521C522.518 70.0521 522.351 71.4063 522.351 72.2137V80.1677V80.1677Z" fill="#B6391E"/>
<path d="M533.43 80.9995H529.184V72.2137C529.184 69.4358 530.808 69.2203 531.307 69.2203C531.805 69.2203 533.43 69.4366 533.43 72.2137V80.9995ZM530.015 80.1677H532.598V72.2137C532.598 71.4063 532.431 70.0521 531.307 70.0521C530.182 70.0521 530.015 71.4063 530.015 72.2137V80.1677V80.1677Z" fill="#B6391E"/>
<path d="M532.264 65.5024C532.264 65.5024 530.708 62.7597 530.708 62.5048C530.708 56.1691 527.476 55.121 527.476 52.8369C527.476 55.121 524.243 56.1691 524.243 62.5048C524.243 62.7597 522.688 65.5024 522.688 65.5024H532.264Z" fill="white"/>
<path d="M532.977 65.9183H521.971L522.323 65.297C523.014 64.0795 523.768 62.6775 523.832 62.4394C523.825 58.4205 525.142 56.4433 526.104 54.9994C526.657 54.1684 527.058 53.5681 527.058 52.8369H527.889C527.889 53.5681 528.289 54.1684 528.843 54.9994C529.804 56.4433 531.122 58.4205 531.122 62.5048C531.18 62.6775 531.934 64.0795 532.625 65.297L532.977 65.9183ZM523.396 65.0865H531.551C530.29 62.8318 530.29 62.6138 530.29 62.5048C530.29 58.672 529.104 56.8919 528.151 55.4614C527.899 55.0832 527.662 54.7277 527.473 54.3663C527.283 54.7277 527.046 55.0832 526.794 55.4614C525.841 56.8927 524.655 58.6728 524.655 62.5048C524.657 62.6138 524.657 62.8318 523.396 65.0865Z" fill="#B6391E"/>
<path d="M529.507 55.0899H525.441V47.9225H529.507V55.0899ZM526.273 54.2573H528.675V48.7534H526.273V54.2573Z" fill="#B6391E"/>
<path d="M503.081 116.683H496.506V105.06C496.506 102.55 497.735 101.052 499.793 101.052C501.852 101.052 503.081 102.55 503.081 105.06V116.683ZM497.337 115.852H502.249V105.06C502.249 103.012 501.377 101.884 499.793 101.884C498.208 101.884 497.336 103.012 497.336 105.06V115.852H497.337Z" fill="#B6391E"/>
<path d="M532.548 116.683H527.596V104.504C527.596 102.629 528.521 101.51 530.072 101.51C531.623 101.51 532.548 102.629 532.548 104.504V116.683V116.683ZM528.427 115.852H531.717V104.504C531.717 103.11 531.133 102.342 530.072 102.342C529.011 102.342 528.427 103.11 528.427 104.504V115.852Z" fill="#B6391E"/>
<path d="M472.23 116.683H467.277V104.504C467.277 102.629 468.203 101.51 469.754 101.51C471.305 101.51 472.23 102.629 472.23 104.504V116.683V116.683ZM468.108 115.852H471.399V104.504C471.399 103.11 470.815 102.342 469.754 102.342C468.692 102.342 468.108 103.11 468.108 104.504V115.852Z" fill="#B6391E"/>
<path d="M540.774 83.7229H459.473V84.5547H540.774V83.7229Z" fill="#B6391E"/>
<path d="M539.644 80.1677H461.451V80.9995H539.644V80.1677Z" fill="#B6391E"/>
<path d="M539.644 119.245H461.451V120.077H539.644V119.245Z" fill="#B6391E"/>
<path d="M472.358 90.8224H464.842V91.6542H472.358V90.8224Z" fill="#B6391E"/>
<path d="M478.605 90.8224H474.848V91.6542H478.605V90.8224Z" fill="#B6391E"/>
<path d="M535.457 90.8224H527.941V91.6542H535.457V90.8224Z" fill="#B6391E"/>
<path d="M525.451 90.8224H521.693V91.6542H525.451V90.8224Z" fill="#B6391E"/>
<path d="M490.128 96.8009H489.297V123.673H490.128V96.8009Z" fill="#B6391E"/>
<path d="M481.839 84.1371H481.008V123.672H481.839V84.1371Z" fill="#B6391E"/>
<path d="M476.751 96.8009H475.92V123.673H476.751V96.8009Z" fill="#B6391E"/>
<path d="M510.288 96.8009H509.457V123.673H510.288V96.8009Z" fill="#B6391E"/>
<path d="M518.392 84.319H517.561V123.674H518.392V84.319Z" fill="#B6391E"/>
<path d="M523.29 96.8009H522.459V123.673H523.29V96.8009Z" fill="#B6391E"/>
<path d="M527.89 32.8011H527.059V37.2426H527.89V32.8011Z" fill="#B6391E"/>
<path d="M529.693 34.6055H525.254V35.4373H529.693V34.6055Z" fill="#B6391E"/>
<path d="M473.482 32.8011H472.65V37.2426H473.482V32.8011Z" fill="#B6391E"/>
<path d="M475.284 34.6055H470.846V35.4373H475.284V34.6055Z" fill="#B6391E"/>
<path d="M500.78 15.7872H499.949V20.2287H500.78V15.7872Z" fill="#B6391E"/>
<path d="M502.584 17.5916H498.146V18.4234H502.584V17.5916Z" fill="#B6391E"/>
<path d="M680.905 123.277H6.14648V124.109H680.905V123.277Z" fill="#B6391E"/>
<path d="M575.886 110.447H575.055V123.672H575.886V110.447Z" fill="#B6391E"/>
<path d="M575.676 110.775C569.488 110.775 564.453 105.736 564.453 99.5428C564.453 93.3496 569.488 88.3103 575.676 88.3103C581.864 88.3103 586.9 93.3496 586.9 99.5428C586.9 105.736 581.865 110.775 575.676 110.775ZM575.676 89.1412C569.946 89.1412 565.284 93.8066 565.284 99.5419C565.284 105.277 569.946 109.943 575.676 109.943C581.407 109.943 586.069 105.277 586.069 99.5419C586.069 93.8066 581.407 89.1412 575.676 89.1412Z" fill="#B6391E"/>
<path d="M435.552 110.447H434.721V123.672H435.552V110.447Z" fill="#B6391E"/>
<path d="M435.344 110.775C429.155 110.775 424.121 105.736 424.121 99.5428C424.121 93.3496 429.156 88.3103 435.344 88.3103C441.532 88.3103 446.568 93.3496 446.568 99.5428C446.568 105.736 441.533 110.775 435.344 110.775ZM435.344 89.1412C429.614 89.1412 424.952 93.8066 424.952 99.5419C424.952 105.277 429.614 109.943 435.344 109.943C441.075 109.943 445.736 105.277 445.736 99.5419C445.736 93.8066 441.075 89.1412 435.344 89.1412Z" fill="#B6391E"/>
<path d="M252.228 106.609H251.396V123.673H252.228V106.609Z" fill="#B6391E"/>
<path d="M252.078 106.911C244.16 106.911 237.717 100.463 237.717 92.5372C237.717 84.6109 244.16 78.1628 252.078 78.1628C259.997 78.1628 266.439 84.6109 266.439 92.5372C266.439 100.463 259.997 106.911 252.078 106.911ZM252.078 78.9955C244.618 78.9955 238.548 85.0704 238.548 92.5372C238.548 100.004 244.618 106.079 252.078 106.079C259.539 106.079 265.608 100.004 265.608 92.5372C265.608 85.0704 259.539 78.9955 252.078 78.9955Z" fill="#B6391E"/>
<path d="M603.863 107.606C596.256 107.606 590.066 101.411 590.066 93.7974C590.066 86.183 596.256 79.9882 603.863 79.9882C611.471 79.9882 617.661 86.183 617.661 93.7974C617.66 101.411 611.471 107.606 603.863 107.606ZM603.863 80.82C596.714 80.82 590.898 86.6408 590.898 93.7974C590.898 100.952 596.714 106.774 603.863 106.774C611.013 106.774 616.83 100.953 616.83 93.7974C616.829 86.6417 611.013 80.82 603.863 80.82Z" fill="#B6391E"/>
<path d="M604.278 107.368H603.447V123.672H604.278V107.368Z" fill="#B6391E"/>
<path d="M634.895 110.775C628.706 110.775 623.672 105.736 623.672 99.5428C623.672 93.3496 628.707 88.3103 634.895 88.3103C641.083 88.3103 646.118 93.3496 646.118 99.5428C646.118 105.736 641.083 110.775 634.895 110.775ZM634.895 89.1412C629.165 89.1412 624.503 93.8066 624.503 99.5419C624.503 105.277 629.165 109.943 634.895 109.943C640.626 109.943 645.287 105.277 645.287 99.5419C645.287 93.8066 640.625 89.1412 634.895 89.1412Z" fill="#B6391E"/>
<path d="M667.524 107.606C659.916 107.606 653.727 101.411 653.727 93.7974C653.727 86.183 659.916 79.9882 667.524 79.9882C675.132 79.9882 681.321 86.183 681.321 93.7974C681.321 101.411 675.132 107.606 667.524 107.606ZM667.524 80.82C660.375 80.82 654.558 86.6408 654.558 93.7974C654.558 100.952 660.374 106.774 667.524 106.774C674.673 106.774 680.49 100.953 680.49 93.7974C680.489 86.6417 674.673 80.82 667.524 80.82Z" fill="#B6391E"/>
<path d="M667.939 107.189H667.107V123.672H667.939V107.189Z" fill="#B6391E"/>
<path d="M660.429 93.7974C660.429 101.194 654.439 107.19 647.047 107.19C639.656 107.19 633.666 101.195 633.666 93.7974C633.666 86.4002 639.656 80.4041 647.047 80.4041C654.439 80.4041 660.429 86.4002 660.429 93.7974Z" fill="white"/>
<path d="M647.047 107.606C639.44 107.606 633.25 101.411 633.25 93.7974C633.25 86.183 639.44 79.9882 647.047 79.9882C654.654 79.9882 660.844 86.183 660.844 93.7974C660.843 101.411 654.654 107.606 647.047 107.606ZM647.047 80.82C639.898 80.82 634.081 86.6408 634.081 93.7974C634.081 100.952 639.897 106.774 647.047 106.774C654.197 106.774 660.013 100.953 660.013 93.7974C660.012 86.6417 654.196 80.82 647.047 80.82Z" fill="#B6391E"/>
<path d="M647.462 107.189H646.631V123.672H647.462V107.189Z" fill="#B6391E"/>
<path d="M635.12 110.447H634.289V123.672H635.12V110.447Z" fill="#B6391E"/>
<path d="M387.81 106.435H386.979V123.673H387.81V106.435Z" fill="#B6391E"/>
<path d="M405.618 110.447H404.787V123.672H405.618V110.447Z" fill="#B6391E"/>
<path d="M405.379 110.353C401.718 110.353 398.277 108.611 396.095 105.675C393.965 106.939 391.547 107.606 389.08 107.606C381.473 107.606 375.283 101.411 375.283 93.7974C375.283 86.183 381.473 79.9882 389.08 79.9882C394.404 79.9882 399.249 83.0672 401.532 87.8659C402.78 87.424 404.071 87.2001 405.378 87.2001C411.755 87.2001 416.945 92.3929 416.945 98.7764C416.946 105.16 411.757 110.353 405.379 110.353ZM396.323 104.554L396.55 104.881C398.559 107.787 401.86 109.521 405.38 109.521C411.299 109.521 416.114 104.701 416.114 98.7764C416.114 92.8524 411.299 88.0327 405.38 88.0327C404.048 88.0327 402.732 88.2835 401.47 88.779L401.099 88.9241L400.938 88.5593C398.862 83.8587 394.208 80.8208 389.083 80.8208C381.934 80.8208 376.117 86.6417 376.117 93.7982C376.117 100.953 381.933 106.775 389.083 106.775C391.522 106.775 393.91 106.081 395.988 104.767L396.323 104.554Z" fill="#B6391E"/>
<path d="M85.5397 67.1978H68.9805V63.2074L71.4185 61.8524V46.9985L73.3278 45.028H81.3398L83.1008 47.0094V61.844L85.5389 63.2083V67.1978H85.5397ZM69.8124 66.366H84.7086V63.6963L82.2706 62.332V47.3255L80.9678 45.8598H73.6806L72.2504 47.3356V62.3421L69.8124 63.6971V66.366Z" fill="#B6391E"/>
<path d="M109.989 124.266H44.6738V103.603H109.989V124.266ZM45.5049 123.433H109.158V104.435H45.5049V123.433Z" fill="#B6391E"/>
<path d="M100.102 98.8049H54.7266V123.88H100.102V98.8049Z" fill="white"/>
<path d="M100.519 124.297H54.3125V98.389H100.519V124.297ZM55.1436 123.465H99.6872V99.2216H55.1436V123.465Z" fill="#B6391E"/>
<path d="M77.6748 4.01723H76.8438V9.88669H77.6748V4.01723Z" fill="#B6391E"/>
<path d="M79.826 6.04135H74.6953V6.87314H79.826V6.04135Z" fill="#B6391E"/>
<path d="M116.101 123.433H38.1348V124.265H116.101V123.433Z" fill="#B6391E"/>
<path d="M82.6852 48.4902H71.834V49.322H82.6852V48.4902Z" fill="#B6391E"/>
<path d="M64.2198 99.2267H63.3887V123.868H64.2198V99.2267Z" fill="#B6391E"/>
<path d="M73.294 99.2267H72.4629V123.868H73.294V99.2267Z" fill="#B6391E"/>
<path d="M82.3682 99.2267H81.5371V123.868H82.3682V99.2267Z" fill="#B6391E"/>
<path d="M91.4424 99.2267H90.6113V123.868H91.4424V99.2267Z" fill="#B6391E"/>
<path d="M80.4201 45.8606H74.1014L73.6875 45.4036L76.8469 13.3019H77.6738L80.8331 45.4036L80.4201 45.8606ZM74.5597 45.0288H79.961L77.2599 17.5857L74.5597 45.0288Z" fill="#B6391E"/>
<path d="M100.506 99.2124H54.3027V85.6573H100.506V99.2124V99.2124ZM55.1338 98.3806H99.6749V86.4891H55.1338V98.3806Z" fill="#B6391E"/>
<path d="M87.8513 87.2194H66.6699V81.4304H68.5516V66.366H85.9696V81.4304H87.8513V87.2194ZM67.501 86.3876H87.0202V82.2622H85.1385V67.1978H69.3827V82.2622H67.501V86.3876Z" fill="#B6391E"/>
<path d="M104.649 93.5123H49.8984L77.1539 83.3472L104.649 93.5123Z" fill="white"/>
<path d="M104.649 93.9282H49.8988L49.7539 93.1224L77.0094 82.9574H77.2984L104.793 93.1224L104.649 93.9282ZM52.2036 93.0965H102.325L77.1552 83.7908L52.2036 93.0965Z" fill="#B6391E"/>
<path d="M80.0424 79.2588H74.4785V70.6323H80.0424V79.2588ZM75.3096 78.427H79.2113V71.4641H75.3096V78.427Z" fill="#B6391E"/>
<path d="M87.4661 66.366H67.0547V67.1978H87.4661V66.366Z" fill="#B6391E"/>
<path d="M78.0911 61.922C78.0911 61.4634 77.7191 61.0911 77.2608 61.0911C76.8017 61.0911 76.4297 61.4634 76.4297 61.922C76.4297 62.3807 76.8017 62.753 77.2608 62.753C77.7191 62.753 78.0911 62.3807 78.0911 61.922Z" fill="#B6391E"/>
<path d="M77.2603 63.1689C76.5733 63.1689 76.0137 62.6096 76.0137 61.922C76.0137 61.2344 76.5725 60.6752 77.2603 60.6752C77.9473 60.6752 78.5061 61.2344 78.5061 61.922C78.5061 62.6096 77.9473 63.1689 77.2603 63.1689ZM77.2603 61.507C77.0316 61.507 76.8448 61.6931 76.8448 61.922C76.8448 62.1509 77.0308 62.3371 77.2603 62.3371C77.4891 62.3371 77.675 62.1509 77.675 61.922C77.675 61.6931 77.4891 61.507 77.2603 61.507Z" fill="#B6391E"/>
<path d="M77.6768 51.8718H76.8457V58.1815H77.6768V51.8718Z" fill="#B6391E"/>
<path d="M214.664 111.542C208.475 111.542 203.439 106.503 203.439 100.31C203.439 94.1169 208.475 89.0775 214.664 89.0775C220.852 89.0775 225.887 94.1169 225.887 100.31C225.887 106.503 220.852 111.542 214.664 111.542ZM214.664 89.9085C208.933 89.9085 204.271 94.5739 204.271 100.309C204.271 106.044 208.933 110.71 214.664 110.71C220.393 110.71 225.056 106.044 225.056 100.309C225.056 94.5739 220.393 89.9085 214.664 89.9085Z" fill="#B6391E"/>
<path d="M194.59 108.373C186.983 108.373 180.793 102.178 180.793 94.5646C180.793 86.9511 186.983 80.7563 194.59 80.7563C202.198 80.7563 208.387 86.9511 208.387 94.5646C208.387 102.178 202.197 108.373 194.59 108.373ZM194.59 81.5881C187.441 81.5881 181.624 87.4089 181.624 94.5646C181.624 101.72 187.44 107.541 194.59 107.541C201.74 107.541 207.556 101.72 207.556 94.5646C207.556 87.4089 201.739 81.5881 194.59 81.5881Z" fill="#B6391E"/>
<path d="M195.007 107.956H194.176V124.439H195.007V107.956Z" fill="#B6391E"/>
<path d="M215.079 111.403H214.248V124.44H215.079V111.403Z" fill="#B6391E"/>
<path d="M147.043 100.069C142.214 100.069 138.285 96.1368 138.285 91.3029V58.7584C138.285 53.9261 142.214 49.9944 147.043 49.9944C151.873 49.9944 155.802 53.9261 155.802 58.7584V91.3029C155.802 96.1368 151.873 100.069 147.043 100.069ZM147.043 50.8329C142.676 50.8329 139.123 54.3881 139.123 58.7584V91.3029C139.123 95.6748 142.676 99.2309 147.043 99.2309C151.41 99.2309 154.964 95.6748 154.964 91.3029V58.7584C154.964 54.3881 151.411 50.8329 147.043 50.8329Z" fill="#B6391E"/>
<path d="M147.46 53.6822H146.629V124.242H147.46V53.6822Z" fill="#B6391E"/>
<path d="M152.375 89.0052L151.787 88.417L146.75 93.4578L147.338 94.046L152.375 89.0052Z" fill="#B6391E"/>
<path d="M147.341 93.4574L142.303 88.4167L141.715 89.005L146.753 94.0457L147.341 93.4574Z" fill="#B6391E"/>
<path d="M152.373 79.3843L151.785 78.7961L146.749 83.8364L147.337 84.4246L152.373 79.3843Z" fill="#B6391E"/>
<path d="M147.341 83.8372L142.303 78.7965L141.715 79.3848L146.753 84.4255L147.341 83.8372Z" fill="#B6391E"/>
<path d="M152.373 69.7628L151.785 69.1746L146.749 74.2148L147.337 74.803L152.373 69.7628Z" fill="#B6391E"/>
<path d="M147.341 74.2155L142.303 69.1747L141.715 69.763L146.753 74.8037L147.341 74.2155Z" fill="#B6391E"/>
<path d="M152.373 60.1426L151.785 59.5544L146.749 64.5947L147.337 65.1828L152.373 60.1426Z" fill="#B6391E"/>
<path d="M147.343 64.6048L142.305 59.5647L141.717 60.153L146.755 65.1931L147.343 64.6048Z" fill="#B6391E"/>
<path d="M297.263 94.3903C291.371 94.3903 286.578 89.5932 286.578 83.6969V43.637C286.578 37.7415 291.371 32.9453 297.263 32.9453C303.154 32.9453 307.947 37.7415 307.947 43.637V83.6969C307.947 89.5932 303.154 94.3903 297.263 94.3903ZM297.263 33.7838C291.834 33.7838 287.416 38.2035 287.416 43.637V83.6969C287.416 89.1304 291.833 93.5518 297.263 93.5518C302.692 93.5518 307.109 89.1312 307.109 83.6969V43.637C307.109 38.2044 302.692 33.7838 297.263 33.7838Z" fill="#B6391E"/>
<path d="M297.677 37.3876H296.846V124.242H297.677V37.3876Z" fill="#B6391E"/>
<path d="M303.754 80.8L303.166 80.2118L296.967 86.4159L297.555 87.0041L303.754 80.8Z" fill="#B6391E"/>
<path d="M297.565 86.4106L291.363 80.2056L290.776 80.7938L296.977 86.9988L297.565 86.4106Z" fill="#B6391E"/>
<path d="M303.754 68.9571L303.166 68.369L296.967 74.5731L297.555 75.1612L303.754 68.9571Z" fill="#B6391E"/>
<path d="M297.549 74.5779L291.348 68.3735L290.76 68.9617L296.961 75.1662L297.549 74.5779Z" fill="#B6391E"/>
<path d="M303.754 57.1142L303.166 56.526L296.967 62.7301L297.555 63.3183L303.754 57.1142Z" fill="#B6391E"/>
<path d="M297.539 62.7407L291.338 56.5363L290.75 57.1246L296.951 63.329L297.539 62.7407Z" fill="#B6391E"/>
<path d="M303.754 45.2708L303.166 44.6826L296.967 50.8867L297.555 51.4749L303.754 45.2708Z" fill="#B6391E"/>
<path d="M297.541 50.8983L291.34 44.6939L290.752 45.2822L296.953 51.4866L297.541 50.8983Z" fill="#B6391E"/>
<path d="M331.443 98.4091C326.303 98.4091 322.121 94.2242 322.121 89.08V54.3378C322.121 49.1945 326.303 45.0104 331.443 45.0104C336.582 45.0104 340.764 49.1945 340.764 54.3378V89.08C340.764 94.2242 336.582 98.4091 331.443 98.4091ZM331.443 45.8489C326.765 45.8489 322.959 49.6573 322.959 54.3378V89.08C322.959 93.7614 326.764 97.5706 331.443 97.5706C336.121 97.5706 339.926 93.7614 339.926 89.08V54.3378C339.926 49.6565 336.12 45.8489 331.443 45.8489Z" fill="#B6391E"/>
<path d="M331.856 48.9186H331.025V124.243H331.856V48.9186Z" fill="#B6391E"/>
<path d="M337.113 86.6056L336.525 86.0175L331.149 91.3981L331.737 91.9862L337.113 86.6056Z" fill="#B6391E"/>
<path d="M331.745 91.4209L326.367 86.0392L325.78 86.6274L331.158 92.0091L331.745 91.4209Z" fill="#B6391E"/>
<path d="M337.111 76.3356L336.523 75.7474L331.148 81.1274L331.736 81.7155L337.111 76.3356Z" fill="#B6391E"/>
<path d="M331.731 81.1307L326.354 75.7502L325.766 76.3385L331.143 81.7189L331.731 81.1307Z" fill="#B6391E"/>
<path d="M337.113 66.0642L336.525 65.4761L331.149 70.8566L331.737 71.4448L337.113 66.0642Z" fill="#B6391E"/>
<path d="M331.731 70.8601L326.354 65.4797L325.766 66.0679L331.143 71.4483L331.731 70.8601Z" fill="#B6391E"/>
<path d="M337.111 55.7943L336.523 55.2062L331.147 60.5868L331.735 61.1749L337.111 55.7943Z" fill="#B6391E"/>
<path d="M331.731 60.5895L326.354 55.2091L325.766 55.7973L331.143 61.1777L331.731 60.5895Z" fill="#B6391E"/>
<path d="M22.0235 118.803C15.9888 118.803 11.0801 113.889 11.0801 107.85C11.0801 101.811 15.9888 96.8973 22.0235 96.8973C28.0582 96.8973 32.9669 101.81 32.9669 107.85C32.9669 113.889 28.0574 118.803 22.0235 118.803ZM22.0235 97.7358C16.4512 97.7358 11.9179 102.273 11.9179 107.85C11.9179 113.427 16.4512 117.965 22.0235 117.965C27.5957 117.965 32.1291 113.427 32.1291 107.85C32.1291 102.273 27.5957 97.7358 22.0235 97.7358Z" fill="#B6391E"/>
<path d="M22.6338 103.7H21.8027V124.822H22.6338V103.7Z" fill="#B6391E"/>
<path d="M27.0779 110.273L26.4902 109.685L21.9263 114.253L22.514 114.841L27.0779 110.273Z" fill="#B6391E"/>
<path d="M22.5177 111.972L17.9531 107.405L17.3655 107.993L21.9301 112.56L22.5177 111.972Z" fill="#B6391E"/>
</svg>
